<svg xmlns="http://www.w3.org/2000/svg" viewBox="0 0 306.81 34.35"><defs><style>.cls-1{fill:#fff;}</style></defs><title>アセット 9</title><g id="レイヤー_2" data-name="レイヤー 2"><g id="レイヤー_1-2" data-name="レイヤー 1"><path class="cls-1" d="M65.58,16.1h11a2,2,0,0,0,0-4.1h-11a2.05,2.05,0,1,0,0,4.1Z"/><circle class="cls-1" cx="139.8" cy="22.9" r="2.84"/><path class="cls-1" d="M77.23,8.9c.52-.14,1.14,0,1.62-.27a.88.88,0,0,0,.35-.78,1.2,1.2,0,0,0-.88-1,1.72,1.72,0,0,1-.7-.48,1.21,1.21,0,0,0-2,.53,1.65,1.65,0,0,1-.36.77A1.2,1.2,0,0,0,75,9a.88.88,0,0,0,.69.49c.57,0,1-.43,1.55-.57"/><path class="cls-1" d="M75.51,4.11c-.19-.25-.47-.43-.78-.23a1.25,1.25,0,0,0-.5.8A1.06,1.06,0,0,0,75,5.92a.78.78,0,0,0,.64-.26,1.12,1.12,0,0,0,0-1.23A1.46,1.46,0,0,0,75.51,4.11Z"/><path class="cls-1" d="M76.25,3.91c0-.31.2-.6.56-.59a1.24,1.24,0,0,1,.84.45,1.06,1.06,0,0,1-.09,1.47.75.75,0,0,1-.68.1,1.12,1.12,0,0,1-.65-1A1.67,1.67,0,0,1,76.25,3.91Z"/><path class="cls-1" d="M78.44,4.78c.16-.27.42-.48.74-.33a1.23,1.23,0,0,1,.61.73,1.05,1.05,0,0,1-.64,1.33.76.76,0,0,1-.66-.17,1.11,1.11,0,0,1-.21-1.21A2.14,2.14,0,0,1,78.44,4.78Z"/><path class="cls-1" d="M74.05,6c-.28-.15-.6-.21-.81.09a1.17,1.17,0,0,0-.16.93,1.06,1.06,0,0,0,1.22.83.76.76,0,0,0,.49-.48,1.11,1.11,0,0,0-.43-1.15A1.44,1.44,0,0,0,74.05,6Z"/><path class="cls-1" d="M85,12.9c.52-.14,1.14,0,1.62-.28a.85.85,0,0,0,.35-.77,1.19,1.19,0,0,0-.88-1,1.72,1.72,0,0,1-.7-.48,1.21,1.21,0,0,0-2,.53,1.58,1.58,0,0,1-.36.76A1.22,1.22,0,0,0,82.76,13a.88.88,0,0,0,.69.49c.57,0,1-.43,1.55-.57"/><path class="cls-1" d="M83.31,8.11c-.2-.25-.48-.43-.78-.23a1.22,1.22,0,0,0-.51.8,1.06,1.06,0,0,0,.81,1.24.78.78,0,0,0,.64-.26,1.12,1.12,0,0,0,0-1.23A1.87,1.87,0,0,0,83.31,8.11Z"/><path class="cls-1" d="M84,7.91c0-.31.2-.6.56-.59a1.22,1.22,0,0,1,.84.45,1.06,1.06,0,0,1-.09,1.47.75.75,0,0,1-.68.1A1.13,1.13,0,0,1,84,8.29,2.55,2.55,0,0,1,84,7.91Z"/><path class="cls-1" d="M86.23,8.78c.17-.27.42-.48.75-.33a1.21,1.21,0,0,1,.6.73,1.05,1.05,0,0,1-.64,1.33.76.76,0,0,1-.66-.17,1.11,1.11,0,0,1-.21-1.21A2.14,2.14,0,0,1,86.23,8.78Z"/><path class="cls-1" d="M81.84,10a.57.57,0,0,0-.81.09,1.26,1.26,0,0,0-.16.93,1.07,1.07,0,0,0,1.22.83.74.74,0,0,0,.49-.48,1.11,1.11,0,0,0-.43-1.15A1.23,1.23,0,0,0,81.84,10Z"/><path class="cls-1" d="M123.34,10.67c.53-.14,1.14,0,1.62-.27a.88.88,0,0,0,.35-.78,1.2,1.2,0,0,0-.88-1,1.69,1.69,0,0,1-.69-.48,1.08,1.08,0,0,0-1.15-.29,1.06,1.06,0,0,0-.84.82,1.76,1.76,0,0,1-.36.77,1.18,1.18,0,0,0-.28,1.28.85.85,0,0,0,.69.49c.56,0,1-.43,1.54-.57"/><path class="cls-1" d="M121.65,5.88c-.2-.25-.47-.42-.78-.23a1.26,1.26,0,0,0-.51.8,1.08,1.08,0,0,0,.82,1.24.76.76,0,0,0,.63-.26,1.1,1.1,0,0,0,0-1.23A1.87,1.87,0,0,0,121.65,5.88Z"/><path class="cls-1" d="M122.38,5.68c.05-.31.2-.6.57-.58a1.18,1.18,0,0,1,.83.44A1.06,1.06,0,0,1,123.7,7a.78.78,0,0,1-.68.09,1.11,1.11,0,0,1-.65-1A1.72,1.72,0,0,1,122.38,5.68Z"/><path class="cls-1" d="M124.58,6.55c.16-.27.41-.48.74-.32a1.21,1.21,0,0,1,.61.72,1.08,1.08,0,0,1-.64,1.34.81.81,0,0,1-.67-.17,1.13,1.13,0,0,1-.2-1.22A1.53,1.53,0,0,1,124.58,6.55Z"/><path class="cls-1" d="M120.19,7.73c-.28-.15-.61-.21-.81.09a1.22,1.22,0,0,0-.17.93,1.08,1.08,0,0,0,1.23.84.83.83,0,0,0,.49-.48A1.13,1.13,0,0,0,120.5,8,2.44,2.44,0,0,0,120.19,7.73Z"/><path class="cls-1" d="M131.13,14.67c.53-.14,1.15,0,1.63-.27a.9.9,0,0,0,.35-.78,1.2,1.2,0,0,0-.89-1,1.69,1.69,0,0,1-.69-.48,1.21,1.21,0,0,0-2,.53,1.65,1.65,0,0,1-.36.77,1.2,1.2,0,0,0-.28,1.28.88.88,0,0,0,.69.49c.57,0,1-.43,1.54-.57"/><path class="cls-1" d="M129.44,9.88a.57.57,0,0,0-.78-.23,1.21,1.21,0,0,0-.5.8,1.06,1.06,0,0,0,.81,1.24.78.78,0,0,0,.64-.26,1.12,1.12,0,0,0,0-1.23A1.46,1.46,0,0,0,129.44,9.88Z"/><path class="cls-1" d="M130.18,9.68c0-.31.19-.6.56-.58a1.22,1.22,0,0,1,.84.44,1.07,1.07,0,0,1-.09,1.48.77.77,0,0,1-.68.09,1.11,1.11,0,0,1-.65-1A1.31,1.31,0,0,1,130.18,9.68Z"/><path class="cls-1" d="M132.37,10.55c.16-.27.41-.48.74-.32a1.18,1.18,0,0,1,.61.72,1.07,1.07,0,0,1-.64,1.34.78.78,0,0,1-.66-.17,1.13,1.13,0,0,1-.21-1.22A2.14,2.14,0,0,1,132.37,10.55Z"/><path class="cls-1" d="M128,11.73c-.28-.15-.6-.21-.81.09a1.17,1.17,0,0,0-.16.93,1.06,1.06,0,0,0,1.22.84.83.83,0,0,0,.49-.48,1.13,1.13,0,0,0-.43-1.16A2.44,2.44,0,0,0,128,11.73Z"/><path class="cls-1" d="M14.72,33.88a1.26,1.26,0,0,1-1.28-1.06,1.05,1.05,0,0,1,.69-1.1c3.22-.92,10.67-5.1,8.89-12.31S17.13,12,16.49,11.72s.67-.83,2.82-.8a10.1,10.1,0,0,1,4.35,1c.63.3.93.86,1.14,1s.07-.53-.73-1.15c-.29-.23-.06-.33.14-.26,4.15,1.6,5.67,5.81,5.86,8.6a14,14,0,0,1-2.2,8.2c-.25.39-.34.47-.05.4a6.08,6.08,0,0,0,1-.34C30.54,27.63,25.92,33.61,14.72,33.88Z"/><path class="cls-1" d="M18.91,14.62a3.47,3.47,0,0,0-1.6-.5,10.92,10.92,0,0,0-4.78,1.15h0c-.16.07-.28,0-.27-.15h0a2.26,2.26,0,0,0-.42-1.33,2.23,2.23,0,0,0-1.7-.91s0,0,0,0-.25-.16-.21-.4c.33-1.5.58-2.41.59-2.44A2.25,2.25,0,0,0,6.14,8.8c-.06.18-.55,2-1.06,4.7h0a.66.66,0,0,1-.49.59l-2,.48A2.26,2.26,0,0,0,3.65,19l.18-.05c.34-.08.41.09.41.36h0l-.06.57h0a3.07,3.07,0,0,1-.35.86h0L.34,26.29A2.25,2.25,0,0,0,1,29.37a2.22,2.22,0,0,0,2.68-.19h0c.12-.11.33-.22.36.16a0,0,0,0,1,0,0c.08.89.18,1.78.32,2.66a2.24,2.24,0,0,0,2.22,1.9,2.17,2.17,0,0,0,.36,0,2.25,2.25,0,0,0,1.87-2.58,39.16,39.16,0,0,1-.41-6.92A1.9,1.9,0,0,1,9,23.1c3-2.83,6.92-5.41,10.44-4.16a6.1,6.1,0,0,1,1.33.65h0c.34.25.73.31.63-.17A9.87,9.87,0,0,0,18.91,14.62Z"/><path class="cls-1" d="M54.43,21.62a2.28,2.28,0,0,0-2.34,2.17c-.08,2.05-.92,5.71-2.34,5.71-.75,0-1-.21-1.56-2s-1.49-4.41-4.75-4.9a4.53,4.53,0,0,0-1.95.12,0,0,0,0,0,0,0c-.19.05-.27-.1-.22-.29a27.5,27.5,0,0,1,3.52-6.63,2.26,2.26,0,0,0-3.62-2.69c-5.61,7.52-6.73,18-6.78,18.39v.37l0,.21a1.55,1.55,0,0,0,0,.21,1.42,1.42,0,0,0,.07.22,1.54,1.54,0,0,0,.08.19,1.18,1.18,0,0,0,.11.19,1.74,1.74,0,0,0,.11.18l.14.17.15.15.18.14.17.12.22.11a.6.6,0,0,0,.11.06l.07,0,.23.07.23,0,.07,0h.26l.19,0,.24,0,.16,0,.24-.08.16-.08.21-.12.15-.11.18-.15.13-.14.14-.18.11-.16a1.51,1.51,0,0,0,.11-.22.41.41,0,0,0,0-.09c1.22-3.05,3.29-5.61,4-5.5.41.07.59.23,1.16,1.89s1.69,5,5.83,5c5.11,0,6.71-6.32,6.85-10A2.26,2.26,0,0,0,54.43,21.62Z"/><path class="cls-1" d="M80.34,19.2H61.81a2,2,0,1,0,0,4.09h7c.22,0,.68.24.56.91-1,5.44-4.77,6-5.28,6.06a2,2,0,0,0,.17,4.09h.16c2.88-.21,8.06-2.68,9.11-10.24h0c0-.39.35-.82.73-.82h6.08a2,2,0,1,0,0-4.09Z"/><path class="cls-1" d="M102.52,13.27a2.06,2.06,0,0,0-2.78.83c0,.08-4.35,7.82-13.22,9.69A2,2,0,0,0,87,27.84a2,2,0,0,0,.42,0,22.75,22.75,0,0,0,7-2.77h0c.24-.15.45,0,.45.28v7a2,2,0,1,0,4.1,0V22.16a1.08,1.08,0,0,1,.32-.91h0A24.57,24.57,0,0,0,103.35,16,2.06,2.06,0,0,0,102.52,13.27Z"/><path class="cls-1" d="M120.81,25.63h0a.43.43,0,0,1-.09-.68h0a26.63,26.63,0,0,0,4-8.63,2,2,0,0,0-.4-1.72,2,2,0,0,0-1.6-.77H110.13a2,2,0,1,0,0,4.1h9.15c.42,0,.56.12.4.51-1.52,3.54-5,9.15-12,11.18a2.05,2.05,0,0,0,.57,4,2.3,2.3,0,0,0,.57-.08,21.25,21.25,0,0,0,8.36-4.63h0a.84.84,0,0,1,.89-.19,38.29,38.29,0,0,1,5.61,4.48,2,2,0,0,0,1.44.6,2.05,2.05,0,0,0,1.44-3.51A42.9,42.9,0,0,0,120.81,25.63Z"/><path class="cls-1" d="M238.62,16.1h11a2.05,2.05,0,0,0,0-4.1h-11a2,2,0,0,0,0,4.1Z"/><path class="cls-1" d="M250.27,8.9c.52-.14,1.14,0,1.62-.27a.88.88,0,0,0,.35-.78,1.2,1.2,0,0,0-.88-1,1.72,1.72,0,0,1-.7-.48,1.06,1.06,0,0,0-1.14-.29,1.07,1.07,0,0,0-.85.82,1.65,1.65,0,0,1-.36.77A1.2,1.2,0,0,0,248,9a.88.88,0,0,0,.69.49c.57,0,1-.43,1.55-.57"/><path class="cls-1" d="M248.56,4.11c-.2-.25-.48-.43-.79-.23a1.25,1.25,0,0,0-.5.8,1.06,1.06,0,0,0,.81,1.24.78.78,0,0,0,.64-.26,1.12,1.12,0,0,0,0-1.23A1.87,1.87,0,0,0,248.56,4.11Z"/><path class="cls-1" d="M249.29,3.91c.05-.31.2-.6.56-.59a1.22,1.22,0,0,1,.84.45,1.06,1.06,0,0,1-.09,1.47.75.75,0,0,1-.68.1,1.13,1.13,0,0,1-.65-1A2.55,2.55,0,0,1,249.29,3.91Z"/><path class="cls-1" d="M251.48,4.78c.17-.27.42-.48.75-.33a1.21,1.21,0,0,1,.6.73,1.05,1.05,0,0,1-.64,1.33.76.76,0,0,1-.66-.17,1.11,1.11,0,0,1-.21-1.21A2.14,2.14,0,0,1,251.48,4.78Z"/><path class="cls-1" d="M247.09,6c-.28-.15-.6-.21-.81.09a1.21,1.21,0,0,0-.16.93,1.07,1.07,0,0,0,1.22.83.74.74,0,0,0,.49-.48,1.11,1.11,0,0,0-.43-1.15A1.44,1.44,0,0,0,247.09,6Z"/><path class="cls-1" d="M258,12.9c.52-.14,1.14,0,1.62-.28a.85.85,0,0,0,.35-.77,1.19,1.19,0,0,0-.88-1,1.69,1.69,0,0,1-.69-.48,1.06,1.06,0,0,0-1.15-.29,1,1,0,0,0-.84.82,1.69,1.69,0,0,1-.37.76A1.22,1.22,0,0,0,255.8,13a.88.88,0,0,0,.7.49c.56,0,1-.43,1.54-.57"/><path class="cls-1" d="M256.35,8.11c-.2-.25-.48-.43-.78-.23a1.26,1.26,0,0,0-.51.8,1.07,1.07,0,0,0,.82,1.24.76.76,0,0,0,.63-.26,1.1,1.1,0,0,0,0-1.23A1.87,1.87,0,0,0,256.35,8.11Z"/><path class="cls-1" d="M257.08,7.91c.05-.31.2-.6.56-.59a1.22,1.22,0,0,1,.84.45,1.06,1.06,0,0,1-.08,1.47.76.76,0,0,1-.68.1,1.1,1.1,0,0,1-.65-1.05A1.64,1.64,0,0,1,257.08,7.91Z"/><path class="cls-1" d="M259.27,8.78c.17-.27.42-.48.75-.33a1.26,1.26,0,0,1,.61.73,1.07,1.07,0,0,1-.64,1.33.77.77,0,0,1-.67-.17,1.09,1.09,0,0,1-.2-1.21A2,2,0,0,1,259.27,8.78Z"/><path class="cls-1" d="M254.88,10a.57.57,0,0,0-.81.09,1.26,1.26,0,0,0-.16.93,1.07,1.07,0,0,0,1.22.83.74.74,0,0,0,.49-.48,1.09,1.09,0,0,0-.43-1.15A1.23,1.23,0,0,0,254.88,10Z"/><path class="cls-1" d="M296.38,10.67c.53-.14,1.14,0,1.63-.27a.9.9,0,0,0,.35-.78,1.2,1.2,0,0,0-.89-1,1.69,1.69,0,0,1-.69-.48,1.08,1.08,0,0,0-1.15-.29,1.06,1.06,0,0,0-.84.82,1.76,1.76,0,0,1-.36.77,1.18,1.18,0,0,0-.28,1.28.85.85,0,0,0,.69.49c.57,0,1-.43,1.54-.57"/><path class="cls-1" d="M294.69,5.88c-.2-.25-.47-.42-.78-.23a1.21,1.21,0,0,0-.5.8,1.06,1.06,0,0,0,.81,1.24.78.78,0,0,0,.64-.26,1.14,1.14,0,0,0,0-1.23A2,2,0,0,0,294.69,5.88Z"/><path class="cls-1" d="M295.42,5.68c.05-.31.2-.6.57-.58a1.22,1.22,0,0,1,.84.44A1.07,1.07,0,0,1,296.74,7a.78.78,0,0,1-.68.09,1.11,1.11,0,0,1-.65-1A1.72,1.72,0,0,1,295.42,5.68Z"/><path class="cls-1" d="M297.62,6.55c.16-.27.41-.48.74-.32A1.21,1.21,0,0,1,299,7a1.07,1.07,0,0,1-.64,1.34.81.81,0,0,1-.67-.17,1.13,1.13,0,0,1-.2-1.22A2.14,2.14,0,0,1,297.62,6.55Z"/><path class="cls-1" d="M293.23,7.73c-.28-.15-.6-.21-.81.09a1.17,1.17,0,0,0-.16.93,1.06,1.06,0,0,0,1.22.84.83.83,0,0,0,.49-.48A1.13,1.13,0,0,0,293.54,8,2.44,2.44,0,0,0,293.23,7.73Z"/><path class="cls-1" d="M304.18,14.67c.52-.14,1.14,0,1.62-.27a.88.88,0,0,0,.35-.78,1.2,1.2,0,0,0-.88-1,1.72,1.72,0,0,1-.7-.48,1.21,1.21,0,0,0-2,.53,1.65,1.65,0,0,1-.36.77,1.2,1.2,0,0,0-.28,1.28.88.88,0,0,0,.69.49c.57,0,1-.43,1.55-.57"/><path class="cls-1" d="M302.49,9.88c-.2-.25-.48-.42-.79-.23a1.25,1.25,0,0,0-.5.8,1.06,1.06,0,0,0,.81,1.24.78.78,0,0,0,.64-.26,1.12,1.12,0,0,0,0-1.23A1.87,1.87,0,0,0,302.49,9.88Z"/><path class="cls-1" d="M303.22,9.68c0-.31.2-.6.56-.58a1.22,1.22,0,0,1,.84.44,1.07,1.07,0,0,1-.09,1.48.77.77,0,0,1-.68.09,1.13,1.13,0,0,1-.65-1A1.76,1.76,0,0,1,303.22,9.68Z"/><path class="cls-1" d="M305.41,10.55c.16-.27.42-.48.75-.32a1.16,1.16,0,0,1,.6.72,1.07,1.07,0,0,1-.64,1.34.79.79,0,0,1-.66-.17,1.13,1.13,0,0,1-.21-1.22A2.14,2.14,0,0,1,305.41,10.55Z"/><path class="cls-1" d="M301,11.73c-.28-.15-.6-.21-.81.09a1.21,1.21,0,0,0-.16.93,1.06,1.06,0,0,0,1.22.84.8.8,0,0,0,.49-.48,1.13,1.13,0,0,0-.43-1.16A1.89,1.89,0,0,0,301,11.73Z"/><path class="cls-1" d="M253.38,19.2H234.85a2,2,0,0,0,0,4.09h7c.22,0,.69.24.56.91-1,5.44-4.77,6-5.27,6.06a2,2,0,0,0,.17,4.09h.15c2.88-.21,8.06-2.68,9.11-10.24h0c.05-.39.35-.82.73-.82h6.08a2,2,0,1,0,0-4.09Z"/><path class="cls-1" d="M275.56,13.27a2.06,2.06,0,0,0-2.78.83c0,.08-4.35,7.82-13.21,9.69a2,2,0,0,0,.42,4.05,2,2,0,0,0,.42,0,22.75,22.75,0,0,0,7-2.77h0c.24-.15.45,0,.45.28v7a2.05,2.05,0,0,0,4.1,0V22.16a1.08,1.08,0,0,1,.32-.91h0A24.57,24.57,0,0,0,276.39,16,2.06,2.06,0,0,0,275.56,13.27Z"/><path class="cls-1" d="M293.85,25.63h0a.44.44,0,0,1-.09-.68h0a26.63,26.63,0,0,0,4-8.63,2,2,0,0,0-.4-1.72,2,2,0,0,0-1.6-.77H283.17a2,2,0,0,0,0,4.1h9.15c.42,0,.56.12.4.51-1.52,3.54-5,9.15-12,11.18a2.05,2.05,0,0,0,.57,4,2.24,2.24,0,0,0,.57-.08,21.25,21.25,0,0,0,8.36-4.63h0a.84.84,0,0,1,.89-.19,38.29,38.29,0,0,1,5.61,4.48,2,2,0,0,0,1.44.6,2.05,2.05,0,0,0,1.45-3.51A43.34,43.34,0,0,0,293.85,25.63Z"/><path class="cls-1" d="M156.9,9.22A2.26,2.26,0,0,0,154,10.5c-.2.5-4.76,12.38.07,22.38a2.26,2.26,0,0,0,2,1.27,2.29,2.29,0,0,0,1-.22,2.26,2.26,0,0,0,1.05-3c-4-8.19,0-18.64.07-18.78A2.26,2.26,0,0,0,156.9,9.22Z"/><path class="cls-1" d="M164.39,16.71a2.14,2.14,0,0,0,.78-.14,22.58,22.58,0,0,1,7.36-.57,2.26,2.26,0,1,0,1.13-4.37c-2.27-.58-7.93-.07-10,.71a2.25,2.25,0,0,0,.78,4.37Z"/><path class="cls-1" d="M176.59,28.05a2.26,2.26,0,0,0-3-1.11,9.13,9.13,0,0,1-9.44-.75,2.26,2.26,0,1,0-2.44,3.8A13.66,13.66,0,0,0,175.48,31,2.26,2.26,0,0,0,176.59,28.05Z"/><path class="cls-1" d="M223.4,7.31c0,.07,0,.17,0,.25.64.58,4.5.77,4.36-1.16a.66.66,0,0,0,0-.15A11.67,11.67,0,0,0,224.3.54,2.25,2.25,0,0,0,221.36,4,7.51,7.51,0,0,1,223.4,7.31Z"/><path class="cls-1" d="M227.83,14.06a39.8,39.8,0,0,0,.28-4.19c-.42,1.55-4,1.22-4.52.66-.05,1.24-.17,2.69-.38,4.23C223.89,15.42,227.66,16.07,227.83,14.06Z"/><path class="cls-1" d="M226.35,22c.37-1.43.71-3,1-4.55-.5,1.3-3.85,1-4.59,0-.27,1.43-.61,2.87-1,4.24C222.39,22.51,225.69,23.76,226.35,22Z"/><path class="cls-1" d="M220.82,24.45c-.94,2.18-2.41,4.39-3.7,4.39-.75,0-.91,0-1.57-2-.56-1.65-1.49-4.41-4.75-4.91a4.88,4.88,0,0,0-2,.12h0c-.18.05-.26-.1-.21-.29a27.12,27.12,0,0,1,3.51-6.63,2.26,2.26,0,1,0-3.62-2.7c-5.6,7.53-6.73,18-6.78,18.4a.56.56,0,0,1,0,.13v.24l0,.21a1.55,1.55,0,0,0,0,.21c0,.08.05.15.07.22s.05.13.08.19a1.18,1.18,0,0,0,.11.19.94.94,0,0,0,.12.18,1,1,0,0,0,.13.16,1.21,1.21,0,0,0,.16.16l.16.13.19.13.2.11.13.06.08,0,.18.05.26,0,.08,0H204a1.72,1.72,0,0,0,.39,0l.1,0,.27-.08.11,0,.25-.13.08,0a2.51,2.51,0,0,0,.57-.51l0-.07c.06-.08.11-.16.16-.24l.06-.13a.67.67,0,0,0,.06-.12c1.18-3,3.26-5.61,4-5.5.41.06.59.22,1.15,1.89s1.69,5,5.84,5c4.69,0,7.3-5.55,8.28-8.22C224.44,26.33,221.56,25.45,220.82,24.45Z"/><path class="cls-1" d="M198.19,21.73a5.17,5.17,0,0,0-2.74-3.21A6,6,0,0,0,193.5,18h0a.43.43,0,0,1-.42-.54l.11-1.4a2,2,0,1,0-4.08-.34l-.24,2.89a.85.85,0,0,1-.47.67h0l-1.29.69h0a.48.48,0,0,1-.74-.22h0l-1-2.06a2.1,2.1,0,0,0-3.78,1.84l1.12,2.3h0c.12.26.18.49-.26.74h0c-.54.3-.93.53-1.08.62a2.1,2.1,0,1,0,2.1,3.63l.83-.47a.45.45,0,0,1,.7.19h0l2.81,5.78a2.09,2.09,0,0,0,1.89,1.18,2.17,2.17,0,0,0,.92-.21,2.11,2.11,0,0,0,1-2.81l-2.95-6.06a.39.39,0,0,1,.15-.58c1.33-.72,2.47-1.32,3-1.52a2.57,2.57,0,0,1,1.89,0,.94.94,0,0,1,.54.64c.16.52-.92,1.24-1.11,1.34A2.1,2.1,0,1,0,195,28C196.5,27.24,199.15,24.91,198.19,21.73Z"/></g></g></svg>