<svg width="335" height="51" viewBox="0 0 335 51" fill="none" xmlns="http://www.w3.org/2000/svg">
<g clip-path="url(#clip0)">
<path d="M335 0H0V50.0325H335V0Z" fill="white"/>
<path d="M335 0H0V50.0325H335V0Z" fill="white"/>
<path d="M75.7358 23.8916H87.2299C87.798 23.8916 88.3429 23.6645 88.7446 23.2604C89.1463 22.8563 89.372 22.3083 89.372 21.7368C89.372 21.1653 89.1463 20.6172 88.7446 20.2131C88.3429 19.8091 87.798 19.582 87.2299 19.582H75.7358C75.1677 19.582 74.6229 19.8091 74.2212 20.2131C73.8194 20.6172 73.5938 21.1653 73.5938 21.7368C73.5938 22.3083 73.8194 22.8563 74.2212 23.2604C74.6229 23.6645 75.1677 23.8916 75.7358 23.8916Z" fill="#1DA23A"/>
<path d="M153.29 34.0132C154.929 34.0132 156.257 32.6767 156.257 31.0281C156.257 29.3795 154.929 28.043 153.29 28.043C151.651 28.043 150.322 29.3795 150.322 31.0281C150.322 32.6767 151.651 34.0132 153.29 34.0132Z" fill="#1DA23A"/>
<path d="M87.8988 16.3239C88.4526 16.1768 89.1004 16.3239 89.602 16.0296C89.7264 15.9348 89.8252 15.81 89.8891 15.6667C89.953 15.5235 89.98 15.3663 89.9677 15.2098C89.934 14.9614 89.8276 14.7288 89.662 14.5416C89.4963 14.3544 89.279 14.2211 89.0377 14.1587C88.755 14.062 88.5051 13.8871 88.3167 13.6541C88.1595 13.5026 87.966 13.3945 87.7551 13.3403C87.5441 13.2861 87.3228 13.2877 87.1126 13.3447C86.9024 13.4018 86.7104 13.5126 86.5552 13.6662C86.4001 13.8199 86.287 14.0112 86.2269 14.2217C86.1736 14.5167 86.0438 14.7922 85.8507 15.0206C85.6787 15.1929 85.5596 15.4114 85.5077 15.65C85.4558 15.8886 85.4733 16.1371 85.5581 16.366C85.625 16.5072 85.7261 16.6294 85.852 16.7212C85.978 16.813 86.1248 16.8716 86.2791 16.8915C86.8747 16.8915 87.3241 16.4395 87.8883 16.2924" fill="#1DA23A"/>
<path d="M86.1124 11.2784C85.9034 11.0157 85.6213 10.837 85.2974 11.0367C85.1576 11.1357 85.0392 11.2622 84.9494 11.4085C84.8596 11.5549 84.8002 11.718 84.7749 11.8881C84.7219 12.1719 84.7805 12.4653 84.9384 12.7065C85.0963 12.9477 85.3411 13.1178 85.6213 13.1809C85.7447 13.1909 85.8687 13.1714 85.9831 13.1239C86.0975 13.0764 86.1991 13.0023 86.2796 12.9077C86.4129 12.7208 86.4888 12.4988 86.4981 12.2691C86.5074 12.0393 86.4496 11.8119 86.3318 11.6148C86.2695 11.4959 86.1961 11.3832 86.1124 11.2784Z" fill="#1DA23A"/>
<path d="M86.8733 11.0677C86.8733 10.7419 87.0823 10.437 87.4689 10.4581C87.6373 10.4713 87.8011 10.5192 87.9503 10.5987C88.0995 10.6783 88.2308 10.7878 88.3362 10.9205C88.5271 11.1394 88.6253 11.4248 88.6096 11.7155C88.594 12.0062 88.4659 12.2793 88.2526 12.4762C88.1492 12.5454 88.0314 12.5899 87.9082 12.6063C87.7851 12.6227 87.6598 12.6105 87.5421 12.5708C87.3412 12.4788 87.1705 12.331 87.0502 12.1448C86.9299 11.9586 86.8649 11.7417 86.8629 11.5197C86.8475 11.3692 86.8511 11.2173 86.8733 11.0677Z" fill="#1DA23A"/>
<path d="M89.1723 11.9826C89.3395 11.6988 89.6007 11.4781 89.9456 11.6463C90.2489 11.8042 90.478 12.0762 90.583 12.4031C90.6744 12.6793 90.6557 12.9803 90.531 13.243C90.4063 13.5057 90.1852 13.7095 89.9142 13.8115C89.7917 13.8356 89.6653 13.832 89.5443 13.8011C89.4232 13.7702 89.3105 13.7128 89.2141 13.6329C89.0592 13.4626 88.957 13.2507 88.9199 13.023C88.8827 12.7953 88.9124 12.5616 89.0052 12.3505C89.0498 12.2231 89.1057 12.1 89.1723 11.9826Z" fill="#1DA23A"/>
<path d="M84.6379 13.2221C84.3453 13.0644 84.011 13.0013 83.7915 13.3167C83.6988 13.4595 83.6353 13.6196 83.6048 13.7874C83.5743 13.9553 83.5774 14.1276 83.6139 14.2942C83.6745 14.5792 83.8418 14.8298 84.081 14.9942C84.3203 15.1585 84.6132 15.224 84.8991 15.1771C85.0153 15.1346 85.1211 15.0676 85.2094 14.9805C85.2977 14.8935 85.3665 14.7885 85.4111 14.6726C85.4622 14.4474 85.4469 14.2122 85.3671 13.9956C85.2873 13.779 85.1465 13.5906 84.9618 13.4533C84.86 13.3679 84.7517 13.2906 84.6379 13.2221Z" fill="#1DA23A"/>
<path d="M96.0281 20.5169C96.5714 20.3697 97.2193 20.5169 97.7208 20.2331C97.8461 20.139 97.9453 20.0143 98.0093 19.8708C98.0733 19.7274 98.0999 19.5699 98.0866 19.4132C98.0537 19.1662 97.9488 18.9346 97.7851 18.7475C97.6215 18.5605 97.4064 18.4264 97.167 18.3621C96.8839 18.2605 96.6318 18.0867 96.4356 17.8576C96.2791 17.706 96.0864 17.5975 95.876 17.5427C95.6657 17.4878 95.4448 17.4884 95.2348 17.5444C95.0248 17.6004 94.8326 17.7099 94.6769 17.8623C94.5212 18.0148 94.4071 18.205 94.3458 18.4147C94.2928 18.7129 94.1631 18.9919 93.9696 19.224C93.7965 19.3956 93.6766 19.6141 93.6247 19.853C93.5727 20.0919 93.5909 20.3408 93.677 20.5694C93.7445 20.7093 93.8459 20.8298 93.9719 20.9199C94.098 21.0099 94.2445 21.0665 94.398 21.0845C94.9936 21.0845 95.4429 20.6325 96.0176 20.4853" fill="#1DA23A"/>
<path d="M94.251 15.4833C94.2138 15.4131 94.1631 15.351 94.1018 15.3007C94.0405 15.2505 93.9698 15.213 93.8939 15.1905C93.8181 15.168 93.7385 15.1609 93.6599 15.1697C93.5813 15.1784 93.5052 15.2029 93.436 15.2415C93.2975 15.3418 93.18 15.4687 93.0903 15.6148C93.0007 15.7609 92.9406 15.9234 92.9136 16.0929C92.8606 16.3767 92.9192 16.6702 93.0771 16.9114C93.235 17.1525 93.4798 17.3226 93.7599 17.3858C93.8848 17.3949 94.0101 17.3751 94.126 17.3277C94.242 17.2803 94.3456 17.2066 94.4287 17.1125C94.5541 16.9205 94.6209 16.6958 94.6209 16.4661C94.6209 16.2363 94.5541 16.0116 94.4287 15.8196C94.3836 15.7005 94.3239 15.5875 94.251 15.4833Z" fill="#1DA23A"/>
<path d="M95.0243 15.2728C95.0243 14.9469 95.2333 14.6421 95.6094 14.6631C95.779 14.6774 95.944 14.7257 96.0948 14.8051C96.2455 14.8845 96.3789 14.9935 96.4871 15.1256C96.6742 15.3469 96.769 15.6325 96.7514 15.9225C96.7339 16.2125 96.6055 16.4844 96.3931 16.6813C96.29 16.7512 96.1722 16.7961 96.0489 16.8125C95.9256 16.829 95.8002 16.8164 95.6826 16.7759C95.4817 16.6838 95.311 16.5361 95.1907 16.3499C95.0704 16.1637 95.0054 15.9468 95.0034 15.7248C94.9919 15.5738 94.9989 15.422 95.0243 15.2728Z" fill="#1DA23A"/>
<path d="M97.314 16.1877C97.4812 15.9039 97.7528 15.6832 98.0872 15.8514C98.2384 15.9281 98.3728 16.0347 98.4823 16.1647C98.5918 16.2947 98.6742 16.4455 98.7246 16.6081C98.816 16.8843 98.7974 17.1854 98.6727 17.4481C98.5479 17.7107 98.3269 17.9145 98.0559 18.0166C97.9349 18.0405 97.8102 18.0369 97.6909 18.0059C97.5716 17.975 97.4606 17.9176 97.3662 17.8379C97.2148 17.6655 97.1163 17.4525 97.083 17.2248C97.0496 16.9972 97.0826 16.7647 97.1781 16.5556C97.2127 16.4292 97.2581 16.3061 97.314 16.1877Z" fill="#1DA23A"/>
<path d="M92.7258 17.4271C92.4332 17.2695 92.0988 17.2064 91.8794 17.5217C91.7856 17.6641 91.7223 17.8245 91.6935 17.9928C91.6647 18.1611 91.6711 18.3336 91.7122 18.4993C91.768 18.7847 91.9327 19.0369 92.1709 19.2019C92.4091 19.3669 92.702 19.4316 92.987 19.3822C93.1042 19.3416 93.211 19.2752 93.2995 19.1879C93.3881 19.1007 93.4562 18.9947 93.499 18.8777C93.5501 18.6525 93.5348 18.4172 93.455 18.2007C93.3752 17.9841 93.2344 17.7957 93.0497 17.6584C92.9471 17.5739 92.8389 17.4967 92.7258 17.4271Z" fill="#1DA23A"/>
<path d="M136.089 18.1833C136.632 18.0361 137.28 18.1833 137.782 17.889C137.908 17.7956 138.007 17.671 138.072 17.5274C138.136 17.3837 138.162 17.2259 138.147 17.0691C138.114 16.8222 138.01 16.5905 137.846 16.4035C137.682 16.2164 137.467 16.0823 137.228 16.018C136.942 15.9216 136.689 15.7469 136.496 15.5135C136.339 15.362 136.146 15.2539 135.935 15.1997C135.724 15.1455 135.502 15.147 135.292 15.2041C135.082 15.2612 134.89 15.3719 134.735 15.5256C134.58 15.6792 134.467 15.8706 134.407 16.0811C134.353 16.376 134.224 16.6516 134.03 16.8799C133.858 17.0523 133.739 17.2708 133.687 17.5094C133.636 17.7479 133.653 17.9965 133.738 18.2253C133.805 18.3666 133.906 18.4887 134.032 18.5806C134.158 18.6724 134.305 18.7309 134.459 18.7509C135.054 18.7509 135.504 18.2989 136.078 18.1518" fill="#1DA23A"/>
<path d="M134.324 13.1381C134.115 12.8858 133.822 12.6966 133.509 12.9068C133.227 13.105 133.035 13.4075 132.976 13.7477C132.923 14.033 132.983 14.3277 133.143 14.5692C133.303 14.8106 133.55 14.9798 133.832 15.0406C133.955 15.0518 134.078 15.0339 134.193 14.9883C134.307 14.9426 134.409 14.8705 134.491 14.7778C134.619 14.5868 134.687 14.3617 134.687 14.1314C134.687 13.901 134.619 13.6759 134.491 13.485C134.446 13.3643 134.39 13.2481 134.324 13.1381Z" fill="#1DA23A"/>
<path d="M135.087 12.9395C135.139 12.6032 135.296 12.2984 135.672 12.3194C136.014 12.3505 136.33 12.5168 136.55 12.7819C136.74 13.0021 136.836 13.2882 136.818 13.579C136.801 13.8698 136.671 14.142 136.456 14.3375C136.354 14.4065 136.238 14.451 136.117 14.4674C135.996 14.4838 135.872 14.4717 135.756 14.4321C135.552 14.3427 135.379 14.1958 135.256 14.0093C135.134 13.8227 135.068 13.6045 135.066 13.381C135.061 13.2335 135.068 13.0858 135.087 12.9395Z" fill="#1DA23A"/>
<path d="M137.375 13.853C137.552 13.5692 137.814 13.3379 138.158 13.5061C138.462 13.664 138.691 13.936 138.796 14.2629C138.884 14.5405 138.863 14.8416 138.736 15.1037C138.61 15.3659 138.388 15.5692 138.117 15.6714C137.996 15.6953 137.871 15.6916 137.752 15.6607C137.632 15.6298 137.521 15.5724 137.427 15.4927C137.27 15.3239 137.166 15.1118 137.129 14.8835C137.091 14.6552 137.122 14.4209 137.218 14.2104C137.257 14.0858 137.309 13.9659 137.375 13.853Z" fill="#1DA23A"/>
<path d="M132.789 15.0827C132.728 15.0322 132.657 14.9945 132.581 14.9719C132.505 14.9492 132.425 14.9421 132.346 14.9509C132.267 14.9597 132.191 14.9843 132.122 15.0232C132.052 15.0621 131.991 15.1145 131.943 15.1773C131.764 15.4695 131.704 15.8195 131.775 16.1549C131.834 16.439 131.999 16.6895 132.236 16.8541C132.474 17.0186 132.765 17.0844 133.05 17.0378C133.169 16.9999 133.277 16.9346 133.366 16.8469C133.455 16.7593 133.522 16.6518 133.562 16.5333C133.614 16.3097 133.599 16.0757 133.519 15.8607C133.439 15.6457 133.298 15.4592 133.113 15.3245C133.015 15.2307 132.906 15.1495 132.789 15.0827Z" fill="#1DA23A"/>
<path d="M144.199 22.3884C144.753 22.2412 145.39 22.3884 145.892 22.0941C146.018 22.0006 146.118 21.8761 146.182 21.7324C146.246 21.5888 146.272 21.431 146.258 21.2742C146.225 21.0272 146.12 20.7956 145.956 20.6085C145.792 20.4215 145.577 20.2873 145.338 20.2231C145.055 20.1264 144.805 19.9516 144.617 19.7186C144.46 19.5671 144.266 19.459 144.055 19.4048C143.844 19.3506 143.623 19.3521 143.413 19.4092C143.203 19.4663 143.011 19.577 142.856 19.7307C142.7 19.8843 142.587 20.0757 142.527 20.2862C142.469 20.5797 142.34 20.8541 142.151 21.085C141.977 21.2559 141.856 21.4744 141.804 21.7136C141.752 21.9527 141.771 22.202 141.858 22.4304C141.923 22.5735 142.023 22.6972 142.15 22.7893C142.276 22.8815 142.424 22.9389 142.579 22.956C143.165 22.956 143.624 22.504 144.189 22.3568" fill="#1DA23A"/>
<path d="M142.465 17.3432C142.256 17.0909 141.973 16.9017 141.65 17.1119C141.368 17.3101 141.176 17.6125 141.117 17.9528C141.067 18.2378 141.128 18.5312 141.287 18.772C141.447 19.0128 141.693 19.1824 141.973 19.2457C142.096 19.2569 142.219 19.239 142.334 19.1933C142.448 19.1477 142.55 19.0756 142.632 18.9829C142.76 18.7919 142.828 18.5668 142.828 18.3365C142.828 18.1061 142.76 17.881 142.632 17.69C142.587 17.5694 142.531 17.4532 142.465 17.3432Z" fill="#1DA23A"/>
<path d="M143.227 17.1427C143.279 16.8063 143.436 16.5015 143.823 16.5225C143.99 16.5381 144.153 16.587 144.302 16.6664C144.451 16.7458 144.583 16.8541 144.69 16.985C144.881 17.2039 144.979 17.4892 144.963 17.78C144.948 18.0707 144.819 18.3437 144.606 18.5406C144.503 18.6098 144.385 18.6543 144.262 18.6707C144.139 18.6871 144.013 18.675 143.896 18.6352C143.693 18.5454 143.521 18.3981 143.4 18.2114C143.28 18.0247 143.216 17.8068 143.216 17.5841C143.201 17.4371 143.205 17.2887 143.227 17.1427Z" fill="#1DA23A"/>
<path d="M145.526 18.0581C145.693 17.7743 145.954 17.543 146.299 17.7112C146.602 17.8691 146.831 18.1411 146.936 18.468C147.025 18.7442 147.005 19.0442 146.881 19.3062C146.757 19.5682 146.537 19.7722 146.268 19.8765C146.145 19.9005 146.019 19.8969 145.898 19.866C145.777 19.8351 145.664 19.7777 145.568 19.6978C145.413 19.5276 145.31 19.3156 145.273 19.0879C145.236 18.8602 145.266 18.6265 145.359 18.4154C145.397 18.2888 145.453 18.1685 145.526 18.0581Z" fill="#1DA23A"/>
<path d="M140.939 19.2885C140.646 19.1308 140.301 19.0677 140.092 19.3831C140 19.5259 139.936 19.686 139.906 19.8538C139.875 20.0217 139.878 20.194 139.915 20.3606C139.975 20.6456 140.143 20.8962 140.382 21.0606C140.621 21.2249 140.914 21.2904 141.2 21.2435C141.317 21.2029 141.424 21.1365 141.512 21.0493C141.601 20.962 141.669 20.856 141.712 20.739C141.764 20.5154 141.748 20.2814 141.669 20.0664C141.589 19.8514 141.447 19.6649 141.263 19.5302C141.161 19.4413 141.053 19.3605 140.939 19.2885Z" fill="#1DA23A"/>
<path d="M22.5906 42.5694C22.2787 42.5876 21.971 42.4909 21.7248 42.2975C21.4787 42.104 21.311 41.827 21.2531 41.5183C21.2117 41.2663 21.2577 41.0077 21.3832 40.7857C21.5087 40.5638 21.7063 40.3919 21.9427 40.299C25.3074 39.332 33.0815 34.9384 31.2216 27.3599C29.3616 19.7815 25.0775 19.5397 24.4401 19.2875C23.8027 19.0352 25.1297 18.415 27.3867 18.4361C28.9608 18.4411 30.5139 18.8002 31.9321 19.4872C32.5904 19.792 32.9039 20.3911 33.1233 20.5383C33.3428 20.6854 33.1965 19.9812 32.3605 19.3295C32.0575 19.0877 32.2874 18.9826 32.5068 19.0667C36.8328 20.738 38.4211 25.1631 38.63 28.0957C38.7691 31.1388 37.9659 34.1503 36.3312 36.7147C36.0595 37.1247 35.976 37.2193 36.279 37.1352C36.6355 37.0465 36.9849 36.9305 37.3239 36.7883C39.1211 36 34.2832 42.2856 22.5906 42.5694Z" fill="#1DA23A"/>
<path d="M26.9685 22.3257C26.4623 22.0157 25.8883 21.8353 25.2967 21.8002C23.5594 21.8213 21.849 22.2343 20.2915 23.0089C20.1139 23.093 19.999 23.0089 19.999 22.8618C20.0075 22.2518 19.7783 21.6626 19.3603 21.2206C18.9424 20.7785 18.3689 20.5187 17.7628 20.4968C17.7628 20.4968 17.4912 20.3391 17.5434 20.0764C17.8778 18.5102 18.139 17.5432 18.1495 17.5117C18.3213 16.9026 18.2455 16.2497 17.9388 15.6968C17.6322 15.1439 17.1197 14.7362 16.5142 14.5633C15.9086 14.3905 15.2597 14.4667 14.71 14.7752C14.1603 15.0837 13.755 15.5992 13.5832 16.2083C13.5832 16.408 13.0189 18.3105 12.5383 21.1485C12.5322 21.2928 12.4786 21.431 12.3859 21.5414C12.2932 21.6517 12.1667 21.728 12.0262 21.7581L9.93642 22.2732C9.62088 22.3268 9.31956 22.4447 9.05091 22.6197C8.78226 22.7946 8.55194 23.0228 8.37405 23.2904C8.19616 23.558 8.07446 23.8593 8.01639 24.1759C7.95832 24.4925 7.9651 24.8176 8.03633 25.1314C8.10756 25.4453 8.24174 25.7412 8.43063 26.001C8.61953 26.2609 8.85918 26.4792 9.13489 26.6426C9.4106 26.806 9.71658 26.9111 10.0341 26.9514C10.3516 26.9917 10.6739 26.9664 10.9813 26.877H11.1799C11.5351 26.7929 11.6083 26.9716 11.6083 27.2554L11.5456 27.844C11.4688 28.1652 11.3456 28.4733 11.1799 28.7585L7.56446 34.5921C7.26881 35.0712 7.15309 35.6408 7.23818 36.1982C7.32326 36.7556 7.60354 37.2641 8.02847 37.6319C8.4534 37.9998 8.99501 38.2027 9.55561 38.2043C10.1162 38.2058 10.6589 38.0058 11.0858 37.6403C11.2112 37.5247 11.4306 37.409 11.462 37.8085C11.5456 38.7439 11.6501 39.6794 11.7964 40.6044C11.8791 41.1634 12.159 41.6737 12.5849 42.0423C13.0108 42.4109 13.5543 42.6131 14.1161 42.612C14.2378 42.6227 14.3601 42.6227 14.4818 42.612C15.0918 42.5134 15.6395 42.1792 16.0083 41.6806C16.3771 41.182 16.538 40.5583 16.4567 39.9422C16.1002 37.5387 15.9568 35.1081 16.0283 32.6791C16.0312 32.4187 16.0864 32.1616 16.1906 31.9231C16.2947 31.6847 16.4456 31.4699 16.6343 31.2916C19.7691 28.317 23.8651 25.5946 27.5432 26.9085C28.0273 27.0829 28.49 27.3121 28.9225 27.5917C29.2883 27.844 29.6958 27.9176 29.5913 27.4025C29.2005 25.4989 28.2926 23.7415 26.9685 22.3257Z" fill="#1DA23A"/>
<path d="M64.084 29.6936C63.4629 29.6736 62.8589 29.9008 62.4031 30.3258C61.9474 30.7508 61.6765 31.3394 61.6494 31.964C61.5658 34.1188 60.6776 37.9763 59.2043 37.9763C58.4206 37.9763 58.2116 37.7556 57.5742 35.8741C56.9368 33.9926 56.0173 31.2282 52.6004 30.7132C51.9234 30.6114 51.2326 30.6544 50.5733 30.8393C50.3747 30.8393 50.2911 30.7237 50.3434 30.524C51.2455 28.0442 52.4794 25.6997 54.011 23.5552C54.3838 23.052 54.5425 22.4205 54.4524 21.7996C54.3622 21.1786 54.0306 20.6191 53.5304 20.2442C53.0301 19.8693 52.4023 19.7096 51.7851 19.8002C51.1678 19.8909 50.6116 20.2245 50.2389 20.7277C44.3769 28.632 43.1961 39.6476 43.1543 40.0575C43.1491 40.1029 43.1491 40.1487 43.1543 40.1941C43.1491 40.2781 43.1491 40.3624 43.1543 40.4464C43.1492 40.5199 43.1492 40.5936 43.1543 40.6671C43.1543 40.7512 43.1543 40.8248 43.2066 40.8984C43.2262 40.9734 43.2507 41.0472 43.2797 41.1191C43.3012 41.1882 43.3292 41.2551 43.3633 41.3188L43.4678 41.529L43.5932 41.7077C43.6362 41.7718 43.6852 41.8317 43.7395 41.8864L43.8858 42.0441L44.0739 42.2017L44.2515 42.3173L44.4814 42.4435H44.5963H44.6695L44.9098 42.5171H45.1397H45.495H45.683H45.9443L46.1115 42.4645L46.3622 42.3804L46.519 42.2963L46.7489 42.1807L46.9056 42.0546L47.0832 41.9074L47.2295 41.7498C47.3252 41.6397 47.4093 41.52 47.4803 41.3924C47.5322 41.3213 47.5743 41.2435 47.6057 41.1611C47.6022 41.1297 47.6022 41.098 47.6057 41.0665C48.87 37.9132 51.0435 35.1699 51.7854 35.296C52.2138 35.3591 52.4019 35.5272 52.987 37.2826C53.5722 39.0379 54.7634 42.5381 59.0893 42.5381C64.4184 42.5381 66.0902 35.9056 66.247 31.9745C66.2283 31.3933 65.9973 30.8395 65.5983 30.4187C65.1993 29.998 64.6602 29.7398 64.084 29.6936Z" fill="#1DA23A"/>
<path d="M91.1587 27.1387H71.7964C71.2283 27.1387 70.6834 27.3657 70.2817 27.7698C69.88 28.1739 69.6543 28.722 69.6543 29.2934C69.6543 29.8649 69.88 30.413 70.2817 30.8171C70.6834 31.2212 71.2283 31.4482 71.7964 31.4482H79.1108C79.3407 31.4482 79.8213 31.6899 79.6959 32.3942C78.651 38.1122 74.7117 38.7008 74.1788 38.7744C73.6093 38.7981 73.0725 39.0484 72.6864 39.4702C72.3004 39.892 72.0967 40.4509 72.1203 41.0237C72.1438 41.5966 72.3927 42.1366 72.812 42.5249C73.2314 42.9133 73.7869 43.1181 74.3564 43.0944H74.5236C77.533 42.8737 82.9352 40.2775 84.0428 32.3311C84.0428 31.9317 84.4085 31.4797 84.8056 31.4797H91.1587C91.7268 31.4797 92.2716 31.2527 92.6734 30.8486C93.0751 30.4445 93.3008 29.8964 93.3008 29.325C93.3008 28.7535 93.0751 28.2054 92.6734 27.8013C92.2716 27.3972 91.7268 27.1702 91.1587 27.1702V27.1387Z" fill="#1DA23A"/>
<path d="M114.324 20.9176C114.079 20.7769 113.809 20.6874 113.528 20.6547C113.248 20.6219 112.964 20.6466 112.694 20.7271C112.424 20.8076 112.172 20.9424 111.955 21.1233C111.738 21.3041 111.559 21.5274 111.43 21.7795C111.43 21.8636 106.874 29.9992 97.6159 31.9647C97.0932 32.07 96.6283 32.3676 96.3121 32.7993C95.9959 33.231 95.8511 33.7658 95.9059 34.2992C95.9608 34.8326 96.2114 35.3263 96.6087 35.6837C97.0061 36.0412 97.5217 36.2367 98.0548 36.2322C98.2041 36.2477 98.3547 36.2477 98.5041 36.2322C101.084 35.674 103.554 34.694 105.818 33.3311C106.08 33.1735 106.299 33.3311 106.299 33.6255V40.9832C106.299 41.5533 106.524 42.1 106.925 42.5031C107.326 42.9062 107.869 43.1327 108.436 43.1327C109.003 43.1327 109.546 42.9062 109.947 42.5031C110.348 42.1 110.573 41.5533 110.573 40.9832V30.2619C110.553 30.085 110.574 29.9058 110.634 29.7382C110.694 29.5706 110.791 29.4189 110.918 29.2949C112.572 27.6756 114 25.8367 115.16 23.8292C115.301 23.5841 115.391 23.313 115.425 23.0321C115.459 22.7512 115.436 22.4663 115.358 22.1944C115.28 21.9225 115.148 21.6693 114.971 21.4499C114.793 21.2305 114.573 21.0495 114.324 20.9176Z" fill="#1DA23A"/>
<path d="M133.446 33.8971C133.387 33.8622 133.336 33.8142 133.297 33.7567C133.259 33.6992 133.233 33.6337 133.223 33.565C133.213 33.4964 133.219 33.4264 133.239 33.3601C133.26 33.2939 133.295 33.2331 133.342 33.1824C135.264 30.4387 136.68 27.3697 137.521 24.1219C137.592 23.8066 137.591 23.4794 137.519 23.1646C137.447 22.8497 137.305 22.5552 137.104 22.3028C136.904 22.0505 136.649 21.8468 136.36 21.7068C136.07 21.5668 135.753 21.4941 135.432 21.4941H122.255C121.687 21.4941 121.142 21.7212 120.741 22.1253C120.339 22.5293 120.113 23.0774 120.113 23.6489C120.113 24.2204 120.339 24.7685 120.741 25.1725C121.142 25.5766 121.687 25.8037 122.255 25.8037H131.816C132.255 25.8037 132.412 25.9298 132.245 26.3502C130.656 30.0606 127.02 35.9573 119.706 38.0911C119.226 38.2467 118.816 38.5676 118.548 38.9974C118.28 39.4272 118.171 39.9383 118.241 40.4407C118.311 40.943 118.555 41.4045 118.93 41.7438C119.305 42.0831 119.787 42.2784 120.291 42.2955C120.492 42.2985 120.693 42.2702 120.886 42.2114C124.131 41.2775 127.122 39.6133 129.632 37.3448C129.752 37.2246 129.903 37.1425 130.069 37.1089C130.234 37.0752 130.406 37.0914 130.562 37.1556C132.659 38.5371 134.621 40.1136 136.424 41.8645C136.625 42.0633 136.862 42.2204 137.123 42.3269C137.383 42.4334 137.662 42.4872 137.944 42.4853C138.225 42.4833 138.503 42.4257 138.763 42.3155C139.022 42.2054 139.257 42.045 139.455 41.8435C139.652 41.642 139.808 41.4033 139.914 41.141C140.02 40.8787 140.074 40.5981 140.072 40.315C140.07 40.032 140.012 39.7521 139.903 39.4913C139.793 39.2306 139.634 38.9941 139.434 38.7953C137.582 36.9925 135.578 35.3537 133.446 33.8971Z" fill="#1DA23A"/>
<path d="M256.548 23.8916H268.042C268.611 23.8916 269.155 23.6645 269.557 23.2604C269.959 22.8563 270.185 22.3083 270.185 21.7368C270.185 21.1653 269.959 20.6172 269.557 20.2131C269.155 19.8091 268.611 19.582 268.042 19.582H256.548C255.98 19.582 255.435 19.8091 255.034 20.2131C254.632 20.6172 254.406 21.1653 254.406 21.7368C254.406 22.3083 254.632 22.8563 255.034 23.2604C255.435 23.6645 255.98 23.8916 256.548 23.8916Z" fill="#1DA23A"/>
<path d="M268.722 16.3239C269.265 16.1768 269.913 16.3239 270.414 16.0296C270.54 15.9362 270.64 15.8116 270.704 15.668C270.768 15.5244 270.795 15.3665 270.78 15.2098C270.747 14.9628 270.642 14.7311 270.479 14.5441C270.315 14.357 270.1 14.2229 269.861 14.1587C269.575 14.0622 269.322 13.8875 269.129 13.6541C268.972 13.5026 268.778 13.3945 268.568 13.3403C268.357 13.2861 268.135 13.2877 267.925 13.3447C267.715 13.4018 267.523 13.5126 267.368 13.6662C267.213 13.8199 267.099 14.0112 267.039 14.2217C266.986 14.5167 266.856 14.7922 266.663 15.0206C266.491 15.1929 266.372 15.4114 266.32 15.65C266.268 15.8886 266.286 16.1371 266.371 16.366C266.438 16.5072 266.539 16.6294 266.665 16.7212C266.791 16.813 266.937 16.8716 267.092 16.8915C267.687 16.8915 268.137 16.4395 268.711 16.2924" fill="#1DA23A"/>
<path d="M266.923 11.2782C266.886 11.208 266.835 11.1459 266.774 11.0957C266.712 11.0454 266.642 11.0079 266.566 10.9854C266.49 10.9629 266.41 10.9558 266.332 10.9646C266.253 10.9733 266.177 10.9978 266.108 11.0365C265.968 11.1355 265.85 11.262 265.76 11.4083C265.67 11.5546 265.611 11.7178 265.585 11.8878C265.532 12.1717 265.591 12.4651 265.749 12.7063C265.907 12.9475 266.152 13.1176 266.432 13.1807C266.557 13.1899 266.682 13.17 266.798 13.1226C266.914 13.0752 267.017 13.0016 267.101 12.9074C267.226 12.7154 267.293 12.4907 267.293 12.261C267.293 12.0313 267.226 11.8066 267.101 11.6146C267.055 11.4955 266.996 11.3825 266.923 11.2782Z" fill="#1DA23A"/>
<path d="M267.688 11.0677C267.74 10.7419 267.897 10.437 268.283 10.4581C268.453 10.4723 268.618 10.5206 268.769 10.6C268.919 10.6794 269.053 10.7884 269.161 10.9205C269.348 11.1419 269.443 11.4274 269.425 11.7174C269.408 12.0074 269.279 12.2793 269.067 12.4762C268.964 12.5461 268.846 12.591 268.723 12.6075C268.6 12.6239 268.474 12.6113 268.357 12.5708C268.156 12.4788 267.985 12.331 267.865 12.1448C267.744 11.9586 267.679 11.7417 267.677 11.5197C267.662 11.3692 267.665 11.2173 267.688 11.0677Z" fill="#1DA23A"/>
<path d="M269.985 11.9826C270.153 11.6988 270.414 11.4781 270.759 11.6463C271.062 11.8042 271.291 12.0762 271.396 12.4031C271.487 12.6793 271.469 12.9803 271.344 13.243C271.219 13.5057 270.998 13.7095 270.727 13.8115C270.606 13.8362 270.481 13.8329 270.362 13.802C270.243 13.771 270.132 13.7132 270.038 13.6329C269.881 13.4638 269.777 13.2524 269.738 13.0246C269.699 12.7968 269.727 12.5626 269.818 12.3505C269.863 12.2231 269.919 12.1 269.985 11.9826Z" fill="#1DA23A"/>
<path d="M265.407 13.2221C265.115 13.0644 264.78 13.0013 264.561 13.3167C264.467 13.459 264.404 13.6194 264.375 13.7877C264.346 13.956 264.353 14.1285 264.394 14.2942C264.45 14.5797 264.614 14.8318 264.852 14.9968C265.091 15.1618 265.384 15.2265 265.669 15.1771C265.785 15.1346 265.891 15.0676 265.979 14.9805C266.067 14.8935 266.136 14.7885 266.181 14.6726C266.232 14.4474 266.216 14.2122 266.137 13.9956C266.057 13.779 265.916 13.5906 265.731 13.4533C265.63 13.3679 265.521 13.2906 265.407 13.2221Z" fill="#1DA23A"/>
<path d="M276.841 20.5169C277.384 20.3697 278.032 20.5169 278.533 20.2331C278.659 20.139 278.758 20.0143 278.822 19.8708C278.886 19.7274 278.912 19.5699 278.899 19.4132C278.866 19.1662 278.761 18.9346 278.598 18.7475C278.434 18.5605 278.219 18.4264 277.98 18.3621C277.698 18.258 277.446 18.0846 277.248 17.8576C277.092 17.706 276.899 17.5975 276.689 17.5427C276.478 17.4878 276.257 17.4884 276.047 17.5444C275.837 17.6004 275.645 17.7099 275.489 17.8623C275.334 18.0148 275.22 18.205 275.158 18.4147C275.105 18.7129 274.976 18.9919 274.782 19.224C274.609 19.3956 274.489 19.6141 274.437 19.853C274.385 20.0919 274.403 20.3408 274.49 20.5694C274.557 20.7093 274.658 20.8298 274.784 20.9199C274.91 21.0099 275.057 21.0665 275.211 21.0845C275.806 21.0845 276.255 20.6325 276.83 20.4853" fill="#1DA23A"/>
<path d="M275.074 15.4835C274.865 15.2207 274.572 15.0421 274.249 15.2418C274.11 15.3421 273.993 15.4689 273.903 15.615C273.813 15.7611 273.753 15.9236 273.726 16.0932C273.673 16.377 273.732 16.6704 273.89 16.9116C274.048 17.1528 274.292 17.3229 274.572 17.386C274.697 17.3952 274.823 17.3753 274.939 17.3279C275.055 17.2805 275.158 17.2069 275.241 17.1127C275.367 16.9207 275.433 16.696 275.433 16.4663C275.433 16.2366 275.367 16.0119 275.241 15.8199C275.196 15.7026 275.14 15.59 275.074 15.4835Z" fill="#1DA23A"/>
<path d="M275.858 15.2728C275.858 14.9469 276.067 14.6421 276.444 14.6631C276.613 14.6762 276.779 14.724 276.93 14.8035C277.081 14.883 277.214 14.9926 277.321 15.1256C277.508 15.3469 277.603 15.6325 277.586 15.9225C277.568 16.2125 277.44 16.4844 277.227 16.6813C277.124 16.7512 277.006 16.7961 276.883 16.8125C276.76 16.829 276.634 16.8164 276.517 16.7759C276.317 16.6818 276.148 16.5335 276.028 16.3478C275.908 16.162 275.842 15.9462 275.838 15.7248C275.832 15.5738 275.839 15.4226 275.858 15.2728Z" fill="#1DA23A"/>
<path d="M278.126 16.1877C278.304 15.9039 278.565 15.6832 278.91 15.8514C279.06 15.9282 279.193 16.035 279.3 16.1651C279.408 16.2951 279.488 16.4459 279.537 16.6081C279.628 16.8843 279.609 17.1854 279.485 17.4481C279.36 17.7107 279.139 17.9145 278.868 18.0166C278.747 18.0405 278.622 18.0369 278.503 18.0059C278.384 17.975 278.273 17.9176 278.178 17.8379C278.022 17.6688 277.917 17.4575 277.878 17.2297C277.839 17.0019 277.867 16.7676 277.959 16.5556C278.003 16.4282 278.059 16.305 278.126 16.1877Z" fill="#1DA23A"/>
<path d="M273.539 17.4271C273.247 17.2695 272.912 17.2064 272.693 17.5217C272.601 17.6651 272.539 17.8255 272.51 17.9934C272.482 18.1614 272.487 18.3334 272.526 18.4993C272.584 18.7834 272.749 19.034 272.987 19.1985C273.224 19.363 273.516 19.4288 273.8 19.3822C273.918 19.3429 274.026 19.277 274.114 19.1896C274.203 19.1021 274.271 18.9955 274.312 18.8777C274.363 18.6525 274.348 18.4172 274.268 18.2007C274.189 17.9841 274.048 17.7957 273.863 17.6584C273.76 17.5739 273.652 17.4967 273.539 17.4271Z" fill="#1DA23A"/>
<path d="M316.903 18.1833C317.446 18.0361 318.094 18.1833 318.596 17.889C318.722 17.7956 318.822 17.671 318.886 17.5274C318.95 17.3837 318.976 17.2259 318.961 17.0691C318.928 16.8222 318.824 16.5905 318.66 16.4035C318.496 16.2164 318.281 16.0823 318.042 16.018C317.759 15.9214 317.509 15.7465 317.321 15.5135C317.164 15.362 316.97 15.2539 316.759 15.1997C316.548 15.1455 316.327 15.147 316.117 15.2041C315.907 15.2612 315.715 15.3719 315.559 15.5256C315.404 15.6792 315.291 15.8706 315.231 16.0811C315.169 16.3753 315.037 16.6497 314.845 16.8799C314.671 17.0512 314.551 17.2703 314.501 17.5097C314.451 17.7491 314.472 17.9981 314.562 18.2253C314.627 18.3684 314.727 18.4921 314.854 18.5843C314.98 18.6764 315.128 18.7338 315.283 18.7509C315.869 18.7509 316.328 18.2989 316.893 18.1518" fill="#1DA23A"/>
<path d="M315.136 13.1381C314.927 12.8858 314.635 12.6966 314.321 12.9068C314.04 13.105 313.848 13.4075 313.788 13.7477C313.739 14.0327 313.8 14.3261 313.959 14.5669C314.119 14.8077 314.365 14.9774 314.645 15.0406C314.768 15.0518 314.891 15.0339 315.006 14.9883C315.12 14.9426 315.222 14.8705 315.304 14.7778C315.432 14.5868 315.5 14.3617 315.5 14.1314C315.5 13.901 315.432 13.6759 315.304 13.485C315.259 13.3643 315.203 13.2481 315.136 13.1381Z" fill="#1DA23A"/>
<path d="M315.899 12.9395C315.951 12.6032 316.108 12.2984 316.484 12.3194C316.654 12.3336 316.819 12.3819 316.969 12.4613C317.12 12.5408 317.253 12.6498 317.362 12.7819C317.553 13.0007 317.651 13.2861 317.635 13.5768C317.619 13.8676 317.491 14.1406 317.278 14.3375C317.175 14.4067 317.057 14.4512 316.934 14.4676C316.811 14.484 316.685 14.4718 316.568 14.4321C316.365 14.3422 316.193 14.195 316.072 14.0083C315.952 13.8216 315.888 13.6036 315.888 13.381C315.873 13.234 315.876 13.0856 315.899 12.9395Z" fill="#1DA23A"/>
<path d="M318.198 13.853C318.365 13.5692 318.626 13.3379 318.971 13.5061C319.274 13.664 319.503 13.936 319.608 14.2629C319.694 14.5392 319.673 14.8381 319.549 15.0994C319.425 15.3607 319.207 15.5651 318.94 15.6714C318.817 15.6961 318.69 15.6929 318.569 15.662C318.448 15.6311 318.335 15.5732 318.239 15.4927C318.082 15.3239 317.978 15.1118 317.941 14.8835C317.904 14.6552 317.935 14.4209 318.03 14.2104C318.069 14.0838 318.125 13.9634 318.198 13.853Z" fill="#1DA23A"/>
<path d="M313.6 15.0834C313.318 14.9257 312.973 14.8627 312.764 15.178C312.671 15.3209 312.608 15.4809 312.577 15.6487C312.547 15.8166 312.55 15.9889 312.587 16.1555C312.645 16.4397 312.81 16.6902 313.048 16.8547C313.285 17.0193 313.577 17.0851 313.861 17.0384C313.981 16.9998 314.09 16.9343 314.18 16.8469C314.271 16.7595 314.341 16.6524 314.384 16.5339C314.434 16.3103 314.418 16.0768 314.338 15.8621C314.259 15.6474 314.118 15.4607 313.934 15.3252C313.831 15.2337 313.719 15.1527 313.6 15.0834Z" fill="#1DA23A"/>
<path d="M325.043 22.3884C325.597 22.2412 326.234 22.3884 326.746 22.0941C326.871 21.9993 326.969 21.8745 327.033 21.7312C327.097 21.5879 327.124 21.4308 327.112 21.2742C327.078 21.0259 326.972 20.7933 326.806 20.6061C326.641 20.4189 326.423 20.2855 326.182 20.2231C325.899 20.1264 325.649 19.9516 325.461 19.7186C325.304 19.5671 325.11 19.459 324.899 19.4048C324.688 19.3506 324.467 19.3521 324.257 19.4092C324.047 19.4663 323.855 19.577 323.699 19.7307C323.544 19.8843 323.431 20.0757 323.371 20.2862C323.313 20.5797 323.184 20.8541 322.995 21.085C322.821 21.2559 322.7 21.4744 322.648 21.7136C322.596 21.9527 322.615 22.202 322.702 22.4304C322.767 22.5735 322.867 22.6972 322.994 22.7893C323.12 22.8815 323.268 22.9389 323.423 22.956C324.019 22.956 324.468 22.504 325.032 22.3568" fill="#1DA23A"/>
<path d="M323.276 17.3432C323.067 17.0909 322.785 16.9017 322.461 17.1119C322.322 17.2089 322.203 17.3335 322.114 17.4781C322.024 17.6227 321.964 17.7842 321.939 17.9528C321.883 18.2369 321.94 18.5317 322.099 18.7735C322.257 19.0154 322.504 19.1849 322.785 19.2457C322.909 19.2569 323.034 19.2391 323.15 19.1935C323.266 19.1479 323.37 19.0758 323.454 18.9829C323.577 18.7899 323.642 18.5656 323.642 18.3365C323.642 18.1073 323.577 17.883 323.454 17.69C323.405 17.5691 323.346 17.453 323.276 17.3432Z" fill="#1DA23A"/>
<path d="M324.039 17.1427C324.092 16.8063 324.248 16.5015 324.635 16.5225C324.976 16.5558 325.291 16.7217 325.513 16.985C325.7 17.2063 325.795 17.4919 325.777 17.7819C325.76 18.0718 325.631 18.3437 325.419 18.5406C325.315 18.6098 325.198 18.6543 325.074 18.6707C324.951 18.6871 324.826 18.675 324.708 18.6352C324.506 18.5454 324.334 18.3981 324.213 18.2114C324.092 18.0247 324.028 17.8068 324.029 17.5841C324.014 17.4371 324.017 17.2887 324.039 17.1427Z" fill="#1DA23A"/>
<path d="M326.338 18.0581C326.506 17.7743 326.767 17.543 327.112 17.7112C327.415 17.8691 327.644 18.1411 327.749 18.468C327.84 18.7442 327.822 19.0452 327.697 19.3079C327.572 19.5706 327.351 19.7744 327.08 19.8765C326.958 19.9005 326.831 19.8969 326.71 19.866C326.589 19.8351 326.477 19.7777 326.38 19.6978C326.225 19.5276 326.123 19.3156 326.086 19.0879C326.049 18.8602 326.078 18.6265 326.171 18.4154C326.214 18.2906 326.27 18.1708 326.338 18.0581Z" fill="#1DA23A"/>
<path d="M321.75 19.2885C321.458 19.1308 321.123 19.0677 320.904 19.3831C320.811 19.5257 320.748 19.6861 320.719 19.8543C320.69 20.0225 320.696 20.1949 320.737 20.3606C320.793 20.6461 320.957 20.8982 321.195 21.0632C321.434 21.2282 321.727 21.2929 322.012 21.2435C322.129 21.2029 322.236 21.1365 322.324 21.0493C322.413 20.962 322.481 20.856 322.524 20.739C322.575 20.5154 322.56 20.2814 322.48 20.0664C322.4 19.8514 322.259 19.6649 322.074 19.5302C321.973 19.4413 321.864 19.3605 321.75 19.2885Z" fill="#1DA23A"/>
<path d="M271.971 27.1387H252.609C252.041 27.1387 251.496 27.3657 251.094 27.7698C250.692 28.1739 250.467 28.722 250.467 29.2934C250.467 29.8649 250.692 30.413 251.094 30.8171C251.496 31.2212 252.041 31.4482 252.609 31.4482H259.923C260.153 31.4482 260.634 31.6899 260.508 32.3942C259.464 38.1122 255.524 38.7008 254.991 38.7744C254.709 38.7861 254.432 38.8536 254.176 38.973C253.92 39.0924 253.69 39.2613 253.499 39.4702C253.308 39.6791 253.159 39.9238 253.062 40.1903C252.965 40.4569 252.921 40.7401 252.933 41.0237C252.944 41.3074 253.012 41.586 253.13 41.8435C253.249 42.1011 253.417 42.3327 253.625 42.5249C253.832 42.7172 254.075 42.8665 254.34 42.9642C254.605 43.0619 254.887 43.1061 255.169 43.0944H255.336C258.345 42.8737 263.695 40.2775 264.855 32.3311C264.908 31.9317 265.221 31.4797 265.618 31.4797H271.971C272.539 31.4797 273.084 31.2527 273.486 30.8486C273.888 30.4445 274.113 29.8964 274.113 29.325C274.113 28.7535 273.888 28.2054 273.486 27.8013C273.084 27.3972 272.539 27.1702 271.971 27.1702V27.1387Z" fill="#1DA23A"/>
<path d="M295.137 20.9176C294.892 20.7769 294.621 20.6874 294.341 20.6547C294.061 20.6219 293.777 20.6466 293.506 20.7271C293.236 20.8076 292.985 20.9424 292.767 21.1233C292.55 21.3041 292.371 21.5274 292.242 21.7795C292.19 21.8636 287.686 29.9992 278.428 31.9647C277.906 32.07 277.441 32.3676 277.125 32.7993C276.808 33.231 276.664 33.7658 276.718 34.2992C276.773 34.8326 277.024 35.3263 277.421 35.6837C277.819 36.0412 278.334 36.2367 278.867 36.2322C279.017 36.2477 279.167 36.2477 279.317 36.2322C281.896 35.6756 284.368 34.6955 286.631 33.3312C286.892 33.1735 287.112 33.3312 287.112 33.6255V40.9832C287.112 41.5547 287.337 42.1027 287.739 42.5068C288.141 42.9109 288.686 43.1379 289.254 43.1379C289.822 43.1379 290.367 42.9109 290.768 42.5068C291.17 42.1027 291.396 41.5547 291.396 40.9832V30.2619C291.374 30.0857 291.393 29.9069 291.451 29.7392C291.509 29.5715 291.604 29.4195 291.73 29.2949C293.385 27.6756 294.812 25.8367 295.973 23.8292C296.113 23.5841 296.203 23.313 296.237 23.0321C296.271 22.7512 296.249 22.4663 296.171 22.1944C296.093 21.9225 295.961 21.6693 295.783 21.4499C295.605 21.2305 295.386 21.0495 295.137 20.9176Z" fill="#1DA23A"/>
<path d="M314.258 33.8971C314.199 33.8622 314.148 33.8141 314.109 33.7567C314.071 33.6992 314.045 33.6337 314.035 33.565C314.025 33.4964 314.031 33.4264 314.051 33.3601C314.072 33.2939 314.107 33.2331 314.154 33.1824C316.076 30.4387 317.492 27.3697 318.334 24.1219C318.404 23.8066 318.403 23.4794 318.331 23.1646C318.259 22.8497 318.117 22.5552 317.916 22.3028C317.716 22.0505 317.461 21.8468 317.172 21.7068C316.882 21.5668 316.565 21.4941 316.244 21.4941H303.099C302.531 21.4941 301.986 21.7212 301.584 22.1253C301.182 22.5293 300.957 23.0774 300.957 23.6489C300.957 24.2204 301.182 24.7684 301.584 25.1725C301.986 25.5766 302.531 25.8037 303.099 25.8037H312.649C313.099 25.8037 313.245 25.9298 313.078 26.3502C311.489 30.0606 307.853 35.9573 300.539 38.091C300.058 38.2471 299.648 38.569 299.38 38.9998C299.113 39.4306 299.005 39.9427 299.076 40.4456C299.147 40.9485 299.393 41.41 299.77 41.7484C300.146 42.0869 300.63 42.2806 301.134 42.2955C301.332 42.2978 301.53 42.2694 301.719 42.2114C304.965 41.2799 307.956 39.6154 310.465 37.3448C310.585 37.2246 310.737 37.1425 310.902 37.1089C311.067 37.0752 311.239 37.0914 311.395 37.1556C313.492 38.5371 315.454 40.1136 317.257 41.8645C317.659 42.2612 318.199 42.4838 318.762 42.4846C319.046 42.4878 319.328 42.4325 319.591 42.3223C319.853 42.212 320.09 42.0491 320.288 41.8435C320.487 41.6434 320.645 41.4058 320.752 41.1443C320.86 40.8828 320.915 40.6025 320.915 40.3194C320.915 40.0363 320.86 39.756 320.752 39.4945C320.645 39.233 320.487 38.9954 320.288 38.7953C318.422 36.9905 316.405 35.3517 314.258 33.8971Z" fill="#1DA23A"/>
<path d="M171.157 16.6604C170.87 16.5449 170.563 16.4878 170.253 16.4925C169.944 16.4971 169.639 16.5634 169.355 16.6876C169.071 16.8117 168.815 16.9912 168.6 17.2157C168.386 17.4401 168.218 17.7051 168.106 17.9953C167.897 18.5209 163.132 31.0185 168.179 41.519C168.371 41.9143 168.667 42.2483 169.036 42.484C169.405 42.7197 169.832 42.8477 170.269 42.8539C170.63 42.8572 170.987 42.7781 171.314 42.6227C171.863 42.339 172.281 41.8499 172.476 41.2605C172.671 40.671 172.629 40.028 172.359 39.4694C168.179 30.8608 172.359 19.8768 172.432 19.7402C172.664 19.1613 172.661 18.5137 172.422 17.9373C172.184 17.361 171.729 16.9023 171.157 16.6604Z" fill="#1DA23A"/>
<path d="M178.974 24.5319C179.252 24.5301 179.527 24.4803 179.789 24.3848C182.305 23.7593 184.907 23.5533 187.49 23.7751C187.789 23.8524 188.1 23.8697 188.406 23.826C188.712 23.7822 189.006 23.6783 189.272 23.5202C189.538 23.3621 189.77 23.1529 189.955 22.9044C190.141 22.656 190.276 22.3733 190.353 22.0724C190.43 21.7714 190.447 21.4583 190.403 21.1507C190.36 20.8431 190.257 20.5471 190.099 20.2797C189.942 20.0123 189.734 19.7786 189.487 19.592C189.24 19.4054 188.959 19.2696 188.66 19.1923C186.299 18.5827 180.384 19.1082 178.159 19.9386C177.646 20.1364 177.218 20.5077 176.948 20.9887C176.678 21.4697 176.583 22.0303 176.679 22.574C176.776 23.1178 177.058 23.6108 177.476 23.9681C177.895 24.3254 178.425 24.5248 178.974 24.5319Z" fill="#1DA23A"/>
<path d="M191.731 36.4426C191.602 36.1588 191.418 35.9034 191.19 35.6911C190.962 35.4788 190.695 35.3138 190.404 35.2054C190.113 35.097 189.804 35.0475 189.493 35.0596C189.183 35.0717 188.878 35.1452 188.596 35.2759C187.038 36.0643 185.294 36.4077 183.555 36.2687C181.816 36.1297 180.148 35.5137 178.732 34.4876C178.472 34.3031 178.177 34.1736 177.865 34.1068C177.554 34.0401 177.232 34.0374 176.919 34.099C176.607 34.1605 176.31 34.2851 176.046 34.4652C175.783 34.6452 175.558 34.877 175.386 35.1467C175.214 35.4163 175.098 35.7182 175.045 36.0342C174.992 36.3501 175.003 36.6736 175.077 36.9852C175.151 37.2968 175.288 37.59 175.478 37.8472C175.668 38.1043 175.908 38.3202 176.183 38.4817C178.268 39.9309 180.701 40.7926 183.229 40.9774C185.758 41.1622 188.289 40.6635 190.561 39.5328C191.117 39.2716 191.55 38.803 191.768 38.2262C191.987 37.6494 191.973 37.0097 191.731 36.4426Z" fill="#1DA23A"/>
<path d="M240.644 14.641C240.644 14.7251 240.644 14.8197 240.644 14.9143C241.312 15.5134 245.346 15.7131 245.199 13.6845V13.5268C244.592 11.2137 243.328 9.12833 241.563 7.525C241.086 7.14261 240.48 6.96096 239.872 7.01815C239.264 7.07533 238.702 7.3669 238.304 7.83174C237.905 8.29657 237.701 8.89858 237.734 9.51155C237.767 10.1245 238.034 10.7009 238.481 11.1198C239.51 12.071 240.258 13.2894 240.644 14.641Z" fill="#1DA23A"/>
<path d="M245.274 21.7374C245.45 20.2793 245.544 18.8125 245.556 17.3438C245.117 18.9624 241.376 18.6261 240.833 18.027C240.776 19.5149 240.643 20.9988 240.436 22.4731C241.157 23.1248 245.096 23.8501 245.274 21.7374Z" fill="#1DA23A"/>
<path d="M243.715 30.1028C244.112 28.5997 244.468 26.9495 244.76 25.3203C244.248 26.6867 240.748 26.3714 239.975 25.3203C239.692 26.8129 239.337 28.3265 238.93 29.7665C239.578 30.6284 243.036 31.9317 243.715 30.1028Z" fill="#1DA23A"/>
<path d="M237.949 32.6572C236.967 34.9486 235.421 37.2715 234.073 37.2715C233.289 37.2715 233.132 37.2715 232.443 35.1693C231.857 33.4245 230.886 30.5235 227.479 30.0084C226.799 29.9009 226.104 29.9439 225.442 30.1346C225.243 30.1871 225.16 30.0295 225.212 29.8297C226.105 27.3671 227.324 25.0371 228.838 22.903C229.162 22.3964 229.283 21.7846 229.176 21.1916C229.069 20.5985 228.742 20.0685 228.261 19.709C227.78 19.3495 227.182 19.1874 226.586 19.2554C225.991 19.3235 225.444 19.6166 225.055 20.0755C219.193 27.9798 218.023 38.9428 217.971 39.4053V39.7942V40.0149C217.966 40.0919 217.966 40.1692 217.971 40.2462C217.99 40.3213 218.015 40.395 218.044 40.4669C218.067 40.5353 218.095 40.602 218.127 40.6666C218.127 40.7402 218.2 40.8033 218.232 40.8663C218.271 40.9369 218.316 41.0037 218.368 41.066L218.503 41.2237C218.554 41.2882 218.61 41.348 218.671 41.4024L218.838 41.539L219.036 41.6757L219.245 41.7808C219.285 41.806 219.327 41.8271 219.371 41.8438H219.465H219.653L219.925 41.9069H220.238C220.374 41.9181 220.51 41.9181 220.646 41.9069H220.75L221.032 41.8333L221.147 41.7808C221.241 41.7808 221.325 41.6967 221.419 41.6546L221.502 41.6021C221.728 41.4609 221.927 41.2792 222.087 41.066V41.003C222.149 40.9194 222.205 40.8316 222.255 40.7402L222.317 40.6035L222.38 40.4774C223.613 37.3241 225.776 34.5807 226.56 34.7069C226.988 34.7699 227.176 34.9381 227.772 36.6829C228.367 38.4278 229.538 41.9384 233.864 41.9384C238.775 41.9384 241.502 36.1048 242.516 33.3089C241.732 34.6858 238.723 33.7083 237.949 32.6572Z" fill="#1DA23A"/>
<path d="M214.302 29.7981C214.086 29.0656 213.719 28.3869 213.226 27.8057C212.733 27.2246 212.124 26.7539 211.439 26.424C210.796 26.1215 210.107 25.9296 209.401 25.8564C209.332 25.8567 209.263 25.8411 209.201 25.8109C209.138 25.7807 209.083 25.7366 209.04 25.682C208.997 25.6274 208.967 25.5637 208.951 25.4956C208.936 25.4275 208.936 25.3568 208.952 25.2888L209.078 23.8278C209.101 23.5455 209.069 23.2614 208.983 22.9916C208.897 22.7218 208.759 22.4717 208.577 22.2555C208.395 22.0393 208.173 21.8613 207.923 21.7316C207.672 21.6019 207.399 21.5231 207.118 21.4996C206.838 21.4761 206.555 21.5085 206.287 21.5948C206.019 21.6812 205.77 21.8198 205.555 22.0028C205.34 22.1858 205.163 22.4096 205.034 22.6614C204.906 22.9133 204.827 23.1881 204.804 23.4704L204.553 26.5081C204.539 26.6555 204.487 26.7968 204.403 26.9183C204.319 27.0399 204.205 27.1375 204.072 27.2018C203.644 27.4226 203.195 27.6538 202.724 27.9166C202.662 27.9643 202.59 27.9968 202.514 28.0114C202.437 28.0261 202.358 28.0226 202.283 28.0012C202.208 27.9798 202.139 27.941 202.081 27.888C202.024 27.835 201.979 27.7692 201.951 27.6959L200.906 25.5201C200.651 24.9932 200.199 24.5898 199.648 24.3986C199.097 24.2074 198.494 24.244 197.97 24.5005C197.446 24.757 197.045 25.2122 196.855 25.7661C196.665 26.32 196.702 26.9272 196.956 27.4541L198.137 29.8716C198.263 30.1449 198.315 30.3867 197.855 30.6494L196.737 31.3011C196.487 31.4461 196.268 31.6391 196.093 31.8691C195.917 32.0991 195.788 32.3617 195.714 32.6418C195.639 32.922 195.62 33.2141 195.657 33.5017C195.695 33.7893 195.788 34.0666 195.932 34.3178C196.077 34.569 196.268 34.7892 196.497 34.9659C196.726 35.1425 196.987 35.2721 197.265 35.3472C197.544 35.4224 197.834 35.4416 198.12 35.4039C198.406 35.3661 198.682 35.2721 198.931 35.1271L199.799 34.6226C199.855 34.5763 199.922 34.5443 199.994 34.5292C200.066 34.5142 200.14 34.5165 200.21 34.536C200.281 34.5556 200.346 34.5917 200.399 34.6415C200.453 34.6913 200.494 34.7533 200.52 34.8223L203.466 40.8977C203.645 41.2719 203.925 41.5878 204.275 41.8091C204.624 42.0304 205.028 42.148 205.441 42.1485C205.772 42.1482 206.098 42.0689 206.392 41.9173C206.655 41.7955 206.891 41.6222 207.086 41.4074C207.282 41.1927 207.432 40.9409 207.53 40.6667C207.627 40.3926 207.669 40.1017 207.653 39.8111C207.637 39.5204 207.564 39.2359 207.437 38.9742L204.292 32.5835C204.257 32.5353 204.232 32.4801 204.221 32.4215C204.209 32.3629 204.21 32.3025 204.224 32.2444C204.238 32.1863 204.264 32.132 204.301 32.0853C204.338 32.0386 204.385 32.0005 204.438 31.9738C205.838 31.217 207.029 30.5969 207.573 30.3762C208.204 30.1234 208.907 30.1234 209.537 30.3762C209.675 30.4383 209.798 30.5296 209.897 30.6439C209.996 30.7582 210.069 30.8928 210.112 31.0384C210.269 31.5849 209.14 32.3417 208.942 32.4468C208.48 32.6635 208.108 33.0351 207.889 33.4977C207.67 33.9604 207.617 34.4853 207.741 34.9824C207.864 35.4796 208.156 35.918 208.566 36.2225C208.976 36.527 209.478 36.6786 209.987 36.6512C210.35 36.6634 210.71 36.5801 211.032 36.4095C212.536 35.5896 215.305 33.1511 214.302 29.7981Z" fill="#1DA23A"/>
</g>
<defs>
<clipPath id="clip0">
<rect width="335" height="50.0325" fill="white"/>
</clipPath>
</defs>
</svg>
