<svg xmlns="http://www.w3.org/2000/svg" viewBox="0 0 333 47.99"><defs><style>.cls-1{fill:#1da23a;}.cls-2{fill:#fff;}</style></defs><title>アセット 8</title><g id="レイヤー_2" data-name="レイヤー 2"><g id="レイヤー_1-2" data-name="レイヤー 1"><rect class="cls-1" width="333" height="47.99"/><path class="cls-2" d="M79.12,20.46h11a2,2,0,1,0,0-4.09h-11a2,2,0,1,0,0,4.09Z"/><circle class="cls-2" cx="153.35" cy="27.26" r="2.84"/><path class="cls-2" d="M90.77,13.27c.53-.15,1.14,0,1.63-.28a.89.89,0,0,0,.35-.78,1.2,1.2,0,0,0-.89-1,1.69,1.69,0,0,1-.69-.48A1.08,1.08,0,0,0,90,10.47a1.06,1.06,0,0,0-.84.83,1.72,1.72,0,0,1-.36.76,1.18,1.18,0,0,0-.28,1.28.86.86,0,0,0,.69.5c.57,0,1-.43,1.54-.57"/><path class="cls-2" d="M89.06,8.47c-.2-.25-.48-.42-.78-.23a1.26,1.26,0,0,0-.51.8,1.08,1.08,0,0,0,.82,1.24.76.76,0,0,0,.63-.26,1.1,1.1,0,0,0,0-1.23A1.87,1.87,0,0,0,89.06,8.47Z"/><path class="cls-2" d="M89.79,8.27c0-.31.2-.6.57-.58a1.18,1.18,0,0,1,.83.44,1.06,1.06,0,0,1-.08,1.48.78.78,0,0,1-.68.09,1.11,1.11,0,0,1-.65-1A1.72,1.72,0,0,1,89.79,8.27Z"/><path class="cls-2" d="M92,9.14c.16-.27.41-.48.74-.32a1.21,1.21,0,0,1,.61.72,1.08,1.08,0,0,1-.64,1.34.81.81,0,0,1-.67-.17,1.11,1.11,0,0,1-.2-1.22A1.53,1.53,0,0,1,92,9.14Z"/><path class="cls-2" d="M87.6,10.32c-.28-.15-.61-.21-.81.09a1.22,1.22,0,0,0-.17.93,1.08,1.08,0,0,0,1.23.84.83.83,0,0,0,.49-.48,1.13,1.13,0,0,0-.43-1.16A1.73,1.73,0,0,0,87.6,10.32Z"/><path class="cls-2" d="M98.54,17.26c.53-.14,1.14,0,1.63-.27a.9.9,0,0,0,.35-.78,1.2,1.2,0,0,0-.89-1,1.69,1.69,0,0,1-.69-.48,1.08,1.08,0,0,0-1.15-.29,1.06,1.06,0,0,0-.84.82,1.65,1.65,0,0,1-.36.77,1.18,1.18,0,0,0-.28,1.28.88.88,0,0,0,.69.49c.57,0,1-.43,1.54-.57"/><path class="cls-2" d="M96.85,12.47a.57.57,0,0,0-.78-.23,1.21,1.21,0,0,0-.5.8,1.06,1.06,0,0,0,.81,1.24A.78.78,0,0,0,97,14a1.12,1.12,0,0,0,0-1.23A1.46,1.46,0,0,0,96.85,12.47Z"/><path class="cls-2" d="M97.58,12.27c0-.31.2-.6.57-.58a1.22,1.22,0,0,1,.84.44,1.07,1.07,0,0,1-.09,1.48.78.78,0,0,1-.68.09,1.11,1.11,0,0,1-.65-1A1.72,1.72,0,0,1,97.58,12.27Z"/><path class="cls-2" d="M99.78,13.14c.16-.27.41-.48.74-.32a1.21,1.21,0,0,1,.61.72,1.07,1.07,0,0,1-.64,1.34.78.78,0,0,1-.66-.17,1.13,1.13,0,0,1-.21-1.22A2.14,2.14,0,0,1,99.78,13.14Z"/><path class="cls-2" d="M95.39,14.32c-.28-.15-.6-.21-.81.09a1.17,1.17,0,0,0-.16.93,1.07,1.07,0,0,0,1.22.84.83.83,0,0,0,.49-.48,1.13,1.13,0,0,0-.43-1.16A1.73,1.73,0,0,0,95.39,14.32Z"/><path class="cls-2" d="M136.89,15c.52-.15,1.14,0,1.62-.28a.87.87,0,0,0,.35-.78,1.2,1.2,0,0,0-.88-1,1.72,1.72,0,0,1-.7-.48,1.21,1.21,0,0,0-2,.54,1.62,1.62,0,0,1-.36.76,1.2,1.2,0,0,0-.28,1.28.89.89,0,0,0,.69.5c.57,0,1-.43,1.55-.57"/><path class="cls-2" d="M135.2,10.24c-.2-.24-.48-.42-.78-.22a1.2,1.2,0,0,0-.51.8,1.05,1.05,0,0,0,.81,1.23.77.77,0,0,0,.64-.25,1.12,1.12,0,0,0,0-1.23A1.94,1.94,0,0,0,135.2,10.24Z"/><path class="cls-2" d="M135.93,10.05c0-.32.2-.61.56-.59a1.24,1.24,0,0,1,.84.44,1.07,1.07,0,0,1-.09,1.48.77.77,0,0,1-.68.09,1.12,1.12,0,0,1-.65-1A2.48,2.48,0,0,1,135.93,10.05Z"/><path class="cls-2" d="M138.12,10.92c.17-.27.42-.49.75-.33a1.19,1.19,0,0,1,.6.72,1.07,1.07,0,0,1-.64,1.34.79.79,0,0,1-.66-.17,1.13,1.13,0,0,1-.21-1.22A1.74,1.74,0,0,1,138.12,10.92Z"/><path class="cls-2" d="M133.73,12.09c-.28-.15-.6-.21-.81.09a1.22,1.22,0,0,0-.16.93A1.07,1.07,0,0,0,134,14a.76.76,0,0,0,.49-.48,1.13,1.13,0,0,0-.43-1.16A2.08,2.08,0,0,0,133.73,12.09Z"/><path class="cls-2" d="M144.68,19c.52-.15,1.14,0,1.62-.28a.87.87,0,0,0,.35-.78,1.2,1.2,0,0,0-.88-1,1.69,1.69,0,0,1-.69-.48,1.08,1.08,0,0,0-1.15-.29,1.06,1.06,0,0,0-.84.83,1.74,1.74,0,0,1-.37.76,1.18,1.18,0,0,0-.27,1.28.86.86,0,0,0,.69.5c.56,0,1-.43,1.54-.57"/><path class="cls-2" d="M143,14.24c-.2-.24-.48-.42-.78-.22a1.24,1.24,0,0,0-.51.8,1.06,1.06,0,0,0,.82,1.23.75.75,0,0,0,.63-.25,1.1,1.1,0,0,0,0-1.23A1.94,1.94,0,0,0,143,14.24Z"/><path class="cls-2" d="M143.72,14.05c.05-.32.2-.61.56-.59a1.22,1.22,0,0,1,.84.44,1.06,1.06,0,0,1-.08,1.48.78.78,0,0,1-.68.09,1.1,1.1,0,0,1-.65-1A1.63,1.63,0,0,1,143.72,14.05Z"/><path class="cls-2" d="M145.91,14.92c.17-.27.42-.49.75-.33a1.24,1.24,0,0,1,.61.72,1.09,1.09,0,0,1-.64,1.34.8.8,0,0,1-.67-.17,1.11,1.11,0,0,1-.2-1.22A1.68,1.68,0,0,1,145.91,14.92Z"/><path class="cls-2" d="M141.52,16.09c-.27-.15-.6-.21-.8.09a1.22,1.22,0,0,0-.17.93,1.07,1.07,0,0,0,1.22.84.76.76,0,0,0,.49-.48,1.12,1.12,0,0,0-.42-1.16A3,3,0,0,0,141.52,16.09Z"/><path class="cls-2" d="M28.27,38.24A1.25,1.25,0,0,1,27,37.18a1.07,1.07,0,0,1,.7-1.1c3.22-.92,10.66-5.1,8.88-12.31S30.67,16.33,30,16.09s.67-.83,2.83-.81a10.25,10.25,0,0,1,4.35,1c.63.3.93.87,1.14,1s.07-.53-.73-1.15c-.3-.23-.07-.33.14-.25,4.14,1.59,5.66,5.8,5.85,8.59a13.92,13.92,0,0,1-2.19,8.2c-.26.39-.34.48-.05.4a6.91,6.91,0,0,0,1-.33C44.08,32,39.46,38,28.27,38.24Z"/><path class="cls-2" d="M32.46,19a3.47,3.47,0,0,0-1.6-.5,11.11,11.11,0,0,0-4.79,1.15s0,0,0,0c-.17.08-.29,0-.28-.14h0a2.2,2.2,0,0,0-.41-1.33,2.24,2.24,0,0,0-1.71-.92v0c-.14,0-.26-.15-.21-.4.32-1.5.57-2.41.58-2.44a2.25,2.25,0,0,0-4.34-1.22c-.05.19-.54,2-1.05,4.7h0a.63.63,0,0,1-.49.58l-2,.48a2.26,2.26,0,0,0,1.05,4.39l.19-.05c.33-.08.41.09.41.36h0l-.06.56h0a3.07,3.07,0,0,1-.35.86h0l-3.49,5.59a2.25,2.25,0,0,0,3.37,2.9h0c.12-.11.33-.22.36.16,0,0,0,0,0,0,.08.89.17,1.78.31,2.66a2.27,2.27,0,0,0,2.23,1.91,2.07,2.07,0,0,0,.35,0A2.27,2.27,0,0,0,22.4,35.7,39,39,0,0,1,22,28.79a1.88,1.88,0,0,1,.57-1.32c3-2.83,6.93-5.42,10.45-4.17a6.76,6.76,0,0,1,1.32.65h0c.35.24.74.31.64-.18A10,10,0,0,0,32.46,19Z"/><path class="cls-2" d="M68,26a2.27,2.27,0,0,0-2.34,2.17c-.08,2.05-.93,5.72-2.34,5.72-.75,0-1-.22-1.57-2S60.25,27.49,57,27a4.65,4.65,0,0,0-1.94.12s0,0,0,0c-.19,0-.27-.11-.22-.3a27.65,27.65,0,0,1,3.51-6.63,2.25,2.25,0,0,0-3.61-2.69C49.1,25,48,35.45,47.93,35.89a.56.56,0,0,0,0,.13,1,1,0,0,0,0,.24,1.49,1.49,0,0,0,0,.21,1.74,1.74,0,0,0,0,.22,1.66,1.66,0,0,0,.06.21c0,.06,0,.13.08.19l.11.2.12.17a1.15,1.15,0,0,0,.14.17l.15.15.18.15L49,38l.23.12.11.05.07,0,.23.07.22.05h.33l.19,0a1,1,0,0,0,.24,0l.16,0L51,38.2l.15-.08A1.51,1.51,0,0,0,51.4,38l.15-.12.17-.14.14-.15a2,2,0,0,0,.24-.34,1.55,1.55,0,0,0,.12-.22.41.41,0,0,1,.05-.09c1.21-3.05,3.29-5.61,4-5.49.41.06.59.22,1.15,1.89s1.7,5,5.84,5c5.1,0,6.7-6.31,6.84-10A2.26,2.26,0,0,0,68,26Z"/><path class="cls-2" d="M93.89,23.56H75.36a2.05,2.05,0,1,0,0,4.1h7c.22,0,.68.23.56.9-1,5.44-4.77,6-5.28,6.06a2.05,2.05,0,0,0,.17,4.1H78C80.85,38.5,86,36,87.07,28.47h0c0-.38.35-.81.73-.81h6.08a2.05,2.05,0,0,0,0-4.1Z"/><path class="cls-2" d="M116.06,17.64a2.06,2.06,0,0,0-2.78.82c0,.08-4.35,7.82-13.21,9.69a2.05,2.05,0,0,0,.42,4.06,2.18,2.18,0,0,0,.43-.05,23.09,23.09,0,0,0,7-2.76h0c.25-.15.45,0,.45.28v7a2,2,0,0,0,4.1,0V26.52a1.1,1.1,0,0,1,.33-.91h0a24.15,24.15,0,0,0,4.07-5.2A2,2,0,0,0,116.06,17.64Z"/><path class="cls-2" d="M134.36,30h0a.43.43,0,0,1-.1-.68h0a26.14,26.14,0,0,0,4-8.62,2.05,2.05,0,0,0-2-2.5H123.67a2.05,2.05,0,1,0,0,4.1h9.15c.42,0,.57.12.4.52-1.52,3.53-5,9.14-12,11.17a2,2,0,0,0,.56,4,2.24,2.24,0,0,0,.57-.08,21.18,21.18,0,0,0,8.36-4.63h0a.82.82,0,0,1,.89-.18,38.18,38.18,0,0,1,5.61,4.48,2.06,2.06,0,0,0,1.44.59,2,2,0,0,0,1.45-.61,2.05,2.05,0,0,0,0-2.9A43.66,43.66,0,0,0,134.36,30Z"/><path class="cls-2" d="M252.17,20.46h11a2,2,0,1,0,0-4.09h-11a2,2,0,1,0,0,4.09Z"/><path class="cls-2" d="M263.81,13.27c.53-.15,1.15,0,1.63-.28a.89.89,0,0,0,.35-.78,1.2,1.2,0,0,0-.89-1,1.69,1.69,0,0,1-.69-.48,1.21,1.21,0,0,0-2,.54,1.62,1.62,0,0,1-.36.76,1.2,1.2,0,0,0-.28,1.28.89.89,0,0,0,.69.5c.57,0,1-.43,1.54-.57"/><path class="cls-2" d="M262.1,8.47c-.2-.25-.47-.42-.78-.23a1.21,1.21,0,0,0-.5.8,1.06,1.06,0,0,0,.81,1.24.75.75,0,0,0,.63-.26,1.12,1.12,0,0,0,.05-1.23A2,2,0,0,0,262.1,8.47Z"/><path class="cls-2" d="M262.83,8.27c.05-.31.2-.6.57-.58a1.18,1.18,0,0,1,.83.44,1.06,1.06,0,0,1-.08,1.48.78.78,0,0,1-.68.09,1.11,1.11,0,0,1-.65-1A1.72,1.72,0,0,1,262.83,8.27Z"/><path class="cls-2" d="M265,9.14c.16-.27.41-.48.74-.32a1.21,1.21,0,0,1,.61.72,1.07,1.07,0,0,1-.64,1.34.81.81,0,0,1-.67-.17,1.13,1.13,0,0,1-.2-1.22A2.14,2.14,0,0,1,265,9.14Z"/><path class="cls-2" d="M260.64,10.32c-.28-.15-.6-.21-.81.09a1.22,1.22,0,0,0-.17.93,1.08,1.08,0,0,0,1.23.84.83.83,0,0,0,.49-.48,1.13,1.13,0,0,0-.43-1.16A1.73,1.73,0,0,0,260.64,10.32Z"/><path class="cls-2" d="M271.59,17.26c.52-.14,1.14,0,1.62-.27a.88.88,0,0,0,.35-.78,1.2,1.2,0,0,0-.88-1,1.66,1.66,0,0,1-.7-.48,1.21,1.21,0,0,0-2,.53,1.65,1.65,0,0,1-.36.77,1.2,1.2,0,0,0-.28,1.28.88.88,0,0,0,.69.49c.57,0,1-.43,1.55-.57"/><path class="cls-2" d="M269.89,12.47a.57.57,0,0,0-.78-.23,1.25,1.25,0,0,0-.5.8,1.06,1.06,0,0,0,.81,1.24.78.78,0,0,0,.64-.26,1.12,1.12,0,0,0,0-1.23A1.46,1.46,0,0,0,269.89,12.47Z"/><path class="cls-2" d="M270.63,12.27c0-.31.2-.6.56-.58a1.22,1.22,0,0,1,.84.44,1.07,1.07,0,0,1-.09,1.48.77.77,0,0,1-.68.09,1.11,1.11,0,0,1-.65-1A1.76,1.76,0,0,1,270.63,12.27Z"/><path class="cls-2" d="M272.82,13.14c.16-.27.41-.48.74-.32a1.18,1.18,0,0,1,.61.72,1.07,1.07,0,0,1-.64,1.34.79.79,0,0,1-.66-.17,1.13,1.13,0,0,1-.21-1.22A2.14,2.14,0,0,1,272.82,13.14Z"/><path class="cls-2" d="M268.43,14.32c-.28-.15-.6-.21-.81.09a1.17,1.17,0,0,0-.16.93,1.07,1.07,0,0,0,1.22.84.8.8,0,0,0,.49-.48,1.13,1.13,0,0,0-.43-1.16A1.44,1.44,0,0,0,268.43,14.32Z"/><path class="cls-2" d="M309.93,15c.52-.15,1.14,0,1.62-.28a.87.87,0,0,0,.35-.78,1.2,1.2,0,0,0-.88-1,1.72,1.72,0,0,1-.7-.48,1.21,1.21,0,0,0-2,.54,1.62,1.62,0,0,1-.36.76,1.2,1.2,0,0,0-.28,1.28.89.89,0,0,0,.69.5c.57,0,1-.43,1.55-.57"/><path class="cls-2" d="M308.24,10.24c-.2-.24-.48-.42-.78-.22a1.24,1.24,0,0,0-.51.8,1.06,1.06,0,0,0,.82,1.23.75.75,0,0,0,.63-.25,1.1,1.1,0,0,0,0-1.23A1.94,1.94,0,0,0,308.24,10.24Z"/><path class="cls-2" d="M309,10.05c0-.32.2-.61.56-.59a1.24,1.24,0,0,1,.84.44,1.06,1.06,0,0,1-.09,1.48.76.76,0,0,1-.67.09,1.11,1.11,0,0,1-.66-1A2.48,2.48,0,0,1,309,10.05Z"/><path class="cls-2" d="M311.16,10.92c.17-.27.42-.49.75-.33a1.24,1.24,0,0,1,.61.72,1.08,1.08,0,0,1-.65,1.34.79.79,0,0,1-.66-.17,1.11,1.11,0,0,1-.2-1.22A1.68,1.68,0,0,1,311.16,10.92Z"/><path class="cls-2" d="M306.77,12.09a.57.57,0,0,0-.81.09,1.27,1.27,0,0,0-.16.93A1.07,1.07,0,0,0,307,14a.76.76,0,0,0,.49-.48,1.13,1.13,0,0,0-.43-1.16A2.08,2.08,0,0,0,306.77,12.09Z"/><path class="cls-2" d="M317.72,19c.53-.15,1.14,0,1.62-.28a.87.87,0,0,0,.35-.78,1.2,1.2,0,0,0-.88-1,1.69,1.69,0,0,1-.69-.48,1.08,1.08,0,0,0-1.15-.29,1.06,1.06,0,0,0-.84.83,1.72,1.72,0,0,1-.36.76,1.18,1.18,0,0,0-.28,1.28.86.86,0,0,0,.69.5c.56,0,1-.43,1.54-.57"/><path class="cls-2" d="M316,14.24c-.2-.24-.47-.42-.78-.22a1.24,1.24,0,0,0-.51.8,1.07,1.07,0,0,0,.82,1.23.75.75,0,0,0,.63-.25,1.1,1.1,0,0,0,0-1.23A1.94,1.94,0,0,0,316,14.24Z"/><path class="cls-2" d="M316.76,14.05c.05-.32.2-.61.57-.59a1.22,1.22,0,0,1,.83.44,1.06,1.06,0,0,1-.08,1.48.78.78,0,0,1-.68.09,1.1,1.1,0,0,1-.65-1A1.63,1.63,0,0,1,316.76,14.05Z"/><path class="cls-2" d="M319,14.92c.16-.27.41-.49.74-.33a1.24,1.24,0,0,1,.61.72,1.08,1.08,0,0,1-.64,1.34.81.81,0,0,1-.67-.17,1.13,1.13,0,0,1-.2-1.22A1.31,1.31,0,0,1,319,14.92Z"/><path class="cls-2" d="M314.57,16.09c-.28-.15-.61-.21-.81.09a1.22,1.22,0,0,0-.17.93,1.08,1.08,0,0,0,1.23.84.8.8,0,0,0,.49-.48,1.13,1.13,0,0,0-.43-1.16Z"/><path class="cls-2" d="M266.93,23.56H248.4a2.05,2.05,0,0,0,0,4.1h7c.22,0,.68.23.56.9-1,5.44-4.77,6-5.28,6.06a2.05,2.05,0,0,0,.17,4.1H251c2.88-.21,8.05-2.68,9.11-10.24h0c.05-.38.35-.81.73-.81h6.08a2.05,2.05,0,1,0,0-4.1Z"/><path class="cls-2" d="M289.1,17.64a2,2,0,0,0-2.77.82c-.05.08-4.36,7.82-13.22,9.69a2.05,2.05,0,0,0,.42,4.06,2.1,2.1,0,0,0,.43-.05,23.09,23.09,0,0,0,7-2.76h0c.25-.15.46,0,.46.28v7a2,2,0,1,0,4.09,0V26.52a1.1,1.1,0,0,1,.33-.91h0a24.29,24.29,0,0,0,4.06-5.2A2,2,0,0,0,289.1,17.64Z"/><path class="cls-2" d="M307.4,30h0a.44.44,0,0,1-.1-.68h0a26.63,26.63,0,0,0,4-8.62,2.05,2.05,0,0,0-2-2.5h-12.6a2,2,0,1,0,0,4.1h9.15c.42,0,.57.12.41.52-1.52,3.53-5,9.14-12,11.17a2.05,2.05,0,0,0,.56,4,2.24,2.24,0,0,0,.57-.08,21.29,21.29,0,0,0,8.37-4.63h0a.82.82,0,0,1,.89-.18,37.57,37.57,0,0,1,5.61,4.48,2.05,2.05,0,1,0,2.88-2.92A42.9,42.9,0,0,0,307.4,30Z"/><path class="cls-2" d="M170.45,13.59a2.24,2.24,0,0,0-2.92,1.27c-.2.5-4.76,12.39.07,22.38a2.25,2.25,0,0,0,2,1.27,2.29,2.29,0,0,0,1-.22,2.26,2.26,0,0,0,1-3c-4-8.19,0-18.64.06-18.77A2.24,2.24,0,0,0,170.45,13.59Z"/><path class="cls-2" d="M177.93,21.08a2.38,2.38,0,0,0,.78-.14,22.68,22.68,0,0,1,7.37-.58A2.25,2.25,0,1,0,187.2,16c-2.27-.59-7.93-.08-10,.71a2.26,2.26,0,0,0,.78,4.37Z"/><path class="cls-2" d="M190.13,32.41a2.24,2.24,0,0,0-3-1.11,9.15,9.15,0,0,1-9.45-.75,2.26,2.26,0,0,0-2.43,3.8,13.58,13.58,0,0,0,13.75,1A2.25,2.25,0,0,0,190.13,32.41Z"/><path class="cls-2" d="M237,11.67c0,.07,0,.17.05.26.64.57,4.49.76,4.36-1.17l0-.15a11.81,11.81,0,0,0-3.48-5.71,2.26,2.26,0,0,0-2.95,3.42A7.27,7.27,0,0,1,237,11.67Z"/><path class="cls-2" d="M241.38,18.42a39.65,39.65,0,0,0,.27-4.18c-.42,1.54-4,1.21-4.52.65a41.59,41.59,0,0,1-.38,4.23C237.44,19.78,241.2,20.43,241.38,18.42Z"/><path class="cls-2" d="M239.89,26.38c.38-1.43.72-3,1-4.55-.5,1.3-3.84,1-4.58,0-.27,1.42-.61,2.86-1,4.23C235.93,26.87,239.24,28.12,239.89,26.38Z"/><path class="cls-2" d="M234.37,28.81c-.94,2.18-2.42,4.39-3.71,4.39-.75,0-.9,0-1.56-2-.56-1.65-1.49-4.41-4.75-4.9a4.52,4.52,0,0,0-1.95.12h0c-.19.05-.27-.1-.22-.29a27.65,27.65,0,0,1,3.51-6.63,2.25,2.25,0,1,0-3.61-2.69c-5.61,7.52-6.73,18-6.78,18.39v.13a1.92,1.92,0,0,0,0,.24.76.76,0,0,0,0,.21,1.7,1.7,0,0,0,0,.22,1.72,1.72,0,0,0,.07.21,1.54,1.54,0,0,0,.08.19,1.14,1.14,0,0,0,.1.19,2.14,2.14,0,0,0,.13.19l.13.15.16.17.16.13a1.22,1.22,0,0,0,.19.12l.2.11.12.06.09,0,.17.05.27,0,.07,0h.23a1.67,1.67,0,0,0,.39,0l.1,0a1.38,1.38,0,0,0,.27-.08l.11,0c.09,0,.17-.08.26-.12l.08,0a2.25,2.25,0,0,0,.56-.51l0-.06c.06-.08.11-.17.16-.25l.06-.13.06-.12c1.17-3,3.25-5.61,4-5.49.41.06.59.22,1.15,1.88s1.7,5,5.84,5c4.7,0,7.3-5.55,8.28-8.21C238,30.69,235.11,29.81,234.37,28.81Z"/><path class="cls-2" d="M211.74,26.09A5.2,5.2,0,0,0,209,22.88a6.07,6.07,0,0,0-1.95-.54h0a.44.44,0,0,1-.43-.54l.12-1.39a2.05,2.05,0,1,0-4.09-.34L202.39,23a.82.82,0,0,1-.46.66h0l-1.3.68h0a.48.48,0,0,1-.74-.22h0l-1-2.06a2.1,2.1,0,0,0-3.78,1.84l1.12,2.3h0c.13.26.18.49-.26.74h0l-1.07.62a2.1,2.1,0,1,0,2.1,3.64l.83-.48a.44.44,0,0,1,.69.19h0l2.81,5.78a2.11,2.11,0,0,0,1.89,1.18,2,2,0,0,0,.92-.21,2.08,2.08,0,0,0,1-2.8l-2.95-6.07a.39.39,0,0,1,.15-.58c1.33-.72,2.47-1.32,3-1.52a2.56,2.56,0,0,1,1.89,0,.94.94,0,0,1,.55.63c.15.52-.93,1.24-1.12,1.34a2.1,2.1,0,0,0,1,4,2,2,0,0,0,.95-.23C210.05,31.6,212.69,29.28,211.74,26.09Z"/></g></g></svg>