<svg xmlns="http://www.w3.org/2000/svg" viewBox="0 0 209.01 82.69"><defs><style>.cls-1{fill:#fff;}</style></defs><title>アセット 10</title><g id="レイヤー_2" data-name="レイヤー 2"><g id="レイヤー_1-2" data-name="レイヤー 1"><path class="cls-1" d="M82,16H95.72a2.56,2.56,0,1,0,0-5.12H82A2.56,2.56,0,0,0,82,16Z"/><circle class="cls-1" cx="173.51" cy="25.77" r="3.55"/><path class="cls-1" d="M96.53,7c.66-.17,1.43,0,2-.34a1.11,1.11,0,0,0,.44-1,1.51,1.51,0,0,0-1.1-1.22,1.9,1.9,0,0,1-.87-.6,1.52,1.52,0,0,0-2.49.67,2,2,0,0,1-.45,1,1.5,1.5,0,0,0-.35,1.61,1.11,1.11,0,0,0,.86.62c.71,0,1.28-.54,1.93-.72"/><path class="cls-1" d="M94.39,1c-.24-.31-.59-.53-1-.28a1.48,1.48,0,0,0-.63,1,1.32,1.32,0,0,0,1,1.54.94.94,0,0,0,.8-.32,1.41,1.41,0,0,0,.05-1.54A2.27,2.27,0,0,0,94.39,1Z"/><path class="cls-1" d="M95.31.73c.06-.39.25-.75.7-.73a1.53,1.53,0,0,1,1,.55A1.34,1.34,0,0,1,97,2.4a1,1,0,0,1-.85.12,1.41,1.41,0,0,1-.81-1.31A2,2,0,0,1,95.31.73Z"/><path class="cls-1" d="M98.05,1.82c.2-.34.52-.6.93-.41a1.56,1.56,0,0,1,.76.91A1.34,1.34,0,0,1,98.94,4a1,1,0,0,1-.83-.22,1.38,1.38,0,0,1-.26-1.51A2.14,2.14,0,0,1,98.05,1.82Z"/><path class="cls-1" d="M92.56,3.29a.71.71,0,0,0-1,.11,1.55,1.55,0,0,0-.2,1.17,1.32,1.32,0,0,0,1.52,1,1,1,0,0,0,.62-.6A1.41,1.41,0,0,0,93,3.57,2,2,0,0,0,92.56,3.29Z"/><path class="cls-1" d="M106.25,12c.65-.17,1.42,0,2-.35a1.05,1.05,0,0,0,.43-1,1.49,1.49,0,0,0-1.1-1.22,2,2,0,0,1-.87-.6,1.51,1.51,0,0,0-2.48.67,2.06,2.06,0,0,1-.46,1,1.52,1.52,0,0,0-.35,1.6,1.09,1.09,0,0,0,.87.62c.71,0,1.27-.53,1.93-.71"/><path class="cls-1" d="M104.13,6c-.24-.31-.59-.53-1-.28a1.48,1.48,0,0,0-.63,1,1.32,1.32,0,0,0,1,1.54.94.94,0,0,0,.8-.32,1.41,1.41,0,0,0,0-1.54A2.27,2.27,0,0,0,104.13,6Z"/><path class="cls-1" d="M105.05,5.73c.06-.39.25-.75.7-.73a1.53,1.53,0,0,1,1,.55,1.33,1.33,0,0,1-.11,1.85,1,1,0,0,1-.85.12A1.41,1.41,0,0,1,105,6.21,2,2,0,0,1,105.05,5.73Z"/><path class="cls-1" d="M107.79,6.82c.21-.34.52-.6.93-.41a1.56,1.56,0,0,1,.76.91,1.34,1.34,0,0,1-.8,1.67,1,1,0,0,1-.83-.22,1.38,1.38,0,0,1-.26-1.51A2.86,2.86,0,0,1,107.79,6.82Z"/><path class="cls-1" d="M102.3,8.29a.71.71,0,0,0-1,.11,1.55,1.55,0,0,0-.2,1.17,1.32,1.32,0,0,0,1.53,1,1,1,0,0,0,.61-.6,1.39,1.39,0,0,0-.54-1.44A2,2,0,0,0,102.3,8.29Z"/><path class="cls-1" d="M154.18,9.19c.65-.18,1.42,0,2-.35a1.09,1.09,0,0,0,.43-1,1.49,1.49,0,0,0-1.1-1.21,2.13,2.13,0,0,1-.87-.6,1.51,1.51,0,0,0-2.49.66,2,2,0,0,1-.45,1,1.51,1.51,0,0,0-.35,1.6,1.09,1.09,0,0,0,.87.62c.71,0,1.27-.54,1.93-.71"/><path class="cls-1" d="M152.06,3.2c-.24-.31-.59-.54-1-.29a1.48,1.48,0,0,0-.63,1,1.33,1.33,0,0,0,1,1.55,1,1,0,0,0,.8-.32,1.41,1.41,0,0,0,0-1.54A2,2,0,0,0,152.06,3.2Z"/><path class="cls-1" d="M153,3c.06-.39.25-.76.7-.73a1.53,1.53,0,0,1,1,.55,1.33,1.33,0,0,1-.11,1.85,1,1,0,0,1-.85.11,1.4,1.4,0,0,1-.81-1.3A2,2,0,0,1,153,3Z"/><path class="cls-1" d="M155.72,4c.2-.34.52-.61.93-.41a1.51,1.51,0,0,1,.76.9,1.33,1.33,0,0,1-.8,1.67,1,1,0,0,1-.83-.21,1.39,1.39,0,0,1-.26-1.52A2.76,2.76,0,0,1,155.72,4Z"/><path class="cls-1" d="M150.23,5.51c-.34-.19-.75-.27-1,.11a1.53,1.53,0,0,0-.2,1.16,1.34,1.34,0,0,0,1.53,1,1,1,0,0,0,.61-.6,1.4,1.4,0,0,0-.54-1.44A2,2,0,0,0,150.23,5.51Z"/><path class="cls-1" d="M163.92,14.19c.65-.18,1.42,0,2-.35a1.07,1.07,0,0,0,.43-1,1.47,1.47,0,0,0-1.1-1.21,2.13,2.13,0,0,1-.87-.6,1.5,1.5,0,0,0-2.48.66,2.09,2.09,0,0,1-.46,1,1.51,1.51,0,0,0-.35,1.6,1.09,1.09,0,0,0,.87.62c.71,0,1.27-.54,1.93-.71"/><path class="cls-1" d="M161.81,8.2c-.25-.31-.6-.54-1-.29a1.52,1.52,0,0,0-.63,1,1.33,1.33,0,0,0,1,1.55,1,1,0,0,0,.8-.32,1.41,1.41,0,0,0,.05-1.54A1.9,1.9,0,0,0,161.81,8.2Z"/><path class="cls-1" d="M162.72,8c.06-.39.25-.76.7-.73a1.53,1.53,0,0,1,1.05.55,1.33,1.33,0,0,1-.11,1.85,1,1,0,0,1-.85.11,1.4,1.4,0,0,1-.81-1.3A2,2,0,0,1,162.72,8Z"/><path class="cls-1" d="M165.46,9c.21-.34.52-.61.93-.41a1.51,1.51,0,0,1,.76.9,1.33,1.33,0,0,1-.8,1.67,1,1,0,0,1-.83-.21,1.39,1.39,0,0,1-.26-1.52A2.76,2.76,0,0,1,165.46,9Z"/><path class="cls-1" d="M160,10.51c-.34-.19-.75-.27-1,.11a1.53,1.53,0,0,0-.2,1.16,1.34,1.34,0,0,0,1.53,1.05,1,1,0,0,0,.61-.6,1.38,1.38,0,0,0-.54-1.44A2,2,0,0,0,160,10.51Z"/><path class="cls-1" d="M36.05,31.29a9,9,0,0,1-1.28.42c-.35.09-.25,0,.07-.5A17.51,17.51,0,0,0,37.59,21c-.24-3.48-2.15-8.74-7.33-10.74-.25-.1-.54,0-.17.32,1,.77,1.19,1.57.91,1.44s-.64-.84-1.42-1.21A12.49,12.49,0,0,0,24.14,9.5c-2.7,0-4.33.69-3.53,1s5.94.6,8.16,9.61S21.69,34.35,17.66,35.49a1.34,1.34,0,0,0-.86,1.38,1.55,1.55,0,0,0,1.6,1.32C32.4,37.86,38.17,30.38,36.05,31.29Z"/><path class="cls-1" d="M10.55,26.38a2.39,2.39,0,0,1,.72-1.66C15,21.19,19.93,18,24.32,19.52a7.78,7.78,0,0,1,1.66.81h0c.43.31.92.39.8-.22a12.36,12.36,0,0,0-3.14-6,4.29,4.29,0,0,0-2-.62,13.65,13.65,0,0,0-6,1.43h0c-.21.09-.36,0-.35-.18h0a2.8,2.8,0,0,0-.53-1.66A2.76,2.76,0,0,0,12.66,12l0,0c-.17,0-.32-.2-.26-.5.4-1.87.71-3,.73-3.06A2.82,2.82,0,0,0,7.67,6.84C7.6,7.07,7,9.32,6.35,12.71h0a.82.82,0,0,1-.62.74h0l-2.49.6a2.82,2.82,0,1,0,1.32,5.48l.23-.06h0c.42-.1.51.12.51.45h0c0,.23,0,.47-.07.7h0a3.83,3.83,0,0,1-.44,1.08l-4.36,7a2.81,2.81,0,0,0,4.21,3.63h0l0,0h0c.15-.12.37-.21.41.23,0,0,0,0,0,0,.1,1.11.22,2.22.4,3.33a2.82,2.82,0,0,0,2.78,2.38,3.42,3.42,0,0,0,.44,0A2.81,2.81,0,0,0,11.06,35,49.14,49.14,0,0,1,10.55,26.38Z"/><path class="cls-1" d="M68,22.87a2.82,2.82,0,0,0-2.92,2.71c-.1,2.57-1.16,7.14-2.93,7.14-.93,0-1.19-.26-1.95-2.44s-1.86-5.52-5.94-6.14a5.78,5.78,0,0,0-2.43.15h0c-.23.06-.33-.13-.27-.37A34.27,34.27,0,0,1,56,15.63a2.82,2.82,0,0,0-4.52-3.37c-7,9.41-8.42,22.44-8.47,23a.85.85,0,0,0,0,.16,1.6,1.6,0,0,0,0,.31A1.09,1.09,0,0,0,43,36a2.56,2.56,0,0,0,.05.27l.09.27a2.44,2.44,0,0,0,.1.24c0,.08.08.16.13.24l.15.22.17.21a1.7,1.7,0,0,0,.19.19l.22.18.21.14c.09.06.19.1.28.15l.14.07.09,0c.09,0,.19.06.28.09l.29,0,.09,0,.29,0h0l.23,0a3,3,0,0,0,.31,0l.2-.06.3-.1.2-.09.26-.15a1.33,1.33,0,0,0,.19-.14l.22-.18.17-.18.18-.23.13-.2a2.44,2.44,0,0,0,.14-.28l.06-.11c1.52-3.81,4.11-7,5.06-6.87.51.08.73.28,1.43,2.36s2.12,6.29,7.3,6.29c6.38,0,8.38-7.9,8.56-12.56A2.83,2.83,0,0,0,68,22.87Z"/><path class="cls-1" d="M100.43,19.84H77.27a2.56,2.56,0,1,0,0,5.12H86c.28,0,.86.3.7,1.13-1.27,6.8-6,7.52-6.59,7.58a2.56,2.56,0,0,0,.21,5.12h.19c3.6-.27,10.07-3.35,11.39-12.8h0c.07-.48.44-1,.92-1h7.6a2.56,2.56,0,0,0,0-5.12Z"/><path class="cls-1" d="M128.14,12.44a2.57,2.57,0,0,0-3.47,1c0,.1-5.44,9.77-16.51,12.11a2.56,2.56,0,0,0,.52,5.07,2.33,2.33,0,0,0,.53-.06A28.57,28.57,0,0,0,118,27.14h0c.3-.18.56-.05.56.36v8.73a2.57,2.57,0,0,0,5.13,0V23.55a1.35,1.35,0,0,1,.4-1.14h0a30.48,30.48,0,0,0,5.08-6.5A2.55,2.55,0,0,0,128.14,12.44Z"/><path class="cls-1" d="M151,27.88h0a.55.55,0,0,1-.12-.85h0a33.29,33.29,0,0,0,5-10.78,2.56,2.56,0,0,0-2.5-3.12H137.66a2.56,2.56,0,0,0,0,5.12h11.43c.53,0,.71.15.51.65-1.9,4.41-6.21,11.43-15,14A2.56,2.56,0,0,0,136,37.78,26.52,26.52,0,0,0,146.46,32h0a1.07,1.07,0,0,1,1.12-.23,47.74,47.74,0,0,1,7,5.6,2.56,2.56,0,0,0,3.6-3.64A52.21,52.21,0,0,0,151,27.88Z"/><path class="cls-1" d="M23.48,50.47a2.81,2.81,0,0,0-3.65,1.59c-.24.63-5.95,15.48.09,28a2.81,2.81,0,0,0,2.54,1.6,2.7,2.7,0,0,0,1.22-.29A2.81,2.81,0,0,0,25,77.58c-4.94-10.23,0-23.29.09-23.46A2.82,2.82,0,0,0,23.48,50.47Z"/><path class="cls-1" d="M32.84,59.83a3,3,0,0,0,1-.17A28,28,0,0,1,43,58.94a2.82,2.82,0,0,0,1.4-5.46c-2.83-.73-9.9-.09-12.56.89a2.82,2.82,0,0,0,1,5.46Z"/><path class="cls-1" d="M48.09,74a2.83,2.83,0,0,0-3.74-1.39,11.42,11.42,0,0,1-11.8-.93,2.82,2.82,0,1,0-3,4.74,17.82,17.82,0,0,0,9.7,3,17.92,17.92,0,0,0,7.49-1.73A2.82,2.82,0,0,0,48.09,74Z"/><path class="cls-1" d="M138.32,50.88c.65-.18,1.42,0,2-.35a1.09,1.09,0,0,0,.44-1,1.49,1.49,0,0,0-1.1-1.21,2.13,2.13,0,0,1-.87-.6,1.51,1.51,0,0,0-2.49.66,2.07,2.07,0,0,1-.45,1,1.5,1.5,0,0,0-.35,1.6,1.09,1.09,0,0,0,.87.62c.7,0,1.27-.54,1.93-.71"/><path class="cls-1" d="M136.2,44.88c-.24-.3-.59-.53-1-.28a1.48,1.48,0,0,0-.63,1,1.33,1.33,0,0,0,1,1.55,1,1,0,0,0,.8-.32,1.41,1.41,0,0,0,.05-1.54A2.33,2.33,0,0,0,136.2,44.88Z"/><path class="cls-1" d="M137.12,44.64c.06-.39.25-.76.7-.73a1.53,1.53,0,0,1,1.05.55,1.33,1.33,0,0,1-.11,1.84,1,1,0,0,1-.85.12,1.4,1.4,0,0,1-.81-1.3A2,2,0,0,1,137.12,44.64Z"/><path class="cls-1" d="M139.86,45.73c.2-.34.52-.61.93-.41a1.51,1.51,0,0,1,.76.9,1.33,1.33,0,0,1-.8,1.67,1,1,0,0,1-.83-.21,1.39,1.39,0,0,1-.26-1.52A2.07,2.07,0,0,1,139.86,45.73Z"/><path class="cls-1" d="M134.37,47.2c-.34-.19-.75-.27-1,.11a1.53,1.53,0,0,0-.2,1.16,1.33,1.33,0,0,0,1.52,1.05,1,1,0,0,0,.62-.6,1.4,1.4,0,0,0-.54-1.44A2,2,0,0,0,134.37,47.2Z"/><path class="cls-1" d="M148.06,55.88c.65-.18,1.42,0,2-.35a1.08,1.08,0,0,0,.43-1,1.49,1.49,0,0,0-1.1-1.21,2.13,2.13,0,0,1-.87-.6,1.51,1.51,0,0,0-2.49.66,2,2,0,0,1-.45,1,1.51,1.51,0,0,0-.35,1.6,1.09,1.09,0,0,0,.87.62c.71,0,1.27-.54,1.93-.71"/><path class="cls-1" d="M145.94,49.88c-.24-.3-.59-.53-1-.28a1.48,1.48,0,0,0-.63,1,1.33,1.33,0,0,0,1,1.55,1,1,0,0,0,.8-.32,1.41,1.41,0,0,0,0-1.54A2.33,2.33,0,0,0,145.94,49.88Z"/><path class="cls-1" d="M146.86,49.64c.06-.39.25-.76.7-.73a1.53,1.53,0,0,1,1.05.55,1.32,1.32,0,0,1-.11,1.84,1,1,0,0,1-.85.12,1.4,1.4,0,0,1-.81-1.3A2,2,0,0,1,146.86,49.64Z"/><path class="cls-1" d="M149.6,50.73c.21-.34.52-.61.93-.41a1.51,1.51,0,0,1,.76.9,1.33,1.33,0,0,1-.8,1.67,1,1,0,0,1-.83-.21,1.39,1.39,0,0,1-.26-1.52A2.76,2.76,0,0,1,149.6,50.73Z"/><path class="cls-1" d="M144.11,52.2c-.34-.19-.75-.27-1,.11a1.53,1.53,0,0,0-.2,1.16,1.34,1.34,0,0,0,1.53,1.05,1,1,0,0,0,.61-.6,1.4,1.4,0,0,0-.54-1.44A2,2,0,0,0,144.11,52.2Z"/><path class="cls-1" d="M196,51.94c.65-.18,1.42,0,2-.35a1.07,1.07,0,0,0,.44-1,1.49,1.49,0,0,0-1.1-1.21,2.13,2.13,0,0,1-.87-.6,1.52,1.52,0,0,0-2.49.67,2,2,0,0,1-.45,1,1.52,1.52,0,0,0-.35,1.6,1.09,1.09,0,0,0,.87.62c.7,0,1.27-.53,1.93-.71"/><path class="cls-1" d="M193.87,46c-.24-.31-.59-.53-1-.28a1.46,1.46,0,0,0-.63,1,1.32,1.32,0,0,0,1,1.54,1,1,0,0,0,.8-.32,1.41,1.41,0,0,0,0-1.54A2.27,2.27,0,0,0,193.87,46Z"/><path class="cls-1" d="M194.79,45.7c.06-.39.25-.75.7-.73a1.53,1.53,0,0,1,1,.55,1.34,1.34,0,0,1-.11,1.85,1,1,0,0,1-.85.12,1.42,1.42,0,0,1-.81-1.31A2,2,0,0,1,194.79,45.7Z"/><path class="cls-1" d="M197.53,46.79c.2-.34.52-.6.93-.41a1.56,1.56,0,0,1,.76.91,1.34,1.34,0,0,1-.8,1.67,1,1,0,0,1-.83-.22,1.38,1.38,0,0,1-.26-1.51A2.14,2.14,0,0,1,197.53,46.79Z"/><path class="cls-1" d="M192,48.26a.71.71,0,0,0-1,.11,1.55,1.55,0,0,0-.2,1.17,1.33,1.33,0,0,0,1.52,1A1,1,0,0,0,193,50a1.4,1.4,0,0,0-.54-1.44A2,2,0,0,0,192,48.26Z"/><path class="cls-1" d="M205.73,56.94c.65-.18,1.42,0,2-.35a1.06,1.06,0,0,0,.43-1,1.49,1.49,0,0,0-1.1-1.21,2.13,2.13,0,0,1-.87-.6,1.52,1.52,0,0,0-2.49.67,2,2,0,0,1-.45,1,1.52,1.52,0,0,0-.35,1.6,1.09,1.09,0,0,0,.87.62c.71,0,1.27-.53,1.93-.71"/><path class="cls-1" d="M203.61,51c-.24-.31-.59-.53-1-.28a1.46,1.46,0,0,0-.63,1,1.32,1.32,0,0,0,1,1.54,1,1,0,0,0,.8-.32,1.41,1.41,0,0,0,.05-1.54A2.27,2.27,0,0,0,203.61,51Z"/><path class="cls-1" d="M204.53,50.7c.06-.39.25-.75.7-.73a1.53,1.53,0,0,1,1.05.55,1.33,1.33,0,0,1-.11,1.85,1,1,0,0,1-.85.12,1.42,1.42,0,0,1-.81-1.31A2,2,0,0,1,204.53,50.7Z"/><path class="cls-1" d="M207.27,51.79c.21-.34.52-.6.93-.41a1.56,1.56,0,0,1,.76.91,1.34,1.34,0,0,1-.8,1.67,1,1,0,0,1-.83-.22,1.38,1.38,0,0,1-.26-1.51A2.86,2.86,0,0,1,207.27,51.79Z"/><path class="cls-1" d="M201.78,53.26a.71.71,0,0,0-1,.11,1.55,1.55,0,0,0-.2,1.17,1.33,1.33,0,0,0,1.53,1,1,1,0,0,0,.61-.6,1.38,1.38,0,0,0-.54-1.44A2,2,0,0,0,201.78,53.26Z"/><path class="cls-1" d="M106.61,49.07l.06.32c.8.72,5.62,1,5.45-1.45l0-.2a14.69,14.69,0,0,0-4.36-7.13,2.82,2.82,0,0,0-3.68,4.27A9.27,9.27,0,0,1,106.61,49.07Z"/><path class="cls-1" d="M112.15,57.52a49.91,49.91,0,0,0,.34-5.24c-.53,1.93-5,1.52-5.65.82-.06,1.56-.22,3.37-.48,5.29C107.22,59.21,111.93,60,112.15,57.52Z"/><path class="cls-1" d="M110.29,67.46c.47-1.78.89-3.72,1.23-5.68-.62,1.62-4.8,1.21-5.72,0-.34,1.78-.77,3.57-1.26,5.29C105.34,68.08,109.47,69.64,110.29,67.46Z"/><path class="cls-1" d="M103.38,70.5c-1.17,2.73-3,5.49-4.63,5.49-.94,0-1.13,0-2-2.45-.69-2.06-1.86-5.52-5.94-6.13a6,6,0,0,0-2.43.14s0,0,0,0c-.24.06-.33-.13-.27-.37a34.39,34.39,0,0,1,4.39-8.28A2.82,2.82,0,0,0,88,55.53c-7,9.4-8.42,22.44-8.47,23a.86.86,0,0,0,0,.16c0,.1,0,.2,0,.31a2.34,2.34,0,0,0,0,.26,2.56,2.56,0,0,0,.05.27,1.14,1.14,0,0,0,.09.26,1.86,1.86,0,0,0,.1.25l.13.23.15.23a1.63,1.63,0,0,0,.17.2,1.89,1.89,0,0,0,.2.2l.2.17.23.16.25.13.16.08.11,0,.22.06a1.94,1.94,0,0,0,.33.07l.09,0h.29a2.72,2.72,0,0,0,.49,0l.12,0a2.19,2.19,0,0,0,.34-.1l.13,0a1.91,1.91,0,0,0,.32-.16l.1,0a2.89,2.89,0,0,0,.71-.64l.06-.08a3.28,3.28,0,0,0,.2-.31l.07-.16a1.09,1.09,0,0,0,.08-.15C86.43,76.14,89,72.83,90,73c.52.08.74.28,1.44,2.36s2.12,6.29,7.3,6.29c5.87,0,9.13-6.95,10.35-10.27C107.91,72.85,104.31,71.75,103.38,70.5Z"/><path class="cls-1" d="M75.1,66.1a6.48,6.48,0,0,0-3.43-4,7.69,7.69,0,0,0-2.44-.68h0a.55.55,0,0,1-.54-.68L68.82,59a2.56,2.56,0,0,0-5.11-.43l-.3,3.62h0a1.05,1.05,0,0,1-.57.83h0c-.5.26-1,.54-1.6.85h0a.61.61,0,0,1-.93-.27h0L59,61a2.63,2.63,0,1,0-4.72,2.3l1.4,2.88h0c.16.32.22.61-.33.92h0L54,67.88a2.63,2.63,0,1,0,2.63,4.55l1-.6a.56.56,0,0,1,.87.24h0l3.52,7.23A2.63,2.63,0,1,0,66.8,77l-3.68-7.57h0a.49.49,0,0,1,.18-.73c1.67-.91,3.09-1.65,3.73-1.9a3.15,3.15,0,0,1,2.36,0,1.2,1.2,0,0,1,.68.79c.19.66-1.16,1.55-1.4,1.67a2.63,2.63,0,0,0,1.2,5A2.55,2.55,0,0,0,71.06,74C73,73,76.29,70.08,75.1,66.1Z"/><path class="cls-1" d="M123.78,59.88h13.75a2.57,2.57,0,0,0,0-5.13H123.78a2.57,2.57,0,0,0,0,5.13Z"/><path class="cls-1" d="M142.24,63.74H119.08a2.57,2.57,0,1,0,0,5.13h8.74c.28,0,.86.29.7,1.13-1.27,6.8-6,7.51-6.59,7.58a2.56,2.56,0,0,0,.21,5.11h.19c3.6-.27,10.07-3.36,11.39-12.8h0c.07-.48.44-1,.92-1h7.6a2.57,2.57,0,0,0,0-5.13Z"/><path class="cls-1" d="M170,55.19a2.57,2.57,0,0,0-3.47,1c0,.1-5.44,9.77-16.52,12.11a2.56,2.56,0,0,0,.53,5.07,3.07,3.07,0,0,0,.53-.05,28.83,28.83,0,0,0,8.79-3.46h0c.3-.19.56-.06.56.35V79a2.57,2.57,0,0,0,5.13,0V66.3a1.35,1.35,0,0,1,.4-1.14h0A30.39,30.39,0,0,0,171,58.65,2.55,2.55,0,0,0,170,55.19Z"/><path class="cls-1" d="M200,76.47a53,53,0,0,0-7.18-5.84h0a.54.54,0,0,1-.12-.85h0a33.29,33.29,0,0,0,5-10.78,2.58,2.58,0,0,0-.5-2.16,2.56,2.56,0,0,0-2-1H179.47a2.56,2.56,0,0,0,0,5.12H190.9c.53,0,.71.15.51.65-1.9,4.42-6.21,11.43-15,14a2.56,2.56,0,0,0,1.42,4.92,26.4,26.4,0,0,0,10.45-5.79h0a1.07,1.07,0,0,1,1.12-.22,47.74,47.74,0,0,1,7,5.6,2.56,2.56,0,0,0,3.6-3.65Z"/></g></g></svg>