<svg xmlns="http://www.w3.org/2000/svg" viewBox="0 0 237 103"><defs><style>.cls-1{fill:#1da23a;}.cls-2{fill:#fff;}</style></defs><title>アセット 5</title><g id="レイヤー_2" data-name="レイヤー 2"><g id="レイヤー_1-2" data-name="レイヤー 1"><rect class="cls-1" width="237" height="103"/><path class="cls-2" d="M98.58,24.57h13.75a2.56,2.56,0,1,0,0-5.12H98.58a2.56,2.56,0,0,0,0,5.12Z"/><circle class="cls-2" cx="190.11" cy="34.37" r="3.55"/><path class="cls-2" d="M113.14,15.57c.66-.17,1.43,0,2-.34a1.11,1.11,0,0,0,.44-1,1.51,1.51,0,0,0-1.1-1.22,1.9,1.9,0,0,1-.87-.6,1.52,1.52,0,0,0-2.49.67,2,2,0,0,1-.45,1,1.5,1.5,0,0,0-.35,1.61,1.11,1.11,0,0,0,.86.62c.71,0,1.28-.54,1.93-.72"/><path class="cls-2" d="M111,9.58c-.25-.31-.59-.53-1-.28a1.53,1.53,0,0,0-.64,1,1.34,1.34,0,0,0,1,1.54.94.94,0,0,0,.8-.32,1.41,1.41,0,0,0,.05-1.54A2.27,2.27,0,0,0,111,9.58Z"/><path class="cls-2" d="M111.92,9.33c.06-.39.25-.75.7-.73a1.53,1.53,0,0,1,1,.55,1.34,1.34,0,0,1-.11,1.85,1,1,0,0,1-.85.12,1.38,1.38,0,0,1-.81-1.31A2,2,0,0,1,111.92,9.33Z"/><path class="cls-2" d="M114.66,10.42c.2-.34.52-.6.93-.41a1.56,1.56,0,0,1,.76.91,1.34,1.34,0,0,1-.8,1.67,1,1,0,0,1-.83-.22,1.38,1.38,0,0,1-.26-1.51A2.14,2.14,0,0,1,114.66,10.42Z"/><path class="cls-2" d="M109.17,11.89c-.35-.19-.75-.26-1,.11a1.5,1.5,0,0,0-.2,1.17,1.32,1.32,0,0,0,1.52,1,1,1,0,0,0,.62-.6,1.41,1.41,0,0,0-.54-1.44A2,2,0,0,0,109.17,11.89Z"/><path class="cls-2" d="M122.86,20.57c.65-.18,1.42,0,2-.35a1.07,1.07,0,0,0,.44-1,1.5,1.5,0,0,0-1.1-1.21,2.13,2.13,0,0,1-.87-.6,1.52,1.52,0,0,0-2.49.67,2,2,0,0,1-.45.95,1.52,1.52,0,0,0-.35,1.6,1.09,1.09,0,0,0,.87.62c.7,0,1.27-.53,1.93-.71"/><path class="cls-2" d="M120.74,14.58c-.24-.31-.59-.53-1-.28a1.48,1.48,0,0,0-.63,1,1.32,1.32,0,0,0,1,1.54.94.94,0,0,0,.8-.32A1.41,1.41,0,0,0,121,15,2.27,2.27,0,0,0,120.74,14.58Z"/><path class="cls-2" d="M121.66,14.33c.06-.39.25-.75.7-.73a1.53,1.53,0,0,1,1,.55A1.34,1.34,0,0,1,123.3,16a1,1,0,0,1-.85.12,1.41,1.41,0,0,1-.81-1.31A2,2,0,0,1,121.66,14.33Z"/><path class="cls-2" d="M124.4,15.42c.2-.34.52-.6.93-.41a1.56,1.56,0,0,1,.76.91,1.34,1.34,0,0,1-.8,1.67,1,1,0,0,1-.83-.22,1.38,1.38,0,0,1-.26-1.51A2.14,2.14,0,0,1,124.4,15.42Z"/><path class="cls-2" d="M118.91,16.89a.71.71,0,0,0-1,.11,1.55,1.55,0,0,0-.2,1.17,1.32,1.32,0,0,0,1.52,1,1,1,0,0,0,.62-.6,1.41,1.41,0,0,0-.54-1.44A2,2,0,0,0,118.91,16.89Z"/><path class="cls-2" d="M170.79,17.79c.65-.18,1.42,0,2-.35a1.09,1.09,0,0,0,.44-1,1.49,1.49,0,0,0-1.1-1.21,2.13,2.13,0,0,1-.87-.6,1.51,1.51,0,0,0-2.49.66,2.07,2.07,0,0,1-.45,1,1.5,1.5,0,0,0-.35,1.6,1.09,1.09,0,0,0,.87.62c.7,0,1.27-.54,1.93-.71"/><path class="cls-2" d="M168.67,11.79c-.24-.3-.59-.53-1-.28a1.53,1.53,0,0,0-.64,1,1.35,1.35,0,0,0,1,1.55,1,1,0,0,0,.8-.32,1.41,1.41,0,0,0,.05-1.54A2.33,2.33,0,0,0,168.67,11.79Z"/><path class="cls-2" d="M169.59,11.55c.06-.39.25-.76.7-.73a1.53,1.53,0,0,1,1.05.55,1.33,1.33,0,0,1-.11,1.84,1,1,0,0,1-.85.12,1.38,1.38,0,0,1-.81-1.3A2,2,0,0,1,169.59,11.55Z"/><path class="cls-2" d="M172.33,12.64c.2-.34.52-.61.93-.41a1.51,1.51,0,0,1,.76.9,1.33,1.33,0,0,1-.8,1.67,1,1,0,0,1-.83-.21,1.39,1.39,0,0,1-.26-1.52A2.07,2.07,0,0,1,172.33,12.64Z"/><path class="cls-2" d="M166.84,14.11c-.34-.19-.75-.27-1,.11a1.49,1.49,0,0,0-.2,1.16,1.33,1.33,0,0,0,1.52,1,1,1,0,0,0,.62-.6,1.4,1.4,0,0,0-.54-1.44A2,2,0,0,0,166.84,14.11Z"/><path class="cls-2" d="M180.53,22.79c.65-.18,1.42,0,2-.35a1.1,1.1,0,0,0,.43-1,1.49,1.49,0,0,0-1.1-1.21,2.13,2.13,0,0,1-.87-.6,1.51,1.51,0,0,0-2.49.66,2.07,2.07,0,0,1-.45,1,1.51,1.51,0,0,0-.35,1.6,1.09,1.09,0,0,0,.87.62c.71,0,1.27-.54,1.93-.71"/><path class="cls-2" d="M178.41,16.79c-.24-.3-.59-.53-1-.28a1.48,1.48,0,0,0-.63,1,1.33,1.33,0,0,0,1,1.55,1,1,0,0,0,.8-.32,1.41,1.41,0,0,0,0-1.54A2.33,2.33,0,0,0,178.41,16.79Z"/><path class="cls-2" d="M179.33,16.55c.06-.39.25-.76.7-.73a1.53,1.53,0,0,1,1.05.55,1.33,1.33,0,0,1-.11,1.84,1,1,0,0,1-.85.12,1.4,1.4,0,0,1-.81-1.3A2,2,0,0,1,179.33,16.55Z"/><path class="cls-2" d="M182.07,17.64c.2-.34.52-.61.93-.41a1.51,1.51,0,0,1,.76.9,1.33,1.33,0,0,1-.8,1.67,1,1,0,0,1-.83-.21,1.39,1.39,0,0,1-.26-1.52A2.07,2.07,0,0,1,182.07,17.64Z"/><path class="cls-2" d="M176.58,19.11c-.34-.19-.75-.27-1,.11a1.53,1.53,0,0,0-.2,1.16,1.33,1.33,0,0,0,1.52,1.05,1,1,0,0,0,.62-.6,1.4,1.4,0,0,0-.54-1.44A2,2,0,0,0,176.58,19.11Z"/><path class="cls-2" d="M52.66,39.89a9,9,0,0,1-1.28.42c-.36.09-.25,0,.07-.5A17.51,17.51,0,0,0,54.2,29.55c-.24-3.48-2.15-8.74-7.33-10.74-.25-.1-.54,0-.17.32,1,.77,1.18,1.57.91,1.44s-.64-.84-1.42-1.21a12.49,12.49,0,0,0-5.44-1.26c-2.7,0-4.33.69-3.53,1s5.94.6,8.16,9.61S38.3,43,34.27,44.09a1.34,1.34,0,0,0-.86,1.38A1.55,1.55,0,0,0,35,46.79C49,46.46,54.78,39,52.66,39.89Z"/><path class="cls-2" d="M27.16,35a2.39,2.39,0,0,1,.72-1.66c3.75-3.53,8.66-6.77,13.05-5.2a7.78,7.78,0,0,1,1.66.81h0c.43.31.92.39.8-.22a12.44,12.44,0,0,0-3.14-6,4.29,4.29,0,0,0-2-.62,13.65,13.65,0,0,0-6,1.43h0c-.21.09-.36,0-.35-.18h0a2.73,2.73,0,0,0-.52-1.66,2.76,2.76,0,0,0-2.1-1.14s0,0,0,0c-.17,0-.32-.2-.26-.5.4-1.87.71-3,.72-3.06a2.81,2.81,0,1,0-5.42-1.52c-.07.23-.68,2.48-1.32,5.87h0a.82.82,0,0,1-.62.74h0l-2.49.6a2.82,2.82,0,1,0,1.32,5.48l.23-.06h0c.42-.1.51.12.51.45h0c0,.23-.05.47-.07.7h0a3.83,3.83,0,0,1-.44,1.08L17,37.3a2.81,2.81,0,0,0,4.21,3.63h0l0,0h0c.15-.12.37-.21.41.23,0,0,0,0,0,0,.1,1.11.22,2.22.4,3.33a2.82,2.82,0,0,0,2.78,2.38,3.42,3.42,0,0,0,.44,0,2.81,2.81,0,0,0,2.34-3.22A49.14,49.14,0,0,1,27.16,35Z"/><path class="cls-2" d="M84.65,31.47a2.83,2.83,0,0,0-2.93,2.71c-.09,2.57-1.15,7.14-2.92,7.14-.94,0-1.19-.26-2-2.44S75,33.36,70.91,32.74a5.78,5.78,0,0,0-2.43.15h0c-.23,0-.33-.13-.27-.37a34.27,34.27,0,0,1,4.39-8.29,2.82,2.82,0,0,0-4.52-3.37c-7,9.41-8.42,22.44-8.47,23a.85.85,0,0,0,0,.16,1.6,1.6,0,0,0,0,.31,1.09,1.09,0,0,0,0,.26,2.56,2.56,0,0,0,.05.27,1.43,1.43,0,0,0,.09.27,2.44,2.44,0,0,0,.1.24c0,.08.08.16.13.24a1.7,1.7,0,0,0,.15.22l.17.21a1.7,1.7,0,0,0,.19.19l.22.18.21.14a2.49,2.49,0,0,0,.28.15l.14.07.09,0c.09,0,.19.06.28.09l.29.05.09,0,.29,0h0l.23,0c.1,0,.21,0,.31,0l.2-.06.3-.1.2-.1.26-.14a1.33,1.33,0,0,0,.19-.14l.22-.18L64.5,46l.18-.23.13-.2a2.44,2.44,0,0,0,.14-.28l.06-.11c1.52-3.81,4.11-7,5-6.87.52.08.74.28,1.44,2.36S73.62,47,78.8,47c6.38,0,8.38-7.9,8.56-12.56A2.83,2.83,0,0,0,84.65,31.47Z"/><path class="cls-2" d="M117,28.44H93.88a2.56,2.56,0,1,0,0,5.12h8.74c.28,0,.86.3.7,1.13-1.27,6.8-6,7.52-6.59,7.58a2.56,2.56,0,0,0,.21,5.12h.19c3.6-.27,10.07-3.35,11.39-12.8h0c.07-.48.44-1,.92-1H117a2.56,2.56,0,0,0,0-5.12Z"/><path class="cls-2" d="M144.75,21a2.57,2.57,0,0,0-3.47,1c-.05.1-5.44,9.77-16.52,12.11a2.56,2.56,0,0,0,.53,5.07,2.39,2.39,0,0,0,.53-.06,28.57,28.57,0,0,0,8.79-3.45h0c.3-.18.56-.05.56.36v8.73a2.56,2.56,0,0,0,5.12,0V32.15a1.36,1.36,0,0,1,.41-1.14h0a30.48,30.48,0,0,0,5.08-6.5A2.56,2.56,0,0,0,144.75,21Z"/><path class="cls-2" d="M167.63,36.48h0a.54.54,0,0,1-.12-.85h0a33.29,33.29,0,0,0,5-10.78,2.56,2.56,0,0,0-2.5-3.12H154.27a2.56,2.56,0,0,0,0,5.12H165.7c.53,0,.71.15.51.65-1.9,4.41-6.21,11.43-15,14a2.56,2.56,0,0,0,1.42,4.92,26.52,26.52,0,0,0,10.45-5.79h0a1.07,1.07,0,0,1,1.12-.23,47.74,47.74,0,0,1,7,5.6,2.56,2.56,0,1,0,3.6-3.64A52.93,52.93,0,0,0,167.63,36.48Z"/><path class="cls-2" d="M40.09,59.07a2.81,2.81,0,0,0-3.65,1.59c-.25.63-5.95,15.48.09,28a2.81,2.81,0,0,0,2.53,1.6,2.71,2.71,0,0,0,1.23-.29,2.81,2.81,0,0,0,1.31-3.76c-4.94-10.23,0-23.29.09-23.46A2.82,2.82,0,0,0,40.09,59.07Z"/><path class="cls-2" d="M49.45,68.43a2.77,2.77,0,0,0,1-.18,28.29,28.29,0,0,1,9.21-.71A2.82,2.82,0,1,0,61,62.08c-2.83-.73-9.91-.09-12.56.89a2.82,2.82,0,0,0,1,5.46Z"/><path class="cls-2" d="M64.7,82.6A2.83,2.83,0,0,0,61,81.21a11.42,11.42,0,0,1-11.8-.93,2.82,2.82,0,1,0-3,4.74,17,17,0,0,0,17.19,1.32A2.82,2.82,0,0,0,64.7,82.6Z"/><path class="cls-2" d="M154.92,59.48c.66-.18,1.43,0,2-.35a1.09,1.09,0,0,0,.44-1,1.49,1.49,0,0,0-1.1-1.21,2.06,2.06,0,0,1-.87-.6,1.51,1.51,0,0,0-2.49.66,2.07,2.07,0,0,1-.45,1,1.5,1.5,0,0,0-.35,1.6,1.09,1.09,0,0,0,.86.62c.71,0,1.28-.54,1.93-.71"/><path class="cls-2" d="M152.81,53.48c-.25-.3-.59-.53-1-.28a1.56,1.56,0,0,0-.63,1,1.35,1.35,0,0,0,1,1.55,1,1,0,0,0,.8-.32,1.41,1.41,0,0,0,0-1.54A2.33,2.33,0,0,0,152.81,53.48Z"/><path class="cls-2" d="M153.73,53.24c.06-.39.25-.76.7-.73a1.53,1.53,0,0,1,1,.55,1.33,1.33,0,0,1-.11,1.84,1,1,0,0,1-.85.12,1.37,1.37,0,0,1-.81-1.3A2,2,0,0,1,153.73,53.24Z"/><path class="cls-2" d="M156.47,54.33c.2-.34.52-.61.93-.41a1.51,1.51,0,0,1,.76.9,1.33,1.33,0,0,1-.8,1.67,1,1,0,0,1-.83-.21,1.39,1.39,0,0,1-.26-1.52A2.07,2.07,0,0,1,156.47,54.33Z"/><path class="cls-2" d="M151,55.8c-.35-.19-.75-.27-1,.11a1.49,1.49,0,0,0-.2,1.16,1.33,1.33,0,0,0,1.52,1,1,1,0,0,0,.62-.6,1.4,1.4,0,0,0-.54-1.44A2,2,0,0,0,151,55.8Z"/><path class="cls-2" d="M164.67,64.48c.65-.18,1.42,0,2-.35a1.09,1.09,0,0,0,.44-1A1.49,1.49,0,0,0,166,62a2.13,2.13,0,0,1-.87-.6,1.51,1.51,0,0,0-2.49.66,2.07,2.07,0,0,1-.45,1,1.5,1.5,0,0,0-.35,1.6,1.09,1.09,0,0,0,.87.62c.7,0,1.27-.54,1.93-.71"/><path class="cls-2" d="M162.55,58.48c-.24-.3-.59-.53-1-.28a1.53,1.53,0,0,0-.64,1,1.35,1.35,0,0,0,1,1.55,1,1,0,0,0,.8-.32,1.41,1.41,0,0,0,.05-1.54A2.33,2.33,0,0,0,162.55,58.48Z"/><path class="cls-2" d="M163.47,58.24c.06-.39.25-.76.7-.73a1.53,1.53,0,0,1,1.05.55,1.33,1.33,0,0,1-.11,1.84,1,1,0,0,1-.85.12,1.4,1.4,0,0,1-.81-1.3A2,2,0,0,1,163.47,58.24Z"/><path class="cls-2" d="M166.21,59.33c.2-.34.52-.61.93-.41a1.51,1.51,0,0,1,.76.9,1.33,1.33,0,0,1-.8,1.67,1,1,0,0,1-.83-.21,1.39,1.39,0,0,1-.26-1.52A2.07,2.07,0,0,1,166.21,59.33Z"/><path class="cls-2" d="M160.72,60.8c-.34-.19-.75-.27-1,.11a1.53,1.53,0,0,0-.2,1.16,1.33,1.33,0,0,0,1.52,1,1,1,0,0,0,.62-.6,1.4,1.4,0,0,0-.54-1.44A2,2,0,0,0,160.72,60.8Z"/><path class="cls-2" d="M212.6,60.54c.65-.18,1.42,0,2-.35a1.07,1.07,0,0,0,.44-1A1.49,1.49,0,0,0,214,58a2.06,2.06,0,0,1-.87-.6,1.52,1.52,0,0,0-2.49.67,2,2,0,0,1-.45,1,1.5,1.5,0,0,0-.35,1.6,1.09,1.09,0,0,0,.86.62c.71,0,1.28-.53,1.94-.71"/><path class="cls-2" d="M210.48,54.55c-.25-.31-.59-.53-1-.28a1.51,1.51,0,0,0-.64,1,1.34,1.34,0,0,0,1,1.54,1,1,0,0,0,.8-.32,1.41,1.41,0,0,0,.05-1.54A2.27,2.27,0,0,0,210.48,54.55Z"/><path class="cls-2" d="M211.4,54.3c.06-.39.25-.75.7-.73a1.53,1.53,0,0,1,1.05.55A1.34,1.34,0,0,1,213,56a1,1,0,0,1-.85.12,1.39,1.39,0,0,1-.81-1.31A2,2,0,0,1,211.4,54.3Z"/><path class="cls-2" d="M214.14,55.39c.2-.34.52-.6.93-.41a1.56,1.56,0,0,1,.76.91,1.32,1.32,0,0,1-.8,1.66.93.93,0,0,1-.83-.21,1.38,1.38,0,0,1-.26-1.51A2.14,2.14,0,0,1,214.14,55.39Z"/><path class="cls-2" d="M208.65,56.86c-.35-.19-.75-.26-1,.11a1.5,1.5,0,0,0-.2,1.17,1.33,1.33,0,0,0,1.52,1,1,1,0,0,0,.62-.6,1.4,1.4,0,0,0-.54-1.44A2,2,0,0,0,208.65,56.86Z"/><path class="cls-2" d="M222.34,65.54c.65-.18,1.42,0,2-.35a1.07,1.07,0,0,0,.44-1A1.49,1.49,0,0,0,223.7,63a2.13,2.13,0,0,1-.87-.6,1.52,1.52,0,0,0-2.49.67,2,2,0,0,1-.45,1,1.5,1.5,0,0,0-.35,1.6,1.09,1.09,0,0,0,.87.62c.7,0,1.27-.53,1.93-.71"/><path class="cls-2" d="M220.22,59.55c-.24-.31-.59-.53-1-.28a1.46,1.46,0,0,0-.63,1,1.32,1.32,0,0,0,1,1.54,1,1,0,0,0,.8-.32,1.41,1.41,0,0,0,0-1.54A2.27,2.27,0,0,0,220.22,59.55Z"/><path class="cls-2" d="M221.14,59.3c.06-.39.25-.75.7-.73a1.53,1.53,0,0,1,1,.55,1.34,1.34,0,0,1-.11,1.85,1,1,0,0,1-.85.12,1.42,1.42,0,0,1-.81-1.31A2,2,0,0,1,221.14,59.3Z"/><path class="cls-2" d="M223.88,60.39c.2-.34.52-.6.93-.41a1.56,1.56,0,0,1,.76.91,1.34,1.34,0,0,1-.8,1.67,1,1,0,0,1-.83-.22,1.38,1.38,0,0,1-.26-1.51A2.14,2.14,0,0,1,223.88,60.39Z"/><path class="cls-2" d="M218.39,61.86a.71.71,0,0,0-1,.11,1.55,1.55,0,0,0-.2,1.17,1.33,1.33,0,0,0,1.52,1,1,1,0,0,0,.62-.6,1.4,1.4,0,0,0-.54-1.44A2,2,0,0,0,218.39,61.86Z"/><path class="cls-2" d="M123.22,57.67l.06.32c.8.72,5.62,1,5.45-1.45a1.77,1.77,0,0,0,0-.2,14.63,14.63,0,0,0-4.35-7.13,2.82,2.82,0,0,0-3.68,4.27A9.27,9.27,0,0,1,123.22,57.67Z"/><path class="cls-2" d="M128.75,66.12a50.05,50.05,0,0,0,.35-5.24c-.53,1.93-5,1.52-5.65.82-.06,1.55-.22,3.37-.48,5.29C123.83,67.81,128.54,68.62,128.75,66.12Z"/><path class="cls-2" d="M126.9,76.06c.47-1.78.89-3.72,1.23-5.68-.62,1.62-4.8,1.21-5.72,0-.34,1.78-.77,3.57-1.26,5.29C122,76.68,126.08,78.24,126.9,76.06Z"/><path class="cls-2" d="M120,79.1c-1.17,2.72-3,5.49-4.63,5.49-.94,0-1.13,0-2-2.45-.69-2.06-1.86-5.52-5.94-6.13a6,6,0,0,0-2.43.14h0c-.24.06-.34-.13-.27-.37a34.39,34.39,0,0,1,4.39-8.28,2.82,2.82,0,0,0-4.52-3.37c-7,9.4-8.42,22.44-8.48,23a.86.86,0,0,1,0,.16v.31a2.34,2.34,0,0,0,0,.26,2.37,2.37,0,0,0,.13.53c0,.08.07.17.11.25l.13.23a1.14,1.14,0,0,0,.15.23l.16.2a2,2,0,0,0,.21.2l.2.17.23.16.25.13a1.19,1.19,0,0,1,.16.08l.1,0,.23.06a1.94,1.94,0,0,0,.33.07l.09,0H99a2.81,2.81,0,0,0,.49,0l.12,0a2.19,2.19,0,0,0,.34-.1l.13,0a1.91,1.91,0,0,0,.32-.16l.1,0a2.89,2.89,0,0,0,.71-.64l.06-.08a3.28,3.28,0,0,0,.2-.31l.07-.16a1.09,1.09,0,0,0,.08-.15c1.47-3.71,4.07-7,5.05-6.87.51.08.74.28,1.44,2.36s2.12,6.29,7.3,6.29c5.87,0,9.13-7,10.35-10.27C124.51,81.45,120.91,80.35,120,79.1Z"/><path class="cls-2" d="M91.71,74.7a6.51,6.51,0,0,0-3.43-4A7.69,7.69,0,0,0,85.84,70h0a.55.55,0,0,1-.54-.68l.15-1.74a2.56,2.56,0,1,0-5.11-.43L80,70.77h0a1.07,1.07,0,0,1-.58.83h0l-1.61.85h0a.61.61,0,0,1-.93-.27h0l-1.26-2.58a2.63,2.63,0,0,0-4.72,2.3l1.4,2.88h0c.16.32.22.61-.33.92h0l-1.34.77A2.63,2.63,0,0,0,73.26,81l1-.6a.56.56,0,0,1,.87.24h0l3.52,7.23a2.63,2.63,0,0,0,4.72-2.3L79.72,78h0a.49.49,0,0,1,.19-.72c1.66-.91,3.09-1.65,3.73-1.9a3.15,3.15,0,0,1,2.36,0,1.2,1.2,0,0,1,.68.79c.19.65-1.16,1.55-1.4,1.67a2.63,2.63,0,0,0,1.2,5,2.55,2.55,0,0,0,1.19-.29C89.59,81.58,92.9,78.68,91.71,74.7Z"/><path class="cls-2" d="M140.39,68.48h13.75a2.57,2.57,0,0,0,0-5.13H140.39a2.57,2.57,0,0,0,0,5.13Z"/><path class="cls-2" d="M158.85,72.34H135.69a2.57,2.57,0,1,0,0,5.13h8.74c.28,0,.86.29.7,1.13-1.27,6.8-6,7.51-6.59,7.58a2.56,2.56,0,0,0,.21,5.11h.19c3.6-.27,10.07-3.36,11.39-12.8h0c.07-.48.44-1,.92-1h7.6a2.57,2.57,0,0,0,0-5.13Z"/><path class="cls-2" d="M186.56,63.79a2.57,2.57,0,0,0-3.47,1c-.05.1-5.44,9.77-16.52,12.11A2.56,2.56,0,0,0,167.1,82a3.17,3.17,0,0,0,.53,0,28.83,28.83,0,0,0,8.79-3.46h0c.3-.19.56-.06.56.35v8.73a2.56,2.56,0,0,0,5.12,0V74.9a1.36,1.36,0,0,1,.41-1.14h0a30.39,30.39,0,0,0,5.08-6.51A2.56,2.56,0,0,0,186.56,63.79Z"/><path class="cls-2" d="M216.62,85.07a53.78,53.78,0,0,0-7.18-5.84h0a.54.54,0,0,1-.12-.85h0a33.29,33.29,0,0,0,5-10.78,2.58,2.58,0,0,0-.5-2.16,2.56,2.56,0,0,0-2-1H196.08a2.56,2.56,0,1,0,0,5.12h11.43c.53,0,.71.15.51.65-1.9,4.42-6.21,11.43-15,14a2.56,2.56,0,0,0,.7,5,2.44,2.44,0,0,0,.71-.1,26.37,26.37,0,0,0,10.46-5.79h0a1.07,1.07,0,0,1,1.12-.22,47.74,47.74,0,0,1,7,5.6,2.56,2.56,0,0,0,3.6-3.65Z"/></g></g></svg>