<svg xmlns="http://www.w3.org/2000/svg" viewBox="0 0 233.3 105.3"><defs><style>.cls-1{fill:#fff;}.cls-2{fill:#1da23a;}</style></defs><title>アセット 4</title><g id="レイヤー_2" data-name="レイヤー 2"><g id="レイヤー_1-2" data-name="レイヤー 1"><rect class="cls-1" width="233.3" height="105.3"/><rect class="cls-1" width="233.3" height="105.3"/><path class="cls-2" d="M94.06,28.08h13.75a2.56,2.56,0,1,0,0-5.12H94.06a2.56,2.56,0,0,0,0,5.12Z"/><circle class="cls-2" cx="185.59" cy="37.88" r="3.55"/><path class="cls-2" d="M108.62,19.08c.66-.17,1.43,0,2-.34a1.11,1.11,0,0,0,.44-1A1.51,1.51,0,0,0,110,16.55a2,2,0,0,1-.86-.6,1.52,1.52,0,0,0-2.49.67,2,2,0,0,1-.45.95,1.5,1.5,0,0,0-.35,1.61,1.11,1.11,0,0,0,.86.62c.71,0,1.28-.54,1.93-.72"/><path class="cls-2" d="M106.48,13.09c-.25-.31-.59-.53-1-.28a1.53,1.53,0,0,0-.63,1,1.34,1.34,0,0,0,1,1.54.94.94,0,0,0,.79-.32,1.41,1.41,0,0,0,.06-1.54A2.27,2.27,0,0,0,106.48,13.09Z"/><path class="cls-2" d="M107.4,12.84c.06-.39.25-.75.7-.73a1.53,1.53,0,0,1,1.05.55,1.34,1.34,0,0,1-.11,1.85,1,1,0,0,1-.85.12,1.38,1.38,0,0,1-.81-1.31A2,2,0,0,1,107.4,12.84Z"/><path class="cls-2" d="M110.14,13.93c.2-.34.52-.6.93-.41a1.56,1.56,0,0,1,.76.91,1.35,1.35,0,0,1-.8,1.67,1,1,0,0,1-.83-.22,1.38,1.38,0,0,1-.26-1.51A2.14,2.14,0,0,1,110.14,13.93Z"/><path class="cls-2" d="M104.65,15.4c-.35-.19-.75-.26-1,.11a1.55,1.55,0,0,0-.21,1.17,1.33,1.33,0,0,0,1.53,1,1,1,0,0,0,.62-.6,1.41,1.41,0,0,0-.54-1.44A2.28,2.28,0,0,0,104.65,15.4Z"/><path class="cls-2" d="M118.34,24.08c.65-.18,1.42,0,2-.35a1.07,1.07,0,0,0,.44-1,1.5,1.5,0,0,0-1.1-1.21,2.06,2.06,0,0,1-.87-.6,1.52,1.52,0,0,0-2.49.67,2,2,0,0,1-.45.95,1.5,1.5,0,0,0-.35,1.6,1.09,1.09,0,0,0,.86.62c.71,0,1.28-.53,1.94-.71"/><path class="cls-2" d="M116.22,18.09c-.25-.31-.59-.53-1-.28a1.53,1.53,0,0,0-.64,1,1.34,1.34,0,0,0,1,1.54,1,1,0,0,0,.8-.32,1.41,1.41,0,0,0,0-1.54A2.27,2.27,0,0,0,116.22,18.09Z"/><path class="cls-2" d="M117.14,17.84c.06-.39.25-.75.7-.73a1.53,1.53,0,0,1,1,.55,1.34,1.34,0,0,1-.11,1.85,1,1,0,0,1-.85.12,1.38,1.38,0,0,1-.81-1.31A2,2,0,0,1,117.14,17.84Z"/><path class="cls-2" d="M119.88,18.93c.2-.34.52-.6.93-.41a1.56,1.56,0,0,1,.76.91,1.34,1.34,0,0,1-.8,1.67,1,1,0,0,1-.83-.22,1.38,1.38,0,0,1-.26-1.51A2.14,2.14,0,0,1,119.88,18.93Z"/><path class="cls-2" d="M114.39,20.4c-.35-.19-.75-.26-1,.11a1.5,1.5,0,0,0-.2,1.17,1.32,1.32,0,0,0,1.52,1,1,1,0,0,0,.62-.6,1.41,1.41,0,0,0-.54-1.44A2,2,0,0,0,114.39,20.4Z"/><path class="cls-2" d="M166.26,21.3c.66-.18,1.43,0,2-.35a1.09,1.09,0,0,0,.44-1,1.49,1.49,0,0,0-1.1-1.21,2.06,2.06,0,0,1-.87-.6,1.51,1.51,0,0,0-2.49.66,2.07,2.07,0,0,1-.45,1,1.48,1.48,0,0,0-.35,1.6,1.09,1.09,0,0,0,.86.62c.71,0,1.28-.54,1.93-.71"/><path class="cls-2" d="M164.15,15.3c-.25-.3-.59-.53-1-.28a1.56,1.56,0,0,0-.63,1,1.35,1.35,0,0,0,1,1.55,1,1,0,0,0,.8-.32,1.41,1.41,0,0,0,0-1.54A2.33,2.33,0,0,0,164.15,15.3Z"/><path class="cls-2" d="M165.07,15.06c.06-.39.25-.76.7-.73a1.53,1.53,0,0,1,1,.55,1.33,1.33,0,0,1-.11,1.84,1,1,0,0,1-.85.12,1.37,1.37,0,0,1-.81-1.3A2,2,0,0,1,165.07,15.06Z"/><path class="cls-2" d="M167.81,16.15c.2-.34.52-.61.93-.41a1.51,1.51,0,0,1,.76.9,1.33,1.33,0,0,1-.8,1.67,1,1,0,0,1-.83-.21,1.39,1.39,0,0,1-.26-1.52A2.07,2.07,0,0,1,167.81,16.15Z"/><path class="cls-2" d="M162.32,17.62c-.35-.19-.75-.27-1,.11a1.49,1.49,0,0,0-.2,1.16,1.33,1.33,0,0,0,1.52,1.05,1,1,0,0,0,.62-.6,1.4,1.4,0,0,0-.54-1.44A2,2,0,0,0,162.32,17.62Z"/><path class="cls-2" d="M176,26.3c.65-.18,1.42,0,2-.35a1.09,1.09,0,0,0,.44-1,1.49,1.49,0,0,0-1.1-1.21,2.13,2.13,0,0,1-.87-.6,1.51,1.51,0,0,0-2.49.66,2.07,2.07,0,0,1-.45,1,1.5,1.5,0,0,0-.35,1.6,1.09,1.09,0,0,0,.87.62c.7,0,1.27-.54,1.93-.71"/><path class="cls-2" d="M173.89,20.3c-.24-.3-.59-.53-1-.28a1.53,1.53,0,0,0-.64,1,1.35,1.35,0,0,0,1,1.55,1,1,0,0,0,.8-.32,1.41,1.41,0,0,0,.05-1.54A2.33,2.33,0,0,0,173.89,20.3Z"/><path class="cls-2" d="M174.81,20.06c.06-.39.25-.76.7-.73a1.53,1.53,0,0,1,1.05.55,1.33,1.33,0,0,1-.11,1.84,1,1,0,0,1-.85.12,1.38,1.38,0,0,1-.81-1.3A2,2,0,0,1,174.81,20.06Z"/><path class="cls-2" d="M177.55,21.15c.2-.34.52-.61.93-.41a1.51,1.51,0,0,1,.76.9,1.33,1.33,0,0,1-.8,1.67,1,1,0,0,1-.83-.21,1.39,1.39,0,0,1-.26-1.52A2.07,2.07,0,0,1,177.55,21.15Z"/><path class="cls-2" d="M172.06,22.62c-.35-.19-.75-.27-1,.11a1.49,1.49,0,0,0-.2,1.16,1.33,1.33,0,0,0,1.52,1.05,1,1,0,0,0,.62-.6,1.4,1.4,0,0,0-.54-1.44A2,2,0,0,0,172.06,22.62Z"/><path class="cls-2" d="M48.13,43.4a8.52,8.52,0,0,1-1.27.42c-.36.09-.25,0,.07-.5a17.51,17.51,0,0,0,2.74-10.26c-.24-3.48-2.14-8.75-7.32-10.74-.25-.1-.54,0-.17.32,1,.77,1.18,1.57.91,1.44s-.64-.84-1.42-1.21a12.49,12.49,0,0,0-5.44-1.26c-2.7,0-4.33.69-3.53,1s5.94.59,8.16,9.61S33.78,46.46,29.75,47.6A1.34,1.34,0,0,0,28.89,49a1.55,1.55,0,0,0,1.6,1.32C44.48,50,50.26,42.49,48.13,43.4Z"/><path class="cls-2" d="M22.64,38.49a2.35,2.35,0,0,1,.72-1.66c3.75-3.53,8.66-6.77,13-5.2a7.78,7.78,0,0,1,1.66.81h0c.43.31.92.39.8-.22a12.48,12.48,0,0,0-3.14-6,4.33,4.33,0,0,0-2-.62,13.65,13.65,0,0,0-6,1.43h0c-.21.09-.36,0-.35-.18h0a2.71,2.71,0,0,0-.52-1.66,2.77,2.77,0,0,0-2.11-1.14,0,0,0,0,0,0,0c-.16,0-.32-.2-.25-.5.4-1.87.71-3,.72-3.06A2.81,2.81,0,1,0,19.76,19c-.07.23-.68,2.48-1.32,5.87h0a.82.82,0,0,1-.62.74h0l-2.49.6a2.82,2.82,0,1,0,1.32,5.48l.23-.06h0c.42-.1.51.12.51.45h0c0,.23-.05.47-.07.7h0a4.17,4.17,0,0,1-.44,1.08l-4.36,7a2.81,2.81,0,0,0,4.21,3.63h0l0,0h0c.16-.12.38-.21.42.23,0,0,0,0,0,0,.1,1.12.22,2.23.4,3.34a2.81,2.81,0,0,0,2.78,2.37l.44,0a2.81,2.81,0,0,0,2.34-3.22A49.14,49.14,0,0,1,22.64,38.49Z"/><path class="cls-2" d="M80.13,35a2.83,2.83,0,0,0-2.93,2.71c-.09,2.56-1.15,7.14-2.92,7.14-.94,0-1.19-.26-2-2.45s-1.86-5.51-5.94-6.13A5.8,5.8,0,0,0,64,36.4h0c-.24.05-.33-.13-.27-.37a34.27,34.27,0,0,1,4.39-8.29,2.82,2.82,0,0,0-4.52-3.37c-7,9.41-8.42,22.44-8.47,23a.85.85,0,0,0,0,.16c0,.11,0,.21,0,.31a2.34,2.34,0,0,0,0,.26,2.56,2.56,0,0,0,0,.27,1.43,1.43,0,0,0,.09.27,2.44,2.44,0,0,0,.1.24c0,.08.08.16.13.24a1.7,1.7,0,0,0,.15.22l.17.21c.06.06.12.13.19.19l.22.18.21.14a2.49,2.49,0,0,0,.28.15l.14.07.09,0a1.47,1.47,0,0,0,.28.08l.28.06.1,0,.29,0h0l.23,0c.1,0,.21,0,.31,0l.2-.06.3-.1.19-.1L59.4,50a1.33,1.33,0,0,0,.19-.14l.22-.19a1.29,1.29,0,0,0,.16-.17l.19-.23.12-.2a1.51,1.51,0,0,0,.15-.28l.06-.11c1.52-3.81,4.11-7,5.05-6.87.52.08.74.28,1.44,2.36s2.12,6.29,7.3,6.29c6.38,0,8.38-7.9,8.56-12.56A2.83,2.83,0,0,0,80.13,35Z"/><path class="cls-2" d="M112.52,32H89.35a2.56,2.56,0,1,0,0,5.12H98.1c.28,0,.86.3.7,1.13-1.27,6.8-6,7.52-6.59,7.58a2.56,2.56,0,0,0,.21,5.12h.19c3.6-.27,10.07-3.35,11.39-12.8h0c.07-.48.44-1,.92-1h7.6a2.56,2.56,0,1,0,0-5.12Z"/><path class="cls-2" d="M140.23,24.55a2.57,2.57,0,0,0-3.47,1c0,.09-5.44,9.77-16.52,12.11a2.56,2.56,0,0,0,.53,5.07,2.39,2.39,0,0,0,.53-.06,28.67,28.67,0,0,0,8.79-3.45h0c.31-.18.57,0,.57.36v8.73a2.56,2.56,0,0,0,5.12,0V35.66a1.39,1.39,0,0,1,.41-1.15h0a30.48,30.48,0,0,0,5.08-6.5A2.56,2.56,0,0,0,140.23,24.55Z"/><path class="cls-2" d="M163.1,40h0a.54.54,0,0,1-.12-.85h0a33.29,33.29,0,0,0,5-10.78,2.56,2.56,0,0,0-2.5-3.12H149.75a2.56,2.56,0,1,0,0,5.12h11.43c.53,0,.71.15.51.65-1.9,4.41-6.21,11.43-15,14a2.56,2.56,0,0,0,.7,5,2.44,2.44,0,0,0,.71-.1,26.49,26.49,0,0,0,10.46-5.79h0a1.07,1.07,0,0,1,1.12-.23,47.74,47.74,0,0,1,7,5.6,2.56,2.56,0,0,0,3.6-3.64A52.63,52.63,0,0,0,163.1,40Z"/><path class="cls-2" d="M35.57,62.58a2.81,2.81,0,0,0-3.65,1.59c-.25.63-6,15.48.08,28a2.83,2.83,0,0,0,2.54,1.6,2.74,2.74,0,0,0,1.23-.29,2.81,2.81,0,0,0,1.31-3.76c-4.94-10.23,0-23.29.09-23.46A2.82,2.82,0,0,0,35.57,62.58Z"/><path class="cls-2" d="M44.92,71.94a2.78,2.78,0,0,0,1-.18,28.29,28.29,0,0,1,9.21-.71,2.82,2.82,0,0,0,1.4-5.46c-2.83-.73-9.91-.09-12.56.89a2.82,2.82,0,0,0,1,5.46Z"/><path class="cls-2" d="M60.18,86.11a2.83,2.83,0,0,0-3.74-1.39,11.42,11.42,0,0,1-11.8-.93,2.82,2.82,0,1,0-3,4.74,17,17,0,0,0,17.19,1.32A2.83,2.83,0,0,0,60.18,86.11Z"/><path class="cls-2" d="M150.4,63c.66-.18,1.43,0,2-.35a1.11,1.11,0,0,0,.44-1,1.49,1.49,0,0,0-1.1-1.21,2.06,2.06,0,0,1-.87-.6,1.51,1.51,0,0,0-2.49.66,2.07,2.07,0,0,1-.45,1,1.48,1.48,0,0,0-.35,1.6,1.09,1.09,0,0,0,.86.62c.71,0,1.28-.54,1.93-.71"/><path class="cls-2" d="M148.29,57c-.25-.3-.59-.53-1-.28a1.56,1.56,0,0,0-.63,1,1.35,1.35,0,0,0,1,1.55,1,1,0,0,0,.79-.32,1.41,1.41,0,0,0,.06-1.54A3.1,3.1,0,0,0,148.29,57Z"/><path class="cls-2" d="M149.2,56.75c.07-.39.25-.76.71-.73a1.55,1.55,0,0,1,1.05.55,1.33,1.33,0,0,1-.11,1.84,1,1,0,0,1-.85.12,1.37,1.37,0,0,1-.81-1.3A2.58,2.58,0,0,1,149.2,56.75Z"/><path class="cls-2" d="M152,57.84c.2-.34.52-.61.93-.41a1.51,1.51,0,0,1,.76.9,1.34,1.34,0,0,1-.8,1.67,1,1,0,0,1-.83-.21,1.39,1.39,0,0,1-.26-1.52A2.07,2.07,0,0,1,152,57.84Z"/><path class="cls-2" d="M146.46,59.31c-.35-.19-.75-.27-1,.11a1.53,1.53,0,0,0-.21,1.16,1.35,1.35,0,0,0,1.53,1.05,1,1,0,0,0,.62-.6,1.42,1.42,0,0,0-.54-1.45A3,3,0,0,0,146.46,59.31Z"/><path class="cls-2" d="M160.14,68c.66-.18,1.43,0,2-.35a1.09,1.09,0,0,0,.44-1,1.49,1.49,0,0,0-1.1-1.21,2.06,2.06,0,0,1-.87-.6,1.51,1.51,0,0,0-2.49.66,2.07,2.07,0,0,1-.45,1,1.5,1.5,0,0,0-.35,1.6,1.09,1.09,0,0,0,.86.62c.71,0,1.28-.54,1.93-.71"/><path class="cls-2" d="M158,62c-.25-.3-.59-.53-1-.28a1.56,1.56,0,0,0-.63,1,1.35,1.35,0,0,0,1,1.55,1,1,0,0,0,.8-.32,1.41,1.41,0,0,0,0-1.54A2.33,2.33,0,0,0,158,62Z"/><path class="cls-2" d="M159,61.75c.06-.39.25-.76.7-.73a1.53,1.53,0,0,1,1,.55,1.33,1.33,0,0,1-.11,1.84,1,1,0,0,1-.85.12,1.37,1.37,0,0,1-.81-1.3A2,2,0,0,1,159,61.75Z"/><path class="cls-2" d="M161.69,62.84c.2-.34.52-.61.93-.41a1.51,1.51,0,0,1,.76.9,1.33,1.33,0,0,1-.8,1.67,1,1,0,0,1-.83-.21,1.39,1.39,0,0,1-.26-1.52A2.07,2.07,0,0,1,161.69,62.84Z"/><path class="cls-2" d="M156.2,64.31c-.35-.19-.75-.27-1,.11a1.49,1.49,0,0,0-.2,1.16,1.33,1.33,0,0,0,1.52,1,1,1,0,0,0,.62-.6,1.42,1.42,0,0,0-.54-1.45A2.42,2.42,0,0,0,156.2,64.31Z"/><path class="cls-2" d="M208.07,64.05c.66-.18,1.43,0,2-.35a1.09,1.09,0,0,0,.44-1,1.49,1.49,0,0,0-1.1-1.21,2.06,2.06,0,0,1-.87-.6,1.33,1.33,0,0,0-1.43-.36,1.31,1.31,0,0,0-1.06,1,2,2,0,0,1-.45.95,1.48,1.48,0,0,0-.35,1.6,1.09,1.09,0,0,0,.86.62c.71,0,1.28-.54,1.93-.71"/><path class="cls-2" d="M206,58.06c-.25-.31-.59-.53-1-.28a1.53,1.53,0,0,0-.63,1,1.34,1.34,0,0,0,1,1.54.94.94,0,0,0,.79-.32,1.41,1.41,0,0,0,.06-1.54A2.27,2.27,0,0,0,206,58.06Z"/><path class="cls-2" d="M206.88,57.81c.06-.39.24-.75.7-.73a1.53,1.53,0,0,1,1,.55,1.34,1.34,0,0,1-.11,1.85,1,1,0,0,1-.85.12,1.39,1.39,0,0,1-.81-1.31A2,2,0,0,1,206.88,57.81Z"/><path class="cls-2" d="M209.62,58.9c.2-.34.52-.6.93-.41a1.56,1.56,0,0,1,.76.91,1.33,1.33,0,0,1-.8,1.66.93.93,0,0,1-.83-.21,1.38,1.38,0,0,1-.26-1.51A2.14,2.14,0,0,1,209.62,58.9Z"/><path class="cls-2" d="M204.13,60.37c-.35-.19-.75-.26-1,.11a1.55,1.55,0,0,0-.21,1.17,1.34,1.34,0,0,0,1.53,1,1,1,0,0,0,.62-.6,1.4,1.4,0,0,0-.54-1.44A2.28,2.28,0,0,0,204.13,60.37Z"/><path class="cls-2" d="M217.82,69.05c.65-.18,1.42,0,2-.35a1.07,1.07,0,0,0,.44-1,1.49,1.49,0,0,0-1.1-1.21,2.06,2.06,0,0,1-.87-.6,1.52,1.52,0,0,0-2.49.67,2,2,0,0,1-.45,1,1.5,1.5,0,0,0-.35,1.6,1.09,1.09,0,0,0,.86.62c.71,0,1.28-.54,1.94-.71"/><path class="cls-2" d="M215.7,63.06c-.25-.31-.59-.53-1-.28a1.51,1.51,0,0,0-.64,1,1.34,1.34,0,0,0,1,1.54,1,1,0,0,0,.8-.32,1.41,1.41,0,0,0,.05-1.54A2.27,2.27,0,0,0,215.7,63.06Z"/><path class="cls-2" d="M216.62,62.81c.06-.39.25-.75.7-.73a1.53,1.53,0,0,1,1.05.55,1.34,1.34,0,0,1-.11,1.85,1,1,0,0,1-.85.12,1.39,1.39,0,0,1-.81-1.31A2,2,0,0,1,216.62,62.81Z"/><path class="cls-2" d="M219.36,63.9c.2-.34.52-.6.93-.41a1.56,1.56,0,0,1,.76.91,1.32,1.32,0,0,1-.8,1.66.93.93,0,0,1-.83-.21,1.38,1.38,0,0,1-.26-1.51A2.14,2.14,0,0,1,219.36,63.9Z"/><path class="cls-2" d="M213.87,65.37c-.35-.19-.75-.26-1,.11a1.5,1.5,0,0,0-.2,1.17,1.33,1.33,0,0,0,1.52,1,1,1,0,0,0,.62-.6,1.4,1.4,0,0,0-.54-1.44A2,2,0,0,0,213.87,65.37Z"/><path class="cls-2" d="M118.7,61.18l.06.32c.8.72,5.62,1,5.45-1.45a1.42,1.42,0,0,0,0-.2,14.71,14.71,0,0,0-4.35-7.13A2.82,2.82,0,0,0,116.14,57,9.27,9.27,0,0,1,118.7,61.18Z"/><path class="cls-2" d="M124.23,69.63a50.05,50.05,0,0,0,.35-5.24c-.53,1.93-5,1.52-5.66.82,0,1.55-.21,3.37-.47,5.29C119.31,71.32,124,72.13,124.23,69.63Z"/><path class="cls-2" d="M122.37,79.57c.47-1.78.9-3.72,1.24-5.68-.62,1.62-4.8,1.21-5.73,0-.34,1.78-.76,3.57-1.25,5.29C117.42,80.19,121.56,81.75,122.37,79.57Z"/><path class="cls-2" d="M115.47,82.61c-1.18,2.72-3,5.49-4.63,5.49-.94,0-1.13,0-2-2.45-.69-2.06-1.86-5.52-5.94-6.13a6,6,0,0,0-2.43.14h0c-.24.06-.34-.13-.27-.37A34.39,34.39,0,0,1,104.62,71a2.82,2.82,0,0,0-4.52-3.37c-7,9.4-8.42,22.44-8.48,23a.86.86,0,0,1,0,.16v.31l0,.26.06.27a2.58,2.58,0,0,0,.08.26,2.72,2.72,0,0,0,.11.25,1.34,1.34,0,0,0,.13.23,1.14,1.14,0,0,0,.15.23l.16.2c.07.07.13.14.2.2l.21.17.23.16.25.13.16.08a.38.38,0,0,1,.1,0l.23.06.33.07.09,0h.29a2.61,2.61,0,0,0,.48,0l.13,0,.34-.1.13,0a3.18,3.18,0,0,0,.32-.16l.1,0a2.89,2.89,0,0,0,.71-.64l.06-.08a3.21,3.21,0,0,0,.19-.31,1.19,1.19,0,0,0,.08-.16s0-.1.08-.16c1.47-3.7,4.06-7,5-6.86.51.08.74.28,1.44,2.36s2.12,6.28,7.3,6.28c5.87,0,9.13-6.94,10.35-10.26C120,85,116.39,83.86,115.47,82.61Z"/><path class="cls-2" d="M87.18,78.21a6.44,6.44,0,0,0-3.42-4,7.69,7.69,0,0,0-2.44-.68h0a.55.55,0,0,1-.54-.68l.15-1.74a2.56,2.56,0,1,0-5.11-.43l-.3,3.62h0a1.07,1.07,0,0,1-.58.83h0L73.3,76h0a.61.61,0,0,1-.93-.27h0l-1.26-2.58a2.63,2.63,0,0,0-4.72,2.3l1.4,2.88h0c.16.32.22.61-.33.92h0L66.12,80a2.63,2.63,0,0,0,2.62,4.55l1-.6a.56.56,0,0,1,.87.24h0l3.52,7.23a2.62,2.62,0,0,0,2.36,1.48,2.63,2.63,0,0,0,2.36-3.78L75.2,81.53h0a.48.48,0,0,1,.19-.72c1.66-.91,3.09-1.65,3.73-1.9a3.15,3.15,0,0,1,2.36,0,1.16,1.16,0,0,1,.67.79c.2.65-1.15,1.55-1.39,1.67a2.63,2.63,0,0,0,1.2,5,2.55,2.55,0,0,0,1.19-.29C85.07,85.09,88.38,82.19,87.18,78.21Z"/><path class="cls-2" d="M135.87,72h13.75a2.57,2.57,0,0,0,0-5.13H135.87a2.57,2.57,0,0,0,0,5.13Z"/><path class="cls-2" d="M154.33,75.85H131.16a2.57,2.57,0,0,0,0,5.13h8.75c.28,0,.86.29.7,1.13-1.27,6.8-6,7.51-6.59,7.58a2.56,2.56,0,0,0,.21,5.11h.19c3.6-.27,10.07-3.36,11.39-12.8h0c.07-.48.44-1,.92-1h7.6a2.57,2.57,0,0,0,0-5.13Z"/><path class="cls-2" d="M182,67.3a2.57,2.57,0,0,0-3.47,1c0,.1-5.44,9.77-16.52,12.11a2.56,2.56,0,0,0,.53,5.07,3.17,3.17,0,0,0,.53-.05A28.93,28.93,0,0,0,171.9,82h0c.31-.19.57-.06.57.35v8.73a2.56,2.56,0,0,0,5.12,0V78.41a1.36,1.36,0,0,1,.41-1.14h0a30.39,30.39,0,0,0,5.08-6.51A2.56,2.56,0,0,0,182,67.3Z"/><path class="cls-2" d="M212.1,88.58a53.47,53.47,0,0,0-7.19-5.84h0a.54.54,0,0,1-.12-.85h0a33.29,33.29,0,0,0,5-10.78A2.56,2.56,0,0,0,207.3,68H191.56a2.56,2.56,0,1,0,0,5.12H203c.53,0,.71.15.51.65-1.9,4.42-6.21,11.43-15,14a2.56,2.56,0,0,0,.7,5,2.44,2.44,0,0,0,.71-.1,26.49,26.49,0,0,0,10.46-5.79h0a1.07,1.07,0,0,1,1.12-.22,48.77,48.77,0,0,1,7,5.59,2.54,2.54,0,0,0,1.8.75,2.57,2.57,0,0,0,1.8-4.39Z"/></g></g></svg>