<svg xmlns="http://www.w3.org/2000/svg" viewBox="0 0 146.4 43.4"><defs><style>.cls-1{fill:#fff;}.cls-2{fill:#1da23a;}</style></defs><title>アセット 11</title><g id="レイヤー_2" data-name="レイヤー 2"><g id="レイヤー_1-2" data-name="レイヤー 1"><rect class="cls-1" width="146.4" height="43.4"/><rect class="cls-1" width="146.4" height="43.4"/><path class="cls-2" d="M72.13,19h11a2,2,0,0,0,0-4.1h-11a2,2,0,1,0,0,4.1Z"/><path class="cls-2" d="M83.77,11.8c.53-.14,1.15,0,1.63-.28a.88.88,0,0,0,.35-.77,1.19,1.19,0,0,0-.89-1,1.69,1.69,0,0,1-.69-.48,1.21,1.21,0,0,0-2,.53,1.58,1.58,0,0,1-.36.76,1.22,1.22,0,0,0-.28,1.29.88.88,0,0,0,.69.49c.57,0,1-.43,1.54-.57"/><path class="cls-2" d="M82.06,7c-.2-.25-.47-.43-.78-.23a1.21,1.21,0,0,0-.5.8,1.07,1.07,0,0,0,.81,1.24.75.75,0,0,0,.63-.26,1.12,1.12,0,0,0,0-1.23A2.92,2.92,0,0,0,82.06,7Z"/><path class="cls-2" d="M82.79,6.81c0-.31.2-.6.57-.59a1.22,1.22,0,0,1,.83.44,1.06,1.06,0,0,1-.08,1.48.79.79,0,0,1-.68.1,1.12,1.12,0,0,1-.65-1A1.64,1.64,0,0,1,82.79,6.81Z"/><path class="cls-2" d="M85,7.68c.16-.27.41-.48.74-.33a1.23,1.23,0,0,1,.61.73,1.06,1.06,0,0,1-.64,1.33A.78.78,0,0,1,85,9.24,1.12,1.12,0,0,1,84.83,8,1.81,1.81,0,0,1,85,7.68Z"/><path class="cls-2" d="M80.6,8.86c-.28-.16-.6-.22-.81.08a1.25,1.25,0,0,0-.17.94,1.08,1.08,0,0,0,1.23.83.78.78,0,0,0,.49-.48,1.11,1.11,0,0,0-.43-1.15A1.73,1.73,0,0,0,80.6,8.86Z"/><path class="cls-2" d="M91.54,15.8c.53-.14,1.15,0,1.63-.28a.85.85,0,0,0,.35-.77,1.19,1.19,0,0,0-.88-1,1.66,1.66,0,0,1-.7-.48,1.2,1.2,0,0,0-2,.53,1.58,1.58,0,0,1-.36.76,1.21,1.21,0,0,0-.28,1.28.87.87,0,0,0,.69.5c.57,0,1-.43,1.54-.57"/><path class="cls-2" d="M89.85,11c-.19-.25-.47-.43-.78-.23a1.21,1.21,0,0,0-.5.8,1.07,1.07,0,0,0,.81,1.24.78.78,0,0,0,.64-.26,1.12,1.12,0,0,0,0-1.23A1.46,1.46,0,0,0,89.85,11Z"/><path class="cls-2" d="M90.59,10.81c0-.31.2-.6.56-.59a1.26,1.26,0,0,1,.84.44,1.07,1.07,0,0,1-.09,1.48.78.78,0,0,1-.68.1,1.12,1.12,0,0,1-.65-1.05A1.67,1.67,0,0,1,90.59,10.81Z"/><path class="cls-2" d="M92.78,11.68c.16-.27.41-.48.74-.33a1.2,1.2,0,0,1,.61.73,1.05,1.05,0,0,1-.64,1.33.75.75,0,0,1-.66-.17A1.12,1.12,0,0,1,92.62,12,1.81,1.81,0,0,1,92.78,11.68Z"/><path class="cls-2" d="M88.39,12.86c-.28-.16-.6-.22-.81.08a1.2,1.2,0,0,0-.16.94,1.06,1.06,0,0,0,1.22.83.76.76,0,0,0,.49-.48,1.11,1.11,0,0,0-.43-1.15A1.44,1.44,0,0,0,88.39,12.86Z"/><path class="cls-2" d="M129.89,13.57c.52-.14,1.14,0,1.62-.28a.85.85,0,0,0,.35-.77,1.19,1.19,0,0,0-.88-1,1.72,1.72,0,0,1-.7-.48,1.21,1.21,0,0,0-2,.53,1.58,1.58,0,0,1-.36.76,1.22,1.22,0,0,0-.28,1.29.88.88,0,0,0,.69.49c.57,0,1-.43,1.55-.57"/><path class="cls-2" d="M128.2,8.78c-.2-.25-.48-.43-.78-.23a1.26,1.26,0,0,0-.51.8,1.06,1.06,0,0,0,.82,1.24.77.77,0,0,0,.63-.26,1.12,1.12,0,0,0,0-1.23A1.87,1.87,0,0,0,128.2,8.78Z"/><path class="cls-2" d="M128.93,8.58c0-.31.2-.6.56-.58a1.2,1.2,0,0,1,.84.44,1.06,1.06,0,0,1-.09,1.47.73.73,0,0,1-.67.1,1.13,1.13,0,0,1-.66-1A2.55,2.55,0,0,1,128.93,8.58Z"/><path class="cls-2" d="M131.12,9.45c.17-.27.42-.48.75-.33a1.26,1.26,0,0,1,.61.73,1.07,1.07,0,0,1-.65,1.33.73.73,0,0,1-.66-.17A1.11,1.11,0,0,1,131,9.8,2.14,2.14,0,0,1,131.12,9.45Z"/><path class="cls-2" d="M126.73,10.63a.57.57,0,0,0-.81.09,1.26,1.26,0,0,0-.16.93,1.06,1.06,0,0,0,1.22.83.74.74,0,0,0,.49-.47,1.13,1.13,0,0,0-.43-1.16A1.23,1.23,0,0,0,126.73,10.63Z"/><path class="cls-2" d="M137.68,17.57c.53-.14,1.14,0,1.62-.28a.85.85,0,0,0,.35-.77,1.19,1.19,0,0,0-.88-1,1.69,1.69,0,0,1-.69-.48,1.08,1.08,0,0,0-1.15-.29,1.06,1.06,0,0,0-.84.82,1.67,1.67,0,0,1-.36.76,1.2,1.2,0,0,0-.28,1.29.85.85,0,0,0,.69.49c.56,0,1-.43,1.54-.57"/><path class="cls-2" d="M136,12.78c-.2-.25-.48-.43-.78-.23a1.26,1.26,0,0,0-.51.8,1.08,1.08,0,0,0,.82,1.24.76.76,0,0,0,.63-.26,1.1,1.1,0,0,0,0-1.23A1.87,1.87,0,0,0,136,12.78Z"/><path class="cls-2" d="M136.72,12.58c.05-.31.2-.6.57-.58a1.18,1.18,0,0,1,.83.44,1.06,1.06,0,0,1-.08,1.48.78.78,0,0,1-.68.09,1.12,1.12,0,0,1-.65-1A1.64,1.64,0,0,1,136.72,12.58Z"/><path class="cls-2" d="M138.92,13.45c.16-.27.41-.48.74-.33a1.26,1.26,0,0,1,.61.73,1.06,1.06,0,0,1-.64,1.33A.75.75,0,0,1,139,15a1.09,1.09,0,0,1-.2-1.21A1.53,1.53,0,0,1,138.92,13.45Z"/><path class="cls-2" d="M134.53,14.63c-.28-.15-.61-.21-.81.09a1.22,1.22,0,0,0-.17.93,1.07,1.07,0,0,0,1.23.83.79.79,0,0,0,.49-.47,1.13,1.13,0,0,0-.43-1.16A1.73,1.73,0,0,0,134.53,14.63Z"/><path class="cls-2" d="M61,24.52a2.26,2.26,0,0,0-2.34,2.17c-.08,2-.93,5.71-2.34,5.71-.75,0-.95-.21-1.56-2S53.25,26,50,25.54a4.49,4.49,0,0,0-1.94.12h0c-.19.05-.27-.1-.22-.29a27.46,27.46,0,0,1,3.51-6.63A2.25,2.25,0,0,0,47.71,16C42.1,23.56,41,34,40.93,34.43a.48.48,0,0,0,0,.12,2.08,2.08,0,0,0,0,.25A1.49,1.49,0,0,0,41,35c0,.07,0,.14,0,.21a1.42,1.42,0,0,0,.07.22,1.54,1.54,0,0,0,.08.19,1.14,1.14,0,0,0,.1.19l.12.18a2.09,2.09,0,0,0,.14.17l.15.15.18.14.17.12.22.11.11.06.07,0,.23.07.22,0,.08,0h.26l.18,0a1.75,1.75,0,0,0,.24,0l.16,0,.25-.07.15-.08a1.55,1.55,0,0,0,.22-.12l.15-.11a1.22,1.22,0,0,0,.17-.15,1.85,1.85,0,0,0,.14-.14L45,36a.86.86,0,0,0,.1-.16,1.55,1.55,0,0,0,.12-.22.41.41,0,0,1,.05-.09c1.21-3.05,3.29-5.61,4-5.5.41.07.59.23,1.15,1.89s1.7,5,5.84,5c5.1,0,6.7-6.32,6.84-10A2.26,2.26,0,0,0,61,24.52Z"/><path class="cls-2" d="M36.62,23c-.2-2.78-1.72-7-5.86-8.59-.21-.08-.43,0-.14.26.8.62.95,1.25.73,1.15s-.51-.67-1.14-1a10,10,0,0,0-4.35-1c-2.16,0-3.46.56-2.82.8s4.74.48,6.52,7.69S23.9,33.7,20.68,34.62a1.05,1.05,0,0,0-.69,1.1,1.25,1.25,0,0,0,1.28,1.06c11.19-.27,15.82-6.25,14.11-5.53a7.06,7.06,0,0,1-1,.34c-.29.07-.21,0,.05-.4A14,14,0,0,0,36.62,23Z"/><path class="cls-2" d="M15,27.32A1.86,1.86,0,0,1,15.57,26c3-2.83,6.92-5.41,10.44-4.16a6,6,0,0,1,1.32.65h0c.35.25.74.31.64-.18a10,10,0,0,0-2.51-4.78,3.36,3.36,0,0,0-1.6-.5,11,11,0,0,0-4.79,1.15h0c-.17.07-.29,0-.28-.15h0a2.19,2.19,0,0,0-2.12-2.24s0,0,0,0-.26-.16-.21-.4c.32-1.5.57-2.41.58-2.45a2.25,2.25,0,0,0-4.34-1.22c0,.19-.54,2-1,4.7h0a.64.64,0,0,1-.49.59h0l-2,.48a2.25,2.25,0,1,0,1,4.38l.19,0c.33-.08.41.09.41.36h0l-.06.57h0a3.19,3.19,0,0,1-.35.86L6.89,29.19a2.24,2.24,0,0,0,3.37,2.89h0c.12-.11.33-.22.36.16,0,0,0,0,0,0,.08.89.18,1.78.32,2.66a2.24,2.24,0,0,0,2.22,1.9,2,2,0,0,0,.35,0,2.25,2.25,0,0,0,1.88-2.57A39.16,39.16,0,0,1,15,27.32Z"/><path class="cls-2" d="M86.89,22.09H68.36a2,2,0,1,0,0,4.1h7c.22,0,.68.24.56.91-1,5.44-4.77,6-5.28,6.06a2,2,0,0,0,.17,4.09H71C73.85,37,79,34.57,80.08,27h0c0-.38.35-.81.73-.81h6.08a2.05,2.05,0,0,0,0-4.1Z"/><path class="cls-2" d="M109.06,16.17a2.06,2.06,0,0,0-2.77.83c-.05.08-4.36,7.82-13.22,9.69a2,2,0,0,0,.42,4,2.09,2.09,0,0,0,.43,0,22.85,22.85,0,0,0,7-2.77h0c.25-.15.45,0,.45.28v7a2,2,0,0,0,4.1,0V25.06a1.07,1.07,0,0,1,.33-.91h0a23.94,23.94,0,0,0,4.06-5.21A2,2,0,0,0,109.06,16.17Z"/><path class="cls-2" d="M127.36,28.52h0a.44.44,0,0,1-.1-.68h0a26.63,26.63,0,0,0,4-8.63,2.11,2.11,0,0,0-.4-1.73,2.06,2.06,0,0,0-1.6-.76h-12.6a2,2,0,1,0,0,4.09h9.15c.42,0,.57.12.41.52-1.52,3.54-5,9.15-12,11.18a2.05,2.05,0,0,0,.56,4,2.24,2.24,0,0,0,.57-.08,21.18,21.18,0,0,0,8.37-4.64h0a.86.86,0,0,1,.89-.18,38.29,38.29,0,0,1,5.61,4.48,2,2,0,0,0,1.44.59,2,2,0,0,0,1.44-3.5A43.45,43.45,0,0,0,127.36,28.52Z"/></g></g></svg>