<svg xmlns="http://www.w3.org/2000/svg" viewBox="0 0 167.6 47.6"><defs><style>.cls-1{fill:#fff;}.cls-2{fill:#1da23a;}</style></defs><title>アセット 12</title><g id="レイヤー_2" data-name="レイヤー 2"><g id="レイヤー_1-2" data-name="レイヤー 1"><rect class="cls-1" width="167.6" height="47.6"/><rect class="cls-1" width="167.6" height="47.6"/><path class="cls-2" d="M92.87,23.1h11a2.05,2.05,0,0,0,0-4.1h-11a2,2,0,0,0,0,4.1Z"/><path class="cls-2" d="M104.52,15.9c.52-.14,1.14,0,1.62-.28a.85.85,0,0,0,.35-.77,1.19,1.19,0,0,0-.88-1,1.69,1.69,0,0,1-.69-.48,1.08,1.08,0,0,0-1.15-.29,1.06,1.06,0,0,0-.84.82,1.69,1.69,0,0,1-.37.76,1.2,1.2,0,0,0-.27,1.29.85.85,0,0,0,.69.49c.56,0,1-.43,1.54-.57"/><path class="cls-2" d="M102.81,11.11c-.2-.25-.48-.43-.78-.23a1.22,1.22,0,0,0-.51.8,1.07,1.07,0,0,0,.81,1.24.78.78,0,0,0,.64-.26,1.12,1.12,0,0,0,0-1.23A1.87,1.87,0,0,0,102.81,11.11Z"/><path class="cls-2" d="M103.54,10.91c0-.31.2-.6.56-.59a1.24,1.24,0,0,1,.84.44,1.07,1.07,0,0,1-.09,1.48.76.76,0,0,1-.67.1,1.13,1.13,0,0,1-.66-1.05A2.55,2.55,0,0,1,103.54,10.91Z"/><path class="cls-2" d="M105.73,11.78c.17-.27.42-.48.75-.33a1.18,1.18,0,0,1,.6.73,1.05,1.05,0,0,1-.64,1.33.76.76,0,0,1-.66-.17,1.12,1.12,0,0,1-.21-1.21A1.81,1.81,0,0,1,105.73,11.78Z"/><path class="cls-2" d="M101.34,13c-.27-.16-.6-.22-.81.08a1.29,1.29,0,0,0-.16.94,1.07,1.07,0,0,0,1.22.83.74.74,0,0,0,.49-.48,1.11,1.11,0,0,0-.43-1.15A1.23,1.23,0,0,0,101.34,13Z"/><path class="cls-2" d="M112.29,19.9c.53-.14,1.14,0,1.62-.28a.85.85,0,0,0,.35-.77,1.19,1.19,0,0,0-.88-1,1.69,1.69,0,0,1-.69-.48,1.2,1.2,0,0,0-2,.53,1.59,1.59,0,0,1-.37.76,1.2,1.2,0,0,0-.27,1.28.84.84,0,0,0,.69.5c.56,0,1-.43,1.54-.57"/><path class="cls-2" d="M110.6,15.11c-.2-.25-.48-.43-.78-.23a1.26,1.26,0,0,0-.51.8,1.08,1.08,0,0,0,.82,1.24.76.76,0,0,0,.63-.26,1.1,1.1,0,0,0,0-1.23A1.87,1.87,0,0,0,110.6,15.11Z"/><path class="cls-2" d="M111.33,14.91c0-.31.2-.6.57-.59a1.22,1.22,0,0,1,.83.44,1.06,1.06,0,0,1-.08,1.48.79.79,0,0,1-.68.1,1.12,1.12,0,0,1-.65-1.05A1.64,1.64,0,0,1,111.33,14.91Z"/><path class="cls-2" d="M113.53,15.78c.16-.27.41-.48.74-.33a1.23,1.23,0,0,1,.61.73,1.06,1.06,0,0,1-.64,1.33.78.78,0,0,1-.67-.17,1.1,1.1,0,0,1-.2-1.21A1.36,1.36,0,0,1,113.53,15.78Z"/><path class="cls-2" d="M109.14,17c-.28-.16-.61-.22-.81.08a1.25,1.25,0,0,0-.17.94,1.08,1.08,0,0,0,1.23.83.78.78,0,0,0,.49-.48,1.11,1.11,0,0,0-.43-1.15A1.73,1.73,0,0,0,109.14,17Z"/><path class="cls-2" d="M150.63,17.67c.53-.14,1.15,0,1.63-.28a.88.88,0,0,0,.35-.77,1.19,1.19,0,0,0-.89-1,1.69,1.69,0,0,1-.69-.48,1.21,1.21,0,0,0-2,.53,1.58,1.58,0,0,1-.36.76,1.22,1.22,0,0,0-.28,1.29.88.88,0,0,0,.69.49c.57,0,1-.43,1.54-.57"/><path class="cls-2" d="M148.94,12.88c-.19-.25-.47-.43-.78-.23a1.21,1.21,0,0,0-.5.8,1.06,1.06,0,0,0,.81,1.24.78.78,0,0,0,.64-.26,1.12,1.12,0,0,0,0-1.23A1.46,1.46,0,0,0,148.94,12.88Z"/><path class="cls-2" d="M149.68,12.68c0-.31.19-.6.56-.58a1.22,1.22,0,0,1,.84.44A1.06,1.06,0,0,1,151,14a.75.75,0,0,1-.68.1,1.12,1.12,0,0,1-.65-1A1.25,1.25,0,0,1,149.68,12.68Z"/><path class="cls-2" d="M151.87,13.55c.16-.27.41-.48.74-.33a1.23,1.23,0,0,1,.61.73,1.05,1.05,0,0,1-.64,1.33.72.72,0,0,1-.66-.17,1.11,1.11,0,0,1-.21-1.21A2.14,2.14,0,0,1,151.87,13.55Z"/><path class="cls-2" d="M147.48,14.73c-.28-.15-.6-.21-.81.09a1.17,1.17,0,0,0-.16.93,1.05,1.05,0,0,0,1.22.83.76.76,0,0,0,.49-.47,1.13,1.13,0,0,0-.43-1.16A1.73,1.73,0,0,0,147.48,14.73Z"/><path class="cls-2" d="M158.43,21.67c.52-.14,1.14,0,1.62-.28a.85.85,0,0,0,.35-.77,1.19,1.19,0,0,0-.88-1,1.72,1.72,0,0,1-.7-.48,1.21,1.21,0,0,0-2,.53,1.58,1.58,0,0,1-.36.76,1.22,1.22,0,0,0-.28,1.29.88.88,0,0,0,.69.49c.57,0,1-.43,1.55-.57"/><path class="cls-2" d="M156.74,16.88c-.2-.25-.48-.43-.78-.23a1.22,1.22,0,0,0-.51.8,1.06,1.06,0,0,0,.81,1.24.78.78,0,0,0,.64-.26,1.12,1.12,0,0,0,0-1.23A1.87,1.87,0,0,0,156.74,16.88Z"/><path class="cls-2" d="M157.47,16.68c.05-.31.2-.6.56-.58a1.2,1.2,0,0,1,.84.44,1.07,1.07,0,0,1-.09,1.48.77.77,0,0,1-.68.09,1.13,1.13,0,0,1-.65-1.05A2.55,2.55,0,0,1,157.47,16.68Z"/><path class="cls-2" d="M159.66,17.55c.17-.27.42-.48.75-.33a1.21,1.21,0,0,1,.6.73,1.05,1.05,0,0,1-.64,1.33.73.73,0,0,1-.66-.17,1.11,1.11,0,0,1-.21-1.21A2.14,2.14,0,0,1,159.66,17.55Z"/><path class="cls-2" d="M155.27,18.73c-.28-.15-.6-.21-.81.09a1.21,1.21,0,0,0-.16.93,1.06,1.06,0,0,0,1.22.83.74.74,0,0,0,.49-.47,1.13,1.13,0,0,0-.43-1.16A1.23,1.23,0,0,0,155.27,18.73Z"/><path class="cls-2" d="M107.64,26.19H89.11a2,2,0,1,0,0,4.1h7c.23,0,.69.24.56.91-1,5.44-4.77,6-5.27,6.06a2,2,0,0,0,.17,4.09h.15c2.88-.22,8.06-2.68,9.11-10.24h0c.06-.38.35-.81.74-.81h6.08a2.05,2.05,0,0,0,0-4.1Z"/><path class="cls-2" d="M129.81,20.27a2.06,2.06,0,0,0-2.78.83c0,.08-4.35,7.82-13.21,9.69a2,2,0,0,0,.42,4.05,2,2,0,0,0,.42,0,22.91,22.91,0,0,0,7-2.77h0c.24-.15.45,0,.45.28v7a2,2,0,1,0,4.1,0V29.16a1.07,1.07,0,0,1,.32-.91h0A24.57,24.57,0,0,0,130.64,23,2.06,2.06,0,0,0,129.81,20.27Z"/><path class="cls-2" d="M148.11,32.62h0a.43.43,0,0,1-.1-.68h0a26.63,26.63,0,0,0,4-8.63,2,2,0,0,0-.4-1.73,2.06,2.06,0,0,0-1.6-.76H137.42a2,2,0,1,0,0,4.09h9.15c.42,0,.56.12.4.52-1.52,3.54-5,9.15-12,11.18a2.05,2.05,0,0,0,.57,4,2.24,2.24,0,0,0,.57-.08,21.14,21.14,0,0,0,8.36-4.64h0a.87.87,0,0,1,.9-.18,38.54,38.54,0,0,1,5.6,4.48,2,2,0,0,0,1.44.59,2,2,0,0,0,1.45-3.5A44.22,44.22,0,0,0,148.11,32.62Z"/><path class="cls-2" d="M11.15,16.22A2.26,2.26,0,0,0,8.23,17.5C8,18,3.48,29.88,8.3,39.87a2.25,2.25,0,0,0,2,1.28,2.14,2.14,0,0,0,1-.23,2.26,2.26,0,0,0,1-3c-3.95-8.18,0-18.63.07-18.77A2.26,2.26,0,0,0,11.15,16.22Z"/><path class="cls-2" d="M18.64,23.71a2.14,2.14,0,0,0,.78-.14A22.62,22.62,0,0,1,26.79,23a2.26,2.26,0,0,0,1.12-4.37c-2.27-.58-7.93-.07-10,.71a2.25,2.25,0,0,0,.78,4.37Z"/><path class="cls-2" d="M30.84,35.05a2.26,2.26,0,0,0-3-1.11,9.13,9.13,0,0,1-9.44-.75A2.25,2.25,0,1,0,16,37a14.16,14.16,0,0,0,7.75,2.44,14.35,14.35,0,0,0,6-1.38A2.26,2.26,0,0,0,30.84,35.05Z"/><path class="cls-2" d="M77.65,14.31a1.84,1.84,0,0,1,0,.25c.64.58,4.5.77,4.37-1.16l0-.16a11.74,11.74,0,0,0-3.49-5.7A2.25,2.25,0,0,0,75.61,11,7.51,7.51,0,0,1,77.65,14.31Z"/><path class="cls-2" d="M82.08,21.06a39.8,39.8,0,0,0,.28-4.19c-.42,1.54-4,1.22-4.52.66a42.1,42.1,0,0,1-.38,4.23C78.14,22.42,81.91,23.07,82.08,21.06Z"/><path class="cls-2" d="M80.6,29c.37-1.43.71-3,1-4.55-.5,1.3-3.85,1-4.58,0-.28,1.43-.62,2.86-1,4.24C76.64,29.51,80,30.76,80.6,29Z"/><path class="cls-2" d="M75.07,31.45c-.94,2.18-2.41,4.39-3.7,4.39-.75,0-.91,0-1.57-2-.55-1.65-1.49-4.41-4.75-4.91a4.88,4.88,0,0,0-1.95.12h0c-.19.05-.27-.1-.22-.3a27.59,27.59,0,0,1,3.51-6.62,2.25,2.25,0,1,0-3.61-2.7C57.17,27,56,37.42,56,37.86A.56.56,0,0,0,56,38a1,1,0,0,0,0,.25,1.49,1.49,0,0,0,0,.21c0,.07,0,.14,0,.21s0,.14.07.21,0,.14.08.2l.11.19.12.18c0,.06.09.11.13.16l.16.16.17.13.18.13.2.11.13.06.08,0,.18.06.27,0,.07,0h.23a2.58,2.58,0,0,0,.39,0l.1,0,.27-.08.11,0,.25-.13.08,0a2.32,2.32,0,0,0,.57-.51.25.25,0,0,0,0-.07,1.32,1.32,0,0,0,.16-.25.67.67,0,0,0,.06-.12.52.52,0,0,0,.06-.13c1.18-3,3.26-5.6,4-5.49.41.06.59.22,1.15,1.89s1.69,5,5.84,5c4.69,0,7.3-5.55,8.28-8.22C78.69,33.33,75.81,32.44,75.07,31.45Z"/><path class="cls-2" d="M52.45,28.73a5.19,5.19,0,0,0-2.75-3.21,6,6,0,0,0-2-.55h0a.44.44,0,0,1-.42-.55L47.42,23a2,2,0,1,0-4.08-.34l-.24,2.89a.88.88,0,0,1-.46.67h0l-1.29.68h0a.48.48,0,0,1-.74-.22h0l-1-2.06a2.1,2.1,0,0,0-3.78,1.84l1.12,2.3h0c.13.26.18.49-.26.74h0l-1.08.61a2.1,2.1,0,1,0,2.1,3.64l.83-.47a.45.45,0,0,1,.7.18h0L42,39.29a2.09,2.09,0,0,0,1.89,1.18,2.17,2.17,0,0,0,.92-.21,2.1,2.1,0,0,0,1-2.81l-3-6.06a.39.39,0,0,1,.15-.58c1.33-.73,2.47-1.32,3-1.52a2.57,2.57,0,0,1,1.89,0,.94.94,0,0,1,.54.64c.16.52-.92,1.23-1.11,1.34a2.1,2.1,0,0,0,.95,4,2.22,2.22,0,0,0,1-.23C50.75,34.24,53.4,31.91,52.45,28.73Z"/></g></g></svg>