<svg width="215" height="83" viewBox="0 0 215 83" fill="none" xmlns="http://www.w3.org/2000/svg">
<path d="M214.799 0H0V83H214.799V0Z" fill="white"/>
<path d="M32.8607 18.7969C32.7412 17.9779 32.4423 17.1828 31.9999 16.4894C31.8923 16.328 31.7907 16.2024 31.689 16.1187C31.2467 15.5329 30.6309 14.9948 29.782 14.5764C26.5837 12.9862 22.3094 14.0623 20.7969 17.1828C19.954 17.6431 19.141 18.3486 18.854 18.8208C18.31 19.7235 18.1187 20.8056 18.1008 21.8637C18.0888 22.6289 18.1666 23.412 18.5073 24.0935C18.6627 24.4044 18.872 24.6853 18.9796 25.0201C19.2127 25.7614 18.866 26.5625 18.4714 27.232C18.6747 27.3217 18.9078 27.226 19.1051 27.1244C20.3904 26.4549 21.4246 25.325 22.0045 23.9979C22.1958 24.1832 22.411 24.3685 22.6501 24.5538C22.6202 25.0082 22.5126 25.5043 22.2197 25.9826C21.8491 26.5983 20.5219 27.3277 19.1171 30.8787C18.6807 32.415 18.8301 33.8259 18.8481 34.4297C18.9019 35.7986 19.1051 36.4981 19.2366 37.8611C19.3502 39.0388 19.398 40.2882 18.866 41.3403C18.6149 41.8365 18.4057 42.2012 18.1546 42.524C18.1905 42.524 18.2263 42.518 18.2622 42.518C17.0965 44.3414 16.3133 46.3679 15.5482 47.7309C14.3764 49.8233 13.8504 51.3776 13.8504 51.3776C13.8504 51.3776 13.7607 52.7585 15.5302 53.984C16.678 54.7791 18.8062 55.3829 20.7611 55.7416C20.4741 58.3301 21.4904 61.4866 21.9387 62.7121C22.4529 64.105 22.1121 64.7805 21.7534 65.8267C21.317 67.106 21.7534 67.8054 21.7534 67.8054C21.9029 68.3255 24.2762 68.0625 25.6691 68.1701C26.2908 68.2179 28.7239 68.3972 28.9989 67.9848C29.3934 67.3929 29.0348 66.4125 28.0484 66.1196C27.2951 65.8984 26.1533 65.4799 25.5973 64.362C25.0474 63.2621 25.0832 61.6181 25.1191 59.8964C25.1311 59.2328 25.1968 57.7144 25.2685 56.1003C28.1679 55.8731 30.0331 54.6596 30.0331 54.6596L29.507 41.5137C29.507 41.5137 29.3456 41.2208 29.6565 39.3676C30.0809 36.8687 29.4114 34.1905 28.5326 32.2775C27.325 29.6472 26.1653 28.2124 25.9321 27.7342C25.705 27.2619 25.7588 26.963 25.9022 26.7717C25.974 26.8135 26.0457 26.8614 26.1174 26.8972C26.7451 27.226 27.5223 27.6923 27.9587 27.9434C28.2576 28.1168 28.7837 28.1168 28.969 27.9434C29.1962 27.7342 29.1483 27.3038 29.3815 27.1065C29.4712 27.0288 29.6804 27.0228 29.788 26.969C29.8956 26.9152 30.0092 26.8315 30.0271 26.7119C30.0391 26.6222 30.0032 26.5146 30.069 26.4549C30.0929 26.431 30.1287 26.419 30.1646 26.413C30.2961 26.3712 30.4217 26.2935 30.5173 26.1918C30.5532 26.156 30.5831 26.1141 30.595 26.0603C30.607 26.0065 30.5891 25.9467 30.5831 25.8869C30.5651 25.7614 30.4755 25.5821 30.5472 25.5223C30.5472 25.5223 31.964 24.8408 31.2168 24.0875C30.8401 23.7109 30.882 23.2805 31.0852 22.862C31.2287 22.9457 31.3782 22.9995 31.5515 22.9816C32.783 22.1506 33.07 20.2197 32.8607 18.7969Z" fill="#E97512"/>
<path d="M61.7649 50.9453C61.6991 50.9931 61.5377 51.0888 61.4481 51.1426L61.4301 51.1545C61.4241 51.1605 61.4182 51.1605 61.4122 51.1665C61.4062 51.1725 61.2866 51.2203 61.2508 51.0828L61.2448 51.0768C60.2405 48.0579 56.552 47.9503 56.8569 48.7513C57.1797 49.5942 58.8296 50.9154 58.6503 57.7005C58.5248 62.4232 54.4178 62.0765 52.0744 61.1559H52.0684L52.0624 61.1499C51.5423 60.9467 51.1119 60.7135 50.8309 60.4983L49.5576 60.1277C48.5533 59.5418 43.6453 61.2695 43.5616 61.2994C43.5317 59.3445 43.1132 57.3359 42.5034 55.8952C41.3915 53.2708 40.3812 50.6105 39.341 47.9562C38.3785 45.4933 37.2905 43.0661 36.621 40.5015C36.346 39.4494 36.0052 37.8233 36.1547 36.6337C36.1009 36.6935 36.0531 36.7413 36.0052 36.7772C35.1265 37.4527 33.9966 37.5663 32.9325 37.4587C32.4004 37.4049 31.7668 37.3092 31.3842 36.8967C30.9298 36.4185 31.0016 35.6473 31.0315 35.0375C31.1152 33.4653 31.4141 32.461 31.5037 32.0963C31.5635 31.8692 31.8624 31.7317 32.0776 31.8273C32.1613 31.8632 32.2091 31.923 32.2331 31.9947C32.3108 32.2039 32.1912 32.5327 32.1553 32.718C32.0358 33.3278 31.982 33.9615 31.976 34.5772C31.97 34.9957 31.964 35.4321 32.1015 35.8326C32.2271 36.1973 32.4602 36.3766 32.8368 36.4603C33.4287 36.5919 34.0444 36.5978 34.6422 36.4962C35.0428 36.4304 35.4493 36.3109 35.7661 36.0478C36.0351 35.8267 36.2145 35.4859 36.2085 35.1452C36.2085 35.1212 36.2025 35.0914 36.2025 35.0615C36.1965 35.0316 36.1965 34.9957 36.1846 34.9658L36.1906 34.9718C36.1427 34.3919 36.071 33.5669 36.0471 33.0409C35.9156 30.3686 33.4227 27.6426 30.9119 27.804C29.4831 27.8937 28.4967 27.4035 27.4207 26.7579C27.074 26.5486 26.6854 26.4111 26.3267 26.2139C25.7887 25.915 25.4957 26.0525 25.1311 26.5845C24.4017 27.6307 24.2224 28.7247 24.5751 30.0159C24.5751 30.0159 25.4419 31.5702 26.2968 32.73C26.799 33.4115 27.343 34.1229 27.6 34.9419C27.9826 36.1674 27.875 37.4527 27.7315 38.7201C27.2413 40.8602 26.7511 42.7433 26.6316 44.9433C26.5299 46.7965 26.8707 49.5046 27.2892 51.3219C27.2892 51.3219 27.2892 51.3219 27.2892 51.3279C27.8033 53.5876 28.1381 55.381 28.4071 57.7544C28.6223 59.6315 28.6821 61.5504 28.6103 63.4336C28.5984 63.7743 28.6163 64.139 28.5087 64.4678C28.3652 64.9161 28.3353 65.0476 27.9826 65.3705C27.6 65.7232 25.974 65.5319 25.3403 65.9623C24.0909 66.8052 25.0175 68.1981 25.6631 68.234C26.4223 68.2758 28.6701 68.3655 29.256 68.2938C29.8538 68.216 29.2739 66.7574 29.6087 66.1715C30.1646 65.2868 30.4815 65.9264 30.7326 65.1911C30.9836 64.4618 31.2885 64.5096 31.1929 63.5292C31.2168 63.4037 31.0912 63.027 31.0554 62.7939C30.8282 61.2336 31.169 59.751 31.4619 58.2206C31.9521 58.7049 32.4363 59.1831 32.8966 59.6733C32.7352 59.8826 32.5858 60.1037 32.4483 60.3369C31.701 61.5983 35.3536 63.2124 35.7183 64.6352C36.059 65.9623 33.0879 67.146 34.3792 67.5943C34.8873 67.7737 35.4313 67.8215 35.9694 67.8514C37.7628 67.959 38.8329 68.1383 40.4828 67.4209C40.8953 67.2416 41.2899 67.0384 41.6546 66.7693L45.8153 67.3731L47.7941 67.4449C49.4022 67.3851 51.0103 67.2057 52.6184 67.0682C52.8216 67.0503 53.4673 66.6139 54.3281 65.9563C58.6981 66.5123 61.0356 64.9221 62.9545 61.7657C65.9735 56.7979 62.285 50.5627 61.7649 50.9453Z" fill="#F4B334"/>
<path d="M25.4838 34.6801C25.7529 35.4394 26.0518 36.1448 26.5539 36.7964C26.8528 37.179 27.5822 37.4361 27.9887 37.7469C28.8973 38.4404 29.525 39.0442 30.5951 39.4806C30.9717 39.63 31.3663 39.7735 31.7848 39.7974C32.4663 39.8333 33.1179 39.5643 33.8054 39.4925C33.895 39.4806 33.9548 39.4567 34.0744 39.5284C34.1939 39.6001 34.2657 39.8393 34.164 39.9947C34.0564 40.1501 33.913 40.2458 33.7456 40.3295C34.2537 40.4072 34.7738 40.4729 35.282 40.5506C35.5031 40.5865 35.7482 40.6284 35.8738 40.8197C35.9933 41.0169 35.8558 41.3039 35.6227 41.2501C35.802 41.2919 35.9395 41.4294 35.9156 41.6267C35.8917 41.824 35.7243 41.9256 35.539 41.9196C35.7303 41.9435 35.7841 42.1707 35.6705 42.3202C35.5569 42.4696 35.3597 42.4876 35.1863 42.5234C35.276 42.5414 35.3118 42.6549 35.258 42.7327C35.2042 42.8104 35.1205 42.8403 35.0249 42.8582C33.7157 43.1511 32.5081 43.193 31.3543 42.4517C31.0614 42.2604 30.888 42.0153 30.5891 41.8419C30.075 41.543 29.5131 41.4773 28.9272 41.3577C27.6061 41.0887 26.3088 40.6642 25.1371 40.0186C24.4436 39.636 23.8219 39.2594 23.2779 38.7094C22.7339 38.1594 22.3513 37.5257 21.9866 36.8562C21.4725 35.9116 21.0122 35.0089 20.7671 33.9329C20.522 32.8568 20.5758 31.7808 20.9405 30.7286C21.1258 30.1966 21.4546 29.7123 21.903 29.3776C22.3513 29.0368 22.9671 28.8874 23.4871 29.1205C24.36 29.5091 24.4197 30.615 24.5752 31.3623C24.8262 32.5878 25.0833 33.5563 25.4838 34.6801Z" fill="#E97512"/>
<path d="M63.38 54.4328C62.1485 54.1159 62.4474 55.5686 62.5192 56.543C62.7105 59.0718 61.9333 62.7961 60.4388 64.0097C58.9622 65.2113 57.3242 65.2113 56.0449 64.5298C55.2498 64.1053 54.7237 63.5255 54.0064 62.8559C53.6716 62.557 52.9841 61.9532 52.5477 61.5945C52.5059 61.5587 52.464 61.5288 52.4222 61.4929C52.2966 61.3913 52.2189 61.3255 52.2189 61.3255L52.2069 61.3136C52.183 61.2956 52.1651 61.2777 52.1472 61.2657C50.9635 60.4049 49.8217 59.8429 48.3929 59.7174C46.5218 59.55 44.8359 59.8489 43.1262 60.6261C42.367 60.9728 41.5958 61.2896 40.7708 61.3554C40.1132 61.4092 39.6111 61.2717 39.0551 61.0804C38.3318 60.6978 37.6802 60.1239 37.5068 59.3468C37.3753 58.743 37.459 58.2049 37.5187 57.655C37.5666 57.3381 37.6443 57.0273 37.7519 56.7224C38.0269 55.9392 38.4872 55.2099 38.547 54.379C38.5649 54.104 38.5111 53.7812 38.266 53.6556C38.0329 53.536 37.7519 53.6616 37.5247 53.7931C37.1959 53.9844 36.8851 54.2056 36.5802 54.4387C36.3291 54.6241 36.0123 54.7317 35.7253 54.8572C35.5818 54.917 35.4264 54.9349 35.277 54.917C35.1574 54.6898 35.1155 53.9186 35.1873 53.5839C35.2172 53.4464 35.2112 53.2969 35.2471 53.0996C35.277 52.9024 35.3367 52.5975 35.3427 52.3404C35.3427 52.0774 35.1574 52.0953 34.99 52.2986C34.5715 52.8067 34.2368 53.3866 33.7824 53.8768C33.6928 53.9725 33.5971 54.0681 33.5194 54.1757C33.352 54.1219 33.1846 54.0741 33.0172 54.0502C32.7542 54.0143 32.527 54.0023 32.2879 54.0382C32.27 54.0382 32.252 54.0442 32.2341 54.0442C32.2281 54.0442 32.2221 54.0502 32.2162 54.0502C32.1444 54.0621 32.0727 54.0801 32.001 54.104C31.989 54.1099 31.977 54.1099 31.9651 54.1099C31.9412 54.1159 31.9232 54.1279 31.8993 54.1398C31.8575 54.1578 31.8216 54.1697 31.7798 54.1936C31.7678 54.1996 31.7618 54.2056 31.7499 54.2116C31.6482 54.2654 31.5406 54.3252 31.439 54.3969C30.9847 54.7137 30.9667 54.5643 30.3331 54.5762C29.7054 54.5882 29.2749 56.1963 29.4423 56.7224C29.6456 57.374 30.0999 58.0376 30.4765 58.7131C30.6021 59.006 30.7575 59.5381 30.8651 60.1777C30.9727 61.0924 29.4244 63.4657 30.2434 65.1395C29.3467 65.8091 27.8223 65.9047 26.9734 66.1797C25.8973 66.5265 26.1902 68.033 26.9495 68.2183C27.613 68.3797 28.7668 68.3797 29.7113 68.3259C29.9206 68.284 29.9206 68.027 29.8728 67.9014C29.6575 67.1303 29.6097 66.4547 30.1597 66.0602C30.4885 65.827 31.4569 65.9586 31.8455 65.9167C32.3895 65.8569 32.9694 65.8569 33.4955 65.6596C33.7824 65.552 34.0156 65.4385 34.3145 65.3428C34.6253 65.2472 34.727 65.4982 34.5357 65.6836C34.0993 66.0243 33.1846 66.3651 32.4015 66.3949C31.8276 66.4129 31.1042 66.383 30.7814 66.8612C30.3869 67.4411 30.6619 68.2362 31.158 68.4156C32.1624 68.6487 34.1112 68.4574 34.8047 68.3737C35.4623 68.296 36.909 68.1166 37.5666 68.0389C39.1866 67.8417 40.1252 67.7878 41.3507 67.7878C41.7154 67.8596 42.08 67.9134 42.4327 67.9433C43.1083 67.9971 43.7539 68.0389 44.3936 68.0748C44.2262 68.3737 44.2262 68.7683 44.4773 68.9835C44.6865 69.1628 44.9914 69.1628 45.2664 69.1568C47.3946 69.109 48.8891 69.0731 50.9276 69.0253C51.7945 69.0313 53.6058 68.9416 54.6161 68.2721C54.8911 68.0868 55.184 67.8476 55.4112 67.5547L55.4531 67.5069C55.7041 67.1183 55.8476 66.8672 56.2063 66.8194C56.2123 66.8194 56.2123 66.8134 56.2183 66.8134C56.3438 66.7895 56.5172 66.8074 56.5172 66.8074L56.822 66.8314L56.834 66.8373C58.753 66.9808 60.6002 66.6699 61.9154 65.4564C63.5414 63.9559 64.3007 60.925 64.3903 58.4022C64.4381 57.3142 64.3485 54.6838 63.38 54.4328Z" fill="#E97512"/>
<path d="M73.4133 41.5804C73.0008 41.5804 72.666 41.2456 72.666 40.8331V34.5441C72.666 34.1316 73.0008 33.7969 73.4133 33.7969C73.8258 33.7969 74.1605 34.1316 74.1605 34.5441V40.8331C74.1665 41.2456 73.8258 41.5804 73.4133 41.5804Z" fill="#716F6F"/>
<path d="M76.7911 47.0384H75.5656C75.1531 47.0384 74.8184 46.7036 74.8184 46.2911C74.8184 45.8786 75.1531 45.5438 75.5656 45.5438H76.7911C83.0861 45.5438 83.0861 41.67 83.0861 37.9218V34.5441C83.0861 34.1316 83.4208 33.7969 83.8333 33.7969C84.2458 33.7969 84.5806 34.1316 84.5806 34.5441V37.9218C84.5866 41.5505 84.5866 47.0384 76.7911 47.0384Z" fill="#716F6F"/>
<path d="M100.996 40.1178L92.5545 39.2091C92.1241 39.1613 91.7953 38.7966 91.7953 38.3662V34.5402C91.7953 34.1277 91.4605 33.793 91.048 33.793C90.6356 33.793 90.3008 34.1277 90.3008 34.5402V46.2872C90.3008 46.6997 90.6356 47.0345 91.048 47.0345C91.4605 47.0345 91.7953 46.6997 91.7953 46.2872V41.5765C91.7953 41.0743 92.2317 40.6797 92.7339 40.7335L100.888 41.6063C100.918 41.6123 100.942 41.6123 100.972 41.6123C101.372 41.6123 101.707 41.2955 101.719 40.883C101.725 40.4884 101.39 40.1596 100.996 40.1178Z" fill="#716F6F"/>
<path d="M105.93 47.0384C105.775 47.0384 105.613 46.9906 105.482 46.8889C105.153 46.6378 105.087 46.1716 105.338 45.8428C106.534 44.2645 107.042 42.2081 107.042 38.9799V34.5441C107.042 34.1316 107.377 33.7969 107.789 33.7969C108.202 33.7969 108.537 34.1316 108.537 34.5441V38.9799C108.537 42.5129 107.915 44.9102 106.528 46.7455C106.384 46.9367 106.157 47.0384 105.93 47.0384Z" fill="#716F6F"/>
<path d="M112.617 47.0384C112.57 47.0384 112.546 47.0384 112.54 47.0384C112.139 47.0204 111.822 46.6916 111.822 46.2911V34.5441C111.822 34.1316 112.157 33.7969 112.57 33.7969C112.982 33.7969 113.317 34.1316 113.317 34.5441V45.0417C113.317 45.2928 113.544 45.4721 113.789 45.4243C115.17 45.1553 117.406 44.2765 118.572 41.4249C118.715 41.0782 119.074 40.8391 119.438 40.9168C119.905 41.0184 120.15 41.5026 119.982 41.9271C118.016 46.859 113.281 47.0384 112.617 47.0384Z" fill="#716F6F"/>
<path d="M140.71 47.0405C140.351 47.0405 140.034 46.7834 139.974 46.4187C139.903 46.0122 140.178 45.6237 140.584 45.5519C142.736 45.1753 144.075 43.1427 144.075 40.2434C144.075 39.8309 144.41 39.4961 144.823 39.4961C145.235 39.4961 145.57 39.8309 145.57 40.2434C145.57 43.9199 143.758 46.5144 140.841 47.0225C140.793 47.0345 140.751 47.0405 140.71 47.0405Z" fill="#716F6F"/>
<path d="M168.016 36.0632C167.974 36.0632 167.932 36.0572 167.89 36.0512C162.701 35.1844 157.817 35.286 157.769 35.286C157.357 35.2741 157.01 34.9692 157.004 34.5567C156.992 34.1442 157.321 33.8035 157.734 33.7915C157.937 33.7855 162.803 33.6839 168.135 34.5747C168.542 34.6404 168.817 35.029 168.751 35.4355C168.691 35.8061 168.375 36.0632 168.016 36.0632Z" fill="#716F6F"/>
<path d="M167.468 41.1907C167.42 41.1907 167.366 41.1848 167.318 41.1728C162.679 40.2283 157.795 40.1685 157.747 40.1685C157.335 40.1625 157 39.8277 157.006 39.4093C157.012 38.9968 157.347 38.668 157.753 38.668H157.759C157.962 38.668 162.835 38.7337 167.611 39.7022C168.018 39.7859 168.281 40.1804 168.197 40.5869C168.125 40.9456 167.814 41.1907 167.468 41.1907Z" fill="#716F6F"/>
<path d="M168.255 47.0401C168.195 47.0401 168.142 47.0342 168.082 47.0222C162.528 45.6891 156.825 45.3065 156.765 45.3005C156.353 45.2706 156.042 44.9179 156.066 44.5054C156.096 44.0929 156.448 43.7821 156.861 43.806C156.921 43.812 162.755 44.2065 168.428 45.5635C168.829 45.6592 169.08 46.0657 168.984 46.4662C168.901 46.807 168.596 47.0401 168.255 47.0401Z" fill="#716F6F"/>
<path d="M199.814 41.1625H188.57C188.157 41.1625 187.822 40.8277 187.822 40.4152C187.822 40.0027 188.157 39.668 188.57 39.668H199.814C200.227 39.668 200.562 40.0027 200.562 40.4152C200.562 40.8277 200.233 41.1625 199.814 41.1625Z" fill="#716F6F"/>
<path d="M173.487 41.5804C173.075 41.5804 172.74 41.2456 172.74 40.8331V34.5441C172.74 34.1316 173.075 33.7969 173.487 33.7969C173.9 33.7969 174.235 34.1316 174.235 34.5441V40.8331C174.235 41.2456 173.9 41.5804 173.487 41.5804Z" fill="#716F6F"/>
<path d="M176.865 47.0384H175.64C175.227 47.0384 174.893 46.7036 174.893 46.2911C174.893 45.8786 175.227 45.5438 175.64 45.5438H176.865C183.16 45.5438 183.16 41.67 183.16 37.9218V34.5441C183.16 34.1316 183.495 33.7969 183.908 33.7969C184.32 33.7969 184.655 34.1316 184.655 34.5441V37.9218C184.655 41.5505 184.655 47.0384 176.865 47.0384Z" fill="#716F6F"/>
<path d="M134.719 34.2148H123.253C122.841 34.2148 122.506 34.5496 122.506 34.9621C122.506 35.3746 122.841 35.7094 123.253 35.7094H133.356C133.822 35.7094 133.93 35.8588 133.942 36.2594C133.691 42.9369 131.413 45.2504 125.351 45.2504H124.311C123.899 45.2504 123.564 45.5852 123.564 45.9977C123.564 46.4102 123.899 46.745 124.311 46.745H125.351C132.633 46.745 135.472 43.4391 135.472 34.9561C135.466 34.5496 135.132 34.2148 134.719 34.2148Z" fill="#716F6F"/>
<path d="M151.906 37.4014C151.852 37.0307 151.47 36.7617 150.902 36.7617H140.368C139.956 36.7617 139.621 37.0965 139.621 37.509C139.621 37.9215 139.956 38.2562 140.368 38.2562H150.125C150.37 38.2622 150.447 38.3459 150.465 38.5013C150.459 39.3921 150.304 40.767 149.491 41.7056C148.881 42.411 147.996 42.7518 146.789 42.7518C146.376 42.7518 146.042 43.0866 146.042 43.499C146.042 43.9115 146.376 44.2463 146.789 44.2463C148.439 44.2463 149.73 43.7202 150.627 42.6741C152.36 40.6774 151.924 37.5329 151.906 37.4014Z" fill="#716F6F"/>
<path d="M76.1491 58.2492H77.6317C77.9186 58.2492 78.1578 58.0161 78.1578 57.7291C78.1996 52.1217 78.1637 52.02 78.1279 51.9124C78.0382 51.6374 77.7393 51.488 77.4643 51.5836C77.2192 51.6673 77.0698 51.9124 77.1116 52.1635C77.1355 52.4863 77.1236 55.2243 77.1116 57.2031H76.1491C75.8562 57.2031 75.623 57.4362 75.623 57.7291C75.623 58.0101 75.8562 58.2492 76.1491 58.2492Z" fill="#716F6F"/>
<path d="M74.2842 52.9221C73.9972 52.8862 73.7342 53.0895 73.6983 53.3764C73.6983 53.4003 73.4233 55.5166 72.3413 57.0171C72.1739 57.2502 72.2217 57.579 72.4608 57.7524C72.5565 57.8181 72.6641 57.854 72.7657 57.854C72.9271 57.854 73.0885 57.7763 73.1902 57.6388C74.4276 55.9231 74.7265 53.6096 74.7385 53.5139C74.7744 53.221 74.5711 52.9579 74.2842 52.9221Z" fill="#716F6F"/>
<path d="M80.7345 53.0157C80.5014 53.1831 80.4476 53.5119 80.615 53.751C81.6851 55.2396 81.9063 57.1406 81.9122 57.1645C81.9421 57.4336 82.1693 57.6308 82.4323 57.6308C82.4503 57.6308 82.4682 57.6308 82.4921 57.6249C82.7791 57.595 82.9883 57.3379 82.9584 57.045C82.9464 56.9553 82.7133 54.851 81.4698 53.1293C81.2965 52.9022 80.9677 52.8483 80.7345 53.0157Z" fill="#716F6F"/>
<path d="M81.1698 57.572C80.8948 57.4763 80.5959 57.6258 80.5003 57.8948C80.4465 58.0383 79.1911 61.4637 73.8347 61.4637C73.5417 61.4637 73.3086 61.6969 73.3086 61.9898C73.3086 62.2827 73.5417 62.5159 73.8347 62.5159C79.9742 62.5159 81.4388 58.4149 81.4926 58.2355C81.5883 57.9606 81.4388 57.6676 81.1698 57.572Z" fill="#716F6F"/>
<path d="M86.0117 54.4211C86.2867 54.4211 86.5079 54.1999 86.5079 53.9249V53.5304H90.2263V53.9249C90.2263 54.1999 90.4474 54.4211 90.7224 54.4211C90.9974 54.4211 91.2186 54.1999 91.2186 53.9249V53.0342C91.2186 52.7592 90.9974 52.538 90.7224 52.538H88.8812C88.9051 52.263 88.8991 52.0538 88.8513 51.9163C88.7676 51.6592 88.4807 51.4978 88.2236 51.5875C87.9665 51.6712 87.8231 51.9342 87.9068 52.1913C87.9127 52.2391 87.9067 52.3886 87.8948 52.5081C87.8948 52.5201 87.9008 52.526 87.8948 52.538H86.0177C85.7427 52.538 85.5215 52.7592 85.5215 53.0342V53.9249C85.5215 54.1999 85.7427 54.4211 86.0117 54.4211Z" fill="#716F6F"/>
<path d="M90.0961 59.168H86.6407C86.3657 59.168 86.1445 59.3892 86.1445 59.6642V61.9896C86.1445 62.2646 86.3657 62.4858 86.6407 62.4858H90.0961C90.371 62.4858 90.5922 62.2646 90.5922 61.9896V59.6642C90.5863 59.3892 90.3651 59.168 90.0961 59.168ZM89.5999 61.4935H87.1309V60.1544H89.5999V61.4935Z" fill="#716F6F"/>
<path d="M90.7374 57.6272C90.1396 57.6272 89.6076 57.4119 89.1532 57.113C89.8228 56.3478 90.1635 55.4631 90.2652 54.8533C90.2891 54.7098 90.2532 54.5604 90.1576 54.4468C90.0619 54.3332 89.9244 54.2734 89.7809 54.2734L87.4375 54.2854C87.2582 54.2854 87.0908 54.387 87.0071 54.5484C86.9473 54.662 86.8098 54.8772 86.6365 55.1044C86.6185 55.1283 86.6006 55.1462 86.5827 55.1702C86.3675 55.4392 86.0865 55.7201 85.7816 55.8875C85.5425 56.019 85.4588 56.3179 85.5903 56.5571C85.7218 56.7962 86.0207 56.8859 86.2598 56.7484C86.5049 56.6169 86.7202 56.4375 86.9174 56.2522C87.0968 56.5033 87.3359 56.8082 87.6288 57.119C87.1984 57.3821 86.6604 57.5793 85.9849 57.6212C85.7099 57.6391 85.5066 57.8723 85.5245 58.1472C85.5425 58.4103 85.7577 58.6076 86.0147 58.6076C86.0267 58.6076 86.0387 58.6076 86.0446 58.6076C87.0191 58.5418 87.7843 58.225 88.394 57.7886C89.0277 58.2489 89.8108 58.6076 90.7374 58.6076C91.0124 58.6076 91.2336 58.3864 91.2336 58.1114C91.2336 57.8483 91.0124 57.6272 90.7374 57.6272ZM89.1174 55.2718C88.9799 55.6185 88.7527 56.0728 88.3881 56.4853C88.0174 56.1087 87.7424 55.7261 87.581 55.481C87.6288 55.4093 87.6767 55.3375 87.7185 55.2837L89.1174 55.2718Z" fill="#716F6F"/>
<path d="M92.0686 52.9885H93.4376C93.3539 53.2634 93.1745 53.6281 92.8338 53.9868H92.3735C92.0985 53.9868 91.8773 54.208 91.8773 54.483V59.6481C91.8773 59.9231 92.0985 60.1442 92.3735 60.1442H95.5478C95.8228 60.1442 96.044 59.9231 96.044 59.6481V54.483C96.044 54.208 95.8228 53.9868 95.5478 53.9868H94.0593C94.2805 53.5982 94.4 53.2455 94.4538 52.9885H95.8587C96.1337 52.9885 96.3549 52.7673 96.3549 52.4923C96.3549 52.2173 96.1337 51.9961 95.8587 51.9961H92.0626C91.7876 51.9961 91.5664 52.2173 91.5664 52.4923C91.5724 52.7673 91.7936 52.9885 92.0686 52.9885ZM95.0576 57.4362H92.8696V56.7009H95.0576V57.4362ZM92.8696 59.1579V58.4226H95.0576V59.1579H92.8696ZM95.0576 55.7145H92.8696V54.9792H95.0576V55.7145Z" fill="#716F6F"/>
<path d="M92.9849 60.6834C92.7458 60.5459 92.4469 60.6296 92.3094 60.8687C92.0464 61.3231 91.5024 61.5263 91.4964 61.5263C91.2393 61.616 91.1018 61.897 91.1915 62.154C91.2632 62.3573 91.4545 62.4888 91.6578 62.4888C91.7116 62.4888 91.7654 62.4828 91.8192 62.4649C91.9089 62.435 92.7279 62.1361 93.1703 61.3649C93.3078 61.1198 93.2241 60.8209 92.9849 60.6834Z" fill="#716F6F"/>
<path d="M96.4289 61.5237C96.4229 61.5237 95.8789 61.3264 95.6158 60.8661C95.4783 60.627 95.1794 60.5492 94.9403 60.6808C94.7012 60.8123 94.6235 61.1172 94.755 61.3563C95.1974 62.1334 96.0164 62.4264 96.106 62.4563C96.1598 62.4742 96.2136 62.4802 96.2674 62.4802C96.4707 62.4802 96.668 62.3486 96.7337 62.1454C96.8294 61.8883 96.6919 61.6074 96.4289 61.5237Z" fill="#716F6F"/>
<path d="M108.796 54.0625H104.82C104.545 54.0625 104.324 54.2837 104.324 54.5587V57.6374C104.324 57.9124 104.545 58.1336 104.82 58.1336H108.796C109.071 58.1336 109.292 57.9124 109.292 57.6374V54.5587C109.292 54.2837 109.071 54.0625 108.796 54.0625ZM108.3 57.1412H105.311V55.0489H108.3V57.1412Z" fill="#716F6F"/>
<path d="M104.664 52.9885H108.879C109.154 52.9885 109.375 52.7673 109.375 52.4923C109.375 52.2173 109.154 51.9961 108.879 51.9961H104.664C104.389 51.9961 104.168 52.2173 104.168 52.4923C104.168 52.7673 104.389 52.9885 104.664 52.9885Z" fill="#716F6F"/>
<path d="M109.161 61.2485H108.408L108.982 59.204C109.054 58.941 108.904 58.666 108.641 58.5943C108.378 58.5166 108.103 58.672 108.031 58.935L107.386 61.2426H106.172L105.526 58.935C105.455 58.672 105.18 58.5166 104.917 58.5943C104.654 58.666 104.498 58.941 104.576 59.204L105.15 61.2485H104.397C104.122 61.2485 103.9 61.4697 103.9 61.7447C103.9 62.0197 104.122 62.2409 104.397 62.2409H109.173C109.448 62.2409 109.669 62.0197 109.669 61.7447C109.669 61.4697 109.43 61.2485 109.161 61.2485Z" fill="#716F6F"/>
<path d="M103.206 53.5248C103.481 53.5248 103.702 53.3036 103.702 53.0286C103.702 52.7536 103.481 52.5324 103.206 52.5324H100.313C100.337 52.1618 100.337 51.9107 100.337 51.8808C100.331 51.6118 100.116 51.3906 99.8406 51.3906H99.8347C99.5597 51.3906 99.3444 51.6178 99.3444 51.8928C99.3444 51.9107 99.3564 53.6623 98.7765 54.9715C98.6629 55.2226 98.7765 55.5155 99.0276 55.6231C99.0934 55.653 99.1591 55.665 99.2249 55.665C99.4162 55.665 99.5955 55.5574 99.6792 55.372C99.9482 54.7683 100.104 54.1107 100.199 53.5188H100.994V56.4361H99.4879C99.2129 56.4361 98.9917 56.6573 98.9917 56.9323C98.9917 57.2073 99.2129 57.4285 99.4879 57.4285H100.97C100.821 59.0665 99.8944 60.854 99.0276 61.6132C98.8244 61.7925 98.8005 62.1034 98.9798 62.3126C99.0754 62.4262 99.2129 62.48 99.3504 62.48C99.464 62.48 99.5836 62.4382 99.6732 62.3604C100.379 61.7507 101.114 60.5909 101.562 59.2937C101.945 59.7719 102.483 60.4654 102.782 60.9735C102.872 61.129 103.039 61.2186 103.206 61.2186C103.29 61.2186 103.38 61.1947 103.457 61.1529C103.691 61.0154 103.768 60.7105 103.631 60.4774C103.099 59.5747 101.969 58.2415 101.873 58.122C101.915 57.8948 101.945 57.6676 101.963 57.4405H103.206C103.481 57.4405 103.702 57.2193 103.702 56.9443C103.702 56.6693 103.481 56.4481 103.206 56.4481H101.981V53.5308H103.206V53.5248Z" fill="#716F6F"/>
<path d="M122.168 51.8281H118.993C118.718 51.8281 118.497 52.0493 118.497 52.3243V59.2171C118.497 60.1078 118.252 61.1659 117.923 61.7458C117.786 61.9789 117.863 62.2838 118.103 62.4213C118.18 62.4692 118.264 62.4871 118.348 62.4871C118.515 62.4871 118.682 62.3974 118.778 62.242C119.203 61.5127 119.489 60.2991 119.489 59.2171V58.9002H121.677V60.9268C121.677 61.411 121.516 61.4947 121.151 61.4947H120.613C120.338 61.4947 120.117 61.7159 120.117 61.9909C120.117 62.2659 120.338 62.4871 120.613 62.4871H121.151C122.114 62.4871 122.67 61.9192 122.67 60.9328V52.3243C122.658 52.0493 122.437 51.8281 122.168 51.8281ZM121.671 52.8205V54.865H119.484V52.8205H121.671ZM119.484 57.9138V55.8514H121.671V57.9138H119.484Z" fill="#716F6F"/>
<path d="M113.864 60.4061C113.625 60.2686 113.326 60.3523 113.189 60.5914C112.884 61.1234 112.25 61.5897 112.244 61.5897C112.023 61.7511 111.975 62.056 112.137 62.2772C112.232 62.4087 112.382 62.4805 112.537 62.4805C112.639 62.4805 112.74 62.4506 112.824 62.3848C112.854 62.3609 113.631 61.793 114.044 61.0756C114.181 60.8425 114.097 60.5436 113.864 60.4061Z" fill="#716F6F"/>
<path d="M116.372 60.5926C116.234 60.3535 115.935 60.2758 115.696 60.4073C115.457 60.5448 115.379 60.8437 115.511 61.0828C115.923 61.8002 116.7 62.3681 116.73 62.3921C116.82 62.4578 116.922 62.4877 117.017 62.4877C117.173 62.4877 117.322 62.416 117.418 62.2845C117.579 62.0633 117.531 61.7524 117.31 61.597C117.31 61.585 116.677 61.1247 116.372 60.5926Z" fill="#716F6F"/>
<path d="M117.122 53.3891C117.397 53.3891 117.618 53.168 117.618 52.893C117.618 52.618 117.397 52.3968 117.122 52.3968H117.098V51.8946C117.098 51.6196 116.877 51.3984 116.602 51.3984C116.327 51.3984 116.106 51.6196 116.106 51.8946V52.4028H113.655V51.8946C113.655 51.6196 113.434 51.3984 113.159 51.3984C112.884 51.3984 112.662 51.6196 112.662 51.8946V52.4028H112.555C112.28 52.4028 112.059 52.624 112.059 52.8989C112.059 53.1739 112.28 53.3951 112.555 53.3951H112.662V58.9249H112.555C112.28 58.9249 112.059 59.1461 112.059 59.4211C112.059 59.696 112.28 59.9172 112.555 59.9172H117.116C117.391 59.9172 117.612 59.696 117.612 59.4211C117.612 59.1461 117.391 58.9249 117.116 58.9249H117.092V53.3891H117.122ZM116.106 56.6353H113.655V55.5054H116.106V56.6353ZM113.661 58.9249V57.6216H116.112V58.9249H113.661ZM116.106 54.519H113.655V53.3891H116.106V54.519Z" fill="#716F6F"/>
<path d="M127.155 51.4053C126.886 51.3754 126.64 51.5786 126.617 51.8536C126.617 51.8775 126.348 54.466 124.584 56.8334C124.423 57.0546 124.464 57.3594 124.686 57.5268C124.775 57.5926 124.877 57.6225 124.979 57.6225C125.128 57.6225 125.277 57.5567 125.373 57.4252C125.678 57.0127 125.941 56.6002 126.168 56.1877V61.9925C126.168 62.2675 126.389 62.4887 126.664 62.4887C126.939 62.4887 127.161 62.2675 127.161 61.9925V53.9041C127.513 52.7922 127.591 52.0031 127.597 51.9433C127.627 51.6683 127.43 51.4292 127.155 51.4053Z" fill="#716F6F"/>
<path d="M135.537 57.3493H132.446V56.058H134.688C134.963 56.058 135.184 55.8368 135.184 55.5618V52.4532C135.184 52.1782 134.963 51.957 134.688 51.957H129.218C128.943 51.957 128.722 52.1782 128.722 52.4532V55.5618C128.722 55.8368 128.943 56.058 129.218 56.058H131.46V57.3493H128.369C128.094 57.3493 127.873 57.5705 127.873 57.8455C127.873 58.1205 128.094 58.3416 128.369 58.3416H131.161C130.749 59.0291 129.9 60.1231 128.292 60.9959C128.052 61.1274 127.963 61.4263 128.094 61.6655C128.184 61.8329 128.351 61.9225 128.531 61.9225C128.608 61.9225 128.692 61.9046 128.764 61.8627C130.037 61.1753 130.898 60.3503 131.46 59.6389V61.9883C131.46 62.2633 131.681 62.4845 131.956 62.4845C132.231 62.4845 132.452 62.2633 132.452 61.9883V59.6389C133.014 60.3503 133.875 61.1753 135.148 61.8627C135.226 61.9046 135.304 61.9225 135.382 61.9225C135.555 61.9225 135.728 61.8269 135.818 61.6655C135.949 61.4263 135.86 61.1274 135.621 60.9959C134.025 60.1351 133.17 59.0351 132.757 58.3416H135.543C135.818 58.3416 136.039 58.1205 136.039 57.8455C136.033 57.5705 135.812 57.3493 135.537 57.3493ZM129.714 52.9494H134.192V55.0716H129.714V52.9494Z" fill="#716F6F"/>
<path d="M141.971 58.3086C141.971 57.4538 141.923 56.8799 141.839 56.6049C141.648 56.013 141.331 55.6663 141.062 55.469C141.247 54.9728 141.54 54.118 141.701 53.4305C141.797 53.0061 141.869 52.48 141.594 52.1273C141.349 51.8164 140.99 51.8164 140.793 51.8164H138.838C138.563 51.8164 138.342 52.0376 138.342 52.3126V61.9852C138.342 62.2602 138.563 62.4813 138.838 62.4813C139.113 62.4813 139.334 62.2602 139.334 61.9852V52.8088H140.793H140.799C140.799 52.8865 140.781 53.012 140.739 53.2093C140.524 54.1538 139.998 55.4989 139.992 55.5109C139.944 55.6364 139.956 55.7799 140.01 55.9054C140.069 56.031 140.183 56.1266 140.315 56.1685C140.333 56.1744 140.709 56.3 140.906 56.9098C140.948 57.0353 140.99 57.5255 140.99 58.3086C140.99 58.47 140.954 59.2053 140.954 59.2053C140.882 59.7493 140.338 59.7792 140.183 59.7673C139.908 59.7374 139.681 59.9646 139.663 60.2396C139.651 60.5145 139.86 60.7417 140.135 60.7596C140.685 60.7836 141.773 60.5205 141.935 59.295C141.935 59.295 141.971 58.482 141.971 58.3086Z" fill="#716F6F"/>
<path d="M149.131 61.5051C149.107 61.4991 147.176 61.1105 146.375 59.7356H148.186C148.461 59.7356 148.683 59.5144 148.683 59.2394V56.9498C148.683 56.6748 148.461 56.4536 148.186 56.4536H146.088V55.6525H147.941C148.216 55.6525 148.437 55.4313 148.437 55.1563C148.437 54.8813 148.216 54.6602 147.941 54.6602H143.183C142.908 54.6602 142.687 54.8813 142.687 55.1563C142.687 55.4313 142.908 55.6525 143.183 55.6525H145.096V56.4536H142.997C142.722 56.4536 142.501 56.6748 142.501 56.9498V59.2394C142.501 59.5144 142.722 59.7356 142.997 59.7356H144.809C144.008 61.1105 142.077 61.4991 142.053 61.5051C141.784 61.5529 141.61 61.8159 141.658 62.079C141.706 62.3181 141.909 62.4795 142.143 62.4795C142.172 62.4795 142.202 62.4795 142.232 62.4735C142.346 62.4496 144.54 62.0192 145.592 60.3573C146.644 62.0192 148.838 62.4556 148.952 62.4735C148.981 62.4795 149.011 62.4795 149.041 62.4795C149.274 62.4795 149.484 62.3121 149.525 62.079C149.573 61.81 149.4 61.5529 149.131 61.5051ZM147.69 57.4459V58.7492H146.082V57.4459H147.69ZM143.488 57.4459H145.096V58.7492H143.488V57.4459Z" fill="#716F6F"/>
<path d="M162.556 60.88C161.265 60.0311 160.129 58.4229 159.746 57.2811H161.803C162.078 57.2811 162.299 57.0599 162.299 56.785C162.299 56.51 162.078 56.2888 161.803 56.2888H159.609V54.047H161.558C161.833 54.047 162.054 53.8258 162.054 53.5508C162.054 53.2758 161.833 53.0546 161.558 53.0546H159.609V51.8829C159.609 51.6079 159.388 51.3867 159.113 51.3867C158.838 51.3867 158.616 51.6079 158.616 51.8829V53.0546H157.271C157.373 52.397 157.373 51.9247 157.373 51.8829C157.373 51.6079 157.152 51.3867 156.883 51.3867C156.614 51.3867 156.393 51.6079 156.387 51.8769C156.387 51.8949 156.369 53.8079 155.526 55.2904C155.388 55.5295 155.472 55.8285 155.711 55.9659C155.789 56.0078 155.872 56.0317 155.956 56.0317C156.129 56.0317 156.297 55.942 156.387 55.7806C156.709 55.2127 156.925 54.6089 157.068 54.041H158.61V56.2888H156.416C156.141 56.2888 155.92 56.51 155.92 56.785C155.92 57.0599 156.141 57.2811 156.416 57.2811H158.473C158.09 58.4289 156.948 60.037 155.663 60.88C155.436 61.0294 155.37 61.3343 155.52 61.5615C155.615 61.7049 155.771 61.7826 155.932 61.7826C156.028 61.7826 156.118 61.7587 156.201 61.6989C157.098 61.1071 157.971 60.1626 158.604 59.1762V61.9859C158.604 62.2609 158.826 62.4821 159.101 62.4821C159.376 62.4821 159.597 62.2609 159.597 61.9859V59.1762C160.23 60.1626 161.103 61.1071 162 61.6989C162.084 61.7528 162.179 61.7826 162.269 61.7826C162.43 61.7826 162.586 61.7049 162.681 61.5615C162.849 61.3343 162.783 61.0294 162.556 60.88Z" fill="#716F6F"/>
<path d="M154.985 54.0471C155.26 54.0471 155.481 53.826 155.481 53.551C155.481 53.276 155.26 53.0548 154.985 53.0548H153.807V51.9727C153.807 51.6978 153.586 51.4766 153.311 51.4766C153.036 51.4766 152.815 51.6978 152.815 51.9727V53.0548H151.637C151.362 53.0548 151.141 53.276 151.141 53.551C151.141 53.826 151.362 54.0471 151.637 54.0471H152.815V54.8542C152.803 55.0096 152.546 57.909 150.985 59.5889C150.8 59.7861 150.812 60.103 151.009 60.2883C151.105 60.378 151.224 60.4198 151.344 60.4198C151.476 60.4198 151.607 60.366 151.709 60.2644C152.169 59.7682 152.534 59.1943 152.815 58.6025V61.9921C152.815 62.267 153.036 62.4882 153.311 62.4882C153.586 62.4882 153.807 62.267 153.807 61.9921V56.8031L154.429 57.4427C154.524 57.5443 154.656 57.5922 154.781 57.5922C154.907 57.5922 155.033 57.5443 155.128 57.4547C155.325 57.2634 155.325 56.9525 155.14 56.7552L153.813 55.3862V54.0471H154.985Z" fill="#716F6F"/>
<path d="M172.504 54.751V54.0755H174.997C175.29 54.0755 175.523 53.8424 175.523 53.5494C175.523 53.2565 175.29 53.0234 174.997 53.0234H174.829V51.9712C174.829 51.6962 174.608 51.475 174.333 51.475C174.058 51.475 173.837 51.6962 173.837 51.9712V53.0234H172.498V51.8815C172.498 51.5886 172.265 51.3555 171.972 51.3555C171.679 51.3555 171.446 51.5886 171.446 51.8815V53.0234H165.067C164.774 53.0234 164.541 53.2565 164.541 53.5494C164.541 53.8424 164.774 54.0755 165.067 54.0755H171.446V54.751C171.446 56.4608 172.283 60.765 174.764 62.4269C174.853 62.4867 174.955 62.5166 175.057 62.5166C175.224 62.5166 175.391 62.4329 175.493 62.2834C175.654 62.0443 175.589 61.7155 175.349 61.5541C173.365 60.221 172.504 56.401 172.504 54.751Z" fill="#716F6F"/>
<path d="M170.311 59.5744C169.665 59.951 168.978 60.2499 168.32 60.489V57.1771H170.263C170.556 57.1771 170.789 56.944 170.789 56.6511C170.789 56.3581 170.556 56.125 170.263 56.125H165.224C164.931 56.125 164.698 56.3581 164.698 56.6511C164.698 56.944 164.931 57.1771 165.224 57.1771H167.268V60.8357C166.055 61.1944 165.128 61.326 165.11 61.326C164.823 61.3678 164.62 61.6308 164.662 61.9178C164.698 62.1808 164.925 62.3721 165.182 62.3721C165.206 62.3721 165.23 62.3721 165.254 62.3661C165.379 62.3482 168.356 61.9178 170.831 60.483C171.082 60.3396 171.166 60.0167 171.022 59.7657C170.879 59.5146 170.562 59.4309 170.311 59.5744Z" fill="#716F6F"/>
<path d="M187.396 54.5698C184.312 53.6193 182.823 51.6764 182.811 51.6585C182.71 51.5269 182.554 51.4492 182.393 51.4492C182.225 51.4492 182.07 51.5269 181.974 51.6585C181.962 51.6764 180.468 53.6193 177.383 54.5698C177.108 54.6535 176.953 54.9524 177.036 55.2274C177.12 55.5024 177.419 55.6578 177.694 55.5741C180.169 54.8089 181.705 53.4818 182.393 52.7704C183.08 53.4818 184.617 54.8149 187.091 55.5741C187.145 55.592 187.193 55.598 187.247 55.598C187.474 55.598 187.677 55.4545 187.749 55.2274C187.827 54.9524 187.671 54.6535 187.396 54.5698Z" fill="#716F6F"/>
<path d="M185.506 56.5678C185.798 56.5678 186.032 56.3346 186.032 56.0417C186.032 55.7488 185.798 55.5156 185.506 55.5156H179.264C178.971 55.5156 178.738 55.7488 178.738 56.0417C178.738 56.3346 178.971 56.5678 179.264 56.5678H185.506Z" fill="#716F6F"/>
<path d="M187.051 57.9023H177.725C177.432 57.9023 177.199 58.1355 177.199 58.4284C177.199 58.7213 177.432 58.9545 177.725 58.9545H179.459C178.777 60.3534 178.15 61.5968 178.144 61.6147C178.066 61.7702 178.072 61.9495 178.162 62.093C178.251 62.2365 178.407 62.3261 178.58 62.3261C178.586 62.3261 178.604 62.3261 178.628 62.3261C179.19 62.3261 183.775 62.2963 185.885 61.3936C186.089 61.6566 186.304 61.9495 186.519 62.2664C186.615 62.4098 186.77 62.4816 186.932 62.4816C187.027 62.4816 187.123 62.4517 187.207 62.3979C187.434 62.2424 187.494 61.9376 187.338 61.7104C186.537 60.5267 185.7 59.6181 185.664 59.5822C185.479 59.3849 185.168 59.373 184.965 59.5583C184.768 59.7436 184.756 60.0545 184.941 60.2577C184.947 60.2637 185.054 60.3833 185.234 60.5865C183.65 61.1485 180.78 61.2859 179.387 61.3218C179.686 60.73 180.123 59.8452 180.559 58.9485H187.051C187.344 58.9485 187.577 58.7154 187.577 58.4224C187.577 58.1295 187.344 57.9023 187.051 57.9023Z" fill="#716F6F"/>
<path d="M193.751 59.2944C193.882 59.2944 194.014 59.2466 194.115 59.1449C194.325 58.9417 194.331 58.6069 194.127 58.4037L192.567 56.7955C193.631 55.1994 194.086 53.7945 194.109 53.7049C194.157 53.5435 194.127 53.3701 194.032 53.2386C193.93 53.1011 193.775 53.0234 193.607 53.0234H192.406V51.8815C192.406 51.5886 192.173 51.3555 191.88 51.3555C191.587 51.3555 191.354 51.5886 191.354 51.8815V53.0234H190.068C189.775 53.0234 189.542 53.2565 189.542 53.5494C189.542 53.8424 189.775 54.0755 190.068 54.0755H192.842C192.388 55.1456 191.306 57.2499 189.381 58.7265C189.154 58.9058 189.106 59.2346 189.285 59.4618C189.387 59.5993 189.542 59.665 189.704 59.665C189.817 59.665 189.925 59.6292 190.02 59.5574C190.517 59.1748 190.959 58.7564 191.354 58.3259V61.9845C191.354 62.2775 191.587 62.5106 191.88 62.5106C192.173 62.5106 192.406 62.2775 192.406 61.9845V58.1406L193.368 59.133C193.476 59.2406 193.613 59.2944 193.751 59.2944Z" fill="#716F6F"/>
<path d="M200.142 61.2193H197.709V55.863H199.514C199.807 55.863 200.04 55.6298 200.04 55.3369C200.04 55.044 199.807 54.8108 199.514 54.8108H197.709V51.8815C197.709 51.5886 197.475 51.3555 197.182 51.3555C196.89 51.3555 196.656 51.5886 196.656 51.8815V54.8108H194.851C194.558 54.8108 194.325 55.044 194.325 55.3369C194.325 55.6298 194.558 55.863 194.851 55.863H196.656V61.2193H194.223C193.93 61.2193 193.697 61.4525 193.697 61.7454C193.697 62.0383 193.93 62.2715 194.223 62.2715H200.142C200.435 62.2715 200.668 62.0383 200.668 61.7454C200.668 61.4525 200.429 61.2193 200.142 61.2193Z" fill="#716F6F"/>
<path d="M142.54 54.3935C143.945 53.9929 145.039 53.1022 145.583 52.5881C146.127 53.1022 147.221 53.9929 148.626 54.3935C148.673 54.4054 148.715 54.4114 148.763 54.4114C148.978 54.4114 149.176 54.2679 149.235 54.0527C149.307 53.7897 149.158 53.5147 148.895 53.443C147.197 52.9587 145.965 51.5718 145.953 51.5598C145.768 51.3446 145.397 51.3446 145.206 51.5598C145.194 51.5718 143.963 52.9647 142.265 53.443C142.002 53.5147 141.852 53.7897 141.924 54.0527C142.002 54.3158 142.277 54.4712 142.54 54.3935Z" fill="#716F6F"/>
<path d="M96.6178 27.2156L96.558 26.7792C97.7715 26.6178 98.3574 25.6075 98.2916 24.7347C98.2438 24.0771 97.8253 23.3836 96.815 23.2999C96.7493 23.9336 96.3667 26.7254 94.8781 26.7493C94.2863 26.7553 93.8618 26.2591 93.8499 25.5058C93.832 24.4178 94.6629 22.8815 96.552 22.8516C96.5699 22.8516 96.5819 22.8516 96.5998 22.8516C97.9808 22.8516 98.6683 23.7782 98.734 24.7048C98.8117 25.7749 98.1003 27.0243 96.6178 27.2156ZM96.3727 23.2999C94.92 23.4195 94.2863 24.633 94.2983 25.4939C94.2983 25.6852 94.352 26.3009 94.8721 26.3009H94.8781C95.8346 26.295 96.2651 24.2445 96.3727 23.2999Z" fill="#716F6F"/>
<path d="M167.864 26.8145C167.654 26.2944 167.063 25.7923 167.057 25.7863L167.35 25.4336C167.379 25.4575 168.037 26.0135 168.288 26.6412L167.864 26.8145Z" fill="#716F6F"/>
<path d="M83.9906 24.4979C83.5302 24.2348 83.0699 24.0615 82.5977 23.9778L82.6694 23.5234C83.1955 23.6131 83.7156 23.8104 84.2237 24.0973L83.9906 24.4979Z" fill="#716F6F"/>
<path d="M89.2284 23.0975C88.9176 23.223 88.5948 23.3127 88.254 23.3545C88.3377 23.0078 88.3795 22.7328 88.3795 22.5176C88.3795 22.4518 88.3736 22.3861 88.3676 22.3203L87.9013 22.3801C87.9073 22.4279 87.9073 22.4757 87.9073 22.5295C87.9073 22.7448 87.8595 23.0377 87.7638 23.3964C87.6801 23.4023 87.5904 23.4083 87.4888 23.4083C87.2318 23.4083 86.9807 23.3844 86.7595 23.3366L86.6579 23.7909C86.8731 23.8507 87.1062 23.8806 87.3692 23.8746H87.6263C87.3693 24.861 86.9867 25.9251 86.4785 27.0729L86.9388 27.2403C87.4589 26.0506 87.8595 24.9208 88.1404 23.8447C88.5828 23.7909 89.0013 23.6833 89.4078 23.5219L89.2284 23.0975Z" fill="#716F6F"/>
<path d="M89.7306 26.7865C89.5034 26.7865 89.3181 26.7386 89.1746 26.649C89.0013 26.5473 88.9176 26.3919 88.9176 26.1767C88.9176 26.105 88.9236 26.0332 88.9355 25.9675L88.4872 25.8359C88.4633 25.9435 88.4453 26.0571 88.4453 26.1767C88.4453 26.5294 88.5768 26.7984 88.8339 26.9897C89.0611 27.1631 89.36 27.2468 89.7246 27.2468L91.0159 27.2288V26.7625C90.2089 26.7805 89.7426 26.7865 89.7306 26.7865Z" fill="#716F6F"/>
<path d="M90.4068 24.1992C90.0361 24.1992 89.6237 24.2231 89.1992 24.2769L89.253 24.7253C89.6775 24.6715 90.1079 24.6476 90.4785 24.6476C90.5383 24.6476 90.6758 24.6595 90.885 24.6894V24.2351C90.6698 24.2172 90.5084 24.1992 90.4068 24.1992Z" fill="#716F6F"/>
<path d="M183.551 23.0975C183.24 23.223 182.917 23.3127 182.576 23.3545C182.66 23.0078 182.702 22.7328 182.702 22.5176C182.702 22.4518 182.696 22.3861 182.69 22.3203L182.224 22.3801C182.23 22.4279 182.23 22.4757 182.23 22.5295C182.23 22.7448 182.182 23.0377 182.086 23.3964C182.002 23.4023 181.913 23.4083 181.811 23.4083C181.554 23.4083 181.303 23.3844 181.082 23.3366L180.98 23.7909C181.195 23.8507 181.428 23.8806 181.692 23.8746H181.949C181.692 24.861 181.309 25.9251 180.801 27.0729L181.261 27.2403C181.781 26.0506 182.182 24.9208 182.463 23.8447C182.905 23.7909 183.324 23.6833 183.73 23.5219L183.551 23.0975Z" fill="#716F6F"/>
<path d="M184.047 26.7865C183.82 26.7865 183.635 26.7386 183.491 26.649C183.318 26.5473 183.234 26.3919 183.234 26.1767C183.234 26.105 183.24 26.0332 183.252 25.9675L182.804 25.8359C182.78 25.9435 182.762 26.0571 182.762 26.1767C182.762 26.5294 182.893 26.7984 183.15 26.9897C183.377 27.1631 183.676 27.2468 184.041 27.2468L185.332 27.2288V26.7625C184.531 26.7805 184.065 26.7865 184.047 26.7865Z" fill="#716F6F"/>
<path d="M184.729 24.1992C184.358 24.1992 183.946 24.2231 183.521 24.2769L183.575 24.7253C184 24.6715 184.43 24.6476 184.801 24.6476C184.861 24.6476 184.998 24.6595 185.207 24.6894V24.2351C184.992 24.2172 184.831 24.1992 184.729 24.1992Z" fill="#716F6F"/>
<path d="M198.061 23.6645C198.515 23.5808 198.892 23.5509 199.203 23.5629C199.382 23.5689 199.567 23.5987 199.759 23.6406L199.783 23.1444C199.615 23.1145 199.448 23.0846 199.274 23.0786C198.94 23.0607 198.509 23.0966 197.977 23.1982C197.78 23.2341 197.636 23.258 197.553 23.2699L197.607 23.7362L198.061 23.6645Z" fill="#716F6F"/>
<path d="M198.88 26.3851C198.294 26.3851 197.941 26.2894 197.804 26.0921C197.75 26.0204 197.726 25.9247 197.726 25.7992C197.726 25.7155 197.744 25.6199 197.768 25.5182L197.331 25.3867C197.296 25.5362 197.266 25.6796 197.266 25.8112C197.266 26.4986 197.804 26.8394 198.88 26.8394H199.998V26.3791H198.88V26.3851Z" fill="#716F6F"/>
<path d="M81.7735 27.2294C81.4507 27.2294 81.1876 27.1458 81.0143 26.9843C80.8648 26.8468 80.7871 26.6675 80.7871 26.4583C80.7871 26.1056 81.08 25.7409 81.7257 25.7349C81.899 25.7289 82.1262 25.7648 82.3773 25.8365C82.3773 25.7409 82.3713 25.6512 82.3653 25.5855C82.3235 25.0295 82.3773 24.5513 82.3773 24.5273L82.8137 24.5752C82.8137 24.5811 82.7659 25.0415 82.8017 25.5496C82.8137 25.711 82.8137 25.8545 82.8137 25.986C83.262 26.1653 83.7343 26.4344 84.0631 26.793L83.7403 27.092C83.4713 26.805 83.1066 26.5838 82.7539 26.4344C82.6104 27.0501 82.2278 27.1996 81.9648 27.2235C81.905 27.2235 81.8393 27.2294 81.7735 27.2294ZM81.7436 26.1713C81.7376 26.1713 81.7376 26.1713 81.7317 26.1713C81.3849 26.1773 81.2235 26.3148 81.2235 26.4583C81.2235 26.542 81.2474 26.6077 81.3072 26.6556C81.4208 26.7632 81.648 26.805 81.9289 26.7751C82.1681 26.7512 82.2816 26.53 82.3354 26.2729C82.0963 26.2072 81.8871 26.1713 81.7436 26.1713Z" fill="#716F6F"/>
<path d="M82.4677 23.1584L82.2166 22.7818C82.0372 22.9851 81.5948 23.1345 81.3737 23.1764H81.296C81.3737 22.9253 81.4633 22.6204 81.5291 22.3813L81.0807 22.2617C80.997 22.5666 80.9074 22.8715 80.8057 23.1764H79.927V23.6128H80.6623C80.2737 24.641 79.9808 25.4122 79.8672 25.7111L80.3215 25.8725C80.6981 24.8921 81.003 24.091 81.1704 23.6068H81.4155C81.4872 23.6008 82.103 23.4872 82.4677 23.1584Z" fill="#716F6F"/>
<path d="M120.782 24.4979C120.321 24.2348 119.861 24.0615 119.389 23.9778L119.46 23.5234C119.986 23.6131 120.507 23.8104 121.015 24.0973L120.782 24.4979Z" fill="#716F6F"/>
<path d="M118.539 27.2414C118.228 27.2414 117.971 27.1577 117.798 27.0023C117.648 26.8648 117.564 26.6795 117.564 26.4583C117.564 26.1056 117.857 25.7409 118.503 25.7349C118.676 25.7289 118.898 25.7648 119.155 25.8365C119.155 25.723 119.149 25.6273 119.149 25.5855C119.107 25.0295 119.161 24.5513 119.161 24.5273L119.597 24.5752C119.597 24.5811 119.549 25.0415 119.585 25.5496C119.597 25.705 119.597 25.8485 119.591 25.98C120.039 26.1594 120.512 26.4284 120.846 26.7871L120.524 27.086C120.255 26.793 119.884 26.5778 119.531 26.4224C119.412 26.9007 119.131 27.1876 118.724 27.2235C118.664 27.2354 118.599 27.2414 118.539 27.2414ZM118.527 26.1713C118.521 26.1713 118.521 26.1713 118.515 26.1713C118.168 26.1773 118.007 26.3148 118.007 26.4583C118.007 26.5479 118.037 26.6197 118.097 26.6735C118.204 26.7751 118.419 26.817 118.688 26.793C118.939 26.7691 119.059 26.536 119.119 26.2789C118.88 26.2072 118.67 26.1713 118.527 26.1713Z" fill="#716F6F"/>
<path d="M119.257 23.1584L119.006 22.7818C118.826 22.9851 118.384 23.1345 118.163 23.1764H118.085C118.163 22.9253 118.252 22.6204 118.318 22.3813L117.87 22.2617C117.786 22.5666 117.696 22.8715 117.595 23.1764H116.716V23.6128H117.451C117.063 24.641 116.77 25.4122 116.656 25.7111L117.111 25.8725C117.487 24.8921 117.792 24.091 117.959 23.6068H118.205C118.276 23.6008 118.892 23.4872 119.257 23.1584Z" fill="#716F6F"/>
<path d="M141.287 24.4979C140.827 24.2348 140.367 24.0615 139.895 23.9778L139.966 23.5234C140.492 23.6131 141.012 23.8104 141.521 24.0973L141.287 24.4979Z" fill="#716F6F"/>
<path d="M139.063 27.2278C138.74 27.2278 138.477 27.1441 138.303 26.9827C138.154 26.8452 138.076 26.6658 138.076 26.4566C138.076 26.1039 138.369 25.7392 139.015 25.7333C139.188 25.7273 139.415 25.7631 139.666 25.8349C139.666 25.7392 139.66 25.6496 139.654 25.5838C139.613 25.0338 139.63 24.6273 139.63 24.6094L140.073 24.6273C140.073 24.6333 140.055 25.0278 140.091 25.5479C140.103 25.7093 140.103 25.8528 140.103 25.9843C140.551 26.1637 141.023 26.4327 141.352 26.7914L141.029 27.0903C140.76 26.8033 140.396 26.5821 140.043 26.4327C139.899 27.0484 139.517 27.1979 139.254 27.2218C139.194 27.2218 139.128 27.2278 139.063 27.2278ZM139.033 26.1697C139.027 26.1697 139.027 26.1697 139.021 26.1697C138.674 26.1756 138.513 26.3131 138.513 26.4566C138.513 26.5403 138.536 26.6061 138.596 26.6539C138.71 26.7615 138.937 26.8033 139.218 26.7734C139.457 26.7495 139.571 26.5283 139.624 26.2713C139.391 26.2055 139.176 26.1697 139.033 26.1697Z" fill="#716F6F"/>
<path d="M139.763 23.1584L139.511 22.7818C139.332 22.9851 138.89 23.1345 138.669 23.1764H138.591C138.669 22.9253 138.758 22.6204 138.824 22.3813L138.376 22.2617C138.292 22.5666 138.202 22.8715 138.101 23.1764H137.222V23.6128H137.957C137.569 24.641 137.276 25.4122 137.162 25.7111L137.616 25.8785C137.993 24.8981 138.298 24.097 138.465 23.6128H138.71C138.782 23.6008 139.398 23.4872 139.763 23.1584Z" fill="#716F6F"/>
<path d="M76.603 24.5678C76.3698 24.3825 76.0829 24.2569 75.784 24.1971C75.8258 24.0895 75.8557 24.0238 75.8557 24.0178L75.4432 23.8624C75.4432 23.8683 75.4014 23.9759 75.3237 24.1553C75.1503 24.1553 74.971 24.1792 74.8036 24.227C74.696 24.2569 74.6003 24.2928 74.5047 24.3287C74.5226 24.0656 74.5405 23.8205 74.5644 23.5933C74.6721 23.5814 75.6465 23.4857 75.9514 23.0075L75.5807 22.7684C75.4552 22.9656 74.953 23.0972 74.6123 23.139C74.6601 22.7624 74.696 22.5113 74.7019 22.5053L74.2655 22.4336C74.2596 22.4695 74.2177 22.7445 74.1639 23.151H73.0938V23.5933H74.1161C74.0862 23.8743 74.0623 24.1912 74.0443 24.5259C73.8949 24.5977 73.7574 24.6814 73.6199 24.777C72.7889 25.3509 72.5976 25.8949 72.5737 26.2476C72.5558 26.6003 72.7053 26.8574 72.8368 26.971C72.9862 27.1025 73.1775 27.1503 73.3808 27.1264C73.6139 27.0965 73.877 26.953 74.146 26.7259C74.1639 26.8155 74.1878 26.8992 74.2117 26.9829L74.6362 26.8574C74.5884 26.702 74.5585 26.5286 74.5286 26.3493C74.6541 26.2058 74.7797 26.0503 74.8932 25.871C75.1802 25.4525 75.4193 24.9862 75.5867 24.6276C75.8617 24.6694 76.1188 24.771 76.316 24.9265C76.4834 25.058 76.6807 25.2851 76.6687 25.6319C76.6329 26.7617 75.222 26.9829 75.1623 26.9889L75.222 27.4253C75.8557 27.3356 77.0693 26.8454 77.1051 25.6438C77.135 25.2194 76.9497 24.8428 76.603 24.5678ZM73.333 26.6721C73.2253 26.69 73.1656 26.6482 73.1297 26.6183C73.0998 26.5884 73.0042 26.4628 73.0161 26.2536C73.034 25.8949 73.3389 25.4944 73.871 25.1237C73.9248 25.0879 73.9786 25.058 74.0264 25.0221C74.0204 25.4167 74.0324 25.8112 74.0742 26.1819C73.8052 26.4628 73.5362 26.6422 73.333 26.6721ZM74.5405 25.608C74.5226 25.6379 74.4987 25.6618 74.4807 25.6917C74.4688 25.3987 74.4688 25.0998 74.4748 24.8009C74.6063 24.7471 74.7498 24.6933 74.9172 24.6455C74.9769 24.6276 75.0427 24.6156 75.1085 24.6096C74.959 24.9145 74.7677 25.2792 74.5405 25.608Z" fill="#716F6F"/>
<path d="M110.416 25.9923C109.95 26.0461 109.776 26.064 109.669 26.064C109.609 26.064 109.573 26.0341 109.573 25.9624V23.5233H110.811V23.081H109.573V22.25H109.113V23.081H108.354V23.5233H109.113V25.9385C109.113 26.3091 109.298 26.4945 109.669 26.4945C109.974 26.4945 110.434 26.4167 110.655 26.3868C110.655 26.3868 110.852 26.3271 110.852 26.1597V25.3347H110.416V25.9923Z" fill="#716F6F"/>
<path d="M161.671 26.8363C161.372 26.8423 161.181 26.7825 161.097 26.663C161.049 26.5912 161.037 26.5016 161.055 26.388C161.097 26.2027 161.372 25.9516 161.892 25.6407L161.898 26.1907H162.353L162.341 25.3837L163.991 24.5527L163.764 24.1522C163.064 24.5228 162.664 24.7081 162.311 24.8875V24.8815C162.221 24.457 161.976 24.2478 161.564 24.2478C161.39 24.2478 161.199 24.2956 161.008 24.3793C161.115 24.2 161.295 23.8712 161.426 23.6261H161.587C161.617 23.6261 162.287 23.5603 162.687 23.1478L162.371 22.843C162.149 23.0701 161.785 23.1538 161.635 23.1777C161.743 22.9506 161.868 22.6935 161.964 22.4663L161.552 22.293C161.42 22.5979 161.271 22.9207 161.139 23.1897H160.123V23.6321H160.924C160.637 24.1462 160.183 24.8217 159.74 25.3597L160.075 25.6586L160.254 25.4673C160.44 25.2581 160.643 25.0847 160.858 24.9472C161.115 24.7799 161.342 24.7021 161.546 24.7081C161.755 24.7141 161.868 24.8576 161.892 25.1206V25.1266C161.121 25.569 160.691 25.9575 160.619 26.2863C160.601 26.37 160.589 26.4478 160.589 26.5195C160.589 26.7825 160.697 26.9858 160.924 27.1293C161.127 27.2548 161.378 27.3146 161.683 27.3086L163.524 27.2966L163.518 26.8363H161.671Z" fill="#716F6F"/>
<path d="M177.495 24.7247C177.208 24.5035 176.849 24.3959 176.413 24.3959C176.186 24.3959 175.965 24.4258 175.743 24.4856L177.065 22.9552L176.831 22.5547C175.887 22.9851 174.709 22.8297 174.697 22.8297L174.679 23.2721C174.703 23.2721 174.882 23.296 175.223 23.296C175.51 23.296 175.869 23.2661 176.251 23.1884L174.464 25.2568C174.279 25.466 174.159 25.6035 174.111 25.6633L174.476 25.9443C174.613 25.7829 174.709 25.6633 174.781 25.5856C175.265 25.0834 175.809 24.8383 176.419 24.8383C176.736 24.8383 176.987 24.916 177.184 25.0655C177.393 25.2329 177.495 25.472 177.495 25.7769C177.495 26.2432 177.238 26.554 176.712 26.7035C176.473 26.1176 176.126 25.8307 175.678 25.8307C175.289 25.8307 174.978 26.0877 174.978 26.4823C174.978 26.7214 175.098 26.9127 175.337 27.0502C175.552 27.1817 175.827 27.2475 176.162 27.2475C176.628 27.2475 177.029 27.122 177.375 26.8828C177.77 26.6019 177.967 26.2372 177.967 25.759C177.967 25.3226 177.812 24.9698 177.495 24.7247ZM176.072 26.7991C175.857 26.7991 175.696 26.7693 175.57 26.6975C175.468 26.6377 175.415 26.566 175.415 26.4823C175.415 26.3508 175.546 26.2671 175.749 26.297C175.959 26.3269 176.12 26.4943 176.24 26.7991C176.186 26.7991 176.126 26.7991 176.072 26.7991Z" fill="#716F6F"/>
<path d="M196.129 26.9947C195.753 26.4626 195.675 25.5061 195.896 24.0654C195.98 23.5214 196.093 22.9116 196.141 22.7383L196.584 22.8638C196.542 23.0013 196.434 23.5752 196.351 24.1312C196.153 25.4344 196.201 26.3072 196.5 26.7257L196.129 26.9947Z" fill="#716F6F"/>
<path d="M123.495 26.3981L123.082 26.0753C123.746 25.2264 123.919 23.3851 123.919 23.3672L124.439 23.415C124.433 23.4927 124.26 25.4296 123.495 26.3981Z" fill="#716F6F"/>
<path d="M110.889 22.1055V22.5478H111.726H111.827C111.845 23.3788 111.821 26.1407 110.596 27.1689L110.913 27.5455C112.311 26.3738 112.347 23.4625 112.323 22.5538H113.435V24.6581C113.435 25.7342 113.178 26.9418 113.047 27.0434C112.915 27.145 112.353 27.0673 112.353 27.0673V27.5276H113.059C113.059 27.5276 113.405 27.4798 113.483 27.3004C113.728 26.7026 113.914 25.8478 113.914 24.6581V22.1114H110.889V22.1055Z" fill="#716F6F"/>
<path d="M128.355 26.3754C128.248 25.6162 127.285 23.4402 127.273 23.4222L127.752 23.207C127.794 23.2967 128.756 25.4668 128.876 26.3037L128.355 26.3754Z" fill="#716F6F"/>
<path d="M126.216 21.9727H125.69L125.696 26.9823C125.696 27.0361 125.648 27.0839 125.595 27.0839H124.865V27.61H125.636C125.87 27.61 126.025 27.5084 126.091 27.4247C126.204 27.2812 126.21 27.1198 126.216 27.054C126.216 27.054 126.228 21.9906 126.216 21.9727Z" fill="#716F6F"/>
<path d="M134.323 25.6694L134.574 25.2569C134.066 24.7667 133.636 24.0972 133.313 23.5233C133.767 23.3619 134.233 23.0988 134.461 22.6684L134.066 22.4651C133.899 22.788 133.51 22.9972 133.104 23.1347C132.87 22.6863 132.739 22.3575 132.733 22.3516L132.273 22.5369C132.285 22.5668 132.404 22.8537 132.607 23.2602C132.434 23.2901 132.273 23.314 132.135 23.32C131.49 23.3619 130.874 23.32 130.868 23.32L130.838 23.7624C130.856 23.7624 131.131 23.7863 131.513 23.7863C131.711 23.7863 131.932 23.7803 132.165 23.7624C132.231 23.7564 132.494 23.7385 132.817 23.6667C133.044 24.0852 133.343 24.5694 133.683 25.0118C132.996 24.8803 132.028 24.7966 131.495 25.1912C131.232 25.3825 131.095 25.6754 131.095 26.0341C131.095 26.3031 131.209 26.5422 131.412 26.7216C131.824 27.0802 132.589 27.1699 133.229 27.1699C133.737 27.1699 134.162 27.1161 134.257 27.1042L134.192 26.614C133.678 26.6857 132.231 26.7813 131.741 26.3509C131.639 26.2672 131.597 26.1656 131.591 26.0341C131.591 25.8308 131.651 25.6933 131.788 25.5917C132.344 25.1852 133.797 25.508 134.323 25.6694Z" fill="#716F6F"/>
<path d="M147.008 22.4565V21.8945H146.565V22.4565H144.072V23.8434H144.515V22.8989H149.004V23.8434H149.447V22.4565H147.008Z" fill="#716F6F"/>
<path d="M166.753 23.0837H171.153V24.0282H171.589V22.6413H169.162V21.918H168.72V22.6413H166.311V24.0282H166.753V23.0837Z" fill="#716F6F"/>
<path d="M171.721 24.9583V24.5159H169.945V23.7148H169.503V24.5159H166.502V24.9583H169.503V27.1642H168.768V27.6066H169.539C169.724 27.6066 169.826 27.5289 169.874 27.4631C169.957 27.3555 169.951 27.2359 169.945 27.1762V24.9643H171.721V24.9583Z" fill="#716F6F"/>
<path d="M153.926 23.2285V22.7862H153.107V21.9492H152.665V22.7862H151.678V23.2285H152.336V24.6155C152.336 24.6334 152.36 26.4149 151.559 27.3176L151.887 27.6105C152.73 26.66 152.772 24.9741 152.772 24.6633L153.394 24.6573C153.4 25.1535 153.406 26.4089 153.137 27.1083C153.119 27.1621 152.999 27.1561 152.999 27.1561H152.635V27.5985H153.268C153.268 27.5985 153.418 27.5866 153.46 27.473C153.914 26.5524 153.83 24.5078 153.83 24.4182L153.818 24.203L152.766 24.2149V23.2226H153.926V23.2285Z" fill="#716F6F"/>
<path d="M157.397 22.834H155C155.161 22.3797 155.269 22.0031 155.281 21.9732L154.839 21.8477C154.833 21.8596 154.414 23.3242 154.014 23.9221L154.396 24.1791C154.552 23.9519 154.701 23.6172 154.839 23.2824H157.403V22.834H157.397Z" fill="#716F6F"/>
<path d="M156.124 25.871H157.469V25.4286H156.016C156.064 25.0938 156.07 24.789 156.064 24.5977H157.224V24.1553H155.245C155.347 23.8743 155.413 23.6471 155.419 23.6292L155.024 23.5156C155.018 23.5276 154.713 24.5977 154.408 25.0042L154.737 25.2493C154.857 25.0879 154.976 24.8428 155.078 24.5977H155.622C155.628 24.783 155.622 25.0998 155.574 25.4286H154.109V25.871H155.472C155.46 25.9069 155.454 25.9427 155.442 25.9726C155.203 26.6003 154.767 27.0427 154.139 27.2818L154.295 27.6943C155.012 27.4193 155.514 26.9231 155.807 26.2177C156.052 26.678 156.519 27.3237 157.296 27.6764L157.475 27.2758C156.734 26.9351 156.315 26.2715 156.124 25.871Z" fill="#716F6F"/>
<path d="M192.686 24.3957C192.608 24.2642 192.202 23.6544 191.185 23.5468C191.365 23.0686 191.454 22.7218 191.466 22.686L191.024 22.5664C191.024 22.5784 190.91 22.9849 190.695 23.5408C190.247 23.5827 189.733 23.78 189.278 24.0609C189.039 23.4452 188.878 22.949 188.878 22.937L188.441 23.0745C188.453 23.1224 188.633 23.6724 188.896 24.3299C188.728 24.4615 188.579 24.6049 188.453 24.7604C188.101 25.1848 187.957 25.6332 188.041 26.0636C188.154 26.6793 188.561 26.7511 188.794 26.7331C189.135 26.7152 189.434 26.488 189.482 26.4522C189.595 26.3446 189.703 26.225 189.804 26.1054C189.882 26.219 189.966 26.3207 190.049 26.4043L190.378 26.0875C190.283 25.9859 190.187 25.8663 190.097 25.7228C190.486 25.1669 190.791 24.5392 191.018 23.9952C191.909 24.043 192.237 24.5272 192.297 24.6289C192.369 24.7484 192.584 25.1788 192.393 25.6392C192.184 26.1473 191.526 26.5598 190.492 26.8348L190.611 27.2772C191.801 26.9603 192.542 26.4641 192.817 25.8125C193.074 25.1609 192.781 24.5631 192.686 24.3957ZM189.177 26.1054C189.123 26.1473 188.926 26.2669 188.758 26.2788C188.669 26.2848 188.543 26.2908 188.483 25.9799C188.411 25.6093 188.615 25.2745 188.8 25.0533C188.884 24.9576 188.979 24.868 189.081 24.7783C189.219 25.0951 189.374 25.412 189.541 25.6989C189.422 25.8424 189.302 25.9799 189.177 26.1054ZM189.828 25.2864C189.697 25.0354 189.565 24.7663 189.452 24.4973C189.792 24.2761 190.163 24.1147 190.492 24.037C190.313 24.4435 190.091 24.8799 189.828 25.2864Z" fill="#716F6F"/>
<path d="M148.014 25.4909L149.12 24.8214L148.892 24.4448L147.846 25.0785C147.667 24.5763 147.607 24.1459 147.589 23.9307H148.606V23.4883H144.959V23.9307H146.041C145.604 24.2714 144.923 24.7437 144.247 25.0426L144.445 25.4371C145.084 25.1562 145.712 24.7317 146.16 24.397C146.226 24.4866 146.304 24.6181 146.394 24.7796C145.999 25.0725 145.06 25.742 144.259 26.0888L144.457 26.4833C145.258 26.1366 146.149 25.5149 146.585 25.1861C146.627 25.2937 146.669 25.4132 146.704 25.5388C146.394 25.8078 145.318 26.6686 144.08 27.1529L144.259 27.5594C145.377 27.123 146.34 26.4116 146.806 26.035C146.848 26.3996 146.818 26.7942 146.663 27.1887H146.035V27.6311H146.669C146.884 27.6311 147.009 27.5115 147.045 27.4159C147.667 25.9692 146.842 24.5942 146.513 24.1279C146.615 24.0442 146.693 23.9785 146.74 23.9366H147.147C147.189 24.4806 147.47 26.5132 149.335 27.6192L149.514 27.2126C148.755 26.7404 148.295 26.1007 148.014 25.4909Z" fill="#716F6F"/>
<path d="M104.074 23.9234H106.477V23.4331H104.056V21.9805H103.518V23.4331H101.097V23.9234H103.5C103.488 24.0549 103.47 24.1685 103.47 24.1685C103.285 25.4956 102.238 26.5836 101.055 27.1754L101.234 27.6477C102.358 27.1456 103.44 26.0456 103.829 24.9038C104.337 26.1412 105.186 27.0559 106.333 27.6178L106.513 27.1456C105.293 26.5298 104.462 25.4358 104.086 24.1625C104.092 24.1625 104.068 24.0429 104.074 23.9234Z" fill="#716F6F"/>
</svg>
