<!-- 01EZTX9M3AWK0ZB16B6KYR56F1 -->

<?xml version="1.0" standalone="no"?>
<!DOCTYPE svg PUBLIC "-//W3C//DTD SVG 1.1//EN" "http://www.w3.org/Graphics/SVG/1.1/DTD/svg11.dtd" >
<svg xmlns="http://www.w3.org/2000/svg">
<metadata>Generated by IcoMoon</metadata>
<defs>
<font id="icomoon" horiz-adv-x="1024">
<font-face units-per-em="1024" ascent="960" descent="-64" />
<missing-glyph horiz-adv-x="1024" />
<glyph unicode="&#x20;" horiz-adv-x="512" d="" />
<glyph unicode="&#xe900;" glyph-name="ic_home-1" d="M0 587.636l512 372.364 512-372.364v-651.636h-455.111v227.556h-113.778v-227.556h-455.111v651.636z" />
<glyph unicode="&#xe901;" glyph-name="icon_search" d="M1007.317 33.12c22.244-22.244 22.244-58.197 0-80.444-11.094-11.089-25.66-16.667-40.219-16.667-14.564 0-29.13 5.578-40.224 16.667l-193.191 193.135c-77.083-59.903-173.565-96.026-278.581-96.026-250.933 0-455.102 204.171-455.102 455.102s204.171 455.103 455.102 455.103c250.934 0 455.102-204.171 455.102-455.103 0-105.016-36.068-201.552-96.026-278.581l193.135-193.191zM113.776 504.89c0-188.24 153.086-341.326 341.327-341.326s341.326 153.086 341.326 341.326c0 188.242-153.086 341.328-341.326 341.328s-341.327-153.086-341.327-341.328zM455.103 618.665c-31.403 0-56.888 25.428-56.888 56.889s25.486 56.888 56.888 56.888c31.404 0 56.889-25.428 56.889-56.888s-25.486-56.889-56.889-56.889zM625.769 675.555c31.402 0 56.884-25.428 56.884-56.889s-25.486-56.888-56.884-56.888c-31.402 0-56.891 25.428-56.891 56.888s25.491 56.889 56.891 56.889zM341.329 618.665c0-31.458-25.486-56.888-56.889-56.888s-56.888 25.428-56.888 56.888c0 31.459 25.486 56.889 56.888 56.889s56.889-25.428 56.889-56.889zM455.103 561.779c93.867 0 170.666-76.799 170.666-170.66 0-31.292-25.6-56.891-56.891-56.891h-227.549c-31.29 0-56.889 25.6-56.889 56.891 0 93.861 76.799 170.66 170.664 170.66z" />
<glyph unicode="&#xe902;" glyph-name="Vector-3" d="M114.999 503.321c-52.385 59.062-12.597 139.463 8.499 156.064 3.188 2.509 9.8 5.337 13.037 0.466 3.297-4.87 46.976-106.977 46.976-106.977h376.807c0 0 193.61 277.116 200.289 286.857s11.813 10.821 16.421 10.821c4.635 0 11.841-1.546 11.841-14.903 0-8.751 0-147.38 0-147.38s189.001-108.968 216.247-123.813c27.153-14.904 18.985-33.397 12.277-47.748-5.891-12.745-82.136-175.669-84.204-180.307-2.041-4.611-7.175-4.611-8.752-1.519-1.515 3.093-21.556 30.83-25.143 36.984-3.587 6.123-8.222 4.608-11.315 2.014-1.956-1.604-13.36-9.246-17.968-12.803-4.638-3.618-9.742 0-11.288 2.594-1.577 2.539-25.17 37.977-27.737 42.090s-6.154 2.010-7.731 0.99c-1.515-0.99-10.264-9.742-16.421-15.896-6.154-5.659-8.222-3.587-12.83 2.567-1.836 2.39-18.521 27.71-22.109 31.325-3.56 3.587-6.127 1.546-8.721-2.041-2.567-3.618-26.72-41.124-35.438-54.951-8.721-13.913-7.701-20.036-7.701-25.17s153.697-257.436 153.697-257.436l-110.559-39.701-220.329 208.294c0 0-177.713 0-190.053 0-12.307 0-39.024-4.113-65.742-30.335-26.718-26.164-151.168-162.81-151.168-162.81l-135.882 36.052 114.998 406.675z" />
<glyph unicode="&#xe903;" glyph-name="Vector-2" d="M50.067 499.72c-56.126 63.281-24.75 143.688-20.906 153.562s10.5 5.718 13.968 0.501c3.532-5.218 80.345-100.969 80.345-100.969h403.722c0 0 207.439 296.91 214.596 307.347s12.658 11.594 17.595 11.594c4.966 0 12.687-1.656 12.687-15.968 0-9.376 0-157.908 0-157.908s202.502-116.752 231.693-132.658c29.093-15.968 20.341-35.782 13.155-51.157-6.312-13.656-88.003-188.217-90.219-193.187-2.187-4.941-7.688-4.941-9.377-1.628-1.623 3.314-23.095 33.032-26.939 39.625-3.843 6.561-8.81 4.937-12.124 2.157-2.096-1.719-14.314-9.907-19.252-13.718-4.97-3.877-10.438 0-12.094 2.78-1.689 2.721-26.968 40.69-29.718 45.096s-6.594 2.154-8.284 1.060c-1.623-1.060-10.997-10.438-17.595-17.032-6.594-6.063-8.81-3.843-13.747 2.751-1.967 2.56-19.844 29.689-23.687 33.562-3.814 3.843-6.565 1.657-9.344-2.187-2.751-3.877-28.628-44.062-37.969-58.877-9.344-14.907-8.251-21.467-8.251-26.968s27.531-303.253 27.531-303.253h-186l-31.379 208.064c0 0-190.407 0-203.627 0-13.188 0-41.813-4.407-70.439-32.501-28.626-28.032-52.251-174.44-52.251-174.44h-182.158l50.066 474.351z" />
<glyph unicode="&#xe904;" glyph-name="icon_mypage" d="M64 80v-16c0-70.694 57.308-128 128-128h640c70.694 0 128 57.306 128 128v16c0 176.64-144.64 304-321.28 304h-256c-176.64 0-318.72-127.36-318.72-304zM382.72 320h256c70.72 0 135.040-20.8 181.44-67.2s75.84-102.4 75.84-172.8c0-44.181-35.819-80-80-80h-608c-44.183 0-80 35.819-80 80 0 70.72 27.84 126.4 74.56 172.8 46.4 46.4 109.44 67.2 180.16 67.2zM766.72 704c0 141.12-114.88 256-256 256s-256.001-114.88-256.001-256 114.88-256 256.001-256c141.12 0 256 114.88 256 256zM318.719 704c0 53.12 21.44 100.8 56.32 135.68s82.56 56.32 135.681 56.32c53.12 0 100.8-21.44 135.68-56.32s56.32-82.56 56.32-135.68c0-53.12-21.44-100.8-56.32-135.68s-82.88-56.32-135.68-56.32c-53.121 0-100.801 21.44-135.681 56.32s-56.32 82.56-56.32 135.68z" />
<glyph unicode="&#xe905;" glyph-name="ic_-notice" d="M932.305 261.931c-27.439 38.545-51.021 73.907-70.025 115.618-18.999 41.711-33.715 90.193-42.33 155.885-6.332 48.292-17.754 91.096-34.3 128.47-12.395 28.012-27.733 52.896-45.935 74.46-27.264 32.33-61.022 56.868-99.61 72.852-13.679 5.716-27.87 10.32-42.641 13.91l-0.043 0.018c6.588 12.798 10.372 27.322 10.351 42.556 0 12.932-2.671 25.42-7.543 36.72-7.287 16.96-19.388 31.294-34.671 41.442-15.236 10.17-33.826 16.156-53.551 16.138-13.137 0-25.822-2.648-37.303-7.426-17.229-7.176-31.787-19.108-42.112-34.132-10.333-15.004-16.393-33.326-16.372-52.74 0-12.934 2.67-25.404 7.541-36.704 0.857-2.016 1.792-3.972 2.787-5.89l-0.039-0.020c-10.113-2.456-20.015-5.392-29.604-8.826-26.368-9.44-50.769-22.62-72.576-39.466-32.741-25.288-59.501-58.71-79.516-99.154-20.074-40.444-33.637-87.91-40.731-142.208-8.655-65.692-23.367-114.174-42.37-155.885-19.001-41.711-42.584-77.073-69.984-115.618-19.081-26.782-27.731-56.734-27.731-84.954 0-14.485 2.279-28.591 6.607-41.771 6.509-19.703 17.658-37.585 33.618-51.051 7.99-6.737 17.13-12.301 27.302-16.119 10.117-3.853 21.224-5.926 32.605-5.926h206.019c1.422-14.14 5.026-27.742 10.465-40.405 10.854-25.19 28.901-46.583 51.606-61.739 22.746-15.083 50.359-24.004 79.804-23.966 19.571 0 38.396 3.913 55.488 11.034 25.63 10.701 47.36 28.433 62.754 50.842 12.804 18.65 21.184 40.653 23.582 64.235h206.016c15.219 0 29.798 3.721 42.406 10.321 9.515 4.915 17.894 11.358 25.084 18.786 10.739 11.204 18.867 24.538 24.303 39.078 5.495 14.583 8.341 30.391 8.341 46.682 0 28.224-8.653 58.172-27.695 84.954zM481.271 878.476c2.496 5.832 6.767 10.918 12.105 14.468 5.359 3.532 11.618 5.564 18.633 5.582 4.676-0.018 8.986-0.92 12.958-2.57 5.948-2.476 11.093-6.678 14.694-11.916 3.61-5.296 5.675-11.434 5.675-18.34 0-4.606-0.939-8.846-2.611-12.76-2.496-5.85-6.763-10.916-12.105-14.466-5.359-3.55-11.614-5.584-18.611-5.584-4.698 0-9.003 0.922-12.979 2.572-5.943 2.456-11.089 6.658-14.694 11.914-3.584 5.276-5.653 11.416-5.67 18.324 0 4.624 0.934 8.864 2.607 12.776zM218.679 352.397c21.575 47.275 38.082 102.473 47.319 173.171 5.713 43.552 15.826 80.736 29.565 111.742 10.31 23.272 22.664 43.072 36.716 59.706 21.183 25.038 46.208 43.206 75.908 55.602 29.666 12.336 64.217 18.802 103.837 18.802 35.14 0 66.398-5.102 93.705-14.888 20.518-7.388 38.899-17.344 55.39-30.122 24.747-19.108 45.504-44.568 61.99-77.722 16.469-33.154 28.454-74.080 34.884-123.116 9.237-70.703 25.745-125.901 47.322-173.175 14.362-31.539 30.869-59.418 48.525-86.106h-683.649c17.658 26.684 34.126 54.562 48.487 86.106zM585.89 45.687c-6.080-14.14-16.29-26.266-29.094-34.769-12.843-8.533-28.083-13.444-44.77-13.444-11.162 0-21.628 2.206-31.219 6.195-14.323 5.965-26.641 16.017-35.294 28.621-6.063 8.866-10.389 18.918-12.395 29.82h157.726c-1.037-5.717-2.731-11.204-4.954-16.422zM893.99 154.146c-3.392-10.321-8.926-18.364-14.814-23.275-2.982-2.513-5.982-4.258-9.097-5.449-3.157-1.19-6.413-1.839-10.214-1.839h-695.734c-5.087 0.038-9.199 1.131-13.291 3.2-3.039 1.574-6.080 3.819-8.925 6.814-4.288 4.433-8.244 10.573-11.011 18.035-2.806 7.424-4.461 16.115-4.461 25.344 0.036 14.622 4.012 30.332 13.562 45.393h744.029c9.51-15.019 13.487-30.771 13.525-45.393-0.004-8.175-1.289-15.983-3.571-22.831z" />
<glyph unicode="&#xe906;" glyph-name="ic_menu" d="M44.522 848.695h934.956c24.589 0 44.522-19.934 44.522-44.522s-19.934-44.522-44.522-44.522h-934.956c-24.589 0-44.522 19.934-44.522 44.522s19.934 44.522 44.522 44.522zM44.522 492.522h623.304c24.589 0 44.522-19.934 44.522-44.522s-19.934-44.522-44.522-44.522h-623.304c-24.589 0-44.522 19.934-44.522 44.522s19.934 44.522 44.522 44.522zM44.522 136.348h934.956c24.589 0 44.522-19.934 44.522-44.522s-19.934-44.522-44.522-44.522h-934.956c-24.589 0-44.522 19.934-44.522 44.522s19.934 44.522 44.522 44.522z" />
<glyph unicode="&#xe907;" glyph-name="icon_new" d="M704 480h-160v160c0 17.6-14.4 32-32 32s-32-14.4-32-32v-160h-160c-17.6 0-32-14.4-32-32s14.4-32 32-32h160v-160c0-17.6 14.4-32 32-32s32 14.4 32 32v160h160c17.6 0 32 14.4 32 32 0 17.92-14.4 32-32 32zM896 960h-768c-70.72 0-128-57.28-128-128v-768c0-70.72 57.28-128 128-128h768c70.72 0 128 57.28 128 128v768c0 70.72-57.28 128-128 128zM960 64c0-35.2-28.8-64-64-64h-768c-35.2 0-64 28.8-64 64v768c0 35.2 28.8 64 64 64h768c35.2 0 64-28.8 64-64v-768z" />
<glyph unicode="&#xe908;" glyph-name="Vector-1" d="M32 576h320c17.6 0 32 14.4 32 32s-14.4 32-32 32h-244.48c72 151.36 225.92 256 404.48 256 225.6 0 411.84-167.040 442.88-384h64.64c-31.68 252.48-246.4 448-507.52 448-192.96 0-360.64-106.88-448-264.32v232.32c0 17.6-14.4 32-32 32s-32-14.4-32-32v-320c0-30.72 32-32 32-32zM992 320h-320c-17.6 0-32-14.4-32-32s14.4-32 32-32h244.16c-72-151.36-225.6-256-404.16-256-225.6 0-411.84 167.040-442.88 384h-64.64c31.68-252.48 246.4-448 507.52-448 192.96 0 360.64 106.88 448 264.32v-232.32c0-17.6 14.4-32 32-32s32 14.4 32 32v320c0 34.24-32 32-32 32z" />
<glyph unicode="&#xe909;" glyph-name="icon_turn2" d="M759.68 896h232.32c17.6 0 32 14.4 32 32s-14.4 32-32 32h-320c-3.84 0-32 0-32-32v-320c0-17.6 14.4-32 32-32s32 14.4 32 32v244.48c151.36-72 256-225.92 256-404.48 0-247.36-200.64-448-448-448s-448 200.64-448 448c0 225.6 167.040 411.839 384 442.879v64.641c-252.48-31.68-448-246.4-448-507.52 0-282.88 229.12-512 512-512s512 229.12 512 512c0 192.96-106.88 360.96-264.32 448z" />
<glyph unicode="&#xe90a;" glyph-name="icon_pass" d="M512 320c-16.687 0-30.341-14.4-30.341-32.002v-128c0-17.598 13.653-31.998 30.341-31.998s30.341 14.4 30.341 31.998v128c0 17.92-13.653 32.002-30.341 32.002zM512 576c-68.267 0-131.375-24-182.044-64.319v192.319c0 105.92 81.617 192 182.044 192s182.044-86.080 182.044-192h60.681c0 141.44-108.62 256-242.726 256s-242.726-114.56-242.726-256v-256.641c-37.926-53.438-60.681-119.679-60.681-191.359 0-176.64 135.927-320 303.407-320s303.407 143.36 303.407 320c0 176.959-135.927 320-303.407 320zM512 0c-134.106 0-242.726 114.559-242.726 256s108.62 256 242.726 256c134.106 0 242.726-114.559 242.726-256s-108.62-256-242.726-256z" />
<glyph unicode="&#xe90b;" glyph-name="ic_-mail" d="M896 816.64h-768c-70.72 0-128-54.989-128-122.88v-491.52c0-67.891 57.28-122.88 128-122.88h768c70.721 0 128 54.989 128 122.88v491.52c0 67.891-57.279 122.88-128 122.88zM927.997 755.2l-415.997-307.2-416 307.2h831.997zM64 202.24v491.52l288.003-215.040-285.123-294.298c-1.6 5.837-2.88 11.674-2.88 17.818zM113.92 142.643l288.639 295.526 109.441-79.258 104.64 79.872 293.441-295.834c-4.481-1.229-791.683-1.229-796.163-0.307zM960 202.24c0-6.144-1.277-11.981-2.88-17.818l-285.123 294.298 288.003 215.040v-491.52z" />
<glyph unicode="&#xe90c;" glyph-name="icon_menu_user" d="M574.399 436.801c40.96 55.356 65.601 126.078 65.601 203.198 0 176.64-128.959 320-288 320-159.040 0-288-143.36-288-320 0-77.121 24.64-147.842 65.6-203.198-75.2-26.242-129.6-96.642-129.6-180.801v-127.999c0-105.919 86.080-192 192-192h320c105.919 0 192 86.081 192 192v127.999c0 84.159-54.398 154.559-129.6 180.801zM128.001 640c0 141.439 100.16 256 224 256s224-114.559 224-256c0-141.438-100.161-256-224-256s-224 114.562-224 256zM639.999 144.003c0-79.682-70.4-144.003-157.119-144.003h-261.762c-86.72 0-157.119 64.321-157.119 144.003v95.995c0 68.161 51.52 124.802 120.96 139.841 47.040-37.436 104.64-59.839 167.040-59.839s119.999 22.403 167.038 59.839c69.441-15.039 120.962-71.68 120.962-139.841v-95.995zM736 704h256c17.599 0 32 14.4 32 32s-14.401 32-32 32h-256c-17.599 0-32-14.4-32-32s14.401-32 32-32zM992 192h-192c-17.599 0-32-14.401-32-32s14.401-32 32-32h192c17.599 0 32 14.401 32 32s-14.401 32-32 32zM992 575.999h-256c-17.599 0-32-14.401-32-32s14.401-32 32-32h256c17.599 0 32 14.401 32 32s-14.401 32-32 32zM992 384h-192c-17.599 0-32-14.401-32-32s14.401-32 32-32h192c17.599 0 32 14.401 32 32s-14.401 32-32 32z" />
<glyph unicode="&#xe90d;" glyph-name="icon_camera" d="M896 787.927h-96l-32 64.704c-18.88 37.528-28.8 64.703-64 64.703h-384c-35.2 0-47.040-30.735-64-64.703l-32-64.704h-96c-70.72 0-128-57.909-128-129.405v-517.628c0-71.496 57.28-129.408 128-129.408h768c70.72 0 128 57.912 128 129.408v517.628c0 71.496-57.28 129.405-128 129.405zM960 140.893c0-35.588-28.8-64.704-64-64.704h-768c-35.2 0-64 29.116-64 64.704v517.628c0 35.584 28.8 64.701 64 64.701h128l32 64.703c22.72 37.528 28.8 64.704 64 64.704h320c35.2 0 41.28-27.176 64-64.704l32-64.703h128c35.2 0 64-29.117 64-64.701v-517.628zM512 658.521c-141.44 0-256-115.819-256-258.816 0-142.993 114.56-258.812 256-258.812s256 115.819 256 258.812c0 142.997-114.56 258.816-256 258.816zM512 205.597c-105.92 0-192 87.027-192 194.108 0 107.085 86.080 194.112 192 194.112s192-87.027 192-194.112c0-107.080-86.080-194.108-192-194.108z" />
<glyph unicode="&#xe90e;" glyph-name="icon_phone" d="M963.347 820.887l-88.913 88.784c-24.389 24.438-64.212 24.438-88.909 0l-133.37-177.567c-20.377-30.007-24.389-64.344 0-88.783l54.337-54.444c-40.446-54.14-88.604-113.226-143.249-167.67-61.746-61.561-130.281-117.554-191.716-163.646l-52.483 52.591c-24.389 24.438-58.658 20.414-88.913 0l-177.824-133.332c-29.637-20.727-24.389-64.344 0-88.783l88.913-88.783c49.087-49.19 112.993-33.413 177.824 0 0 0 196.036 110.129 363.983 277.795 158.066 157.77 280.011 365.965 280.011 365.965 25.933 70.223 49.398 128.69 0.309 177.877zM918.89 687.555c-52.483-99.92-168.869-253.666-266.425-355.133-112.374-121.883-377.569-288.626-377.569-288.626-20.376-10.827-77.181-11.444-92.926 4.024l-56.497 56.611c-11.731 19.488-16.98 42.073 0 56.611l112.993 84.764c19.141 12.994 41.060 15.468 56.498 0l69.771-69.604c16.362 11.444 278.157 183.443 423.874 420.097l-71.316 71.461c-15.743 15.468-12.964 37.433 0 56.611l84.901 112.913c15.743 20.726 41.058 15.468 56.494 0l56.498-56.611c21.917-21.036 15.436-69.606 3.702-93.116z" />
<glyph unicode="&#xe90f;" glyph-name="icon_library" d="M872 928h-720c-66.3 0-120-53.7-120-120v-720c0-66.301 53.7-120 120-120h720c66.301 0 120 53.699 120 120v720c0 66.3-53.699 120-120 120zM152 28c-33 0-60 26.997-60 60v28.197l238.499 213.6 301.501-301.797h-480zM932 88c0-33.003-26.997-60-60-60h-155.101l-221.101 223.803 256.203 256.499 180-180v-240.301zM932 414.4l-180 183.901-298.203-303.303-121.797 123.003-240-220.197v610.197c0 33 27 60 60 60h720c33.003 0 60-27 60-60v-393.6zM272 808c-66.3 0-120-53.7-120-120s53.7-120 120-120c66.301 0 120 53.699 120 120s-53.699 120-120 120zM272 628c-33 0-60 27.003-60 60 0 33 27 60 60 60 32.997 0 60-27 60-60 0-32.997-27.003-60-60-60z" />
<glyph unicode="&#xe910;" glyph-name="icon_paper" d="M722 374.065h-269.999c-16.502 0-29.999-13.501-29.999-29.999 0-16.502 13.497-30.004 29.999-30.004h269.999c16.498 0 29.999 13.501 29.999 30.004 0 16.498-13.501 29.999-29.999 29.999zM722 523.764h-269.999c-16.502 0-29.999-13.501-29.999-29.999 0-16.502 13.497-29.999 29.999-29.999h269.999c16.498 0 29.999 13.497 29.999 29.999 0 16.8-13.501 29.999-29.999 29.999zM722 944.362c-3.601 0-360 0-360 0-63.599 0-119.999-58.2-119.999-120l-34.8-0.9c-63.299 0-115.199-57.3-115.199-119.1v-599.999c0-61.801 56.399-120.002 120-120.002h450c63.599 0 119.998 58.201 119.998 120.002h29.999c63.604 0 120.002 58.201 120.002 120.002v479.397l-210 240.6zM662.001 44.365h-450c-31.5 0-60 29.4-60 59.999v599.999c0 30.599 25.8 59.099 57.001 59.099l33 0.9v-539.997c0-61.801 56.399-120.002 119.999-120.002h360c0-30.599-28.499-59.999-59.999-59.999zM872 224.366c0-30.603-28.503-60.003-60.003-60.003h-449.998c-31.5 0-59.999 29.4-59.999 60.003v599.997c0 30.6 28.499 60 59.999 60h300.001c-0.599-68.999 0-120.9 0-120.9 0-62.1 56.101-119.098 119.998-119.098 0 0 31.802 0 90.002 0v-419.999zM781.999 704.363c-32.099 0-59.999 57.899-59.999 89.099 0 0 0 31.5 0 89.999l150.001-179.1h-90.002z" />
<glyph unicode="&#xe911;" glyph-name="icon_cake" d="M511.789 943.738c8.394 0 16.157-4.456 20.39-11.706l71.84-123.066c9.641-15.967 15.266-34.843 15.266-54.797 0-59.125-48.35-106.587-107.495-106.587-59.142 0-107.492 47.461-107.492 106.587 0 19.954 5.625 38.829 15.266 54.797l71.84 123.066c4.234 7.249 11.995 11.706 20.386 11.706zM511.789 873.305l-51.746-88.645c-5.393-8.889-8.533-19.402-8.533-30.49 0-32.568 26.725-59.375 60.278-59.375s60.282 26.806 60.282 59.375c0 11.089-3.138 21.604-8.529 30.492l-0.208 0.339-51.545 88.303zM414.763 598.223c0 13.038 10.57 23.606 23.606 23.606h146.839c13.038 0 23.606-10.57 23.606-23.606v-27.896h154.64c82.241 0 149.358-66.13 149.858-147.935v-182.078h-0.418v-191.478c0-36.099-29.688-65.098-65.55-65.098h-671.105c-35.863 0-65.55 28.999-65.55 65.098v373.413c0 81.946 67.225 148.080 149.438 148.080h154.636v27.896zM866.098 253.73v168.438c-0.374 55.501-46.073 100.944-102.644 100.944h-178.246c-13.038 0-23.606 10.567-23.606 23.606v27.896h-99.625v-27.896c0-13.041-10.567-23.606-23.606-23.606h-178.243c-56.622 0-102.225-45.478-102.225-100.867v-168.741c17.518-9.601 37.483-15.104 58.603-15.104 32.617 0 62.848 12.505 85.403 35.161l0.167 0.167 45.299 44.601c9.206 9.062 23.981 9.046 33.166-0.038l45.089-44.601c45.538-45.048 126.365-45.048 171.903 0l0.041 0.037 45.299 44.601c9.203 9.062 23.981 9.046 33.162-0.038l45.089-44.601c23.053-22.804 53.367-35.29 85.953-35.29 21.447 0 41.44 5.584 59.023 15.328zM157.902 201.733v-152.899c0-9.541 8.063-17.884 18.337-17.884h671.105c10.273 0 18.337 8.345 18.337 17.884v152.876c-18.2-6.768-37.903-10.523-58.604-10.523-45.010 0-87.26 17.388-119.153 48.938l-28.529 28.217-28.658-28.217c-0.007-0.010 0.007 0.007 0 0-63.939-63.224-174.381-63.237-238.31 0l-28.526 28.217-28.618-28.177c-31.541-31.642-73.838-48.979-118.777-48.979-20.599 0-40.342 3.764-58.603 10.544z" />
<glyph unicode="&#xe912;" glyph-name="Combined-Shape-Stroke" d="M446.836 768.005c0-36.041 29.174-65.164 65.165-65.164s65.162 29.124 65.162 65.164c0 36.041-29.17 65.164-65.162 65.164s-65.165-29.124-65.165-65.164zM961.164 640.003c0 36.041-29.17 65.164-65.162 65.164s-65.162-29.124-65.162-65.164c0-36.041 29.17-65.164 65.162-65.164s65.162 29.124 65.162 65.164zM128 574.839c35.992 0 65.163 29.124 65.163 65.164s-29.17 65.164-65.163 65.164c-35.992 0-65.163-29.124-65.163-65.164s29.17-65.164 65.163-65.164zM833.163 127.994c0-35.695-29.467-65.162-65.162-65.162h-512.001c-35.695 0-65.163 29.467-65.163 65.162 0 176.5 144.668 321.169 321.165 321.169 176.493 0 321.162-144.67 321.162-321.169zM383.998 768.005c0 70.785 57.346 128.002 128.004 128.002 70.654 0 128-57.217 128-128.002s-57.346-128.002-128-128.002c-70.657 0-128.004 57.216-128.004 128.002zM1024 640.003c0-70.785-57.342-128.004-128-128.004s-128 57.218-128 128.004c0 70.785 57.342 128.002 128 128.002s128-57.216 128-128.002zM128 511.999c-70.657 0-128 57.218-128 128.004s57.344 128.002 128 128.002c70.656 0 128-57.216 128-128.002s-57.344-128.004-128-128.004zM896 127.994c0 211.203-172.799 384.006-383.999 384.006s-384.002-172.803-384.002-384.006c0-70.399 57.6-128 128-128h512.001c70.399 0 128 57.602 128 128z" />
<glyph unicode="&#xe914;" glyph-name="ic_visible" d="M512 811.057c-232.727 0-431.477-144.756-512-349.093 80.523-204.335 279.273-349.091 512-349.091s431.477 144.756 512 349.091c-80.523 204.337-279.273 349.093-512 349.093zM512 229.237c-128.466 0-232.727 104.262-232.727 232.727 0 128.468 104.262 232.729 232.727 232.729s232.727-104.262 232.727-232.729c0-128.466-104.262-232.727-232.727-232.727zM512 601.602c-77.266 0-139.636-62.373-139.636-139.639s62.371-139.636 139.636-139.636c77.266 0 139.636 62.371 139.636 139.636s-62.371 139.639-139.636 139.639z" />
<glyph unicode="&#xe915;" glyph-name="Oval-2" d="M512-64v133.564c209.003 0 378.436 169.434 378.436 378.436 0 209.004-169.434 378.435-378.436 378.435-209.004 0-378.435-169.431-378.435-378.435h-133.565c0 282.77 229.23 512 512 512s512-229.23 512-512c0-282.769-229.231-512-512-512z" />
<glyph unicode="&#xe916;" glyph-name="Combined-Shape" d="M512 740.572c60.594 0 109.714 49.121 109.714 109.714s-49.121 109.714-109.714 109.714c-60.594 0-109.714-49.121-109.714-109.714s49.121-109.714 109.714-109.714zM512 338.287c60.594 0 109.714 49.121 109.714 109.714s-49.121 109.714-109.714 109.714c-60.594 0-109.714-49.121-109.714-109.714s49.121-109.714 109.714-109.714zM621.714 45.715c0-60.592-49.121-109.714-109.714-109.714s-109.714 49.123-109.714 109.714c0 60.592 49.121 109.714 109.714 109.714s109.714-49.123 109.714-109.714z" />
<glyph unicode="&#xe917;" glyph-name="Union" d="M459.707 960c-61.364 0-111.111-49.746-111.111-111.111 0-18.234-11.785-37.029-32.367-48.486-5.538-3.083-10.996-6.292-16.368-9.623-19.43-12.048-40.948-12.911-56.204-4.102-52.193 30.134-118.932 12.251-149.067-39.942l-52.892-91.613c-30.901-53.521-12.563-121.956 40.958-152.86 15.896-9.177 26.396-28.768 26.285-52.328l-0.004-1.934c0-1.407 0.007-2.815 0.021-4.218 0.235-22.907-9.966-41.936-25.36-50.825-52.776-30.472-70.858-97.956-40.388-150.728l54.078-93.667c29.909-51.801 96.151-69.554 147.957-39.644 14.923 8.614 35.992 7.822 55.047-3.961 5.234-3.237 10.548-6.357 15.938-9.36 20.583-11.456 32.367-30.249 32.367-48.485 0-61.365 49.746-111.111 111.111-111.111h104.588c61.365 0 111.111 49.744 111.111 111.111 0 18.236 11.782 37.029 32.367 48.485 2.192 1.22 4.366 2.457 6.532 3.716 20.977 12.192 43.831 12.963 60.202 3.512 54.154-31.264 123.399-12.711 154.663 41.443l51.549 89.28c30.511 52.847 12.401 120.427-40.446 150.938-15.731 9.081-26.014 28.698-25.364 52.155 0.104 3.774 0.157 7.561 0.157 11.36 0 3.037-0.035 6.065-0.1 9.085-0.536 24.109 10.044 44.294 26.275 53.666 53.579 30.933 71.937 99.444 41.003 153.022l-50.385 87.27c-31.487 54.534-101.219 73.218-155.753 41.733-16.698-9.642-39.997-8.803-61.344 3.644-2.314 1.35-4.645 2.678-6.99 3.983-20.585 11.457-32.367 30.251-32.367 48.486 0 61.364-49.744 111.11-111.111 111.11h-104.588zM413.957 848.89c0 25.266 20.485 45.749 45.749 45.749h104.588c25.264 0 45.749-20.482 45.749-45.748 0-47.037 29.491-85.309 65.941-105.597 1.961-1.094 3.913-2.205 5.852-3.337 36.703-21.4 85.458-27.741 126.95-3.785 23.273 13.436 53.030 5.463 66.469-17.809l50.385-87.27c12.88-22.317 5.238-50.852-17.081-63.737-41.347-23.872-59.881-69.355-58.939-111.718 0.056-2.54 0.083-5.085 0.083-7.638 0-3.194-0.044-6.379-0.131-9.552-1.163-41.918 17.121-86.953 58.020-110.571 21.587-12.463 28.982-40.063 16.519-61.649l-51.544-89.28c-13.216-22.894-42.489-30.737-65.379-17.521-41.082 23.717-89.354 17.538-125.735-3.608-1.813-1.055-3.634-2.092-5.469-3.111-36.45-20.289-65.941-58.564-65.941-105.598 0-25.264-20.485-45.749-45.749-45.749h-104.588c-25.264 0-45.749 20.485-45.749 45.749 0 47.034-29.492 85.31-65.94 105.598-4.515 2.51-8.967 5.125-13.352 7.839-34.931 21.6-82.057 28.096-122.104 4.977-20.542-11.861-46.81-4.823-58.67 15.717l-54.078 93.667c-12.421 21.513-5.050 49.021 16.464 61.444 40.077 23.138 58.461 66.957 58.038 108.099-0.012 1.181-0.018 2.362-0.018 3.547l0.004 1.625c0.195 41.583-18.443 85.849-58.965 109.244-22.259 12.851-29.886 41.314-17.035 63.572l52.893 91.613c12.085 20.931 38.848 28.102 59.78 16.018 40.463-23.362 88.080-16.7 123.329 5.158 4.502 2.792 9.074 5.48 13.713 8.062 36.448 20.288 65.94 58.56 65.94 105.597zM413.957 448c0 54.146 43.898 98.043 98.043 98.043s98.043-43.897 98.043-98.043c0-54.146-43.897-98.043-98.043-98.043s-98.043 43.897-98.043 98.043zM512 611.404c-90.246 0-163.404-73.158-163.404-163.404s73.159-163.404 163.404-163.404c90.247 0 163.404 73.157 163.404 163.404s-73.157 163.404-163.404 163.404z" />
<glyph unicode="&#xe918;" glyph-name="Combined-Shape1" d="M337.454 714.231h483.096l-126.582-126.585 49.365-49.368 210.86 210.861-210.86 210.861-49.365-49.368 126.582-126.585h-483.096c-147.808 0-267.63-119.822-267.63-267.63v-93.088h69.816v93.088c0 109.25 88.564 197.814 197.814 197.814zM686.549 181.769h-483.097l126.585 126.587-49.368 49.37-210.861-210.865 210.861-210.86 49.368 49.37-126.585 126.582h483.097c147.807 0 267.63 119.824 267.63 267.63v93.089h-69.816v-93.089c0-109.249-88.565-197.814-197.814-197.814z" />
<glyph unicode="&#xe91a;" glyph-name="Union1" horiz-adv-x="1097" d="M962.94-47.253c22.318-22.318 58.501-22.318 80.819 0s22.318 58.494 0 80.811l-414.439 414.442 414.439 414.439c22.318 22.317 22.318 58.498 0 80.815s-58.501 22.317-80.819 0l-414.435-414.439-414.448 414.448c-22.318 22.317-58.499 22.317-80.816 0s-22.317-58.499 0-80.816l414.448-414.448-414.448-414.45c-22.317-22.318-22.317-58.494 0-80.811s58.499-22.318 80.816 0l414.448 414.445 414.436-414.437z" />
<glyph unicode="&#xe91b;" glyph-name="Rectangle" horiz-adv-x="768" d="M64 960l682.667-512-682.667-512v1024z" />
<glyph unicode="&#xe91c;" glyph-name="Union-2" d="M24.233 77.44c-32.311-32.321-32.311-84.725 0-117.043 32.311-32.321 84.696-32.321 117.007 0l370.683 370.799 370.836-370.955c32.313-32.321 84.696-32.321 117.009 0 32.31 32.321 32.31 84.722 0 117.043l-370.839 370.955 370.361 370.477c32.31 32.321 32.31 84.723 0 117.044s-84.696 32.321-117.006 0l-370.361-370.477-370.206 370.322c-32.311 32.321-84.696 32.321-117.007 0s-32.311-84.723 0-117.044l370.204-370.321-370.681-370.799z" />
<glyph unicode="&#xe91d;" glyph-name="Oval-Stroke" d="M512 70.737c208.357 0 377.263 168.906 377.263 377.263s-168.906 377.263-377.263 377.263c-208.357 0-377.263-168.906-377.263-377.263s168.906-377.263 377.263-377.263zM1024 448c0-282.77-229.23-512-512-512s-512 229.23-512 512c0 282.77 229.23 512 512 512s512-229.23 512-512z" />
<glyph unicode="&#xe91e;" glyph-name="Vector" d="M0 448c0-282.768 229.23-512 512-512 282.768 0 512 229.232 512 512 0 282.77-229.232 512-512 512-282.77 0-512-229.23-512-512zM298.659 448c0 23.566 19.103 42.668 42.667 42.668h238.342l-55.161 55.161c-16.663 16.663-16.663 43.678 0 60.34s43.678 16.662 60.342 0l128-127.999c8.001-8.001 12.493-18.856 12.493-30.171s-4.492-22.17-12.493-30.171l-128-128c-16.663-16.659-43.678-16.659-60.342 0-16.663 16.663-16.663 43.678 0 60.342l55.161 55.161h-238.342c-23.564 0-42.667 19.102-42.667 42.668z" />
<glyph unicode="&#xe91f;" glyph-name="Union-1" d="M558.516 913.454c0 25.706-20.838 46.546-46.544 46.546s-46.544-20.839-46.544-46.546v-418.904h-418.881c-25.706 0-46.546-20.838-46.546-46.544s20.839-46.544 46.546-46.544h418.881v-418.919c0-25.706 20.838-46.544 46.544-46.544s46.544 20.838 46.544 46.544v418.919h418.94c25.706 0 46.544 20.838 46.544 46.544s-20.838 46.544-46.544 46.544h-418.94v418.904z" />
<glyph unicode="&#xe920;" glyph-name="Union2" d="M1000.203 681.392c31.73 31.729 31.73 83.171 0 114.901-31.723 31.728-83.167 31.728-114.897 0l-519.347-519.347-220.891 220.891c-33.186 33.186-86.991 33.186-120.177 0s-33.186-86.991 0-120.177l273.034-273.031c2.401-2.401 4.908-4.627 7.509-6.681 31.846-29.954 81.954-29.367 113.084 1.76l581.685 581.686z" />
<glyph unicode="&#xe921;" glyph-name="check" d="M1007.024 716.625c22.635 22.639 22.635 59.343 0 81.981s-59.342 22.638-81.978 0l-578.201-578.194-247.885 247.883c-22.638 22.638-59.342 22.638-81.981 0s-22.638-59.346 0-81.981l288.922-288.923c22.638-22.635 59.343-22.635 81.981 0 0.659 0.664 1.3 1.333 1.922 2.012l617.22 617.223z" />
<glyph unicode="&#xe922;" glyph-name="Vector-9" d="M421.794 504.889l357.979 357.996c22.221 22.217 22.215 58.237 0 80.453s-58.237 22.215-80.452-0.002l-455.096-455.111c-22.215-22.215-22.215-58.237 0-80.452l455.096-455.112c22.215-22.215 58.237-22.215 80.452 0s22.221 58.242 0 80.451l-357.979 357.998c-52.010 56.889-52.010 56.889 0 113.777z" />
<glyph unicode="&#xe923;" glyph-name="ic_plus" d="M597.333 874.667c0 47.128-38.205 85.333-85.333 85.333s-85.333-38.204-85.333-85.333v-341.333h-341.333c-47.128 0-85.333-38.205-85.333-85.333s38.205-85.333 85.333-85.333h341.333v-341.333c0-47.129 38.204-85.333 85.333-85.333s85.333 38.204 85.333 85.333v341.333h341.333c47.129 0 85.333 38.205 85.333 85.333s-38.204 85.333-85.333 85.333h-341.333v341.333z" />
<glyph unicode="&#xe924;" glyph-name="Rectangle-646" d="M85.333 533.333h853.334c47.128 0 85.333-38.205 85.333-85.333s-38.205-85.333-85.333-85.333h-853.334c-47.128 0-85.333 38.205-85.333 85.333s38.205 85.333 85.333 85.333z" />
</font>
</defs>
</svg>
