<svg width="41" height="41" viewBox="0 0 41 41" fill="none" xmlns="http://www.w3.org/2000/svg">
<path d="M0.5 4.12825C0.5 2.28731 1.99238 0.794922 3.83333 0.794922H37.1667C39.0076 0.794922 40.5 2.28731 40.5 4.12825V37.4616C40.5 39.3025 39.0076 40.7949 37.1667 40.7949H3.83333C1.99238 40.7949 0.5 39.3025 0.5 37.4616V4.12825Z" fill="#5FBBB5"/>
<path d="M27.9252 13.2201C28.2773 12.8849 28.746 12.6995 29.2322 12.7032C29.7184 12.7069 30.1842 12.8993 30.5313 13.2399C30.8783 13.5804 31.0795 14.0425 31.0924 14.5286C31.1052 15.0146 30.9287 15.4867 30.6002 15.8451L20.6252 28.3201C20.4536 28.5049 20.2466 28.6531 20.0165 28.756C19.7863 28.859 19.5378 28.9144 19.2858 28.9191C19.0337 28.9237 18.7833 28.8775 18.5495 28.7832C18.3158 28.6889 18.1034 28.5484 17.9251 28.3701L11.3101 21.7551C11.1259 21.5835 10.9782 21.3765 10.8757 21.1465C10.7732 20.9165 10.7181 20.6682 10.7137 20.4164C10.7092 20.1647 10.7555 19.9146 10.8498 19.6811C10.9441 19.4477 11.0845 19.2356 11.2626 19.0575C11.4406 18.8795 11.6527 18.7391 11.8862 18.6448C12.1196 18.5505 12.3697 18.5042 12.6215 18.5087C12.8732 18.5131 13.1215 18.5682 13.3515 18.6707C13.5815 18.7732 13.7885 18.9209 13.9601 19.1051L19.1952 24.3376L27.8777 13.2751C27.8933 13.2559 27.91 13.2375 27.9277 13.2201H27.9252Z" fill="white"/>
</svg>
