<svg width="215" height="83" viewBox="0 0 215 83" fill="none" xmlns="http://www.w3.org/2000/svg">
<g clip-path="url(#clip0)">
<path d="M214.799 0H0V83H214.799V0Z" fill="white"/>
<path d="M32.8607 18.795C32.7412 17.976 32.4423 17.1809 31.9999 16.4874C31.8923 16.326 31.7907 16.2005 31.689 16.1168C31.2467 15.5309 30.6309 14.9929 29.782 14.5744C26.5837 12.9842 22.3094 14.0603 20.7969 17.1809C19.954 17.6412 19.141 18.3466 18.854 18.8189C18.31 19.7216 18.1187 20.8036 18.1008 21.8617C18.0888 22.6269 18.1666 23.4101 18.5073 24.0916C18.6627 24.4024 18.872 24.6834 18.9796 25.0182C19.2127 25.7594 18.866 26.5605 18.4714 27.2301C18.6747 27.3197 18.9078 27.2241 19.1051 27.1225C20.3904 26.4529 21.4246 25.323 22.0045 23.9959C22.1958 24.1812 22.411 24.3666 22.6501 24.5519C22.6202 25.0062 22.5126 25.5024 22.2197 25.9806C21.8491 26.5964 20.5219 27.3257 19.1171 30.8767C18.6807 32.4131 18.8301 33.8239 18.8481 34.4277C18.9019 35.7967 19.1051 36.4961 19.2366 37.8591C19.3502 39.0368 19.398 40.2862 18.866 41.3384C18.6149 41.8346 18.4057 42.1992 18.1546 42.5221C18.1905 42.5221 18.2263 42.5161 18.2622 42.5161C17.0965 44.3394 16.3133 46.366 15.5482 47.729C14.3764 49.8213 13.8504 51.3756 13.8504 51.3756C13.8504 51.3756 13.7607 52.7566 15.5302 53.9821C16.678 54.7772 18.8062 55.381 20.7611 55.7396C20.4741 58.3282 21.4904 61.4846 21.9387 62.7101C22.4529 64.103 22.1121 64.7785 21.7534 65.8247C21.317 67.104 21.7534 67.8035 21.7534 67.8035C21.9029 68.3236 24.2762 68.0605 25.6691 68.1681C26.2908 68.216 28.7239 68.3953 28.9989 67.9828C29.3934 67.391 29.0348 66.4106 28.0484 66.1176C27.2951 65.8964 26.1533 65.478 25.5973 64.3601C25.0474 63.2601 25.0832 61.6161 25.1191 59.8944C25.1311 59.2309 25.1968 57.7124 25.2685 56.0983C28.1679 55.8712 30.0331 54.6576 30.0331 54.6576L29.507 41.5118C29.507 41.5118 29.3456 41.2188 29.6565 39.3656C30.0809 36.8668 29.4114 34.1886 28.5326 32.2756C27.325 29.6452 26.1653 28.2105 25.9321 27.7322C25.705 27.26 25.7588 26.961 25.9022 26.7697C25.974 26.8116 26.0457 26.8594 26.1174 26.8953C26.7451 27.2241 27.5223 27.6904 27.9587 27.9415C28.2576 28.1148 28.7837 28.1148 28.969 27.9415C29.1962 27.7322 29.1483 27.3018 29.3815 27.1045C29.4712 27.0268 29.6804 27.0208 29.788 26.967C29.8956 26.9132 30.0092 26.8295 30.0271 26.71C30.0391 26.6203 30.0032 26.5127 30.069 26.4529C30.0929 26.429 30.1287 26.417 30.1646 26.4111C30.2961 26.3692 30.4217 26.2915 30.5173 26.1899C30.5532 26.154 30.5831 26.1122 30.595 26.0584C30.607 26.0046 30.5891 25.9448 30.5831 25.885C30.5651 25.7594 30.4755 25.5801 30.5472 25.5203C30.5472 25.5203 31.964 24.8388 31.2168 24.0856C30.8401 23.709 30.882 23.2785 31.0852 22.8601C31.2287 22.9438 31.3782 22.9976 31.5515 22.9796C32.783 22.1487 33.07 20.2177 32.8607 18.795Z" fill="#E97512"/>
<path d="M61.7649 50.9453C61.6991 50.9931 61.5377 51.0888 61.4481 51.1426L61.4301 51.1545C61.4241 51.1605 61.4182 51.1605 61.4122 51.1665C61.4062 51.1725 61.2866 51.2203 61.2508 51.0828L61.2448 51.0768C60.2405 48.0579 56.552 47.9503 56.8569 48.7513C57.1797 49.5942 58.8296 50.9154 58.6503 57.7005C58.5248 62.4232 54.4178 62.0765 52.0744 61.1559H52.0684L52.0624 61.1499C51.5423 60.9467 51.1119 60.7135 50.8309 60.4983L49.5576 60.1277C48.5533 59.5418 43.6453 61.2695 43.5616 61.2994C43.5317 59.3445 43.1132 57.3359 42.5034 55.8952C41.3915 53.2708 40.3812 50.6105 39.341 47.9562C38.3785 45.4933 37.2905 43.0661 36.621 40.5015C36.346 39.4494 36.0052 37.8233 36.1547 36.6337C36.1009 36.6935 36.0531 36.7413 36.0052 36.7772C35.1265 37.4527 33.9966 37.5663 32.9325 37.4587C32.4004 37.4049 31.7668 37.3092 31.3842 36.8967C30.9298 36.4185 31.0016 35.6473 31.0315 35.0375C31.1152 33.4653 31.4141 32.461 31.5037 32.0963C31.5635 31.8692 31.8624 31.7317 32.0776 31.8273C32.1613 31.8632 32.2091 31.923 32.2331 31.9947C32.3108 32.2039 32.1912 32.5327 32.1553 32.718C32.0358 33.3278 31.982 33.9615 31.976 34.5772C31.97 34.9957 31.964 35.4321 32.1015 35.8326C32.2271 36.1973 32.4602 36.3766 32.8368 36.4603C33.4287 36.5919 34.0444 36.5978 34.6422 36.4962C35.0428 36.4304 35.4493 36.3109 35.7661 36.0478C36.0351 35.8267 36.2145 35.4859 36.2085 35.1452C36.2085 35.1212 36.2025 35.0914 36.2025 35.0615C36.1965 35.0316 36.1965 34.9957 36.1846 34.9658L36.1906 34.9718C36.1427 34.3919 36.071 33.5669 36.0471 33.0409C35.9156 30.3686 33.4227 27.6426 30.9119 27.804C29.4831 27.8937 28.4967 27.4035 27.4207 26.7579C27.074 26.5486 26.6854 26.4111 26.3267 26.2139C25.7887 25.915 25.4957 26.0525 25.1311 26.5845C24.4017 27.6307 24.2224 28.7247 24.5751 30.0159C24.5751 30.0159 25.4419 31.5702 26.2968 32.73C26.799 33.4115 27.343 34.1229 27.6 34.9419C27.9826 36.1674 27.875 37.4527 27.7315 38.7201C27.2413 40.8602 26.7511 42.7433 26.6316 44.9433C26.5299 46.7965 26.8707 49.5046 27.2892 51.3219C27.2892 51.3219 27.2892 51.3219 27.2892 51.3279C27.8033 53.5876 28.1381 55.381 28.4071 57.7544C28.6223 59.6315 28.6821 61.5504 28.6103 63.4336C28.5984 63.7743 28.6163 64.139 28.5087 64.4678C28.3652 64.9161 28.3353 65.0476 27.9826 65.3705C27.6 65.7232 25.974 65.5319 25.3403 65.9623C24.0909 66.8052 25.0175 68.1981 25.6631 68.234C26.4223 68.2758 28.6701 68.3655 29.256 68.2938C29.8538 68.216 29.2739 66.7574 29.6087 66.1715C30.1646 65.2868 30.4815 65.9264 30.7326 65.1911C30.9836 64.4618 31.2885 64.5096 31.1929 63.5292C31.2168 63.4037 31.0912 63.027 31.0554 62.7939C30.8282 61.2336 31.169 59.751 31.4619 58.2206C31.9521 58.7049 32.4363 59.1831 32.8966 59.6733C32.7352 59.8826 32.5858 60.1037 32.4483 60.3369C31.701 61.5983 35.3536 63.2124 35.7183 64.6352C36.059 65.9623 33.0879 67.146 34.3792 67.5943C34.8873 67.7737 35.4313 67.8215 35.9694 67.8514C37.7628 67.959 38.8329 68.1383 40.4828 67.4209C40.8953 67.2416 41.2899 67.0384 41.6546 66.7693L45.8153 67.3731L47.7941 67.4449C49.4022 67.3851 51.0103 67.2057 52.6184 67.0682C52.8216 67.0503 53.4673 66.6139 54.3281 65.9563C58.6981 66.5123 61.0356 64.9221 62.9545 61.7657C65.9735 56.7979 62.285 50.5627 61.7649 50.9453Z" fill="#F4B334"/>
<path d="M25.4838 34.6801C25.7529 35.4394 26.0518 36.1448 26.5539 36.7964C26.8528 37.179 27.5822 37.4361 27.9887 37.7469C28.8973 38.4404 29.525 39.0442 30.5951 39.4806C30.9717 39.63 31.3663 39.7735 31.7848 39.7974C32.4663 39.8333 33.1179 39.5643 33.8054 39.4925C33.895 39.4806 33.9548 39.4567 34.0744 39.5284C34.1939 39.6001 34.2657 39.8393 34.164 39.9947C34.0564 40.1501 33.913 40.2458 33.7456 40.3295C34.2537 40.4072 34.7738 40.4729 35.282 40.5506C35.5031 40.5865 35.7482 40.6284 35.8738 40.8197C35.9933 41.0169 35.8558 41.3039 35.6227 41.2501C35.802 41.2919 35.9395 41.4294 35.9156 41.6267C35.8917 41.824 35.7243 41.9256 35.539 41.9196C35.7303 41.9435 35.7841 42.1707 35.6705 42.3202C35.5569 42.4696 35.3597 42.4876 35.1863 42.5234C35.276 42.5414 35.3118 42.6549 35.258 42.7327C35.2042 42.8104 35.1205 42.8403 35.0249 42.8582C33.7157 43.1511 32.5081 43.193 31.3543 42.4517C31.0614 42.2604 30.888 42.0153 30.5891 41.8419C30.075 41.543 29.5131 41.4773 28.9272 41.3577C27.6061 41.0887 26.3088 40.6642 25.1371 40.0186C24.4436 39.636 23.8219 39.2594 23.2779 38.7094C22.7339 38.1594 22.3513 37.5257 21.9866 36.8562C21.4725 35.9116 21.0122 35.0089 20.7671 33.9329C20.522 32.8568 20.5758 31.7808 20.9405 30.7286C21.1258 30.1966 21.4546 29.7123 21.903 29.3776C22.3513 29.0368 22.9671 28.8874 23.4871 29.1205C24.36 29.5091 24.4197 30.615 24.5752 31.3623C24.8262 32.5878 25.0833 33.5563 25.4838 34.6801Z" fill="#E97512"/>
<path d="M63.38 54.4308C62.1485 54.114 62.4474 55.5667 62.5192 56.5411C62.7105 59.0698 61.9333 62.7942 60.4388 64.0077C58.9622 65.2093 57.3242 65.2093 56.0449 64.5278C55.2498 64.1034 54.7237 63.5235 54.0064 62.854C53.6716 62.5551 52.9841 61.9513 52.5477 61.5926C52.5059 61.5567 52.464 61.5268 52.4222 61.491C52.2966 61.3893 52.2189 61.3236 52.2189 61.3236L52.2069 61.3116C52.183 61.2937 52.1651 61.2757 52.1472 61.2638C50.9635 60.4029 49.8217 59.841 48.3929 59.7155C46.5218 59.5481 44.8359 59.847 43.1262 60.6241C42.367 60.9709 41.5958 61.2877 40.7708 61.3535C40.1132 61.4073 39.6111 61.2698 39.0551 61.0785C38.3318 60.6959 37.6802 60.122 37.5068 59.3448C37.3753 58.741 37.459 58.203 37.5187 57.653C37.5666 57.3362 37.6443 57.0253 37.7519 56.7204C38.0269 55.9373 38.4872 55.208 38.547 54.377C38.5649 54.102 38.5111 53.7792 38.266 53.6537C38.0329 53.5341 37.7519 53.6596 37.5247 53.7912C37.1959 53.9825 36.8851 54.2036 36.5802 54.4368C36.3291 54.6221 36.0123 54.7297 35.7253 54.8553C35.5818 54.915 35.4264 54.933 35.277 54.915C35.1574 54.6879 35.1155 53.9167 35.1873 53.5819C35.2172 53.4444 35.2112 53.295 35.2471 53.0977C35.277 52.9004 35.3367 52.5955 35.3427 52.3385C35.3427 52.0754 35.1574 52.0934 34.99 52.2966C34.5715 52.8048 34.2368 53.3846 33.7824 53.8748C33.6928 53.9705 33.5971 54.0661 33.5194 54.1738C33.352 54.12 33.1846 54.0721 33.0172 54.0482C32.7542 54.0123 32.527 54.0004 32.2879 54.0363C32.27 54.0363 32.252 54.0422 32.2341 54.0422C32.2281 54.0422 32.2221 54.0482 32.2162 54.0482C32.1444 54.0602 32.0727 54.0781 32.001 54.102C31.989 54.108 31.977 54.108 31.9651 54.108C31.9412 54.114 31.9232 54.1259 31.8993 54.1379C31.8575 54.1558 31.8216 54.1678 31.7798 54.1917C31.7678 54.1977 31.7618 54.2036 31.7499 54.2096C31.6482 54.2634 31.5406 54.3232 31.439 54.3949C30.9847 54.7118 30.9667 54.5623 30.3331 54.5743C29.7054 54.5862 29.2749 56.1944 29.4423 56.7204C29.6456 57.372 30.0999 58.0356 30.4765 58.7111C30.6021 59.0041 30.7575 59.5361 30.8651 60.1758C30.9727 61.0904 29.4244 63.4637 30.2434 65.1376C29.3467 65.8071 27.8223 65.9028 26.9734 66.1778C25.8973 66.5245 26.1902 68.031 26.9495 68.2163C27.613 68.3777 28.7668 68.3777 29.7113 68.3239C29.9206 68.2821 29.9206 68.025 29.8728 67.8995C29.6575 67.1283 29.6097 66.4528 30.1597 66.0582C30.4885 65.8251 31.4569 65.9566 31.8455 65.9148C32.3895 65.855 32.9694 65.855 33.4955 65.6577C33.7824 65.5501 34.0156 65.4365 34.3145 65.3409C34.6253 65.2452 34.727 65.4963 34.5357 65.6816C34.0993 66.0224 33.1846 66.3631 32.4015 66.393C31.8276 66.4109 31.1042 66.381 30.7814 66.8593C30.3869 67.4392 30.6619 68.2343 31.158 68.4136C32.1624 68.6467 34.1112 68.4554 34.8047 68.3718C35.4623 68.294 36.909 68.1147 37.5666 68.037C39.1866 67.8397 40.1252 67.7859 41.3507 67.7859C41.7154 67.8576 42.08 67.9114 42.4327 67.9413C43.1083 67.9951 43.7539 68.037 44.3936 68.0728C44.2262 68.3718 44.2262 68.7663 44.4773 68.9815C44.6865 69.1609 44.9914 69.1609 45.2664 69.1549C47.3946 69.1071 48.8891 69.0712 50.9276 69.0234C51.7945 69.0293 53.6058 68.9397 54.6161 68.2701C54.8911 68.0848 55.184 67.8457 55.4112 67.5527L55.4531 67.5049C55.7041 67.1163 55.8476 66.8653 56.2063 66.8174C56.2123 66.8174 56.2123 66.8115 56.2183 66.8115C56.3438 66.7876 56.5172 66.8055 56.5172 66.8055L56.822 66.8294L56.834 66.8354C58.753 66.9789 60.6002 66.668 61.9154 65.4544C63.5414 63.9539 64.3007 60.923 64.3903 58.4003C64.4381 57.3123 64.3485 54.6819 63.38 54.4308Z" fill="#E97512"/>
<path d="M73.4133 41.5784C73.0008 41.5784 72.666 41.2436 72.666 40.8312V34.5422C72.666 34.1297 73.0008 33.7949 73.4133 33.7949C73.8258 33.7949 74.1605 34.1297 74.1605 34.5422V40.8312C74.1665 41.2436 73.8258 41.5784 73.4133 41.5784Z" fill="#716F6F"/>
<path d="M76.7911 47.0364H75.5656C75.1531 47.0364 74.8184 46.7016 74.8184 46.2892C74.8184 45.8767 75.1531 45.5419 75.5656 45.5419H76.7911C83.0861 45.5419 83.0861 41.6681 83.0861 37.9198V34.5422C83.0861 34.1297 83.4208 33.7949 83.8333 33.7949C84.2458 33.7949 84.5806 34.1297 84.5806 34.5422V37.9198C84.5866 41.5485 84.5866 47.0364 76.7911 47.0364Z" fill="#716F6F"/>
<path d="M100.996 40.1119L92.5545 39.2033C92.1241 39.1554 91.7953 38.7908 91.7953 38.3604V34.5344C91.7953 34.1219 91.4605 33.7871 91.048 33.7871C90.6356 33.7871 90.3008 34.1219 90.3008 34.5344V46.2813C90.3008 46.6938 90.6356 47.0286 91.048 47.0286C91.4605 47.0286 91.7953 46.6938 91.7953 46.2813V41.5706C91.7953 41.0684 92.2317 40.6739 92.7339 40.7277L100.888 41.6005C100.918 41.6065 100.942 41.6065 100.972 41.6065C101.372 41.6065 101.707 41.2896 101.719 40.8771C101.725 40.4826 101.39 40.1538 100.996 40.1119Z" fill="#716F6F"/>
<path d="M105.93 47.0364C105.775 47.0364 105.613 46.9886 105.482 46.887C105.153 46.6359 105.087 46.1696 105.338 45.8408C106.534 44.2626 107.042 42.2061 107.042 38.9779V34.5422C107.042 34.1297 107.377 33.7949 107.789 33.7949C108.202 33.7949 108.537 34.1297 108.537 34.5422V38.9779C108.537 42.511 107.915 44.9082 106.528 46.7435C106.384 46.9348 106.157 47.0364 105.93 47.0364Z" fill="#716F6F"/>
<path d="M112.617 47.0364C112.57 47.0364 112.546 47.0364 112.54 47.0364C112.139 47.0185 111.822 46.6897 111.822 46.2892V34.5422C111.822 34.1297 112.157 33.7949 112.57 33.7949C112.982 33.7949 113.317 34.1297 113.317 34.5422V45.0397C113.317 45.2908 113.544 45.4702 113.789 45.4223C115.17 45.1533 117.406 44.2745 118.572 41.423C118.715 41.0763 119.074 40.8371 119.438 40.9148C119.905 41.0165 120.15 41.5007 119.982 41.9251C118.016 46.8571 113.281 47.0364 112.617 47.0364Z" fill="#716F6F"/>
<path d="M140.71 47.0346C140.351 47.0346 140.034 46.7775 139.974 46.4129C139.903 46.0064 140.178 45.6178 140.584 45.5461C142.736 45.1694 144.075 43.1369 144.075 40.2375C144.075 39.825 144.41 39.4902 144.823 39.4902C145.235 39.4902 145.57 39.825 145.57 40.2375C145.57 43.914 143.758 46.5085 140.841 47.0167C140.793 47.0286 140.751 47.0346 140.71 47.0346Z" fill="#716F6F"/>
<path d="M168.016 36.0593C167.974 36.0593 167.932 36.0533 167.89 36.0473C162.701 35.1805 157.817 35.2821 157.769 35.2821C157.357 35.2702 157.01 34.9653 157.004 34.5528C156.992 34.1403 157.321 33.7996 157.734 33.7876C157.937 33.7816 162.803 33.68 168.135 34.5707C168.542 34.6365 168.817 35.0251 168.751 35.4316C168.691 35.8022 168.375 36.0593 168.016 36.0593Z" fill="#716F6F"/>
<path d="M167.468 41.1888C167.42 41.1888 167.366 41.1828 167.318 41.1708C162.679 40.2263 157.795 40.1665 157.747 40.1665C157.335 40.1605 157 39.8258 157.006 39.4073C157.012 38.9948 157.347 38.666 157.753 38.666H157.759C157.962 38.666 162.835 38.7318 167.611 39.7002C168.018 39.7839 168.281 40.1785 168.197 40.585C168.125 40.9437 167.814 41.1888 167.468 41.1888Z" fill="#716F6F"/>
<path d="M168.255 47.0362C168.195 47.0362 168.142 47.0302 168.082 47.0183C162.528 45.6852 156.825 45.3026 156.765 45.2966C156.353 45.2667 156.042 44.914 156.066 44.5015C156.096 44.089 156.448 43.7782 156.861 43.8021C156.921 43.8081 162.755 44.2026 168.428 45.5596C168.829 45.6553 169.08 46.0618 168.984 46.4623C168.901 46.8031 168.596 47.0362 168.255 47.0362Z" fill="#716F6F"/>
<path d="M199.814 41.1586H188.57C188.157 41.1586 187.822 40.8238 187.822 40.4113C187.822 39.9988 188.157 39.6641 188.57 39.6641H199.814C200.227 39.6641 200.562 39.9988 200.562 40.4113C200.562 40.8238 200.233 41.1586 199.814 41.1586Z" fill="#716F6F"/>
<path d="M173.487 41.5784C173.075 41.5784 172.74 41.2436 172.74 40.8312V34.5422C172.74 34.1297 173.075 33.7949 173.487 33.7949C173.9 33.7949 174.235 34.1297 174.235 34.5422V40.8312C174.235 41.2436 173.9 41.5784 173.487 41.5784Z" fill="#716F6F"/>
<path d="M176.865 47.0364H175.64C175.227 47.0364 174.893 46.7016 174.893 46.2892C174.893 45.8767 175.227 45.5419 175.64 45.5419H176.865C183.16 45.5419 183.16 41.6681 183.16 37.9198V34.5422C183.16 34.1297 183.495 33.7949 183.908 33.7949C184.32 33.7949 184.655 34.1297 184.655 34.5422V37.9198C184.655 41.5485 184.655 47.0364 176.865 47.0364Z" fill="#716F6F"/>
<path d="M134.719 34.2129H123.253C122.841 34.2129 122.506 34.5477 122.506 34.9602C122.506 35.3726 122.841 35.7074 123.253 35.7074H133.356C133.822 35.7074 133.93 35.8569 133.942 36.2574C133.691 42.9349 131.413 45.2485 125.351 45.2485H124.311C123.899 45.2485 123.564 45.5832 123.564 45.9957C123.564 46.4082 123.899 46.743 124.311 46.743H125.351C132.633 46.743 135.472 43.4371 135.472 34.9542C135.466 34.5477 135.132 34.2129 134.719 34.2129Z" fill="#716F6F"/>
<path d="M151.906 37.3994C151.852 37.0288 151.47 36.7598 150.902 36.7598H140.368C139.956 36.7598 139.621 37.0945 139.621 37.507C139.621 37.9195 139.956 38.2543 140.368 38.2543H150.125C150.37 38.2603 150.447 38.344 150.465 38.4994C150.459 39.3901 150.304 40.7651 149.491 41.7037C148.881 42.4091 147.996 42.7498 146.789 42.7498C146.376 42.7498 146.042 43.0846 146.042 43.4971C146.042 43.9096 146.376 44.2444 146.789 44.2444C148.439 44.2444 149.73 43.7183 150.627 42.6721C152.36 40.6754 151.924 37.5309 151.906 37.3994Z" fill="#716F6F"/>
<path d="M76.1491 58.2434H77.6317C77.9186 58.2434 78.1578 58.0102 78.1578 57.7233C78.1996 52.1158 78.1637 52.0142 78.1279 51.9066C78.0382 51.6316 77.7393 51.4821 77.4643 51.5778C77.2192 51.6615 77.0698 51.9066 77.1116 52.1577C77.1355 52.4805 77.1236 55.2184 77.1116 57.1972H76.1491C75.8562 57.1972 75.623 57.4303 75.623 57.7233C75.623 58.0042 75.8562 58.2434 76.1491 58.2434Z" fill="#716F6F"/>
<path d="M74.2842 52.9182C73.9972 52.8823 73.7342 53.0856 73.6983 53.3725C73.6983 53.3964 73.4233 55.5127 72.3413 57.0132C72.1739 57.2463 72.2217 57.5751 72.4608 57.7485C72.5565 57.8142 72.6641 57.8501 72.7657 57.8501C72.9271 57.8501 73.0885 57.7724 73.1902 57.6349C74.4276 55.9192 74.7265 53.6057 74.7385 53.51C74.7744 53.2171 74.5711 52.954 74.2842 52.9182Z" fill="#716F6F"/>
<path d="M80.7345 53.0138C80.5014 53.1812 80.4476 53.51 80.615 53.7491C81.6851 55.2376 81.9063 57.1387 81.9122 57.1626C81.9421 57.4316 82.1693 57.6289 82.4323 57.6289C82.4503 57.6289 82.4682 57.6289 82.4921 57.6229C82.7791 57.593 82.9883 57.336 82.9584 57.043C82.9464 56.9534 82.7133 54.8491 81.4698 53.1274C81.2965 52.9002 80.9677 52.8464 80.7345 53.0138Z" fill="#716F6F"/>
<path d="M81.1698 57.5681C80.8948 57.4724 80.5959 57.6219 80.5003 57.8909C80.4465 58.0344 79.1911 61.4598 73.8347 61.4598C73.5417 61.4598 73.3086 61.693 73.3086 61.9859C73.3086 62.2788 73.5417 62.512 73.8347 62.512C79.9742 62.512 81.4388 58.411 81.4926 58.2316C81.5883 57.9566 81.4388 57.6637 81.1698 57.5681Z" fill="#716F6F"/>
<path d="M86.0117 54.4192C86.2867 54.4192 86.5079 54.198 86.5079 53.923V53.5284H90.2263V53.923C90.2263 54.198 90.4474 54.4192 90.7224 54.4192C90.9974 54.4192 91.2186 54.198 91.2186 53.923V53.0322C91.2186 52.7572 90.9974 52.5361 90.7224 52.5361H88.8812C88.9051 52.2611 88.8991 52.0518 88.8513 51.9143C88.7676 51.6573 88.4807 51.4959 88.2236 51.5855C87.9665 51.6692 87.8231 51.9323 87.9068 52.1893C87.9127 52.2371 87.9067 52.3866 87.8948 52.5062C87.8948 52.5181 87.9008 52.5241 87.8948 52.5361H86.0177C85.7427 52.5361 85.5215 52.7572 85.5215 53.0322V53.923C85.5215 54.198 85.7427 54.4192 86.0117 54.4192Z" fill="#716F6F"/>
<path d="M90.0961 59.1641H86.6407C86.3657 59.1641 86.1445 59.3853 86.1445 59.6602V61.9857C86.1445 62.2607 86.3657 62.4819 86.6407 62.4819H90.0961C90.371 62.4819 90.5922 62.2607 90.5922 61.9857V59.6602C90.5863 59.3853 90.3651 59.1641 90.0961 59.1641ZM89.5999 61.4895H87.1309V60.1505H89.5999V61.4895Z" fill="#716F6F"/>
<path d="M90.7374 57.6232C90.1396 57.6232 89.6076 57.408 89.1532 57.1091C89.8228 56.3439 90.1635 55.4592 90.2652 54.8494C90.2891 54.7059 90.2532 54.5565 90.1576 54.4429C90.0619 54.3293 89.9244 54.2695 89.7809 54.2695L87.4375 54.2815C87.2582 54.2815 87.0908 54.3831 87.0071 54.5445C86.9473 54.6581 86.8098 54.8733 86.6365 55.1005C86.6185 55.1244 86.6006 55.1423 86.5827 55.1662C86.3675 55.4353 86.0865 55.7162 85.7816 55.8836C85.5425 56.0151 85.4588 56.314 85.5903 56.5532C85.7218 56.7923 86.0207 56.882 86.2598 56.7445C86.5049 56.6129 86.7202 56.4336 86.9174 56.2483C87.0968 56.4994 87.3359 56.8042 87.6288 57.1151C87.1984 57.3781 86.6604 57.5754 85.9849 57.6173C85.7099 57.6352 85.5066 57.8683 85.5245 58.1433C85.5425 58.4064 85.7577 58.6037 86.0147 58.6037C86.0267 58.6037 86.0387 58.6037 86.0446 58.6037C87.0191 58.5379 87.7843 58.2211 88.394 57.7847C89.0277 58.245 89.8108 58.6037 90.7374 58.6037C91.0124 58.6037 91.2336 58.3825 91.2336 58.1075C91.2336 57.8444 91.0124 57.6232 90.7374 57.6232ZM89.1174 55.2679C88.9799 55.6146 88.7527 56.0689 88.3881 56.4814C88.0174 56.1048 87.7424 55.7222 87.581 55.4771C87.6288 55.4054 87.6767 55.3336 87.7185 55.2798L89.1174 55.2679Z" fill="#716F6F"/>
<path d="M92.0686 52.9826H93.4376C93.3539 53.2576 93.1745 53.6223 92.8338 53.9809H92.3735C92.0985 53.9809 91.8773 54.2021 91.8773 54.4771V59.6422C91.8773 59.9172 92.0985 60.1384 92.3735 60.1384H95.5478C95.8228 60.1384 96.044 59.9172 96.044 59.6422V54.4771C96.044 54.2021 95.8228 53.9809 95.5478 53.9809H94.0593C94.2805 53.5924 94.4 53.2397 94.4538 52.9826H95.8587C96.1337 52.9826 96.3549 52.7614 96.3549 52.4864C96.3549 52.2114 96.1337 51.9902 95.8587 51.9902H92.0626C91.7876 51.9902 91.5664 52.2114 91.5664 52.4864C91.5724 52.7614 91.7936 52.9826 92.0686 52.9826ZM95.0576 57.4303H92.8696V56.695H95.0576V57.4303ZM92.8696 59.152V58.4167H95.0576V59.152H92.8696ZM95.0576 55.7086H92.8696V54.9733H95.0576V55.7086Z" fill="#716F6F"/>
<path d="M92.9849 60.6776C92.7458 60.5401 92.4469 60.6238 92.3094 60.8629C92.0464 61.3172 91.5024 61.5205 91.4964 61.5205C91.2393 61.6101 91.1018 61.8911 91.1915 62.1482C91.2632 62.3514 91.4545 62.4829 91.6578 62.4829C91.7116 62.4829 91.7654 62.477 91.8192 62.459C91.9089 62.4291 92.7279 62.1302 93.1703 61.3591C93.3078 61.114 93.2241 60.8151 92.9849 60.6776Z" fill="#716F6F"/>
<path d="M96.4289 61.5217C96.4229 61.5217 95.8789 61.3244 95.6158 60.8641C95.4783 60.625 95.1794 60.5473 94.9403 60.6788C94.7012 60.8103 94.6235 61.1152 94.755 61.3543C95.1974 62.1315 96.0164 62.4244 96.106 62.4543C96.1598 62.4722 96.2136 62.4782 96.2674 62.4782C96.4707 62.4782 96.668 62.3467 96.7337 62.1434C96.8294 61.8864 96.6919 61.6054 96.4289 61.5217Z" fill="#716F6F"/>
<path d="M108.796 54.0586H104.82C104.545 54.0586 104.324 54.2798 104.324 54.5548V57.6335C104.324 57.9085 104.545 58.1297 104.82 58.1297H108.796C109.071 58.1297 109.292 57.9085 109.292 57.6335V54.5548C109.292 54.2798 109.071 54.0586 108.796 54.0586ZM108.3 57.1373H105.311V55.045H108.3V57.1373Z" fill="#716F6F"/>
<path d="M104.664 52.9826H108.879C109.154 52.9826 109.375 52.7614 109.375 52.4864C109.375 52.2114 109.154 51.9902 108.879 51.9902H104.664C104.389 51.9902 104.168 52.2114 104.168 52.4864C104.168 52.7614 104.389 52.9826 104.664 52.9826Z" fill="#716F6F"/>
<path d="M109.161 61.2446H108.408L108.982 59.2001C109.054 58.9371 108.904 58.6621 108.641 58.5904C108.378 58.5127 108.103 58.6681 108.031 58.9311L107.386 61.2387H106.172L105.526 58.9311C105.455 58.6681 105.18 58.5127 104.917 58.5904C104.654 58.6621 104.498 58.9371 104.576 59.2001L105.15 61.2446H104.397C104.122 61.2446 103.9 61.4658 103.9 61.7408C103.9 62.0158 104.122 62.237 104.397 62.237H109.173C109.448 62.237 109.669 62.0158 109.669 61.7408C109.669 61.4658 109.43 61.2446 109.161 61.2446Z" fill="#716F6F"/>
<path d="M103.206 53.5229C103.481 53.5229 103.702 53.3017 103.702 53.0267C103.702 52.7517 103.481 52.5305 103.206 52.5305H100.313C100.337 52.1598 100.337 51.9088 100.337 51.8789C100.331 51.6099 100.116 51.3887 99.8406 51.3887H99.8347C99.5597 51.3887 99.3444 51.6158 99.3444 51.8908C99.3444 51.9088 99.3564 53.6604 98.7765 54.9696C98.6629 55.2206 98.7765 55.5136 99.0276 55.6212C99.0934 55.6511 99.1591 55.663 99.2249 55.663C99.4162 55.663 99.5955 55.5554 99.6792 55.3701C99.9482 54.7663 100.104 54.1087 100.199 53.5169H100.994V56.4342H99.4879C99.2129 56.4342 98.9917 56.6554 98.9917 56.9304C98.9917 57.2054 99.2129 57.4266 99.4879 57.4266H100.97C100.821 59.0646 99.8944 60.852 99.0276 61.6112C98.8244 61.7906 98.8005 62.1014 98.9798 62.3107C99.0754 62.4243 99.2129 62.4781 99.3504 62.4781C99.464 62.4781 99.5836 62.4362 99.6732 62.3585C100.379 61.7487 101.114 60.589 101.562 59.2917C101.945 59.77 102.483 60.4634 102.782 60.9716C102.872 61.127 103.039 61.2167 103.206 61.2167C103.29 61.2167 103.38 61.1928 103.457 61.1509C103.691 61.0134 103.768 60.7085 103.631 60.4754C103.099 59.5727 101.969 58.2396 101.873 58.12C101.915 57.8929 101.945 57.6657 101.963 57.4385H103.206C103.481 57.4385 103.702 57.2173 103.702 56.9423C103.702 56.6673 103.481 56.4461 103.206 56.4461H101.981V53.5288H103.206V53.5229Z" fill="#716F6F"/>
<path d="M122.168 51.8242H118.993C118.718 51.8242 118.497 52.0454 118.497 52.3204V59.2132C118.497 60.1039 118.252 61.162 117.923 61.7419C117.786 61.975 117.863 62.2799 118.103 62.4174C118.18 62.4652 118.264 62.4832 118.348 62.4832C118.515 62.4832 118.682 62.3935 118.778 62.2381C119.203 61.5087 119.489 60.2952 119.489 59.2132V58.8963H121.677V60.9229C121.677 61.4071 121.516 61.4908 121.151 61.4908H120.613C120.338 61.4908 120.117 61.712 120.117 61.987C120.117 62.262 120.338 62.4832 120.613 62.4832H121.151C122.114 62.4832 122.67 61.9153 122.67 60.9289V52.3204C122.658 52.0454 122.437 51.8242 122.168 51.8242ZM121.671 52.8166V54.8611H119.484V52.8166H121.671ZM119.484 57.9099V55.8475H121.671V57.9099H119.484Z" fill="#716F6F"/>
<path d="M113.864 60.4041C113.625 60.2666 113.326 60.3503 113.189 60.5894C112.884 61.1215 112.25 61.5878 112.244 61.5878C112.023 61.7492 111.975 62.0541 112.137 62.2753C112.232 62.4068 112.382 62.4785 112.537 62.4785C112.639 62.4785 112.74 62.4486 112.824 62.3829C112.854 62.359 113.631 61.791 114.044 61.0737C114.181 60.8405 114.097 60.5416 113.864 60.4041Z" fill="#716F6F"/>
<path d="M116.372 60.5868C116.234 60.3477 115.935 60.2699 115.696 60.4015C115.457 60.539 115.379 60.8379 115.511 61.077C115.923 61.7944 116.7 62.3623 116.73 62.3862C116.82 62.452 116.922 62.4818 117.017 62.4818C117.173 62.4818 117.322 62.4101 117.418 62.2786C117.579 62.0574 117.531 61.7465 117.31 61.5911C117.31 61.5792 116.677 61.1188 116.372 60.5868Z" fill="#716F6F"/>
<path d="M117.122 53.3833C117.397 53.3833 117.618 53.1621 117.618 52.8871C117.618 52.6121 117.397 52.3909 117.122 52.3909H117.098V51.8888C117.098 51.6138 116.877 51.3926 116.602 51.3926C116.327 51.3926 116.106 51.6138 116.106 51.8888V52.3969H113.655V51.8888C113.655 51.6138 113.434 51.3926 113.159 51.3926C112.884 51.3926 112.662 51.6138 112.662 51.8888V52.3969H112.555C112.28 52.3969 112.059 52.6181 112.059 52.8931C112.059 53.1681 112.28 53.3893 112.555 53.3893H112.662V58.919H112.555C112.28 58.919 112.059 59.1402 112.059 59.4152C112.059 59.6902 112.28 59.9114 112.555 59.9114H117.116C117.391 59.9114 117.612 59.6902 117.612 59.4152C117.612 59.1402 117.391 58.919 117.116 58.919H117.092V53.3833H117.122ZM116.106 56.6294H113.655V55.4995H116.106V56.6294ZM113.661 58.919V57.6158H116.112V58.919H113.661ZM116.106 54.5131H113.655V53.3833H116.106V54.5131Z" fill="#716F6F"/>
<path d="M127.155 51.3994C126.886 51.3695 126.64 51.5728 126.617 51.8478C126.617 51.8717 126.348 54.4602 124.584 56.8275C124.423 57.0487 124.464 57.3536 124.686 57.521C124.775 57.5867 124.877 57.6166 124.979 57.6166C125.128 57.6166 125.277 57.5509 125.373 57.4194C125.678 57.0069 125.941 56.5944 126.168 56.1819V61.9866C126.168 62.2616 126.389 62.4828 126.664 62.4828C126.939 62.4828 127.161 62.2616 127.161 61.9866V53.8982C127.513 52.7863 127.591 51.9972 127.597 51.9374C127.627 51.6624 127.43 51.4233 127.155 51.3994Z" fill="#716F6F"/>
<path d="M135.537 57.3473H132.446V56.0561H134.688C134.963 56.0561 135.184 55.8349 135.184 55.5599V52.4513C135.184 52.1763 134.963 51.9551 134.688 51.9551H129.218C128.943 51.9551 128.722 52.1763 128.722 52.4513V55.5599C128.722 55.8349 128.943 56.0561 129.218 56.0561H131.46V57.3473H128.369C128.094 57.3473 127.873 57.5685 127.873 57.8435C127.873 58.1185 128.094 58.3397 128.369 58.3397H131.161C130.749 59.0272 129.9 60.1212 128.292 60.994C128.052 61.1255 127.963 61.4244 128.094 61.6635C128.184 61.8309 128.351 61.9206 128.531 61.9206C128.608 61.9206 128.692 61.9026 128.764 61.8608C130.037 61.1733 130.898 60.3483 131.46 59.6369V61.9863C131.46 62.2613 131.681 62.4825 131.956 62.4825C132.231 62.4825 132.452 62.2613 132.452 61.9863V59.6369C133.014 60.3483 133.875 61.1733 135.148 61.8608C135.226 61.9026 135.304 61.9206 135.382 61.9206C135.555 61.9206 135.728 61.8249 135.818 61.6635C135.949 61.4244 135.86 61.1255 135.621 60.994C134.025 60.1331 133.17 59.0331 132.757 58.3397H135.543C135.818 58.3397 136.039 58.1185 136.039 57.8435C136.033 57.5685 135.812 57.3473 135.537 57.3473ZM129.714 52.9474H134.192V55.0697H129.714V52.9474Z" fill="#716F6F"/>
<path d="M141.971 58.3047C141.971 57.4499 141.923 56.876 141.839 56.601C141.648 56.0091 141.331 55.6624 141.062 55.4651C141.247 54.9689 141.54 54.1141 141.701 53.4266C141.797 53.0021 141.869 52.4761 141.594 52.1234C141.349 51.8125 140.99 51.8125 140.793 51.8125H138.838C138.563 51.8125 138.342 52.0337 138.342 52.3087V61.9813C138.342 62.2562 138.563 62.4774 138.838 62.4774C139.113 62.4774 139.334 62.2562 139.334 61.9813V52.8049H140.793H140.799C140.799 52.8826 140.781 53.0081 140.739 53.2054C140.524 54.1499 139.998 55.495 139.992 55.507C139.944 55.6325 139.956 55.776 140.01 55.9015C140.069 56.0271 140.183 56.1227 140.315 56.1646C140.333 56.1705 140.709 56.2961 140.906 56.9058C140.948 57.0314 140.99 57.5216 140.99 58.3047C140.99 58.4661 140.954 59.2014 140.954 59.2014C140.882 59.7454 140.338 59.7753 140.183 59.7634C139.908 59.7335 139.681 59.9607 139.663 60.2356C139.651 60.5106 139.86 60.7378 140.135 60.7557C140.685 60.7797 141.773 60.5166 141.935 59.2911C141.935 59.2911 141.971 58.4781 141.971 58.3047Z" fill="#716F6F"/>
<path d="M149.131 61.5012C149.107 61.4952 147.176 61.1066 146.375 59.7317H148.186C148.461 59.7317 148.683 59.5105 148.683 59.2355V56.9459C148.683 56.6709 148.461 56.4497 148.186 56.4497H146.088V55.6486H147.941C148.216 55.6486 148.437 55.4274 148.437 55.1524C148.437 54.8774 148.216 54.6562 147.941 54.6562H143.183C142.908 54.6562 142.687 54.8774 142.687 55.1524C142.687 55.4274 142.908 55.6486 143.183 55.6486H145.096V56.4497H142.997C142.722 56.4497 142.501 56.6709 142.501 56.9459V59.2355C142.501 59.5105 142.722 59.7317 142.997 59.7317H144.809C144.008 61.1066 142.077 61.4952 142.053 61.5012C141.784 61.549 141.61 61.812 141.658 62.0751C141.706 62.3142 141.909 62.4756 142.143 62.4756C142.172 62.4756 142.202 62.4756 142.232 62.4696C142.346 62.4457 144.54 62.0153 145.592 60.3534C146.644 62.0153 148.838 62.4517 148.952 62.4696C148.981 62.4756 149.011 62.4756 149.041 62.4756C149.274 62.4756 149.484 62.3082 149.525 62.0751C149.573 61.8061 149.4 61.549 149.131 61.5012ZM147.69 57.442V58.7453H146.082V57.442H147.69ZM143.488 57.442H145.096V58.7453H143.488V57.442Z" fill="#716F6F"/>
<path d="M162.556 60.8741C161.265 60.0252 160.129 58.4171 159.746 57.2753H161.803C162.078 57.2753 162.299 57.0541 162.299 56.7791C162.299 56.5041 162.078 56.2829 161.803 56.2829H159.609V54.0411H161.558C161.833 54.0411 162.054 53.8199 162.054 53.5449C162.054 53.2699 161.833 53.0488 161.558 53.0488H159.609V51.877C159.609 51.6021 159.388 51.3809 159.113 51.3809C158.838 51.3809 158.616 51.6021 158.616 51.877V53.0488H157.271C157.373 52.3912 157.373 51.9189 157.373 51.877C157.373 51.6021 157.152 51.3809 156.883 51.3809C156.614 51.3809 156.393 51.602 156.387 51.8711C156.387 51.889 156.369 53.802 155.526 55.2846C155.388 55.5237 155.472 55.8226 155.711 55.9601C155.789 56.0019 155.872 56.0258 155.956 56.0258C156.129 56.0258 156.297 55.9362 156.387 55.7748C156.709 55.2068 156.925 54.6031 157.068 54.0351H158.61V56.2829H156.416C156.141 56.2829 155.92 56.5041 155.92 56.7791C155.92 57.0541 156.141 57.2753 156.416 57.2753H158.473C158.09 58.4231 156.948 60.0312 155.663 60.8741C155.436 61.0235 155.37 61.3284 155.52 61.5556C155.615 61.6991 155.771 61.7768 155.932 61.7768C156.028 61.7768 156.118 61.7529 156.201 61.6931C157.098 61.1013 157.971 60.1567 158.604 59.1703V61.98C158.604 62.255 158.826 62.4762 159.101 62.4762C159.376 62.4762 159.597 62.255 159.597 61.98V59.1703C160.23 60.1567 161.103 61.1013 162 61.6931C162.084 61.7469 162.179 61.7768 162.269 61.7768C162.43 61.7768 162.586 61.6991 162.681 61.5556C162.849 61.3284 162.783 61.0235 162.556 60.8741Z" fill="#716F6F"/>
<path d="M154.985 54.0413C155.26 54.0413 155.481 53.8201 155.481 53.5451C155.481 53.2701 155.26 53.0489 154.985 53.0489H153.807V51.9669C153.807 51.6919 153.586 51.4707 153.311 51.4707C153.036 51.4707 152.815 51.6919 152.815 51.9669V53.0489H151.637C151.362 53.0489 151.141 53.2701 151.141 53.5451C151.141 53.8201 151.362 54.0413 151.637 54.0413H152.815V54.8483C152.803 55.0038 152.546 57.9031 150.985 59.583C150.8 59.7803 150.812 60.0971 151.009 60.2824C151.105 60.3721 151.224 60.4139 151.344 60.4139C151.476 60.4139 151.607 60.3601 151.709 60.2585C152.169 59.7623 152.534 59.1884 152.815 58.5966V61.9862C152.815 62.2612 153.036 62.4824 153.311 62.4824C153.586 62.4824 153.807 62.2612 153.807 61.9862V56.7972L154.429 57.4369C154.524 57.5385 154.656 57.5863 154.781 57.5863C154.907 57.5863 155.033 57.5385 155.128 57.4488C155.325 57.2575 155.325 56.9466 155.14 56.7494L153.813 55.3804V54.0413H154.985Z" fill="#716F6F"/>
<path d="M172.504 54.7471V54.0716H174.997C175.29 54.0716 175.523 53.8385 175.523 53.5455C175.523 53.2526 175.29 53.0195 174.997 53.0195H174.829V51.9673C174.829 51.6923 174.608 51.4711 174.333 51.4711C174.058 51.4711 173.837 51.6923 173.837 51.9673V53.0195H172.498V51.8776C172.498 51.5847 172.265 51.3516 171.972 51.3516C171.679 51.3516 171.446 51.5847 171.446 51.8776V53.0195H165.067C164.774 53.0195 164.541 53.2526 164.541 53.5455C164.541 53.8385 164.774 54.0716 165.067 54.0716H171.446V54.7471C171.446 56.4569 172.283 60.7611 174.764 62.423C174.853 62.4828 174.955 62.5127 175.057 62.5127C175.224 62.5127 175.391 62.429 175.493 62.2795C175.654 62.0404 175.589 61.7116 175.349 61.5502C173.365 60.2171 172.504 56.3971 172.504 54.7471Z" fill="#716F6F"/>
<path d="M170.311 59.5705C169.665 59.9471 168.978 60.246 168.32 60.4851V57.1732H170.263C170.556 57.1732 170.789 56.9401 170.789 56.6472C170.789 56.3542 170.556 56.1211 170.263 56.1211H165.224C164.931 56.1211 164.698 56.3542 164.698 56.6472C164.698 56.9401 164.931 57.1732 165.224 57.1732H167.268V60.8318C166.055 61.1905 165.128 61.322 165.11 61.322C164.823 61.3639 164.62 61.6269 164.662 61.9139C164.698 62.1769 164.925 62.3682 165.182 62.3682C165.206 62.3682 165.23 62.3682 165.254 62.3622C165.379 62.3443 168.356 61.9139 170.831 60.4791C171.082 60.3357 171.166 60.0128 171.022 59.7618C170.879 59.5107 170.562 59.427 170.311 59.5705Z" fill="#716F6F"/>
<path d="M187.396 54.5678C184.312 53.6173 182.823 51.6744 182.811 51.6565C182.71 51.525 182.554 51.4473 182.393 51.4473C182.225 51.4473 182.07 51.525 181.974 51.6565C181.962 51.6744 180.468 53.6173 177.383 54.5678C177.108 54.6515 176.953 54.9504 177.036 55.2254C177.12 55.5004 177.419 55.6558 177.694 55.5722C180.169 54.807 181.705 53.4798 182.393 52.7684C183.08 53.4798 184.617 54.8129 187.091 55.5722C187.145 55.5901 187.193 55.5961 187.247 55.5961C187.474 55.5961 187.677 55.4526 187.749 55.2254C187.827 54.9504 187.671 54.6515 187.396 54.5678Z" fill="#716F6F"/>
<path d="M185.506 56.5639C185.798 56.5639 186.032 56.3307 186.032 56.0378C186.032 55.7449 185.798 55.5117 185.506 55.5117H179.264C178.971 55.5117 178.738 55.7449 178.738 56.0378C178.738 56.3307 178.971 56.5639 179.264 56.5639H185.506Z" fill="#716F6F"/>
<path d="M187.051 57.8984H177.725C177.432 57.8984 177.199 58.1316 177.199 58.4245C177.199 58.7174 177.432 58.9506 177.725 58.9506H179.459C178.777 60.3495 178.15 61.5929 178.144 61.6108C178.066 61.7663 178.072 61.9456 178.162 62.0891C178.251 62.2326 178.407 62.3222 178.58 62.3222C178.586 62.3222 178.604 62.3222 178.628 62.3222C179.19 62.3222 183.775 62.2923 185.885 61.3897C186.089 61.6527 186.304 61.9456 186.519 62.2625C186.615 62.4059 186.77 62.4777 186.932 62.4777C187.027 62.4777 187.123 62.4478 187.207 62.394C187.434 62.2385 187.494 61.9337 187.338 61.7065C186.537 60.5228 185.7 59.6142 185.664 59.5783C185.479 59.381 185.168 59.3691 184.965 59.5544C184.768 59.7397 184.756 60.0506 184.941 60.2538C184.947 60.2598 185.054 60.3793 185.234 60.5826C183.65 61.1445 180.78 61.282 179.387 61.3179C179.686 60.7261 180.123 59.8413 180.559 58.9446H187.051C187.344 58.9446 187.577 58.7115 187.577 58.4185C187.577 58.1256 187.344 57.8984 187.051 57.8984Z" fill="#716F6F"/>
<path d="M193.751 59.2905C193.882 59.2905 194.014 59.2427 194.115 59.141C194.325 58.9378 194.331 58.603 194.127 58.3998L192.567 56.7916C193.631 55.1955 194.086 53.7906 194.109 53.701C194.157 53.5395 194.127 53.3662 194.032 53.2347C193.93 53.0972 193.775 53.0195 193.607 53.0195H192.406V51.8776C192.406 51.5847 192.173 51.3516 191.88 51.3516C191.587 51.3516 191.354 51.5847 191.354 51.8776V53.0195H190.068C189.775 53.0195 189.542 53.2526 189.542 53.5455C189.542 53.8385 189.775 54.0716 190.068 54.0716H192.842C192.388 55.1417 191.306 57.246 189.381 58.7226C189.154 58.9019 189.106 59.2307 189.285 59.4579C189.387 59.5954 189.542 59.6611 189.704 59.6611C189.817 59.6611 189.925 59.6253 190.02 59.5535C190.517 59.1709 190.959 58.7525 191.354 58.322V61.9806C191.354 62.2736 191.587 62.5067 191.88 62.5067C192.173 62.5067 192.406 62.2736 192.406 61.9806V58.1367L193.368 59.1291C193.476 59.2367 193.613 59.2905 193.751 59.2905Z" fill="#716F6F"/>
<path d="M200.142 61.2154H197.709V55.8591H199.514C199.807 55.8591 200.04 55.6259 200.04 55.333C200.04 55.0401 199.807 54.8069 199.514 54.8069H197.709V51.8776C197.709 51.5847 197.475 51.3516 197.182 51.3516C196.89 51.3516 196.656 51.5847 196.656 51.8776V54.8069H194.851C194.558 54.8069 194.325 55.0401 194.325 55.333C194.325 55.6259 194.558 55.8591 194.851 55.8591H196.656V61.2154H194.223C193.93 61.2154 193.697 61.4486 193.697 61.7415C193.697 62.0344 193.93 62.2676 194.223 62.2676H200.142C200.435 62.2676 200.668 62.0344 200.668 61.7415C200.668 61.4486 200.429 61.2154 200.142 61.2154Z" fill="#716F6F"/>
<path d="M142.54 54.3876C143.945 53.9871 145.039 53.0963 145.583 52.5822C146.127 53.0963 147.221 53.9871 148.626 54.3876C148.673 54.3996 148.715 54.4055 148.763 54.4055C148.978 54.4055 149.176 54.2621 149.235 54.0469C149.307 53.7838 149.158 53.5088 148.895 53.4371C147.197 52.9529 145.965 51.5659 145.953 51.554C145.768 51.3388 145.397 51.3388 145.206 51.554C145.194 51.5659 143.963 52.9588 142.265 53.4371C142.002 53.5088 141.852 53.7838 141.924 54.0469C142.002 54.3099 142.277 54.4653 142.54 54.3876Z" fill="#716F6F"/>
<path d="M96.6178 27.2136L96.558 26.7772C97.7715 26.6158 98.3574 25.6055 98.2916 24.7327C98.2438 24.0751 97.8253 23.3817 96.815 23.298C96.7493 23.9316 96.3667 26.7234 94.8781 26.7473C94.2863 26.7533 93.8618 26.2571 93.8499 25.5039C93.832 24.4159 94.6629 22.8795 96.552 22.8496C96.5699 22.8496 96.5819 22.8496 96.5998 22.8496C97.9808 22.8496 98.6683 23.7762 98.734 24.7028C98.8117 25.7729 98.1003 27.0223 96.6178 27.2136ZM96.3727 23.298C94.92 23.4175 94.2863 24.6311 94.2983 25.4919C94.2983 25.6832 94.352 26.299 94.8721 26.299H94.8781C95.8346 26.293 96.2651 24.2425 96.3727 23.298Z" fill="#716F6F"/>
<path d="M167.864 26.8126C167.654 26.2925 167.063 25.7903 167.057 25.7843L167.35 25.4316C167.379 25.4556 168.037 26.0115 168.288 26.6392L167.864 26.8126Z" fill="#716F6F"/>
<path d="M83.9906 24.492C83.5302 24.229 83.0699 24.0556 82.5977 23.9719L82.6694 23.5176C83.1955 23.6072 83.7156 23.8045 84.2237 24.0915L83.9906 24.492Z" fill="#716F6F"/>
<path d="M89.2284 23.0936C88.9176 23.2191 88.5948 23.3088 88.254 23.3506C88.3377 23.0039 88.3795 22.7289 88.3795 22.5137C88.3795 22.4479 88.3736 22.3822 88.3676 22.3164L87.9013 22.3762C87.9073 22.424 87.9073 22.4718 87.9073 22.5256C87.9073 22.7409 87.8595 23.0338 87.7638 23.3925C87.6801 23.3984 87.5904 23.4044 87.4888 23.4044C87.2318 23.4044 86.9807 23.3805 86.7595 23.3327L86.6579 23.787C86.8731 23.8468 87.1062 23.8767 87.3692 23.8707H87.6263C87.3693 24.8571 86.9867 25.9212 86.4785 27.069L86.9388 27.2364C87.4589 26.0467 87.8595 24.9169 88.1404 23.8408C88.5828 23.787 89.0013 23.6794 89.4078 23.518L89.2284 23.0936Z" fill="#716F6F"/>
<path d="M89.7306 26.7826C89.5034 26.7826 89.3181 26.7347 89.1746 26.6451C89.0013 26.5434 88.9176 26.388 88.9176 26.1728C88.9176 26.101 88.9236 26.0293 88.9355 25.9636L88.4872 25.832C88.4633 25.9396 88.4453 26.0532 88.4453 26.1728C88.4453 26.5255 88.5768 26.7945 88.8339 26.9858C89.0611 27.1592 89.36 27.2429 89.7246 27.2429L91.0159 27.2249V26.7586C90.2089 26.7766 89.7426 26.7826 89.7306 26.7826Z" fill="#716F6F"/>
<path d="M90.4068 24.1934C90.0361 24.1934 89.6237 24.2173 89.1992 24.2711L89.253 24.7194C89.6775 24.6656 90.1079 24.6417 90.4785 24.6417C90.5383 24.6417 90.6758 24.6537 90.885 24.6836V24.2292C90.6698 24.2113 90.5084 24.1934 90.4068 24.1934Z" fill="#716F6F"/>
<path d="M183.551 23.0936C183.24 23.2191 182.917 23.3088 182.576 23.3506C182.66 23.0039 182.702 22.7289 182.702 22.5137C182.702 22.4479 182.696 22.3822 182.69 22.3164L182.224 22.3762C182.23 22.424 182.23 22.4718 182.23 22.5256C182.23 22.7409 182.182 23.0338 182.086 23.3925C182.002 23.3984 181.913 23.4044 181.811 23.4044C181.554 23.4044 181.303 23.3805 181.082 23.3327L180.98 23.787C181.195 23.8468 181.428 23.8767 181.692 23.8707H181.949C181.692 24.8571 181.309 25.9212 180.801 27.069L181.261 27.2364C181.781 26.0467 182.182 24.9169 182.463 23.8408C182.905 23.787 183.324 23.6794 183.73 23.518L183.551 23.0936Z" fill="#716F6F"/>
<path d="M184.047 26.7826C183.82 26.7826 183.635 26.7347 183.491 26.6451C183.318 26.5434 183.234 26.388 183.234 26.1728C183.234 26.101 183.24 26.0293 183.252 25.9636L182.804 25.832C182.78 25.9396 182.762 26.0532 182.762 26.1728C182.762 26.5255 182.893 26.7945 183.15 26.9858C183.377 27.1592 183.676 27.2429 184.041 27.2429L185.332 27.2249V26.7586C184.531 26.7766 184.065 26.7826 184.047 26.7826Z" fill="#716F6F"/>
<path d="M184.729 24.1934C184.358 24.1934 183.946 24.2173 183.521 24.2711L183.575 24.7194C184 24.6656 184.43 24.6417 184.801 24.6417C184.861 24.6417 184.998 24.6537 185.207 24.6836V24.2292C184.992 24.2113 184.831 24.1934 184.729 24.1934Z" fill="#716F6F"/>
<path d="M198.061 23.6626C198.515 23.5789 198.892 23.549 199.203 23.5609C199.382 23.5669 199.567 23.5968 199.759 23.6386L199.783 23.1425C199.615 23.1126 199.448 23.0827 199.274 23.0767C198.94 23.0588 198.509 23.0946 197.977 23.1963C197.78 23.2321 197.636 23.256 197.553 23.268L197.607 23.7343L198.061 23.6626Z" fill="#716F6F"/>
<path d="M198.88 26.3831C198.294 26.3831 197.941 26.2875 197.804 26.0902C197.75 26.0184 197.726 25.9228 197.726 25.7973C197.726 25.7136 197.744 25.6179 197.768 25.5163L197.331 25.3848C197.296 25.5342 197.266 25.6777 197.266 25.8092C197.266 26.4967 197.804 26.8374 198.88 26.8374H199.998V26.3771H198.88V26.3831Z" fill="#716F6F"/>
<path d="M81.7735 27.2236C81.4507 27.2236 81.1876 27.1399 81.0143 26.9785C80.8648 26.841 80.7871 26.6616 80.7871 26.4524C80.7871 26.0997 81.08 25.735 81.7257 25.7291C81.899 25.7231 82.1262 25.759 82.3773 25.8307C82.3773 25.735 82.3713 25.6454 82.3653 25.5796C82.3235 25.0236 82.3773 24.5454 82.3773 24.5215L82.8137 24.5693C82.8137 24.5753 82.7659 25.0356 82.8017 25.5437C82.8137 25.7051 82.8137 25.8486 82.8137 25.9801C83.262 26.1595 83.7343 26.4285 84.0631 26.7872L83.7403 27.0861C83.4713 26.7991 83.1066 26.578 82.7539 26.4285C82.6104 27.0442 82.2278 27.1937 81.9648 27.2176C81.905 27.2176 81.8393 27.2236 81.7735 27.2236ZM81.7436 26.1655C81.7376 26.1655 81.7376 26.1655 81.7317 26.1655C81.3849 26.1714 81.2235 26.3089 81.2235 26.4524C81.2235 26.5361 81.2474 26.6019 81.3072 26.6497C81.4208 26.7573 81.648 26.7991 81.9289 26.7693C82.1681 26.7453 82.2816 26.5241 82.3354 26.2671C82.0963 26.2013 81.8871 26.1655 81.7436 26.1655Z" fill="#716F6F"/>
<path d="M82.4677 23.1526L82.2166 22.776C82.0372 22.9792 81.5948 23.1287 81.3737 23.1705H81.296C81.3737 22.9194 81.4633 22.6145 81.5291 22.3754L81.0807 22.2559C80.997 22.5607 80.9074 22.8656 80.8057 23.1705H79.927V23.6069H80.6623C80.2737 24.6351 79.9808 25.4063 79.8672 25.7052L80.3215 25.8666C80.6981 24.8862 81.003 24.0852 81.1704 23.6009H81.4155C81.4872 23.595 82.103 23.4814 82.4677 23.1526Z" fill="#716F6F"/>
<path d="M120.782 24.492C120.321 24.229 119.861 24.0556 119.389 23.9719L119.46 23.5176C119.986 23.6072 120.507 23.8045 121.015 24.0915L120.782 24.492Z" fill="#716F6F"/>
<path d="M118.539 27.2355C118.228 27.2355 117.971 27.1519 117.798 26.9964C117.648 26.8589 117.564 26.6736 117.564 26.4524C117.564 26.0997 117.857 25.735 118.503 25.7291C118.676 25.7231 118.898 25.759 119.155 25.8307C119.155 25.7171 119.149 25.6215 119.149 25.5796C119.107 25.0236 119.161 24.5454 119.161 24.5215L119.597 24.5693C119.597 24.5753 119.549 25.0356 119.585 25.5437C119.597 25.6992 119.597 25.8426 119.591 25.9742C120.039 26.1535 120.512 26.4225 120.846 26.7812L120.524 27.0801C120.255 26.7872 119.884 26.572 119.531 26.4165C119.412 26.8948 119.131 27.1817 118.724 27.2176C118.664 27.2296 118.599 27.2355 118.539 27.2355ZM118.527 26.1655C118.521 26.1655 118.521 26.1655 118.515 26.1655C118.168 26.1714 118.007 26.3089 118.007 26.4524C118.007 26.5421 118.037 26.6138 118.097 26.6676C118.204 26.7693 118.419 26.8111 118.688 26.7872C118.939 26.7633 119.059 26.5301 119.119 26.2731C118.88 26.2013 118.67 26.1655 118.527 26.1655Z" fill="#716F6F"/>
<path d="M119.257 23.1526L119.006 22.776C118.826 22.9792 118.384 23.1287 118.163 23.1705H118.085C118.163 22.9194 118.252 22.6145 118.318 22.3754L117.87 22.2559C117.786 22.5607 117.696 22.8656 117.595 23.1705H116.716V23.6069H117.451C117.063 24.6351 116.77 25.4063 116.656 25.7052L117.111 25.8666C117.487 24.8862 117.792 24.0852 117.959 23.6009H118.205C118.276 23.595 118.892 23.4814 119.257 23.1526Z" fill="#716F6F"/>
<path d="M141.287 24.492C140.827 24.229 140.367 24.0556 139.895 23.9719L139.966 23.5176C140.492 23.6072 141.012 23.8045 141.521 24.0915L141.287 24.492Z" fill="#716F6F"/>
<path d="M139.063 27.2239C138.74 27.2239 138.477 27.1402 138.303 26.9788C138.154 26.8413 138.076 26.6619 138.076 26.4527C138.076 26.1 138.369 25.7353 139.015 25.7294C139.188 25.7234 139.415 25.7592 139.666 25.831C139.666 25.7353 139.66 25.6457 139.654 25.5799C139.613 25.0299 139.63 24.6234 139.63 24.6055L140.073 24.6234C140.073 24.6294 140.055 25.0239 140.091 25.544C140.103 25.7054 140.103 25.8489 140.103 25.9804C140.551 26.1598 141.023 26.4288 141.352 26.7875L141.029 27.0864C140.76 26.7994 140.396 26.5782 140.043 26.4288C139.899 27.0445 139.517 27.194 139.254 27.2179C139.194 27.2179 139.128 27.2239 139.063 27.2239ZM139.033 26.1658C139.027 26.1658 139.027 26.1658 139.021 26.1658C138.674 26.1717 138.513 26.3092 138.513 26.4527C138.513 26.5364 138.536 26.6022 138.596 26.65C138.71 26.7576 138.937 26.7994 139.218 26.7695C139.457 26.7456 139.571 26.5244 139.624 26.2674C139.391 26.2016 139.176 26.1658 139.033 26.1658Z" fill="#716F6F"/>
<path d="M139.763 23.1526L139.511 22.776C139.332 22.9792 138.89 23.1287 138.669 23.1705H138.591C138.669 22.9194 138.758 22.6145 138.824 22.3754L138.376 22.2559C138.292 22.5607 138.202 22.8656 138.101 23.1705H137.222V23.6069H137.957C137.569 24.6351 137.276 25.4063 137.162 25.7052L137.616 25.8726C137.993 24.8922 138.298 24.0911 138.465 23.6069H138.71C138.782 23.595 139.398 23.4814 139.763 23.1526Z" fill="#716F6F"/>
<path d="M76.603 24.5639C76.3698 24.3785 76.0829 24.253 75.784 24.1932C75.8258 24.0856 75.8557 24.0199 75.8557 24.0139L75.4432 23.8585C75.4432 23.8644 75.4014 23.972 75.3237 24.1514C75.1503 24.1514 74.971 24.1753 74.8036 24.2231C74.696 24.253 74.6003 24.2889 74.5047 24.3247C74.5226 24.0617 74.5405 23.8166 74.5644 23.5894C74.6721 23.5775 75.6465 23.4818 75.9514 23.0036L75.5807 22.7645C75.4552 22.9617 74.953 23.0933 74.6123 23.1351C74.6601 22.7585 74.696 22.5074 74.7019 22.5014L74.2655 22.4297C74.2596 22.4656 74.2177 22.7405 74.1639 23.1471H73.0938V23.5894H74.1161C74.0862 23.8704 74.0623 24.1873 74.0443 24.522C73.8949 24.5938 73.7574 24.6775 73.6199 24.7731C72.7889 25.347 72.5976 25.891 72.5737 26.2437C72.5558 26.5964 72.7053 26.8535 72.8368 26.9671C72.9862 27.0986 73.1775 27.1464 73.3808 27.1225C73.6139 27.0926 73.877 26.9491 74.146 26.722C74.1639 26.8116 74.1878 26.8953 74.2117 26.979L74.6362 26.8535C74.5884 26.6981 74.5585 26.5247 74.5286 26.3453C74.6541 26.2019 74.7797 26.0464 74.8932 25.8671C75.1802 25.4486 75.4193 24.9823 75.5867 24.6237C75.8617 24.6655 76.1188 24.7671 76.316 24.9226C76.4834 25.0541 76.6807 25.2812 76.6687 25.628C76.6329 26.7578 75.222 26.979 75.1623 26.985L75.222 27.4214C75.8557 27.3317 77.0693 26.8415 77.1051 25.6399C77.135 25.2155 76.9497 24.8389 76.603 24.5639ZM73.333 26.6682C73.2253 26.6861 73.1656 26.6443 73.1297 26.6144C73.0998 26.5845 73.0042 26.4589 73.0161 26.2497C73.034 25.891 73.3389 25.4905 73.871 25.1198C73.9248 25.084 73.9786 25.0541 74.0264 25.0182C74.0204 25.4128 74.0324 25.8073 74.0742 26.178C73.8052 26.4589 73.5362 26.6383 73.333 26.6682ZM74.5405 25.6041C74.5226 25.634 74.4987 25.6579 74.4807 25.6878C74.4688 25.3948 74.4688 25.0959 74.4748 24.797C74.6063 24.7432 74.7498 24.6894 74.9172 24.6416C74.9769 24.6237 75.0427 24.6117 75.1085 24.6057C74.959 24.9106 74.7677 25.2753 74.5405 25.6041Z" fill="#716F6F"/>
<path d="M110.416 25.9884C109.95 26.0422 109.776 26.0601 109.669 26.0601C109.609 26.0601 109.573 26.0302 109.573 25.9585V23.5194H110.811V23.077H109.573V22.2461H109.113V23.077H108.354V23.5194H109.113V25.9346C109.113 26.3052 109.298 26.4905 109.669 26.4905C109.974 26.4905 110.434 26.4128 110.655 26.3829C110.655 26.3829 110.852 26.3232 110.852 26.1558V25.3308H110.416V25.9884Z" fill="#716F6F"/>
<path d="M161.671 26.8305C161.372 26.8365 161.181 26.7767 161.097 26.6571C161.049 26.5854 161.037 26.4957 161.055 26.3821C161.097 26.1968 161.372 25.9457 161.892 25.6349L161.898 26.1848H162.353L162.341 25.3778L163.991 24.5468L163.764 24.1463C163.064 24.5169 162.664 24.7023 162.311 24.8816V24.8756C162.221 24.4512 161.976 24.242 161.564 24.242C161.39 24.242 161.199 24.2898 161.008 24.3735C161.115 24.1941 161.295 23.8653 161.426 23.6202H161.587C161.617 23.6202 162.287 23.5545 162.687 23.142L162.371 22.8371C162.149 23.0643 161.785 23.148 161.635 23.1719C161.743 22.9447 161.868 22.6876 161.964 22.4605L161.552 22.2871C161.42 22.592 161.271 22.9148 161.139 23.1838H160.123V23.6262H160.924C160.637 24.1403 160.183 24.8158 159.74 25.3539L160.075 25.6528L160.254 25.4615C160.44 25.2523 160.643 25.0789 160.858 24.9414C161.115 24.774 161.342 24.6963 161.546 24.7023C161.755 24.7082 161.868 24.8517 161.892 25.1148V25.1207C161.121 25.5631 160.691 25.9517 160.619 26.2805C160.601 26.3642 160.589 26.4419 160.589 26.5136C160.589 26.7767 160.697 26.9799 160.924 27.1234C161.127 27.2489 161.378 27.3087 161.683 27.3027L163.524 27.2908L163.518 26.8305H161.671Z" fill="#716F6F"/>
<path d="M177.495 24.7208C177.208 24.4996 176.849 24.392 176.413 24.392C176.186 24.392 175.965 24.4219 175.743 24.4817L177.065 22.9513L176.831 22.5508C175.887 22.9812 174.709 22.8258 174.697 22.8258L174.679 23.2682C174.703 23.2682 174.882 23.2921 175.223 23.2921C175.51 23.2921 175.869 23.2622 176.251 23.1845L174.464 25.2529C174.279 25.4621 174.159 25.5996 174.111 25.6594L174.476 25.9404C174.613 25.779 174.709 25.6594 174.781 25.5817C175.265 25.0795 175.809 24.8344 176.419 24.8344C176.736 24.8344 176.987 24.9121 177.184 25.0616C177.393 25.229 177.495 25.4681 177.495 25.773C177.495 26.2393 177.238 26.5501 176.712 26.6996C176.473 26.1137 176.126 25.8268 175.678 25.8268C175.289 25.8268 174.978 26.0838 174.978 26.4784C174.978 26.7175 175.098 26.9088 175.337 27.0463C175.552 27.1778 175.827 27.2436 176.162 27.2436C176.628 27.2436 177.029 27.1181 177.375 26.8789C177.77 26.598 177.967 26.2333 177.967 25.755C177.967 25.3186 177.812 24.9659 177.495 24.7208ZM176.072 26.7952C175.857 26.7952 175.696 26.7653 175.57 26.6936C175.468 26.6338 175.415 26.5621 175.415 26.4784C175.415 26.3469 175.546 26.2632 175.749 26.2931C175.959 26.323 176.12 26.4904 176.24 26.7952C176.186 26.7952 176.126 26.7952 176.072 26.7952Z" fill="#716F6F"/>
<path d="M196.129 26.9927C195.753 26.4607 195.675 25.5042 195.896 24.0635C195.98 23.5195 196.093 22.9097 196.141 22.7363L196.584 22.8619C196.542 22.9994 196.434 23.5733 196.351 24.1292C196.153 25.4325 196.201 26.3053 196.5 26.7237L196.129 26.9927Z" fill="#716F6F"/>
<path d="M123.495 26.3942L123.082 26.0714C123.746 25.2225 123.919 23.3812 123.919 23.3633L124.439 23.4111C124.433 23.4888 124.26 25.4257 123.495 26.3942Z" fill="#716F6F"/>
<path d="M110.889 22.1016V22.5439H111.726H111.827C111.845 23.3749 111.821 26.1368 110.596 27.165L110.913 27.5416C112.311 26.3699 112.347 23.4586 112.323 22.5499H113.435V24.6542C113.435 25.7303 113.178 26.9378 113.047 27.0395C112.915 27.1411 112.353 27.0634 112.353 27.0634V27.5237H113.059C113.059 27.5237 113.405 27.4759 113.483 27.2965C113.728 26.6987 113.914 25.8439 113.914 24.6542V22.1075H110.889V22.1016Z" fill="#716F6F"/>
<path d="M128.355 26.3696C128.248 25.6103 127.285 23.4343 127.273 23.4164L127.752 23.2012C127.794 23.2908 128.756 25.4609 128.876 26.2978L128.355 26.3696Z" fill="#716F6F"/>
<path d="M126.216 21.9688H125.69L125.696 26.9784C125.696 27.0322 125.648 27.08 125.595 27.08H124.865V27.6061H125.636C125.87 27.6061 126.025 27.5045 126.091 27.4208C126.204 27.2773 126.21 27.1159 126.216 27.0501C126.216 27.0501 126.228 21.9867 126.216 21.9688Z" fill="#716F6F"/>
<path d="M134.323 25.6636L134.574 25.2511C134.066 24.7609 133.636 24.0913 133.313 23.5174C133.767 23.356 134.233 23.093 134.461 22.6625L134.066 22.4593C133.899 22.7821 133.51 22.9913 133.104 23.1288C132.87 22.6805 132.739 22.3517 132.733 22.3457L132.273 22.531C132.285 22.5609 132.404 22.8479 132.607 23.2544C132.434 23.2843 132.273 23.3082 132.135 23.3142C131.49 23.356 130.874 23.3142 130.868 23.3142L130.838 23.7565C130.856 23.7565 131.131 23.7804 131.513 23.7804C131.711 23.7804 131.932 23.7745 132.165 23.7565C132.231 23.7506 132.494 23.7326 132.817 23.6609C133.044 24.0794 133.343 24.5636 133.683 25.006C132.996 24.8744 132.028 24.7907 131.495 25.1853C131.232 25.3766 131.095 25.6695 131.095 26.0282C131.095 26.2972 131.209 26.5364 131.412 26.7157C131.824 27.0744 132.589 27.1641 133.229 27.1641C133.737 27.1641 134.162 27.1103 134.257 27.0983L134.192 26.6081C133.678 26.6798 132.231 26.7755 131.741 26.3451C131.639 26.2614 131.597 26.1597 131.591 26.0282C131.591 25.825 131.651 25.6875 131.788 25.5858C132.344 25.1793 133.797 25.5021 134.323 25.6636Z" fill="#716F6F"/>
<path d="M147.008 22.4545V21.8926H146.565V22.4545H144.072V23.8414H144.515V22.8969H149.004V23.8414H149.447V22.4545H147.008Z" fill="#716F6F"/>
<path d="M166.753 23.0817H171.153V24.0263H171.589V22.6394H169.162V21.916H168.72V22.6394H166.311V24.0263H166.753V23.0817Z" fill="#716F6F"/>
<path d="M171.721 24.9583V24.5159H169.945V23.7148H169.503V24.5159H166.502V24.9583H169.503V27.1642H168.768V27.6066H169.539C169.724 27.6066 169.826 27.5289 169.874 27.4631C169.957 27.3555 169.951 27.2359 169.945 27.1762V24.9643H171.721V24.9583Z" fill="#716F6F"/>
<path d="M153.926 23.2246V22.7822H153.107V21.9453H152.665V22.7822H151.678V23.2246H152.336V24.6115C152.336 24.6295 152.36 26.411 151.559 27.3136L151.887 27.6066C152.73 26.6561 152.772 24.9702 152.772 24.6594L153.394 24.6534C153.4 25.1496 153.406 26.405 153.137 27.1044C153.119 27.1582 152.999 27.1522 152.999 27.1522H152.635V27.5946H153.268C153.268 27.5946 153.418 27.5827 153.46 27.4691C153.914 26.5485 153.83 24.5039 153.83 24.4143L153.818 24.1991L152.766 24.211V23.2186H153.926V23.2246Z" fill="#716F6F"/>
<path d="M157.397 22.8301H155C155.161 22.3758 155.269 21.9992 155.281 21.9693L154.839 21.8438C154.833 21.8557 154.414 23.3203 154.014 23.9182L154.396 24.1752C154.552 23.948 154.701 23.6133 154.839 23.2785H157.403V22.8301H157.397Z" fill="#716F6F"/>
<path d="M156.124 25.8671H157.469V25.4247H156.016C156.064 25.0899 156.07 24.7851 156.064 24.5938H157.224V24.1514H155.245C155.347 23.8704 155.413 23.6432 155.419 23.6253L155.024 23.5117C155.018 23.5237 154.713 24.5938 154.408 25.0003L154.737 25.2454C154.857 25.084 154.976 24.8389 155.078 24.5938H155.622C155.628 24.7791 155.622 25.0959 155.574 25.4247H154.109V25.8671H155.472C155.46 25.903 155.454 25.9388 155.442 25.9687C155.203 26.5964 154.767 27.0388 154.139 27.2779L154.295 27.6904C155.012 27.4154 155.514 26.9192 155.807 26.2138C156.052 26.6741 156.519 27.3198 157.296 27.6725L157.475 27.2719C156.734 26.9312 156.315 26.2676 156.124 25.8671Z" fill="#716F6F"/>
<path d="M192.686 24.3898C192.608 24.2583 192.202 23.6486 191.185 23.541C191.365 23.0627 191.454 22.716 191.466 22.6801L191.024 22.5605C191.024 22.5725 190.91 22.979 190.695 23.535C190.247 23.5768 189.733 23.7741 189.278 24.0551C189.039 23.4393 188.878 22.9431 188.878 22.9312L188.441 23.0687C188.453 23.1165 188.633 23.6665 188.896 24.3241C188.728 24.4556 188.579 24.5991 188.453 24.7545C188.101 25.179 187.957 25.6273 188.041 26.0577C188.154 26.6735 188.561 26.7452 188.794 26.7273C189.135 26.7093 189.434 26.4822 189.482 26.4463C189.595 26.3387 189.703 26.2191 189.804 26.0996C189.882 26.2132 189.966 26.3148 190.049 26.3985L190.378 26.0817C190.283 25.98 190.187 25.8605 190.097 25.717C190.486 25.161 190.791 24.5333 191.018 23.9893C191.909 24.0371 192.237 24.5214 192.297 24.623C192.369 24.7426 192.584 25.173 192.393 25.6333C192.184 26.1414 191.526 26.5539 190.492 26.8289L190.611 27.2713C191.801 26.9545 192.542 26.4583 192.817 25.8067C193.074 25.155 192.781 24.5572 192.686 24.3898ZM189.177 26.0996C189.123 26.1414 188.926 26.261 188.758 26.2729C188.669 26.2789 188.543 26.2849 188.483 25.974C188.411 25.6034 188.615 25.2686 188.8 25.0474C188.884 24.9518 188.979 24.8621 189.081 24.7724C189.219 25.0893 189.374 25.4061 189.541 25.6931C189.422 25.8365 189.302 25.974 189.177 26.0996ZM189.828 25.2806C189.697 25.0295 189.565 24.7605 189.452 24.4915C189.792 24.2703 190.163 24.1089 190.492 24.0312C190.313 24.4377 190.091 24.8741 189.828 25.2806Z" fill="#716F6F"/>
<path d="M148.014 25.4851L149.12 24.8155L148.892 24.4389L147.846 25.0726C147.667 24.5704 147.607 24.14 147.589 23.9248H148.606V23.4824H144.959V23.9248H146.041C145.604 24.2656 144.923 24.7378 144.247 25.0367L144.445 25.4313C145.084 25.1503 145.712 24.7259 146.16 24.3911C146.226 24.4808 146.304 24.6123 146.394 24.7737C145.999 25.0666 145.06 25.7362 144.259 26.0829L144.457 26.4775C145.258 26.1307 146.149 25.509 146.585 25.1802C146.627 25.2878 146.669 25.4074 146.704 25.5329C146.394 25.8019 145.318 26.6628 144.08 27.147L144.259 27.5535C145.377 27.1171 146.34 26.4057 146.806 26.0291C146.848 26.3938 146.818 26.7883 146.663 27.1829H146.035V27.6252H146.669C146.884 27.6252 147.009 27.5057 147.045 27.41C147.667 25.9633 146.842 24.5884 146.513 24.1221C146.615 24.0384 146.693 23.9726 146.74 23.9308H147.147C147.189 24.4748 147.47 26.5073 149.335 27.6133L149.514 27.2068C148.755 26.7345 148.295 26.0949 148.014 25.4851Z" fill="#716F6F"/>
<path d="M104.074 23.9194H106.477V23.4292H104.056V21.9766H103.518V23.4292H101.097V23.9194H103.5C103.488 24.051 103.47 24.1645 103.47 24.1645C103.285 25.4917 102.238 26.5797 101.055 27.1715L101.234 27.6438C102.358 27.1416 103.44 26.0417 103.829 24.8999C104.337 26.1373 105.186 27.052 106.333 27.6139L106.513 27.1416C105.293 26.5259 104.462 25.4319 104.086 24.1586C104.092 24.1586 104.068 24.039 104.074 23.9194Z" fill="#716F6F"/>
</g>
<defs>
<clipPath id="clip0">
<rect width="214.799" height="83" fill="white"/>
</clipPath>
</defs>
</svg>
