<svg width="249" height="150" viewBox="0 0 249 150" fill="none" xmlns="http://www.w3.org/2000/svg">
<rect opacity="0.9" y="30" width="249" height="120" fill="#5FBBB5"/>
<path d="M30.848 84.584H28.432C28.496 85.032 28.528 85.544 28.528 86.184V89.224C28.528 91.72 28.32 92.92 27.216 94.12C26.256 95.16 24.96 95.768 23.376 96.136L25.04 97.896C26.208 97.528 27.872 96.744 28.928 95.592C30.112 94.28 30.784 92.792 30.784 89.352V86.184C30.784 85.544 30.816 85.032 30.848 84.584ZM23.424 84.712H21.12C21.168 85.08 21.184 85.64 21.184 85.944V91.336C21.184 91.816 21.12 92.44 21.104 92.744H23.424C23.392 92.376 23.376 91.752 23.376 91.352V85.944C23.376 85.432 23.392 85.08 23.424 84.712ZM40.624 95.464C40.624 96.104 40.56 97.064 40.464 97.704H42.96C42.896 97.048 42.816 95.928 42.816 95.464V90.936C44.544 91.528 46.944 92.456 48.592 93.32L49.504 91.112C48.032 90.392 44.96 89.256 42.816 88.632V86.264C42.816 85.608 42.896 84.904 42.96 84.344H40.464C40.576 84.904 40.624 85.704 40.624 86.264V95.464ZM61.248 96.648L62.592 97.752C62.736 97.624 62.928 97.464 63.28 97.272C65.072 96.36 67.376 94.632 68.704 92.904L67.472 91.144C66.4 92.696 64.816 93.96 63.52 94.52V86.152C63.52 85.432 63.616 84.808 63.632 84.76H61.248C61.264 84.808 61.376 85.416 61.376 86.136V95.464C61.376 95.896 61.312 96.344 61.248 96.648ZM53.84 96.408L55.792 97.704C57.152 96.488 58.16 94.92 58.64 93.112C59.072 91.496 59.12 88.12 59.12 86.232C59.12 85.56 59.216 84.856 59.232 84.776H56.88C56.976 85.176 57.024 85.608 57.024 86.248C57.024 88.184 57.008 91.208 56.56 92.584C56.112 93.944 55.248 95.416 53.84 96.408ZM85.024 86.344L83.456 85.336C83.024 85.448 82.512 85.464 82.192 85.464H74.8C74.272 85.464 73.36 85.384 72.88 85.336V87.592C73.296 87.56 74.064 87.528 74.784 87.528H82.24C82.032 88.888 81.424 90.712 80.368 92.04C79.072 93.656 77.264 95.048 74.096 95.8L75.84 97.704C78.688 96.792 80.816 95.208 82.272 93.288C83.6 91.512 84.304 89.032 84.672 87.464C84.752 87.128 84.88 86.664 85.024 86.344ZM102.624 89.016L101.44 87.944C101.184 88.024 100.496 88.056 100.144 88.056H92.72C92.192 88.056 91.552 88.008 91.056 87.928V89.992C91.648 89.928 92.192 89.896 92.72 89.896H99.664C99.28 90.568 98.272 91.704 97.36 92.328L98.96 93.448C100.096 92.568 101.584 90.552 102.144 89.656C102.24 89.496 102.48 89.192 102.624 89.016ZM97.136 90.696H94.928C94.992 91.032 95.04 91.448 95.04 91.832C95.04 93.848 94.704 95.272 92.896 96.504C92.416 96.84 92.016 97.032 91.6 97.192L93.296 98.552C97.04 96.488 97.04 93.688 97.136 90.696ZM110.56 84.472L109.808 86.36C112.064 86.648 116.608 87.672 118.464 88.36L119.28 86.36C117.264 85.656 112.656 84.728 110.56 84.472ZM109.824 88.776L109.088 90.712C111.472 91.096 115.568 92.024 117.408 92.728L118.192 90.728C116.176 90.024 112.112 89.16 109.824 88.776ZM109.008 93.352L108.208 95.368C110.768 95.752 115.824 96.856 117.984 97.752L118.864 95.752C116.672 94.936 111.744 93.784 109.008 93.352ZM136.448 84.584H134.032C134.096 85.032 134.128 85.544 134.128 86.184V89.224C134.128 91.72 133.92 92.92 132.816 94.12C131.856 95.16 130.56 95.768 128.976 96.136L130.64 97.896C131.808 97.528 133.472 96.744 134.528 95.592C135.712 94.28 136.384 92.792 136.384 89.352V86.184C136.384 85.544 136.416 85.032 136.448 84.584ZM129.024 84.712H126.72C126.768 85.08 126.784 85.64 126.784 85.944V91.336C126.784 91.816 126.72 92.44 126.704 92.744H129.024C128.992 92.376 128.976 91.752 128.976 91.352V85.944C128.976 85.432 128.992 85.08 129.024 84.712ZM142.672 89.592V92.104C143.264 92.056 144.336 92.024 145.248 92.024H153.84C154.512 92.024 155.328 92.088 155.712 92.104V89.592C155.296 89.624 154.592 89.688 153.84 89.688H145.248C144.416 89.688 143.248 89.64 142.672 89.592ZM166.08 84.472L163.696 84.232C163.728 85.24 163.584 86.408 163.36 87.608C162.544 87.688 161.792 87.736 161.296 87.752C160.704 87.768 160.176 87.8 159.584 87.752L159.776 89.928C160.272 89.848 161.104 89.736 161.568 89.656C161.856 89.624 162.368 89.56 162.944 89.496C162.352 91.688 161.248 94.92 159.696 97.016L161.776 97.848C163.248 95.496 164.432 91.704 165.04 89.272C165.504 89.24 165.904 89.208 166.16 89.208C167.152 89.208 167.712 89.384 167.712 90.664C167.712 92.248 167.488 94.184 167.056 95.096C166.8 95.624 166.4 95.784 165.856 95.784C165.44 95.784 164.512 95.624 163.904 95.448L164.24 97.56C164.784 97.672 165.552 97.784 166.16 97.784C167.376 97.784 168.256 97.432 168.784 96.312C169.472 94.92 169.696 92.328 169.696 90.44C169.696 88.136 168.496 87.384 166.8 87.384C166.464 87.384 166 87.416 165.456 87.448C165.568 86.872 165.696 86.28 165.792 85.8C165.872 85.4 165.984 84.888 166.08 84.472ZM173.2 83.144L171.92 83.656C172.368 84.264 172.88 85.208 173.216 85.864L174.48 85.32C174.208 84.76 173.616 83.752 173.2 83.144ZM171.296 83.864L170.032 84.392C170.4 84.904 170.8 85.672 171.12 86.28L169.68 86.904C170.816 88.312 171.952 91.128 172.368 92.904L174.4 91.976C173.952 90.552 172.752 87.88 171.792 86.392L172.576 86.056C172.272 85.464 171.696 84.456 171.296 83.864ZM22.448 113.288V112.264H25.024V113.288H22.448ZM22.448 109.768H25.024V110.792H22.448V109.768ZM29.584 110.792H27.04V109.768H29.584V110.792ZM29.584 113.288H27.04V112.264H29.584V113.288ZM33.152 117.56V115.816H27.04V114.872H31.68V108.184H20.448V114.872H25.024V115.816H18.896V117.56H23.632C22.288 118.76 20.304 119.816 18.4 120.376C18.832 120.776 19.408 121.512 19.696 121.96C21.6 121.256 23.552 120.008 25.024 118.536V122.392H27.04V118.456C28.528 119.912 30.48 121.16 32.336 121.864C32.608 121.384 33.184 120.632 33.616 120.248C31.792 119.72 29.84 118.696 28.432 117.56H33.152ZM44.992 117.096L43.088 116.904C42.96 117.544 42.8 118.312 42.8 119.048C42.8 120.664 44.256 121.592 46.944 121.592C48.224 121.592 49.312 121.48 50.208 121.368L50.288 119.32C49.136 119.528 48.032 119.656 46.96 119.656C45.248 119.656 44.768 119.128 44.768 118.424C44.768 118.072 44.864 117.544 44.992 117.096ZM43.184 108.232L40.736 108.04C40.784 108.408 40.752 109.064 40.688 109.656C40.656 109.912 40.608 110.216 40.544 110.568C40.048 110.6 39.568 110.616 39.104 110.616C38.448 110.616 37.904 110.584 37.088 110.488L37.136 112.488C37.696 112.52 38.304 112.552 39.072 112.552C39.408 112.552 39.76 112.536 40.128 112.52C40.032 112.984 39.904 113.432 39.792 113.864C39.2 116.104 37.984 119.464 37.024 121.064L39.248 121.816C40.144 119.912 41.216 116.648 41.792 114.408C41.968 113.752 42.128 113.048 42.272 112.36C43.344 112.232 44.432 112.056 45.392 111.832V109.832C44.512 110.04 43.616 110.216 42.72 110.344C42.768 110.12 42.816 109.912 42.848 109.736C42.912 109.384 43.056 108.664 43.184 108.232ZM44.128 113.064V114.936C45.136 114.824 46.128 114.776 47.216 114.776C48.192 114.776 49.168 114.872 49.968 114.968L50.016 113.048C49.072 112.952 48.112 112.904 47.2 112.904C46.176 112.904 45.024 112.984 44.128 113.064ZM59.136 108.312L56.56 108.28C56.704 108.92 56.768 109.688 56.768 110.44C56.768 111.816 56.608 116.024 56.608 118.168C56.608 120.904 58.304 122.056 60.928 122.056C64.576 122.056 66.848 119.912 67.872 118.376L66.416 116.616C65.264 118.36 63.584 119.88 60.944 119.88C59.696 119.88 58.736 119.352 58.736 117.736C58.736 115.752 58.864 112.168 58.928 110.44C58.96 109.8 59.04 108.984 59.136 108.312ZM80.192 117.096L78.288 116.904C78.16 117.544 78 118.312 78 119.048C78 120.664 79.456 121.592 82.144 121.592C83.424 121.592 84.512 121.48 85.408 121.368L85.488 119.32C84.336 119.528 83.232 119.656 82.16 119.656C80.448 119.656 79.968 119.128 79.968 118.424C79.968 118.072 80.064 117.544 80.192 117.096ZM78.384 108.232L75.936 108.04C75.984 108.408 75.952 109.064 75.888 109.656C75.856 109.912 75.808 110.216 75.744 110.568C75.248 110.6 74.768 110.616 74.304 110.616C73.648 110.616 73.104 110.584 72.288 110.488L72.336 112.488C72.896 112.52 73.504 112.552 74.272 112.552C74.608 112.552 74.96 112.536 75.328 112.52C75.232 112.984 75.104 113.432 74.992 113.864C74.4 116.104 73.184 119.464 72.224 121.064L74.448 121.816C75.344 119.912 76.416 116.648 76.992 114.408C77.168 113.752 77.328 113.048 77.472 112.36C78.544 112.232 79.632 112.056 80.592 111.832V109.832C79.712 110.04 78.816 110.216 77.92 110.344C77.968 110.12 78.016 109.912 78.048 109.736C78.112 109.384 78.256 108.664 78.384 108.232ZM79.328 113.064V114.936C80.336 114.824 81.328 114.776 82.416 114.776C83.392 114.776 84.368 114.872 85.168 114.968L85.216 113.048C84.272 112.952 83.312 112.904 82.4 112.904C81.376 112.904 80.224 112.984 79.328 113.064ZM92.56 109.56L90.096 109.528C90.192 110.024 90.224 110.712 90.224 111.16C90.224 112.136 90.24 114.008 90.4 115.48C90.848 119.768 92.368 121.352 94.128 121.352C95.408 121.352 96.416 120.376 97.472 117.592L95.872 115.64C95.568 116.92 94.928 118.792 94.176 118.792C93.168 118.792 92.688 117.208 92.464 114.904C92.368 113.752 92.352 112.552 92.368 111.512C92.368 111.064 92.448 110.136 92.56 109.56ZM100.56 109.928L98.528 110.584C100.272 112.568 101.12 116.456 101.376 119.032L103.472 118.216C103.296 115.768 102.08 111.768 100.56 109.928ZM113.6 116.488C113.264 116.168 112.032 115.064 111.264 114.44C112.032 113.384 112.672 112.232 113.152 111.016L112.08 110.328L111.744 110.408H111.024V107.464H109.136V110.408H106.864V112.136H110.72C109.68 113.976 108 115.656 106.256 116.6C106.544 116.968 106.992 117.896 107.152 118.408C107.824 117.992 108.496 117.464 109.136 116.872V122.392H111.024V116.36C111.568 116.952 112.112 117.592 112.448 118.04L113.6 116.488ZM118.208 120.072V114.216H121.232V112.376H118.208V107.592H116.256V112.376H113.216V114.216H116.256V120.072H112.56V121.928H121.616V120.072H118.208ZM128.656 112.248C129.872 111.304 130.896 110.264 131.584 109.288C132.32 110.28 133.424 111.32 134.656 112.248H128.656ZM127.872 113.992H135.344V112.728C136.224 113.336 137.152 113.864 138.032 114.28C138.368 113.72 138.784 113.032 139.264 112.536C136.736 111.64 134.192 109.816 132.496 107.464H130.512C129.312 109.352 126.768 111.624 124.048 112.824C124.448 113.24 124.944 113.96 125.168 114.424C126.096 113.976 127.024 113.432 127.872 112.824V113.992ZM125.04 117.08H128.752C128.416 118.024 127.968 119.08 127.536 119.976L125.12 120.056L125.376 121.912C128.096 121.784 132.048 121.624 135.808 121.416C136.064 121.768 136.288 122.104 136.448 122.408L138.224 121.336C137.472 120.136 135.984 118.472 134.56 117.224L132.88 118.104C133.408 118.584 133.952 119.16 134.448 119.736C132.816 119.8 131.168 119.864 129.632 119.912C130.112 119.016 130.64 118.024 131.104 117.08H138.272V115.32H125.04V117.08ZM141.792 116.232L143.744 118.232C144.016 117.816 144.384 117.24 144.752 116.712C145.44 115.8 146.576 114.216 147.216 113.416C147.68 112.824 147.984 112.744 148.544 113.368C149.296 114.216 150.496 115.736 151.488 116.92C152.496 118.104 153.856 119.656 155.008 120.744L156.656 118.824C155.136 117.464 153.776 116.024 152.752 114.904C151.808 113.88 150.528 112.232 149.44 111.176C148.272 110.04 147.232 110.152 146.112 111.416C145.12 112.568 143.888 114.216 143.152 114.984C142.672 115.496 142.272 115.864 141.792 116.232ZM173.632 115.368C173.632 111.88 171.136 109.128 167.168 109.128C163.024 109.128 159.824 112.28 159.824 115.976C159.824 118.68 161.296 120.632 163.072 120.632C164.816 120.632 166.192 118.648 167.152 115.416C167.616 113.912 167.888 112.44 168.112 111.08C170.272 111.448 171.472 113.096 171.472 115.304C171.472 117.64 169.872 119.112 167.824 119.592C167.392 119.688 166.944 119.784 166.336 119.848L167.536 121.752C171.568 121.128 173.632 118.744 173.632 115.368ZM161.872 115.768C161.872 114.008 163.296 111.672 165.936 111.128C165.76 112.456 165.456 113.816 165.088 115C164.432 117.16 163.808 118.168 163.136 118.168C162.512 118.168 161.872 117.384 161.872 115.768ZM183.776 115V113.416H185.744V114.792V115H183.776ZM189.616 113.416V115H187.632V114.808V113.416H189.616ZM191.44 116.536V111.864H187.632V110.744H191.872V109.016H187.632V107.56H185.744V109.016H181.84C181.984 108.664 182.128 108.328 182.272 107.992L180.512 107.416C179.648 109.688 178.16 111.944 176.64 113.384C176.96 113.848 177.472 114.872 177.648 115.336C178.096 114.888 178.528 114.376 178.96 113.832V122.424H180.768V111.112C181.12 110.504 181.44 109.896 181.728 109.272V110.744H185.744V111.864H182.064V116.536H185.632C185.536 117.192 185.36 117.784 185.04 118.36C184.448 117.88 183.936 117.336 183.552 116.712L182 117.192C182.544 118.104 183.184 118.92 183.968 119.576C183.28 120.104 182.336 120.52 181.056 120.808C181.44 121.208 182 121.976 182.24 122.392C183.664 121.976 184.752 121.384 185.52 120.68C187.008 121.528 188.832 122.088 190.992 122.36C191.232 121.864 191.728 121.08 192.128 120.664C189.968 120.472 188.128 120.024 186.656 119.32C187.136 118.472 187.408 117.528 187.536 116.536H191.44ZM199.552 115.864V118.312H197.712V115.864H199.552ZM201.264 114.216H196.016V121.256H197.712V119.976H201.264V114.216ZM208.176 114.232H202.32V122.456H204.112V115.88H206.352V118.952C206.352 119.128 206.288 119.176 206.08 119.192C205.904 119.192 205.232 119.192 204.624 119.16C204.832 119.64 205.072 120.376 205.136 120.888C206.16 120.888 206.928 120.872 207.488 120.584C208.032 120.312 208.176 119.816 208.176 119V114.232ZM199.488 111.544C200.48 110.776 201.328 109.976 201.936 109.208C202.576 109.976 203.472 110.792 204.48 111.544H199.488ZM200.864 107.448C199.616 109.192 196.976 111.288 194.256 112.44C194.656 112.856 195.184 113.592 195.424 114.04C196.592 113.496 197.728 112.808 198.768 112.072V113.24H205.2V112.072C206.288 112.824 207.456 113.496 208.544 114.008C208.88 113.448 209.328 112.76 209.808 112.264C207.248 111.384 204.64 109.624 202.848 107.448H200.864Z" fill="white"/>
<path d="M23.7783 13.9219L37.1289 52.7021L50.54 13.9219H55.1113V58H51.6602V38.8975L51.9629 19.6738L38.4609 58H35.7969L22.3555 19.8555L22.6582 38.7764V58H19.207V13.9219H23.7783ZM69.6729 58H66.2217V13.9219H69.6729V58ZM101.43 47.1621C101.43 44.6999 100.723 42.7624 99.3105 41.3496C97.918 39.9368 95.3044 38.5846 91.4697 37.293C87.6351 36.0013 84.8197 34.5583 83.0234 32.9639C80.6621 30.8851 79.4814 28.1403 79.4814 24.7295C79.4814 21.359 80.6419 18.6143 82.9629 16.4951C85.2839 14.376 88.2809 13.3164 91.9541 13.3164C95.708 13.3164 98.7757 14.5475 101.157 17.0098C103.539 19.472 104.729 22.6406 104.729 26.5156H101.248C101.248 23.5488 100.41 21.1572 98.7354 19.3408C97.0804 17.5042 94.82 16.5859 91.9541 16.5859C89.1689 16.5859 86.9691 17.3428 85.3545 18.8564C83.7601 20.3499 82.9629 22.2874 82.9629 24.6689C82.9629 26.889 83.7197 28.7054 85.2334 30.1182C86.7471 31.5309 89.1589 32.7923 92.4688 33.9023C95.7786 34.9922 98.2812 36.1325 99.9766 37.3232C101.672 38.4938 102.923 39.8763 103.73 41.4707C104.538 43.0651 104.941 44.9421 104.941 47.1016C104.941 50.5527 103.771 53.3379 101.43 55.457C99.1087 57.556 96.0309 58.6055 92.1963 58.6055C89.613 58.6055 87.2516 58.0807 85.1123 57.0312C82.9932 55.9616 81.3281 54.4378 80.1172 52.46C78.9264 50.4619 78.3311 48.1107 78.3311 45.4062H81.7822C81.7822 48.5143 82.7207 50.9564 84.5977 52.7324C86.4746 54.5085 89.0075 55.3965 92.1963 55.3965C94.9814 55.3965 97.2116 54.6497 98.8867 53.1562C100.582 51.6628 101.43 49.6647 101.43 47.1621ZM133.52 47.1621C133.52 44.6999 132.813 42.7624 131.4 41.3496C130.008 39.9368 127.394 38.5846 123.56 37.293C119.725 36.0013 116.91 34.5583 115.113 32.9639C112.752 30.8851 111.571 28.1403 111.571 24.7295C111.571 21.359 112.732 18.6143 115.053 16.4951C117.374 14.376 120.371 13.3164 124.044 13.3164C127.798 13.3164 130.866 14.5475 133.247 17.0098C135.629 19.472 136.819 22.6406 136.819 26.5156H133.338C133.338 23.5488 132.5 21.1572 130.825 19.3408C129.17 17.5042 126.91 16.5859 124.044 16.5859C121.259 16.5859 119.059 17.3428 117.444 18.8564C115.85 20.3499 115.053 22.2874 115.053 24.6689C115.053 26.889 115.81 28.7054 117.323 30.1182C118.837 31.5309 121.249 32.7923 124.559 33.9023C127.868 34.9922 130.371 36.1325 132.066 37.3232C133.762 38.4938 135.013 39.8763 135.82 41.4707C136.628 43.0651 137.031 44.9421 137.031 47.1016C137.031 50.5527 135.861 53.3379 133.52 55.457C131.199 57.556 128.121 58.6055 124.286 58.6055C121.703 58.6055 119.341 58.0807 117.202 57.0312C115.083 55.9616 113.418 54.4378 112.207 52.46C111.016 50.4619 110.421 48.1107 110.421 45.4062H113.872C113.872 48.5143 114.811 50.9564 116.688 52.7324C118.564 54.5085 121.097 55.3965 124.286 55.3965C127.071 55.3965 129.301 54.6497 130.977 53.1562C132.672 51.6628 133.52 49.6647 133.52 47.1621ZM148.989 58H145.538V13.9219H148.989V58ZM187.376 40.7441C187.376 46.4355 186.125 50.8353 183.622 53.9434C181.14 57.0514 177.648 58.6055 173.147 58.6055C168.687 58.6055 165.186 57.0514 162.643 53.9434C160.12 50.8353 158.848 46.4658 158.828 40.835V31.2383C158.828 25.5671 160.09 21.1673 162.612 18.0391C165.135 14.8906 168.627 13.3164 173.087 13.3164C177.608 13.3164 181.119 14.8906 183.622 18.0391C186.125 21.1875 187.376 25.6175 187.376 31.3291V40.7441ZM183.895 31.1777C183.895 26.3542 182.966 22.7314 181.109 20.3096C179.253 17.8877 176.578 16.6768 173.087 16.6768C169.716 16.6768 167.083 17.8675 165.186 20.249C163.288 22.6104 162.32 26.1523 162.279 30.875V40.7441C162.279 45.5879 163.238 49.2308 165.155 51.6729C167.073 54.0947 169.737 55.3057 173.147 55.3057C176.659 55.3057 179.323 54.0947 181.14 51.6729C182.976 49.251 183.895 45.6081 183.895 40.7441V31.1777ZM224.34 58H220.889L200.091 20.4609V58H196.609V13.9219H200.091L220.919 51.5215V13.9219H224.34V58Z" fill="white"/>
<mask id="mask0" mask-type="alpha" maskUnits="userSpaceOnUse" x="19" y="13" width="206" height="46">
<path d="M23.7783 13.9219L37.1289 52.7021L50.54 13.9219H55.1113V58H51.6602V38.8975L51.9629 19.6738L38.4609 58H35.7969L22.3555 19.8555L22.6582 38.7764V58H19.207V13.9219H23.7783ZM69.6729 58H66.2217V13.9219H69.6729V58ZM101.43 47.1621C101.43 44.6999 100.723 42.7624 99.3105 41.3496C97.918 39.9368 95.3044 38.5846 91.4697 37.293C87.6351 36.0013 84.8197 34.5583 83.0234 32.9639C80.6621 30.8851 79.4814 28.1403 79.4814 24.7295C79.4814 21.359 80.6419 18.6143 82.9629 16.4951C85.2839 14.376 88.2809 13.3164 91.9541 13.3164C95.708 13.3164 98.7757 14.5475 101.157 17.0098C103.539 19.472 104.729 22.6406 104.729 26.5156H101.248C101.248 23.5488 100.41 21.1572 98.7354 19.3408C97.0804 17.5042 94.82 16.5859 91.9541 16.5859C89.1689 16.5859 86.9691 17.3428 85.3545 18.8564C83.7601 20.3499 82.9629 22.2874 82.9629 24.6689C82.9629 26.889 83.7197 28.7054 85.2334 30.1182C86.7471 31.5309 89.1589 32.7923 92.4688 33.9023C95.7786 34.9922 98.2812 36.1325 99.9766 37.3232C101.672 38.4938 102.923 39.8763 103.73 41.4707C104.538 43.0651 104.941 44.9421 104.941 47.1016C104.941 50.5527 103.771 53.3379 101.43 55.457C99.1087 57.556 96.0309 58.6055 92.1963 58.6055C89.613 58.6055 87.2516 58.0807 85.1123 57.0312C82.9932 55.9616 81.3281 54.4378 80.1172 52.46C78.9264 50.4619 78.3311 48.1107 78.3311 45.4062H81.7822C81.7822 48.5143 82.7207 50.9564 84.5977 52.7324C86.4746 54.5085 89.0075 55.3965 92.1963 55.3965C94.9814 55.3965 97.2116 54.6497 98.8867 53.1562C100.582 51.6628 101.43 49.6647 101.43 47.1621ZM133.52 47.1621C133.52 44.6999 132.813 42.7624 131.4 41.3496C130.008 39.9368 127.394 38.5846 123.56 37.293C119.725 36.0013 116.91 34.5583 115.113 32.9639C112.752 30.8851 111.571 28.1403 111.571 24.7295C111.571 21.359 112.732 18.6143 115.053 16.4951C117.374 14.376 120.371 13.3164 124.044 13.3164C127.798 13.3164 130.866 14.5475 133.247 17.0098C135.629 19.472 136.819 22.6406 136.819 26.5156H133.338C133.338 23.5488 132.5 21.1572 130.825 19.3408C129.17 17.5042 126.91 16.5859 124.044 16.5859C121.259 16.5859 119.059 17.3428 117.444 18.8564C115.85 20.3499 115.053 22.2874 115.053 24.6689C115.053 26.889 115.81 28.7054 117.323 30.1182C118.837 31.5309 121.249 32.7923 124.559 33.9023C127.868 34.9922 130.371 36.1325 132.066 37.3232C133.762 38.4938 135.013 39.8763 135.82 41.4707C136.628 43.0651 137.031 44.9421 137.031 47.1016C137.031 50.5527 135.861 53.3379 133.52 55.457C131.199 57.556 128.121 58.6055 124.286 58.6055C121.703 58.6055 119.341 58.0807 117.202 57.0312C115.083 55.9616 113.418 54.4378 112.207 52.46C111.016 50.4619 110.421 48.1107 110.421 45.4062H113.872C113.872 48.5143 114.811 50.9564 116.688 52.7324C118.564 54.5085 121.097 55.3965 124.286 55.3965C127.071 55.3965 129.301 54.6497 130.977 53.1562C132.672 51.6628 133.52 49.6647 133.52 47.1621ZM148.989 58H145.538V13.9219H148.989V58ZM187.376 40.7441C187.376 46.4355 186.125 50.8353 183.622 53.9434C181.14 57.0514 177.648 58.6055 173.147 58.6055C168.687 58.6055 165.186 57.0514 162.643 53.9434C160.12 50.8353 158.848 46.4658 158.828 40.835V31.2383C158.828 25.5671 160.09 21.1673 162.612 18.0391C165.135 14.8906 168.627 13.3164 173.087 13.3164C177.608 13.3164 181.119 14.8906 183.622 18.0391C186.125 21.1875 187.376 25.6175 187.376 31.3291V40.7441ZM183.895 31.1777C183.895 26.3542 182.966 22.7314 181.109 20.3096C179.253 17.8877 176.578 16.6768 173.087 16.6768C169.716 16.6768 167.083 17.8675 165.186 20.249C163.288 22.6104 162.32 26.1523 162.279 30.875V40.7441C162.279 45.5879 163.238 49.2308 165.155 51.6729C167.073 54.0947 169.737 55.3057 173.147 55.3057C176.659 55.3057 179.323 54.0947 181.14 51.6729C182.976 49.251 183.895 45.6081 183.895 40.7441V31.1777ZM224.34 58H220.889L200.091 20.4609V58H196.609V13.9219H200.091L220.919 51.5215V13.9219H224.34V58Z" fill="#00655A"/>
</mask>
<g mask="url(#mask0)">
<rect y="11" width="249" height="19" fill="#5FBBB5"/>
</g>
</svg>
