<svg width="315" height="80" viewBox="0 0 315 80" fill="none" xmlns="http://www.w3.org/2000/svg">
<rect width="315" height="80" fill="white"/>
<path d="M60.2675 60.2656C57.0022 60.3086 53.74 60.0446 50.5241 59.4771C50.1671 59.4575 49.8184 59.3616 49.5016 59.196C49.1847 59.0303 48.907 58.7987 48.6872 58.5166C48.4673 58.2346 48.3105 57.9088 48.2271 57.5611C48.1438 57.2134 48.1359 56.8518 48.2041 56.5008C48.2722 56.1498 48.4147 55.8175 48.6221 55.5262C48.8294 55.2348 49.0968 54.9913 49.4062 54.812C49.7155 54.6328 50.0597 54.5218 50.4156 54.4867C50.7714 54.4516 51.1306 54.4931 51.4691 54.6085C56.8007 55.6473 65.1298 55.5284 73.1961 54.3019C78.4104 53.5709 83.5193 52.2223 88.4151 50.2844C86.4479 47.7019 85.2719 44.6044 85.0296 41.367C85.0231 39.9544 85.301 38.5549 85.8468 37.2519C86.3926 35.9489 87.1951 34.7692 88.2065 33.7829C89.2179 32.7966 90.4174 32.024 91.7337 31.5112C93.05 30.9983 94.456 30.7556 95.8681 30.7976C97.1282 30.8545 98.364 31.1647 99.5015 31.7098C100.639 32.255 101.655 33.0238 102.489 33.9703C103.225 34.8663 103.768 35.9045 104.085 37.02C104.401 38.1355 104.484 39.3044 104.329 40.4534C103.903 44.3833 101.65 47.8814 97.6203 50.8413C97.3136 51.0729 96.9945 51.2919 96.6816 51.5047C99.6091 53.5442 103.131 54.5544 106.694 54.377C114.128 53.989 118.515 50.6599 118.584 50.6223C118.831 50.3653 119.131 50.1641 119.463 50.0323C119.794 49.9005 120.15 49.8412 120.506 49.8582C120.863 49.8752 121.212 49.9682 121.529 50.131C121.847 50.2938 122.126 50.5226 122.347 50.8021C122.569 51.0816 122.729 51.4052 122.815 51.7514C122.902 52.0976 122.913 52.4582 122.849 52.8092C122.785 53.1602 122.646 53.4934 122.443 53.7864C122.239 54.0795 121.975 54.3257 121.669 54.5084C121.444 54.6836 116.106 58.8513 106.982 59.3332C101.504 59.5933 96.1368 57.7281 92.0008 54.1267C85.6616 57.0553 78.3838 58.5071 73.9721 59.1955C69.4368 59.8919 64.8559 60.2496 60.2675 60.2656V60.2656ZM95.3111 35.7475C93.9128 35.8307 92.5956 36.4319 91.6167 37.434C90.6378 38.436 90.0675 39.7669 90.017 41.1668C90.2439 43.7113 91.2664 46.1198 92.9394 48.0504C93.5652 47.6686 94.1597 47.2744 94.7104 46.8676C97.5702 44.765 99.1597 42.4309 99.4288 39.9403C99.5068 39.4564 99.4843 38.9616 99.3627 38.4868C99.241 38.0119 99.0228 37.5673 98.7216 37.1806C98.3201 36.7494 97.8365 36.4027 97.2992 36.1609C96.7619 35.9191 96.1818 35.7871 95.5927 35.7726L95.3111 35.7475Z" fill="black"/>
<path d="M82.1137 33.3766C81.8387 33.3794 81.5704 33.2914 81.3503 33.1263C79.9701 32.1223 78.3947 31.4188 76.7258 31.0612C76.3856 31.009 76.08 30.8236 75.8764 30.5461C75.6728 30.2686 75.5878 29.9215 75.6401 29.5813C75.6923 29.241 75.8776 28.9355 76.1552 28.7319C76.4327 28.5283 76.7798 28.4433 77.12 28.4955C79.1988 28.8997 81.1639 29.754 82.8772 30.9986C83.0987 31.1604 83.2635 31.3879 83.3481 31.6489C83.4326 31.9098 83.4325 32.1908 83.3479 32.4517C83.2632 32.7126 83.0983 32.9401 82.8767 33.1017C82.655 33.2633 82.388 33.3507 82.1137 33.3516V33.3766Z" fill="black"/>
<path d="M81.0118 37.4518C80.9085 37.4517 80.8055 37.4391 80.7052 37.4143C79.2819 37.1025 77.8179 37.0201 76.3686 37.1702C76.0364 37.1948 75.7075 37.0912 75.4494 36.8806C75.1913 36.67 75.0238 36.3686 74.9813 36.0382C74.9389 35.7079 75.0246 35.3738 75.221 35.1048C75.4173 34.8358 75.7093 34.6522 76.0369 34.592C77.7999 34.4006 79.5824 34.5021 81.3122 34.8924C81.625 34.9622 81.9008 35.1456 82.0862 35.407C82.2717 35.6684 82.3537 35.9892 82.3163 36.3075C82.279 36.6259 82.1249 36.919 81.884 37.1304C81.643 37.3417 81.3323 37.4562 81.0118 37.4518V37.4518Z" fill="black"/>
<path d="M108.884 34.5663C108.587 34.558 108.301 34.4477 108.074 34.254C107.848 34.0603 107.695 33.7949 107.641 33.5019C107.587 33.209 107.635 32.9064 107.777 32.6445C107.919 32.3827 108.146 32.1774 108.421 32.0631C110.4 31.3031 112.52 30.9828 114.635 31.1245C114.965 31.1777 115.261 31.3553 115.463 31.6206C115.665 31.886 115.758 32.2188 115.722 32.5504C115.686 32.882 115.523 33.1871 115.269 33.4027C115.014 33.6183 114.687 33.7279 114.354 33.709C112.648 33.6167 110.942 33.8853 109.348 34.4974C109.199 34.5482 109.042 34.5715 108.884 34.5663V34.5663Z" fill="black"/>
<path d="M113.303 40.9243C113.015 40.9239 112.735 40.827 112.509 40.6489C111.328 39.8131 109.981 39.2411 108.56 38.9718C108.386 38.9478 108.219 38.8889 108.068 38.7986C107.918 38.7083 107.787 38.5885 107.684 38.4464C107.581 38.3043 107.508 38.1428 107.469 37.9717C107.43 37.8006 107.426 37.6234 107.457 37.4507C107.489 37.2781 107.554 37.1135 107.651 36.9669C107.747 36.8203 107.872 36.6947 108.019 36.5978C108.165 36.5008 108.329 36.4343 108.502 36.4025C108.674 36.3706 108.852 36.374 109.023 36.4124C110.86 36.7545 112.597 37.5005 114.111 38.5964C114.325 38.7635 114.481 38.9934 114.558 39.2539C114.635 39.5144 114.629 39.7925 114.54 40.0491C114.451 40.3058 114.284 40.5282 114.062 40.6851C113.84 40.842 113.575 40.9257 113.303 40.9243V40.9243Z" fill="black"/>
<path d="M102.814 28.039C102.136 27.9515 101.519 27.599 101.099 27.0585C100.679 26.518 100.491 25.8334 100.574 25.1541L101.006 21.7874C101.032 21.4397 101.128 21.1008 101.289 20.7914C101.45 20.482 101.672 20.2084 101.942 19.9872C102.211 19.766 102.523 19.6019 102.858 19.5046C103.193 19.4074 103.544 19.3791 103.89 19.4214C104.236 19.4638 104.57 19.576 104.872 19.7511C105.173 19.9263 105.436 20.1608 105.644 20.4405C105.853 20.7201 106.002 21.0392 106.084 21.3782C106.165 21.7173 106.177 22.0694 106.118 22.4132L105.693 25.7799C105.654 26.1181 105.549 26.4452 105.383 26.7423C105.217 27.0394 104.993 27.3006 104.725 27.5107C104.458 27.7208 104.151 27.8757 103.823 27.9664C103.495 28.0571 103.152 28.0818 102.814 28.039V28.039Z" fill="black"/>
<path d="M91.3313 26.5245C90.4239 27.7385 89.2287 28.1578 87.877 27.5132C87.2987 27.2323 86.8507 26.7396 86.6258 26.1372C86.401 25.5349 86.4165 24.8692 86.6692 24.278C86.8382 23.7961 87.1886 23.5395 87.5641 22.6509C87.9396 21.7623 87.877 21.2805 88.1586 20.7736C88.4243 20.2719 88.8559 19.8779 89.3797 19.6588C89.9035 19.4397 90.4871 19.409 91.0309 19.5721C91.6049 19.7181 92.1086 20.063 92.4523 20.5454C92.7961 21.0277 92.9576 21.6164 92.9082 22.2066C92.7912 23.7639 92.2454 25.2583 91.3313 26.5245Z" fill="black"/>
<path fill-rule="evenodd" clip-rule="evenodd" d="M146.1 21.0928H144.085C144.021 21.0836 143.955 21.0836 143.891 21.0928H135.343C135.127 21.0928 134.92 21.1785 134.768 21.3311C134.615 21.4836 134.529 21.6906 134.529 21.9063V58.5332C134.529 58.7489 134.615 58.9558 134.768 59.1084C134.92 59.261 135.127 59.3467 135.343 59.3467H141.044C141.259 59.3467 141.466 59.261 141.619 59.1084C141.771 58.9558 141.857 58.7489 141.857 58.5332V50.4356H146.1C155.437 50.4356 162.207 44.2716 162.207 35.7673C162.207 27.263 155.43 21.0928 146.1 21.0928ZM145.537 44.2028H141.857V27.5508L141.97 27.3256H145.556C150.837 27.4132 154.667 30.9613 154.667 35.7611C154.667 40.5608 150.831 44.1152 145.537 44.2028V44.2028Z" fill="black"/>
<path fill-rule="evenodd" clip-rule="evenodd" d="M197.076 41.7938C195.98 34.3532 190.499 29.541 183.108 29.541C174.454 29.541 167.927 35.9553 167.927 44.4659C167.927 52.9764 174.648 59.3281 183.571 59.3281C187.939 59.271 192.175 57.8268 195.668 55.2042C195.808 55.0969 195.911 54.9469 195.959 54.7765C196.008 54.6062 196 54.4247 195.937 54.2593L194.479 50.5046C194.431 50.3872 194.357 50.2822 194.263 50.1976C194.168 50.113 194.056 50.0511 193.934 50.0165C193.863 49.9965 193.789 49.9859 193.715 49.9852C193.536 49.9847 193.362 50.0442 193.221 50.1542C190.092 52.5634 186.875 53.7837 183.64 53.7837C180.405 53.7837 177.645 52.4445 176.006 50.029L175.599 49.4032L196.531 42.6511C196.706 42.5911 196.855 42.4736 196.954 42.3178C197.052 42.162 197.095 41.9772 197.076 41.7938ZM174.397 44.2969L174.479 43.4708C174.967 38.4959 178.54 35.0228 183.171 35.0228C184.48 34.981 185.775 35.2947 186.92 35.9305C188.065 36.5663 189.016 37.5004 189.673 38.6336L190.004 39.2093L174.397 44.2969Z" fill="black"/>
<path fill-rule="evenodd" clip-rule="evenodd" d="M219.147 59.3281C210.273 59.3281 203.577 52.9139 203.577 44.4033C203.577 36.0679 210.386 29.541 219.078 29.541C221.285 29.5584 223.473 29.9607 225.542 30.73C225.72 30.7946 225.87 30.9193 225.966 31.0827C226.062 31.2461 226.098 31.4378 226.068 31.6249L225.317 36.2869C225.297 36.4074 225.25 36.5218 225.179 36.6215C225.109 36.7212 225.017 36.8037 224.91 36.8626C224.788 36.9313 224.65 36.9679 224.509 36.969C224.404 36.9701 224.299 36.9488 224.203 36.9064C222.744 36.2842 221.177 35.9526 219.591 35.9302C218.459 35.8971 217.333 36.0936 216.279 36.5076C215.225 36.9217 214.266 37.5449 213.46 38.3395C212.654 39.1342 212.017 40.0839 211.587 41.1314C211.158 42.1789 210.945 43.3026 210.961 44.4346C210.961 49.2781 214.716 52.9326 219.653 52.9326C221.341 52.9142 223.008 52.5544 224.553 51.8751C224.654 51.8328 224.763 51.8115 224.872 51.8125C225.01 51.8108 225.146 51.8453 225.267 51.9126C225.375 51.9746 225.468 52.0602 225.538 52.1632C225.609 52.2662 225.655 52.3837 225.673 52.5071L226.349 57.1692C226.376 57.3485 226.341 57.5315 226.252 57.6891C226.162 57.8466 226.022 57.9698 225.855 58.039C223.723 58.8995 221.445 59.3374 219.147 59.3281V59.3281Z" fill="black"/>
<path fill-rule="evenodd" clip-rule="evenodd" d="M247.106 29.541C238.346 29.541 231.537 36.0992 231.537 44.4659C231.537 52.8325 238.346 59.3281 247.106 59.3281C255.867 59.3281 262.613 52.8012 262.607 44.4659C262.601 36.1305 255.786 29.541 247.106 29.541ZM247.106 52.9076C245.995 52.9111 244.894 52.6926 243.868 52.2648C242.842 51.837 241.911 51.2086 241.131 50.4165C240.351 49.6243 239.738 48.6843 239.326 47.6518C238.914 46.6192 238.713 45.5147 238.734 44.4033C238.703 43.289 238.896 42.18 239.301 41.1416C239.707 40.1032 240.316 39.1566 241.093 38.3577C241.871 37.5588 242.8 36.9238 243.827 36.4902C244.854 36.0566 245.957 35.8332 247.072 35.8332C248.187 35.8332 249.29 36.0566 250.317 36.4902C251.344 36.9238 252.273 37.5588 253.051 38.3577C253.828 39.1566 254.437 40.1032 254.843 41.1416C255.248 42.18 255.441 43.289 255.411 44.4033C255.398 49.2531 251.831 52.9076 247.106 52.9076V52.9076Z" fill="black"/>
<path d="M95.298 35.7363C93.8997 35.8195 92.5825 36.4207 91.6036 37.4228C90.6247 38.4248 90.0544 39.7557 90.0039 41.1556C90.2307 43.7001 91.2532 46.1086 92.9263 48.0391C93.5521 47.6574 94.1466 47.2632 94.6972 46.8564C97.5571 44.7538 99.1465 42.4197 99.4156 39.9291C99.4937 39.4452 99.4712 38.9504 99.3495 38.4755C99.2279 38.0007 99.0096 37.5561 98.7085 37.1694C98.307 36.7382 97.8234 36.3915 97.2861 36.1497C96.7488 35.9079 96.1686 35.7759 95.5796 35.7614L95.298 35.7363Z" fill="#E94B24"/>
</svg>
