<!-- 01EZTX9M3AWK0ZB16B6KYR56F1 -->

<svg width="32" height="32" viewBox="0 0 32 32" fill="none" xmlns="http://www.w3.org/2000/svg">
<path fill-rule="evenodd" clip-rule="evenodd" d="M16 32C24.8366 32 32 24.8366 32 16C32 7.16344 24.8366 0 16 0C7.16344 0 0 7.16344 0 16C0 24.8366 7.16344 32 16 32Z" fill="black" fill-opacity="0.38"/>
<path d="M9.14058 21.2108C8.68621 21.6653 8.68621 22.4022 9.14058 22.8567C9.59495 23.3112 10.3316 23.3112 10.786 22.8567L15.9987 17.6424L21.2136 22.8589C21.668 23.3134 22.4047 23.3134 22.859 22.8589C23.3134 22.4044 23.3134 21.6675 22.859 21.213L17.6441 15.9965L22.8523 10.7866C23.3067 10.3321 23.3067 9.5952 22.8523 9.14069C22.398 8.68618 21.6613 8.68618 21.2069 9.14069L15.9987 14.3505L10.7927 9.14287C10.3383 8.68836 9.60165 8.68836 9.14729 9.14287C8.69292 9.59738 8.69292 10.3343 9.14729 10.7888L14.3533 15.9965L9.14058 21.2108Z" fill="white" fill-opacity="0.87"/>
</svg>
