<!-- 01EZTX9M3AWK0ZB16B6KYR56F1 -->

<svg xmlns="http://www.w3.org/2000/svg" xmlns:xlink="http://www.w3.org/1999/xlink" style="margin:auto;display:block;" width="200px" height="200px" viewBox="0 0 47 38" preserveAspectRatio="xMidYMid">
<defs>
    <path
        fill="#fff"
        id="abc"
        d="M5.41,16.55
            C3,13.86,4.35,10.44,4.52,10
            s.45-.24.59,0,3.42,4.29,3.42,4.29
            H25.7L34.83,1.22
            c.3-.44.54-.49.75-.49s.54.07.54.68
            V8.12
            s8.61,5,9.85,5.64.87,1.52.56,2.18
            l-3.84,8.22
            c-.09.21-.33.21-.4.07
            s-1-1.4-1.15-1.69
            a.31.31,0,0,0-.52-.09
            c-.09.07-.61.42-.82.58
            a.36.36,0,0,1-.51-.12
            L38,21
            a.23.23,0,0,0-.35,0
            c-.07,0-.47.44-.75.72
            s-.37.16-.58-.12
            c-.08-.11-.84-1.26-1-1.43
            s-.28-.07-.4.09-1.22,1.87-1.61,2.5
            A1.71,1.71,0,0,0,33,23.88
            c0,.23,1.17,12.9,1.17,12.9
            H26.24
            l-1.33-8.85
            H16.24
            a4.37,4.37,0,0,0-3,1.38
            C12,30.5,11,36.73,11,36.73
            H3.28Z;"
        >
        <animate 
            attributeType="CSS" attributeName="display" 
            from="block" to="none" dur="0.6s" repeatCount="indefinite" />
    </path>
    <path
        fill="#fff"
        id="abcd"
        d="M5.35,16.48
            c-2.39-2.69-.57-6.36.39-7.11.15-.11.45-.24.59,0
            s2.14,4.88,2.14,4.88
            H25.65
            L34.77,1.15
            c.3-.44.54-.49.75-.49s.54.07.54.68
            V8.05
            s8.61,5,9.85,5.64.87,1.52.56,2.18
            l-3.84,8.22
            c-.09.21-.33.21-.4.07
            s-1-1.4-1.15-1.69
            a.31.31,0,0,0-.52-.09
            c-.09.07-.61.42-.82.58
            a.36.36,0,0,1-.51-.12
            L38,20.92
            a.23.23,0,0,0-.35,0
            c-.07,0-.47.44-.75.72
            s-.37.16-.58-.12
            c-.08-.11-.84-1.26-1-1.43
            s-.28-.07-.4.09-1.22,1.87-1.61,2.5
            a1.71,1.71,0,0,0-.35,1.15
            c0,.23,7,11.73,7,11.73l-5,1.81-10-9.49
            H16.19
            a4.37,4.37,0,0,0-3,1.38
            C12,30.43,6.3,36.65,6.3,36.65
            L.11,35Z;"
        >
        <animate 
            attributeType="CSS" attributeName="display" 
            from="none" to="block" dur="0.6s" repeatCount="indefinite" />
    </path>

    </defs>
<use xlink:href="#abc" />
<use xlink:href="#abcd" />
</svg>
