<svg width="23" height="16" viewBox="0 0 23 16" fill="none" xmlns="http://www.w3.org/2000/svg">
<path fill-rule="evenodd" clip-rule="evenodd" d="M11.5 0.700195C6.5 0.700195 2.23 3.8102 0.5 8.2002C2.23 12.5902 6.5 15.7002 11.5 15.7002C16.5 15.7002 20.77 12.5902 22.5 8.2002C20.77 3.8102 16.5 0.700195 11.5 0.700195ZM11.5 13.2002C8.74 13.2002 6.5 10.9602 6.5 8.2002C6.5 5.4402 8.74 3.2002 11.5 3.2002C14.26 3.2002 16.5 5.4402 16.5 8.2002C16.5 10.9602 14.26 13.2002 11.5 13.2002ZM11.5 5.2002C9.84 5.2002 8.5 6.5402 8.5 8.2002C8.5 9.8602 9.84 11.2002 11.5 11.2002C13.16 11.2002 14.5 9.8602 14.5 8.2002C14.5 6.5402 13.16 5.2002 11.5 5.2002Z" fill="black" fill-opacity="0.6"/>
</svg>
