<!-- 01EZTX9M3AWK0ZB16B6KYR56F1 -->

<svg width="46" height="61" viewBox="0 0 46 61" fill="none" xmlns="http://www.w3.org/2000/svg">
<path d="M42.73 31.8102C42.5075 29.5799 41.902 27.4046 40.94 25.3802C40.9075 25.2983 40.8708 25.2182 40.83 25.1402C40.2708 24.0038 39.6008 22.9252 38.83 21.9202C38.63 21.6402 38.41 21.3702 38.18 21.1002C37.95 20.8302 37.81 20.6702 37.62 20.4602C37.19 19.9902 36.74 19.5402 36.26 19.1102C35.6979 18.6031 35.1069 18.129 34.49 17.6902C34.3648 17.5935 34.2346 17.5034 34.1 17.4202C33.1247 16.7395 32.0867 16.1536 31 15.6702C30.64 15.5102 30.28 15.3702 29.92 15.2302C29.56 15.0902 29.14 14.9602 28.74 14.8402C28.34 14.7202 28.01 14.6302 27.64 14.5502H27.53L26.61 14.3602C26.27 14.2902 25.92 14.2402 25.56 14.2002C23.8738 13.9801 22.1662 13.9801 20.48 14.2002C20.13 14.2002 19.78 14.2902 19.48 14.3602L18.55 14.5502H18.46L18.03 14.6602L17.44 14.8302L17.04 14.9502C16.73 15.0402 16.42 15.1502 16.11 15.2702C15.8 15.3902 15.39 15.5502 15.04 15.7102C14.69 15.8702 14.34 16.0302 14.04 16.2102C13.74 16.3902 13.53 16.4702 13.28 16.6202L12.9 16.8402C12.3586 17.1623 11.8345 17.5128 11.33 17.8902L10.88 18.2302L10.57 18.4802C10.4 18.6102 10.23 18.7502 10.07 18.9002C9.91003 19.0502 9.64003 19.2802 9.42003 19.4902L9.19003 19.7202C9.10844 19.7953 9.03162 19.8755 8.96003 19.9602C8.87707 20.0232 8.80306 20.0972 8.74003 20.1802C8.65845 20.2518 8.58162 20.3286 8.51003 20.4102L8.30003 20.6502C8.23436 20.7151 8.17416 20.7854 8.12003 20.8602C7.95003 21.0402 7.79003 21.2302 7.64003 21.4202L7.00003 22.1002C6.30039 23.0427 5.68787 24.0468 5.17003 25.1002C5.12926 25.1782 5.09255 25.2583 5.06003 25.3402C4.09677 27.3635 3.49438 29.5395 3.28003 31.7702L1.00003 53.9002C0.969015 54.1464 1.03065 54.3953 1.17296 54.5986C1.31527 54.8019 1.52808 54.945 1.77003 55.0002L22.77 60.0002C22.9208 60.04 23.0793 60.04 23.23 60.0002L44.23 55.0002C44.472 54.945 44.6848 54.8019 44.8271 54.5986C44.9694 54.3953 45.031 54.1464 45 53.9002L42.73 31.8102ZM23 58.0002L3.08003 53.2302L5.26003 32.0002C5.65695 28.1639 7.28636 24.5596 9.90409 21.7274C12.5218 18.8951 15.9869 16.9874 19.78 16.2902C22.1997 15.8469 24.6848 15.9088 27.0794 16.472C29.474 17.0352 31.7262 18.0875 33.6946 19.5628C35.663 21.0382 37.305 22.9047 38.5174 25.045C39.7299 27.1854 40.4866 29.5534 40.74 32.0002L42.92 53.2202L23 58.0002Z" fill="#5FBBB5"/>
<path d="M24.33 43H21.67C20.7412 42.9895 19.8409 43.3204 19.14 43.93C18.7876 44.2237 18.5032 44.5904 18.3064 45.0048C18.1096 45.4192 18.0051 45.8713 18 46.33C18 48.12 20.26 49.23 22 49.57C22.3295 49.6346 22.6643 49.6681 23 49.67C23.3355 49.6647 23.67 49.6312 24 49.57C24.6964 49.4325 25.3698 49.1968 26 48.87C26.5354 48.6726 27.0057 48.3308 27.3587 47.8824C27.7117 47.4341 27.9337 46.8968 28 46.33C27.9508 45.4032 27.5376 44.5334 26.8503 43.9097C26.163 43.2861 25.2572 42.9591 24.33 43ZM25.08 47.1C24.4364 47.439 23.7265 47.6336 23 47.67C21.67 47.67 20 46.67 20 46.33C20.0038 46.155 20.0472 45.9831 20.1268 45.8273C20.2065 45.6714 20.3204 45.5356 20.46 45.43C20.7963 45.1419 21.2274 44.9887 21.67 45H24.33C24.7258 44.9654 25.1197 45.0842 25.4305 45.3317C25.7412 45.5791 25.9451 45.9365 26 46.33C26 46.4 25.8 46.72 25.08 47.1Z" fill="#5FBBB5"/>
<path opacity="0.5" d="M26 46.33C26 46.4 25.8 46.72 25.08 47.1C24.4364 47.4391 23.7265 47.6336 23 47.67C21.67 47.67 20 46.67 20 46.33C20.0038 46.155 20.0472 45.9831 20.1268 45.8273C20.2065 45.6714 20.3204 45.5356 20.46 45.43C20.7963 45.142 21.2274 44.9888 21.67 45H24.33C24.7258 44.9655 25.1197 45.0842 25.4305 45.3317C25.7412 45.5792 25.9451 45.9366 26 46.33Z" fill="#5FBBB5"/>
<path d="M20.46 14.17C19.52 7.13 17.11 0 13 0C7.8 0 5 11.59 5 22.5C5 23.5 5 24.5 5.06 25.38C5.06 25.47 5.06 25.55 5.06 25.63C5.07112 25.8519 5.15578 26.0637 5.30064 26.2321C5.4455 26.4005 5.6423 26.5159 5.86 26.56H6.06C6.25415 26.5681 6.44645 26.5194 6.61338 26.42C6.78032 26.3205 6.91467 26.1746 7 26C8.2254 23.4893 10.0227 21.301 12.2475 19.6111C14.4723 17.9213 17.0625 16.7769 19.81 16.27C20.0556 16.2214 20.274 16.0825 20.4221 15.8807C20.5702 15.6789 20.6373 15.4288 20.61 15.18C20.55 14.86 20.51 14.51 20.46 14.17ZM18.4 14.54L17.97 14.65L17.38 14.82C17.244 14.8507 17.1104 14.8908 16.98 14.94C16.67 15.04 16.36 15.14 16.05 15.26C15.74 15.38 15.33 15.54 14.98 15.7C14.63 15.86 14.28 16.02 13.98 16.2C13.68 16.38 13.47 16.46 13.22 16.61C12.97 16.76 12.96 16.75 12.84 16.83C12.2985 17.1521 11.7745 17.5026 11.27 17.88L10.82 18.22L10.51 18.47C10.34 18.6 10.18 18.74 10.01 18.89C9.84 19.04 9.58 19.27 9.36 19.48C9.14 19.69 9.05 19.78 8.9 19.95C8.81704 20.013 8.74303 20.087 8.68 20.17C8.52 20.32 8.38 20.48 8.24 20.64C8.17433 20.7049 8.11413 20.7752 8.06 20.85C7.89 21.03 7.73 21.22 7.58 21.41L7 22.1C7.07 10.56 10.2 2 13 2C14.9 2 17.42 6.38 18.49 14.52L18.4 14.54Z" fill="#5FBBB5"/>
<path opacity="0.5" d="M18.49 14.52H18.4L17.97 14.63L17.38 14.8L16.98 14.92C16.67 15.01 16.36 15.12 16.05 15.24C15.74 15.36 15.33 15.52 14.98 15.68C14.63 15.84 14.28 16 13.98 16.18C13.68 16.36 13.47 16.44 13.22 16.59L12.84 16.81C12.2985 17.1321 11.7745 17.4826 11.27 17.86L10.82 18.2L10.51 18.45C10.34 18.58 10.17 18.72 10.01 18.87C9.85 19.02 9.58 19.25 9.36 19.46C9.19421 19.604 9.04037 19.7612 8.9 19.93C8.81704 19.993 8.74303 20.067 8.68 20.15C8.52044 20.2941 8.37325 20.4513 8.24 20.62C8.17433 20.6849 8.11413 20.7552 8.06 20.83C7.88903 21.007 7.72875 21.194 7.58 21.39L7 22.1C7.07 10.56 10.2 2 13 2C14.9 2 17.42 6.38 18.49 14.52Z" fill="#5FBBB5"/>
<path d="M32.9981 0C28.8881 0 26.4781 7.13 25.5381 14.17C25.5381 14.51 25.4481 14.86 25.4081 15.17C25.3811 15.4203 25.4496 15.6715 25.5997 15.8736C25.7499 16.0756 25.9707 16.2136 26.2181 16.26C28.9628 16.7678 31.5497 17.9139 33.7697 19.6059C35.9897 21.2978 37.7808 23.4882 38.9981 26C39.0806 26.1683 39.2087 26.31 39.3678 26.4091C39.5269 26.5081 39.7107 26.5604 39.8981 26.56H40.0981C40.3158 26.5159 40.5126 26.4005 40.6575 26.2321C40.8023 26.0637 40.887 25.8519 40.8981 25.63C40.8981 25.55 40.8981 25.47 40.8981 25.38C40.8981 24.49 40.9581 23.55 40.9581 22.5C40.9981 11.59 38.1981 0 32.9981 0ZM38.2081 21.1C38.0281 20.88 37.8381 20.67 37.6481 20.46C37.2181 19.99 36.7681 19.54 36.2881 19.11C35.7259 18.603 35.135 18.1288 34.5181 17.69C34.3929 17.5933 34.2627 17.5032 34.1281 17.42C33.1433 16.7377 32.0951 16.1517 30.9981 15.67C30.6381 15.51 30.2781 15.37 29.9181 15.23C29.5581 15.09 29.1381 14.96 28.7381 14.84C28.3381 14.72 28.0081 14.63 27.6381 14.55H27.5281C28.5781 6.38 31.0981 2 32.9981 2C35.7981 2 38.9281 10.57 38.9981 22.1L38.8581 21.92C38.6581 21.64 38.4381 21.37 38.2081 21.1Z" fill="#5FBBB5"/>
<path opacity="0.5" d="M39.0013 22.1L38.8613 21.92C38.6613 21.64 38.4412 21.37 38.2113 21.1C37.9813 20.83 37.8513 20.67 37.6513 20.46C37.2213 19.99 36.7713 19.54 36.2913 19.11C35.7291 18.603 35.1381 18.1288 34.5213 17.69C34.396 17.5933 34.2658 17.5032 34.1313 17.42C33.1464 16.7377 32.0983 16.1517 31.0013 15.67C30.6413 15.51 30.2812 15.37 29.9212 15.23C29.5612 15.09 29.1413 14.96 28.7413 14.84C28.3413 14.72 28.0113 14.63 27.6413 14.55H27.5312C28.5812 6.38 31.1013 2 33.0013 2C35.8013 2 38.9313 10.57 39.0013 22.1Z" fill="#5FBBB5"/>
<path d="M19 54C18.1958 53.9847 17.4083 53.768 16.7095 53.3697C16.0107 52.9714 15.4229 52.4042 15 51.72L12.19 47.23C11.9572 46.858 11.6347 46.5504 11.252 46.3355C10.8694 46.1206 10.4388 46.0052 10 46C9.73478 46 9.48043 45.8947 9.29289 45.7071C9.10536 45.5196 9 45.2652 9 45C9 44.7348 9.10536 44.4805 9.29289 44.2929C9.48043 44.1054 9.73478 44 10 44C10.7829 43.9974 11.5533 44.1955 12.2378 44.5754C12.9224 44.9553 13.4981 45.5043 13.91 46.17L16.72 50.66C16.9615 51.0527 17.2957 51.3803 17.6932 51.6139C18.0907 51.8475 18.5394 51.9801 19 52C19.2652 52 19.5196 52.1054 19.7071 52.2929C19.8946 52.4805 20 52.7348 20 53C20 53.2652 19.8946 53.5196 19.7071 53.7071C19.5196 53.8947 19.2652 54 19 54Z" fill="#5FBBB5"/>
<path d="M23 54C22.7348 54 22.4804 53.8946 22.2929 53.7071C22.1054 53.5196 22 53.2652 22 53V49C22 48.7348 22.1054 48.4804 22.2929 48.2929C22.4804 48.1054 22.7348 48 23 48C23.2652 48 23.5196 48.1054 23.7071 48.2929C23.8946 48.4804 24 48.7348 24 49V53C24 53.2652 23.8946 53.5196 23.7071 53.7071C23.5196 53.8946 23.2652 54 23 54Z" fill="#5FBBB5"/>
<path d="M27 54C26.7348 54 26.4804 53.8946 26.2929 53.7071C26.1054 53.5196 26 53.2652 26 53C26 52.7348 26.1054 52.4804 26.2929 52.2929C26.4804 52.1054 26.7348 52 27 52C27.4649 51.986 27.919 51.8572 28.3221 51.6252C28.7251 51.3931 29.0645 51.065 29.31 50.67L32.12 46.18C32.5281 45.5167 33.0985 44.9685 33.7774 44.587C34.4563 44.2056 35.2213 44.0035 36 44C36.2652 44 36.5196 44.1054 36.7071 44.2929C36.8946 44.4804 37 44.7348 37 45C37 45.2652 36.8946 45.5196 36.7071 45.7071C36.5196 45.8946 36.2652 46 36 46C35.5578 46.0018 35.1232 46.1156 34.7367 46.3307C34.3503 46.5457 34.0246 46.8551 33.79 47.23L31 51.72C30.5771 52.4042 29.9893 52.9714 29.2905 53.3697C28.5917 53.768 27.8042 53.9847 27 54Z" fill="#5FBBB5"/>
<path d="M19.1389 54H18.9989C18.8675 53.9908 18.7393 53.9558 18.6215 53.8971C18.5037 53.8383 18.3986 53.757 18.3123 53.6576C18.2259 53.5583 18.1599 53.4429 18.1182 53.318C18.0764 53.1932 18.0597 53.0613 18.0689 52.93C18.078 52.7987 18.113 52.6705 18.1718 52.5527C18.2305 52.4348 18.3119 52.3298 18.4112 52.2434C18.5106 52.157 18.626 52.0911 18.7508 52.0493C18.8757 52.0076 19.0075 51.9908 19.1389 52H19.3389C19.5736 52.0405 19.7863 52.1635 19.9384 52.3468C20.0906 52.5301 20.1723 52.7618 20.1689 53C20.1689 53.1339 20.1421 53.2664 20.09 53.3897C20.0378 53.5131 19.9615 53.6247 19.8654 53.7179C19.7694 53.8112 19.6556 53.8842 19.5308 53.9327C19.4059 53.9811 19.2727 54.004 19.1389 54Z" fill="#5FBBB5"/>
<path d="M26.9994 53.9998H26.8594C26.5942 53.9998 26.3398 53.8944 26.1523 53.7069C25.9647 53.5193 25.8594 53.265 25.8594 52.9998C25.8594 52.7346 25.9647 52.4802 26.1523 52.2927C26.3398 52.1051 26.5942 51.9998 26.8594 51.9998C26.9999 51.9707 27.1452 51.9745 27.284 52.0109C27.4228 52.0474 27.5513 52.1154 27.6594 52.2098C27.7712 52.3079 27.8598 52.4297 27.9186 52.5664C27.9775 52.703 28.005 52.8511 27.9994 52.9998C27.9994 53.265 27.894 53.5193 27.7065 53.7069C27.5189 53.8944 27.2646 53.9998 26.9994 53.9998Z" fill="#5FBBB5"/>
<path d="M27 54H19C18.7348 54 18.4804 53.8946 18.2929 53.7071C18.1054 53.5196 18 53.2652 18 53C18 52.7348 18.1054 52.4804 18.2929 52.2929C18.4804 52.1054 18.7348 52 19 52H27C27.2652 52 27.5196 52.1054 27.7071 52.2929C27.8946 52.4804 28 52.7348 28 53C28 53.2652 27.8946 53.5196 27.7071 53.7071C27.5196 53.8946 27.2652 54 27 54Z" fill="#5FBBB5"/>
<path d="M13.4286 32.9549C13.2582 33.1253 13.2582 33.4017 13.4286 33.5721C13.599 33.7426 13.8752 33.7426 14.0456 33.5721L16.0004 31.6167L17.956 33.5729C18.1263 33.7434 18.4026 33.7434 18.573 33.5729C18.7434 33.4025 18.7434 33.1262 18.573 32.9557L16.6174 30.9995L18.5705 29.0458C18.7409 28.8754 18.7409 28.5991 18.5705 28.4286C18.4001 28.2582 18.1238 28.2582 17.9534 28.4286L16.0004 30.3823L14.0481 28.4294C13.8777 28.259 13.6015 28.259 13.4311 28.4294C13.2607 28.5999 13.2607 28.8762 13.4311 29.0467L15.3833 30.9995L13.4286 32.9549Z" fill="#5FBBB5" stroke="#5FBBB5" stroke-width="0.5"/>
<path d="M27.4286 32.9539C27.2582 33.1244 27.2582 33.4007 27.4286 33.5712C27.599 33.7416 27.8752 33.7416 28.0456 33.5712L30.0004 31.6158L31.956 33.572C32.1263 33.7424 32.4026 33.7424 32.573 33.572C32.7434 33.4015 32.7434 33.1252 32.573 32.9548L30.6174 30.9985L32.5705 29.0449C32.7409 28.8744 32.7409 28.5981 32.5705 28.4276C32.4001 28.2572 32.1238 28.2572 31.9534 28.4276L30.0004 30.3813L28.0481 28.4285C27.8777 28.258 27.6015 28.258 27.4311 28.4285C27.2607 28.5989 27.2607 28.8752 27.4311 29.0457L29.3833 30.9985L27.4286 32.9539Z" fill="#5FBBB5" stroke="#5FBBB5" stroke-width="0.5"/>
</svg>
