<svg width="21" height="20" viewBox="0 0 21 20" fill="none" xmlns="http://www.w3.org/2000/svg">
<path fill-rule="evenodd" clip-rule="evenodd" d="M10.5004 0C4.83169 0 0.236328 4.47715 0.236328 10C0.236328 15.5228 4.83169 20 10.5004 20C16.169 20 20.7644 15.5228 20.7644 10C20.7644 4.47715 16.169 0 10.5004 0ZM10.5005 5C10.0282 5 9.64519 5.3731 9.64519 5.83333V10.8337C9.64519 11.2939 10.0282 11.667 10.5005 11.667C10.9729 11.667 11.3559 11.2939 11.3559 10.8337V5.83333C11.3559 5.37309 10.9729 5 10.5005 5ZM11.3557 14.1667C11.3557 14.6269 10.9728 15 10.5004 15C10.028 15 9.64502 14.6269 9.64502 14.1667C9.64502 13.7064 10.028 13.3333 10.5004 13.3333C10.9728 13.3333 11.3557 13.7064 11.3557 14.1667Z" fill="#E0705A"/>
</svg>
