<!-- 01EZTX9M3AWK0ZB16B6KYR56F1 -->

<svg id="Layer_1" data-name="Layer 1" xmlns="http://www.w3.org/2000/svg" viewBox="0 0 50.82 50.82"><defs><style>.cls-1{fill:#5fbbb5;}</style></defs><title>moon-icon</title><path class="cls-1" d="M8.82,37.29a.92.92,0,1,0,.92.92A.92.92,0,0,0,8.82,37.29Z"/><path class="cls-1" d="M17.18,37.29a.92.92,0,1,0,.92.92A.92.92,0,0,0,17.18,37.29Z"/><path class="cls-1" d="M15.1,44.55a1,1,0,0,1-.49.13,1.36,1.36,0,0,1-.85-.34,1.3,1.3,0,0,1-.26-.3.59.59,0,0,1-.06-.11v0h0V43l.12-.07,1.19-1a.69.69,0,0,0-.44-1.23H11.7A.69.69,0,0,0,11.26,42l1.19,1,.12.07v.85h0a.58.58,0,0,1-.1.2,1.49,1.49,0,0,1-.45.4,1.25,1.25,0,0,1-.62.18,1,1,0,0,1-.49-.13,1.68,1.68,0,0,1-.54-.52l-.7.49a2.53,2.53,0,0,0,.82.78,1.84,1.84,0,0,0,.91.24A2.2,2.2,0,0,0,12.8,45l.2-.2a2.39,2.39,0,0,0,.49.41,2.12,2.12,0,0,0,1.11.33,1.84,1.84,0,0,0,.91-.24,2.53,2.53,0,0,0,.82-.78l-.7-.49A1.68,1.68,0,0,1,15.1,44.55Z"/><path class="cls-1" d="M25.27,38.55A21.46,21.46,0,0,0,23,34.91c-.63-.82-1.16-1.42-1.32-1.61a6.87,6.87,0,0,0-1.71-2.05,9.55,9.55,0,0,0-6.31-2.07H12.39a9.55,9.55,0,0,0-6.31,2.07A6.88,6.88,0,0,0,4.37,33.3,30.92,30.92,0,0,0,2.25,36,18.48,18.48,0,0,0,.73,38.55,6.43,6.43,0,0,0,0,41.2a7.47,7.47,0,0,0,.43,2.24,25.9,25.9,0,0,0,1.5,3.47c.27.53.53,1,.75,1.43s.4.75.51,1a2.94,2.94,0,0,0,.94,1.11,2.24,2.24,0,0,0,1.27.42,1.89,1.89,0,0,0,.84-.2,2.11,2.11,0,0,0,.95-1A3.78,3.78,0,0,0,7.52,48v-.12l.21.2A11.12,11.12,0,0,0,8.88,49a3.62,3.62,0,0,0,1.28.62,8.34,8.34,0,0,0,1.66.18A4.56,4.56,0,0,0,13,49.66a4.56,4.56,0,0,0,1.18.14,8.35,8.35,0,0,0,1.66-.18A3.62,3.62,0,0,0,17.12,49a11.86,11.86,0,0,0,1.35-1.14V48A3.36,3.36,0,0,0,19.06,50a2,2,0,0,0,.7.58,1.89,1.89,0,0,0,.84.2,2.24,2.24,0,0,0,1.27-.42,2.94,2.94,0,0,0,.94-1.11c.14-.29.42-.79.74-1.4.49-.92,1.09-2.09,1.58-3.28a15.38,15.38,0,0,0,.62-1.77A6.45,6.45,0,0,0,26,41.2,6.43,6.43,0,0,0,25.27,38.55ZM24.35,43a24.72,24.72,0,0,1-1.43,3.29c-.53,1-1,1.91-1.26,2.4a1.66,1.66,0,0,1-.52.63,1,1,0,0,1-.54.19.6.6,0,0,1-.27-.06.83.83,0,0,1-.37-.41,2.52,2.52,0,0,1-.2-1.09V42.33H18.48V46c-.17.18-.64.7-1.2,1.2a9.09,9.09,0,0,1-.95.76,2.34,2.34,0,0,1-.74.37,7.06,7.06,0,0,1-1.41.16,3.63,3.63,0,0,1-.76-.07l-.15,0h0L13,48.29l-.25.11a2.8,2.8,0,0,1-.93.12,7.06,7.06,0,0,1-1.41-.16,2.49,2.49,0,0,1-.8-.41,11.75,11.75,0,0,1-1.46-1.26l-.5-.52L7.52,46v-3.7H6.25V48a2.12,2.12,0,0,1-.32,1.29.71.71,0,0,1-.25.21.61.61,0,0,1-.27.06,1,1,0,0,1-.54-.19,1.66,1.66,0,0,1-.52-.63c-.16-.33-.43-.82-.76-1.42-.48-.9-1.06-2-1.52-3.17a14.1,14.1,0,0,1-.57-1.62,5.21,5.21,0,0,1-.21-1.32,5.25,5.25,0,0,1,.6-2.1,20.25,20.25,0,0,1,2.18-3.41c.37-.48.7-.88.94-1.16l.28-.32.07-.08,0,0L5.44,34l0-.09h0A5.6,5.6,0,0,1,7,32.15a8.33,8.33,0,0,1,5.39-1.69H13l0-.64,0,.64h.58a8.27,8.27,0,0,1,5.49,1.78,6.19,6.19,0,0,1,1.11,1.2,4.41,4.41,0,0,1,.24.38l.05.1v0h0l0,.09.07.08h0a29.52,29.52,0,0,1,2.17,2.76,16.52,16.52,0,0,1,1.35,2.3,5.13,5.13,0,0,1,.57,2A6.3,6.3,0,0,1,24.35,43Z"/><path class="cls-1" d="M48.87,37.39a7.28,7.28,0,0,1,1.28,2.2A9.78,9.78,0,0,1,50.72,43a1.59,1.59,0,0,1-.1.56,2,2,0,0,1-.26.48,3.72,3.72,0,0,1-.86.82,7.13,7.13,0,0,1-.81.5,12,12,0,0,1-1.4.63,21.47,21.47,0,0,1-2.48.75,38.65,38.65,0,0,1-4.5.79A70.42,70.42,0,0,1,32,48a67.54,67.54,0,0,1-9.17-.56,6.66,6.66,0,0,0,1-1.44h0a68.62,68.62,0,0,0,8.12.44A67.75,67.75,0,0,0,40.35,46a31.69,31.69,0,0,0,5.49-1.12A12.07,12.07,0,0,0,48,44a4.92,4.92,0,0,0,.72-.47,1.66,1.66,0,0,0,.38-.4.35.35,0,0,0,0-.08h0a7.93,7.93,0,0,0-.59-3.19,5.76,5.76,0,0,0-1.49-2,8.17,8.17,0,0,0-1.38-1,16.57,16.57,0,0,0-2.15-1l-1.25-.47c-.59-.22-1.18-.43-1.75-.67A11.6,11.6,0,0,1,39,33.9l-.09-.06a5.47,5.47,0,0,1-.47.64,6.64,6.64,0,0,1-1.3,1.15A9.48,9.48,0,0,1,34,37a8.63,8.63,0,0,1-2,.26,8.16,8.16,0,0,1-1.28-.11,10,10,0,0,1-1.37-.33,9.15,9.15,0,0,1-2.66-1.33A6.11,6.11,0,0,1,25.3,34l-.14-.22a9.44,9.44,0,0,1-1,.54c-.52.25-1.06.47-1.62.68l-.2.07q-.25-.36-.53-.71t-.49-.58c.52-.19,1-.38,1.48-.57a9.75,9.75,0,0,0,1.36-.67,3.83,3.83,0,0,0,1.05-.9,2.45,2.45,0,0,0,.33-.57,2.71,2.71,0,0,0,.18-.75,8.58,8.58,0,0,0,0-.87,12.24,12.24,0,0,0-.26-2.39,9.16,9.16,0,0,1-1.2-1.76,19.05,19.05,0,0,1-1.08-2.47,4.64,4.64,0,0,1-1.18-.76,5.32,5.32,0,0,1-1.27-1.75,8.39,8.39,0,0,1-.57-1.71,3.64,3.64,0,0,1,.31-2.46,4.29,4.29,0,0,1,.68-1L21,14.37v-.09h0a.42.42,0,0,0,0-.06V14l0-.15,0-.29v-.05l0-.24v0s0-.06,0-.1a19,19,0,0,1-.39-3.61,15.34,15.34,0,0,1,.26-2.82,19,19,0,0,1,1-3.34,4.58,4.58,0,0,1,.35-.7,7.24,7.24,0,0,1,.45-.65,10.31,10.31,0,0,1,1-1.12,7.88,7.88,0,0,1,.62-.54A3,3,0,0,1,24.5.18l.19-.1.14,0a.93.93,0,0,1,.23,0l.16,0a.8.8,0,0,1,.21.07l.12.05.21.08.6.2a11.56,11.56,0,0,0,1.73.39,3.48,3.48,0,0,0,.52,0l.3,0,.3-.05.27-.06.6-.12c.25,0,.54-.09.88-.12.91-.09,1.72-.17,2.5-.17a7.9,7.9,0,0,1,1.64.15,5.52,5.52,0,0,1,1.56.58,6.12,6.12,0,0,1,1,.68,8.81,8.81,0,0,1,1.09,1.11,6.64,6.64,0,0,1,2.53,1.38,6.35,6.35,0,0,1,1.61,2.25,8.43,8.43,0,0,1,.52,1.71,11.88,11.88,0,0,1,.21,2.31,18,18,0,0,1-.31,3.22c-.12.67-.26,1.24-.38,1.67a4.17,4.17,0,0,1,.57.9,3.63,3.63,0,0,1,.26,2.36,7.61,7.61,0,0,1-.95,2.4,4.88,4.88,0,0,1-1.39,1.45,4.7,4.7,0,0,1-.68.38,19.49,19.49,0,0,1-1.08,2.47,9.16,9.16,0,0,1-1.2,1.76,12.13,12.13,0,0,0-.26,2.39,8.61,8.61,0,0,0,0,.87,2.58,2.58,0,0,0,.26.92,2.66,2.66,0,0,0,.54.72,4.24,4.24,0,0,0,.53.43,7.1,7.1,0,0,0,.91.52c.45.22,1,.42,1.49.63l.85.31,1.43.54A14.71,14.71,0,0,1,47.34,36,8.19,8.19,0,0,1,48.87,37.39ZM24.61,22a18.68,18.68,0,0,0,1.1,2.58,7.29,7.29,0,0,0,1.11,1.59l.15.16,0,.21a13.9,13.9,0,0,1,.34,2.93,10.2,10.2,0,0,1,0,1A4.16,4.16,0,0,1,26.89,32a4.11,4.11,0,0,1-.52.78,3.71,3.71,0,0,0,.48.7,5,5,0,0,0,1,.87,8,8,0,0,0,2.57,1.12,7.14,7.14,0,0,0,1.63.21,6.43,6.43,0,0,0,1-.09,8.32,8.32,0,0,0,1.15-.28,7.52,7.52,0,0,0,2.2-1.09,4.63,4.63,0,0,0,1.06-1.07c.07-.1.13-.21.19-.32l-.16-.2a4,4,0,0,1-.54-.93,4.3,4.3,0,0,1-.29-1.18,10.23,10.23,0,0,1,0-1A13.84,13.84,0,0,1,37,26.56l0-.21.15-.16a7.33,7.33,0,0,0,1.11-1.59A18.58,18.58,0,0,0,39.39,22l.12-.35.34-.13a3.1,3.1,0,0,0,1-.61,3.8,3.8,0,0,0,.9-1.25,6.86,6.86,0,0,0,.46-1.4,2,2,0,0,0,.05-.46,2.08,2.08,0,0,0-.21-.9,2.66,2.66,0,0,0-.39-.6c-.27.46-.45.8-.45.8s-.76-4.17-2.09-5.95a7.76,7.76,0,0,1-1.49-3.92s-8.24,1.79-12.45.85a15.49,15.49,0,0,1-1.17,5,5.49,5.49,0,0,0-.58,2.72c.17.93.12,1.75-.23,1.4a11.6,11.6,0,0,1-.76-1.08,2.76,2.76,0,0,0-.51.7,2.13,2.13,0,0,0-.23,1,2,2,0,0,0,.05.46,6,6,0,0,0,.74,1.91,3.16,3.16,0,0,0,1.64,1.34l.34.13Z"/><path class="cls-1" d="M27.82,15a.92.92,0,1,0,.92.92A.92.92,0,0,0,27.82,15Z"/><path class="cls-1" d="M36.18,15a.92.92,0,1,0,.92.92A.92.92,0,0,0,36.18,15Z"/><path class="cls-1" d="M29.24,22a.23.23,0,0,0-.21.33,3.48,3.48,0,0,0,5.95,0,.23.23,0,0,0-.21-.33Z"/></svg>
