<!-- 01EZTX9M3AWK0ZB16B6KYR56F1 -->

<svg width="48" height="48" viewBox="0 0 48 48" fill="none" xmlns="http://www.w3.org/2000/svg">
<g opacity="0.5">
<path d="M18.75 8.8275L18.3975 8.4975C15.649 5.91899 12.0187 4.48886 8.25 4.5C8.05109 4.5 7.86032 4.57902 7.71967 4.71967C7.57902 4.86033 7.5 5.05109 7.5 5.25V24C7.5 24.1989 7.57902 24.3897 7.71967 24.5303C7.86032 24.671 8.05109 24.75 8.25 24.75C8.44891 24.75 8.63968 24.671 8.78033 24.5303C8.92098 24.3897 9 24.1989 9 24C8.98793 20.9848 9.89035 18.0367 11.5882 15.5449C13.286 13.053 15.6994 11.1345 18.51 10.0425C18.5575 10.0222 18.6027 9.99708 18.645 9.9675C18.6855 9.955 18.7218 9.93165 18.75 9.9C18.8604 9.7951 18.9363 9.65907 18.9675 9.51C18.991 9.38713 18.9835 9.26031 18.9455 9.14111C18.9075 9.0219 18.8403 8.9141 18.75 8.8275ZM16.14 9.48L15.75 9.75C15.267 10.0279 14.7989 10.3308 14.3475 10.6575C14.175 10.7775 14.0025 10.905 13.8375 11.04C13.6725 11.175 13.455 11.3475 13.2675 11.505C12.93 11.7825 12.615 12.0825 12.3075 12.39C12.2662 12.4263 12.2286 12.4665 12.195 12.51C12.0375 12.6675 11.8875 12.825 11.7375 12.99C11.5875 13.155 11.4525 13.3125 11.3175 13.4775L11.25 13.5C11.12 13.65 11 13.8 10.89 13.95C10.78 14.1 10.6225 14.3175 10.4175 14.6025C10.3125 14.7525 10.215 14.9025 10.1175 15.0525C10.02 15.2025 9.93 15.345 9.8475 15.495C9.53167 16.004 9.2486 16.5325 9 17.0775V6C11.8893 6.15065 14.651 7.23796 16.8675 9.0975C16.6275 9.2325 16.395 9.3525 16.1625 9.48H16.14Z" fill="black"/>
<path opacity="0.3" d="M16.8675 9.12C16.6275 9.2325 16.395 9.3525 16.1625 9.48L15.75 9.75C15.267 10.0279 14.7989 10.3308 14.3475 10.6575C14.175 10.7775 14.0025 10.905 13.8375 11.04C13.6725 11.175 13.455 11.3475 13.2675 11.505C12.93 11.7825 12.615 12.0825 12.3075 12.39C12.2662 12.4263 12.2286 12.4665 12.195 12.51C12.0375 12.6675 11.8875 12.825 11.7375 12.99C11.5875 13.155 11.4525 13.305 11.3175 13.4775L11.25 13.5C11.12 13.65 11 13.8 10.89 13.95C10.78 14.1 10.6225 14.3175 10.4175 14.6025C10.3125 14.7525 10.215 14.9025 10.1175 15.0525C10.02 15.2025 9.93 15.345 9.8475 15.495C9.53167 16.004 9.2486 16.5325 9 17.0775V6C11.892 6.15701 14.6539 7.25233 16.8675 9.12Z" fill="black"/>
<path d="M39.75 4.5C35.9834 4.48479 32.3534 5.90945 29.6025 8.4825L29.25 8.8125C29.1661 8.89975 29.1045 9.00604 29.0705 9.12228C29.0365 9.23852 29.0312 9.36126 29.055 9.48C29.0833 9.62801 29.1598 9.76251 29.2725 9.8625L29.3625 9.945C29.4116 9.97865 29.4644 10.0063 29.52 10.0275C32.3202 11.1357 34.722 13.0611 36.4127 15.5532C38.1035 18.0452 39.0051 20.9885 39 24C39 24.1989 39.079 24.3897 39.2197 24.5303C39.3604 24.671 39.5511 24.75 39.75 24.75C39.9489 24.75 40.1397 24.671 40.2804 24.5303C40.421 24.3897 40.5 24.1989 40.5 24V5.25C40.5 5.05109 40.421 4.86032 40.2804 4.71967C40.1397 4.57902 39.9489 4.5 39.75 4.5ZM38.895 16.89C38.805 16.695 38.7075 16.5075 38.61 16.3125C38.5125 16.1175 38.4 15.9225 38.2875 15.735C38.175 15.5475 38.1 15.4125 37.995 15.255L37.9275 15.1425L37.6275 14.685L37.44 14.4225L37.155 14.04C37.1268 13.9944 37.0941 13.9517 37.0575 13.9125C36.9375 13.7625 36.8175 13.605 36.69 13.455C36.5625 13.305 36.375 13.08 36.2025 12.9C36.03 12.72 35.865 12.54 35.6925 12.36C35.52 12.18 35.28 11.9625 35.07 11.775C34.86 11.5875 34.68 11.4225 34.47 11.2575C34.26 11.0925 33.9675 10.8525 33.72 10.665C33.585 10.56 33.4425 10.47 33.3075 10.38C33.2111 10.3074 33.1109 10.2398 33.0075 10.1775C32.6147 9.91572 32.2064 9.67779 31.785 9.465C31.6564 9.39008 31.5237 9.32248 31.3875 9.2625L31.185 9.1575C33.3796 7.28681 36.1219 6.17881 39 6V17.1075C38.9696 17.0329 38.9345 16.9602 38.895 16.89Z" fill="black"/>
<path opacity="0.3" d="M39.0001 6V17.1075C38.9696 17.0329 38.9345 16.9603 38.8951 16.89C38.8051 16.695 38.7076 16.5075 38.6101 16.3125C38.5126 16.1175 38.4001 15.9225 38.2876 15.735C38.1751 15.5475 38.1001 15.4125 37.9951 15.255L37.9276 15.1425L37.6276 14.685L37.4401 14.4225L37.1551 14.04C37.1268 13.9944 37.0942 13.9517 37.0576 13.9125C36.9376 13.7625 36.8176 13.605 36.6901 13.455C36.5626 13.305 36.3751 13.08 36.2026 12.9C36.0301 12.72 35.8651 12.54 35.6926 12.36C35.5201 12.18 35.2801 11.9625 35.0701 11.775C34.8601 11.5875 34.6801 11.4225 34.4701 11.2575C34.2601 11.0925 33.9676 10.8525 33.7201 10.665C33.5851 10.56 33.4426 10.47 33.3076 10.38C33.2111 10.3074 33.111 10.2398 33.0076 10.1775C32.6147 9.91572 32.2065 9.67779 31.7851 9.465C31.6565 9.39008 31.5238 9.32248 31.3876 9.2625L31.1851 9.1575C33.3796 7.28681 36.122 6.17881 39.0001 6Z" fill="black"/>
<path d="M29.34 9.96L29.25 9.8775V9.9525L29.4975 10.0425C29.4419 10.0213 29.3891 9.99365 29.34 9.96ZM18.75 9.9C18.7281 9.92859 18.6999 9.95169 18.6675 9.9675C18.6252 9.99708 18.58 10.0222 18.5325 10.0425L18.7725 9.9525V9.885L18.75 9.9ZM29.3625 9.96L29.25 9.8775V9.9525L29.4975 10.0425C29.4419 10.0213 29.3891 9.99365 29.34 9.96H29.3625ZM18.6675 9.96C18.6252 9.98958 18.58 10.0147 18.5325 10.035L18.7725 9.945V9.8775C18.7416 9.92129 18.6966 9.95309 18.645 9.9675L18.6675 9.96ZM39 17.1075C38.9696 17.0329 38.9345 16.9603 38.895 16.89C38.805 16.695 38.7075 16.5075 38.61 16.3125C38.5125 16.1175 38.4 15.9225 38.2875 15.735C38.175 15.5475 38.1 15.4125 37.995 15.255L37.9275 15.1425L37.6275 14.685L37.44 14.4225L37.155 14.04C37.1268 13.9944 37.0941 13.9517 37.0575 13.9125C36.9375 13.7625 36.8175 13.605 36.69 13.455C36.5625 13.305 36.375 13.08 36.2025 12.9C36.03 12.72 35.865 12.54 35.6925 12.36C35.52 12.18 35.28 11.9625 35.07 11.775C34.86 11.5875 34.68 11.4225 34.47 11.2575C34.26 11.0925 33.9675 10.8525 33.72 10.665C33.585 10.56 33.4425 10.47 33.3075 10.38C33.2111 10.3074 33.1109 10.2398 33.0075 10.1775C32.6146 9.91572 32.2064 9.67779 31.785 9.465C31.6564 9.39008 31.5237 9.32248 31.3875 9.2625L31.185 9.1575C30.8325 8.985 30.435 8.8275 30.0975 8.685L29.655 8.52C27.8735 7.8589 25.9902 7.51372 24.09 7.5H23.91C22.0326 7.50624 20.1703 7.83607 18.405 8.475L17.9625 8.64C17.5875 8.7825 17.2125 8.94 16.875 9.1125C16.635 9.225 16.4025 9.345 16.17 9.4725L15.75 9.75C15.267 10.0279 14.7989 10.3308 14.3475 10.6575C14.175 10.7775 14.0025 10.905 13.8375 11.04C13.6725 11.175 13.455 11.3475 13.2675 11.505C12.93 11.7825 12.615 12.0825 12.3075 12.39C12.2662 12.4263 12.2286 12.4665 12.195 12.51C12.0375 12.6675 11.8875 12.825 11.7375 12.99C11.5875 13.155 11.4525 13.3125 11.3175 13.4775L11.25 13.5C11.12 13.65 11 13.8 10.89 13.95C10.78 14.1 10.6225 14.3175 10.4175 14.6025C10.3125 14.7525 10.215 14.9025 10.1175 15.0525C10.02 15.2025 9.93001 15.345 9.84751 15.495C9.53168 16.004 9.24861 16.5325 9.00001 17.0775C8.00952 19.2508 7.49795 21.6116 7.50001 24V30.75C7.49941 31.2514 7.52947 31.7523 7.59001 32.25C7.70199 33.2257 7.92856 34.1848 8.26501 35.1075C8.44501 35.58 8.64751 36.045 8.87251 36.495C9.93537 38.6008 11.5616 40.3705 13.5702 41.6072C15.5788 42.8439 17.8912 43.4991 20.25 43.5H27.75C30.0821 43.498 32.3689 42.8565 34.3618 41.6452C36.3546 40.4339 37.977 38.6993 39.0525 36.63C39.2928 36.1844 39.5032 35.7234 39.6825 35.25C40.0519 34.2837 40.3037 33.2765 40.4325 32.25C40.4855 31.7518 40.5081 31.2509 40.5 30.75V24C40.5053 21.621 39.9935 19.2692 39 17.1075ZM39 30.75C38.9994 31.2518 38.9643 31.753 38.895 32.25C38.7857 33.1257 38.5691 33.9847 38.25 34.8075C38.0685 35.28 37.8529 35.7387 37.605 36.18C36.6333 37.9431 35.2064 39.4132 33.4729 40.4369C31.7395 41.4606 29.7631 42.0004 27.75 42H20.25C18.2174 41.9996 16.2228 41.4484 14.4783 40.4052C12.7339 39.3619 11.3046 37.8655 10.3425 36.075C10.1137 35.6291 9.91569 35.168 9.75001 34.695C9.4373 33.909 9.22073 33.088 9.10501 32.25C9.03568 31.753 9.0006 31.2518 9.00001 30.75V24C8.98794 20.9848 9.89036 18.0367 11.5882 15.5449C13.286 13.053 15.6994 11.1345 18.51 10.0425L18.75 9.9525C19.2399 9.76462 19.7409 9.60683 20.25 9.48C21.2301 9.21389 22.2358 9.05298 23.25 9H24H24.75C25.7637 9.04807 26.7693 9.20395 27.75 9.465C28.2601 9.58839 28.7613 9.74626 29.25 9.9375L29.4975 10.0275C32.3019 11.1322 34.7084 13.0561 36.4034 15.5484C38.0984 18.0407 39.0033 20.9859 39 24V30.75ZM18.75 9.9C18.7281 9.92859 18.6999 9.95169 18.6675 9.9675C18.6252 9.99708 18.58 10.0222 18.5325 10.0425L18.7725 9.9525V9.885L18.75 9.9ZM29.3625 9.96L29.25 9.8775V9.9525L29.4975 10.0425C29.4419 10.0213 29.3891 9.99365 29.34 9.96H29.3625Z" fill="black"/>
<path d="M16.875 24C17.4963 24 18 23.4963 18 22.875C18 22.2537 17.4963 21.75 16.875 21.75C16.2537 21.75 15.75 22.2537 15.75 22.875C15.75 23.4963 16.2537 24 16.875 24Z" fill="black"/>
<path d="M31.125 24C31.7463 24 32.25 23.4963 32.25 22.875C32.25 22.2537 31.7463 21.75 31.125 21.75C30.5037 21.75 30 22.2537 30 22.875C30 23.4963 30.5037 24 31.125 24Z" fill="black"/>
<path d="M32.25 30C32.0511 30.0289 31.8489 29.9775 31.6878 29.8572C31.5268 29.737 31.4201 29.5577 31.3913 29.3588C31.3624 29.1599 31.4138 28.9576 31.534 28.7966C31.6543 28.6355 31.8336 28.5289 32.0325 28.5L41.7825 25.5C41.881 25.4715 41.9842 25.4626 42.0861 25.4739C42.188 25.4852 42.2867 25.5164 42.3766 25.5659C42.4664 25.6153 42.5456 25.682 42.6097 25.7621C42.6738 25.8421 42.7215 25.934 42.75 26.0325C42.7786 26.131 42.7875 26.2342 42.7762 26.3361C42.7649 26.438 42.7336 26.5367 42.6841 26.6266C42.6347 26.7164 42.568 26.7956 42.488 26.8597C42.4079 26.9238 42.316 26.9715 42.2175 27L32.4675 30C32.3955 30.0115 32.3221 30.0115 32.25 30Z" fill="black"/>
<path d="M15.75 30C15.6829 30.0109 15.6146 30.0109 15.5475 30L5.0475 27C4.94901 26.9734 4.85672 26.9277 4.7759 26.8654C4.69509 26.8032 4.62732 26.7256 4.57648 26.6371C4.52564 26.5487 4.49272 26.4511 4.4796 26.3499C4.46648 26.2488 4.47341 26.146 4.5 26.0475C4.52659 25.949 4.57233 25.8567 4.63458 25.7759C4.69684 25.6951 4.77441 25.6273 4.86286 25.5765C4.95131 25.5256 5.0489 25.4927 5.15007 25.4796C5.25125 25.4665 5.35401 25.4734 5.4525 25.5L15.9525 28.5C16.1514 28.5269 16.3315 28.6316 16.4532 28.7913C16.5748 28.9509 16.6281 29.1523 16.6013 29.3512C16.5744 29.5502 16.4696 29.7303 16.31 29.8519C16.1503 29.9736 15.9489 30.0269 15.75 30Z" fill="black"/>
<path d="M42 37.5C41.928 37.5115 41.8546 37.5115 41.7825 37.5L32.0325 34.5C31.8336 34.4423 31.6658 34.308 31.5659 34.1266C31.466 33.9451 31.4423 33.7314 31.5 33.5325C31.5577 33.3336 31.692 33.1658 31.8735 33.0659C32.0549 32.966 32.2686 32.9423 32.4675 33L42.2175 36C42.4164 36.0289 42.5957 36.1355 42.716 36.2966C42.8363 36.4576 42.8876 36.6599 42.8588 36.8588C42.8299 37.0577 42.7233 37.237 42.5622 37.3572C42.4012 37.4775 42.1989 37.5289 42 37.5Z" fill="black"/>
<path d="M5.25002 37.5C5.05111 37.5269 4.84968 37.4736 4.69004 37.3519C4.5304 37.2303 4.42563 37.0502 4.39877 36.8513C4.37192 36.6523 4.42519 36.4509 4.54685 36.2913C4.66851 36.1316 4.84861 36.0269 5.04752 36L15.5475 33C15.7464 32.9463 15.9585 32.9738 16.1372 33.0765C16.3158 33.1792 16.4463 33.3486 16.5 33.5475C16.5537 33.7464 16.5262 33.9585 16.4235 34.1371C16.3209 34.3158 16.1514 34.4463 15.9525 34.5L5.45252 37.5C5.38547 37.5109 5.31708 37.5109 5.25002 37.5Z" fill="black"/>
<path d="M15.75 32.25H5.25C5.05109 32.25 4.86032 32.171 4.71967 32.0303C4.57902 31.8897 4.5 31.6989 4.5 31.5C4.5 31.3011 4.57902 31.1103 4.71967 30.9697C4.86032 30.829 5.05109 30.75 5.25 30.75H15.75C15.9489 30.75 16.1397 30.829 16.2803 30.9697C16.421 31.1103 16.5 31.3011 16.5 31.5C16.5 31.6989 16.421 31.8897 16.2803 32.0303C16.1397 32.171 15.9489 32.25 15.75 32.25Z" fill="black"/>
<path d="M42.75 32.25H32.25C32.0511 32.25 31.8603 32.171 31.7197 32.0303C31.579 31.8897 31.5 31.6989 31.5 31.5C31.5 31.3011 31.579 31.1103 31.7197 30.9697C31.8603 30.829 32.0511 30.75 32.25 30.75H42.75C42.9489 30.75 43.1397 30.829 43.2803 30.9697C43.421 31.1103 43.5 31.3011 43.5 31.5C43.5 31.6989 43.421 31.8897 43.2803 32.0303C43.1397 32.171 42.9489 32.25 42.75 32.25Z" fill="black"/>
<path d="M25.2075 28.5H22.7925C22.3085 28.5099 21.848 28.7111 21.5121 29.0597C21.1761 29.4084 20.992 29.8759 21 30.36C20.9961 30.6989 21.0849 31.0324 21.2567 31.3245C21.4285 31.6166 21.6769 31.8563 21.975 32.0175L23.25 32.7L23.6475 32.91C23.756 32.9678 23.8771 32.998 24 32.998C24.1229 32.998 24.244 32.9678 24.3525 32.91L24.75 32.7L26.025 32.0175C26.3231 31.8563 26.5715 31.6166 26.7433 31.3245C26.9152 31.0324 27.0039 30.6989 27 30.36C27.008 29.8759 26.8239 29.4084 26.488 29.0597C26.152 28.7111 25.6916 28.5099 25.2075 28.5ZM25.32 30.6975L24 31.4025L22.68 30.6975C22.6219 30.6632 22.5744 30.6135 22.5426 30.554C22.5109 30.4945 22.4961 30.4274 22.5 30.36C22.4935 30.274 22.5202 30.1887 22.5746 30.1218C22.629 30.0548 22.707 30.0113 22.7925 30H25.2075C25.293 30.0113 25.371 30.0548 25.4254 30.1218C25.4798 30.1887 25.5065 30.274 25.5 30.36C25.5039 30.4274 25.4891 30.4945 25.4574 30.554C25.4256 30.6135 25.3781 30.6632 25.32 30.6975Z" fill="black"/>
<path opacity="0.3" d="M25.5 30.36C25.5038 30.4274 25.4891 30.4945 25.4574 30.554C25.4256 30.6135 25.3781 30.6632 25.32 30.6975L24 31.4025L22.68 30.6975C22.6219 30.6632 22.5744 30.6135 22.5426 30.554C22.5109 30.4945 22.4961 30.4274 22.5 30.36C22.4935 30.274 22.5202 30.1887 22.5746 30.1218C22.629 30.0548 22.707 30.0113 22.7925 30H25.2075C25.293 30.0113 25.371 30.0548 25.4254 30.1218C25.4798 30.1887 25.5065 30.274 25.5 30.36Z" fill="black"/>
<path d="M24 36C23.8011 36 23.6103 35.921 23.4697 35.7803C23.329 35.6397 23.25 35.4489 23.25 35.25V32.25C23.25 32.0511 23.329 31.8603 23.4697 31.7197C23.6103 31.579 23.8011 31.5 24 31.5C24.1989 31.5 24.3897 31.579 24.5303 31.7197C24.671 31.8603 24.75 32.0511 24.75 32.25V35.25C24.75 35.4489 24.671 35.6397 24.5303 35.7803C24.3897 35.921 24.1989 36 24 36Z" fill="black"/>
<path d="M21.375 39C20.4805 38.998 19.6232 38.6418 18.9907 38.0093C18.3582 37.3768 18.002 36.5195 18 35.625C18 35.4261 18.079 35.2353 18.2197 35.0947C18.3603 34.954 18.5511 34.875 18.75 34.875C18.9489 34.875 19.1397 34.954 19.2803 35.0947C19.421 35.2353 19.5 35.4261 19.5 35.625C19.5 36.1223 19.6975 36.5992 20.0492 36.9508C20.4008 37.3025 20.8777 37.5 21.375 37.5C21.8723 37.5 22.3492 37.3025 22.7008 36.9508C23.0525 36.5992 23.25 36.1223 23.25 35.625C23.25 35.4261 23.329 35.2353 23.4697 35.0947C23.6103 34.954 23.8011 34.875 24 34.875C24.1989 34.875 24.3897 34.954 24.5303 35.0947C24.671 35.2353 24.75 35.4261 24.75 35.625C24.748 36.5195 24.3918 37.3768 23.7593 38.0093C23.1268 38.6418 22.2695 38.998 21.375 39Z" fill="black"/>
<path d="M26.625 39C25.7305 38.998 24.8732 38.6418 24.2407 38.0093C23.6082 37.3768 23.252 36.5195 23.25 35.625C23.25 35.4261 23.329 35.2353 23.4697 35.0947C23.6103 34.954 23.8011 34.875 24 34.875C24.1989 34.875 24.3897 34.954 24.5303 35.0947C24.671 35.2353 24.75 35.4261 24.75 35.625C24.75 36.1223 24.9475 36.5992 25.2992 36.9508C25.6508 37.3025 26.1277 37.5 26.625 37.5C27.1223 37.5 27.5992 37.3025 27.9508 36.9508C28.3025 36.5992 28.5 36.1223 28.5 35.625C28.5 35.4261 28.579 35.2353 28.7197 35.0947C28.8603 34.954 29.0511 34.875 29.25 34.875C29.4489 34.875 29.6397 34.954 29.7803 35.0947C29.921 35.2353 30 35.4261 30 35.625C29.998 36.5195 29.6418 37.3768 29.0093 38.0093C28.3768 38.6418 27.5195 38.998 26.625 39Z" fill="black"/>
<path opacity="0.3" d="M19.5 16.5C19.3011 16.5 19.1103 16.421 18.9697 16.2803C18.829 16.1397 18.75 15.9489 18.75 15.75V9C18.75 8.80109 18.829 8.61032 18.9697 8.46967C19.1103 8.32902 19.3011 8.25 19.5 8.25C19.6989 8.25 19.8897 8.32902 20.0303 8.46967C20.171 8.61032 20.25 8.80109 20.25 9V15.75C20.25 15.9489 20.171 16.1397 20.0303 16.2803C19.8897 16.421 19.6989 16.5 19.5 16.5Z" fill="black"/>
<path opacity="0.3" d="M24 19.5C23.8011 19.5 23.6103 19.421 23.4697 19.2803C23.329 19.1397 23.25 18.9489 23.25 18.75V8.25C23.25 8.05109 23.329 7.86032 23.4697 7.71967C23.6103 7.57902 23.8011 7.5 24 7.5C24.1989 7.5 24.3897 7.57902 24.5303 7.71967C24.671 7.86032 24.75 8.05109 24.75 8.25V18.75C24.75 18.9489 24.671 19.1397 24.5303 19.2803C24.3897 19.421 24.1989 19.5 24 19.5Z" fill="black"/>
<path opacity="0.3" d="M28.5 16.5C28.3011 16.5 28.1103 16.421 27.9697 16.2803C27.829 16.1397 27.75 15.9489 27.75 15.75V9C27.75 8.80109 27.829 8.61032 27.9697 8.46967C28.1103 8.32902 28.3011 8.25 28.5 8.25C28.6989 8.25 28.8897 8.32902 29.0303 8.46967C29.171 8.61032 29.25 8.80109 29.25 9V15.75C29.25 15.9489 29.171 16.1397 29.0303 16.2803C28.8897 16.421 28.6989 16.5 28.5 16.5Z" fill="black"/>
</g>
</svg>
