<!-- 01EZTX9M3AWK0ZB16B6KYR56F1 -->

<svg width="32" height="32" viewBox="0 0 32 32" fill="none" xmlns="http://www.w3.org/2000/svg">
<path fill-rule="evenodd" clip-rule="evenodd" d="M16 0C7.16344 0 0 7.16344 0 16C0 24.8365 7.16344 32 16 32C24.8365 32 32 24.8365 32 16C32 7.16344 24.8365 0 16 0ZM16.0003 8C15.264 8 14.6669 8.59696 14.6669 9.33333V17.3339C14.6669 18.0703 15.264 18.6672 16.0003 18.6672C16.7367 18.6672 17.3336 18.0703 17.3336 17.3339V9.33333C17.3336 8.59695 16.7367 8 16.0003 8ZM17.3333 22.6667C17.3333 23.4031 16.7364 24 16 24C15.2636 24 14.6667 23.4031 14.6667 22.6667C14.6667 21.9303 15.2636 21.3333 16 21.3333C16.7364 21.3333 17.3333 21.9303 17.3333 22.6667Z" fill="#E0705A"/>
</svg>
