<!-- 01EZTX9M3AWK0ZB16B6KYR56F1 -->

<svg width="49" height="48" viewBox="0 0 49 48" fill="none" xmlns="http://www.w3.org/2000/svg">
<path d="M39.2975 25.3574C39.1306 23.6847 38.6765 22.0532 37.955 20.5349C37.9306 20.4735 37.9031 20.4134 37.8725 20.3549C37.4531 19.5026 36.9506 18.6937 36.3725 17.9399C36.2225 17.7299 36.0575 17.5274 35.885 17.3249C35.7125 17.1224 35.6075 17.0024 35.465 16.8449C35.1425 16.4924 34.805 16.1549 34.445 15.8324C34.0234 15.4521 33.5802 15.0965 33.1175 14.7674C33.0236 14.6949 32.926 14.6273 32.825 14.5649C32.0935 14.0544 31.315 13.6149 30.5 13.2524C30.23 13.1324 29.96 13.0274 29.69 12.9224C29.42 12.8174 29.105 12.7199 28.805 12.6299C28.505 12.5399 28.2575 12.4724 27.98 12.4124H27.8975L27.2075 12.2699C26.9525 12.2174 26.69 12.1799 26.42 12.1499C25.1554 11.9849 23.8747 11.9849 22.61 12.1499C22.3475 12.1499 22.085 12.2174 21.86 12.2699L21.1625 12.4124H21.095L20.7725 12.4949L20.33 12.6224L20.03 12.7124C19.7975 12.7799 19.565 12.8624 19.3325 12.9524C19.1 13.0424 18.7925 13.1624 18.53 13.2824C18.2675 13.4024 18.005 13.5224 17.78 13.6574C17.555 13.7924 17.3975 13.8524 17.21 13.9649L16.925 14.1299C16.5189 14.3715 16.1259 14.6343 15.7475 14.9174L15.41 15.1724L15.1775 15.3599C15.05 15.4574 14.9225 15.5624 14.8025 15.6749C14.6825 15.7874 14.48 15.9599 14.315 16.1174L14.1425 16.2899C14.0813 16.3462 14.0237 16.4064 13.97 16.4699C13.9078 16.5172 13.8523 16.5727 13.805 16.6349C13.7438 16.6886 13.6862 16.7462 13.6325 16.8074L13.475 16.9874C13.4258 17.0361 13.3806 17.0888 13.34 17.1449C13.2125 17.2799 13.0925 17.4224 12.98 17.5649L12.5 18.0749C11.9753 18.7818 11.5159 19.5349 11.1275 20.3249C11.0969 20.3834 11.0694 20.4435 11.045 20.5049C10.3226 22.0224 9.87079 23.6544 9.71002 25.3274L8.00002 41.9249C7.97676 42.1095 8.02299 42.2963 8.12972 42.4487C8.23645 42.6012 8.39606 42.7085 8.57752 42.7499L24.3275 46.4999C24.4406 46.5298 24.5595 46.5298 24.6725 46.4999L40.4225 42.7499C40.604 42.7085 40.7636 42.6012 40.8703 42.4487C40.9771 42.2963 41.0233 42.1095 41 41.9249L39.2975 25.3574ZM24.5 44.9999L9.56002 41.4224L11.195 25.4999C11.4927 22.6227 12.7148 19.9195 14.6781 17.7953C16.6414 15.6711 19.2402 14.2403 22.085 13.7174C23.8998 13.3849 25.7636 13.4313 27.5596 13.8537C29.3555 14.2761 31.0447 15.0654 32.5209 16.1719C33.9972 17.2784 35.2287 18.6783 36.1381 20.2835C37.0474 21.8888 37.615 23.6648 37.805 25.4999L39.44 41.4149L24.5 44.9999Z" fill="#5FBBB5"/>
<path d="M18.875 26.25C19.4963 26.25 20 25.7463 20 25.125C20 24.5037 19.4963 24 18.875 24C18.2537 24 17.75 24.5037 17.75 25.125C17.75 25.7463 18.2537 26.25 18.875 26.25Z" fill="#5FBBB5"/>
<path d="M30.125 26.25C30.7463 26.25 31.25 25.7463 31.25 25.125C31.25 24.5037 30.7463 24 30.125 24C29.5037 24 29 24.5037 29 25.125C29 25.7463 29.5037 26.25 30.125 26.25Z" fill="#5FBBB5"/>
<path d="M25.4975 33.7501H23.5025C22.8059 33.7422 22.1307 33.9905 21.605 34.4476C21.3407 34.6679 21.1274 34.9429 20.9798 35.2537C20.8322 35.5645 20.7538 35.9036 20.75 36.2476C20.75 37.5901 22.445 38.4226 23.75 38.6776C23.9971 38.7261 24.2482 38.7512 24.5 38.7526C24.7517 38.7486 25.0025 38.7235 25.25 38.6776C25.7723 38.5745 26.2774 38.3977 26.75 38.1526C27.1515 38.0046 27.5042 37.7482 27.769 37.4119C28.0338 37.0757 28.2003 36.6727 28.25 36.2476C28.2131 35.5525 27.9032 34.9002 27.3877 34.4324C26.8722 33.9647 26.1929 33.7195 25.4975 33.7501ZM26.06 36.8251C25.5773 37.0794 25.0449 37.2253 24.5 37.2526C23.5025 37.2526 22.25 36.5026 22.25 36.2476C22.2529 36.1164 22.2854 35.9875 22.3451 35.8706C22.4049 35.7537 22.4903 35.6518 22.595 35.5726C22.8472 35.3566 23.1705 35.2417 23.5025 35.2501H25.4975C25.7943 35.2242 26.0898 35.3132 26.3229 35.4989C26.5559 35.6845 26.7088 35.9525 26.75 36.2476C26.75 36.3001 26.6 36.5401 26.06 36.8251Z" fill="#5FBBB5"/>
<path opacity="0.5" d="M26.75 36.2475C26.75 36.3 26.6 36.54 26.06 36.825C25.5773 37.0793 25.0449 37.2252 24.5 37.2525C23.5025 37.2525 22.25 36.5025 22.25 36.2475C22.2529 36.1163 22.2854 35.9874 22.3451 35.8705C22.4049 35.7536 22.4903 35.6517 22.595 35.5725C22.8472 35.3565 23.1705 35.2416 23.5025 35.25H25.4975C25.7943 35.2241 26.0898 35.3131 26.3229 35.4988C26.5559 35.6844 26.7088 35.9524 26.75 36.2475Z" fill="#5FBBB5"/>
<path d="M22.595 12.1275C21.89 6.8475 20.0825 1.5 17 1.5C13.1 1.5 11 10.1925 11 18.375C11 19.125 11 19.875 11.045 20.535C11.045 20.6025 11.045 20.6625 11.045 20.7225C11.0533 20.8889 11.1168 21.0478 11.2255 21.1741C11.3341 21.3004 11.4817 21.3869 11.645 21.42H11.795C11.9406 21.4261 12.0848 21.3896 12.21 21.315C12.3352 21.2404 12.436 21.1309 12.5 21C13.419 19.1169 14.767 17.4758 16.4356 16.2084C18.1042 14.9409 20.0469 14.0827 22.1075 13.7025C22.2917 13.6661 22.4555 13.5619 22.5666 13.4105C22.6777 13.2592 22.728 13.0716 22.7075 12.885C22.6625 12.645 22.6325 12.3825 22.595 12.1275ZM21.05 12.405L20.7275 12.4875L20.285 12.615C20.183 12.638 20.0828 12.6681 19.985 12.705C19.7525 12.78 19.52 12.855 19.2875 12.945C19.055 13.035 18.7475 13.155 18.485 13.275C18.2225 13.395 17.96 13.515 17.735 13.65C17.51 13.785 17.3525 13.845 17.165 13.9575C16.9775 14.07 16.97 14.0625 16.88 14.1225C16.4739 14.3641 16.0809 14.6269 15.7025 14.91L15.365 15.165L15.1325 15.3525C15.005 15.45 14.885 15.555 14.7575 15.6675C14.63 15.78 14.435 15.9525 14.27 16.11C14.105 16.2675 14.0375 16.335 13.925 16.4625C13.8628 16.5098 13.8073 16.5653 13.76 16.6275C13.64 16.74 13.535 16.86 13.43 16.98C13.3807 17.0287 13.3356 17.0814 13.295 17.1375C13.1675 17.2725 13.0475 17.415 12.935 17.5575L12.5 18.075C12.5525 9.42 14.9 3 17 3C18.425 3 20.315 6.285 21.1175 12.39L21.05 12.405Z" fill="#5FBBB5"/>
<path opacity="0.5" d="M21.1175 12.39H21.05L20.7275 12.4725L20.285 12.6L19.985 12.69C19.7525 12.7575 19.52 12.84 19.2875 12.93C19.055 13.02 18.7475 13.14 18.485 13.26C18.2225 13.38 17.96 13.5 17.735 13.635C17.51 13.77 17.3525 13.83 17.165 13.9425L16.88 14.1075C16.4739 14.3491 16.0809 14.6119 15.7025 14.895L15.365 15.15L15.1325 15.3375C15.005 15.435 14.8775 15.54 14.7575 15.6525C14.6375 15.765 14.435 15.9375 14.27 16.095C14.1457 16.203 14.0303 16.3209 13.925 16.4475C13.8628 16.4948 13.8073 16.5503 13.76 16.6125C13.6403 16.7206 13.5299 16.8385 13.43 16.965C13.3807 17.0137 13.3356 17.0664 13.295 17.1225C13.1668 17.2552 13.0466 17.3955 12.935 17.5425L12.5 18.075C12.5525 9.42 14.9 3 17 3C18.425 3 20.315 6.285 21.1175 12.39Z" fill="#5FBBB5"/>
<path d="M32 1.5C28.9175 1.5 27.11 6.8475 26.405 12.1275C26.405 12.3825 26.3375 12.645 26.3075 12.8775C26.2873 13.0652 26.3386 13.2536 26.4512 13.4052C26.5639 13.5567 26.7295 13.6602 26.915 13.695C28.9736 14.0758 30.9137 14.9354 32.5787 16.2044C34.2438 17.4734 35.587 19.1161 36.5 21C36.5619 21.1262 36.658 21.2325 36.7773 21.3068C36.8967 21.3811 37.0345 21.4203 37.175 21.42H37.325C37.4883 21.3869 37.6359 21.3004 37.7446 21.1741C37.8532 21.0478 37.9167 20.8889 37.925 20.7225C37.925 20.6625 37.925 20.6025 37.925 20.535C37.925 19.8675 37.97 19.1625 37.97 18.375C38 10.1925 35.9 1.5 32 1.5ZM35.9075 17.325C35.7725 17.16 35.63 17.0025 35.4875 16.845C35.165 16.4925 34.8275 16.155 34.4675 15.8325C34.0459 15.4522 33.6027 15.0966 33.14 14.7675C33.0461 14.695 32.9485 14.6274 32.8475 14.565C32.1089 14.0533 31.3228 13.6137 30.5 13.2525C30.23 13.1325 29.96 13.0275 29.69 12.9225C29.42 12.8175 29.105 12.72 28.805 12.63C28.505 12.54 28.2575 12.4725 27.98 12.4125H27.8975C28.685 6.285 30.575 3 32 3C34.1 3 36.4475 9.4275 36.5 18.075L36.395 17.94C36.245 17.73 36.08 17.5275 35.9075 17.325Z" fill="#5FBBB5"/>
<path opacity="0.5" d="M36.5001 18.075L36.3951 17.94C36.2451 17.73 36.0801 17.5275 35.9076 17.325C35.7351 17.1225 35.6376 17.0025 35.4876 16.845C35.1651 16.4925 34.8276 16.155 34.4676 15.8325C34.046 15.4522 33.6027 15.0966 33.1401 14.7675C33.0462 14.695 32.9485 14.6274 32.8476 14.565C32.109 14.0533 31.3228 13.6137 30.5001 13.2525C30.2301 13.1325 29.9601 13.0275 29.6901 12.9225C29.4201 12.8175 29.1051 12.72 28.8051 12.63C28.5051 12.54 28.2576 12.4725 27.9801 12.4125H27.8976C28.6851 6.285 30.5751 3 32.0001 3C34.1001 3 36.4476 9.4275 36.5001 18.075Z" fill="#5FBBB5"/>
<path d="M21.5 42C20.8969 41.9886 20.3062 41.826 19.7821 41.5273C19.258 41.2285 18.8172 40.8032 18.5 40.29L16.3925 36.9225C16.2179 36.6435 15.976 36.4128 15.689 36.2516C15.402 36.0904 15.0791 36.0039 14.75 36C14.5511 36 14.3603 35.921 14.2197 35.7803C14.079 35.6397 14 35.4489 14 35.25C14 35.0511 14.079 34.8603 14.2197 34.7197C14.3603 34.579 14.5511 34.5 14.75 34.5C15.3371 34.4981 15.915 34.6466 16.4284 34.9315C16.9418 35.2165 17.3735 35.6282 17.6825 36.1275L19.79 39.495C19.9712 39.7896 20.2218 40.0352 20.5199 40.2104C20.818 40.3856 21.1545 40.4851 21.5 40.5C21.6989 40.5 21.8897 40.579 22.0303 40.7197C22.171 40.8603 22.25 41.0511 22.25 41.25C22.25 41.4489 22.171 41.6397 22.0303 41.7803C21.8897 41.921 21.6989 42 21.5 42Z" fill="#5FBBB5"/>
<path d="M24.5 42C24.3011 42 24.1103 41.921 23.9697 41.7803C23.829 41.6397 23.75 41.4489 23.75 41.25V38.25C23.75 38.0511 23.829 37.8603 23.9697 37.7197C24.1103 37.579 24.3011 37.5 24.5 37.5C24.6989 37.5 24.8897 37.579 25.0303 37.7197C25.171 37.8603 25.25 38.0511 25.25 38.25V41.25C25.25 41.4489 25.171 41.6397 25.0303 41.7803C24.8897 41.921 24.6989 42 24.5 42Z" fill="#5FBBB5"/>
<path d="M27.5 42C27.3011 42 27.1103 41.921 26.9697 41.7803C26.829 41.6397 26.75 41.4489 26.75 41.25C26.75 41.0511 26.829 40.8603 26.9697 40.7197C27.1103 40.579 27.3011 40.5 27.5 40.5C27.8486 40.4895 28.1893 40.3929 28.4915 40.2189C28.7938 40.0448 29.0484 39.7987 29.2325 39.5025L31.34 36.135C31.646 35.6376 32.0739 35.2264 32.5831 34.9403C33.0922 34.6542 33.666 34.5027 34.25 34.5C34.4489 34.5 34.6397 34.579 34.7803 34.7197C34.921 34.8603 35 35.0511 35 35.25C35 35.4489 34.921 35.6397 34.7803 35.7803C34.6397 35.921 34.4489 36 34.25 36C33.9183 36.0014 33.5924 36.0867 33.3026 36.248C33.0127 36.4093 32.7685 36.6413 32.5925 36.9225L30.5 40.29C30.1828 40.8031 29.742 41.2285 29.2179 41.5273C28.6938 41.826 28.1031 41.9885 27.5 42Z" fill="#5FBBB5"/>
<path d="M21.605 41.9999H21.5C21.4015 41.993 21.3053 41.9668 21.217 41.9227C21.1286 41.8786 21.0498 41.8176 20.985 41.7431C20.9203 41.6686 20.8708 41.582 20.8395 41.4884C20.8082 41.3948 20.7956 41.2959 20.8025 41.1974C20.8094 41.0989 20.8356 41.0027 20.8797 40.9144C20.9237 40.826 20.9848 40.7472 21.0593 40.6824C21.1338 40.6177 21.2204 40.5682 21.314 40.5369C21.4076 40.5056 21.5065 40.493 21.605 40.4999H21.755C21.9311 40.5302 22.0906 40.6225 22.2047 40.76C22.3188 40.8975 22.3801 41.0712 22.3775 41.2499C22.3775 41.3503 22.3574 41.4497 22.3183 41.5422C22.2792 41.6347 22.222 41.7184 22.1499 41.7883C22.0779 41.8583 21.9925 41.913 21.8989 41.9494C21.8053 41.9857 21.7054 42.0029 21.605 41.9999Z" fill="#5FBBB5"/>
<path d="M27.5 42.0001H27.395C27.1961 42.0001 27.0053 41.9211 26.8647 41.7804C26.724 41.6398 26.645 41.449 26.645 41.2501C26.645 41.0512 26.724 40.8604 26.8647 40.7197C27.0053 40.5791 27.1961 40.5001 27.395 40.5001C27.5004 40.4783 27.6094 40.4811 27.7135 40.5085C27.8176 40.5358 27.9139 40.5868 27.995 40.6576C28.0789 40.7311 28.1454 40.8225 28.1895 40.925C28.2336 41.0275 28.2543 41.1386 28.25 41.2501C28.25 41.449 28.171 41.6398 28.0304 41.7804C27.8897 41.9211 27.6989 42.0001 27.5 42.0001Z" fill="#5FBBB5"/>
<path d="M27.5 42H21.5C21.3011 42 21.1103 41.921 20.9697 41.7803C20.829 41.6397 20.75 41.4489 20.75 41.25C20.75 41.0511 20.829 40.8603 20.9697 40.7197C21.1103 40.579 21.3011 40.5 21.5 40.5H27.5C27.6989 40.5 27.8897 40.579 28.0303 40.7197C28.171 40.8603 28.25 41.0511 28.25 41.25C28.25 41.4489 28.171 41.6397 28.0303 41.7803C27.8897 41.921 27.6989 42 27.5 42Z" fill="#5FBBB5"/>
</svg>
