<!-- 01EZTX9M3AWK0ZB16B6KYR56F1 -->

<svg id="Layer_1" data-name="Layer 1" xmlns="http://www.w3.org/2000/svg" xmlns:xlink="http://www.w3.org/1999/xlink" viewBox="0 0 50.82 50.82"><defs><style>.cls-1{fill:none;}.cls-2{clip-path:url(#clip-path);}.cls-3{fill:#5fbbb5;}</style><clipPath id="clip-path"><rect class="cls-1" x="5.41" y="5.41" width="40" height="40"/></clipPath></defs><title>moon-icon</title><g class="cls-2"><path class="cls-3" d="M38.22,23.74H21v1.45H38.22Z"/><path class="cls-3" d="M36.74,29.46H19.51v1.45H36.74Z"/><path class="cls-3" d="M45.36,8.27V7.34H16.2v.93c0,1.92.05,3.93.05,6a59.12,59.12,0,0,1-.65,9.59,37.67,37.67,0,0,1-3,9.86H9.81A4.51,4.51,0,0,0,8.33,34,4.14,4.14,0,0,0,6.4,35.37a5,5,0,0,0-1,2.58q0,.22,0,.45a4.44,4.44,0,0,0,.52,2.07,5.5,5.5,0,0,0,2.15,2.18,6.07,6.07,0,0,0,3,.82H33.21a5.23,5.23,0,0,0,2.2-.45A7.54,7.54,0,0,0,37,42a17.9,17.9,0,0,0,4.57-5.56,31.52,31.52,0,0,0,3.2-10.54A78.11,78.11,0,0,0,45.41,15C45.41,12.51,45.36,10.22,45.36,8.27ZM11.06,41.61h0a4.21,4.21,0,0,1-3.12-1.46,3,3,0,0,1-.49-.83,2.53,2.53,0,0,1-.17-.92,2.59,2.59,0,0,1,0-.26,3.48,3.48,0,0,1,.32-1.2,2.3,2.3,0,0,1,.93-1,2.55,2.55,0,0,1,1.26-.31H29.75a3.8,3.8,0,0,0-.56.85,4.85,4.85,0,0,0-.44,1.63c0,.14,0,.28,0,.41a4.08,4.08,0,0,0,.43,1.81,4.56,4.56,0,0,0,1,1.3ZM42.28,29.15a25.79,25.79,0,0,1-2.34,6.4,16,16,0,0,1-4.09,5,5.74,5.74,0,0,1-1.21.79,3.35,3.35,0,0,1-1.43.29h-.62a4,4,0,0,1-1.51-.81,3.34,3.34,0,0,1-.81-1,2.83,2.83,0,0,1-.3-1.26,2.79,2.79,0,0,1,0-.29A3.61,3.61,0,0,1,30.31,37,2.4,2.4,0,0,1,31.25,36a2.45,2.45,0,0,1,1.25-.33,2.54,2.54,0,0,1,1.23.31,1.94,1.94,0,0,1,.82.85,1.7,1.7,0,0,1,0,1.28,1,1,0,0,1-.27.4,1,1,0,0,1-.63.24,1,1,0,0,1-.53-.16.91.91,0,0,1-.35-.41l-1.14.49a2.15,2.15,0,0,0,.82,1,2.2,2.2,0,0,0,2.64-.19,2.24,2.24,0,0,0,.62-.9,2.95,2.95,0,0,0-.08-2.26,3.19,3.19,0,0,0-1.33-1.39,3.78,3.78,0,0,0-1.8-.47H14.37a39.61,39.61,0,0,0,3.06-10.2,60.91,60.91,0,0,0,.68-9.89c0-1.78,0-3.47,0-5.09H43.5c0,1.76.05,3.71.05,5.77A63.46,63.46,0,0,1,42.28,29.15Z"/><path class="cls-3" d="M31.28,20.13a69.25,69.25,0,0,0,.21-7H21.85a69.26,69.26,0,0,1-.21,7Z"/></g></svg>
