<svg width="33" height="20" viewBox="0 0 33 20" fill="none" xmlns="http://www.w3.org/2000/svg">
<rect width="33" height="20" rx="4" fill="#5FBBB5"/>
<path d="M6.2 15H7.316V11.508H8.768C10.7 11.508 12.008 10.644 12.008 8.784C12.008 6.864 10.688 6.192 8.72 6.192H6.2V15ZM7.316 10.608V7.104H8.576C10.124 7.104 10.904 7.512 10.904 8.784C10.904 10.044 10.172 10.608 8.624 10.608H7.316ZM13.782 15H16.038C18.69 15 20.142 13.356 20.142 10.572C20.142 7.776 18.69 6.192 15.99 6.192H13.782V15ZM14.898 14.088V7.104H15.894C17.97 7.104 18.99 8.34 18.99 10.572C18.99 12.792 17.97 14.088 15.894 14.088H14.898ZM22.0203 15H23.1363V11.052H26.4963V10.116H23.1363V7.14H27.0963V6.192H22.0203V15Z" fill="white"/>
<rect x="0.5" y="0.5" width="32" height="19" rx="3.5" stroke="black" stroke-opacity="0.15"/>
</svg>
