<svg width="20" height="20" viewBox="0 0 20 20" fill="none" xmlns="http://www.w3.org/2000/svg">
<path fill-rule="evenodd" clip-rule="evenodd" d="M10 0C4.47715 0 0 4.47715 0 10C0 15.5228 4.47715 20 10 20C15.5228 20 20 15.5228 20 10C20 4.47715 15.5228 0 10 0ZM10.0002 5C9.54 5 9.16683 5.3731 9.16683 5.83333V10.8337C9.16683 11.2939 9.54 11.667 10.0002 11.667C10.4604 11.667 10.8335 11.2939 10.8335 10.8337V5.83333C10.8335 5.37309 10.4604 5 10.0002 5ZM10.8333 14.1667C10.8333 14.6269 10.4602 15 10 15C9.53975 15 9.16667 14.6269 9.16667 14.1667C9.16667 13.7064 9.53975 13.3333 10 13.3333C10.4602 13.3333 10.8333 13.7064 10.8333 14.1667Z" fill="#E0705A"/>
</svg>
