<svg width="94" height="36" viewBox="0 0 94 36" fill="none" xmlns="http://www.w3.org/2000/svg">
<path d="M93.166 0H0V36H93.166V0Z" fill="white"/>
<path d="M14.2657 8.15582C14.2133 7.79957 14.0861 7.45846 13.8923 7.15496C13.852 7.09761 13.803 7.04688 13.7471 7.00457C13.5281 6.71939 13.2447 6.49014 12.92 6.3356C11.5328 5.64588 9.68144 6.11261 9.03062 7.46611C8.70041 7.63735 8.41252 7.88005 8.18792 8.17657C7.96553 8.58038 7.85288 9.03543 7.86122 9.49636C7.84423 9.82522 7.90648 10.1534 8.04272 10.4531C8.12139 10.5802 8.18905 10.7138 8.24497 10.8525C8.27665 11.0189 8.27342 11.1901 8.23548 11.3553C8.19754 11.5204 8.12572 11.6759 8.02457 11.8118C8.07139 11.825 8.12056 11.8277 8.16853 11.8196C8.2165 11.8115 8.26209 11.7929 8.30201 11.7652C8.86255 11.4684 9.30589 10.9904 9.55958 10.4091C9.64255 10.4894 9.73589 10.5698 9.83702 10.6502C9.82818 10.8692 9.76395 11.0824 9.65033 11.2699C9.48957 11.5292 8.91653 11.8533 8.30461 13.3961C8.17889 13.8992 8.14031 14.4201 8.19052 14.9363C8.21126 15.5301 8.29942 15.8334 8.35906 16.4246C8.44774 16.9328 8.39204 17.4556 8.1983 17.9337C8.1119 18.1164 8.00768 18.2901 7.88715 18.4523H7.93382C7.4282 19.2302 7.08853 20.1221 6.75664 20.7133C6.46766 21.2192 6.22135 21.7482 6.02025 22.295C6.02025 22.295 5.96839 22.8862 6.74626 23.4177C7.2441 23.7626 8.16718 24.0219 9.01506 24.18C8.88801 25.3028 9.3314 26.6718 9.53365 27.2034C9.75664 27.8049 9.60884 28.1005 9.45586 28.5517C9.39461 28.6864 9.36292 28.8328 9.36292 28.9808C9.36292 29.1288 9.39461 29.2752 9.45586 29.4099C9.52068 29.6355 10.5501 29.5214 11.1542 29.5681C11.4135 29.5888 12.4792 29.6666 12.5985 29.4877C12.6366 29.4085 12.656 29.3216 12.655 29.2337C12.654 29.1458 12.6328 29.0594 12.5928 28.981C12.5529 28.9027 12.4955 28.8347 12.4249 28.7823C12.3544 28.7298 12.2727 28.6944 12.1862 28.6787C11.9656 28.6328 11.7571 28.5413 11.574 28.41C11.3909 28.2787 11.2373 28.1106 11.1231 27.9164C10.8846 27.4393 10.9001 26.7263 10.9157 25.9795C10.9157 25.6917 10.9494 25.0331 10.9805 24.333C11.7103 24.2863 12.4198 24.0735 13.0548 23.7107L12.8292 18.0063C12.8292 18.0063 12.7566 17.8792 12.8941 17.0754C13.0226 16.0243 12.8453 14.9583 12.3833 14.0054C12.0542 13.3219 11.6773 12.6626 11.2553 12.0322C11.1568 11.8274 11.1801 11.6977 11.2553 11.6148C11.2865 11.6329 11.3176 11.6537 11.3513 11.6692C11.6106 11.8144 11.9606 12.0141 12.1473 12.123C12.2148 12.1602 12.2906 12.1797 12.3677 12.1797C12.4448 12.1797 12.5206 12.1602 12.5881 12.123C12.684 12.0322 12.6633 11.8455 12.767 11.76C12.8059 11.7263 12.8941 11.7211 12.9433 11.7003C12.9678 11.691 12.9897 11.6761 13.0073 11.6567C13.0248 11.6373 13.0376 11.6141 13.0445 11.5888C13.0445 11.5499 13.0445 11.5033 13.0652 11.4773C13.0768 11.4687 13.09 11.4625 13.1041 11.4592C13.1637 11.4406 13.2174 11.4066 13.2597 11.3607C13.2747 11.3452 13.2862 11.3266 13.2934 11.3062C13.297 11.2813 13.297 11.256 13.2934 11.231C13.2934 11.174 13.2467 11.0988 13.2778 11.0729C13.3089 11.0469 13.8923 10.7773 13.5682 10.4506C13.495 10.3846 13.447 10.2953 13.4323 10.1979C13.4177 10.1005 13.4373 10.001 13.4878 9.91641C13.5487 9.95313 13.619 9.97116 13.6901 9.96827C14.2242 9.61045 14.3487 8.77294 14.2657 8.15582Z" fill="#E97512"/>
<path d="M26.7931 22.0963C26.7646 22.1171 26.692 22.1611 26.6531 22.1845C26.6463 22.1884 26.6386 22.1906 26.6307 22.1908C26.6229 22.191 26.6151 22.1892 26.6081 22.1856C26.6011 22.182 26.5951 22.1766 26.5908 22.1701C26.5864 22.1636 26.5837 22.156 26.5831 22.1482C26.1475 20.8517 24.5476 20.7921 24.6799 21.1395C24.8121 21.487 25.5355 22.0782 25.4577 25.0289C25.4033 27.0773 23.622 26.9269 22.6055 26.5276C22.4055 26.4583 22.2161 26.3615 22.0429 26.2398L21.4906 26.079C21.055 25.8197 18.9262 26.5769 18.8977 26.5976C18.8877 25.7981 18.7313 25.0071 18.4361 24.264C17.9539 23.1257 17.5157 21.9719 17.0671 20.8206C16.611 19.7668 16.2171 18.6872 15.8873 17.5872C15.7286 17.0429 15.6603 16.4761 15.6851 15.9096C15.6662 15.9323 15.6444 15.9524 15.6202 15.9693C15.2302 16.2347 14.7532 16.3405 14.2875 16.2649C14.0425 16.2645 13.8052 16.1793 13.6159 16.0237C13.4189 15.8163 13.45 15.4818 13.4629 15.2173C13.4848 14.7859 13.5535 14.3582 13.6678 13.9416C13.676 13.9161 13.6895 13.8927 13.7074 13.8727C13.7253 13.8528 13.7471 13.8368 13.7716 13.8258C13.796 13.8148 13.8224 13.8091 13.8492 13.8089C13.876 13.8088 13.9025 13.8142 13.9271 13.8249C13.9429 13.8313 13.9572 13.8412 13.9689 13.8537C13.9805 13.8663 13.9893 13.8812 13.9945 13.8975C14.0083 14.0033 13.9968 14.1109 13.9608 14.2113C13.9102 14.4771 13.8842 14.7471 13.883 15.0177C13.8697 15.2001 13.8881 15.3835 13.9374 15.5596C13.9606 15.6281 14.0026 15.6887 14.0585 15.7345C14.1144 15.7804 14.1821 15.8096 14.2538 15.8189C14.5095 15.8748 14.7736 15.8809 15.0316 15.837C15.2085 15.8165 15.3767 15.7494 15.5191 15.6426C15.5773 15.5954 15.6245 15.5363 15.6577 15.4691C15.6908 15.402 15.709 15.3285 15.711 15.2536V15.2147V15.1732C15.6902 14.914 15.6617 14.5639 15.6488 14.3357C15.5917 13.1741 14.5131 12.0021 13.424 12.0617C12.8828 12.0837 12.3497 11.924 11.9098 11.608C11.7594 11.5172 11.5883 11.4576 11.4353 11.372C11.1993 11.2424 11.0749 11.302 10.9167 11.5328C10.763 11.7443 10.6611 11.9889 10.6192 12.247C10.5773 12.505 10.5966 12.7693 10.6756 13.0185C10.8995 13.4232 11.1453 13.8153 11.4119 14.1931C11.6517 14.4793 11.8419 14.8035 11.9746 15.1525C12.109 15.6886 12.1284 16.2471 12.0316 16.7912C11.7924 17.6748 11.6336 18.5782 11.5571 19.4904C11.5399 20.4215 11.6348 21.3513 11.8398 22.2597C12.0568 23.1789 12.217 24.1107 12.3195 25.0496C12.4119 25.8673 12.4422 26.6907 12.4102 27.5129C12.4151 27.6637 12.4003 27.8145 12.3661 27.9615C12.3371 28.1143 12.2566 28.2525 12.138 28.353C11.972 28.506 11.2667 28.423 10.9919 28.6123C10.9005 28.6667 10.8272 28.747 10.7813 28.8429C10.7354 28.9389 10.7189 29.0463 10.7339 29.1516C10.7488 29.2569 10.7946 29.3554 10.8654 29.4348C10.9363 29.5142 11.029 29.5708 11.1319 29.5976C11.4638 29.6158 12.4284 29.6547 12.6877 29.6235C12.9469 29.5924 12.6877 28.9572 12.8406 28.7005C13.0818 28.3193 13.2166 28.5942 13.3281 28.2752C13.4396 27.9563 13.5692 27.9796 13.5278 27.5544C13.5163 27.4467 13.4964 27.34 13.4681 27.2355C13.3722 26.5587 13.5174 25.9183 13.6444 25.2545C13.8571 25.4645 14.0671 25.6719 14.2667 25.882C14.1966 25.9742 14.1317 26.0703 14.0723 26.1698C13.7482 26.7195 15.3324 27.417 15.4906 28.0341C15.6384 28.6097 14.3497 29.1231 14.9098 29.3305C15.1344 29.3995 15.3672 29.4379 15.6021 29.4446C16.38 29.4913 16.8441 29.5665 17.5571 29.2579C17.7402 29.1838 17.9142 29.089 18.0757 28.9753L19.8908 29.2346L20.7464 29.2657C21.4439 29.2398 22.1414 29.162 22.8389 29.1024C23.1083 28.9787 23.3582 28.8162 23.5805 28.6201C25.4759 28.8612 26.4897 28.1689 27.3221 26.805C28.6185 24.6322 27.0187 21.9304 26.7931 22.0963Z" fill="#F4B334"/>
<path d="M11.0588 15.0391C11.1628 15.3682 11.3196 15.6782 11.5229 15.957C11.6526 16.1229 11.9689 16.2344 12.1452 16.3719C12.4827 16.6744 12.8638 16.9244 13.2757 17.1134C13.4396 17.1881 13.6149 17.2346 13.7943 17.2509C14.0884 17.2284 14.3805 17.1842 14.6681 17.1186C14.6875 17.1126 14.708 17.1109 14.7282 17.1135C14.7483 17.1162 14.7676 17.1233 14.7848 17.1342C14.8146 17.1569 14.8351 17.1898 14.8422 17.2266C14.8494 17.2634 14.8428 17.3016 14.8237 17.3338C14.7756 17.3967 14.7135 17.4473 14.6422 17.4816L15.3086 17.5776C15.3578 17.576 15.4068 17.5857 15.4517 17.606C15.4966 17.6262 15.5363 17.6564 15.5679 17.6942C15.6223 17.7798 15.5679 17.9043 15.459 17.8835C15.4971 17.8881 15.5319 17.9075 15.5557 17.9377C15.5795 17.9678 15.5904 18.0061 15.586 18.0443C15.5808 18.0828 15.5609 18.1179 15.5304 18.142C15.5 18.1662 15.4614 18.1776 15.4226 18.1739C15.4413 18.1768 15.4589 18.1847 15.4734 18.1969C15.4879 18.209 15.4988 18.2249 15.505 18.2428C15.5111 18.2607 15.5123 18.2799 15.5083 18.2984C15.5043 18.3169 15.4953 18.3339 15.4823 18.3477C15.4254 18.4017 15.3507 18.433 15.2723 18.4358C15.2815 18.4377 15.2901 18.4419 15.2972 18.4481C15.3043 18.4543 15.3097 18.4622 15.3128 18.4711C15.316 18.48 15.3167 18.4895 15.3151 18.4988C15.3134 18.508 15.3094 18.5167 15.3034 18.524C15.2786 18.5544 15.2435 18.5747 15.2048 18.581C14.6344 18.7081 14.1132 18.7262 13.6102 18.4047C13.4832 18.3217 13.408 18.2154 13.2783 18.1454C13.0514 18.0359 12.8078 17.9649 12.5575 17.9354C11.9785 17.832 11.4182 17.6423 10.8954 17.3727C10.5997 17.2249 10.3279 17.0335 10.089 16.8049C9.86499 16.566 9.67638 16.2961 9.52896 16.0037C9.2982 15.6071 9.12367 15.1804 9.01038 14.7357C8.9023 14.2746 8.9293 13.7921 9.08816 13.3459C9.16517 13.113 9.31066 12.9088 9.50562 12.7599C9.60011 12.6824 9.71333 12.631 9.83392 12.611C9.95452 12.591 10.0783 12.603 10.1927 12.6458C10.5713 12.817 10.5946 13.2941 10.6621 13.6182C10.7606 14.1006 10.8932 14.5754 11.0588 15.0391Z" fill="#E97512"/>
<path d="M27.4832 23.6084C26.9465 23.471 27.0787 24.101 27.1098 24.5263C27.1928 25.6205 26.8505 27.2359 26.2101 27.7622C25.9536 27.9911 25.6329 28.1355 25.2914 28.1759C24.95 28.2163 24.6045 28.1506 24.3017 27.9878C23.9763 27.7869 23.6797 27.5427 23.4201 27.2618C23.2749 27.1321 22.9767 26.8703 22.7874 26.7147C22.7705 26.6986 22.7522 26.6839 22.733 26.6706L22.6448 26.5954L22.6189 26.5721C22.1548 26.1978 21.5934 25.9639 21.0009 25.8979C20.219 25.8228 19.4313 25.958 18.7191 26.2895C18.3948 26.4552 18.0436 26.5623 17.682 26.6058C17.4284 26.6212 17.1745 26.5814 16.9378 26.4891C16.7786 26.4195 16.6364 26.3163 16.5209 26.1864C16.4054 26.0566 16.3194 25.9034 16.2688 25.7372C16.2146 25.3548 16.2501 24.9651 16.3726 24.5989C16.5328 24.2812 16.6505 23.9438 16.7226 23.5954C16.7352 23.5346 16.7296 23.4715 16.7065 23.4139C16.6835 23.3562 16.644 23.3066 16.593 23.2713C16.5386 23.2539 16.4808 23.2502 16.4247 23.2606C16.3686 23.271 16.3159 23.2952 16.2714 23.3309C16.1301 23.4162 15.9934 23.5088 15.8618 23.6084C15.746 23.6837 15.6215 23.7447 15.491 23.7899C15.4294 23.815 15.3627 23.8248 15.2965 23.8184C15.2421 23.6307 15.2288 23.4335 15.2576 23.2402C15.2706 23.1805 15.2576 23.1157 15.2835 23.0302C15.3046 22.9215 15.3176 22.8114 15.3224 22.7009C15.3224 22.5894 15.2421 22.5945 15.1694 22.6853C14.9905 22.9057 14.8453 23.1572 14.6509 23.3698C14.612 23.4139 14.5705 23.4528 14.5368 23.4995C14.4658 23.4753 14.393 23.457 14.319 23.445C14.2141 23.4296 14.1075 23.4296 14.0026 23.445H13.9689C13.9363 23.45 13.9042 23.4578 13.873 23.4684H13.8445L13.7952 23.4917C13.7478 23.5131 13.7026 23.5391 13.6604 23.5695C13.4633 23.7069 13.4555 23.6421 13.1807 23.6473C12.9058 23.6525 12.7036 24.3733 12.7684 24.6015C12.8917 24.9031 13.0437 25.1922 13.2222 25.4649C13.3009 25.6702 13.3583 25.8831 13.3933 26.1002C13.44 26.4969 12.7684 27.5263 13.134 28.2523C12.7451 28.5427 12.0839 28.5842 11.7157 28.7035C11.6277 28.7392 11.5524 28.8003 11.4993 28.879C11.4463 28.9578 11.418 29.0506 11.418 29.1455C11.418 29.2405 11.4463 29.3333 11.4993 29.412C11.5524 29.4908 11.6277 29.5519 11.7157 29.5876C12.1113 29.655 12.514 29.6707 12.9136 29.6343C13.007 29.6162 13.0044 29.5021 12.9836 29.4476C12.8877 29.1131 12.8695 28.8175 13.1081 28.649C13.2507 28.5453 13.6707 28.6023 13.8393 28.5842C14.0815 28.5781 14.3219 28.5416 14.5549 28.4753C14.6794 28.4286 14.7805 28.3767 14.9076 28.3379C15.0346 28.299 15.0865 28.4053 15.0061 28.4856C14.7315 28.6711 14.4114 28.7778 14.0804 28.7942C13.8211 28.7942 13.5178 28.7942 13.3777 28.9965C13.3404 29.0503 13.3149 29.1114 13.3029 29.1759C13.2909 29.2403 13.2927 29.3065 13.3081 29.3702C13.3235 29.4339 13.3523 29.4936 13.3924 29.5454C13.4326 29.5971 13.4833 29.6398 13.5411 29.6706C14.0668 29.7343 14.5987 29.7282 15.1228 29.6525L16.3207 29.5073C16.8648 29.4345 17.4131 29.399 17.962 29.4009C18.1171 29.4313 18.2738 29.4529 18.4313 29.4658C18.7243 29.4891 19.0044 29.5073 19.2792 29.5254C19.2401 29.5853 19.2226 29.6568 19.2297 29.728C19.2367 29.7992 19.2679 29.8659 19.3181 29.9169C19.4194 29.9824 19.541 30.0091 19.6604 29.9921L22.1159 29.9377C22.4892 29.9377 23.2775 29.9014 23.7131 29.611C23.8353 29.524 23.9436 29.4191 24.0346 29.2998L24.0528 29.2791C24.1643 29.1079 24.2239 29.0016 24.3795 28.9809C24.4225 28.9757 24.4661 28.9757 24.5091 28.9809H24.6414C25.4737 29.0405 26.2775 28.9057 26.8479 28.3793C27.5532 27.7285 27.8851 26.4165 27.9214 25.3223C27.9473 24.8582 27.9084 23.7173 27.4832 23.6084Z" fill="#E97512"/>
<path d="M31.841 15.418C31.7983 15.418 31.7559 15.4096 31.7164 15.3931C31.6769 15.3767 31.6411 15.3526 31.6109 15.3222C31.5808 15.2918 31.557 15.2558 31.5408 15.2162C31.5247 15.1765 31.5166 15.1341 31.5169 15.0913V12.3636C31.5129 12.3184 31.5183 12.2729 31.5328 12.2299C31.5473 12.187 31.5706 12.1475 31.6013 12.114C31.6319 12.0806 31.6691 12.0538 31.7106 12.0355C31.7521 12.0173 31.797 12.0078 31.8423 12.0078C31.8877 12.0078 31.9325 12.0173 31.9741 12.0355C32.0156 12.0538 32.0528 12.0806 32.0834 12.114C32.114 12.1475 32.1373 12.187 32.1518 12.2299C32.1664 12.2729 32.1718 12.3184 32.1677 12.3636V15.0913C32.1677 15.178 32.1333 15.2611 32.0721 15.3224C32.0108 15.3836 31.9277 15.418 31.841 15.418Z" fill="#716F6F"/>
<path d="M33.3075 17.7828H32.789C32.703 17.7828 32.6206 17.7486 32.5598 17.6879C32.499 17.6271 32.4648 17.5446 32.4648 17.4587C32.4648 17.3727 32.499 17.2903 32.5598 17.2295C32.6206 17.1687 32.703 17.1346 32.789 17.1346H33.3075C36.0431 17.1346 36.0431 15.4543 36.0431 13.8286V12.3636C36.039 12.3184 36.0444 12.2729 36.059 12.2299C36.0735 12.187 36.0968 12.1475 36.1274 12.114C36.158 12.0806 36.1953 12.0538 36.2368 12.0355C36.2783 12.0173 36.3231 12.0078 36.3685 12.0078C36.4138 12.0078 36.4587 12.0173 36.5002 12.0355C36.5417 12.0538 36.5789 12.0806 36.6095 12.114C36.6402 12.1475 36.6635 12.187 36.678 12.2299C36.6925 12.2729 36.6979 12.3184 36.6939 12.3636V13.8286C36.6887 15.4025 36.6887 17.7828 33.3075 17.7828Z" fill="#716F6F"/>
<path d="M43.8067 14.7854L40.1455 14.3913C40.0549 14.3822 39.971 14.3397 39.9101 14.2721C39.8492 14.2045 39.8157 14.1166 39.8162 14.0257V12.3636C39.8202 12.3184 39.8148 12.2729 39.8003 12.2299C39.7858 12.187 39.7625 12.1475 39.7318 12.114C39.7012 12.0806 39.664 12.0538 39.6225 12.0355C39.581 12.0173 39.5361 12.0078 39.4908 12.0078C39.4454 12.0078 39.4006 12.0173 39.3591 12.0355C39.3175 12.0538 39.2803 12.0806 39.2497 12.114C39.2191 12.1475 39.1958 12.187 39.1813 12.2299C39.1667 12.2729 39.1613 12.3184 39.1654 12.3636V17.4587C39.1726 17.54 39.21 17.6156 39.2703 17.6707C39.3305 17.7258 39.4092 17.7563 39.4908 17.7563C39.5724 17.7563 39.651 17.7258 39.7113 17.6707C39.7715 17.6156 39.8089 17.54 39.8162 17.4587V15.4155C39.8151 15.3633 39.8252 15.3115 39.8458 15.2636C39.8664 15.2157 39.897 15.1727 39.9355 15.1376C39.9741 15.1025 40.0197 15.076 40.0693 15.06C40.119 15.044 40.1714 15.0387 40.2233 15.0447L43.76 15.4232H43.7963C43.8807 15.4226 43.9616 15.3893 44.0221 15.3303C44.0825 15.2714 44.1177 15.1913 44.1204 15.1069C44.1152 15.0247 44.0806 14.947 44.0231 14.888C43.9655 14.8291 43.8888 14.7926 43.8067 14.7854Z" fill="#716F6F"/>
<path d="M45.9413 17.7785C45.8811 17.7785 45.8221 17.7617 45.7709 17.7301C45.7197 17.6984 45.6783 17.6531 45.6514 17.5993C45.6245 17.5455 45.6131 17.4852 45.6185 17.4252C45.6239 17.3653 45.6459 17.308 45.682 17.2599C46.2006 16.5753 46.421 15.686 46.421 14.2858V12.3593C46.421 12.2733 46.4551 12.1909 46.5159 12.1301C46.5767 12.0693 46.6591 12.0352 46.7451 12.0352C46.8311 12.0352 46.9135 12.0693 46.9743 12.1301C47.0351 12.1909 47.0692 12.2733 47.0692 12.3593V14.2832C47.0692 15.8156 46.8099 16.8528 46.198 17.654C46.1678 17.6932 46.1289 17.7249 46.0843 17.7465C46.0398 17.7681 45.9908 17.7791 45.9413 17.7785Z" fill="#716F6F"/>
<path d="M48.8423 17.7785H48.8086C48.7253 17.7745 48.6468 17.7386 48.5894 17.6782C48.5319 17.6178 48.4999 17.5377 48.5 17.4543V12.3593C48.5 12.2733 48.5341 12.1909 48.5949 12.1301C48.6557 12.0693 48.7382 12.0352 48.8241 12.0352C48.9101 12.0352 48.9925 12.0693 49.0533 12.1301C49.1141 12.1909 49.1482 12.2733 49.1482 12.3593V16.9124C49.148 16.9378 49.1535 16.9628 49.1643 16.9857C49.1752 17.0086 49.191 17.0288 49.2107 17.0447C49.2304 17.0607 49.2534 17.072 49.278 17.0778C49.3027 17.0836 49.3283 17.0838 49.3531 17.0784C49.819 16.9925 50.2549 16.7877 50.6183 16.4838C50.9818 16.1798 51.2605 15.7871 51.4274 15.3437C51.4543 15.2689 51.5068 15.206 51.5756 15.1661C51.6444 15.1263 51.7251 15.112 51.8034 15.1259C51.8497 15.1358 51.8932 15.1557 51.9311 15.1841C51.9689 15.2125 52.0002 15.2488 52.0226 15.2905C52.0451 15.3322 52.0582 15.3782 52.0611 15.4255C52.0639 15.4727 52.0565 15.52 52.0393 15.5641C51.788 16.21 51.3493 16.7659 50.7796 17.1605C50.2099 17.5551 49.5352 17.7703 48.8423 17.7785Z" fill="#716F6F"/>
<path d="M61.0279 17.7822C60.9473 17.7814 60.8698 17.7506 60.8107 17.6957C60.7515 17.6408 60.715 17.5659 60.7082 17.4855C60.7014 17.4051 60.7248 17.3251 60.7739 17.261C60.8229 17.197 60.8941 17.1536 60.9735 17.1392C61.9043 16.9758 62.4852 16.102 62.4852 14.8367C62.4924 14.7554 62.5299 14.6798 62.5901 14.6247C62.6503 14.5696 62.729 14.5391 62.8106 14.5391C62.8922 14.5391 62.9708 14.5696 63.0311 14.6247C63.0913 14.6798 63.1287 14.7554 63.136 14.8367C63.136 16.4313 62.3581 17.5567 61.0824 17.7771C61.0646 17.7813 61.0462 17.7831 61.0279 17.7822Z" fill="#716F6F"/>
<path d="M72.8739 13.0163C72.8558 13.0189 72.8375 13.0189 72.8194 13.0163C71.368 12.7835 69.8996 12.6734 68.4296 12.687C68.3436 12.6877 68.2607 12.6548 68.1987 12.5952C68.1367 12.5356 68.1005 12.4541 68.0978 12.3681C68.0967 12.3255 68.1041 12.2832 68.1194 12.2435C68.1348 12.2037 68.1578 12.1674 68.1872 12.1366C68.2165 12.1058 68.2517 12.0811 68.2906 12.0638C68.3296 12.0466 68.3715 12.0372 68.4141 12.0362C69.9248 12.0229 71.434 12.1365 72.9257 12.3759C73.0089 12.3859 73.0849 12.4277 73.1379 12.4925C73.1909 12.5573 73.2167 12.6401 73.21 12.7236C73.2033 12.8071 73.1646 12.8847 73.1019 12.9402C73.0393 12.9958 72.9575 13.0249 72.8739 13.0215V13.0163Z" fill="#716F6F"/>
<path d="M72.6353 15.2401C72.6137 15.2426 72.592 15.2426 72.5704 15.2401C71.2017 14.9824 69.8142 14.8367 68.4218 14.8045C68.3358 14.8045 68.2534 14.7703 68.1926 14.7095C68.1318 14.6488 68.0977 14.5663 68.0977 14.4804C68.0977 14.3944 68.1318 14.312 68.1926 14.2512C68.2534 14.1904 68.3358 14.1562 68.4218 14.1562C69.8571 14.1858 71.2873 14.3359 72.6975 14.6048C72.7778 14.6192 72.8498 14.6635 72.899 14.7286C72.9481 14.7938 72.9709 14.8751 72.9627 14.9563C72.9545 15.0376 72.916 15.1127 72.8548 15.1668C72.7936 15.2208 72.7143 15.2498 72.6327 15.2479L72.6353 15.2401Z" fill="#716F6F"/>
<path d="M72.9751 17.7746H72.8999C71.2843 17.4056 69.6438 17.156 67.9915 17.0278C67.949 17.0251 67.9074 17.014 67.8691 16.9952C67.8308 16.9764 67.7966 16.9502 67.7684 16.9182C67.7403 16.8862 67.7187 16.8489 67.7049 16.8086C67.6911 16.7682 67.6854 16.7255 67.6882 16.6829C67.6909 16.6404 67.702 16.5988 67.7208 16.5605C67.7396 16.5222 67.7657 16.488 67.7978 16.4598C67.8298 16.4317 67.867 16.4101 67.9074 16.3963C67.9478 16.3825 67.9905 16.3768 68.033 16.3796C69.722 16.5097 71.3989 16.7645 73.0503 17.1419C73.1286 17.1593 73.1977 17.2052 73.2441 17.2706C73.2906 17.336 73.3111 17.4164 73.3018 17.496C73.2924 17.5757 73.2538 17.6491 73.1935 17.702C73.1332 17.7549 73.0553 17.7835 72.9751 17.7823V17.7746Z" fill="#716F6F"/>
<path d="M86.6623 15.2264H81.7851C81.6991 15.2264 81.6167 15.1922 81.5559 15.1314C81.4951 15.0706 81.4609 14.9882 81.4609 14.9022C81.4609 14.8163 81.4951 14.7338 81.5559 14.6731C81.6167 14.6123 81.6991 14.5781 81.7851 14.5781H86.6623C86.7483 14.5781 86.8307 14.6123 86.8915 14.6731C86.9523 14.7338 86.9864 14.8163 86.9864 14.9022C86.9864 14.9882 86.9523 15.0706 86.8915 15.1314C86.8307 15.1922 86.7483 15.2264 86.6623 15.2264Z" fill="#716F6F"/>
<path d="M75.2448 15.4137C75.1606 15.4104 75.0811 15.3744 75.023 15.3134C74.9649 15.2524 74.9329 15.1712 74.9336 15.087V12.3593C74.9336 12.2733 74.9678 12.1909 75.0285 12.1301C75.0893 12.0693 75.1718 12.0352 75.2577 12.0352C75.3437 12.0352 75.4261 12.0693 75.4869 12.1301C75.5477 12.1909 75.5818 12.2733 75.5818 12.3593V15.087C75.5822 15.1309 75.5737 15.1744 75.5568 15.2149C75.5398 15.2554 75.5148 15.2921 75.4833 15.3226C75.4518 15.3532 75.4144 15.377 75.3734 15.3926C75.3324 15.4083 75.2886 15.4155 75.2448 15.4137Z" fill="#716F6F"/>
<path d="M76.7072 17.7785H76.1757C76.0897 17.7785 76.0073 17.7443 75.9465 17.6835C75.8857 17.6227 75.8516 17.5403 75.8516 17.4543C75.8516 17.3684 75.8857 17.2859 75.9465 17.2252C76.0073 17.1644 76.0897 17.1302 76.1757 17.1302H76.7072C79.4376 17.1302 79.4376 15.45 79.4376 13.8243V12.3593C79.4376 12.2733 79.4717 12.1909 79.5325 12.1301C79.5933 12.0693 79.6757 12.0352 79.7617 12.0352C79.8476 12.0352 79.9301 12.0693 79.9909 12.1301C80.0517 12.1909 80.0858 12.2733 80.0858 12.3593V13.8243C80.0858 15.3982 80.0858 17.7785 76.7072 17.7785Z" fill="#716F6F"/>
<path d="M58.4297 12.2188H53.4539C53.3726 12.2261 53.297 12.2635 53.2419 12.3237C53.1868 12.3839 53.1562 12.4626 53.1562 12.5442C53.1562 12.6258 53.1868 12.7045 53.2419 12.7647C53.297 12.8249 53.3726 12.8623 53.4539 12.8696H57.8385C58.0408 12.8696 58.0978 12.9344 58.0978 13.1082C57.9889 16.007 57.001 16.9975 54.3692 16.9975H53.918C53.8367 17.0048 53.7611 17.0422 53.706 17.1024C53.6509 17.1627 53.6204 17.2413 53.6204 17.3229C53.6204 17.4046 53.6509 17.4832 53.706 17.5434C53.7611 17.6037 53.8367 17.6411 53.918 17.6484H54.3692C57.5274 17.6484 58.759 16.2145 58.759 12.5351C58.7569 12.4496 58.7212 12.3684 58.6595 12.3091C58.5978 12.2499 58.5152 12.2174 58.4297 12.2188Z" fill="#716F6F"/>
<path d="M65.8883 13.5978C65.865 13.437 65.6991 13.3203 65.4527 13.3203H60.8866C60.8007 13.3203 60.7182 13.3545 60.6574 13.4152C60.5966 13.476 60.5625 13.5585 60.5625 13.6444C60.5625 13.7304 60.5966 13.8128 60.6574 13.8736C60.7182 13.9344 60.8007 13.9685 60.8866 13.9685H65.1182C65.222 13.9685 65.2583 14.0074 65.266 14.0748C65.2875 14.5719 65.1384 15.0614 64.8434 15.4621C64.6946 15.621 64.5121 15.7445 64.3093 15.8234C64.1064 15.9024 63.8885 15.9349 63.6714 15.9184C63.5854 15.9184 63.503 15.9526 63.4422 16.0133C63.3814 16.0741 63.3473 16.1566 63.3473 16.2425C63.3473 16.3285 63.3814 16.4109 63.4422 16.4717C63.503 16.5325 63.5854 16.5666 63.6714 16.5666C63.9835 16.5864 64.2961 16.5353 64.5857 16.4172C64.8753 16.2992 65.1345 16.1171 65.3438 15.8847C66.0854 15.0187 65.8961 13.6548 65.8883 13.5978Z" fill="#716F6F"/>
<path d="M33.0264 22.6406H33.6694C33.7293 22.64 33.7865 22.6161 33.8291 22.574C33.8717 22.5319 33.8962 22.4749 33.8976 22.4151C33.9157 19.9803 33.8976 19.9362 33.8846 19.8922C33.8654 19.8395 33.8275 19.7958 33.7781 19.7693C33.7287 19.7428 33.6713 19.7354 33.6168 19.7485C33.5623 19.7617 33.5145 19.7944 33.4826 19.8405C33.4507 19.8866 33.4369 19.9428 33.4438 19.9985C33.4438 20.1385 33.4438 21.326 33.4438 22.1843H33.029C32.9684 22.1843 32.9104 22.2083 32.8676 22.2511C32.8248 22.2939 32.8008 22.352 32.8008 22.4125C32.8008 22.473 32.8248 22.531 32.8676 22.5738C32.9104 22.6166 32.9684 22.6406 33.029 22.6406H33.0264Z" fill="#716F6F"/>
<path d="M32.2214 20.3309C32.1914 20.3261 32.1607 20.3275 32.1312 20.335C32.1017 20.3424 32.074 20.3557 32.0497 20.3741C32.0255 20.3925 32.0053 20.4156 31.9902 20.4421C31.9752 20.4685 31.9656 20.4977 31.9621 20.5279C31.8802 21.0897 31.6805 21.6278 31.3761 22.107C31.3584 22.1312 31.3457 22.1586 31.3385 22.1877C31.3314 22.2169 31.3301 22.2471 31.3347 22.2767C31.3393 22.3063 31.3496 22.3347 31.3652 22.3603C31.3808 22.386 31.4012 22.4083 31.4254 22.426C31.4651 22.4532 31.5121 22.4677 31.5602 22.4674C31.5962 22.4679 31.6317 22.4596 31.6637 22.4434C31.6958 22.4271 31.7234 22.4033 31.7443 22.3741C32.0972 21.8344 32.3265 21.2235 32.4159 20.585C32.4199 20.5555 32.418 20.5256 32.4104 20.4968C32.4028 20.4681 32.3896 20.4411 32.3715 20.4175C32.3534 20.3939 32.3309 20.3741 32.3051 20.3592C32.2794 20.3443 32.2509 20.3347 32.2214 20.3309Z" fill="#716F6F"/>
<path d="M35.0196 20.3737C34.9711 20.409 34.9385 20.462 34.9288 20.5212C34.9191 20.5804 34.9331 20.641 34.9678 20.69C35.2623 21.1355 35.4528 21.6415 35.5252 22.1705C35.5316 22.226 35.558 22.2772 35.5996 22.3145C35.6412 22.3518 35.695 22.3725 35.7508 22.3728H35.7845C35.8151 22.3696 35.8447 22.3603 35.8715 22.3454C35.8984 22.3305 35.9219 22.3104 35.9408 22.2862C35.9597 22.262 35.9735 22.2342 35.9814 22.2045C35.9893 22.1749 35.9911 22.1439 35.9868 22.1135C35.9079 21.5049 35.6877 20.9233 35.3437 20.4151C35.3254 20.3908 35.3024 20.3704 35.2761 20.3551C35.2498 20.3398 35.2206 20.3299 35.1904 20.3261C35.1602 20.3222 35.1295 20.3244 35.1002 20.3326C35.0709 20.3408 35.0435 20.3547 35.0196 20.3737Z" fill="#716F6F"/>
<path d="M35.2066 22.3477C35.1491 22.3286 35.0865 22.3329 35.0322 22.3596C34.9779 22.3862 34.9362 22.4332 34.9161 22.4903C34.8928 22.5525 34.3483 24.046 32.0251 24.046C31.9645 24.046 31.9065 24.0701 31.8637 24.1129C31.8209 24.1557 31.7969 24.2137 31.7969 24.2742C31.7969 24.3347 31.8209 24.3928 31.8637 24.4356C31.9065 24.4783 31.9645 24.5024 32.0251 24.5024C34.688 24.5024 35.3206 22.7236 35.3466 22.6459C35.3576 22.6171 35.3628 22.5865 35.3617 22.5557C35.3606 22.525 35.3532 22.4948 35.3402 22.4669C35.3271 22.439 35.3085 22.4141 35.2855 22.3936C35.2626 22.3731 35.2357 22.3575 35.2066 22.3477Z" fill="#716F6F"/>
<path d="M37.3038 20.9778C37.3609 20.9778 37.4157 20.9551 37.456 20.9148C37.4964 20.8744 37.5191 20.8197 37.5191 20.7626V20.5915H39.1318V20.7626C39.1285 20.7927 39.1316 20.8231 39.1408 20.8519C39.1501 20.8807 39.1653 20.9072 39.1855 20.9298C39.2056 20.9523 39.2304 20.9703 39.258 20.9827C39.2856 20.995 39.3155 21.0014 39.3458 21.0014C39.376 21.0014 39.4059 20.995 39.4335 20.9827C39.4612 20.9703 39.4859 20.9523 39.5061 20.9298C39.5262 20.9072 39.5415 20.8807 39.5507 20.8519C39.5599 20.8231 39.563 20.7927 39.5597 20.7626V20.3763C39.5597 20.348 39.5541 20.32 39.5433 20.2939C39.5325 20.2678 39.5166 20.2441 39.4966 20.2241C39.4767 20.2041 39.4529 20.1882 39.4268 20.1774C39.4007 20.1666 39.3727 20.161 39.3445 20.161H38.5458C38.5618 20.0754 38.5618 19.9874 38.5458 19.9018C38.528 19.8472 38.4895 19.8018 38.4387 19.7752C38.3878 19.7485 38.3286 19.7428 38.2736 19.7591C38.2473 19.7668 38.2229 19.7797 38.2017 19.797C38.1805 19.8143 38.163 19.8356 38.1502 19.8598C38.1374 19.884 38.1295 19.9105 38.1271 19.9377C38.1247 19.9649 38.1278 19.9924 38.1362 20.0184C38.1395 20.0633 38.1395 20.1084 38.1362 20.1533C38.1362 20.1533 38.1362 20.1533 38.1362 20.1662H37.322C37.2654 20.1669 37.2113 20.1899 37.1715 20.2302C37.1317 20.2705 37.1094 20.3248 37.1094 20.3814V20.7678C37.1104 20.8205 37.1308 20.8711 37.1666 20.9098C37.2025 20.9485 37.2513 20.9727 37.3038 20.9778Z" fill="#716F6F"/>
<path d="M39.0772 23.0391H37.5785C37.5502 23.0391 37.5222 23.0446 37.4961 23.0554C37.47 23.0663 37.4463 23.0821 37.4263 23.1021C37.4063 23.1221 37.3905 23.1458 37.3797 23.1719C37.3688 23.198 37.3633 23.226 37.3633 23.2543V24.2629C37.3633 24.2912 37.3688 24.3192 37.3797 24.3453C37.3905 24.3714 37.4063 24.3951 37.4263 24.4151C37.4463 24.4351 37.47 24.4509 37.4961 24.4617C37.5222 24.4726 37.5502 24.4781 37.5785 24.4781H39.0772C39.1338 24.4774 39.1879 24.4545 39.2277 24.4142C39.2675 24.3739 39.2898 24.3195 39.2898 24.2629V23.2543C39.2898 23.1976 39.2675 23.1433 39.2277 23.103C39.1879 23.0627 39.1338 23.0397 39.0772 23.0391ZM38.862 24.0477H37.7911V23.4695H38.862V24.0477Z" fill="#716F6F"/>
<path d="M39.3598 22.3726C39.1137 22.3677 38.8747 22.2901 38.6727 22.1496C38.9185 21.8718 39.0859 21.5335 39.1575 21.1695C39.1637 21.1389 39.1627 21.1073 39.1546 21.0771C39.1465 21.047 39.1315 21.0192 39.1109 20.9958C39.0909 20.9717 39.066 20.9523 39.0377 20.9389C39.0095 20.9254 38.9787 20.9183 38.9475 20.918H37.9285C37.8899 20.9183 37.8522 20.9291 37.8193 20.9492C37.7865 20.9693 37.7597 20.9979 37.7418 21.0321C37.6931 21.1162 37.6385 21.1967 37.5784 21.2732C37.5701 21.2816 37.5631 21.2912 37.5577 21.3017C37.4619 21.4258 37.3441 21.5313 37.2102 21.6129C37.1645 21.6424 37.1316 21.6883 37.1183 21.7411C37.1049 21.794 37.1122 21.8499 37.1385 21.8977C37.1649 21.9454 37.2083 21.9813 37.2601 21.9983C37.3119 22.0152 37.3683 22.0118 37.4177 21.9888C37.5216 21.9296 37.6174 21.8573 37.7029 21.7736C37.7974 21.9063 37.9014 22.032 38.014 22.1496C37.7972 22.2783 37.5527 22.353 37.301 22.3674C37.2483 22.3732 37.1996 22.3983 37.1643 22.4377C37.1289 22.4772 37.1094 22.5283 37.1094 22.5813C37.1094 22.6343 37.1289 22.6854 37.1643 22.7249C37.1996 22.7644 37.2483 22.7894 37.301 22.7952H37.3166C37.683 22.7755 38.0363 22.6523 38.3356 22.44C38.6268 22.6638 38.9822 22.7884 39.3494 22.7952C39.4065 22.7952 39.4612 22.7726 39.5016 22.7322C39.5419 22.6918 39.5646 22.6371 39.5646 22.58C39.5633 22.5259 39.5414 22.4742 39.5033 22.4357C39.4653 22.3971 39.4139 22.3746 39.3598 22.3726ZM38.6571 21.3354C38.5818 21.525 38.4748 21.7003 38.3408 21.854C38.2104 21.7203 38.0932 21.5744 37.9907 21.4184L38.0478 21.3302L38.6571 21.3354Z" fill="#716F6F"/>
<path d="M39.9261 20.3614H40.5199C40.4667 20.5232 40.3782 20.6711 40.2606 20.7944H40.061C40.0044 20.7951 39.9503 20.8181 39.9105 20.8584C39.8707 20.8986 39.8484 20.953 39.8484 21.0096V23.2499C39.8484 23.3063 39.8708 23.3604 39.9106 23.4002C39.9505 23.4401 40.0046 23.4625 40.061 23.4625H41.4404C41.4968 23.4625 41.5509 23.4401 41.5908 23.4002C41.6306 23.3604 41.653 23.3063 41.653 23.2499V21.0044C41.653 20.9478 41.6307 20.8935 41.5909 20.8532C41.5511 20.8129 41.497 20.7899 41.4404 20.7892H40.7948C40.8724 20.6539 40.93 20.508 40.9659 20.3562H41.5727C41.6297 20.3562 41.6845 20.3335 41.7248 20.2932C41.7652 20.2528 41.7879 20.1981 41.7879 20.141C41.7879 20.0839 41.7652 20.0292 41.7248 19.9888C41.6845 19.9485 41.6297 19.9258 41.5727 19.9258H39.9261C39.8691 19.9258 39.8143 19.9485 39.774 19.9888C39.7336 20.0292 39.7109 20.0839 39.7109 20.141C39.7109 20.1981 39.7336 20.2528 39.774 20.2932C39.8143 20.3335 39.8691 20.3562 39.9261 20.3562V20.3614ZM41.2226 22.3009H40.2736V21.969H41.2226V22.3009ZM40.2736 23.0476V22.7158H41.2226V23.0347L40.2736 23.0476ZM41.2226 21.5412H40.2736V21.2222H41.2226V21.5412Z" fill="#716F6F"/>
<path d="M40.3287 23.6958C40.3044 23.682 40.2775 23.673 40.2498 23.6696C40.222 23.6661 40.1938 23.6682 40.1668 23.6757C40.1398 23.6831 40.1146 23.6959 40.0925 23.7131C40.0705 23.7304 40.052 23.7518 40.0383 23.7762C39.9522 23.9057 39.8281 24.0054 39.6831 24.0614C39.6326 24.0802 39.5909 24.1173 39.5665 24.1653C39.542 24.2133 39.5364 24.2688 39.5508 24.3207C39.5657 24.3627 39.593 24.3991 39.6292 24.425C39.6653 24.451 39.7086 24.4653 39.7531 24.4659C39.777 24.4654 39.8006 24.461 39.8231 24.4529C40.067 24.3653 40.2738 24.197 40.4091 23.9758C40.4339 23.9277 40.4393 23.8719 40.4244 23.8199C40.4095 23.7679 40.3752 23.7235 40.3287 23.6958Z" fill="#716F6F"/>
<path d="M41.822 24.0606C41.6775 24.0048 41.5542 23.9051 41.4694 23.7754C41.4555 23.751 41.4368 23.7297 41.4146 23.7125C41.3924 23.6954 41.367 23.6828 41.3399 23.6754C41.3129 23.6681 41.2846 23.6661 41.2568 23.6697C41.2289 23.6733 41.2021 23.6823 41.1777 23.6963C41.1534 23.7102 41.132 23.7289 41.1149 23.7511C41.0977 23.7733 41.0851 23.7987 41.0778 23.8258C41.0704 23.8528 41.0685 23.8811 41.0721 23.9089C41.0756 23.9368 41.0847 23.9636 41.0986 23.988C41.2339 24.2091 41.4407 24.3774 41.6846 24.4651C41.7071 24.4731 41.7308 24.4775 41.7546 24.478C41.7991 24.4774 41.8424 24.4632 41.8785 24.4372C41.9147 24.4112 41.942 24.3748 41.9569 24.3328C41.9662 24.3061 41.9701 24.2778 41.9684 24.2496C41.9666 24.2213 41.9592 24.1937 41.9467 24.1684C41.9341 24.143 41.9166 24.1204 41.8952 24.1019C41.8738 24.0834 41.849 24.0694 41.822 24.0606Z" fill="#716F6F"/>
<path d="M47.1856 20.8281H45.4613C45.4042 20.8281 45.3495 20.8508 45.3091 20.8912C45.2688 20.9315 45.2461 20.9863 45.2461 21.0433V22.3787C45.2468 22.4353 45.2697 22.4894 45.31 22.5292C45.3503 22.569 45.4047 22.5913 45.4613 22.5913H47.1856C47.2422 22.5913 47.2966 22.569 47.3369 22.5292C47.3771 22.4894 47.4001 22.4353 47.4008 22.3787V21.0433C47.4008 20.9863 47.3781 20.9315 47.3378 20.8912C47.2974 20.8508 47.2427 20.8281 47.1856 20.8281ZM46.9704 22.1635H45.6739V21.2663H46.9704V22.1635Z" fill="#716F6F"/>
<path d="M45.391 20.3601H47.206C47.2631 20.3601 47.3178 20.3374 47.3582 20.2971C47.3986 20.2567 47.4212 20.202 47.4212 20.1449C47.4212 20.0878 47.3986 20.0331 47.3582 19.9927C47.3178 19.9524 47.2631 19.9297 47.206 19.9297H45.391C45.3339 19.9297 45.2792 19.9524 45.2388 19.9927C45.1985 20.0331 45.1758 20.0878 45.1758 20.1449C45.1758 20.202 45.1985 20.2567 45.2388 20.2971C45.2792 20.3374 45.3339 20.3601 45.391 20.3601Z" fill="#716F6F"/>
<path d="M47.3405 23.9429H47.0112L47.2705 23.0561C47.284 23.0018 47.2759 22.9444 47.2478 22.896C47.2198 22.8475 47.1739 22.812 47.1201 22.7968C47.0934 22.7893 47.0654 22.7872 47.0379 22.7906C47.0103 22.7941 46.9837 22.8029 46.9596 22.8166C46.9355 22.8304 46.9144 22.8488 46.8974 22.8707C46.8804 22.8927 46.868 22.9178 46.8608 22.9446L46.5782 23.948H46.0596L45.7796 22.9446C45.7633 22.8916 45.7274 22.8468 45.6792 22.8193C45.631 22.7918 45.5742 22.7838 45.5203 22.7968C45.4665 22.8119 45.4209 22.8476 45.3932 22.8961C45.3656 22.9447 45.3581 23.0021 45.3725 23.0561L45.6318 23.9429H45.3051C45.2769 23.9425 45.249 23.9478 45.2229 23.9583C45.1968 23.9688 45.1731 23.9844 45.153 24.0042C45.133 24.024 45.1171 24.0475 45.1063 24.0735C45.0954 24.0995 45.0898 24.1273 45.0898 24.1555C45.0898 24.1837 45.0954 24.2117 45.1062 24.2378C45.117 24.2639 45.1329 24.2877 45.1529 24.3077C45.1729 24.3276 45.1966 24.3435 45.2227 24.3543C45.2488 24.3651 45.2768 24.3707 45.3051 24.3707H47.3794C47.436 24.37 47.4901 24.347 47.5299 24.3067C47.5697 24.2665 47.592 24.2121 47.592 24.1555C47.5925 24.124 47.5861 24.0927 47.573 24.064C47.56 24.0353 47.5407 24.0099 47.5167 23.9895C47.4926 23.9692 47.4643 23.9544 47.4338 23.9463C47.4034 23.9383 47.3715 23.9371 47.3405 23.9429Z" fill="#716F6F"/>
<path d="M44.7618 20.595C44.8189 20.595 44.8736 20.5723 44.914 20.5319C44.9543 20.4916 44.977 20.4368 44.977 20.3797C44.977 20.3227 44.9543 20.2679 44.914 20.2276C44.8736 20.1872 44.8189 20.1645 44.7618 20.1645H43.5042C43.5172 20.0038 43.5042 19.9052 43.5042 19.8819C43.5035 19.826 43.4808 19.7725 43.441 19.7332C43.4012 19.6939 43.3475 19.6719 43.2916 19.6719C43.235 19.6726 43.1809 19.6955 43.1411 19.7358C43.1013 19.7761 43.079 19.8305 43.079 19.8871C43.0737 20.3442 42.9859 20.7966 42.8197 21.2224C42.8081 21.2481 42.8017 21.2758 42.8009 21.304C42.8001 21.3322 42.8049 21.3602 42.815 21.3865C42.8251 21.4128 42.8404 21.4369 42.8599 21.4572C42.8794 21.4776 42.9028 21.4938 42.9286 21.5051C42.9633 21.5216 43.002 21.5279 43.0401 21.5232C43.0817 21.5234 43.1225 21.5114 43.1574 21.4889C43.1924 21.4663 43.2201 21.4341 43.2371 21.3962C43.3462 21.1398 43.422 20.8706 43.4627 20.595H43.8076V21.8603H43.1542C43.1241 21.857 43.0937 21.86 43.0649 21.8693C43.0361 21.8785 43.0095 21.8937 42.987 21.9139C42.9645 21.9341 42.9464 21.9588 42.9341 21.9864C42.9218 22.014 42.9154 22.044 42.9154 22.0742C42.9154 22.1045 42.9218 22.1344 42.9341 22.162C42.9464 22.1896 42.9645 22.2143 42.987 22.2345C43.0095 22.2547 43.0361 22.2699 43.0649 22.2791C43.0937 22.2884 43.1241 22.2914 43.1542 22.2881H43.7972C43.725 22.9697 43.4286 23.6081 42.9545 24.1032C42.9332 24.1213 42.9156 24.1435 42.9029 24.1685C42.8901 24.1935 42.8824 24.2207 42.8803 24.2487C42.8781 24.2767 42.8815 24.3048 42.8902 24.3314C42.899 24.358 42.9129 24.3827 42.9312 24.4039C42.9516 24.4273 42.9767 24.446 43.0048 24.459C43.033 24.4719 43.0636 24.4788 43.0945 24.4791C43.1463 24.4786 43.1961 24.4593 43.2346 24.4247C43.6116 24.0543 43.8928 23.5978 44.0539 23.0945C44.2407 23.3272 44.4138 23.5705 44.5725 23.8231C44.5914 23.8553 44.6182 23.882 44.6505 23.9006C44.6828 23.9192 44.7193 23.9292 44.7566 23.9294C44.7951 23.9292 44.8327 23.9185 44.8655 23.8983C44.9141 23.8692 44.9492 23.8221 44.9633 23.7673C44.9773 23.7124 44.9692 23.6542 44.9407 23.6053C44.7079 23.2494 44.4533 22.9082 44.1784 22.5837C44.1964 22.4859 44.2094 22.3873 44.2173 22.2881H44.7566C44.7867 22.2914 44.8171 22.2884 44.8459 22.2791C44.8747 22.2699 44.9012 22.2547 44.9238 22.2345C44.9463 22.2143 44.9643 22.1896 44.9767 22.162C44.989 22.1344 44.9954 22.1045 44.9954 22.0742C44.9954 22.044 44.989 22.014 44.9767 21.9864C44.9643 21.9588 44.9463 21.9341 44.9238 21.9139C44.9012 21.8937 44.8747 21.8785 44.8459 21.8693C44.8171 21.86 44.7867 21.857 44.7566 21.8603H44.238V20.595H44.7618Z" fill="#716F6F"/>
<path d="M52.9919 19.8516H51.6021C51.5455 19.8522 51.4914 19.8752 51.4516 19.9155C51.4118 19.9558 51.3895 20.0101 51.3895 20.0668V23.0564C51.3883 23.4371 51.2996 23.8123 51.1302 24.1532C51.1019 24.2024 51.0942 24.2608 51.1088 24.3157C51.1233 24.3706 51.159 24.4175 51.208 24.4462C51.2415 24.4644 51.2788 24.4741 51.3169 24.4747C51.3542 24.4745 51.3907 24.4645 51.423 24.4459C51.4553 24.4273 51.4821 24.4006 51.501 24.3684C51.7064 23.9617 51.8122 23.512 51.8096 23.0564V22.919H52.7586V23.8006C52.7586 24.0106 52.6886 24.0443 52.5304 24.0443H52.297C52.24 24.0443 52.1852 24.067 52.1449 24.1073C52.1045 24.1477 52.0818 24.2024 52.0818 24.2595C52.0818 24.3166 52.1045 24.3713 52.1449 24.4117C52.1852 24.4521 52.24 24.4747 52.297 24.4747H52.5304C52.6201 24.4826 52.7105 24.4705 52.7949 24.4391C52.8793 24.4078 52.9557 24.358 53.0185 24.2935C53.0813 24.2289 53.129 24.1512 53.158 24.0659C53.1871 23.9807 53.1968 23.89 53.1864 23.8006V20.0668C53.1867 20.0131 53.1668 19.9613 53.1309 19.9215C53.0949 19.8817 53.0453 19.8567 52.9919 19.8516ZM52.7767 20.282V21.1662H51.8277V20.282H52.7767ZM51.8277 22.4911V21.5966H52.7767V22.4911H51.8277Z" fill="#716F6F"/>
<path d="M49.3885 23.5719C49.3641 23.5577 49.337 23.5484 49.309 23.5448C49.2809 23.5411 49.2524 23.5431 49.2251 23.5505C49.1978 23.558 49.1723 23.5709 49.1501 23.5884C49.1278 23.6058 49.1093 23.6276 49.0955 23.6523C48.9853 23.8195 48.8467 23.9661 48.6858 24.0853C48.6492 24.1121 48.622 24.1498 48.608 24.193C48.5941 24.2362 48.5942 24.2827 48.6083 24.3259C48.6224 24.369 48.6498 24.4066 48.6865 24.4333C48.7233 24.4599 48.7675 24.4743 48.8129 24.4743C48.8577 24.4741 48.9014 24.4595 48.9374 24.4328C49.1433 24.2766 49.319 24.0842 49.4559 23.8649C49.4852 23.817 49.4945 23.7595 49.4819 23.7047C49.4693 23.65 49.4358 23.6023 49.3885 23.5719Z" fill="#716F6F"/>
<path d="M50.4772 23.6543C50.449 23.6051 50.4025 23.5692 50.3478 23.5543C50.2931 23.5395 50.2347 23.547 50.1855 23.5752C50.1364 23.6034 50.1004 23.65 50.0856 23.7047C50.0707 23.7594 50.0782 23.8177 50.1064 23.8669C50.2424 24.0868 50.4183 24.2794 50.625 24.4347C50.6607 24.4622 50.7045 24.4768 50.7495 24.4762C50.7949 24.4762 50.8391 24.4619 50.8759 24.4352C50.9126 24.4086 50.94 24.371 50.9541 24.3278C50.9682 24.2847 50.9683 24.2382 50.9543 24.195C50.9404 24.1518 50.9132 24.1141 50.8765 24.0873C50.7194 23.9671 50.5843 23.8206 50.4772 23.6543Z" fill="#716F6F"/>
<path d="M50.7967 20.5314C50.8493 20.5256 50.898 20.5006 50.9334 20.4611C50.9687 20.4216 50.9883 20.3705 50.9883 20.3175C50.9883 20.2645 50.9687 20.2134 50.9334 20.1739C50.898 20.1344 50.8493 20.1094 50.7967 20.1036V19.8832C50.7967 19.8261 50.774 19.7714 50.7336 19.731C50.6933 19.6906 50.6385 19.668 50.5815 19.668C50.5244 19.668 50.4696 19.6906 50.4293 19.731C50.3889 19.7714 50.3662 19.8261 50.3662 19.8832V20.1036H49.3057V19.8832C49.3057 19.8261 49.2831 19.7714 49.2427 19.731C49.2023 19.6906 49.1476 19.668 49.0905 19.668C49.0335 19.668 48.9787 19.6906 48.9384 19.731C48.898 19.7714 48.8753 19.8261 48.8753 19.8832V20.1036H48.8286C48.7986 20.1003 48.7681 20.1033 48.7393 20.1126C48.7105 20.1218 48.684 20.137 48.6615 20.1572C48.6389 20.1774 48.6209 20.2021 48.6086 20.2297C48.5962 20.2573 48.5898 20.2872 48.5898 20.3175C48.5898 20.3477 48.5962 20.3777 48.6086 20.4053C48.6209 20.4329 48.6389 20.4576 48.6615 20.4778C48.684 20.498 48.7105 20.5132 48.7393 20.5224C48.7681 20.5317 48.7986 20.5347 48.8286 20.5314H48.8753V22.9324H48.8286C48.7986 22.9291 48.7681 22.9322 48.7393 22.9414C48.7105 22.9507 48.684 22.9659 48.6615 22.9861C48.6389 23.0062 48.6209 23.031 48.6086 23.0586C48.5962 23.0862 48.5898 23.1161 48.5898 23.1464C48.5898 23.1766 48.5962 23.2065 48.6086 23.2341C48.6209 23.2618 48.6389 23.2865 48.6615 23.3067C48.684 23.3268 48.7105 23.3421 48.7393 23.3513C48.7681 23.3605 48.7986 23.3636 48.8286 23.3603H50.807C50.8597 23.3545 50.9084 23.3294 50.9438 23.29C50.9791 23.2505 50.9987 23.1994 50.9987 23.1464C50.9987 23.0934 50.9791 23.0422 50.9438 23.0028C50.9084 22.9633 50.8597 22.9383 50.807 22.9324V20.5314H50.7967ZM50.3559 21.9394H49.2954V21.4493H50.3559V21.9394ZM49.2954 22.9324V22.3672H50.3559V22.9324H49.2954ZM50.3559 21.0215H49.2954V20.5314H50.3559V21.0215Z" fill="#716F6F"/>
<path d="M55.1558 19.6727C55.0991 19.6677 55.0427 19.6853 54.999 19.7218C54.9552 19.7582 54.9277 19.8105 54.9225 19.8672C54.8121 20.6486 54.5101 21.3906 54.0435 22.0271C54.0263 22.0496 54.0138 22.0753 54.0068 22.1028C53.9997 22.1302 53.9981 22.1587 54.0022 22.1867C54.0064 22.2148 54.016 22.2417 54.0307 22.2659C54.0453 22.2901 54.0647 22.3112 54.0876 22.3279C54.1242 22.3553 54.1688 22.3699 54.2146 22.3694C54.2479 22.3697 54.2807 22.3621 54.3105 22.3472C54.3402 22.3323 54.366 22.3106 54.3857 22.2838C54.5127 22.1124 54.6288 21.9331 54.7332 21.7471V24.2648C54.7299 24.2948 54.7329 24.3253 54.7422 24.3541C54.7514 24.3829 54.7666 24.4094 54.7868 24.432C54.807 24.4545 54.8317 24.4725 54.8593 24.4849C54.8869 24.4972 54.9169 24.5036 54.9471 24.5036C54.9774 24.5036 55.0073 24.4972 55.0349 24.4849C55.0625 24.4725 55.0872 24.4545 55.1074 24.432C55.1276 24.4094 55.1428 24.3829 55.152 24.3541C55.1613 24.3253 55.1643 24.2948 55.161 24.2648V20.7462C55.2519 20.4696 55.3153 20.1847 55.3503 19.8957C55.3532 19.8406 55.3345 19.7865 55.2982 19.7448C55.2619 19.7032 55.2109 19.6774 55.1558 19.6727Z" fill="#716F6F"/>
<path d="M58.7865 22.2529H57.4486V21.6902H58.4183C58.4754 21.6902 58.5301 21.6675 58.5705 21.6272C58.6109 21.5868 58.6335 21.5321 58.6335 21.475V20.1267C58.6329 20.0701 58.6099 20.016 58.5696 19.9762C58.5293 19.9364 58.475 19.9141 58.4183 19.9141H56.0484C55.9918 19.9141 55.9374 19.9364 55.8971 19.9762C55.8568 20.016 55.8339 20.0701 55.8332 20.1267V21.475C55.8332 21.5321 55.8559 21.5868 55.8962 21.6272C55.9366 21.6675 55.9913 21.6902 56.0484 21.6902H57.0181V22.2529H55.6802C55.6501 22.2496 55.6197 22.2526 55.5909 22.2619C55.5621 22.2711 55.5356 22.2863 55.513 22.3065C55.4905 22.3267 55.4725 22.3514 55.4601 22.379C55.4478 22.4066 55.4414 22.4365 55.4414 22.4668C55.4414 22.497 55.4478 22.5269 55.4601 22.5546C55.4725 22.5822 55.4905 22.6069 55.513 22.6271C55.5356 22.6473 55.5621 22.6625 55.5909 22.6717C55.6197 22.681 55.6501 22.684 55.6802 22.6807H56.8885C56.5852 23.1698 56.1551 23.5676 55.6439 23.832C55.6191 23.8453 55.5971 23.8634 55.5794 23.8852C55.5616 23.9071 55.5484 23.9322 55.5404 23.9593C55.5324 23.9863 55.5299 24.0146 55.533 24.0426C55.5361 24.0706 55.5447 24.0977 55.5583 24.1224C55.577 24.1562 55.6044 24.1845 55.6377 24.2041C55.671 24.2237 55.709 24.234 55.7476 24.2339C55.783 24.2342 55.8179 24.2253 55.8487 24.2079C56.3003 23.9696 56.6983 23.6414 57.0181 23.2434V24.2624C57.0181 24.3195 57.0408 24.3742 57.0812 24.4146C57.1215 24.4549 57.1763 24.4776 57.2334 24.4776C57.2904 24.4776 57.3452 24.4549 57.3855 24.4146C57.4259 24.3742 57.4486 24.3195 57.4486 24.2624V23.2434C57.7684 23.6414 58.1664 23.9696 58.618 24.2079C58.6488 24.2253 58.6837 24.2342 58.7191 24.2339C58.7578 24.234 58.7957 24.2237 58.829 24.2041C58.8623 24.1845 58.8898 24.1562 58.9084 24.1224C58.922 24.0977 58.9306 24.0706 58.9337 24.0426C58.9368 24.0146 58.9343 23.9863 58.9263 23.9593C58.9184 23.9322 58.9051 23.9071 58.8873 23.8852C58.8696 23.8634 58.8476 23.8453 58.8228 23.832C58.3133 23.5652 57.8838 23.1679 57.5782 22.6807H58.7865C58.8166 22.684 58.847 22.681 58.8758 22.6717C58.9046 22.6625 58.9312 22.6473 58.9537 22.6271C58.9762 22.6069 58.9943 22.5822 59.0066 22.5546C59.0189 22.5269 59.0253 22.497 59.0253 22.4668C59.0253 22.4365 59.0189 22.4066 59.0066 22.379C58.9943 22.3514 58.9762 22.3267 58.9537 22.3065C58.9312 22.2863 58.9046 22.2711 58.8758 22.2619C58.847 22.2526 58.8166 22.2496 58.7865 22.2529ZM56.2662 20.3419H58.2109V21.2624H56.2662V20.3419Z" fill="#716F6F"/>
<path d="M61.5726 22.6631C61.5845 22.4154 61.5654 22.1671 61.5155 21.9241C61.4571 21.7288 61.3393 21.5566 61.1784 21.4315C61.2852 21.1421 61.3752 20.8469 61.4481 20.5473C61.4815 20.4557 61.4946 20.358 61.4865 20.2608C61.4785 20.1637 61.4494 20.0695 61.4014 19.9846C61.3583 19.9363 61.3043 19.8988 61.2439 19.8754C61.1835 19.852 61.1184 19.8432 61.054 19.8498H60.2061C60.1495 19.8505 60.0954 19.8734 60.0556 19.9137C60.0158 19.954 59.9935 20.0084 59.9935 20.065V24.2603C59.9902 24.2904 59.9932 24.3208 60.0025 24.3496C60.0117 24.3784 60.0269 24.405 60.0471 24.4275C60.0673 24.45 60.092 24.4681 60.1196 24.4804C60.1472 24.4928 60.1771 24.4991 60.2074 24.4991C60.2377 24.4991 60.2676 24.4928 60.2952 24.4804C60.3228 24.4681 60.3475 24.45 60.3677 24.4275C60.3879 24.405 60.4031 24.3784 60.4123 24.3496C60.4216 24.3208 60.4246 24.2904 60.4213 24.2603V20.2776H61.0566C61.0547 20.3372 61.046 20.3964 61.0306 20.4539C60.9428 20.7929 60.8346 21.1263 60.7065 21.4522C60.6846 21.5071 60.6846 21.5684 60.7065 21.6233C60.7196 21.6504 60.7381 21.6744 60.7609 21.694C60.7836 21.7137 60.8101 21.7284 60.8388 21.7374C60.9037 21.7669 60.9609 21.8111 61.0059 21.8664C61.0509 21.9218 61.0824 21.9868 61.0981 22.0564C61.1299 22.2569 61.1421 22.4602 61.1344 22.6631C61.1344 22.7331 61.1188 23.052 61.1188 23.052C61.1084 23.1301 61.0679 23.201 61.0058 23.2495C60.9438 23.2979 60.8652 23.3202 60.7869 23.3113C60.7587 23.3092 60.7303 23.3128 60.7036 23.3219C60.6768 23.3311 60.6521 23.3455 60.631 23.3644C60.61 23.3833 60.5929 23.4062 60.581 23.4319C60.569 23.4575 60.5623 23.4853 60.5613 23.5136C60.5599 23.5418 60.5641 23.5701 60.5737 23.5968C60.5832 23.6234 60.5979 23.6479 60.617 23.6689C60.636 23.6898 60.659 23.7068 60.6846 23.7189C60.7102 23.7309 60.7379 23.7378 60.7662 23.7392C60.9526 23.7533 61.1373 23.6952 61.282 23.577C61.4268 23.4587 61.5206 23.2894 61.544 23.1039C61.544 23.1039 61.5726 22.7383 61.5726 22.6631Z" fill="#716F6F"/>
<path d="M64.6788 24.0536C64.6788 24.0536 63.831 23.8824 63.4835 23.2757H64.2614C64.2896 23.2757 64.3176 23.2701 64.3437 23.2593C64.3698 23.2485 64.3936 23.2326 64.4136 23.2127C64.4335 23.1927 64.4494 23.1689 64.4602 23.1428C64.471 23.1167 64.4766 23.0887 64.4766 23.0605V22.0804C64.4766 22.0521 64.471 22.0241 64.4602 21.998C64.4494 21.9719 64.4335 21.9482 64.4136 21.9282C64.3936 21.9082 64.3698 21.8923 64.3437 21.8815C64.3176 21.8707 64.2896 21.8651 64.2614 21.8651H63.3513V21.5229H64.1551C64.1851 21.5262 64.2156 21.5231 64.2444 21.5139C64.2732 21.5047 64.2997 21.4894 64.3223 21.4693C64.3448 21.4491 64.3628 21.4244 64.3751 21.3967C64.3875 21.3691 64.3939 21.3392 64.3939 21.309C64.3939 21.2787 64.3875 21.2488 64.3751 21.2212C64.3628 21.1936 64.3448 21.1688 64.3223 21.1487C64.2997 21.1285 64.2732 21.1133 64.2444 21.104C64.2156 21.0948 64.1851 21.0917 64.1551 21.095H62.0807C62.0281 21.1009 61.9794 21.1259 61.944 21.1654C61.9087 21.2048 61.8891 21.256 61.8891 21.309C61.8891 21.362 61.9087 21.4131 61.944 21.4526C61.9794 21.492 62.0281 21.5171 62.0807 21.5229H62.9131V21.8729H62.0004C61.9437 21.8736 61.8897 21.8966 61.8499 21.9369C61.8101 21.9772 61.7877 22.0315 61.7877 22.0881V23.0786C61.7877 23.1353 61.8101 23.1896 61.8499 23.2299C61.8897 23.2702 61.9437 23.2932 62.0004 23.2938H62.7782C62.4308 23.8902 61.5933 24.0717 61.5829 24.0717C61.5317 24.083 61.4864 24.1126 61.4555 24.1549C61.4246 24.1972 61.4102 24.2493 61.415 24.3015C61.4197 24.3536 61.4434 24.4023 61.4815 24.4383C61.5195 24.4743 61.5694 24.4951 61.6218 24.4969H61.6607C61.71 24.4969 62.6641 24.2999 63.1179 23.5791C63.5743 24.2999 64.5284 24.4892 64.5751 24.4969H64.6166C64.6665 24.4961 64.7146 24.4781 64.7529 24.446C64.7911 24.4139 64.8171 24.3696 64.8266 24.3206C64.8346 24.2934 64.837 24.2649 64.8339 24.2367C64.8307 24.2085 64.822 24.1812 64.8083 24.1564C64.7945 24.1315 64.776 24.1097 64.7538 24.092C64.7316 24.0744 64.7061 24.0613 64.6788 24.0536ZM64.0539 22.3008V22.866H63.3565V22.3008H64.0539ZM62.2389 22.3008H62.9364V22.866H62.2259L62.2389 22.3008Z" fill="#716F6F"/>
<path d="M70.5127 23.7777C69.9625 23.3901 69.5386 22.849 69.2941 22.2219H70.186C70.2431 22.2219 70.2978 22.1992 70.3382 22.1589C70.3786 22.1185 70.4012 22.0638 70.4012 22.0067C70.4012 21.9496 70.3786 21.8949 70.3382 21.8545C70.2978 21.8142 70.2431 21.7915 70.186 21.7915H69.237V20.814H70.0823C70.1394 20.814 70.1941 20.7913 70.2345 20.7509C70.2749 20.7106 70.2975 20.6558 70.2975 20.5988C70.2975 20.5417 70.2749 20.4869 70.2345 20.4466C70.1941 20.4062 70.1394 20.3835 70.0823 20.3835H69.237V19.865C69.2312 19.8123 69.2062 19.7636 69.1667 19.7282C69.1272 19.6929 69.0761 19.6733 69.0231 19.6733C68.9701 19.6733 68.919 19.6929 68.8795 19.7282C68.84 19.7636 68.815 19.8123 68.8092 19.865V20.3835H68.2258C68.2517 20.2118 68.2664 20.0386 68.2699 19.865C68.2699 19.8086 68.2475 19.7545 68.2076 19.7146C68.1677 19.6747 68.1136 19.6523 68.0573 19.6523C68.0006 19.6523 67.9463 19.6747 67.906 19.7145C67.8657 19.7543 67.8427 19.8083 67.842 19.865C67.8286 20.38 67.7011 20.8857 67.4687 21.3455C67.4412 21.3952 67.4343 21.4536 67.4493 21.5083C67.4643 21.5631 67.5001 21.6098 67.549 21.6385C67.5818 21.6559 67.6183 21.6648 67.6553 21.6644C67.6934 21.6646 67.7307 21.6546 67.7636 21.6355C67.7964 21.6163 67.8235 21.5887 67.842 21.5555C67.9738 21.3193 68.0732 21.0664 68.1376 20.8036H68.8092V21.7785H67.8576C67.8005 21.7785 67.7458 21.8012 67.7054 21.8416C67.6651 21.8819 67.6424 21.9367 67.6424 21.9937C67.6424 22.0508 67.6651 22.1056 67.7054 22.1459C67.7458 22.1863 67.8005 22.209 67.8576 22.209H68.7496C68.5041 22.8355 68.0804 23.3763 67.5309 23.7647C67.5073 23.7799 67.4869 23.7997 67.471 23.8228C67.4551 23.846 67.4439 23.872 67.4382 23.8995C67.4324 23.927 67.4321 23.9554 67.4373 23.983C67.4426 24.0106 67.4532 24.0368 67.4687 24.0603C67.4876 24.0906 67.514 24.1155 67.5453 24.1328C67.5766 24.15 67.6118 24.159 67.6476 24.1588C67.69 24.1583 67.7313 24.1457 67.7668 24.1225C68.181 23.8294 68.5334 23.4576 68.804 23.0283V24.247C68.8007 24.2771 68.8038 24.3075 68.813 24.3363C68.8222 24.3651 68.8374 24.3916 68.8576 24.4142C68.8778 24.4367 68.9025 24.4547 68.9301 24.4671C68.9578 24.4794 68.9877 24.4858 69.0179 24.4858C69.0482 24.4858 69.0781 24.4794 69.1057 24.4671C69.1333 24.4547 69.158 24.4367 69.1782 24.4142C69.1984 24.3916 69.2136 24.3651 69.2229 24.3363C69.2321 24.3075 69.2352 24.2771 69.2318 24.247V23.0283C69.5016 23.4582 69.8542 23.8301 70.269 24.1225C70.3045 24.1457 70.3459 24.1583 70.3883 24.1588C70.4342 24.1582 70.4787 24.1429 70.5153 24.1152C70.5519 24.0875 70.5787 24.0488 70.5917 24.0047C70.6048 23.9607 70.6034 23.9136 70.5878 23.8705C70.5722 23.8273 70.5431 23.7902 70.505 23.7647L70.5127 23.7777Z" fill="#716F6F"/>
<path d="M67.2204 20.8156C67.2774 20.8156 67.3322 20.793 67.3725 20.7526C67.4129 20.7122 67.4356 20.6575 67.4356 20.6004C67.4356 20.5433 67.4129 20.4886 67.3725 20.4482C67.3322 20.4079 67.2774 20.3852 67.2204 20.3852H66.7018V19.9185C66.7051 19.8884 66.702 19.858 66.6928 19.8292C66.6836 19.8004 66.6683 19.7738 66.6482 19.7513C66.628 19.7288 66.6033 19.7107 66.5756 19.6984C66.548 19.6861 66.5181 19.6797 66.4879 19.6797C66.4576 19.6797 66.4277 19.6861 66.4001 19.6984C66.3725 19.7107 66.3477 19.7288 66.3276 19.7513C66.3074 19.7738 66.2922 19.8004 66.2829 19.8292C66.2737 19.858 66.2706 19.8884 66.2739 19.9185V20.3852H65.7554C65.6983 20.3852 65.6435 20.4079 65.6032 20.4482C65.5628 20.4886 65.5401 20.5433 65.5401 20.6004C65.5401 20.6575 65.5628 20.7122 65.6032 20.7526C65.6435 20.793 65.6983 20.8156 65.7554 20.8156H66.2739V21.1657C66.2739 21.2331 66.1573 22.4907 65.4805 23.2193C65.4404 23.2596 65.418 23.3141 65.418 23.371C65.418 23.4278 65.4404 23.4823 65.4805 23.5226C65.5003 23.5428 65.5239 23.5588 65.55 23.5697C65.576 23.5806 65.604 23.5863 65.6322 23.5863C65.6604 23.5863 65.6884 23.5806 65.7144 23.5697C65.7405 23.5588 65.7641 23.5428 65.7839 23.5226C65.9787 23.3085 66.1404 23.0664 66.2636 22.8044V24.2746C66.2603 24.3047 66.2633 24.3351 66.2726 24.3639C66.2818 24.3927 66.297 24.4192 66.3172 24.4418C66.3374 24.4643 66.3621 24.4823 66.3897 24.4947C66.4173 24.507 66.4472 24.5134 66.4775 24.5134C66.5077 24.5134 66.5377 24.507 66.5653 24.4947C66.5929 24.4823 66.6176 24.4643 66.6378 24.4418C66.658 24.4192 66.6732 24.3927 66.6824 24.3639C66.6917 24.3351 66.6947 24.3047 66.6914 24.2746V22.0136L66.9507 22.2884C66.991 22.3285 67.0455 22.351 67.1024 22.351C67.1592 22.351 67.2137 22.3285 67.2541 22.2884C67.2941 22.2481 67.3166 22.1936 67.3166 22.1367C67.3166 22.0799 67.2941 22.0254 67.2541 21.985L66.6784 21.3913V20.8156H67.2204Z" fill="#716F6F"/>
<path d="M74.8223 21.1212V20.8282H75.9035C75.964 20.8282 76.0221 20.8042 76.0649 20.7614C76.1076 20.7186 76.1317 20.6606 76.1317 20.6C76.1317 20.5395 76.1076 20.4815 76.0649 20.4387C76.0221 20.3959 75.964 20.3719 75.9035 20.3719H75.8335V19.9181C75.8335 19.861 75.8108 19.8063 75.7705 19.7659C75.7301 19.7256 75.6754 19.7029 75.6183 19.7029C75.5612 19.7029 75.5065 19.7256 75.4661 19.7659C75.4257 19.8063 75.4031 19.861 75.4031 19.9181V20.3719H74.8223V19.8766C74.8223 19.8161 74.7982 19.7581 74.7554 19.7153C74.7126 19.6725 74.6546 19.6484 74.5941 19.6484C74.5336 19.6484 74.4755 19.6725 74.4327 19.7153C74.3899 19.7581 74.3659 19.8161 74.3659 19.8766V20.3719H71.5993C71.5388 20.3719 71.4807 20.3959 71.4379 20.4387C71.3951 20.4815 71.3711 20.5395 71.3711 20.6C71.3711 20.6606 71.3951 20.7186 71.4379 20.7614C71.4807 20.8042 71.5388 20.8282 71.5993 20.8282H74.3659V21.1212C74.3659 21.8628 74.7289 23.7271 75.8076 24.4505C75.8324 24.4675 75.8604 24.4795 75.8899 24.4857C75.9194 24.4919 75.9498 24.4923 75.9794 24.4867C76.009 24.4812 76.0372 24.4699 76.0625 24.4534C76.0877 24.437 76.1095 24.4157 76.1265 24.3909C76.1435 24.366 76.1555 24.3381 76.1617 24.3086C76.1679 24.2791 76.1683 24.2487 76.1627 24.2191C76.1572 24.1894 76.1459 24.1612 76.1294 24.136C76.113 24.1107 76.0917 24.089 76.0669 24.0719C75.1956 23.4937 74.8223 21.8369 74.8223 21.1212Z" fill="#716F6F"/>
<path d="M73.8746 23.2123C73.5991 23.3699 73.3102 23.5026 73.0112 23.609V22.1751H73.8539C73.9144 22.1751 73.9724 22.1511 74.0152 22.1083C74.058 22.0655 74.0821 22.0074 74.0821 21.9469C74.0821 21.8864 74.058 21.8284 74.0152 21.7856C73.9724 21.7428 73.9144 21.7188 73.8539 21.7188H71.668C71.6075 21.7188 71.5495 21.7428 71.5067 21.7856C71.4639 21.8284 71.4399 21.8864 71.4399 21.9469C71.4399 22.0074 71.4639 22.0655 71.5067 22.1083C71.5495 22.1511 71.6075 22.1751 71.668 22.1751H72.5548V23.7594C72.2476 23.8505 71.935 23.9224 71.6188 23.9746C71.5889 23.9787 71.5602 23.9887 71.5342 24.004C71.5083 24.0193 71.4856 24.0396 71.4675 24.0637C71.4494 24.0878 71.4363 24.1153 71.4289 24.1445C71.4215 24.1737 71.4199 24.2041 71.4243 24.2339C71.4323 24.2882 71.4594 24.3379 71.5008 24.374C71.5421 24.4101 71.595 24.4303 71.6499 24.4309H71.6836C72.5308 24.2978 73.349 24.0207 74.1028 23.6116C74.1307 23.5977 74.1556 23.5783 74.1757 23.5544C74.1958 23.5306 74.2109 23.5029 74.2199 23.473C74.2289 23.4431 74.2317 23.4117 74.228 23.3808C74.2244 23.3498 74.2145 23.3198 74.1989 23.2928C74.1832 23.2658 74.1622 23.2423 74.1372 23.2238C74.1121 23.2052 74.0835 23.192 74.0531 23.1849C74.0227 23.1779 73.9912 23.1771 73.9605 23.1827C73.9298 23.1883 73.9006 23.2001 73.8746 23.2175V23.2123Z" fill="#716F6F"/>
<path d="M81.2791 21.0449C80.5081 20.825 79.8173 20.3864 79.2903 19.7822C79.2686 19.754 79.2407 19.7312 79.2088 19.7155C79.1769 19.6997 79.1418 19.6915 79.1062 19.6914C79.0709 19.6911 79.0361 19.6992 79.0045 19.7149C78.973 19.7307 78.9456 19.7538 78.9247 19.7822C78.3955 20.385 77.7043 20.8233 76.9333 21.0449C76.876 21.0634 76.8282 21.1036 76.8001 21.1569C76.772 21.2102 76.7658 21.2724 76.783 21.3301C76.7915 21.3589 76.8058 21.3857 76.8248 21.4089C76.8439 21.4321 76.8674 21.4513 76.8939 21.4653C76.9205 21.4793 76.9496 21.4879 76.9795 21.4905C77.0094 21.4931 77.0396 21.4897 77.0682 21.4805C77.8385 21.2519 78.5392 20.8338 79.1062 20.2644C79.6774 20.835 80.3826 21.2531 81.1572 21.4805C81.1795 21.4841 81.2023 21.4841 81.2246 21.4805C81.2733 21.4805 81.3207 21.4649 81.3599 21.4359C81.3991 21.407 81.428 21.3663 81.4424 21.3198C81.456 21.2617 81.4465 21.2007 81.4161 21.1495C81.3856 21.0982 81.3365 21.0608 81.2791 21.0449Z" fill="#716F6F"/>
<path d="M80.4634 21.9121C80.4952 21.9155 80.5274 21.9122 80.5579 21.9023C80.5883 21.8925 80.6164 21.8763 80.6402 21.8549C80.664 21.8335 80.683 21.8074 80.6961 21.7781C80.7091 21.7489 80.7158 21.7172 80.7158 21.6852C80.7158 21.6532 80.7091 21.6215 80.6961 21.5923C80.683 21.5631 80.664 21.5369 80.6402 21.5155C80.6164 21.4941 80.5883 21.4779 80.5579 21.4681C80.5274 21.4582 80.4952 21.4549 80.4634 21.4583H77.7564C77.7245 21.4549 77.6923 21.4582 77.6619 21.4681C77.6314 21.4779 77.6034 21.4941 77.5796 21.5155C77.5558 21.5369 77.5367 21.5631 77.5237 21.5923C77.5106 21.6215 77.5039 21.6532 77.5039 21.6852C77.5039 21.7172 77.5106 21.7489 77.5237 21.7781C77.5367 21.8074 77.5558 21.8335 77.5796 21.8549C77.6034 21.8763 77.6314 21.8925 77.6619 21.9023C77.6923 21.9122 77.7245 21.9155 77.7564 21.9121H80.4634Z" fill="#716F6F"/>
<path d="M81.1325 22.4922H77.0876C77.027 22.4922 76.969 22.5162 76.9262 22.559C76.8834 22.6018 76.8594 22.6598 76.8594 22.7203C76.8594 22.7808 76.8834 22.8389 76.9262 22.8817C76.969 22.9245 77.027 22.9485 77.0876 22.9485H77.8395C77.5439 23.5552 77.2716 24.0946 77.2691 24.0998C77.2511 24.1319 77.2417 24.168 77.2417 24.2048C77.2417 24.2415 77.2511 24.2777 77.2691 24.3098C77.2881 24.3408 77.3148 24.3663 77.3466 24.384C77.3784 24.4017 77.4142 24.411 77.4506 24.4109H77.4713C77.7176 24.4109 79.7038 24.4109 80.6217 24.0064C80.7099 24.1205 80.8032 24.2476 80.8965 24.385C80.9158 24.4143 80.9419 24.4383 80.9727 24.4551C81.0034 24.4718 81.0378 24.4807 81.0729 24.4809C81.1153 24.4804 81.1566 24.4678 81.1921 24.4446C81.239 24.4125 81.2715 24.3634 81.2826 24.3077C81.2937 24.2519 81.2827 24.1941 81.2518 24.1464C81.0312 23.8218 80.7877 23.5133 80.5232 23.2234C80.4833 23.1864 80.4309 23.166 80.3765 23.1661C80.3221 23.1662 80.2698 23.1869 80.2301 23.224C80.1904 23.2611 80.1661 23.3119 80.1623 23.3661C80.1585 23.4204 80.1753 23.474 80.2094 23.5164C80.2546 23.5612 80.2971 23.6089 80.3365 23.659C79.6519 23.9027 78.4073 23.9623 77.8006 23.9779C77.9302 23.7186 78.1195 23.3374 78.3192 22.9407H81.1351C81.1956 22.9407 81.2536 22.9167 81.2964 22.8739C81.3392 22.8311 81.3633 22.7731 81.3633 22.7126C81.3633 22.652 81.3392 22.594 81.2964 22.5512C81.2536 22.5084 81.1956 22.4844 81.1351 22.4844L81.1325 22.4922Z" fill="#716F6F"/>
<path d="M84.036 23.0918C84.0654 23.0921 84.0945 23.0865 84.1216 23.0754C84.1488 23.0642 84.1734 23.0478 84.1942 23.027C84.2155 23.006 84.2324 22.981 84.244 22.9534C84.2555 22.9258 84.2615 22.8962 84.2615 22.8662C84.2615 22.8363 84.2555 22.8067 84.244 22.7791C84.2324 22.7515 84.2155 22.7265 84.1942 22.7055L83.5174 22.0106C83.7997 21.5945 84.0255 21.1429 84.189 20.6675C84.1991 20.6334 84.2014 20.5975 84.1955 20.5624C84.1897 20.5274 84.1759 20.4941 84.1553 20.4652C84.1341 20.4363 84.1064 20.4127 84.0744 20.3965C84.0424 20.3803 84.007 20.3719 83.9712 20.3719H83.4526V19.8766C83.4526 19.8161 83.4286 19.7581 83.3858 19.7153C83.343 19.6725 83.2849 19.6484 83.2244 19.6484C83.1639 19.6484 83.1059 19.6725 83.0631 19.7153C83.0203 19.7581 82.9962 19.8161 82.9962 19.8766V20.3719H82.4543C82.3938 20.3719 82.3358 20.3959 82.293 20.4387C82.2502 20.4815 82.2261 20.5395 82.2261 20.6C82.2261 20.6606 82.2502 20.7186 82.293 20.7614C82.3358 20.8042 82.3938 20.8282 82.4543 20.8282H83.6574C83.3318 21.6146 82.8159 22.3078 82.1561 22.8455C82.108 22.8823 82.0764 22.9367 82.0684 22.9968C82.0604 23.0568 82.0766 23.1176 82.1133 23.1657C82.1501 23.2139 82.2046 23.2454 82.2646 23.2534C82.3247 23.2615 82.3854 23.2453 82.4336 23.2085C82.6413 23.0474 82.8347 22.8687 83.0118 22.6744V24.2612C83.0118 24.3217 83.0358 24.3798 83.0786 24.4226C83.1214 24.4654 83.1795 24.4894 83.24 24.4894C83.3005 24.4894 83.3585 24.4654 83.4013 24.4226C83.4441 24.3798 83.4681 24.3217 83.4681 24.2612V22.594L83.8856 23.0218C83.9249 23.0636 83.9787 23.0887 84.036 23.0918Z" fill="#716F6F"/>
<path d="M86.803 23.9267H85.7477V21.5931H86.5255C86.586 21.5931 86.6441 21.5691 86.6869 21.5263C86.7297 21.4835 86.7537 21.4255 86.7537 21.3649C86.7537 21.3044 86.7297 21.2464 86.6869 21.2036C86.6441 21.1608 86.586 21.1368 86.5255 21.1368H85.7477V19.8766C85.7477 19.8161 85.7236 19.7581 85.6808 19.7153C85.638 19.6725 85.58 19.6484 85.5195 19.6484C85.459 19.6484 85.4009 19.6725 85.3581 19.7153C85.3153 19.7581 85.2913 19.8161 85.2913 19.8766V21.1497H84.5134C84.4529 21.1497 84.3949 21.1738 84.3521 21.2166C84.3093 21.2594 84.2852 21.3174 84.2852 21.3779C84.2852 21.4384 84.3093 21.4965 84.3521 21.5393C84.3949 21.582 84.4529 21.6061 84.5134 21.6061H85.2913V23.9397H84.236C84.1755 23.9397 84.1174 23.9637 84.0746 24.0065C84.0319 24.0493 84.0078 24.1074 84.0078 24.1679C84.0078 24.2284 84.0319 24.2864 84.0746 24.3292C84.1174 24.372 84.1755 24.3961 84.236 24.3961H86.803C86.8635 24.3961 86.9215 24.372 86.9643 24.3292C87.0071 24.2864 87.0312 24.2284 87.0312 24.1679C87.0312 24.1074 87.0071 24.0493 86.9643 24.0065C86.9215 23.9637 86.8635 23.9397 86.803 23.9397V23.9267Z" fill="#716F6F"/>
<path d="M61.8258 20.9666C62.3205 20.8139 62.7724 20.5475 63.1456 20.1888C63.5199 20.5475 63.9727 20.8138 64.468 20.9666C64.496 20.9775 64.5259 20.9824 64.5558 20.9811C64.5858 20.9797 64.6151 20.9721 64.642 20.9587C64.6688 20.9454 64.6926 20.9265 64.7117 20.9035C64.7309 20.8804 64.745 20.8535 64.7532 20.8247C64.7613 20.7958 64.7634 20.7656 64.7592 20.7359C64.755 20.7062 64.7446 20.6777 64.7287 20.6523C64.7129 20.6268 64.6919 20.605 64.6671 20.5881C64.6423 20.5712 64.6142 20.5597 64.5847 20.5544C64.097 20.3933 63.6575 20.1125 63.3064 19.7376C63.2858 19.7156 63.2609 19.6981 63.2332 19.6861C63.2056 19.6741 63.1758 19.668 63.1456 19.668C63.1155 19.668 63.0857 19.6741 63.058 19.6861C63.0304 19.6981 63.0055 19.7156 62.9849 19.7376C62.6364 20.1132 62.1984 20.3942 61.7118 20.5544C61.6822 20.5597 61.6542 20.5712 61.6294 20.5881C61.6046 20.605 61.5836 20.6268 61.5677 20.6523C61.5519 20.6777 61.5415 20.7062 61.5373 20.7359C61.5331 20.7656 61.5351 20.7958 61.5433 20.8247C61.5515 20.8535 61.5656 20.8804 61.5847 20.9035C61.6039 20.9265 61.6276 20.9454 61.6545 20.9587C61.6813 20.9721 61.7107 20.9797 61.7406 20.9811C61.7706 20.9824 61.8005 20.9775 61.8284 20.9666H61.8258Z" fill="#716F6F"/>
</svg>
