<svg width="309" height="5" viewBox="0 0 309 5" fill="none" xmlns="http://www.w3.org/2000/svg">
<path d="M1.42969 2.5C3.51691 0.5 5.60414 0.5 7.69137 2.5C9.7786 4.5 11.8658 4.5 13.9531 2.5C16.0403 0.5 18.1275 0.5 20.2147 2.5C22.302 4.5 24.3892 4.5 26.4764 2.5C28.5636 0.5 30.6509 0.5 32.7381 2.5C34.8253 4.5 36.9126 4.5 38.9998 2.5C41.087 0.5 43.1742 0.5 45.2615 2.5C47.3487 4.5 49.4359 4.5 51.5231 2.5C53.6104 0.5 55.6976 0.5 57.7848 2.5C59.8721 4.5 61.9593 4.5 64.0465 2.5C66.1337 0.5 68.221 0.5 70.3082 2.5C72.3954 4.5 74.4826 4.5 76.5699 2.5C78.6571 0.5 80.7443 0.5 82.8316 2.5C84.9188 4.5 87.006 4.5 89.0932 2.5C91.1805 0.5 93.2677 0.5 95.3549 2.5C97.4421 4.5 99.5294 4.5 101.617 2.5C103.704 0.5 105.791 0.5 107.878 2.5C109.966 4.5 112.053 4.5 114.14 2.5C116.227 0.5 118.314 0.5 120.402 2.5C122.489 4.5 124.576 4.5 126.663 2.5C128.751 0.5 130.838 0.5 132.925 2.5C135.012 4.5 137.099 4.5 139.187 2.5C141.274 0.5 143.361 0.5 145.448 2.5C147.536 4.5 149.623 4.5 151.71 2.5C153.797 0.5 155.885 0.5 157.972 2.5C160.059 4.5 162.146 4.5 164.233 2.5C166.321 0.5 168.408 0.5 170.495 2.5C172.582 4.5 174.67 4.5 176.757 2.5C178.844 0.5 180.931 0.5 183.018 2.5C185.106 4.5 187.193 4.5 189.28 2.5C191.367 0.5 193.455 0.5 195.542 2.5C197.629 4.5 199.716 4.5 201.804 2.5C203.891 0.5 205.978 0.5 208.065 2.5C210.152 4.5 212.24 4.5 214.327 2.5C216.414 0.5 218.501 0.5 220.589 2.5C222.676 4.5 224.763 4.5 226.85 2.5C228.937 0.5 231.025 0.5 233.112 2.5C235.199 4.5 237.286 4.5 239.374 2.5C241.461 0.5 243.548 0.5 245.635 2.5C247.723 4.5 249.81 4.5 251.897 2.5C253.984 0.5 256.071 0.5 258.159 2.5C260.246 4.5 262.333 4.5 264.42 2.5C266.508 0.5 268.595 0.5 270.682 2.5C272.769 4.5 274.856 4.5 276.944 2.5C279.031 0.5 281.118 0.5 283.205 2.5C285.293 4.5 287.38 4.5 289.467 2.5C291.554 0.5 293.642 0.5 295.729 2.5C297.816 4.5 299.903 4.5 301.99 2.5C304.078 0.5 306.165 0.5 308.252 2.5" stroke="#5FBBB5" stroke-linecap="round"/>
</svg>
