<svg width="768" height="693" viewBox="0 0 768 693" fill="none" xmlns="http://www.w3.org/2000/svg">
<rect width="768" height="693" fill="#44ABA6" fill-opacity="0.1"/>
<mask id="mask0" mask-type="alpha" maskUnits="userSpaceOnUse" x="0" y="0" width="768" height="693">
<path d="M0 0H768V693H0V0Z" fill="#C4C4C4"/>
</mask>
<g mask="url(#mask0)">
<line y1="-0.5" x2="942.183" y2="-0.5" transform="matrix(0.499903 0.866082 -0.499903 0.866082 -435 -32.9141)" stroke="white"/>
<line y1="-0.5" x2="942.183" y2="-0.5" transform="matrix(0.499903 0.866082 -0.499903 0.866082 -425 -32.9141)" stroke="white"/>
<line y1="-0.5" x2="942.183" y2="-0.5" transform="matrix(0.499903 0.866082 -0.499903 0.866082 -415 -32.9141)" stroke="white"/>
<line y1="-0.5" x2="942.183" y2="-0.5" transform="matrix(0.499903 0.866082 -0.499903 0.866082 -405 -32.9141)" stroke="white"/>
<line y1="-0.5" x2="942.183" y2="-0.5" transform="matrix(0.499903 0.866082 -0.499903 0.866082 -395 -32.9141)" stroke="white"/>
<line y1="-0.5" x2="942.183" y2="-0.5" transform="matrix(0.499903 0.866082 -0.499903 0.866082 -385 -32.9141)" stroke="white"/>
<line y1="-0.5" x2="942.183" y2="-0.5" transform="matrix(0.499903 0.866082 -0.499903 0.866082 -375 -32.9141)" stroke="white"/>
<line y1="-0.5" x2="942.183" y2="-0.5" transform="matrix(0.499903 0.866082 -0.499903 0.866082 -365 -32.9141)" stroke="white"/>
<line y1="-0.5" x2="942.183" y2="-0.5" transform="matrix(0.499903 0.866082 -0.499903 0.866082 -355 -32.9141)" stroke="white"/>
<line y1="-0.5" x2="942.183" y2="-0.5" transform="matrix(0.499903 0.866082 -0.499903 0.866082 -345 -32.9141)" stroke="white"/>
<line y1="-0.5" x2="942.183" y2="-0.5" transform="matrix(0.499903 0.866082 -0.499903 0.866082 -335 -32.9141)" stroke="white"/>
<line y1="-0.5" x2="942.183" y2="-0.5" transform="matrix(0.499903 0.866082 -0.499903 0.866082 -325 -32.9141)" stroke="white"/>
<line y1="-0.5" x2="942.183" y2="-0.5" transform="matrix(0.499903 0.866082 -0.499903 0.866082 -315 -32.9141)" stroke="white"/>
<line y1="-0.5" x2="942.183" y2="-0.5" transform="matrix(0.499903 0.866082 -0.499903 0.866082 -305 -32.9141)" stroke="white"/>
<line y1="-0.5" x2="942.183" y2="-0.5" transform="matrix(0.499903 0.866082 -0.499903 0.866082 -295 -32.9141)" stroke="white"/>
<line y1="-0.5" x2="942.183" y2="-0.5" transform="matrix(0.499903 0.866082 -0.499903 0.866082 -285 -32.9141)" stroke="white"/>
<line y1="-0.5" x2="942.183" y2="-0.5" transform="matrix(0.499903 0.866082 -0.499903 0.866082 -275 -32.9141)" stroke="white"/>
<line y1="-0.5" x2="942.183" y2="-0.5" transform="matrix(0.499903 0.866082 -0.499903 0.866082 -265 -32.9141)" stroke="white"/>
<line y1="-0.5" x2="942.183" y2="-0.5" transform="matrix(0.499903 0.866082 -0.499903 0.866082 -255 -32.9141)" stroke="white"/>
<line y1="-0.5" x2="942.183" y2="-0.5" transform="matrix(0.499903 0.866082 -0.499903 0.866082 -245 -32.9141)" stroke="white"/>
<line y1="-0.5" x2="942.183" y2="-0.5" transform="matrix(0.499903 0.866082 -0.499903 0.866082 -235 -32.9141)" stroke="white"/>
<line y1="-0.5" x2="942.183" y2="-0.5" transform="matrix(0.499903 0.866082 -0.499903 0.866082 -225 -32.9141)" stroke="white"/>
<line y1="-0.5" x2="942.183" y2="-0.5" transform="matrix(0.499903 0.866082 -0.499903 0.866082 -215 -32.9141)" stroke="white"/>
<line y1="-0.5" x2="942.183" y2="-0.5" transform="matrix(0.499903 0.866082 -0.499903 0.866082 -205 -32.9141)" stroke="white"/>
<line y1="-0.5" x2="942.183" y2="-0.5" transform="matrix(0.499903 0.866082 -0.499903 0.866082 -195 -32.9141)" stroke="white"/>
<line y1="-0.5" x2="942.183" y2="-0.5" transform="matrix(0.499903 0.866082 -0.499903 0.866082 -185 -32.9141)" stroke="white"/>
<line y1="-0.5" x2="942.183" y2="-0.5" transform="matrix(0.499903 0.866082 -0.499903 0.866082 -175 -32.9141)" stroke="white"/>
<line y1="-0.5" x2="942.183" y2="-0.5" transform="matrix(0.499903 0.866082 -0.499903 0.866082 -165 -32.9141)" stroke="white"/>
<line y1="-0.5" x2="942.183" y2="-0.5" transform="matrix(0.499903 0.866082 -0.499903 0.866082 -155 -32.9141)" stroke="white"/>
<line y1="-0.5" x2="942.183" y2="-0.5" transform="matrix(0.499903 0.866082 -0.499903 0.866082 -145 -32.9141)" stroke="white"/>
<line y1="-0.5" x2="942.183" y2="-0.5" transform="matrix(0.499903 0.866082 -0.499903 0.866082 -135 -32.9141)" stroke="white"/>
<line y1="-0.5" x2="942.183" y2="-0.5" transform="matrix(0.499903 0.866082 -0.499903 0.866082 -125 -32.9141)" stroke="white"/>
<line y1="-0.5" x2="942.183" y2="-0.5" transform="matrix(0.499903 0.866082 -0.499903 0.866082 -115 -32.9141)" stroke="white"/>
<line y1="-0.5" x2="942.183" y2="-0.5" transform="matrix(0.499903 0.866082 -0.499903 0.866082 -105 -32.9141)" stroke="white"/>
<line y1="-0.5" x2="942.183" y2="-0.5" transform="matrix(0.499903 0.866082 -0.499903 0.866082 -95 -32.9141)" stroke="white"/>
<line y1="-0.5" x2="942.183" y2="-0.5" transform="matrix(0.499903 0.866082 -0.499903 0.866082 -85 -32.9141)" stroke="white"/>
<line y1="-0.5" x2="942.183" y2="-0.5" transform="matrix(0.499903 0.866082 -0.499903 0.866082 -75 -32.9141)" stroke="white"/>
<line y1="-0.5" x2="942.183" y2="-0.5" transform="matrix(0.499903 0.866082 -0.499903 0.866082 -65 -32.9141)" stroke="white"/>
<line y1="-0.5" x2="942.183" y2="-0.5" transform="matrix(0.499903 0.866082 -0.499903 0.866082 -55 -32.9141)" stroke="white"/>
<line y1="-0.5" x2="942.183" y2="-0.5" transform="matrix(0.499903 0.866082 -0.499903 0.866082 -45 -32.9141)" stroke="white"/>
<line y1="-0.5" x2="942.183" y2="-0.5" transform="matrix(0.499903 0.866082 -0.499903 0.866082 -35 -32.9141)" stroke="white"/>
<line y1="-0.5" x2="942.183" y2="-0.5" transform="matrix(0.499903 0.866082 -0.499903 0.866082 -25 -32.9141)" stroke="white"/>
<line y1="-0.5" x2="942.183" y2="-0.5" transform="matrix(0.499903 0.866082 -0.499903 0.866082 -15 -32.9141)" stroke="white"/>
<line y1="-0.5" x2="942.183" y2="-0.5" transform="matrix(0.499903 0.866082 -0.499903 0.866082 -5 -32.9141)" stroke="white"/>
<line y1="-0.5" x2="942.183" y2="-0.5" transform="matrix(0.499903 0.866082 -0.499903 0.866082 5 -32.9141)" stroke="white"/>
<line y1="-0.5" x2="942.183" y2="-0.5" transform="matrix(0.499903 0.866082 -0.499903 0.866082 15 -32.9141)" stroke="white"/>
<line y1="-0.5" x2="942.183" y2="-0.5" transform="matrix(0.499903 0.866082 -0.499903 0.866082 25 -32.9141)" stroke="white"/>
<line y1="-0.5" x2="942.183" y2="-0.5" transform="matrix(0.499903 0.866082 -0.499903 0.866082 35 -32.9141)" stroke="white"/>
<line y1="-0.5" x2="942.183" y2="-0.5" transform="matrix(0.499903 0.866082 -0.499903 0.866082 45 -32.9141)" stroke="white"/>
<line y1="-0.5" x2="942.183" y2="-0.5" transform="matrix(0.499903 0.866082 -0.499903 0.866082 55 -32.9141)" stroke="white"/>
<line y1="-0.5" x2="942.183" y2="-0.5" transform="matrix(0.499903 0.866082 -0.499903 0.866082 65 -32.9141)" stroke="white"/>
<line y1="-0.5" x2="942.183" y2="-0.5" transform="matrix(0.499903 0.866082 -0.499903 0.866082 75 -32.9141)" stroke="white"/>
<line y1="-0.5" x2="942.183" y2="-0.5" transform="matrix(0.499903 0.866082 -0.499903 0.866082 85 -32.9141)" stroke="white"/>
<line y1="-0.5" x2="942.183" y2="-0.5" transform="matrix(0.499903 0.866082 -0.499903 0.866082 95 -32.9141)" stroke="white"/>
<line y1="-0.5" x2="942.183" y2="-0.5" transform="matrix(0.499903 0.866082 -0.499903 0.866082 105 -32.9141)" stroke="white"/>
<line y1="-0.5" x2="942.183" y2="-0.5" transform="matrix(0.499903 0.866082 -0.499903 0.866082 115 -32.9141)" stroke="white"/>
<line y1="-0.5" x2="942.183" y2="-0.5" transform="matrix(0.499903 0.866082 -0.499903 0.866082 125 -32.9141)" stroke="white"/>
<line y1="-0.5" x2="942.183" y2="-0.5" transform="matrix(0.499903 0.866082 -0.499903 0.866082 135 -32.9141)" stroke="white"/>
<line y1="-0.5" x2="942.183" y2="-0.5" transform="matrix(0.499903 0.866082 -0.499903 0.866082 145 -32.9141)" stroke="white"/>
<line y1="-0.5" x2="942.183" y2="-0.5" transform="matrix(0.499903 0.866082 -0.499903 0.866082 155 -32.9141)" stroke="white"/>
<line y1="-0.5" x2="942.183" y2="-0.5" transform="matrix(0.499903 0.866082 -0.499903 0.866082 165 -32.9141)" stroke="white"/>
<line y1="-0.5" x2="942.183" y2="-0.5" transform="matrix(0.499903 0.866082 -0.499903 0.866082 175 -32.9141)" stroke="white"/>
<line y1="-0.5" x2="942.183" y2="-0.5" transform="matrix(0.499903 0.866082 -0.499903 0.866082 185 -32.9141)" stroke="white"/>
<line y1="-0.5" x2="942.183" y2="-0.5" transform="matrix(0.499903 0.866082 -0.499903 0.866082 195 -32.9141)" stroke="white"/>
<line y1="-0.5" x2="942.183" y2="-0.5" transform="matrix(0.499903 0.866082 -0.499903 0.866082 205 -32.9141)" stroke="white"/>
<line y1="-0.5" x2="942.183" y2="-0.5" transform="matrix(0.499903 0.866082 -0.499903 0.866082 215 -32.9141)" stroke="white"/>
<line y1="-0.5" x2="942.183" y2="-0.5" transform="matrix(0.499903 0.866082 -0.499903 0.866082 225 -32.9141)" stroke="white"/>
<line y1="-0.5" x2="942.183" y2="-0.5" transform="matrix(0.499903 0.866082 -0.499903 0.866082 235 -32.9141)" stroke="white"/>
<line y1="-0.5" x2="942.183" y2="-0.5" transform="matrix(0.499903 0.866082 -0.499903 0.866082 245 -32.9141)" stroke="white"/>
<line y1="-0.5" x2="942.183" y2="-0.5" transform="matrix(0.499903 0.866082 -0.499903 0.866082 255 -32.9141)" stroke="white"/>
<line y1="-0.5" x2="942.183" y2="-0.5" transform="matrix(0.499903 0.866082 -0.499903 0.866082 265 -32.9141)" stroke="white"/>
<line y1="-0.5" x2="942.183" y2="-0.5" transform="matrix(0.499903 0.866082 -0.499903 0.866082 275 -32.9141)" stroke="white"/>
<line y1="-0.5" x2="942.183" y2="-0.5" transform="matrix(0.499903 0.866082 -0.499903 0.866082 285 -32.9141)" stroke="white"/>
<line y1="-0.5" x2="942.183" y2="-0.5" transform="matrix(0.499903 0.866082 -0.499903 0.866082 295 -32.9141)" stroke="white"/>
<line y1="-0.5" x2="942.183" y2="-0.5" transform="matrix(0.499903 0.866082 -0.499903 0.866082 305 -32.9141)" stroke="white"/>
<line y1="-0.5" x2="942.183" y2="-0.5" transform="matrix(0.499903 0.866082 -0.499903 0.866082 315 -32.9141)" stroke="white"/>
<line y1="-0.5" x2="942.183" y2="-0.5" transform="matrix(0.499903 0.866082 -0.499903 0.866082 325 -32.9141)" stroke="white"/>
<line y1="-0.5" x2="942.183" y2="-0.5" transform="matrix(0.499903 0.866082 -0.499903 0.866082 335 -32.9141)" stroke="white"/>
<line y1="-0.5" x2="942.183" y2="-0.5" transform="matrix(0.499903 0.866082 -0.499903 0.866082 345 -32.9141)" stroke="white"/>
<line y1="-0.5" x2="942.183" y2="-0.5" transform="matrix(0.499903 0.866082 -0.499903 0.866082 355 -32.9141)" stroke="white"/>
<line y1="-0.5" x2="942.183" y2="-0.5" transform="matrix(0.499903 0.866082 -0.499903 0.866082 365 -32.9141)" stroke="white"/>
<line y1="-0.5" x2="942.183" y2="-0.5" transform="matrix(0.499903 0.866082 -0.499903 0.866082 375 -32.9141)" stroke="white"/>
<line y1="-0.5" x2="942.183" y2="-0.5" transform="matrix(0.499903 0.866082 -0.499903 0.866082 385 -32.9141)" stroke="white"/>
<line y1="-0.5" x2="942.183" y2="-0.5" transform="matrix(0.499903 0.866082 -0.499903 0.866082 395 -32.9141)" stroke="white"/>
<line y1="-0.5" x2="942.183" y2="-0.5" transform="matrix(0.499903 0.866082 -0.499903 0.866082 405 -32.9141)" stroke="white"/>
<line y1="-0.5" x2="942.183" y2="-0.5" transform="matrix(0.499903 0.866082 -0.499903 0.866082 415 -32.9141)" stroke="white"/>
<line y1="-0.5" x2="942.183" y2="-0.5" transform="matrix(0.499903 0.866082 -0.499903 0.866082 425 -32.9141)" stroke="white"/>
<line y1="-0.5" x2="942.183" y2="-0.5" transform="matrix(0.499903 0.866082 -0.499903 0.866082 435 -32.9141)" stroke="white"/>
<line y1="-0.5" x2="942.183" y2="-0.5" transform="matrix(0.499903 0.866082 -0.499903 0.866082 445 -32.9141)" stroke="white"/>
<line y1="-0.5" x2="942.183" y2="-0.5" transform="matrix(0.499903 0.866082 -0.499903 0.866082 455 -32.9141)" stroke="white"/>
<line y1="-0.5" x2="942.183" y2="-0.5" transform="matrix(0.499903 0.866082 -0.499903 0.866082 465 -32.9141)" stroke="white"/>
<line y1="-0.5" x2="942.183" y2="-0.5" transform="matrix(0.499903 0.866082 -0.499903 0.866082 475 -32.9141)" stroke="white"/>
<line y1="-0.5" x2="942.183" y2="-0.5" transform="matrix(0.499903 0.866082 -0.499903 0.866082 485 -32.9141)" stroke="white"/>
<line y1="-0.5" x2="942.183" y2="-0.5" transform="matrix(0.499903 0.866082 -0.499903 0.866082 495 -32.9141)" stroke="white"/>
<line y1="-0.5" x2="942.183" y2="-0.5" transform="matrix(0.499903 0.866082 -0.499903 0.866082 505 -32.9141)" stroke="white"/>
<line y1="-0.5" x2="942.183" y2="-0.5" transform="matrix(0.499903 0.866082 -0.499903 0.866082 515 -32.9141)" stroke="white"/>
<line y1="-0.5" x2="942.183" y2="-0.5" transform="matrix(0.499903 0.866082 -0.499903 0.866082 525 -32.9141)" stroke="white"/>
<line y1="-0.5" x2="942.183" y2="-0.5" transform="matrix(0.499903 0.866082 -0.499903 0.866082 535 -32.9141)" stroke="white"/>
<line y1="-0.5" x2="942.183" y2="-0.5" transform="matrix(0.499903 0.866082 -0.499903 0.866082 545 -32.9141)" stroke="white"/>
<line y1="-0.5" x2="942.183" y2="-0.5" transform="matrix(0.499903 0.866082 -0.499903 0.866082 555 -32.9141)" stroke="white"/>
<line y1="-0.5" x2="942.183" y2="-0.5" transform="matrix(0.499903 0.866082 -0.499903 0.866082 565 -32.9141)" stroke="white"/>
<line y1="-0.5" x2="942.183" y2="-0.5" transform="matrix(0.499903 0.866082 -0.499903 0.866082 575 -32.9141)" stroke="white"/>
<line y1="-0.5" x2="942.183" y2="-0.5" transform="matrix(0.499903 0.866082 -0.499903 0.866082 585 -32.9141)" stroke="white"/>
<line y1="-0.5" x2="942.183" y2="-0.5" transform="matrix(0.499903 0.866082 -0.499903 0.866082 595 -32.9141)" stroke="white"/>
<line y1="-0.5" x2="942.183" y2="-0.5" transform="matrix(0.499903 0.866082 -0.499903 0.866082 605 -32.9141)" stroke="white"/>
<line y1="-0.5" x2="942.183" y2="-0.5" transform="matrix(0.499903 0.866082 -0.499903 0.866082 615 -32.9141)" stroke="white"/>
<line y1="-0.5" x2="942.183" y2="-0.5" transform="matrix(0.499903 0.866082 -0.499903 0.866082 625 -32.9141)" stroke="white"/>
<line y1="-0.5" x2="942.183" y2="-0.5" transform="matrix(0.499903 0.866082 -0.499903 0.866082 635 -32.9141)" stroke="white"/>
<line y1="-0.5" x2="942.183" y2="-0.5" transform="matrix(0.499903 0.866082 -0.499903 0.866082 645 -32.9141)" stroke="white"/>
<line y1="-0.5" x2="942.183" y2="-0.5" transform="matrix(0.499903 0.866082 -0.499903 0.866082 655 -32.9141)" stroke="white"/>
<line y1="-0.5" x2="942.183" y2="-0.5" transform="matrix(0.499903 0.866082 -0.499903 0.866082 665 -32.9141)" stroke="white"/>
<line y1="-0.5" x2="942.183" y2="-0.5" transform="matrix(0.499903 0.866082 -0.499903 0.866082 675 -32.9141)" stroke="white"/>
<line y1="-0.5" x2="942.183" y2="-0.5" transform="matrix(0.499903 0.866082 -0.499903 0.866082 685 -32.9141)" stroke="white"/>
<line y1="-0.5" x2="942.183" y2="-0.5" transform="matrix(0.499903 0.866082 -0.499903 0.866082 695 -32.9141)" stroke="white"/>
<line y1="-0.5" x2="942.183" y2="-0.5" transform="matrix(0.499903 0.866082 -0.499903 0.866082 705 -32.9141)" stroke="white"/>
<line y1="-0.5" x2="942.183" y2="-0.5" transform="matrix(0.499903 0.866082 -0.499903 0.866082 715 -32.9141)" stroke="white"/>
<line y1="-0.5" x2="942.183" y2="-0.5" transform="matrix(0.499903 0.866082 -0.499903 0.866082 725 -32.9141)" stroke="white"/>
<line y1="-0.5" x2="942.183" y2="-0.5" transform="matrix(0.499903 0.866082 -0.499903 0.866082 735 -32.9141)" stroke="white"/>
<line y1="-0.5" x2="942.183" y2="-0.5" transform="matrix(0.499903 0.866082 -0.499903 0.866082 745 -32.9141)" stroke="white"/>
<line y1="-0.5" x2="942.183" y2="-0.5" transform="matrix(0.499903 0.866082 -0.499903 0.866082 755 -32.9141)" stroke="white"/>
<line y1="-0.5" x2="942.183" y2="-0.5" transform="matrix(0.499903 0.866082 -0.499903 0.866082 765 -32.9141)" stroke="white"/>
</g>
</svg>
