<!-- 01EZTX9M3AWK0ZB16B6KYR56F1 -->

<svg width="281" height="110" viewBox="0 0 281 110" fill="none" xmlns="http://www.w3.org/2000/svg">
<path fill-rule="evenodd" clip-rule="evenodd" d="M1.5 0C0.947715 0 0.5 0.447715 0.5 1V95.0513C0.5 95.6036 0.947715 96.0513 1.5 96.0513H128.12C128.672 96.0513 129.12 95.6036 129.12 95.0513C129.12 94.499 128.672 94.0513 128.12 94.0513H2.5V2H278.5V94.0513H152.88C152.328 94.0513 151.88 94.499 151.88 95.0513C151.88 95.6036 152.328 96.0513 152.88 96.0513H279.5C280.052 96.0513 280.5 95.6036 280.5 95.0513V1C280.5 0.447715 280.052 0 279.5 0H1.5ZM134.395 94.5058C134.149 94.0115 133.548 93.8104 133.054 94.0567C132.56 94.3031 132.359 94.9035 132.605 95.3978L136.105 102.422L139.605 109.445C139.774 109.785 140.121 109.999 140.5 109.999C140.879 109.999 141.226 109.785 141.395 109.445L144.895 102.422L148.395 95.3978C148.641 94.9035 148.44 94.3031 147.946 94.0567C147.452 93.8104 146.851 94.0115 146.605 94.5058L143.105 101.53L140.5 106.757L137.895 101.53L134.395 94.5058Z" fill="#00655A"/>
<path d="M213.349 43.6834C213.856 43.5404 214.792 43.3714 215.806 43.2414C215.338 44.9574 215.039 45.8284 214.467 47.1024C214.025 48.0774 213.505 49.0134 213.115 49.5074L214.376 50.2094C214.844 49.2734 215.143 48.7014 215.234 48.4934C216.053 46.7514 216.56 45.2954 217.08 43.1374C217.418 43.0984 217.639 43.0854 217.912 43.0854C218.991 43.0854 219.342 43.4754 219.342 44.6974C219.342 45.8154 219.212 47.0504 219.004 47.7394C218.796 48.4674 218.562 48.7534 218.146 48.7534C217.704 48.7534 216.95 48.5324 216.248 48.2074C216.326 48.6494 216.339 48.8574 216.339 49.1044C216.339 49.2084 216.339 49.3774 216.313 49.5984C217.184 49.8974 217.756 50.0274 218.289 50.0274C218.939 50.0274 219.316 49.8714 219.667 49.4424C220.265 48.7144 220.616 46.9594 220.616 44.8144C220.616 43.6704 220.447 43.0594 219.992 42.5914C219.589 42.1624 218.991 41.9544 218.159 41.9544C217.873 41.9544 217.665 41.9674 217.314 41.9934C217.353 41.8244 217.353 41.7854 217.405 41.4994L217.717 39.7704C217.743 39.6144 217.769 39.5234 217.808 39.3544L216.378 39.2114C216.391 39.3024 216.391 39.3804 216.391 39.4324C216.391 39.8614 216.261 40.8754 216.04 42.0974C214.935 42.2534 213.687 42.3834 213.219 42.3834L213.349 43.6834ZM220.837 41.7464C221.448 42.3964 221.851 42.9684 222.345 43.8914C222.852 44.8404 223.164 45.6724 223.411 46.7124L224.633 46.0754C224.048 44.1384 223.242 42.6954 221.929 41.2004L220.837 41.7464ZM223.138 38.6394C223.697 39.2894 224.061 39.8354 224.464 40.5894L225.257 40.1344C224.815 39.3154 224.542 38.9254 223.918 38.2364L223.138 38.6394ZM221.591 39.3804C222.15 40.0174 222.514 40.5634 222.943 41.3694L223.749 40.9274C223.294 40.0824 223.008 39.6664 222.397 38.9774L221.591 39.3804ZM227.987 41.3434C228.169 41.3434 228.208 41.3434 228.442 41.3824C229.17 41.4734 230.262 41.5384 231.068 41.5384C231.757 41.5384 232.29 41.4994 232.966 41.4084L232.706 41.5514C232.55 41.6424 232.511 41.6684 232.368 41.7464C231.913 42.0194 231.731 42.1234 230.912 42.6564L231.848 43.4104C233.135 42.4744 234.435 41.6684 235.241 41.3304L235.176 40.1084C234.37 40.2904 233.395 40.3554 231.627 40.3554C230.106 40.3554 228.845 40.2514 228.091 40.0434L227.987 41.3434ZM228.871 44.4374C227.74 45.3994 227.272 46.2054 227.272 47.1414C227.272 48.1034 227.805 48.8054 228.871 49.2084C229.547 49.4814 230.665 49.6244 232.017 49.6244C233.122 49.6244 234.162 49.5464 235.527 49.3384C235.761 49.2994 235.826 49.2864 236.034 49.2734L235.904 47.7914C235.111 48.1034 233.499 48.3244 231.926 48.3244C230.938 48.3244 230.08 48.2334 229.625 48.0904C228.949 47.8824 228.611 47.5184 228.611 46.9854C228.611 46.4004 228.975 45.8414 229.82 45.1524L228.871 44.4374ZM235.488 42.3444C236.047 42.9944 236.411 43.5404 236.814 44.2944L237.607 43.8394C237.165 43.0204 236.892 42.6304 236.268 41.9414L235.488 42.3444ZM233.941 43.0854C234.5 43.7224 234.864 44.2684 235.293 45.0744L236.099 44.6324C235.644 43.7874 235.358 43.3714 234.747 42.6824L233.941 43.0854ZM246.07 48.9484C245.355 48.6494 244.913 48.2724 244.471 47.5964C244.523 47.4534 244.692 46.9334 244.757 46.7124C244.809 46.5174 244.809 46.5174 244.861 46.3614C244.874 46.3354 244.887 46.2964 244.9 46.2444L243.756 45.9714C243.691 46.5304 243.626 46.8164 243.431 47.3494C243.067 48.3894 242.599 49.1044 241.728 49.9364C242.079 50.1574 242.287 50.3394 242.612 50.7164C243.327 49.8714 243.652 49.4164 244.042 48.6104C245.173 50.0144 246.33 50.4174 249.268 50.4174C249.333 50.4174 249.346 50.4174 249.801 50.4044C250.282 50.4044 250.282 50.4044 250.529 50.4044C250.594 49.9104 250.646 49.7024 250.828 49.2344C250.087 49.3124 249.476 49.3384 248.722 49.3384C248.085 49.3384 247.708 49.3124 247.188 49.2344V47.6874H248.852C249.385 47.6874 249.671 47.7004 249.996 47.7524V46.6734C249.71 46.7254 249.385 46.7384 248.852 46.7384H247.188V45.4904H249.372C249.853 45.4904 250.178 45.5034 250.555 45.5554V44.4374C250.217 44.4764 249.879 44.5024 249.372 44.5024H243.964C243.548 44.5024 243.21 44.4894 242.924 44.4504V43.7874C242.313 44.0734 242.131 44.1514 241.689 44.3334V42.2794H242.17C242.521 42.2794 242.755 42.2924 242.989 42.3184V41.1874L242.885 41.2004C242.833 41.2134 242.781 41.2134 242.768 41.2264C242.716 41.2264 242.716 41.2264 242.17 41.2394H241.689V40.1214C241.689 39.4974 241.702 39.1854 241.767 38.8214H240.454C240.519 39.1984 240.532 39.5104 240.532 40.1474V41.2394H239.921C239.544 41.2394 239.284 41.2134 238.946 41.1614V42.3444C239.31 42.2924 239.596 42.2794 239.895 42.2794H240.532V44.7754C239.596 45.1004 239.375 45.1654 238.855 45.2564L239.076 46.4524C239.765 46.1924 240.246 45.9974 240.532 45.8934V49.1434C240.532 49.4424 240.441 49.5204 240.064 49.5204C239.739 49.5204 239.427 49.4944 238.92 49.4294C239.076 49.8324 239.128 50.1054 239.167 50.5604C239.648 50.5864 239.934 50.5994 240.22 50.5994C241.364 50.5994 241.689 50.3524 241.689 49.4684V45.4384C242.092 45.2694 242.274 45.1784 242.534 45.0614C242.716 44.9704 242.716 44.9704 242.833 44.9184V45.5424C243.145 45.5034 243.392 45.4904 243.86 45.4904H246.07V48.9484ZM248.462 43.7094C248.995 43.7094 249.398 43.7224 249.736 43.7484C249.684 43.0854 249.684 42.9814 249.684 42.5004V40.3424C249.684 39.8484 249.697 39.5104 249.736 39.2374C249.372 39.2764 249.034 39.2894 248.501 39.2894H244.77C244.263 39.2894 243.912 39.2764 243.522 39.2374C243.548 39.5754 243.561 39.9654 243.561 40.4464V42.4484C243.548 43.0724 243.535 43.5014 243.522 43.7484C243.886 43.7224 244.133 43.7094 244.653 43.7094H248.462ZM244.666 40.2384H248.579V41.0444H244.666V40.2384ZM244.666 41.9544H248.579V42.7864H244.666V41.9544ZM258.264 41.4084V39.9654C258.264 39.5364 258.277 39.2244 258.329 38.8994H257.016C257.068 39.2504 257.094 39.5754 257.094 39.9654V41.4084H256.6C256.106 41.4084 255.742 41.3824 255.378 41.3304V42.5784C255.729 42.5264 256.08 42.5004 256.6 42.5004H257.094V45.3994H256.21C255.664 45.3994 255.3 45.3734 254.975 45.3214V46.5694C255.365 46.5044 255.664 46.4914 256.21 46.4914H262.593C263.139 46.4914 263.464 46.5044 263.841 46.5694V45.3214C263.477 45.3864 263.152 45.3994 262.593 45.3994H261.566V42.5004H262.255C262.788 42.5004 263.139 42.5264 263.49 42.5784V41.3304C263.139 41.3824 262.801 41.4084 262.255 41.4084H261.566V39.9914C261.566 39.5754 261.592 39.2374 261.644 38.8994H260.331C260.37 39.2114 260.396 39.5494 260.396 39.9784V41.4084H258.264ZM258.264 45.3994V42.5004H260.396V45.3994H258.264ZM254.286 38.6134C254.078 40.3684 252.908 42.7084 251.53 44.1774C251.842 44.7494 251.842 44.7494 252.089 45.4124C252.609 44.8014 252.882 44.4114 253.272 43.7224C253.233 44.3334 253.233 44.5284 253.233 45.2174V49.1434C253.233 49.8194 253.207 50.2224 253.155 50.6774H254.468C254.429 50.2484 254.403 49.6504 254.403 49.1564V41.9024C254.793 41.1094 254.988 40.6284 255.352 39.5234C255.456 39.1984 255.482 39.1334 255.547 38.9774L254.286 38.6134ZM260.006 47.4144C260.539 48.2334 260.877 48.6624 261.527 49.3514C262.073 49.9234 262.398 50.2094 263.009 50.6774C263.386 50.1704 263.581 49.9364 263.893 49.6504C262.632 48.8314 261.917 48.1164 261.02 46.7514L260.006 47.4144ZM257.497 46.7904C257.055 47.5444 256.795 47.8954 256.288 48.4284C255.768 48.9744 255.378 49.2864 254.676 49.7414C255.092 50.0664 255.261 50.2224 255.625 50.6514C256.899 49.6764 257.64 48.8704 258.537 47.4664L257.497 46.7904Z" fill="black"/>
<g clip-path="url(#clip0)">
<path d="M197.461 43.1351C197.461 42.9661 197.353 42.8361 197.218 42.8361H191.057C190.923 42.8361 190.814 42.9661 190.814 43.1351V48.196H197.465V43.1351H197.461ZM192.201 45.2453H196.079V45.7912H192.201V45.2453ZM196.079 44.3613H192.205V43.8154H196.079V44.3613ZM192.201 46.6751H196.079V47.2211H192.201V46.6751ZM191.035 42.3985H197.201V40.0934C197.201 39.92 197.093 39.7944 196.958 39.7944H191.282C191.148 39.7944 191.04 39.9244 191.04 40.0934V42.3985H191.035ZM195.836 41.4409H192.405V40.752H195.836V41.4409ZM193.037 48.274C193.184 48.222 193.262 48.2827 193.262 48.417V49.3616C192.218 49.7255 191.295 49.9552 190.325 50.1155V49.0149C191.2 48.8503 192.145 48.6033 193.037 48.274ZM195.113 48.274C196.005 48.6033 196.954 48.8503 197.829 49.0149V50.1155C196.859 49.9552 195.936 49.7255 194.887 49.3616V48.417C194.887 48.2827 194.965 48.2177 195.113 48.274ZM190.498 45.3882C190.212 45.5139 189.896 45.6396 189.562 45.7695V49.0193C189.562 49.7775 189.194 50.1198 188.474 50.1198H187.266L187.162 48.9586H187.959C188.132 48.9586 188.236 48.8286 188.236 48.6553V46.2115C187.911 46.3068 187.599 46.3935 187.309 46.4628C187.162 46.4975 187.088 46.4108 187.088 46.2678V45.2669C187.474 45.1803 187.864 45.0849 188.236 44.9853V42.8275H187.088V41.9825C187.088 41.8135 187.201 41.6836 187.335 41.6836H188.236V39.5084H189.562V41.6836H190.255C190.39 41.6836 190.498 41.8135 190.498 41.9825V42.8318H189.562V44.5866C189.891 44.4783 190.208 44.3657 190.498 44.2573V45.3882V45.3882ZM179.891 42.5588C180.025 42.5588 180.134 42.6888 180.134 42.8578V43.7027H178.4V43.9887C178.99 44.6776 179.648 45.3666 180.134 45.8085V47.2644C179.592 46.8398 178.899 46.2115 178.4 45.6656V50.1155H176.979V45.9169C176.316 46.9698 175.58 47.7887 174.704 48.4777V47.0304C175.458 46.2332 176.113 45.1586 176.71 43.7027H174.704V42.8578C174.704 42.6888 174.817 42.5588 174.951 42.5588H176.983V41.2416C176.303 41.3196 175.623 41.3716 174.964 41.4019V40.3057C176.654 40.1757 178.383 39.8984 179.822 39.5171C179.991 39.4694 180.103 39.5647 180.103 39.7467V40.687C179.562 40.8213 178.99 40.9426 178.4 41.0379V42.5545H179.891V42.5588ZM185.272 40.505C185.272 40.336 185.164 40.206 185.025 40.206H180.77C180.636 40.206 180.528 40.3317 180.528 40.505V49.7082H185.272V40.505ZM182.005 41.3499H183.795V48.5686H182.005V41.3499ZM172.711 39.7944C172.845 39.7944 172.954 39.92 172.954 40.0934V48.9673C172.954 49.7212 172.607 50.0635 171.892 50.0635H170.137L170.038 48.8936H171.195C171.368 48.8936 171.472 48.7593 171.472 48.5903V40.9383H164.314V50.1155H162.832V40.0934C162.832 39.9244 162.945 39.7944 163.075 39.7944H172.711V39.7944ZM170.852 43.0181H164.899V42.2208C164.899 42.0519 165.007 41.9219 165.141 41.9219H170.605C170.74 41.9219 170.848 42.0519 170.848 42.2208V43.0181H170.852ZM170.618 44.2747C170.618 44.1057 170.51 43.9757 170.376 43.9757H165.397C165.263 43.9757 165.15 44.1057 165.15 44.2747V48.053H170.618V44.2747ZM166.597 45.0763H169.167V46.9568H166.597V45.0763ZM209.975 44.864C209.975 44.695 209.866 44.565 209.732 44.565H206.699V43.7201H209.329V40.0847C209.329 39.9157 209.221 39.7901 209.086 39.7901H202.96C202.825 39.7901 202.717 39.9157 202.717 40.0847V43.7201H205.304V44.565H202.453C202.318 44.565 202.206 44.695 202.206 44.864V45.7132H204.22C203.67 47.0391 203.029 47.9534 202.206 48.7203V50.1155C203.523 49.2013 204.628 47.832 205.304 46.2548V50.1198H206.703V46.2028C207.444 47.8277 208.649 49.2533 209.983 50.1155V48.7203C209.117 47.975 208.358 47.0348 207.778 45.7132H209.983V44.864H209.975ZM204.073 40.882H207.969V42.6195H204.073V40.882ZM202.288 39.8897C202.162 40.8083 201.92 41.6879 201.603 42.4938V50.1112H200.317V44.9073C199.948 45.4186 199.567 45.8519 199.181 46.1898V44.4827C199.97 43.2348 200.633 41.5492 200.979 39.5127H202.006C202.223 39.5084 202.314 39.6991 202.288 39.8897ZM108.458 40.4617H110.056C109.926 41.8829 109.814 43.3647 109.814 44.6993C109.814 47.1734 110.004 47.884 110.615 47.884C111.309 47.884 112.097 47.6284 112.994 47.2168V48.742C112.162 49.1449 111.317 49.4092 110.208 49.4092C108.648 49.4092 108.224 48.144 108.224 44.6776C108.224 43.3301 108.332 41.8699 108.458 40.4617ZM114.346 41.2849H115.919C117.128 43.3041 117.622 45.2713 117.596 48.2133C117.6 48.4993 117.44 48.6206 117.206 48.6206H115.958C116.036 45.4792 115.503 43.7114 114.346 41.2849ZM85.7182 40.4617H87.3127C87.187 41.8829 87.0744 43.3647 87.0744 44.6993C87.0744 47.1734 87.265 47.884 87.8803 47.884C88.5736 47.884 89.3579 47.6284 90.2505 47.2168V48.742C89.4229 49.1449 88.5779 49.4092 87.4687 49.4092C85.9088 49.4092 85.4842 48.144 85.4842 44.6776C85.4842 43.3301 85.5925 41.8699 85.7182 40.4617ZM91.6023 41.2849H93.1752C94.3841 43.3041 94.8781 45.2713 94.8521 48.2133C94.8521 48.4993 94.7004 48.6206 94.4621 48.6206H93.2142C93.2965 45.4792 92.7636 43.7114 91.6023 41.2849ZM131.102 45.6916C130.894 44.6256 130.608 43.3517 130.374 42.3292H131.691C131.908 43.1134 132.233 44.344 132.467 45.3276C132.519 45.5832 132.445 45.6916 132.25 45.6916H131.102ZM133.636 45.6916C133.485 44.6256 133.277 43.3084 133.112 42.3292H134.429C134.607 43.1698 134.845 44.3613 135.019 45.3276C135.062 45.5832 134.975 45.6916 134.785 45.6916H133.636ZM131.83 48.3953C135.586 47.7497 136.449 46.7445 136.605 42.3292H138.017C137.861 47.715 136.284 48.9326 131.83 49.5912V48.3953ZM161.094 41.5406C159.929 42.2165 158.69 42.8275 157.437 43.3561V49.9465H155.761V44.0104C154.179 44.5823 152.615 45.0156 151.163 45.2799V43.876C154.17 43.1958 157.611 41.8352 160.627 39.998C160.869 39.8507 161.094 39.998 161.094 40.2277V41.5406V41.5406ZM119.342 49.2663V48.196C119.342 47.975 119.494 47.819 119.715 47.819H129.026C129.247 47.819 129.399 47.9707 129.399 48.196V49.2663H119.342ZM120.404 42.4072V41.3586C120.404 41.1376 120.555 40.9859 120.776 40.9859H128.025C128.246 40.9859 128.402 41.1376 128.402 41.3586V42.4072H120.404ZM145.569 45.1283C147.047 44.8206 147.758 44.3527 148.078 43.0181L143.117 43.2131V47.0391C143.117 47.7584 143.585 48.2177 144.291 48.2177H149.369V49.6216H144.192C142.432 49.6216 141.544 48.794 141.544 47.1518V43.2738L139.477 43.3561V42.3205C139.477 42.0995 139.633 41.9435 139.854 41.9305L141.544 41.8612V39.8637H143.117V41.8005L149.365 41.5536C149.586 41.5492 149.751 41.6922 149.738 41.9175C149.629 45.1066 148.195 46.1335 145.569 46.5365V45.1283V45.1283ZM102.162 43.8024C101.759 43.8024 101.373 43.824 101.001 43.8674V42.5718H103.18V41.6706C103.18 41.4496 103.028 41.2979 102.807 41.2979H101.001V39.6861H99.5013V41.2979H97.4345C97.2092 41.2979 97.0619 41.4496 97.0619 41.6706V42.5718H99.5013V44.1663C97.7638 44.6993 96.6459 45.7869 96.6459 47.2601C96.6459 48.7506 97.7335 49.7212 99.549 49.7212C100.58 49.7212 101.001 49.1189 101.001 48.183V45.1889C101.326 45.1543 101.676 45.1326 102.053 45.1326C103.804 45.1326 104.584 45.8345 104.584 46.7488C104.584 48.1093 103.726 48.534 102.088 48.3347V49.6346C104.32 49.8815 106.087 49.1666 106.087 46.7055C106.083 45.1066 104.801 43.8024 102.162 43.8024ZM99.5013 47.8884C99.5013 48.1787 99.4017 48.339 99.0897 48.339C98.5048 48.339 98.0758 47.9187 98.0758 47.3121C98.0758 46.5711 98.5438 45.9299 99.5013 45.5442V47.8884ZM105.988 41.6056C106.161 41.6922 106.274 41.9219 106.274 42.1385V43.2998C105.312 42.7798 104.506 42.3898 103.691 42.0475V40.713C104.523 40.96 105.273 41.2416 105.988 41.6056ZM79.3704 43.1481C79.0194 43.1481 78.6858 43.1654 78.3738 43.2001C78.3781 42.9055 78.3825 42.6108 78.3911 42.3162H83.1921V41.4149C83.1921 41.1939 83.0404 41.0423 82.8194 41.0379H78.4518C78.4778 40.557 78.5124 40.0847 78.5558 39.6384H77.0912C77.0479 40.0804 77.0089 40.5527 76.9872 41.0379H74.4308C74.2098 41.0423 74.0582 41.1896 74.0582 41.4149V42.3162H76.9526C76.9482 42.7018 76.9482 43.0961 76.9526 43.4861C74.8251 44.149 73.9412 45.6612 73.9412 46.8831C73.9412 48.6293 74.6648 49.4526 75.943 49.4526C77.4379 49.4526 79.5177 47.8234 81.4199 44.8943C81.9268 45.2323 82.1738 45.7479 82.1738 46.4195C82.1738 48.0184 81.1339 48.5686 79.4787 48.586V49.8165C81.7752 49.8469 83.66 49.0366 83.66 46.4022C83.647 44.292 82.0265 43.1481 79.3704 43.1481ZM75.3147 46.9871C75.3147 46.0772 75.8563 45.2583 76.9872 44.799C77.0349 45.8259 77.1172 46.8095 77.2256 47.6501C76.7836 47.9404 76.3806 48.0964 76.0557 48.0964C75.6137 48.0964 75.3147 47.7497 75.3147 46.9871ZM78.4778 46.5928C78.4215 45.9515 78.3911 45.2279 78.3781 44.461C78.6684 44.4307 78.9847 44.409 79.3184 44.409C79.6174 44.409 79.8947 44.4263 80.146 44.461C79.6044 45.2929 79.0367 46.0165 78.4778 46.5928Z" fill="black"/>
<path d="M66.5449 37H17.5V53.4133H66.5449V37Z" fill="#00655A"/>
<path d="M26.4173 47.5203H26.3914L24.1555 41.3805H21.4561V41.4021C22.1234 41.6621 22.5133 42.1864 22.5133 43.0573V49.0325H23.2933V42.3381H23.3193L25.7501 49.0368H26.6513L29.0605 42.2687H29.0865V49.0368H30.5597V41.3805H28.6012L26.4173 47.5203ZM33.8657 42.871C33.8657 42.1041 34.5417 41.8008 35.1526 41.7834C36.0365 41.7618 36.9378 42.1344 37.5271 42.4421V41.5148C37.2584 41.4541 36.2878 41.2158 35.3173 41.2158C33.5971 41.2158 32.5182 41.9351 32.4748 43.2047C32.3882 45.7698 36.5782 45.6008 36.5782 47.3166C36.5782 48.1486 35.9715 48.6079 35.001 48.6079C34.1214 48.6079 33.2114 48.2092 32.5875 47.7803V48.8245C32.8561 48.9632 33.8267 49.2058 34.8016 49.2058C36.5435 49.2058 38.008 48.6512 37.9734 46.944C37.9257 44.4569 33.8657 44.6389 33.8657 42.871ZM45.2354 47.282C45.4001 46.9353 45.7164 46.2984 46.063 45.4015H45.2658C45.2658 45.4015 44.9754 46.1121 44.6981 46.7404C43.9875 46.0167 43.3029 45.3105 42.8306 44.8165C43.5889 44.3746 44.7155 43.8806 44.7155 42.7454C44.7155 42.0434 44.0959 41.2245 42.7136 41.2635C41.6824 41.2895 40.9458 42.0131 40.8895 42.858C40.8418 43.5296 41.1668 43.9803 41.5567 44.3919C41.6261 44.4655 41.7517 44.5955 41.9164 44.7645C40.7681 45.4231 40.0879 46.1857 40.0575 47.1477C40.0185 48.2829 40.9328 49.2145 42.5057 49.2145C43.5759 49.2145 44.3732 48.7292 44.9191 47.8843C45.5604 48.5515 46.0327 49.0412 46.0327 49.0412H47.0033C46.5266 48.5732 45.894 47.9406 45.2354 47.282ZM41.5784 42.8104C41.6044 42.1994 42.0464 41.7141 42.7656 41.7054C43.4676 41.6968 44.0049 42.1517 44.0049 42.8104C44.0049 43.599 43.4416 43.9716 42.4927 44.4569C42.4407 44.4006 42.3973 44.3529 42.354 44.3096C41.8427 43.7549 41.5524 43.404 41.5784 42.8104ZM44.3602 47.4683C43.9485 48.2656 43.5456 48.7552 42.562 48.7552C41.4657 48.7552 40.7638 48.0446 40.8071 47.0393C40.8418 46.1207 41.5827 45.5748 42.2847 45.1458C42.8696 45.7568 43.6929 46.6104 44.4165 47.36C44.3992 47.399 44.3818 47.4336 44.3602 47.4683ZM58.6806 41.3848H55.3919V41.4065C56.0548 41.6664 56.4491 42.1907 56.4491 43.0617V49.0368H58.6806C61.0768 49.0368 62.8359 48.4302 62.8359 45.2108C62.8403 41.9914 61.0724 41.3848 58.6806 41.3848ZM58.8063 48.4519H57.7837V41.9654H58.8063C60.8124 41.9654 61.3757 43.183 61.3801 45.2108C61.3801 47.243 60.8124 48.4519 58.8063 48.4519ZM49.4687 41.3848V41.4065C50.0364 41.6231 50.5303 42.1474 50.344 42.6544C50.1707 43.1223 47.7485 49.0368 47.7485 49.0368H48.5545L49.4774 46.7144H52.7618L53.741 49.0368H55.1969L51.8952 41.3848H49.4687V41.3848ZM49.7157 46.1034L51.0676 42.702L52.5018 46.1034H49.7157Z" fill="white"/>
</g>
<rect x="59.5" y="70" width="160" height="13" fill="white"/>
<path d="M112.394 20.891C112.979 20.891 113.369 20.917 113.772 20.969V19.734C113.408 19.786 113.07 19.799 112.394 19.799H107.272C107.584 19.149 108.013 18.265 108.104 18.07L106.778 17.849C106.648 18.395 106.453 18.863 105.959 19.799H103.697C103.008 19.799 102.683 19.786 102.319 19.734V20.969C102.696 20.917 103.099 20.891 103.697 20.891H105.348C104.867 21.71 104.503 22.23 103.749 23.179C105.491 23.634 106.102 23.816 107.246 24.258C106.739 24.583 106.284 24.804 105.725 24.999C104.607 25.415 103.658 25.636 102.293 25.844C102.579 26.247 102.748 26.559 102.917 27.001C104.178 26.741 104.984 26.52 106.076 26.091C107.09 25.714 107.714 25.363 108.494 24.765C110.093 25.441 111.159 26 112.641 26.949L113.551 25.922C111.887 25.025 110.912 24.557 109.378 23.933C110.21 23.049 110.613 22.347 111.133 20.891H112.394ZM109.872 20.891C109.482 22.022 109.027 22.737 108.234 23.491C107.324 23.153 106.817 22.997 105.569 22.646C106.089 21.918 106.271 21.632 106.687 20.891H109.872ZM107.272 16.432H103.905C103.32 16.432 102.917 16.419 102.449 16.367C102.488 16.692 102.514 17.03 102.514 17.368V18.239C102.514 18.59 102.488 18.876 102.449 19.175H103.658V17.511H112.342V19.175H113.538C113.486 18.889 113.473 18.577 113.473 18.239V17.368C113.473 17.004 113.486 16.705 113.525 16.367C113.057 16.419 112.654 16.432 112.082 16.432H108.481V16.159C108.481 15.743 108.494 15.418 108.546 15.145H107.194C107.246 15.457 107.272 15.756 107.272 16.172V16.432ZM116.086 25.064C116.606 24.011 116.801 23.504 117.074 22.451C117.321 21.515 117.451 20.839 117.672 19.422L116.463 19.149C116.294 20.41 116.177 21.034 115.917 21.944C115.644 22.932 115.436 23.426 114.903 24.375L116.086 25.064ZM123.626 17.082C122.131 16.198 121.156 15.769 119.232 15.093L118.543 16.107C120.571 16.848 121.559 17.329 122.859 18.2L123.626 17.082ZM127.201 24.102C126.46 21.788 125.979 20.683 124.991 18.967L123.86 19.513C124.809 21.151 125.355 22.503 125.979 24.739L127.201 24.102ZM119.791 19.188C119.791 18.72 119.817 18.343 119.882 17.927H118.465C118.53 18.447 118.556 18.772 118.556 19.214V25.389C118.556 26.494 118.946 26.676 121.195 26.676C123.249 26.676 123.795 26.533 124.12 25.896C124.393 25.376 124.523 24.635 124.653 22.932C124.198 22.841 123.886 22.724 123.418 22.49C123.392 23.946 123.288 24.817 123.093 25.142C122.924 25.415 122.508 25.493 121.325 25.493C120.051 25.493 119.791 25.428 119.791 25.077V19.188ZM131.465 15.652C131.543 15.847 131.543 15.86 131.673 16.497C132.037 18.226 132.232 19.006 132.583 20.059C131.751 20.488 131.348 20.735 130.841 21.164C130.1 21.775 129.684 22.594 129.684 23.413C129.684 24.323 130.087 25.077 130.789 25.493C131.595 25.961 132.674 26.156 134.416 26.156C135.339 26.156 136.015 26.117 137.393 25.974C138.095 25.896 138.134 25.896 138.407 25.883L138.29 24.388C137.393 24.687 135.859 24.882 134.351 24.882C133.519 24.882 132.713 24.817 132.297 24.713C131.478 24.505 131.075 24.089 131.075 23.452C131.075 22.451 132.063 21.58 134.052 20.813C135.456 20.28 137.146 19.76 138.199 19.552L137.705 18.187C137.523 18.278 137.445 18.304 137.224 18.382L135.482 18.967C134.819 19.201 134.416 19.344 133.792 19.591C133.376 18.278 132.934 16.302 132.882 15.418L131.465 15.652ZM143.516 18.161C143.88 17.381 144.075 16.9 144.348 16.016C144.426 15.769 144.478 15.613 144.556 15.418L143.347 15.015C143.269 15.6 143.152 16.042 142.853 16.822C142.333 18.252 141.709 19.318 140.799 20.332C141.046 20.735 141.189 21.034 141.358 21.528C141.943 20.787 142.112 20.527 142.424 19.916C142.385 20.787 142.385 20.878 142.385 21.411V25.48C142.385 26.13 142.359 26.52 142.307 27.014H143.581C143.542 26.546 143.516 26.078 143.516 25.493V18.161ZM151.875 15.587C151.55 15.639 151.147 15.665 150.523 15.665H146.441C145.934 15.665 145.57 15.639 145.206 15.587V16.705C145.518 16.666 145.843 16.653 146.35 16.653H150.601C151.147 16.653 151.55 16.666 151.875 16.705V15.587ZM151.875 19.305C151.602 19.344 151.264 19.357 150.809 19.357H146.116C145.635 19.357 145.427 19.344 145.141 19.305V20.384C145.44 20.345 145.674 20.332 146.116 20.332H150.822C151.264 20.332 151.602 20.345 151.875 20.384V19.305ZM151.875 21.112C151.563 21.151 151.29 21.164 150.822 21.164H146.116C145.648 21.164 145.414 21.151 145.141 21.112V22.191C145.453 22.152 145.661 22.139 146.116 22.139H150.835C151.29 22.139 151.563 22.152 151.875 22.191V21.112ZM146.181 26.377H150.718V27.014H151.94C151.875 26.611 151.862 26.299 151.862 25.805V24.102C151.862 23.608 151.875 23.283 151.914 22.932C151.641 22.971 151.303 22.984 150.757 22.984H146.09C145.648 22.984 145.284 22.971 145.011 22.932C145.05 23.27 145.063 23.66 145.063 24.102V25.818C145.063 26.312 145.037 26.689 144.998 27.014H146.181V26.377ZM146.181 25.376V23.985H150.718V25.376H146.181ZM144.309 18.564C144.66 18.525 144.998 18.499 145.401 18.499H151.68C152.161 18.499 152.551 18.525 152.915 18.564V17.42C152.577 17.472 152.2 17.498 151.68 17.498H145.401C144.946 17.498 144.634 17.472 144.309 17.433V18.564ZM159.779 16.64C160.026 16.614 160.26 16.601 160.754 16.601H162.236C162.158 16.952 162.028 17.316 161.833 17.745H161.235C160.702 17.745 160.416 17.732 160.13 17.706C160.156 18.057 160.169 18.369 160.169 18.928V23.309C160.169 23.842 160.156 24.089 160.13 24.505C160.429 24.479 160.754 24.466 161.196 24.466H164.277C164.68 24.466 165.018 24.479 165.395 24.505C165.369 24.128 165.356 23.699 165.356 23.192V18.915C165.356 18.434 165.369 18.018 165.395 17.706C165.109 17.732 164.81 17.745 164.16 17.745H162.964C163.146 17.329 163.25 17.069 163.393 16.601H164.511C165.187 16.601 165.473 16.614 165.863 16.666V15.483C165.538 15.535 165.174 15.561 164.511 15.561H161.04C160.403 15.561 160.091 15.548 159.701 15.483V16.419C159.454 16.445 159.181 16.458 158.648 16.458H157.517V16.354C157.517 15.782 157.53 15.47 157.582 15.184H156.425C156.477 15.522 156.49 15.795 156.49 16.458H155.502C154.813 16.458 154.514 16.445 154.15 16.393V17.55C154.514 17.498 154.878 17.485 155.502 17.485H156.49V18.499H155.736C155.125 18.499 154.865 18.486 154.514 18.447C154.553 18.785 154.566 19.058 154.566 19.552V20.93C154.566 21.45 154.553 21.736 154.514 22.074C154.865 22.035 155.086 22.022 155.593 22.022H156.204C155.541 23.231 154.774 24.141 153.773 24.908C154.098 25.233 154.241 25.454 154.423 25.883C155.346 25.038 155.892 24.323 156.542 23.101C156.49 23.556 156.49 23.634 156.49 23.985V25.623C156.49 26.312 156.477 26.624 156.412 26.988H157.595C157.53 26.624 157.517 26.351 157.517 25.623V23.933C157.517 23.686 157.491 23.309 157.465 22.984C158.024 23.816 158.349 24.18 159.207 24.947C159.389 24.557 159.532 24.336 159.805 23.985C158.895 23.348 158.427 22.893 157.79 22.022H158.427C158.934 22.022 159.194 22.035 159.506 22.074C159.48 21.775 159.467 21.58 159.467 21.021V19.461C159.467 18.902 159.467 18.772 159.506 18.447C159.181 18.486 158.96 18.499 158.401 18.499H157.517V17.485H158.635C159.168 17.485 159.441 17.498 159.779 17.537V16.64ZM156.49 19.461V21.06H155.554V19.461H156.49ZM157.517 19.461H158.479V21.06H157.517V19.461ZM161.222 18.72H164.277V19.656H161.222V18.72ZM161.222 20.605H164.277V21.515H161.222V20.605ZM161.222 22.464H164.277V23.465H161.222V22.464ZM161.365 24.518C160.975 24.986 160.754 25.181 160.299 25.493C159.805 25.818 159.506 25.974 158.83 26.208C159.155 26.494 159.324 26.728 159.532 27.105C160.65 26.611 161.196 26.221 162.223 25.168L161.365 24.518ZM163.068 25.168C163.848 26.026 164.433 26.494 165.486 27.105C165.798 26.637 165.889 26.533 166.24 26.221C165.135 25.714 164.602 25.337 163.861 24.518L163.068 25.168ZM173.884 17.55C174.482 17.589 174.833 17.68 175.275 17.914C176.419 18.525 177.056 19.604 177.056 20.956C177.056 22.529 176.185 23.894 174.794 24.492C174.235 24.726 173.65 24.869 172.636 25.025C172.987 25.48 173.104 25.701 173.299 26.299C174.183 26.13 174.69 25.987 175.301 25.74C177.251 24.934 178.395 23.192 178.395 21.021C178.395 18.213 176.406 16.354 173.377 16.354C171.57 16.354 170.075 16.965 169.009 18.135C168.099 19.136 167.605 20.449 167.605 21.84C167.605 23.816 168.619 25.259 169.997 25.259C171.011 25.259 171.804 24.505 172.558 22.789C173.182 21.385 173.65 19.487 173.884 17.55ZM172.558 17.563C172.389 19.11 171.947 20.93 171.44 22.126C170.933 23.309 170.452 23.881 169.984 23.881C169.36 23.881 168.866 22.984 168.866 21.853C168.866 20.371 169.594 18.98 170.777 18.187C171.336 17.81 171.843 17.641 172.558 17.563Z" fill="black"/>
<path d="M74.3421 76.18C74.3871 75.865 74.3871 75.865 74.5071 75.445C74.5371 75.31 74.6121 75.04 74.7171 74.62L77.1171 66.025C77.3571 65.155 77.4921 64.75 77.7021 64.24H75.3021C75.2871 64.66 75.1971 65.275 75.0471 65.845L73.6521 71.5C73.6221 71.635 73.5021 72.22 73.4571 72.46C73.3671 72.985 73.3671 72.985 73.2921 73.33C73.0521 72.205 72.9771 71.905 72.8721 71.515L71.1921 65.74C71.0271 65.185 70.8921 64.6 70.8471 64.24H69.0021C68.9571 64.645 68.8521 65.14 68.6721 65.77L67.0071 71.56C66.8871 71.98 66.7821 72.4 66.5871 73.33C66.4971 72.805 66.3321 72.04 66.2271 71.575L64.8321 65.86C64.6671 65.2 64.5921 64.75 64.5621 64.24H62.1621C62.3571 64.69 62.5071 65.155 62.7621 66.025L65.1471 74.635C65.4771 75.805 65.4771 75.805 65.5521 76.18H67.5471C67.5921 75.82 67.7121 75.34 67.8921 74.665L69.4821 69.085C69.6171 68.605 69.7671 68.02 69.9321 67.165C70.0671 67.93 70.2021 68.5 70.3671 69.085L71.9721 74.665C72.1221 75.175 72.2721 75.82 72.3321 76.18H74.3421ZM86.8613 72.37C86.8313 72.025 86.8313 71.98 86.8313 71.95C86.7863 70.93 86.6813 70.39 86.3963 69.67C85.7963 68.17 84.4163 67.3 82.6613 67.3C80.0963 67.3 78.4313 69.115 78.4313 71.89C78.4313 74.695 80.1113 76.465 82.7663 76.465C84.0263 76.465 85.0763 76.075 85.8563 75.31C86.2313 74.935 86.4263 74.65 86.7713 73.93L85.0013 73.36C84.8513 73.765 84.7463 73.93 84.5663 74.14C84.1313 74.62 83.5013 74.89 82.7663 74.89C82.0013 74.89 81.3263 74.59 80.8913 74.05C80.5463 73.615 80.4113 73.195 80.3363 72.37H86.8613ZM80.3813 70.885C80.6063 69.625 81.4613 68.845 82.6313 68.845C83.3363 68.845 83.8463 69.04 84.2513 69.445C84.6263 69.82 84.8063 70.225 84.9113 70.885H80.3813ZM90.3371 76.18V75.445C90.3371 75.265 90.3371 75.1 90.3221 74.905C91.0721 75.955 91.9271 76.39 93.3071 76.39C94.5221 76.39 95.4821 76.03 96.1871 75.31C96.9971 74.47 97.4171 73.27 97.4171 71.8C97.4171 69.01 95.9321 67.375 93.4121 67.375C92.0321 67.375 91.1021 67.84 90.3221 68.89C90.3371 68.38 90.3521 68.005 90.3521 67.765V66.265C90.3521 65.365 90.3821 64.87 90.4571 64.24H88.3421C88.4171 64.96 88.4471 65.485 88.4471 66.25V74.155C88.4471 75.04 88.4171 75.52 88.3421 76.18H90.3371ZM95.4671 71.8C95.4671 73.615 94.4921 74.785 92.9771 74.785C92.4221 74.785 91.8371 74.575 91.4021 74.23C90.8021 73.75 90.4121 72.805 90.4121 71.86C90.4121 71.08 90.6971 70.27 91.1471 69.775C91.6421 69.235 92.3471 68.95 93.1871 68.95C94.5671 68.95 95.4671 70.075 95.4671 71.8ZM99.2179 67.495C99.6829 67.39 100.373 67.3 101.708 67.195C104.618 66.985 105.548 66.895 106.763 66.715C105.788 67.21 105.248 67.615 104.678 68.23C103.763 69.22 103.253 70.48 103.253 71.755C103.253 73.315 104.018 74.59 105.398 75.37C106.313 75.88 107.258 76.15 108.908 76.36C109.193 76.405 109.223 76.405 109.418 76.45L109.688 74.41C109.538 74.425 109.403 74.425 109.388 74.425C108.848 74.425 107.888 74.26 107.153 74.035C105.893 73.66 105.158 72.76 105.158 71.59C105.158 70.075 106.283 68.575 108.188 67.585C109.148 67.075 110.258 66.775 111.158 66.775C111.308 66.775 111.308 66.775 111.473 66.79L111.368 64.885C111.128 64.945 111.053 64.945 109.823 65.005C105.818 65.2 103.253 65.335 102.158 65.395C99.9529 65.545 99.9529 65.545 99.6829 65.545C99.6079 65.545 99.4429 65.545 99.1129 65.53L99.2179 67.495ZM108.398 68.935C109.058 69.655 109.478 70.255 109.973 71.17L111.023 70.615C110.513 69.685 110.108 69.115 109.448 68.41L108.398 68.935ZM112.808 69.64C112.343 68.785 111.923 68.215 111.248 67.525L110.243 68.05C110.828 68.695 111.323 69.4 111.773 70.225L112.808 69.64ZM123.938 68.08C125.003 68.77 125.618 69.115 126.818 69.67C127.148 68.815 127.268 68.575 127.703 68.005C126.233 67.495 125.138 66.91 123.923 66.01C122.843 65.215 121.988 64.345 121.328 63.385H119.468C119.078 64.12 118.343 64.915 117.203 65.86C116.123 66.76 114.908 67.45 113.333 68.08C113.723 68.56 113.948 68.95 114.218 69.61C115.358 69.085 116.168 68.65 117.053 68.065V69.28C117.473 69.235 117.848 69.22 118.433 69.22H122.468C123.038 69.22 123.518 69.235 123.938 69.28V68.08ZM118.358 67.78C117.968 67.78 117.803 67.78 117.488 67.75C118.733 66.835 119.498 66.1 120.443 64.885C121.388 66.115 122.138 66.835 123.458 67.765C123.233 67.78 122.948 67.78 122.573 67.78H118.358ZM125.318 70.6C125.033 70.66 124.628 70.675 123.773 70.675H116.933C116.243 70.675 115.673 70.645 115.058 70.585V72.28C115.688 72.22 116.303 72.19 116.918 72.19H123.668L121.208 75.22C120.803 75.73 120.443 76.105 120.053 76.465L121.778 77.425C122.093 76.945 122.348 76.585 122.723 76.09L125.618 72.415C125.798 72.19 126.128 71.815 126.278 71.665L125.318 70.6ZM137.678 68.02V67.045C138.863 67.015 139.133 67.015 139.493 67.015C140.738 67.015 141.458 67.045 142.013 67.09L141.998 65.365C141.443 65.425 140.273 65.455 137.663 65.47C137.678 64.18 137.678 64.15 137.738 63.685L135.848 63.7C135.923 64.09 135.923 64.09 135.938 65.515C135.158 65.545 135.158 65.545 134.663 65.56C133.433 65.59 133.283 65.59 132.308 65.62C130.373 65.695 130.133 65.695 129.758 65.695C129.488 65.695 129.353 65.695 129.023 65.665L129.083 67.45C129.488 67.39 129.488 67.39 131.753 67.225C132.413 67.18 133.823 67.135 135.968 67.075C135.968 67.48 135.968 68.32 135.983 68.35C135.983 68.455 135.983 68.455 135.998 68.53C135.653 68.245 135.083 68.08 134.438 68.08C132.698 68.08 131.453 69.22 131.453 70.81C131.453 71.665 131.783 72.325 132.488 72.835C132.998 73.21 133.538 73.375 134.228 73.375C135.218 73.375 135.998 73 136.433 72.31C136.313 73.15 135.713 73.915 134.693 74.5C133.988 74.92 133.373 75.13 132.143 75.37C132.638 75.91 132.788 76.135 133.208 77.065C134.603 76.585 135.293 76.27 135.923 75.835C137.378 74.83 138.158 73.42 138.158 71.785C138.158 70.975 138.008 70.36 137.678 69.67C137.678 69.49 137.663 69.37 137.663 69.31L137.678 68.02ZM135.953 70.495C135.953 71.275 135.338 71.845 134.483 71.845C133.733 71.845 133.208 71.35 133.208 70.66C133.208 70 133.838 69.46 134.603 69.46C135.428 69.46 135.953 69.865 135.953 70.495ZM151.853 63.505C151.343 64.315 149.348 66.145 147.293 67.69C146.183 68.53 146.168 68.56 145.973 68.755C145.643 69.115 145.478 69.535 145.478 69.985C145.478 70.675 145.748 71.065 146.738 71.845C149.693 74.095 151.703 75.91 152.558 77.095L154.103 75.52C153.908 75.37 153.833 75.31 153.668 75.145C151.868 73.51 151.193 72.94 148.943 71.245C147.623 70.24 147.593 70.225 147.593 70C147.593 69.835 147.698 69.7 148.163 69.355C149.288 68.515 150.623 67.465 151.298 66.88C153.158 65.155 153.218 65.095 153.578 64.825L151.853 63.505ZM152.123 67.63C152.768 68.35 153.188 68.95 153.698 69.865L154.748 69.31C154.238 68.38 153.818 67.81 153.173 67.105L152.123 67.63ZM156.533 68.335C156.068 67.48 155.648 66.91 154.973 66.22L153.968 66.745C154.553 67.39 155.048 68.095 155.498 68.92L156.533 68.335ZM164.198 71.41C165.263 71.08 166.178 70.915 167.078 70.915C168.683 70.915 169.733 71.755 169.733 73.045C169.733 74.005 169.103 74.71 168.218 74.71C167.798 74.71 167.438 74.515 167.273 74.2C167.123 73.915 167.063 73.51 167.063 72.88C167.063 72.64 167.063 72.505 167.093 72.22C166.448 72.565 166.193 72.67 165.428 72.88C165.428 73.795 165.488 74.29 165.683 74.8C166.073 75.88 166.928 76.465 168.143 76.465C170.093 76.465 171.548 74.995 171.548 73.045C171.548 70.915 169.763 69.385 167.258 69.385C166.163 69.385 165.218 69.505 164.198 69.805V67.855C164.768 67.795 165.068 67.75 165.563 67.66C166.598 67.48 166.883 67.435 167.153 67.39L167.093 65.71C166.328 65.95 165.323 66.145 164.198 66.28V65.32C164.198 64.48 164.213 64.165 164.288 63.685H162.413C162.488 64.165 162.503 64.555 162.503 65.41V66.4C162.338 66.4 162.263 66.4 161.903 66.415C161.693 66.43 161.528 66.43 161.378 66.43C160.583 66.43 159.983 66.385 159.563 66.295L159.578 67.975C159.713 67.96 159.833 67.96 159.893 67.96C159.938 67.96 160.073 67.96 160.268 67.975C160.448 67.975 160.868 67.99 161.093 67.99C161.468 67.99 161.678 67.99 161.903 67.975C162.398 67.945 162.398 67.945 162.518 67.945L162.533 70.255C161.543 70.675 160.883 71.065 160.343 71.53C159.518 72.25 159.053 73.045 159.053 73.75C159.053 74.395 159.338 74.98 159.878 75.445C160.628 76.09 161.768 76.51 162.713 76.51C163.418 76.51 163.958 76.165 164.093 75.64C164.183 75.34 164.213 74.98 164.213 74.365L164.198 71.41ZM162.518 74.14C162.518 74.635 162.443 74.77 162.188 74.77C161.903 74.77 161.528 74.65 161.228 74.44C160.883 74.23 160.733 74.005 160.733 73.75C160.733 73.21 161.393 72.55 162.518 71.95V74.14ZM172.208 67.81C171.413 66.64 170.543 65.74 169.238 64.735L167.828 65.68C168.983 66.55 170.078 67.735 170.828 68.92L172.208 67.81ZM179.573 73.345V75.37C179.573 76.225 179.543 76.66 179.468 77.245H181.343C181.268 76.72 181.238 76.27 181.238 75.37V73.345H184.733V74.2H186.518C186.458 73.765 186.443 73.375 186.443 72.655V66.82C186.443 66.175 186.458 65.845 186.518 65.395C185.978 65.44 185.648 65.455 184.793 65.455H181.238V64.96C181.238 64.24 181.268 63.835 181.343 63.385H179.483C179.558 63.88 179.573 64.24 179.573 65.02V65.455H176.123C175.373 65.455 175.013 65.44 174.458 65.395C174.518 65.845 174.533 66.22 174.533 66.835V72.655C174.533 73.315 174.518 73.735 174.458 74.2H176.228V73.345H179.573ZM179.573 66.955V68.635H176.228V66.955H179.573ZM181.238 66.955H184.733V68.635H181.238V66.955ZM179.573 70.12V71.845H176.228V70.12H179.573ZM181.238 70.12H184.733V71.845H181.238V70.12ZM196.478 65.455C196.403 66.49 196.343 66.925 196.193 67.54C195.893 68.815 195.323 70.045 194.528 71.11C193.913 71.92 193.463 72.37 192.548 73.03C193.103 73.555 193.328 73.795 193.733 74.335C194.738 73.525 195.203 73.045 195.758 72.28C196.598 71.155 197.018 70.21 197.393 68.62C197.903 70.255 198.323 71.17 199.073 72.175C199.763 73.09 200.378 73.69 201.473 74.515C201.788 73.87 202.043 73.45 202.463 72.94C200.828 71.77 199.928 70.735 199.163 69.085C198.518 67.72 198.173 66.205 198.173 64.735C198.173 64.48 198.173 64.27 198.203 63.925C197.918 63.97 197.588 63.985 197.108 63.985H194.963C194.363 63.985 194.048 63.97 193.718 63.91V65.53C194.093 65.47 194.453 65.455 194.963 65.455H196.478ZM188.933 64.735C190.103 65.785 190.583 66.31 191.513 67.57L192.758 66.355C192.023 65.395 191.213 64.555 190.133 63.61L188.933 64.735ZM188.708 70.675C189.083 70.615 189.308 70.6 189.728 70.6H190.643V73.825C189.998 74.395 189.053 75.025 188.408 75.295L189.143 77.005C189.218 76.945 189.218 76.945 189.368 76.825C189.473 76.735 189.563 76.66 189.818 76.465C190.523 75.925 190.883 75.61 191.363 75.13C191.948 75.895 192.488 76.3 193.268 76.54C194.048 76.795 195.263 76.885 197.723 76.885C198.758 76.885 200.933 76.84 202.268 76.795C202.373 76.105 202.463 75.73 202.718 75.01C201.233 75.22 199.328 75.325 197.153 75.325C194.573 75.325 193.793 75.22 193.073 74.77C192.578 74.44 192.443 74.29 192.218 73.81V70.675C192.218 69.835 192.233 69.52 192.278 69.025C191.933 69.085 191.588 69.1 191.138 69.1H189.908C189.338 69.1 189.098 69.085 188.708 69.025V70.675ZM205.703 66.1C206.003 66.055 206.273 66.04 206.888 66.01C208.358 65.95 208.718 65.935 209.483 65.875C209.108 67.255 208.928 67.825 208.538 69.01C207.278 69.055 206.483 69.25 205.703 69.73C204.518 70.465 203.843 71.635 203.843 73.015C203.843 74.65 204.863 75.865 206.243 75.865C207.068 75.865 207.743 75.4 208.298 74.44C208.733 73.69 209.123 72.73 209.783 70.75C211.208 70.99 212.093 71.275 213.158 71.785C212.918 72.55 212.423 73.36 211.823 74.005C211.208 74.65 210.623 75.04 209.498 75.58C210.083 76 210.233 76.15 210.863 76.93C211.718 76.48 212.468 75.925 213.128 75.235C213.893 74.44 214.343 73.705 214.763 72.595C215.528 73.03 216.398 73.615 216.833 73.99L217.508 72.01C217.283 71.905 217.223 71.89 216.818 71.65C216.353 71.38 215.693 71.035 215.213 70.795C215.363 69.835 215.438 68.935 215.483 67.615C215.498 67.045 215.513 66.925 215.573 66.61L213.683 66.535C213.728 66.835 213.743 67 213.743 67.33C213.743 68.725 213.713 69.34 213.593 70.105C212.453 69.61 211.448 69.325 210.278 69.16C210.413 68.695 211.328 65.935 211.403 65.755C211.508 65.47 211.583 65.305 211.718 65.125L210.533 64.105C210.338 64.225 210.233 64.255 209.933 64.285C209.378 64.36 208.043 64.42 207.143 64.42C206.348 64.42 205.973 64.405 205.628 64.345L205.703 66.1ZM208.073 70.585C207.758 71.56 207.398 72.49 207.098 73.09C206.753 73.765 206.528 74.035 206.243 74.035C205.838 74.035 205.508 73.54 205.508 72.925C205.508 72.4 205.703 71.89 206.078 71.485C206.543 70.975 207.068 70.735 208.073 70.585Z" fill="#00655A"/>
<defs>
<clipPath id="clip0">
<rect width="192.475" height="16.4133" fill="white" transform="translate(17.5 37)"/>
</clipPath>
</defs>
</svg>
