<svg width="315" height="80" viewBox="0 0 315 80" fill="none" xmlns="http://www.w3.org/2000/svg">
<rect width="315" height="80" fill="white"/>
<g clip-path="url(#clip0)">
<path d="M268.075 22.3211C268.075 21.9769 267.857 21.7249 267.589 21.7249H255.312C255.051 21.7249 254.82 21.983 254.82 22.3211V32.525H268.075V22.3211ZM257.59 26.5686H265.311V27.6689H257.59V26.5686ZM265.311 24.7922H257.596V23.6919H265.311V24.7922ZM257.59 29.4515H265.311V30.5456H257.59V29.4515ZM255.264 20.8336H267.547V16.1804C267.547 15.8361 267.334 15.578 267.061 15.578H255.756C255.489 15.578 255.264 15.8361 255.264 16.1804V20.8336ZM264.825 18.9034H257.991V17.5081H264.825V18.9034ZM259.255 32.6725C259.553 32.5618 259.704 32.6909 259.704 32.9614V34.8608C257.627 35.5984 255.786 36.0594 253.854 36.3852V34.1662C255.586 33.8404 257.481 33.3363 259.255 32.6725ZM263.386 32.6725C265.166 33.3363 267.049 33.8404 268.798 34.1662V36.3852C266.866 36.0656 265.026 35.6045 262.936 34.8608V32.9614C262.936 32.6909 263.094 32.5618 263.386 32.6725ZM254.195 26.8514C253.624 27.1034 252.998 27.3616 252.336 27.6197V34.1723C252.336 35.6967 251.601 36.3852 250.179 36.3852H247.761L247.555 34.0494H249.146C249.493 34.0494 249.699 33.7851 249.699 33.4408V28.5172C249.061 28.7077 248.436 28.8798 247.846 29.0212C247.555 29.095 247.409 28.9167 247.409 28.634V26.6116C248.187 26.4457 248.952 26.249 249.699 26.0523V21.7003H247.409V19.9914C247.409 19.6534 247.634 19.389 247.901 19.389H249.699V15.0063H252.336V19.389H253.715C253.982 19.389 254.201 19.6472 254.201 19.9914V21.7003H252.342V25.2409C252.998 25.0257 253.63 24.8045 254.201 24.577V26.8514H254.195ZM233.061 21.1532C233.322 21.1532 233.547 21.4175 233.547 21.7617V23.4644H230.096V24.0422C231.275 25.4314 232.575 26.8145 233.547 27.7058V30.644C232.465 29.7896 231.092 28.5233 230.096 27.423V36.3913H227.265V27.9271C225.947 30.0539 224.471 31.6951 222.727 33.0905V30.1707C224.228 28.5541 225.54 26.3903 226.731 23.4583H222.727V21.7617C222.727 21.4175 222.952 21.1532 223.22 21.1532H227.265V18.51C225.905 18.6637 224.556 18.7743 223.244 18.8297V16.6106C226.609 16.3463 230.054 15.787 232.915 15.0247C233.255 14.9264 233.48 15.1292 233.48 15.4919V17.3851C232.405 17.6556 231.269 17.8953 230.096 18.0982V21.1532H233.061ZM243.789 17.0163C243.789 16.6721 243.57 16.4139 243.297 16.4139H234.81C234.549 16.4139 234.33 16.6721 234.33 17.0163V35.5677H243.789V17.0163ZM237.276 18.719H240.842V33.2626H237.276V18.719ZM218.755 15.5841C219.022 15.5841 219.241 15.8361 219.241 16.1804V34.074C219.241 35.5984 218.554 36.2807 217.127 36.2807H213.628L213.433 33.9264H215.735C216.082 33.9264 216.288 33.6498 216.288 33.3179V17.8892H202.031V36.3913H199.072V16.1804C199.072 15.8361 199.291 15.5841 199.558 15.5841H218.755ZM215.061 22.0875H203.209V20.4832C203.209 20.139 203.428 19.8746 203.695 19.8746H214.581C214.849 19.8746 215.061 20.139 215.061 20.4832V22.0875ZM214.587 24.6139C214.587 24.2758 214.375 24.0176 214.101 24.0176H204.181C203.914 24.0176 203.689 24.2758 203.689 24.6139V32.2299H214.587V24.6139ZM206.581 26.2244H211.696V30.017H206.581V26.2244ZM293 25.8064C293 25.4683 292.781 25.2101 292.508 25.2101H286.458V23.5075H291.7V16.1742C291.7 15.8361 291.487 15.578 291.214 15.578H279.01C278.737 15.578 278.518 15.8361 278.518 16.1742V23.5075H283.675V25.2101H277.989C277.722 25.2101 277.503 25.4683 277.503 25.8064V27.5152H281.513C280.419 30.183 279.144 32.0332 277.503 33.5761V36.3913C280.128 34.5534 282.333 31.7873 283.675 28.6032V36.3913H286.458V28.4987C287.928 31.775 290.327 34.6456 292.994 36.3913V33.5761C291.269 32.0762 289.756 30.183 288.596 27.5152H293V25.8064ZM281.239 17.7785H288.997V21.2884H281.239V17.7785ZM277.686 15.7747C277.43 17.6372 276.951 19.4013 276.325 21.0303V36.3852H273.755V25.8924C273.032 26.9128 272.261 27.7918 271.495 28.468V25.0257C273.069 22.5117 274.387 19.1186 275.086 15.0063H277.127C277.552 15.0124 277.734 15.3874 277.686 15.7747ZM90.766 16.9303H93.9431C93.688 19.7947 93.4632 22.7821 93.4632 25.4745C93.4632 30.4534 93.8398 31.8918 95.0669 31.8918C96.452 31.8918 98.0132 31.3755 99.7931 30.5395V33.6191C98.1407 34.4305 96.452 34.9591 94.2468 34.9591C91.1366 34.9591 90.2982 32.4143 90.2982 25.4253C90.3043 22.7084 90.5169 19.764 90.766 16.9303ZM102.49 18.5961H105.625C108.03 22.6653 109.021 26.6239 108.966 32.568C108.972 33.1396 108.656 33.3855 108.188 33.3855H105.698C105.862 27.0358 104.799 23.4829 102.49 18.5961ZM45.4728 16.9303H48.6559C48.4008 19.7947 48.176 22.7821 48.176 25.4745C48.176 30.4534 48.5587 31.8918 49.7798 31.8918C51.1587 31.8918 52.7199 31.3755 54.4998 30.5395V33.6191C52.8536 34.4305 51.1648 34.9591 48.9597 34.9591C45.8494 34.9591 45.005 32.4143 45.005 25.4253C45.005 22.7084 45.2176 19.764 45.4728 16.9303ZM57.197 18.5961H60.3316C62.7372 22.6653 63.7274 26.6239 63.6727 32.568C63.6788 33.1396 63.3689 33.3855 62.8951 33.3855H60.4045C60.5685 27.0358 59.5054 23.4829 57.197 18.5961ZM135.877 27.4722C135.464 25.3269 134.893 22.7575 134.419 20.6983H137.049C137.481 22.2781 138.125 24.7614 138.592 26.7346C138.702 27.2509 138.55 27.4722 138.173 27.4722H135.877ZM140.919 27.4722C140.615 25.3269 140.202 22.6776 139.874 20.6983H142.498C142.845 22.3887 143.325 24.786 143.671 26.7346C143.756 27.2509 143.586 27.4722 143.209 27.4722H140.919ZM137.323 32.9245C144.807 31.6214 146.526 29.5929 146.836 20.6983H149.654C149.345 31.5476 146.198 34.0002 137.329 35.3341V32.9245H137.323ZM195.616 19.1001C193.295 20.4709 190.829 21.7003 188.332 22.7575V36.0471H184.991V24.0914C181.838 25.2347 178.722 26.1076 175.837 26.6362V23.8148C181.826 22.4502 188.679 19.6964 194.686 15.9898C195.166 15.7009 195.616 15.9898 195.616 16.4508V19.1001ZM112.447 34.6764V32.5188C112.447 32.0701 112.744 31.7566 113.194 31.7566H131.746C132.19 31.7566 132.487 32.0701 132.487 32.5188V34.6764H112.447ZM114.561 20.8581V18.7375C114.561 18.2887 114.864 17.9814 115.302 17.9752H129.748C130.191 17.9752 130.495 18.2887 130.495 18.7375V20.8581H114.561ZM164.696 26.3289C167.636 25.7142 169.051 24.7737 169.683 22.0814L159.799 22.4748V30.1891C159.799 31.6336 160.729 32.568 162.138 32.568H172.252V35.4017H161.932C158.432 35.4017 156.665 33.7359 156.665 30.4227V22.61L152.546 22.7698V20.6799C152.546 20.2373 152.85 19.9177 153.293 19.8992L156.665 19.7578V15.7255H159.799V19.6288L172.252 19.1309C172.69 19.1247 173.018 19.4075 172.994 19.8623C172.781 26.292 169.92 28.3574 164.689 29.1749V26.3289H164.696ZM78.2338 23.6673C77.432 23.6673 76.6544 23.7164 75.9133 23.8025V21.1839H80.2506V19.3706C80.2506 18.9219 79.9408 18.6207 79.5034 18.6207H75.9072V15.369H72.9184V18.6207H68.7998C68.3502 18.6207 68.0586 18.928 68.0586 19.3706V21.1839H72.9184V24.4049C69.4558 25.4806 67.2325 27.6689 67.2325 30.6379C67.2325 33.6437 69.4012 35.5984 73.0217 35.5984C75.075 35.5984 75.9072 34.3813 75.9072 32.4942V26.4518C76.5511 26.3781 77.2497 26.3412 78.0091 26.3412C81.496 26.3412 83.0511 27.7611 83.0511 29.599C83.0511 32.3405 81.338 33.2073 78.082 32.8077V35.4324C82.5287 35.9365 86.0399 34.492 86.0399 29.5253C86.0459 26.2859 83.4885 23.6673 78.2338 23.6673ZM72.9245 31.8918C72.9245 32.4819 72.724 32.8016 72.1044 32.8016C70.932 32.8016 70.0815 31.9533 70.0815 30.7301C70.0815 29.2302 71.017 27.9455 72.9245 27.1649V31.8918ZM85.8515 19.2354C86.1917 19.4136 86.4165 19.8685 86.4165 20.3172V22.653C84.5029 21.6081 82.9053 20.8274 81.2773 20.1328V17.4343C82.9357 17.9322 84.424 18.5039 85.8515 19.2354ZM32.8313 22.3457C32.1327 22.3457 31.4644 22.3887 30.8448 22.4563C30.857 21.8601 30.863 21.2638 30.8813 20.6676H40.4429V18.8481C40.4429 18.3994 40.1452 18.0982 39.6957 18.0859H30.9967C31.0514 17.1208 31.1243 16.1681 31.2032 15.2645H28.2813C28.1962 16.1558 28.1233 17.1085 28.0747 18.0859H22.978C22.5346 18.092 22.2308 18.3994 22.2308 18.8481V20.6676H27.9958C27.9836 21.4421 27.9836 22.235 27.9958 23.0219C23.7617 24.3557 22 27.3984 22 29.8633C22 33.3794 23.4397 35.039 25.979 35.039C28.9616 35.039 33.0985 31.7504 36.8892 25.8556C37.8976 26.5317 38.3896 27.5706 38.3896 28.9229C38.3896 32.1438 36.3242 33.2564 33.0196 33.281V35.7705C37.5999 35.832 41.348 34.1969 41.348 28.886C41.3541 24.6508 38.1223 22.3457 32.8313 22.3457ZM24.7458 30.0846C24.7458 28.2529 25.8271 26.5993 28.0808 25.6773C28.178 27.7488 28.3359 29.7281 28.5546 31.4247C27.6738 32.0025 26.8719 32.3221 26.2219 32.3221C25.3411 32.3221 24.7458 31.6152 24.7458 30.0846ZM31.0453 29.2917C30.9299 27.9947 30.8691 26.5379 30.8448 24.9889C31.4219 24.9335 32.0537 24.8905 32.7158 24.8905C33.3112 24.8905 33.864 24.9212 34.3682 24.9889C33.299 26.667 32.163 28.1238 31.0453 29.2917Z" fill="black"/>
<path d="M152.729 51.2446V55.068H155.79V55.8056H152.729V59.6228H156.805V60.3666H151.854V50.507H156.805V51.2446H152.729ZM90.7422 50.507H89.8613V60.3666H90.7422V50.507ZM94.302 60.3666V51.6441L94.3263 51.6134L98.3538 60.3727H99.6842V50.507H98.8033V59.1372L98.779 59.1618L94.7636 50.507H93.4272V60.3666H94.302ZM135.507 60.3666V51.6441L135.531 51.6134L139.559 60.3727H140.883V50.507H140.008V59.1372L139.978 59.1618L135.969 50.507H134.626V60.3666H135.507ZM107.527 53.0087C107.527 51.5888 107.095 50.3226 105.042 50.3226C103.426 50.3226 102.345 51.0294 102.357 52.7321C102.369 53.7156 102.448 54.3057 104.368 55.4798C105.789 56.3527 106.682 56.7338 106.682 58.0676C106.682 59.1987 106.123 59.8195 104.975 59.8195C103.208 59.8195 103.122 58.6823 103.122 57.5943H102.223C102.138 59.5183 103.001 60.551 104.933 60.551C106.658 60.551 107.557 59.6904 107.557 57.9324C107.557 56.0269 106.318 55.7564 105.097 54.8897C103.979 54.0844 103.232 54.0414 103.232 52.5846C103.232 51.4228 103.906 51.054 104.975 51.054C106.312 51.054 106.615 51.7855 106.64 53.0026H107.527V53.0087ZM181.244 50.3164C184.208 50.3164 184.232 52.769 184.232 55.4368C184.232 58.1045 184.208 60.5633 181.244 60.5633C178.285 60.5633 178.261 58.1045 178.261 55.4368C178.261 52.7752 178.285 50.3164 181.244 50.3164ZM181.244 59.8318C183.327 59.8318 183.358 58.0676 183.358 55.4429C183.358 52.8182 183.327 51.0602 181.244 51.0602C179.16 51.0602 179.136 52.8182 179.136 55.4429C179.136 58.0676 179.16 59.8318 181.244 59.8318ZM166.549 59.5429C166.081 59.7211 165.449 59.8318 164.696 59.8318C162.558 59.8318 162.588 57.9263 162.588 55.4429C162.588 52.9534 162.558 51.0602 164.696 51.0602C166.081 51.0602 166.646 51.7425 166.646 53.0395H167.521C167.563 51.1278 166.591 50.3287 164.696 50.3287C161.482 50.3287 161.707 53.5374 161.707 55.4491C161.707 57.3607 161.476 60.5756 164.696 60.5756C165.632 60.5756 166.549 60.4342 167.417 60.1637V55.2278H164.544V55.9654H166.549V59.5429ZM115.175 50.507V55.4429H115.181C115.181 58.0676 115.157 59.8318 113.067 59.8318C110.983 59.8318 110.965 58.0676 110.965 55.4429V50.507H110.084V55.4429C110.084 58.1107 110.114 60.5694 113.073 60.5694C116.037 60.5694 116.062 58.1107 116.062 55.4429V50.507H115.175ZM191.905 50.507V55.4429C191.905 58.0676 191.874 59.8318 189.791 59.8318C187.707 59.8318 187.689 58.0676 187.689 55.4429V50.507H186.814V55.4429C186.814 58.1107 186.838 60.5694 189.797 60.5694C192.755 60.5694 192.78 58.1107 192.78 55.4429V50.507H191.905ZM201.12 53.5804C201.12 54.1152 200.986 54.9573 200.251 55.7687C199.535 56.5678 198.672 56.66 197.761 56.66H196.236V60.3727H195.355V50.507H197.761C198.678 50.507 199.535 50.5992 200.251 51.3983C200.986 52.2158 201.12 53.0518 201.12 53.5804ZM200.245 53.5804C200.245 53.0764 200.112 52.4555 199.626 51.8962C199.225 51.429 198.763 51.2323 197.761 51.2323H196.236V55.9408H197.761C198.763 55.9408 199.225 55.7318 199.626 55.2647C200.112 54.7176 200.245 54.0906 200.245 53.5804ZM124.633 60.3727H123.704L122.367 56.6108C122.246 56.242 122.021 55.9961 121.359 55.9777C121.195 55.9777 119.542 55.9777 119.542 55.9777V60.3789H118.662V50.507H121.237C123.169 50.507 124.372 51.5581 124.372 53.2423C124.372 54.3979 123.807 55.2524 122.829 55.6765C122.993 55.8548 123.114 56.0637 123.206 56.3219L124.633 60.3727ZM121.237 55.2339C122.07 55.2339 123.497 54.9143 123.497 53.2423C123.497 51.5765 122.07 51.2507 121.237 51.2507H119.542V55.2339H121.237ZM176.11 60.3727H175.181L173.845 56.6108C173.723 56.242 173.498 55.9961 172.83 55.9777C172.66 55.9777 171.008 55.9777 171.008 55.9777V60.3789H170.139V50.507H172.715C174.646 50.507 175.843 51.5581 175.843 53.2423C175.843 54.3979 175.284 55.2524 174.306 55.6765C174.464 55.8548 174.592 56.0637 174.677 56.3219L176.11 60.3727ZM172.715 55.2339C173.547 55.2339 174.968 54.9143 174.968 53.2423C174.968 51.5765 173.547 51.2507 172.715 51.2507H171.014V55.2339H172.715ZM148.355 57.8463C148.179 59.088 147.693 59.8318 146.344 59.8318C144.261 59.8318 144.236 58.0676 144.236 55.4429C144.236 52.8182 144.261 51.0602 146.344 51.0602C147.693 51.0602 148.179 51.804 148.355 53.0333H149.23C149.017 51.4597 148.361 50.3226 146.344 50.3226C143.392 50.3226 143.355 52.7752 143.355 55.4429C143.355 58.1107 143.386 60.5694 146.344 60.5694C148.361 60.5694 149.023 59.4199 149.23 57.8463H148.355ZM130.009 50.507L132.664 60.3666H131.759L131.042 57.7111H127.737L127.014 60.3666H126.109L128.764 50.507H130.009ZM130.841 56.9673L129.39 51.5581L127.932 56.9673H130.841Z" fill="#00655A"/>
<path d="M84.4604 44.8516H22V66.003H84.4604V44.8516Z" fill="#00655A"/>
<path d="M33.3609 58.4074H33.3305L30.4815 50.4964H27.0371V50.5271C27.8876 50.8652 28.3857 51.5414 28.3857 52.6601V60.356H29.382V51.7258H29.4123L32.5104 60.356H33.6525L36.7202 51.6397H36.7506V60.356H38.6277V50.4964H36.1371L33.3609 58.4074ZM42.8436 52.4142C42.8436 51.4246 43.7062 51.0373 44.4837 51.0189C45.6076 50.9881 46.7557 51.4676 47.509 51.8671V50.6685C47.1688 50.5947 45.9295 50.2812 44.6964 50.2812C42.5034 50.2812 41.1305 51.2094 41.0758 52.8445C40.9604 56.1515 46.3001 55.9302 46.3001 58.1431C46.3001 59.2127 45.5225 59.8028 44.2894 59.8028C43.1655 59.8028 42.0113 59.2926 41.2155 58.7394V60.0855C41.5557 60.2638 42.795 60.5773 44.0342 60.5773C46.2515 60.5773 48.1164 59.8643 48.0678 57.6575C48.0071 54.4611 42.8436 54.6947 42.8436 52.4142ZM57.3257 58.1001C57.5323 57.6575 57.9393 56.8277 58.3827 55.6721H57.3683C57.3683 55.6721 56.9977 56.5818 56.6454 57.3993C55.7402 56.465 54.8655 55.5553 54.2641 54.916C55.23 54.3505 56.6636 53.7112 56.6636 52.2483C56.6636 51.3447 55.8739 50.2935 54.1122 50.3366C52.794 50.3735 51.8645 51.3016 51.7917 52.3896C51.7309 53.2563 52.144 53.8342 52.6421 54.3689C52.7332 54.4611 52.8912 54.6271 53.0977 54.8484C51.6337 55.6967 50.7711 56.6802 50.7286 57.9218C50.68 59.3848 51.8463 60.5834 53.8449 60.5834C55.2117 60.5834 56.2262 59.9565 56.9187 58.8685C57.7327 59.729 58.3402 60.3622 58.3402 60.3622H59.5734C58.9659 59.7659 58.158 58.9484 57.3257 58.1001ZM52.6664 52.3405C52.7029 51.5537 53.2617 50.9328 54.179 50.9205C55.072 50.9082 55.7524 51.4922 55.7524 52.3405C55.7524 53.3547 55.0356 53.8403 53.8267 54.4611C53.7659 54.3874 53.7052 54.3259 53.6566 54.2644C53.0005 53.5575 52.63 53.1027 52.6664 52.3405ZM56.208 58.3398C55.6795 59.3664 55.1692 59.9995 53.9178 59.9995C52.5267 59.9995 51.6337 59.0774 51.6823 57.7866C51.7248 56.6003 52.6664 55.8995 53.5594 55.3463C54.3066 56.1331 55.3514 57.2334 56.2748 58.2046C56.2566 58.2476 56.2323 58.2968 56.208 58.3398ZM74.4443 50.4964H70.2588V50.5271C71.1032 50.8591 71.6014 51.5414 71.6014 52.6601V60.3622H74.4443C77.4999 60.3622 79.7415 59.5815 79.7415 55.4323C79.7354 51.2832 77.4878 50.4964 74.4443 50.4964ZM74.6023 59.6122H73.3023V51.2525H74.6023C77.1537 51.2525 77.8766 52.8199 77.8766 55.4323C77.8766 58.0448 77.1597 59.6122 74.6023 59.6122ZM62.714 50.4964V50.5271C63.4369 50.8099 64.0687 51.4799 63.8257 52.1315C63.6009 52.7339 60.521 60.356 60.521 60.356H61.5477L62.7262 57.3625H66.9117L68.157 60.356H70.0159L65.8121 50.4902H62.714V50.4964ZM63.0299 56.5818L64.7491 52.1929L66.5776 56.5818H63.0299Z" fill="white"/>
</g>
<defs>
<clipPath id="clip0">
<rect width="271" height="50.9946" fill="white" transform="translate(22 15)"/>
</clipPath>
</defs>
</svg>
