<!-- 01EZTX9M3AWK0ZB16B6KYR56F1 -->

<svg width="316" height="122" viewBox="0 0 316 122" fill="none" xmlns="http://www.w3.org/2000/svg">
<path d="M27.05 26.2V19.63H29.87V18.325H25.58V26.2H27.05ZM32.27 27.865L32.735 27.265C33.74 26.08 34.805 24.76 35.435 23.935C36.065 23.08 36.125 23.035 36.395 23.035C36.665 23.035 36.68 23.05 37.655 24.1C39.74 26.35 41.165 27.79 42.59 29.05L44.03 30.355L44.84 28.63C44.495 28.435 44.225 28.24 43.475 27.595C41.735 26.125 40.085 24.52 38.51 22.765C37.385 21.52 37.085 21.295 36.395 21.295C35.645 21.295 35.21 21.61 34.34 22.75C33.605 23.725 32.15 25.45 31.715 25.885C31.535 26.065 31.415 26.155 31.19 26.305L32.27 27.865ZM42.215 19.885C41.255 19.885 40.49 20.665 40.49 21.625C40.49 22.585 41.255 23.365 42.215 23.365C43.175 23.365 43.955 22.585 43.955 21.625C43.955 20.665 43.175 19.885 42.215 19.885ZM42.215 20.605C42.785 20.605 43.235 21.07 43.235 21.625C43.235 22.18 42.77 22.645 42.215 22.645C41.66 22.645 41.21 22.18 41.21 21.625C41.21 21.07 41.66 20.605 42.215 20.605ZM48.065 22.945C48.725 24.13 49.07 25.03 49.445 26.455L50.87 25.99C50.3 24.325 50.015 23.62 49.385 22.525L48.065 22.945ZM51.23 22.315C51.86 23.485 52.31 24.625 52.595 25.735L53.99 25.285C53.6 24.025 53.33 23.38 52.535 21.925L51.23 22.315ZM56.405 22.21C56.405 22.675 56.315 23.2 56.105 23.92C55.445 26.32 54.425 27.88 52.67 29.155C51.8 29.785 51.2 30.115 50.165 30.52C50.705 31.015 50.87 31.21 51.185 31.75C53.255 30.715 54.545 29.71 55.61 28.285C56.6 26.98 57.305 25.315 57.74 23.275C57.83 22.84 57.845 22.78 57.935 22.555L56.405 22.21ZM66.425 31.585C66.365 31.03 66.335 30.46 66.335 29.665V26.125C66.335 25.975 66.32 25.51 66.32 25.375C66.29 25 66.29 25 66.29 24.79C66.515 24.94 66.515 24.94 66.77 25.045C67.58 25.39 69.215 26.2 70.355 26.815C71.15 27.25 71.54 27.49 72.215 27.955L73.085 26.47C70.58 25.045 68.48 24.055 66.335 23.305V20.77C66.335 19.93 66.365 19.42 66.425 18.94H64.655C64.73 19.36 64.745 19.705 64.745 20.74V29.665C64.745 30.565 64.73 30.94 64.655 31.585H66.425ZM84.02 21.25C84.71 21.295 85.115 21.4 85.625 21.67C86.945 22.375 87.68 23.62 87.68 25.18C87.68 26.995 86.675 28.57 85.07 29.26C84.425 29.53 83.75 29.695 82.58 29.875C82.985 30.4 83.12 30.655 83.345 31.345C84.365 31.15 84.95 30.985 85.655 30.7C87.905 29.77 89.225 27.76 89.225 25.255C89.225 22.015 86.93 19.87 83.435 19.87C81.35 19.87 79.625 20.575 78.395 21.925C77.345 23.08 76.775 24.595 76.775 26.2C76.775 28.48 77.945 30.145 79.535 30.145C80.705 30.145 81.62 29.275 82.49 27.295C83.21 25.675 83.75 23.485 84.02 21.25ZM82.49 21.265C82.295 23.05 81.785 25.15 81.2 26.53C80.615 27.895 80.06 28.555 79.52 28.555C78.8 28.555 78.23 27.52 78.23 26.215C78.23 24.505 79.07 22.9 80.435 21.985C81.08 21.55 81.665 21.355 82.49 21.265ZM94.955 24.58C95.39 24.505 95.45 24.505 96.77 24.415C99.02 24.295 101.39 24.085 103.085 23.86C103.355 24.355 103.46 24.58 103.82 25.33L105.08 24.655C103.805 22.375 103.31 21.625 102.02 20.08L100.85 20.605C101.615 21.52 101.945 21.955 102.47 22.78C100.955 22.96 99.365 23.08 97.655 23.155C98.42 21.805 98.945 20.77 99.47 19.51C99.62 19.165 99.665 19.045 99.77 18.85L98.195 18.4C97.97 19.51 97.16 21.355 96.11 23.2C95.675 23.2 95.555 23.2 95.465 23.2C95.15 23.2 95.03 23.185 94.73 23.155L94.955 24.58ZM91.94 19.615C93.035 20.305 93.785 20.89 94.61 21.715L95.465 20.65C94.46 19.735 93.965 19.345 92.795 18.58L91.94 19.615ZM91.175 23.365C92.255 24.01 92.9 24.505 93.86 25.36L94.655 24.22C93.545 23.35 93.035 22.99 91.97 22.375L91.175 23.365ZM93.65 26.335C92.945 28.51 92.225 29.98 91.385 30.94L92.615 31.99C92.69 31.825 92.765 31.705 92.915 31.42C93.665 30.1 94.16 28.96 94.79 27.145L93.65 26.335ZM97.31 31.36H102.26V32.155H103.715C103.655 31.795 103.625 31.315 103.625 30.475V27.295C103.625 26.455 103.64 26.095 103.685 25.735C103.34 25.78 102.89 25.795 102.185 25.795H97.31C96.71 25.795 96.32 25.78 95.9 25.735C95.945 26.14 95.96 26.545 95.96 27.16V30.67C95.96 31.36 95.945 31.765 95.9 32.155H97.31V31.36ZM97.31 27.07H102.26V30.085H97.31V27.07ZM118.085 25.78C118.61 26.08 118.88 26.215 119.525 26.485C119.69 26.005 119.795 25.78 120.095 25.3C119.195 25.03 118.745 24.85 118.04 24.445C118.52 24.07 118.685 23.92 119.33 23.32L118.31 22.69C118.01 23.125 117.695 23.455 117.185 23.86C116.6 23.395 116.39 23.17 115.955 22.57H118.13C118.805 22.57 119.195 22.585 119.6 22.645V21.385C119.15 21.445 118.76 21.46 118.085 21.46H114.455C114.575 21.19 114.62 21.115 114.74 20.875L113.315 20.755C113.285 20.98 113.27 21.055 113.15 21.46H111.125C110.435 21.46 110.135 21.445 109.745 21.4V22.63C110.105 22.585 110.45 22.57 111.08 22.57H112.625C112.34 23.005 112.07 23.335 111.665 23.74C111.335 23.425 111.05 23.17 110.51 22.75L109.73 23.41C110.225 23.755 110.48 23.965 110.9 24.4C110.435 24.76 109.955 25.03 109.325 25.33C109.385 24.22 109.4 23.605 109.4 22.87V20.515H118.175C118.925 20.515 119.285 20.53 119.81 20.59V19.3C119.345 19.36 118.85 19.39 118.04 19.39H114.335V19.255C114.335 18.85 114.365 18.61 114.425 18.325H112.865C112.925 18.61 112.94 18.865 112.94 19.255V19.39H109.82C109.085 19.39 108.56 19.375 108.035 19.315C108.11 19.915 108.11 20.44 108.11 23.005L108.095 25.09C107.135 25.645 106.325 26.005 105.755 26.11L106.19 27.445C106.295 27.385 106.415 27.31 106.49 27.265C106.865 27.085 107.51 26.71 108.02 26.38C107.84 28.48 107.315 29.86 106.22 31.105C106.7 31.45 106.865 31.615 107.255 32.095C108.02 31.045 108.35 30.43 108.695 29.335C109.07 28.195 109.22 27.28 109.325 25.465C109.58 25.795 109.685 25.975 109.895 26.395C110.42 26.065 110.465 26.05 110.75 25.855V27.475C110.75 28.195 110.735 28.405 110.705 28.81C111.125 28.765 111.44 28.75 112.085 28.75H113.69V30.64C113.69 30.955 113.615 31 113.09 31C112.58 31 112.055 30.94 111.455 30.835C111.665 31.33 111.74 31.615 111.77 32.095C112.37 32.155 112.865 32.17 113.42 32.17C114.62 32.17 115.01 31.885 115.01 31.045V28.75H116.855C117.38 28.75 117.725 28.765 118.13 28.81C118.085 28.39 118.085 28.21 118.085 27.46V25.78ZM112.7 24.175C113.165 23.665 113.54 23.17 113.885 22.57H114.68C115.16 23.32 115.415 23.635 115.955 24.175H112.7ZM111.965 25.18H116.87V25.99H111.965V25.18ZM111.965 26.935H116.87V27.775H111.965V26.935ZM105.905 21.49C106.415 22.465 106.67 23.125 107 24.295L108.005 23.65C107.615 22.45 107.375 21.88 106.865 20.95L105.905 21.49ZM116.06 29.455C117.11 30.67 117.785 31.27 119.045 32.02C119.285 31.585 119.54 31.24 119.81 30.94C118.61 30.31 117.98 29.815 117.05 28.78L116.06 29.455ZM111.11 28.78C110.465 29.815 109.88 30.34 108.62 31.09C108.965 31.36 109.115 31.51 109.505 32.02C110.705 31.225 111.335 30.61 112.22 29.395L111.11 28.78ZM130.31 22.57V21.88H132.395C132.965 21.88 133.355 21.895 133.835 21.925C133.79 21.61 133.79 21.475 133.79 20.95V20.38C133.79 19.87 133.805 19.63 133.85 19.3C133.505 19.345 132.98 19.375 132.41 19.375H130.31V19.3C130.31 18.91 130.325 18.715 130.385 18.4H129.005C129.065 18.7 129.08 18.895 129.08 19.285V19.375H127.145C127.16 18.91 127.175 18.595 127.205 18.4H125.84C125.885 18.745 125.9 18.91 125.915 19.375H123.35C122.615 19.375 122.27 19.36 121.895 19.3V20.425C122.255 20.38 122.72 20.35 123.35 20.35H125.885C125.87 20.59 125.87 20.695 125.84 20.995H123.845C123.23 20.995 122.87 20.98 122.54 20.95C122.375 21.91 122.12 22.69 121.685 23.545C122.09 23.515 122.57 23.5 122.975 23.5H124.835C124.1 24.16 123.08 24.565 121.115 24.985C121.43 25.375 121.565 25.6 121.745 26.065C122.465 25.825 122.72 25.735 123.11 25.585V28.6C123.11 29.29 123.095 29.83 123.05 30.115C123.455 30.085 124.01 30.07 124.67 30.07H125.555C124.235 30.745 123.185 31.045 121.295 31.285C121.67 31.66 121.85 31.93 122.06 32.395C124.175 31.975 125.105 31.645 126.71 30.715L125.915 30.07H130.25L129.395 30.715C130.355 31.27 130.85 31.51 131.78 31.81C132.575 32.08 133.1 32.215 134.15 32.395C134.405 31.9 134.48 31.795 134.93 31.24C133.67 31.12 132.92 30.985 131.975 30.685C131.435 30.505 131.225 30.415 130.58 30.07H131.495C132.14 30.07 132.725 30.085 133.115 30.115C133.07 29.74 133.055 29.26 133.055 28.54V26.035C133.055 25.51 133.055 25.45 133.07 24.97C133.67 24.955 133.925 24.88 134.135 24.67C134.345 24.46 134.42 24.175 134.57 23.23C134.615 22.825 134.615 22.825 134.675 22.525C134.33 22.555 134.06 22.57 133.325 22.57H130.31ZM131.57 24.445H125.33C125.795 24.1 125.99 23.905 126.275 23.5H129.08C129.065 23.86 129.065 23.935 129.02 24.145H130.37C130.34 23.95 130.325 23.815 130.31 23.5H133.265C133.19 24.055 133.16 24.1 132.8 24.1C132.605 24.1 132.305 24.04 131.96 23.935C132.05 24.16 132.065 24.235 132.125 24.445H131.57ZM125.705 21.88C125.615 22.195 125.585 22.3 125.48 22.57H123.365C123.455 22.36 123.455 22.345 123.62 21.88H125.705ZM129.08 21.88V22.57H126.725C126.815 22.285 126.86 22.15 126.92 21.88H129.08ZM129.08 20.35V20.995H127.055C127.085 20.725 127.085 20.62 127.115 20.35H129.08ZM130.31 20.35H132.5V20.995H130.31V20.35ZM124.4 25.39H131.765V26.05H124.4V25.39ZM124.4 26.905H131.765V27.565H124.4V26.905ZM124.4 28.42H131.765V29.11H124.4V28.42ZM144.02 21.25C144.71 21.295 145.115 21.4 145.625 21.67C146.945 22.375 147.68 23.62 147.68 25.18C147.68 26.995 146.675 28.57 145.07 29.26C144.425 29.53 143.75 29.695 142.58 29.875C142.985 30.4 143.12 30.655 143.345 31.345C144.365 31.15 144.95 30.985 145.655 30.7C147.905 29.77 149.225 27.76 149.225 25.255C149.225 22.015 146.93 19.87 143.435 19.87C141.35 19.87 139.625 20.575 138.395 21.925C137.345 23.08 136.775 24.595 136.775 26.2C136.775 28.48 137.945 30.145 139.535 30.145C140.705 30.145 141.62 29.275 142.49 27.295C143.21 25.675 143.75 23.485 144.02 21.25ZM142.49 21.265C142.295 23.05 141.785 25.15 141.2 26.53C140.615 27.895 140.06 28.555 139.52 28.555C138.8 28.555 138.23 27.52 138.23 26.215C138.23 24.505 139.07 22.9 140.435 21.985C141.08 21.55 141.665 21.355 142.49 21.265ZM151.985 22.675C152.06 22.675 152.12 22.675 152.15 22.675C152.36 22.675 152.615 22.675 152.84 22.69C153.05 22.705 153.17 22.705 153.275 22.705C153.59 22.705 154.355 22.69 154.49 22.69C153.905 25.645 152.81 28.915 151.745 30.85L153.32 31.48C154.205 29.26 154.565 28.225 155.015 26.665C155.405 25.3 155.81 23.65 155.99 22.63C156.725 22.585 157.775 22.45 158.48 22.3C158.81 22.24 158.81 22.24 158.93 22.225L158.855 20.785C158.15 21.01 157.385 21.145 156.245 21.265C156.32 20.875 156.335 20.725 156.41 20.275C156.59 19.195 156.59 19.195 156.695 18.85L155.03 18.7C155.045 18.79 155.045 18.865 155.045 18.91C155.045 19.36 154.91 20.395 154.73 21.325C154.4 21.34 154.175 21.34 153.845 21.34C152.975 21.34 152.555 21.31 152 21.205L151.985 22.675ZM163.64 23.17C162.755 23.155 162.515 23.155 162.095 23.155C160.58 23.155 159.83 23.245 157.835 23.635L157.955 25.03C159.425 24.7 160.4 24.58 161.825 24.58C162.53 24.58 162.95 24.595 163.67 24.67L163.64 23.17ZM157.925 26.365C157.115 27.445 156.845 28.045 156.845 28.765C156.845 29.53 157.235 30.205 157.895 30.58C158.585 30.97 159.515 31.15 160.79 31.15C161.645 31.15 162.335 31.09 163.52 30.895C163.895 30.835 163.985 30.835 164.225 30.79L164.105 29.23C163.25 29.545 161.855 29.77 160.745 29.77C159.185 29.77 158.345 29.335 158.345 28.555C158.345 28.315 158.42 28.015 158.54 27.76C158.645 27.535 158.765 27.37 159.155 26.89L157.925 26.365ZM168.53 19.825C168.62 20.02 168.65 20.11 168.68 20.305C168.905 21.46 169.085 22.36 169.175 22.72C167.6 23.875 166.79 25.435 166.79 27.28C166.79 29.155 167.765 30.43 169.19 30.43C170.165 30.43 171.17 29.785 172.175 28.51C173.3 27.085 174.35 24.94 174.965 22.81C176.765 23.245 177.71 24.34 177.71 25.96C177.71 27.595 176.765 28.825 174.98 29.56C174.185 29.875 173.54 30.025 172.61 30.115C173.105 30.73 173.225 30.955 173.405 31.585C174.53 31.345 175.07 31.195 175.76 30.895C177.98 29.965 179.225 28.21 179.225 26.065C179.225 23.755 177.8 22.105 175.325 21.55C175.355 21.445 175.475 21.01 175.67 20.215C175.775 19.765 175.865 19.465 175.94 19.315L174.35 19.015C174.335 19.465 174.215 20.08 173.915 21.37C173.78 21.37 173.66 21.37 173.6 21.37C172.43 21.37 171.485 21.565 170.45 22.015C170.255 21.19 170.075 20.08 170.06 19.525L168.53 19.825ZM169.55 24.175C169.85 25.45 170.225 26.515 170.855 27.865C170.27 28.585 169.73 28.96 169.265 28.96C168.62 28.96 168.17 28.255 168.17 27.22C168.17 26.065 168.605 25.105 169.55 24.175ZM170.735 23.38C171.545 22.93 172.415 22.69 173.225 22.69C173.3 22.69 173.405 22.69 173.555 22.69C173 24.355 172.565 25.36 171.98 26.35C171.89 26.47 171.845 26.56 171.8 26.68C171.77 26.575 171.755 26.53 171.68 26.32C171.245 25.24 171.065 24.67 170.735 23.38ZM183.26 19.09C183.23 19.48 183.2 19.645 183.05 20.425C182.585 22.66 182.405 24.28 182.405 26.275C182.405 27.85 182.51 28.96 182.795 30.7C182.84 31.015 182.855 31.105 182.87 31.36L184.415 31.255C184.4 31.105 184.4 30.985 184.4 30.925C184.4 29.95 184.925 28.165 185.69 26.56L184.655 26.095C184.07 27.46 183.98 27.745 183.845 28.405H183.815C183.815 28.27 183.815 27.82 183.815 27.055C183.83 25.75 183.935 24.16 184.1 22.96C184.28 21.505 184.61 20.065 184.925 19.3L183.26 19.09ZM186.605 22.24C186.77 22.255 186.815 22.27 187.025 22.285C187.685 22.375 188.36 22.405 189.215 22.405C190.31 22.405 191.465 22.33 192.395 22.21C193.25 22.105 193.34 22.09 193.445 22.09L193.37 20.56C192.515 20.83 191.015 20.98 189.17 20.98C188.03 20.98 187.415 20.92 186.62 20.74L186.605 22.24ZM187.655 24.895C186.74 25.99 186.305 26.935 186.305 27.835C186.305 28.375 186.47 28.93 186.77 29.305C187.4 30.13 188.57 30.535 190.37 30.535C191.375 30.535 192.32 30.445 193.46 30.25C193.79 30.19 193.835 30.19 194.03 30.16L193.895 28.555C192.995 28.915 191.705 29.11 190.37 29.11C188.675 29.11 187.79 28.615 187.79 27.685C187.79 27.025 188.12 26.365 188.87 25.495L187.655 24.895ZM204.065 25.24H201.44C200.795 25.24 200.3 25.21 199.85 25.15V26.575C200.285 26.515 200.84 26.485 201.44 26.485H203.495C202.88 27.325 202.61 27.64 201.98 28.21C201.095 29.005 200.285 29.56 199.265 30.085C199.76 30.61 199.805 30.685 200.15 31.315C200.885 30.88 201.365 30.535 202.055 29.92C203.03 29.08 203.495 28.525 204.11 27.46C204.065 28.315 204.05 28.855 204.05 29.08V30.745C204.05 31.24 204.02 31.72 203.96 32.17H205.475C205.415 31.735 205.385 31.27 205.385 30.76V29.095C205.385 28.675 205.37 28 205.34 27.475C205.97 28.48 206.405 28.99 207.245 29.725C207.83 30.25 208.295 30.58 209.315 31.24C209.63 30.67 209.825 30.37 210.2 29.905C209.195 29.455 208.52 29.02 207.665 28.315C206.945 27.7 206.57 27.325 205.925 26.485H208.22C208.685 26.485 209.225 26.515 209.765 26.575V25.15C209.3 25.21 208.745 25.24 208.19 25.24H205.385V23.845H207.335C207.56 23.845 207.8 23.845 208.07 23.86C208.25 23.86 208.37 23.875 208.415 23.875C208.655 23.875 208.67 23.875 208.85 23.89C208.805 23.5 208.79 23.14 208.79 22.525V20.47C208.79 19.825 208.805 19.51 208.85 19.06C208.43 19.12 207.98 19.135 207.2 19.135H202.565C201.74 19.135 201.335 19.12 200.915 19.06C200.96 19.495 200.975 19.84 200.975 20.41V22.495C200.975 23.095 200.96 23.485 200.915 23.905C201.335 23.86 201.77 23.845 202.46 23.845H204.065V25.24ZM202.28 20.35H207.455V22.63H202.28V20.35ZM197.75 30.4C197.75 31.12 197.72 31.57 197.66 32.17H199.13C199.085 31.6 199.055 31.06 199.055 30.415V22.3C199.595 21.235 199.955 20.365 200.195 19.585C200.345 19.12 200.39 18.985 200.48 18.76L199.055 18.31C198.995 18.805 198.77 19.615 198.485 20.365C197.825 22.045 196.985 23.365 195.785 24.55C196.13 25.105 196.145 25.135 196.475 25.96C197.105 25.27 197.39 24.895 197.795 24.205C197.765 25.015 197.75 25.36 197.75 25.915V30.4ZM219.485 22.99V24.055H217.505C216.755 24.055 216.62 24.055 216.2 24.01C216.245 24.505 216.245 24.58 216.245 25.045V27.145C216.245 27.415 216.245 27.625 216.215 27.925C216.215 27.955 216.215 28.045 216.2 28.12C216.635 28.075 216.995 28.06 217.565 28.06H218.96C218.315 29.575 216.965 30.52 214.805 31C215.195 31.375 215.405 31.675 215.645 32.2C217.94 31.435 219.26 30.4 219.98 28.795C220.82 30.25 222.305 31.405 224.33 32.125C224.57 31.6 224.75 31.3 225.11 30.88C223.94 30.535 223.22 30.22 222.5 29.74C221.795 29.26 221.255 28.72 220.82 28.06H222.695C223.31 28.06 223.715 28.075 224.12 28.12C224.075 27.565 224.075 27.49 224.075 26.95V25.165C224.075 24.79 224.09 24.595 224.12 24.01C223.745 24.04 223.4 24.055 222.785 24.055H220.715V22.99H221.72C222.32 22.99 222.62 23.005 222.98 23.035V22.285C223.445 22.585 223.82 22.78 224.54 23.125C224.765 22.585 224.975 22.27 225.35 21.85C223.22 21.13 221.735 20.035 220.7 18.445H219.32C218.81 19.33 218.18 20.05 217.28 20.755C216.74 21.175 215.99 21.64 215.39 21.91C215.465 21.76 215.705 21.145 216.125 20.08C216.185 19.93 216.275 19.735 216.35 19.585L215.675 18.835C215.45 18.88 215.195 18.895 214.715 18.895H212.72C212.255 18.895 211.91 18.88 211.625 18.85C211.655 19.315 211.67 19.66 211.67 20.125V30.535C211.67 31.24 211.64 31.69 211.58 32.125H213.065C213.005 31.675 212.99 31.33 212.99 30.55V20.095H214.79C214.355 21.505 213.95 22.54 213.365 23.74C213.905 24.31 214.115 24.61 214.31 25.195C214.49 25.69 214.595 26.305 214.595 26.845C214.595 27.55 214.46 27.7 213.83 27.7C213.68 27.7 213.455 27.67 213.14 27.625C213.35 28.03 213.455 28.375 213.485 28.93C213.605 28.945 213.695 28.945 213.755 28.945C214.34 28.945 214.805 28.87 215.12 28.72C215.6 28.495 215.855 27.955 215.855 27.16C215.855 26.56 215.81 26.08 215.69 25.6C215.495 24.805 215.255 24.355 214.625 23.59C214.925 23.005 215.015 22.84 215.24 22.285C215.54 22.6 215.66 22.765 215.855 23.2C216.545 22.855 216.845 22.675 217.4 22.27V23.035C217.76 23.005 218.075 22.99 218.675 22.99H219.485ZM219.47 25.18C219.44 25.87 219.395 26.275 219.29 26.905H217.415V25.18H219.47ZM222.86 25.18V26.905H220.52C220.61 26.305 220.64 26.005 220.685 25.18H222.86ZM218.675 21.835C218.345 21.835 218.18 21.835 217.97 21.82C218.885 21.055 219.47 20.425 220.07 19.525C220.715 20.44 221.36 21.1 222.335 21.82C222.05 21.835 221.915 21.835 221.72 21.835H218.675ZM230.24 20.59C228.875 20.59 228.065 20.545 227.315 20.41L227.285 21.835C227.39 21.82 227.465 21.82 227.51 21.82C227.54 21.82 227.555 21.82 227.6 21.82C227.81 21.82 228.095 21.835 228.47 21.85L229.925 21.865C229.925 21.865 230.12 21.865 230.18 21.865C229.745 22.585 229.43 23.095 229.25 23.38C228.44 24.55 227.54 25.585 226.835 26.11L227.99 27.265C228.275 26.83 228.62 26.455 229.22 25.945C230.405 24.925 231.515 24.385 232.415 24.385C233.03 24.385 233.36 24.7 233.435 25.345C230.84 26.455 229.595 27.655 229.595 29.05C229.595 29.845 229.985 30.52 230.645 30.895C231.38 31.315 232.37 31.495 233.885 31.495C235.1 31.495 236.51 31.39 237.62 31.225C237.95 31.165 238.025 31.165 238.28 31.15L238.13 29.53C237.185 29.905 235.55 30.145 233.975 30.145C231.875 30.145 231.095 29.815 231.095 28.915C231.095 28.12 231.77 27.52 233.615 26.68C233.615 26.83 233.615 26.95 233.615 27.04C233.615 27.85 233.57 28.69 233.525 28.99L234.98 28.96C234.95 28.735 234.935 28.51 234.935 28.225C234.935 28.12 234.935 27.955 234.95 27.7C234.95 27.475 234.95 27.19 234.95 26.995C234.95 26.725 234.95 26.725 234.935 26.185C237.035 25.405 238.04 25.09 238.88 24.94L238.265 23.5C238.025 23.65 237.965 23.68 237.2 23.935C236.795 24.07 235.985 24.37 234.77 24.82C234.665 24.28 234.485 23.965 234.155 23.68C233.81 23.38 233.27 23.2 232.7 23.2C231.89 23.2 231.08 23.47 230.42 23.98C230.21 24.13 230.21 24.13 230.105 24.22L230.09 24.19C230.72 23.545 231.185 22.87 231.71 21.85C233.18 21.82 235.115 21.685 236.165 21.55C237.005 21.445 237.005 21.445 237.335 21.415L237.245 19.99C236.45 20.23 234.86 20.44 233.255 20.5C232.85 20.53 232.58 20.545 232.505 20.545C232.475 20.545 232.445 20.545 232.43 20.545C232.355 20.56 232.355 20.56 232.31 20.56C232.34 20.5 232.385 20.395 232.43 20.305C232.73 19.6 232.73 19.6 232.895 19.21C232.955 19.06 232.985 19 233.075 18.865L231.425 18.655C231.38 19.135 231.2 19.66 230.78 20.59H230.24ZM248.765 26.71C248.63 27.385 248.48 27.82 248.21 28.33C247.7 27.865 247.34 27.415 247.16 27.025L246.02 27.67C246.08 27.73 246.11 27.775 246.14 27.805C246.845 28.645 247.055 28.87 247.49 29.275C246.665 30.025 245.765 30.49 244.205 30.955C244.49 31.285 244.745 31.645 245 32.125C246.71 31.48 247.535 30.985 248.465 30.04C250.115 31.135 251.915 31.735 254.39 32.05C254.525 31.6 254.735 31.075 254.975 30.67C252.515 30.505 250.76 30.025 249.215 29.08C249.62 28.42 249.86 27.715 250.055 26.71H252.59C253.28 26.71 253.655 26.725 254.06 26.77C254.03 26.425 254.015 26.17 254.015 25.48V23.62C254.015 23.095 254.03 22.735 254.06 22.375C253.655 22.405 253.325 22.42 252.65 22.42H250.37C250.37 21.895 250.37 21.895 250.37 21.175H253.355C253.955 21.175 254.36 21.19 254.81 21.25V19.87C254.33 19.93 253.85 19.96 253.205 19.96H250.37C250.37 19.09 250.385 18.775 250.43 18.37H248.945C249.02 18.85 249.035 19.105 249.05 19.96H246.56C245.99 19.96 245.435 19.93 245.015 19.87V21.25C245.42 21.19 245.84 21.175 246.44 21.175H249.05C249.065 21.625 249.065 22 249.065 22.015C249.065 22.12 249.065 22.12 249.05 22.42H246.68C245.945 22.42 245.72 22.405 245.315 22.375C245.345 22.735 245.36 22.96 245.36 23.56V25.615C245.36 26.08 245.345 26.365 245.315 26.77C245.705 26.725 246.05 26.71 246.575 26.71H248.765ZM249.035 23.62C249.005 24.505 248.99 24.85 248.93 25.525H246.665V23.62H249.035ZM252.695 23.62V25.525H250.205C250.28 24.805 250.295 24.43 250.325 23.62H252.695ZM242.57 30.445C242.57 31.195 242.54 31.645 242.48 32.215H243.965C243.92 31.645 243.89 31.105 243.89 30.46V22.075C244.295 21.16 244.52 20.59 244.7 20.05C244.955 19.285 244.955 19.285 245.15 18.685L243.71 18.34C243.44 20.35 242.225 22.945 240.8 24.52C241.1 25 241.25 25.33 241.445 25.915C242.015 25.18 242.27 24.775 242.615 24.1C242.585 24.955 242.57 25.255 242.57 25.825V30.445ZM264.47 20.86C263.69 21.13 262.43 21.385 261.515 21.46V20.305C261.515 19.54 261.53 19.225 261.605 18.775H260.015C260.09 19.225 260.105 19.645 260.105 20.38V21.565C259.94 21.58 259.91 21.58 259.52 21.595C259.28 21.61 259.115 21.61 258.89 21.61C258.125 21.61 257.57 21.565 257.165 21.49V22.885C257.3 22.87 257.405 22.87 257.465 22.87C257.51 22.87 257.63 22.87 257.825 22.885C257.99 22.885 258.425 22.9 258.665 22.9C259.055 22.9 259.28 22.9 259.52 22.885C260 22.855 260 22.855 260.12 22.84V25.375C259.145 25.795 258.5 26.17 257.975 26.62C257.165 27.325 256.73 28.06 256.73 28.75C256.73 29.35 257 29.89 257.495 30.325C258.215 30.955 259.28 31.36 260.195 31.36C260.825 31.36 261.305 31.045 261.44 30.55C261.5 30.28 261.53 29.995 261.53 29.395L261.515 26.32C262.655 25.945 263.585 25.78 264.485 25.78C266.255 25.78 267.395 26.65 267.395 28.015C267.395 29.095 266.675 29.875 265.685 29.875C265.1 29.875 264.71 29.62 264.515 29.125C264.425 28.87 264.365 28.375 264.365 27.835C264.365 27.64 264.365 27.535 264.395 27.25C263.855 27.55 263.645 27.625 263 27.805C263 28.645 263.06 29.125 263.225 29.635C263.57 30.715 264.425 31.315 265.625 31.315C267.485 31.315 268.895 29.89 268.895 28.015C268.895 26.875 268.34 25.855 267.35 25.21C266.63 24.745 265.7 24.505 264.56 24.505C263.57 24.505 262.58 24.655 261.515 24.97V22.765C262.22 22.69 262.715 22.615 263.6 22.435C264.08 22.345 264.155 22.33 264.53 22.285L264.47 20.86ZM260.12 29.23C260.12 29.785 260.06 29.92 259.79 29.92C259.46 29.92 259.025 29.77 258.68 29.545C258.305 29.305 258.125 29.05 258.125 28.765C258.125 28.165 258.83 27.445 260.12 26.785V29.23ZM269.54 22.9C268.715 21.73 267.89 20.92 266.555 19.915L265.4 20.71C266.555 21.55 267.65 22.69 268.415 23.83L269.54 22.9ZM274.43 20.38C276.56 20.935 278.525 21.22 281.135 21.34L281.36 19.825C278.765 19.81 276.56 19.51 274.925 18.925L274.43 20.38ZM273.005 25.33C274.235 24.82 277.22 24.31 278.93 24.31C279.785 24.31 280.355 24.46 280.79 24.805C281.165 25.105 281.39 25.57 281.39 26.065C281.39 27.07 280.895 27.985 279.98 28.645C278.84 29.485 277.025 30.04 275.09 30.145C275.45 30.7 275.555 30.97 275.735 31.69C278.105 31.3 279.125 30.985 280.31 30.28C282.065 29.26 283.055 27.745 283.055 26.095C283.055 24.97 282.56 24.025 281.66 23.485C281.03 23.095 280.085 22.885 278.945 22.885C277.715 22.885 276.365 23.035 274.28 23.41C273.005 23.635 273.005 23.635 272.63 23.665L273.005 25.33ZM288.965 24.4V30.97H286.145V32.275H290.435V24.4H288.965ZM50.5218 42.06C50.6118 42.285 50.6118 42.3 50.7618 43.035C51.1818 45.03 51.4068 45.93 51.8118 47.145C50.8518 47.64 50.3868 47.925 49.8018 48.42C48.9468 49.125 48.4668 50.07 48.4668 51.015C48.4668 52.065 48.9318 52.935 49.7418 53.415C50.6718 53.955 51.9168 54.18 53.9268 54.18C54.9918 54.18 55.7718 54.135 57.3618 53.97C58.1718 53.88 58.2168 53.88 58.5318 53.865L58.3968 52.14C57.3618 52.485 55.5918 52.71 53.8518 52.71C52.8918 52.71 51.9618 52.635 51.4818 52.515C50.5368 52.275 50.0718 51.795 50.0718 51.06C50.0718 49.905 51.2118 48.9 53.5068 48.015C55.1268 47.4 57.0768 46.8 58.2918 46.56L57.7218 44.985C57.5118 45.09 57.4218 45.12 57.1668 45.21L55.1568 45.885C54.3918 46.155 53.9268 46.32 53.2068 46.605C52.7268 45.09 52.2168 42.81 52.1568 41.79L50.5218 42.06ZM67.7568 46.785C66.0918 47.79 63.6318 48.825 61.4868 49.44C61.8918 49.935 62.0718 50.205 62.2518 50.655C63.6618 50.115 64.6818 49.695 65.9268 49.095C65.5368 50.205 65.1768 50.985 64.3668 52.41L65.8368 52.665C66.1068 52.14 66.1818 51.96 66.3318 51.63H71.8368C71.6268 53.595 71.4618 53.88 70.5468 53.88C69.9468 53.88 68.7168 53.76 67.9668 53.61C68.1918 54.195 68.2368 54.42 68.2818 54.99C69.3018 55.095 69.9318 55.125 70.5168 55.125C71.6718 55.125 72.2118 54.96 72.5418 54.495C72.8718 54.015 73.0368 53.28 73.2768 51.21C73.3518 50.625 73.3518 50.625 73.3968 50.37C73.0518 50.415 72.7218 50.43 71.7768 50.43H66.8268C66.9468 50.1 66.9768 50.01 67.0968 49.65C69.4218 49.455 71.3718 49.215 72.7968 48.93C73.4268 48.81 73.6518 48.765 73.8168 48.735C73.9968 48.705 74.0118 48.705 74.1468 48.675L73.2618 47.49C72.9618 47.625 72.5118 47.76 71.8068 47.895C70.4418 48.18 69.6768 48.285 67.4418 48.495C67.4718 48.39 67.4718 48.39 67.5018 48.27C68.4018 47.76 69.0618 47.37 69.8868 46.785H73.4118C74.1318 46.785 74.6868 46.815 75.1668 46.875V45.495C74.7768 45.555 74.2518 45.585 73.4268 45.585H71.4768C72.5268 44.73 73.3818 43.875 74.1318 43.005C74.3418 42.75 74.3568 42.735 74.4618 42.615L73.2468 41.775C72.9318 42.375 72.2568 43.185 71.4318 43.995V42.87C71.0268 42.93 70.5618 42.96 69.7518 42.96H68.4918V42.735C68.4918 42.12 68.5218 41.775 68.5818 41.43H67.0668C67.1268 41.835 67.1568 42.165 67.1568 42.735V42.96H64.9968C64.1868 42.96 63.7068 42.93 63.3168 42.87V44.22C63.7968 44.16 64.1868 44.145 64.9968 44.145H67.1568V45.585H63.6468C62.7768 45.585 62.2068 45.555 61.8168 45.495V46.875C62.2818 46.815 62.8968 46.785 63.6618 46.785H67.7568ZM68.4918 45.585V44.145H69.8718C70.5168 44.145 70.8168 44.16 71.2218 44.19C70.7718 44.61 70.2318 45.045 69.5118 45.585H68.4918ZM79.9668 43.23C81.9918 43.8 83.1618 43.98 85.9368 44.175L86.1918 42.78C83.9868 42.735 82.1118 42.45 80.4318 41.91L79.9668 43.23ZM78.7218 47.265C79.2318 47.19 79.2918 47.175 79.8018 47.145C83.1618 46.875 83.1618 46.875 84.3018 46.65C84.0318 46.92 84.0318 46.92 83.7318 47.19C83.1618 47.73 83.0268 47.865 82.0668 48.795C81.1518 49.71 80.2668 50.535 78.7518 51.93C77.9268 52.695 77.7018 52.875 77.1618 53.25L78.3168 54.54C78.8418 53.925 79.7568 52.98 80.4918 52.29C81.7068 51.12 82.4118 50.7 83.1618 50.7C83.4468 50.7 83.7018 50.82 83.8068 51.03C83.8968 51.21 83.9268 51.435 83.9718 52.02C84.0318 53.025 84.0918 53.295 84.2868 53.64C84.6468 54.27 85.3218 54.54 86.5218 54.54C87.2118 54.54 87.7368 54.495 88.6368 54.345C89.6868 54.18 89.7018 54.18 89.9118 54.165L89.7168 52.59C88.9368 52.95 87.7668 53.175 86.7168 53.175C86.1468 53.175 85.8318 53.085 85.6518 52.86C85.4718 52.65 85.4118 52.35 85.3518 51.585C85.2768 50.73 85.2168 50.475 84.9768 50.16C84.6918 49.8 84.3018 49.62 83.8518 49.62C83.4618 49.62 83.1918 49.695 82.6668 49.935C83.2668 49.47 84.3918 48.45 85.3818 47.475C86.1318 46.74 86.4018 46.5 86.6868 46.305L85.8318 45.21C85.6218 45.285 85.4118 45.33 85.0518 45.39C83.6868 45.57 81.0018 45.75 79.7118 45.75C79.1268 45.75 79.0518 45.75 78.6318 45.72L78.7218 47.265ZM99.5118 48.24H96.8868C96.2418 48.24 95.7468 48.21 95.2968 48.15V49.575C95.7318 49.515 96.2868 49.485 96.8868 49.485H98.9418C98.3268 50.325 98.0568 50.64 97.4268 51.21C96.5418 52.005 95.7318 52.56 94.7118 53.085C95.2068 53.61 95.2518 53.685 95.5968 54.315C96.3318 53.88 96.8118 53.535 97.5018 52.92C98.4768 52.08 98.9418 51.525 99.5568 50.46C99.5118 51.315 99.4968 51.855 99.4968 52.08V53.745C99.4968 54.24 99.4668 54.72 99.4068 55.17H100.922C100.862 54.735 100.832 54.27 100.832 53.76V52.095C100.832 51.675 100.817 51 100.787 50.475C101.417 51.48 101.852 51.99 102.692 52.725C103.277 53.25 103.742 53.58 104.762 54.24C105.077 53.67 105.272 53.37 105.647 52.905C104.642 52.455 103.967 52.02 103.112 51.315C102.392 50.7 102.017 50.325 101.372 49.485H103.667C104.132 49.485 104.672 49.515 105.212 49.575V48.15C104.747 48.21 104.192 48.24 103.637 48.24H100.832V46.845H102.782C103.007 46.845 103.247 46.845 103.517 46.86C103.697 46.86 103.817 46.875 103.862 46.875C104.102 46.875 104.117 46.875 104.297 46.89C104.252 46.5 104.237 46.14 104.237 45.525V43.47C104.237 42.825 104.252 42.51 104.297 42.06C103.877 42.12 103.427 42.135 102.647 42.135H98.0118C97.1868 42.135 96.7818 42.12 96.3618 42.06C96.4068 42.495 96.4218 42.84 96.4218 43.41V45.495C96.4218 46.095 96.4068 46.485 96.3618 46.905C96.7818 46.86 97.2168 46.845 97.9068 46.845H99.5118V48.24ZM97.7268 43.35H102.902V45.63H97.7268V43.35ZM93.1968 53.4C93.1968 54.12 93.1668 54.57 93.1068 55.17H94.5768C94.5318 54.6 94.5018 54.06 94.5018 53.415V45.3C95.0418 44.235 95.4018 43.365 95.6418 42.585C95.7918 42.12 95.8368 41.985 95.9268 41.76L94.5018 41.31C94.4418 41.805 94.2168 42.615 93.9318 43.365C93.2718 45.045 92.4318 46.365 91.2318 47.55C91.5768 48.105 91.5918 48.135 91.9218 48.96C92.5518 48.27 92.8368 47.895 93.2418 47.205C93.2118 48.015 93.1968 48.36 93.1968 48.915V53.4ZM114.932 45.99V47.055H112.952C112.202 47.055 112.067 47.055 111.647 47.01C111.692 47.505 111.692 47.58 111.692 48.045V50.145C111.692 50.415 111.692 50.625 111.662 50.925C111.662 50.955 111.662 51.045 111.647 51.12C112.082 51.075 112.442 51.06 113.012 51.06H114.407C113.762 52.575 112.412 53.52 110.252 54C110.642 54.375 110.852 54.675 111.092 55.2C113.387 54.435 114.707 53.4 115.427 51.795C116.267 53.25 117.752 54.405 119.777 55.125C120.017 54.6 120.197 54.3 120.557 53.88C119.387 53.535 118.667 53.22 117.947 52.74C117.242 52.26 116.702 51.72 116.267 51.06H118.142C118.757 51.06 119.162 51.075 119.567 51.12C119.522 50.565 119.522 50.49 119.522 49.95V48.165C119.522 47.79 119.537 47.595 119.567 47.01C119.192 47.04 118.847 47.055 118.232 47.055H116.162V45.99H117.167C117.767 45.99 118.067 46.005 118.427 46.035V45.285C118.892 45.585 119.267 45.78 119.987 46.125C120.212 45.585 120.422 45.27 120.797 44.85C118.667 44.13 117.182 43.035 116.147 41.445H114.767C114.257 42.33 113.627 43.05 112.727 43.755C112.187 44.175 111.437 44.64 110.837 44.91C110.912 44.76 111.152 44.145 111.572 43.08C111.632 42.93 111.722 42.735 111.797 42.585L111.122 41.835C110.897 41.88 110.642 41.895 110.162 41.895H108.167C107.702 41.895 107.357 41.88 107.072 41.85C107.102 42.315 107.117 42.66 107.117 43.125V53.535C107.117 54.24 107.087 54.69 107.027 55.125H108.512C108.452 54.675 108.437 54.33 108.437 53.55V43.095H110.237C109.802 44.505 109.397 45.54 108.812 46.74C109.352 47.31 109.562 47.61 109.757 48.195C109.937 48.69 110.042 49.305 110.042 49.845C110.042 50.55 109.907 50.7 109.277 50.7C109.127 50.7 108.902 50.67 108.587 50.625C108.797 51.03 108.902 51.375 108.932 51.93C109.052 51.945 109.142 51.945 109.202 51.945C109.787 51.945 110.252 51.87 110.567 51.72C111.047 51.495 111.302 50.955 111.302 50.16C111.302 49.56 111.257 49.08 111.137 48.6C110.942 47.805 110.702 47.355 110.072 46.59C110.372 46.005 110.462 45.84 110.687 45.285C110.987 45.6 111.107 45.765 111.302 46.2C111.992 45.855 112.292 45.675 112.847 45.27V46.035C113.207 46.005 113.522 45.99 114.122 45.99H114.932ZM114.917 48.18C114.887 48.87 114.842 49.275 114.737 49.905H112.862V48.18H114.917ZM118.307 48.18V49.905H115.967C116.057 49.305 116.087 49.005 116.132 48.18H118.307ZM114.122 44.835C113.792 44.835 113.627 44.835 113.417 44.82C114.332 44.055 114.917 43.425 115.517 42.525C116.162 43.44 116.807 44.1 117.782 44.82C117.497 44.835 117.362 44.835 117.167 44.835H114.122ZM123.707 42.09C123.677 42.48 123.647 42.645 123.497 43.425C123.032 45.66 122.852 47.28 122.852 49.275C122.852 50.85 122.957 51.96 123.242 53.7C123.287 54.015 123.302 54.105 123.317 54.36L124.862 54.255C124.847 54.105 124.847 53.985 124.847 53.925C124.847 52.95 125.372 51.165 126.137 49.56L125.102 49.095C124.517 50.46 124.427 50.745 124.292 51.405H124.262C124.262 51.27 124.262 50.82 124.262 50.055C124.277 48.75 124.382 47.16 124.547 45.96C124.727 44.505 125.057 43.065 125.372 42.3L123.707 42.09ZM127.052 45.24C127.217 45.255 127.262 45.27 127.472 45.285C128.132 45.375 128.807 45.405 129.662 45.405C130.757 45.405 131.912 45.33 132.842 45.21C133.697 45.105 133.787 45.09 133.892 45.09L133.817 43.56C132.962 43.83 131.462 43.98 129.617 43.98C128.477 43.98 127.862 43.92 127.067 43.74L127.052 45.24ZM128.102 47.895C127.187 48.99 126.752 49.935 126.752 50.835C126.752 51.375 126.917 51.93 127.217 52.305C127.847 53.13 129.017 53.535 130.817 53.535C131.822 53.535 132.767 53.445 133.907 53.25C134.237 53.19 134.282 53.19 134.477 53.16L134.342 51.555C133.442 51.915 132.152 52.11 130.817 52.11C129.122 52.11 128.237 51.615 128.237 50.685C128.237 50.025 128.567 49.365 129.317 48.495L128.102 47.895ZM140.462 44.13C140.537 41.79 140.537 41.79 140.597 41.43H139.067C139.142 41.805 139.172 42.15 139.172 42.735C139.172 43.545 139.172 43.605 139.142 44.13H138.392C137.627 44.13 137.147 44.1 136.742 44.04V45.525C137.162 45.465 137.627 45.435 138.272 45.435H139.097C138.917 48.12 138.512 49.935 137.732 51.555C137.297 52.47 136.967 52.935 136.262 53.76C136.697 54.15 136.967 54.465 137.312 55.005C138.542 53.415 139.247 52.02 139.727 50.13C140.117 48.675 140.297 47.385 140.417 45.435H142.157C142.142 47.49 142.127 47.535 142.067 48.93C141.977 50.535 141.827 51.915 141.647 52.635C141.512 53.235 141.377 53.355 140.882 53.355C140.507 53.355 139.937 53.28 139.307 53.145C139.472 53.715 139.502 53.88 139.547 54.495C140.177 54.585 140.792 54.63 141.212 54.63C142.367 54.63 142.742 54.255 143.012 52.86C143.297 51.45 143.462 49.185 143.492 46.305C143.507 44.55 143.507 44.55 143.567 44.07C143.117 44.115 142.667 44.13 141.932 44.13H140.462ZM145.937 53.565H148.517V54.63H149.942C149.882 54.18 149.852 53.7 149.852 53.055V44.67C149.852 43.965 149.867 43.575 149.927 43.095C149.492 43.155 149.192 43.17 148.592 43.17H145.862C145.307 43.17 144.962 43.155 144.527 43.095C144.587 43.62 144.602 43.965 144.602 44.67V53.01C144.602 53.655 144.572 54.3 144.512 54.72H145.937V53.565ZM145.937 44.415H148.517V52.32H145.937V44.415ZM157.742 43.575C157.682 44.85 157.562 45.63 157.247 46.725C156.782 48.315 155.927 49.845 154.772 51.12C153.752 52.26 152.972 52.89 151.577 53.715C152.072 54.12 152.357 54.45 152.642 55.005C154.307 53.865 155.462 52.8 156.437 51.465C157.442 50.1 158.057 48.765 158.567 46.8C158.987 48.465 159.572 49.755 160.502 51.09C161.582 52.635 162.767 53.82 164.417 54.975C164.792 54.315 164.987 54.06 165.512 53.565C164.357 52.875 163.862 52.515 163.052 51.72C162.062 50.775 161.312 49.815 160.712 48.75C159.737 46.995 159.242 45.105 159.242 43.095C159.242 42.795 159.257 42.495 159.287 42.15C158.942 42.21 158.582 42.225 157.907 42.225H155.687C155.072 42.225 154.757 42.21 154.397 42.15V43.65C154.937 43.605 155.342 43.575 155.702 43.575H157.742ZM169.172 42.12C169.217 42.465 169.232 42.66 169.232 43.02C169.232 43.29 169.232 43.575 169.217 44.04C169.112 48.435 169.097 49.245 169.097 50.115C169.097 52.05 169.502 53.115 170.477 53.805C171.077 54.225 172.007 54.465 173.042 54.465C174.842 54.465 176.297 53.835 177.407 52.575C178.097 51.78 178.532 50.85 179.132 48.915C178.517 48.63 178.277 48.48 177.617 47.925C177.437 48.99 177.257 49.635 176.912 50.385C176.147 52.05 174.812 52.98 173.162 52.98C172.157 52.98 171.407 52.68 171.047 52.14C170.732 51.66 170.642 51.105 170.642 49.71C170.642 48.69 170.732 45.375 170.792 44.085C170.837 42.99 170.882 42.57 170.957 42.15L169.172 42.12ZM181.448 45.42C182.228 45.255 183.503 45.135 186.113 44.955C187.703 44.85 188.303 44.79 189.353 44.625C188.498 45.03 188.153 45.27 187.553 45.825C186.248 47.04 185.588 48.375 185.588 49.8C185.588 51.24 186.278 52.44 187.538 53.205C188.423 53.745 189.293 54.015 190.928 54.255C191.168 54.3 191.228 54.315 191.423 54.345L191.648 52.65C191.528 52.665 191.438 52.665 191.378 52.665C190.853 52.665 189.863 52.47 189.173 52.245C187.883 51.81 187.133 50.865 187.133 49.665C187.133 48.045 188.393 46.425 190.433 45.405C191.348 44.955 192.398 44.685 193.238 44.685C193.298 44.685 193.388 44.685 193.493 44.685L193.388 43.11C193.133 43.17 192.683 43.215 191.648 43.26C188.123 43.41 184.553 43.62 182.798 43.74C182.363 43.785 182.198 43.785 181.883 43.785C181.643 43.785 181.643 43.785 181.358 43.77L181.448 45.42ZM196.823 43.125C196.853 43.44 196.868 43.53 196.868 44.04C196.943 47.685 197.153 49.68 197.648 51.21C198.173 52.815 199.073 53.775 200.063 53.775C201.263 53.775 202.043 52.65 202.808 49.845C202.193 49.38 201.998 49.2 201.563 48.69C201.383 49.71 201.128 50.55 200.783 51.345C200.573 51.795 200.348 52.035 200.108 52.035C199.583 52.035 199.058 51.045 198.758 49.485C198.578 48.54 198.443 46.65 198.443 45.12C198.443 44.235 198.473 43.665 198.563 43.125H196.823ZM204.398 44.49C205.298 45.57 206.003 46.725 206.513 48.045C207.053 49.38 207.398 50.88 207.503 52.26L209.048 51.66C208.583 48.435 207.593 46.11 205.703 43.845L204.398 44.49ZM213.413 44.07C213.713 44.025 213.833 44.01 214.163 43.995C216.443 43.905 218.048 43.8 218.588 43.725L218.603 43.74C218.558 43.785 218.393 43.95 218.348 43.995C216.398 45.99 212.873 48.885 211.523 49.605L212.393 50.94C214.163 49.335 216.428 48.405 218.633 48.405C220.538 48.405 221.708 49.2 221.708 50.52C221.708 51.24 221.378 51.87 220.793 52.305C220.478 52.53 220.178 52.68 219.668 52.845C219.443 52.185 219.278 51.855 218.978 51.465C218.378 50.67 217.463 50.22 216.428 50.22C215.048 50.22 214.013 51.06 214.013 52.2C214.013 52.875 214.343 53.505 214.913 53.895C215.483 54.3 216.488 54.525 217.688 54.525C219.038 54.525 220.238 54.24 221.213 53.7C222.518 52.98 223.223 51.855 223.223 50.475C223.223 48.48 221.588 47.19 219.068 47.19C217.868 47.19 216.968 47.4 215.693 47.985L215.663 47.94C216.698 47.325 218.333 45.975 220.418 43.995C220.868 43.575 220.958 43.5 221.183 43.38L220.373 42.255C220.163 42.375 220.013 42.405 219.533 42.435C218.063 42.555 216.293 42.63 214.928 42.63C214.103 42.63 213.833 42.615 213.338 42.54L213.413 44.07ZM218.303 53.205C217.838 53.265 217.748 53.265 217.448 53.265C216.188 53.265 215.423 52.86 215.423 52.2C215.423 51.72 215.813 51.42 216.428 51.42C217.373 51.42 218.003 52.02 218.303 53.205ZM233.573 44.25C234.263 44.295 234.668 44.4 235.178 44.67C236.498 45.375 237.233 46.62 237.233 48.18C237.233 49.995 236.228 51.57 234.623 52.26C233.978 52.53 233.303 52.695 232.133 52.875C232.538 53.4 232.673 53.655 232.898 54.345C233.918 54.15 234.503 53.985 235.208 53.7C237.458 52.77 238.778 50.76 238.778 48.255C238.778 45.015 236.483 42.87 232.988 42.87C230.903 42.87 229.178 43.575 227.948 44.925C226.898 46.08 226.328 47.595 226.328 49.2C226.328 51.48 227.498 53.145 229.088 53.145C230.258 53.145 231.173 52.275 232.043 50.295C232.763 48.675 233.303 46.485 233.573 44.25ZM232.043 44.265C231.848 46.05 231.338 48.15 230.753 49.53C230.168 50.895 229.613 51.555 229.073 51.555C228.353 51.555 227.783 50.52 227.783 49.215C227.783 47.505 228.623 45.9 229.988 44.985C230.633 44.55 231.218 44.355 232.043 44.265ZM242.813 42.09C242.783 42.48 242.753 42.645 242.603 43.425C242.138 45.66 241.958 47.28 241.958 49.275C241.958 50.85 242.063 51.96 242.348 53.7C242.393 54.015 242.408 54.105 242.423 54.36L243.968 54.255C243.953 54.105 243.953 53.985 243.953 53.925C243.953 52.95 244.478 51.165 245.243 49.56L244.208 49.095C243.623 50.46 243.533 50.745 243.398 51.405H243.368C243.368 51.27 243.368 50.82 243.368 50.055C243.383 48.75 243.488 47.16 243.653 45.96C243.833 44.505 244.163 43.065 244.478 42.3L242.813 42.09ZM246.158 45.24C246.323 45.255 246.368 45.27 246.578 45.285C247.238 45.375 247.913 45.405 248.768 45.405C249.863 45.405 251.018 45.33 251.948 45.21C252.803 45.105 252.893 45.09 252.998 45.09L252.923 43.56C252.068 43.83 250.568 43.98 248.723 43.98C247.583 43.98 246.968 43.92 246.173 43.74L246.158 45.24ZM247.208 47.895C246.293 48.99 245.858 49.935 245.858 50.835C245.858 51.375 246.023 51.93 246.323 52.305C246.953 53.13 248.123 53.535 249.923 53.535C250.928 53.535 251.873 53.445 253.013 53.25C253.343 53.19 253.388 53.19 253.583 53.16L253.448 51.555C252.548 51.915 251.258 52.11 249.923 52.11C248.228 52.11 247.343 51.615 247.343 50.685C247.343 50.025 247.673 49.365 248.423 48.495L247.208 47.895ZM255.653 51.735C256.883 52.725 257.738 53.64 258.788 55.095L260.018 53.955C258.908 52.545 258.128 51.735 256.793 50.7L255.653 51.735Z" fill="black"/>
<path d="M42.026 73.782H39.29C38.444 73.782 37.85 73.746 37.256 73.692V76.014C37.832 75.96 38.588 75.924 39.29 75.924H40.964C40.352 76.734 40.082 77.04 39.452 77.616C38.57 78.408 37.652 79.074 36.698 79.596C37.364 80.334 37.598 80.694 38.102 81.738C38.714 81.378 39.2 81 39.938 80.316C40.856 79.47 41.324 78.894 42.062 77.706C42.026 78.948 42.026 79.56 42.026 79.578V80.928C42.008 81.486 41.99 81.936 41.918 82.548H44.402C44.312 81.972 44.294 81.468 44.294 80.928V79.596C44.294 79.146 44.258 78.174 44.24 77.706C45.392 79.452 46.328 80.37 48.434 81.774C48.902 80.712 48.938 80.622 49.694 79.398C47.75 78.426 46.562 77.472 45.302 75.924H47.3C47.876 75.924 48.578 75.96 49.28 76.032V73.674C48.632 73.746 47.876 73.782 47.228 73.782H44.294V72.504H46.562L47.75 72.54C48.092 72.54 48.092 72.54 48.29 72.558C48.236 72.018 48.218 71.586 48.218 70.794V68.184C48.218 67.266 48.218 66.942 48.29 66.366C47.75 66.42 47.138 66.456 46.292 66.456H40.352C39.362 66.456 38.876 66.438 38.372 66.366C38.408 66.906 38.444 67.338 38.444 68.04V70.776C38.444 71.532 38.408 72.018 38.372 72.558C38.822 72.522 39.398 72.504 40.154 72.504H42.026V73.782ZM40.694 68.58H45.914V70.416H40.694V68.58ZM34.322 80.442C34.322 81.288 34.286 81.81 34.214 82.53H36.644C36.572 81.828 36.554 81.216 36.554 80.46V70.416C37.13 69.246 37.526 68.292 37.814 67.356C38.012 66.708 38.03 66.636 38.138 66.366L35.762 65.574C35.69 66.186 35.42 67.122 35.096 68.004C34.376 69.894 33.512 71.28 32.27 72.486C32.72 73.512 32.882 73.998 33.206 75.222C33.692 74.682 33.944 74.376 34.358 73.746C34.322 74.844 34.322 75.204 34.322 75.636V80.442ZM60.656 71.64V72.522H58.478C57.614 72.522 57.398 72.522 56.966 72.486C57.002 72.99 57.02 73.26 57.02 73.782V76.59C57.02 77.022 57.02 77.022 56.984 77.796C57.488 77.742 57.938 77.724 58.622 77.724H60.026C59.216 79.218 57.686 80.136 55.292 80.55C55.868 81.18 56.156 81.648 56.606 82.656C59.072 81.936 60.656 80.784 61.646 79.056C62.708 80.604 64.4 81.81 66.542 82.584C66.902 81.576 67.172 81.036 67.694 80.334C65.48 79.83 64.022 79.02 62.942 77.724H64.94C65.642 77.724 66.038 77.742 66.614 77.796C66.56 77.202 66.542 76.734 66.542 76.374V73.944C66.542 73.476 66.56 73.242 66.614 72.45C66.092 72.504 65.768 72.522 65.048 72.522H62.78V71.64H63.842C64.58 71.64 64.886 71.658 65.228 71.694V70.758C65.876 71.154 66.11 71.28 66.704 71.604C67.136 70.542 67.388 70.02 67.856 69.39C66.614 68.958 65.948 68.634 65.138 68.094C64.04 67.392 63.356 66.726 62.78 65.79H60.494C59.882 66.816 59.45 67.32 58.478 68.076C57.992 68.472 57.488 68.796 56.858 69.156C57.254 67.95 57.254 67.95 57.452 67.482L56.426 66.222C56.138 66.276 55.814 66.294 55.184 66.294H52.574C51.944 66.294 51.512 66.276 51.116 66.222C51.17 66.834 51.188 67.374 51.188 68.04V80.262C51.188 81.324 51.152 81.9 51.08 82.512H53.546C53.474 81.99 53.456 81.504 53.456 80.298V76.68C53.744 77.256 53.888 77.868 53.924 78.804C55.922 78.804 56.642 78.102 56.642 76.104C56.642 74.934 56.408 74.178 55.544 72.558C56.012 71.514 56.156 71.136 56.462 70.29C56.804 70.83 56.93 71.046 57.128 71.604C57.686 71.298 57.938 71.136 58.352 70.848V71.694C58.73 71.658 59.036 71.64 59.756 71.64H60.656ZM60.638 74.376C60.602 75.042 60.584 75.42 60.53 75.888H58.982V74.376H60.638ZM64.49 74.376V75.888H62.654C62.708 75.348 62.726 75.114 62.762 74.376H64.49ZM53.456 68.382H54.95C54.59 70.038 54.23 71.064 53.474 72.594C54.23 73.854 54.518 74.754 54.518 75.87C54.518 76.5 54.41 76.644 53.978 76.644C53.906 76.644 53.636 76.626 53.456 76.608V68.382ZM59.9 69.66C60.71 68.922 61.106 68.472 61.646 67.698C62.402 68.598 62.798 68.994 63.644 69.66H59.9ZM75.704 72.576V74.052H71.654C70.682 74.052 70.07 74.016 69.584 73.962V76.266C70.16 76.194 70.826 76.158 71.636 76.158H75.704V79.884H71.348C70.394 79.884 69.71 79.848 69.044 79.776V82.134C69.782 82.062 70.484 82.026 71.384 82.026H82.76C83.534 82.026 84.326 82.062 84.992 82.134V79.776C84.38 79.848 83.75 79.884 82.814 79.884H81.554C82.094 78.966 82.202 78.768 83.012 77.094L80.744 76.32C80.384 77.436 80.024 78.21 79.466 79.128L81.518 79.884H78.098V76.158H82.418C83.3 76.158 84.002 76.194 84.488 76.266V73.962C84.056 74.016 83.444 74.052 82.436 74.052H78.098V72.576H79.7C80.474 72.576 81.014 72.594 81.536 72.648V71.802C82.58 72.45 83.246 72.774 84.542 73.314C84.848 72.396 85.136 71.748 85.64 70.92C83.732 70.326 82.328 69.642 80.852 68.544C79.664 67.662 78.98 66.978 78.278 65.988H75.65C74.444 68.022 71.636 69.966 68.414 71.028C68.99 71.838 69.152 72.126 69.602 73.26C70.736 72.792 71.492 72.414 72.446 71.838V72.648C73.004 72.594 73.526 72.576 74.246 72.576H75.704ZM74.336 70.578C75.524 69.696 76.172 69.066 76.982 68.04C77.774 69.048 78.476 69.696 79.664 70.578H74.336ZM70.952 77.112C71.474 77.922 71.798 78.588 72.32 79.866L74.462 79.128C74.084 78.12 73.706 77.328 73.13 76.32L70.952 77.112ZM97.034 68.616V69.264H95.504C94.802 69.264 94.532 69.246 94.046 69.21V70.83C94.514 70.776 94.784 70.758 95.486 70.758H97.034V71.388H95.09C94.136 71.388 93.686 71.37 93.29 71.298V73.152C93.866 73.08 94.208 73.062 95.09 73.062H101.624C102.488 73.062 102.848 73.08 103.424 73.152V71.298C102.866 71.37 102.524 71.388 101.624 71.388H99.23V70.758H101.048C101.804 70.758 102.074 70.776 102.506 70.812V69.21C102.074 69.246 101.858 69.264 101.102 69.264H99.23V68.616H101.354C102.218 68.616 102.596 68.634 103.1 68.688V66.888C102.56 66.96 102.254 66.978 101.354 66.978H99.23C99.23 66.402 99.248 66.168 99.32 65.754H96.944C97.016 66.168 97.034 66.402 97.034 66.978H95.324C94.442 66.978 94.136 66.96 93.596 66.888V68.688C94.064 68.634 94.37 68.616 95.324 68.616H97.034ZM96.098 79.596H100.274V80.1C100.274 80.496 100.166 80.568 99.608 80.568C99.338 80.568 98.492 80.496 98.078 80.424C98.33 81.09 98.438 81.558 98.546 82.368C99.194 82.404 99.482 82.404 99.806 82.404C100.868 82.404 101.354 82.332 101.786 82.098C102.29 81.81 102.452 81.432 102.452 80.514V75.384C102.452 74.538 102.47 74.034 102.524 73.566C102.11 73.62 101.732 73.638 100.922 73.638H95.198C94.532 73.638 94.334 73.638 93.866 73.584C93.902 74.106 93.92 74.484 93.92 75.114V80.424C93.92 81.504 93.902 81.972 93.812 82.53H96.188C96.134 81.972 96.098 81.288 96.098 80.424V79.596ZM96.098 78.084V77.436H100.274V78.084H96.098ZM96.098 75.942V75.294H100.274V75.942H96.098ZM87.314 68.004C87.8 67.968 88.178 67.95 88.844 67.95H91.364C92.048 67.95 92.426 67.968 92.894 68.004V66.168C92.408 66.222 92.12 66.24 91.364 66.24H88.844C88.088 66.24 87.8 66.222 87.314 66.168V68.004ZM86.738 70.776C87.206 70.722 87.548 70.704 88.196 70.704H91.778C92.534 70.704 92.75 70.704 93.164 70.758V68.706C92.75 68.76 92.444 68.778 91.706 68.778H88.196C87.512 68.778 87.17 68.76 86.738 68.688V70.776ZM87.332 73.314C87.656 73.278 87.89 73.26 88.43 73.26H91.742C92.264 73.26 92.444 73.26 92.804 73.314V71.514C92.516 71.55 92.3 71.568 91.742 71.568H88.43C87.908 71.568 87.638 71.55 87.332 71.514V73.314ZM87.332 75.87C87.638 75.834 87.89 75.816 88.412 75.816H91.706C92.246 75.816 92.48 75.834 92.804 75.87V74.07C92.498 74.106 92.3 74.124 91.724 74.124H88.43C87.908 74.124 87.638 74.106 87.332 74.07V75.87ZM89.402 82.494V81.702H90.896V82.242H92.966C92.93 81.882 92.912 81.558 92.912 80.874V77.868C92.912 77.202 92.912 76.95 92.948 76.608C92.66 76.644 92.426 76.662 91.796 76.662H88.628C87.998 76.662 87.638 76.644 87.242 76.608C87.296 77.058 87.314 77.418 87.314 77.976V80.73C87.314 81.306 87.278 81.918 87.224 82.494H89.402ZM89.384 78.408H90.896V79.866H89.384V78.408ZM118.94 70.758C119.912 70.758 120.56 70.794 121.1 70.866V68.526C120.524 68.598 119.894 68.634 118.94 68.634H118.382L119.534 67.698C118.688 66.942 118.328 66.69 116.762 65.7L115.142 67.05C116.096 67.662 116.78 68.148 117.356 68.634H114.188V67.824C114.188 66.924 114.224 66.366 114.296 65.808H111.722C111.794 66.33 111.83 66.87 111.83 67.788V68.634H107.132C106.16 68.634 105.53 68.598 104.972 68.526V70.866C105.548 70.794 106.196 70.758 107.006 70.758H111.83V79.74C111.83 80.172 111.704 80.262 111.2 80.262C110.534 80.262 109.832 80.208 108.878 80.064C109.238 80.964 109.364 81.414 109.454 82.332C110.228 82.386 110.948 82.404 111.632 82.404C112.604 82.404 113.036 82.35 113.432 82.152C113.936 81.918 114.188 81.378 114.188 80.532V76.968C114.188 76.356 114.17 75.492 114.134 74.772C114.872 76.284 115.376 77.04 116.582 78.408C117.518 79.47 118.436 80.262 120.002 81.306C120.452 80.37 120.776 79.902 121.496 79.056C119.984 78.246 119.39 77.832 118.4 76.986C117.824 76.482 117.41 76.068 116.978 75.564C117.842 74.88 118.598 74.232 119.174 73.638C120.038 72.756 120.038 72.756 120.236 72.576L118.274 71.082C117.68 72 116.762 72.972 115.7 73.836C115.124 72.918 114.656 71.91 114.296 70.758H118.94ZM106.196 72.306C107.114 73.278 107.798 74.232 108.536 75.546L110.552 74.124C109.742 72.882 109.076 72.036 108.086 71.028L106.196 72.306ZM110.822 74.79C109.634 75.78 108.878 76.32 107.528 77.13C106.412 77.814 105.71 78.174 104.954 78.444L106.142 80.82C106.484 80.568 106.7 80.406 107.204 80.082C109.616 78.516 109.778 78.408 111.686 76.896L110.822 74.79ZM124.79 66.492C124.736 67.014 124.718 67.176 124.502 68.292C124.016 70.92 123.8 73.098 123.8 75.33C123.8 77.076 123.926 78.534 124.268 80.82C124.322 81.234 124.34 81.378 124.358 81.702L126.968 81.576C126.95 81.324 126.95 81.234 126.95 81.054C126.95 79.632 127.472 77.724 128.426 75.636L126.842 74.988L126.5 75.852C126.41 76.068 126.41 76.068 126.176 76.77C126.23 72.954 126.806 68.904 127.598 66.762L124.79 66.492ZM129.236 70.848C129.506 70.866 129.65 70.866 129.74 70.884C130.856 70.992 131.504 71.028 132.638 71.028C134.132 71.028 135.932 70.902 137.408 70.704C137.606 70.686 137.624 70.686 137.786 70.686L137.66 68.076C136.508 68.382 134.708 68.562 132.728 68.562C131.09 68.562 130.154 68.49 129.272 68.256L129.236 70.848ZM130.424 73.53C129.308 74.952 128.75 76.248 128.75 77.382C128.75 78.048 128.948 78.732 129.29 79.218C130.1 80.352 131.594 80.892 133.88 80.892C135.122 80.892 136.076 80.802 137.66 80.55C138.056 80.496 138.164 80.478 138.452 80.442L138.272 77.724C137.03 78.174 135.464 78.426 133.898 78.426C132.242 78.426 131.324 77.922 131.324 77.022C131.324 76.356 131.738 75.546 132.584 74.484L130.424 73.53ZM146.948 70.416C146.174 70.416 145.724 70.398 145.274 70.362C145.31 70.884 145.328 71.298 145.328 71.802V76.302C145.328 76.806 145.31 77.238 145.274 77.742C145.76 77.706 146.138 77.688 146.948 77.688H151.088C151.79 77.688 152.294 77.706 152.762 77.742C152.726 77.292 152.708 76.86 152.708 76.302V71.802C152.708 71.28 152.726 70.794 152.762 70.362C152.294 70.398 151.862 70.416 151.088 70.416H146.948ZM147.524 72.432H150.512V75.672H147.524V72.432ZM156.884 82.548C156.812 82.044 156.776 81.108 156.776 80.154V68.634C156.776 67.752 156.812 67.14 156.866 66.492C156.236 66.564 155.642 66.582 154.76 66.582H143.33C142.448 66.582 141.854 66.564 141.224 66.492C141.278 67.176 141.314 67.77 141.314 68.634V80.136C141.314 81.198 141.278 81.954 141.206 82.548H143.672V81.612H154.436V82.548H156.884ZM143.672 68.706H154.418V79.506H143.672V68.706ZM175.568 68.616C175.154 68.688 174.74 68.706 173.858 68.706H170.996C171.158 68.112 171.194 68.022 171.284 67.644C171.536 66.618 171.626 66.276 171.662 66.15L169.322 65.7C169.322 65.97 169.232 66.672 169.106 67.266C168.566 70.002 167.72 71.946 166.442 73.386C166.91 73.818 167.216 74.16 167.648 74.79C167.36 74.826 167 74.844 166.496 74.844H163.85C163.976 74.556 164.03 74.448 164.192 74.088L161.96 73.692C161.762 74.25 161.69 74.466 161.546 74.844H160.268C159.584 74.844 159.206 74.826 158.792 74.754V76.896C159.224 76.824 159.62 76.806 160.268 76.806H160.61C160.214 77.472 160.016 77.778 159.404 78.57C160.682 79.02 161.15 79.218 162.014 79.596C160.988 80.172 160.142 80.442 158.648 80.658C159.116 81.306 159.44 81.864 159.746 82.638C161.618 82.188 162.842 81.612 164.048 80.604C164.894 81.072 165.11 81.216 165.776 81.738L166.37 80.784C166.856 81.288 167.234 81.828 167.594 82.62C168.998 81.864 170.204 80.928 171.302 79.704C172.274 80.91 173.354 81.846 174.596 82.584C174.974 81.666 175.316 81.054 175.838 80.316C174.578 79.686 173.552 78.876 172.67 77.796C173.768 75.816 174.254 73.944 174.488 70.776C175.082 70.794 175.226 70.794 175.568 70.848V68.616ZM167.018 79.722C166.334 79.344 166.082 79.2 165.524 78.948C165.992 78.228 166.226 77.706 166.496 76.806C167.108 76.806 167.54 76.842 167.882 76.878V75.096C168.278 74.628 168.368 74.502 168.656 74.034C168.98 75.528 169.34 76.536 170.024 77.796C169.088 78.894 168.044 79.704 166.568 80.442L167.018 79.722ZM172.256 70.776C172.166 72.738 171.878 74.25 171.32 75.636C170.618 74.106 170.366 73.206 170.078 71.334C170.168 71.1 170.204 71.01 170.294 70.776H172.256ZM164.282 76.806C164.102 77.346 163.958 77.67 163.634 78.12C163.238 77.958 163.004 77.886 162.338 77.652C162.608 77.22 162.68 77.094 162.842 76.806H164.282ZM166.424 68.994H164.588V66.96C164.588 66.42 164.606 66.114 164.66 65.79H162.374C162.428 66.132 162.446 66.438 162.446 66.996V68.994H160.394C159.692 68.994 159.296 68.976 158.846 68.922V70.902C159.278 70.848 159.746 70.83 160.394 70.83H161.15C160.43 71.658 159.674 72.198 158.432 72.774C159.08 73.458 159.314 73.782 159.728 74.52C161.006 73.674 161.456 73.242 162.464 71.964C162.446 72.252 162.428 72.558 162.428 72.702V73.224C162.428 73.386 162.41 73.566 162.374 73.746H164.624C164.588 73.548 164.588 73.332 164.588 73.134V72.63C164.588 72.522 164.552 72.162 164.534 71.964C165.038 72.72 165.146 72.828 166.028 73.566C166.406 72.828 166.658 72.45 167.126 71.874C166.478 71.532 166.082 71.244 165.686 70.83H166.694C167.252 70.83 167.594 70.848 167.828 70.884V68.94C167.612 68.976 167.27 68.994 166.712 68.994H166.586C167.108 68.202 167.306 67.824 167.9 66.636L165.992 65.862C165.686 66.708 165.308 67.392 164.732 68.22L166.424 68.994ZM159.116 66.672C159.692 67.41 160.034 67.986 160.448 68.958L162.284 68.166C161.87 67.266 161.6 66.816 160.916 65.916L159.116 66.672ZM180.806 70.038V71.298H178.394C177.692 71.298 177.26 71.28 176.81 71.208V73.476C177.35 73.404 177.836 73.386 178.718 73.386H180.806V74.574H179.042C178.25 74.574 177.818 74.556 177.278 74.502C177.332 74.988 177.35 75.474 177.35 76.194V79.704C177.35 80.604 177.332 80.964 177.26 81.432H179.528C179.492 80.946 179.474 80.496 179.474 79.74V76.626H180.806V80.658C180.806 81.666 180.788 82.08 180.698 82.584H183.038C182.966 82.152 182.948 81.648 182.948 80.694V76.626H184.226V79.02C184.226 79.236 184.136 79.29 183.83 79.29C183.632 79.29 183.29 79.272 183.038 79.254C183.308 79.92 183.398 80.37 183.452 81.27C183.848 81.288 183.974 81.288 184.244 81.288C185.828 81.288 186.26 80.946 186.26 79.704V76.086C186.26 75.24 186.26 74.898 186.314 74.502C185.828 74.556 185.468 74.574 184.64 74.574H182.948V73.386H184.802C185.684 73.386 186.062 73.404 186.548 73.458V71.226C186.026 71.28 185.63 71.298 184.892 71.298H182.948V70.038H184.388C185.162 70.038 185.666 70.056 186.17 70.11V67.86C185.648 67.932 185.252 67.95 184.388 67.95H182.948V67.5C182.948 66.654 182.966 66.276 183.038 65.844H180.698C180.77 66.312 180.806 66.708 180.806 67.536V67.95H179.708C179.816 67.482 179.87 67.212 179.888 67.158C179.924 66.924 180.014 66.564 180.05 66.42L177.908 66.06C177.908 66.222 177.872 66.6 177.8 66.924C177.602 67.986 177.17 69.138 176.54 70.236C177.332 70.578 177.764 70.812 178.592 71.28C178.844 70.686 178.916 70.506 179.096 70.038H180.806ZM187.052 67.176C187.124 67.68 187.16 68.148 187.16 69.066V76.356C187.16 77.454 187.142 77.76 187.07 78.228H189.41C189.338 77.76 189.338 77.418 189.338 76.356V69.012C189.338 68.112 189.356 67.662 189.41 67.176H187.052ZM190.382 65.916C190.454 66.51 190.49 67.05 190.49 68.166V79.74C190.49 80.19 190.346 80.28 189.662 80.28C189.122 80.28 188.258 80.208 187.43 80.1C187.808 80.928 187.934 81.378 188.024 82.368C189.086 82.404 189.23 82.404 189.428 82.404C189.968 82.404 190.616 82.368 191.03 82.296C191.66 82.206 191.984 82.08 192.29 81.792C192.632 81.468 192.776 81 192.776 80.082V68.094C192.776 66.942 192.794 66.438 192.884 65.916H190.382ZM209.858 74.646C210.074 74.646 210.092 74.646 210.524 74.664C210.47 73.998 210.452 73.674 210.452 72.702V68.346C210.452 67.266 210.47 66.726 210.524 66.348C209.984 66.402 209.75 66.42 208.868 66.42H203.468C202.55 66.42 202.154 66.402 201.758 66.33C201.812 67.05 201.83 67.482 201.83 68.274V79.884C200.894 80.046 200.21 80.136 199.832 80.136L200.246 82.548C200.426 82.494 200.624 82.44 200.984 82.35L203.378 81.828C205.124 81.414 205.592 81.288 206.924 80.91L206.906 79.272C207.212 79.704 207.446 79.992 207.77 80.352C208.616 81.27 209.318 81.846 210.506 82.584C210.92 81.558 211.226 81.018 211.766 80.37C210.524 79.74 209.66 79.092 208.832 78.12C209.48 77.652 210.146 77.13 210.506 76.806C211.244 76.176 211.37 76.05 211.478 75.996L209.858 74.646ZM209.21 74.628C209.282 74.628 209.39 74.628 209.624 74.628C209.318 75.024 208.616 75.654 207.716 76.338C207.446 75.744 207.338 75.384 207.176 74.628H209.21ZM204.062 74.628H205.088C205.448 76.428 205.844 77.49 206.618 78.804C205.79 79.056 205.34 79.164 204.062 79.434V74.628ZM204.062 68.472H208.238V69.606H204.062V68.472ZM204.062 71.514H208.238V72.72H204.062V71.514ZM195.332 80.28C195.332 81.18 195.296 81.954 195.224 82.53H197.672C197.6 81.792 197.582 81.09 197.582 80.28V68.4H199.274C198.716 70.218 198.464 70.902 197.762 72.252C198.392 72.99 198.626 73.368 198.86 73.944C199.112 74.52 199.238 75.15 199.238 75.744C199.238 76.284 199.04 76.446 198.41 76.446C198.212 76.446 198.068 76.428 197.762 76.392C198.068 77.04 198.158 77.526 198.194 78.624C199.076 78.606 199.76 78.516 200.192 78.336C201.002 78.03 201.452 77.256 201.452 76.23C201.452 74.718 201.11 73.782 199.994 72.126C200.678 70.722 200.948 70.056 201.578 68.328C201.668 68.076 201.74 67.86 201.812 67.698L200.696 66.222C200.462 66.294 200.12 66.312 199.346 66.312H196.628C195.944 66.312 195.638 66.294 195.26 66.24C195.332 67.266 195.332 67.446 195.332 68.058V80.28ZM223.358 67.59C223.952 68.22 224.546 69.102 225.032 70.02L226.598 69.228C226.076 68.238 225.662 67.644 224.942 66.852L223.358 67.59ZM225.572 66.636C226.202 67.356 226.688 68.058 227.21 68.994L228.758 68.184C228.29 67.32 227.75 66.582 227.102 65.898L225.572 66.636ZM224.492 70.83C224.978 71.514 225.23 71.982 225.752 73.134C226.418 74.592 226.778 75.708 227.084 77.202L229.568 75.996C228.92 73.566 228.11 71.784 226.706 69.786L224.492 70.83ZM213.152 73.044C213.674 72.9 214.898 72.684 216.176 72.504C215.42 75.51 213.89 79.128 212.666 80.73L215.168 82.08C215.276 81.846 215.294 81.81 215.456 81.468C217.13 77.976 218.12 75.24 218.75 72.306C219.146 72.27 219.344 72.252 219.65 72.252C220.298 72.252 220.586 72.324 220.82 72.558C221.144 72.846 221.27 73.314 221.27 74.178C221.27 75.546 221.054 77.418 220.784 78.282C220.568 79.002 220.298 79.29 219.848 79.29C219.254 79.29 218.21 79.002 217.292 78.606C217.472 79.452 217.526 79.902 217.526 80.532C217.526 80.802 217.526 80.946 217.49 81.342C218.714 81.702 219.47 81.846 220.244 81.846C221.234 81.846 221.81 81.63 222.35 81.036C223.268 80.046 223.808 77.544 223.808 74.322C223.808 72.63 223.574 71.748 222.962 71.01C222.368 70.308 221.432 69.966 220.154 69.966C219.884 69.966 219.632 69.984 219.2 70.002C219.254 69.786 219.254 69.768 219.326 69.39C219.578 67.914 219.722 67.14 219.74 67.068C219.776 66.87 219.812 66.726 219.866 66.546L217.076 66.276C217.094 66.402 217.094 66.492 217.094 66.546C217.094 67.23 216.968 68.292 216.644 70.182C215.726 70.326 213.566 70.524 213.026 70.524C212.99 70.524 212.954 70.524 212.918 70.524L213.152 73.044ZM232.07 70.452C232.304 70.416 232.448 70.416 232.556 70.416C232.592 70.416 232.7 70.416 232.88 70.416C233.222 70.434 233.51 70.434 233.744 70.452C234.716 70.488 234.842 70.488 235.184 70.488C235.544 70.488 235.544 70.488 235.688 70.488C235.652 71.244 235.634 71.874 235.634 72.378C234.554 72.846 233.87 73.278 233.168 73.998C231.998 75.15 231.368 76.59 231.368 78.102C231.368 80.118 232.61 81.486 234.446 81.486C235.976 81.486 237.506 80.676 239.198 78.966C240.584 77.58 241.466 76.266 242.42 74.196C243.518 74.7 244.004 75.348 244.004 76.338C244.004 77.526 243.23 78.498 241.844 79.056C240.926 79.416 240.008 79.578 238.64 79.578C239.252 80.64 239.432 81.09 239.72 82.098C241.466 81.864 242.474 81.63 243.374 81.216C245.462 80.244 246.614 78.57 246.614 76.5C246.614 75.096 246.092 73.998 245.012 73.116C244.418 72.63 243.896 72.378 243.158 72.162C243.23 72.018 243.23 72.018 243.356 71.658C243.536 71.208 243.536 71.208 243.59 71.082L241.16 70.398C241.106 70.794 241.034 71.082 240.854 71.658C240.566 71.622 240.404 71.604 240.224 71.604C239.288 71.604 238.838 71.64 237.974 71.82C237.974 71.478 237.974 71.298 237.992 71.082C238.028 70.65 238.028 70.65 238.028 70.416C239.576 70.38 242.456 70.11 244.328 69.84C244.724 69.786 244.814 69.768 245.084 69.75L244.958 67.284C243.464 67.734 241.196 68.04 238.19 68.22C238.28 67.014 238.334 66.636 238.478 66.168L235.85 66.042C235.868 66.222 235.868 66.24 235.868 66.51C235.868 67.014 235.868 67.05 235.85 67.356C235.796 68.022 235.796 68.022 235.778 68.292C235.436 68.292 235.418 68.292 235.382 68.292C233.96 68.292 233.114 68.22 232.052 68.04L232.07 70.452ZM235.67 74.826C235.688 76.176 235.76 77.238 235.976 78.552C235.508 78.912 235.112 79.074 234.68 79.074C234.104 79.074 233.78 78.624 233.78 77.868C233.78 76.716 234.464 75.636 235.67 74.826ZM237.938 73.926C238.46 73.728 239.054 73.638 239.648 73.638C239.972 73.638 239.972 73.638 240.152 73.674C239.612 74.898 239.18 75.582 238.082 76.932C237.992 75.996 237.956 75.294 237.938 73.926ZM251.618 69.498C252.158 69.426 252.32 69.426 252.896 69.39C255.542 69.264 255.848 69.246 257.324 69.12C254.786 71.658 251.024 74.646 249.332 75.456L250.772 77.778C253.004 75.78 255.47 74.754 258.116 74.754C260.186 74.754 261.518 75.6 261.518 76.914C261.518 78.048 260.996 78.732 259.718 79.254C259.448 78.516 259.25 78.138 258.89 77.706C258.134 76.77 257 76.248 255.722 76.248C253.814 76.248 252.41 77.418 252.41 78.966C252.41 79.848 252.806 80.64 253.508 81.162C254.264 81.738 255.596 82.062 257.162 82.062C258.89 82.062 260.474 81.684 261.68 80.982C263.3 80.046 264.146 78.642 264.146 76.896C264.146 75.636 263.714 74.646 262.832 73.908C261.86 73.098 260.6 72.684 259.07 72.684C258.026 72.684 257.126 72.81 256.1 73.116C257.558 72.09 258.134 71.622 260.006 69.948C261.41 68.706 261.428 68.706 261.806 68.49L260.528 66.618C260.222 66.762 260.006 66.798 259.304 66.852C257.63 66.978 255.398 67.068 253.85 67.068C252.77 67.068 252.176 67.032 251.51 66.942L251.618 69.498ZM257.414 79.902C257 79.992 256.928 79.992 256.658 79.992C255.488 79.992 254.804 79.632 254.804 79.002C254.804 78.57 255.164 78.282 255.704 78.282C256.55 78.282 257.144 78.84 257.414 79.902ZM271.202 66.618C271.292 66.87 271.31 66.924 271.49 67.788C271.922 69.966 272.21 71.136 272.642 72.612C271.472 73.188 270.878 73.566 270.158 74.178C269.114 75.078 268.556 76.266 268.556 77.562C268.556 78.444 268.844 79.326 269.348 79.956C270.302 81.162 272.3 81.756 275.414 81.756C276.692 81.756 277.97 81.666 279.932 81.468C280.958 81.36 281.048 81.342 281.444 81.324L281.228 78.39C279.824 78.876 277.412 79.182 275.198 79.182C272.534 79.182 271.346 78.66 271.346 77.472C271.346 76.32 272.606 75.276 275.072 74.358C277.142 73.602 279.428 72.972 281.264 72.666L280.364 69.93C280.094 70.056 280.004 70.092 279.644 70.2C276.836 71.082 276.08 71.316 275.09 71.676C274.532 69.786 274.064 67.392 273.992 66.186L271.202 66.618ZM15.098 96.48V97.56H12.38C11.516 97.56 11.21 97.542 10.688 97.488C10.742 97.974 10.76 98.316 10.76 99.144V101.664C10.76 102.384 10.742 102.798 10.688 103.302C11.12 103.248 11.552 103.23 12.092 103.23H14.702C14.54 103.896 14.432 104.166 14.144 104.634C13.658 104.184 13.298 103.752 13.118 103.446L13.064 103.32L11.12 104.22C11.246 104.364 11.318 104.436 11.426 104.562C12.074 105.354 12.326 105.624 12.794 106.074C11.948 106.668 10.994 107.082 9.5 107.478C9.968 108.09 10.274 108.612 10.724 109.512C12.506 108.936 13.568 108.36 14.576 107.442C16.502 108.612 18.554 109.188 21.704 109.476C21.902 108.666 22.172 107.91 22.586 107.082C19.472 106.992 17.708 106.65 15.926 105.804C16.394 105.012 16.682 104.256 16.898 103.23H19.868C20.678 103.23 21.092 103.248 21.614 103.302C21.56 102.834 21.542 102.492 21.542 101.592V99.18C21.542 98.424 21.56 97.974 21.614 97.488C21.11 97.542 20.714 97.56 19.904 97.56H17.276C17.276 97.146 17.276 96.786 17.276 96.48H20.48C21.2 96.48 21.794 96.498 22.334 96.552V94.284C21.65 94.356 21.038 94.392 20.174 94.392H17.294C17.294 93.528 17.294 93.204 17.366 92.718H14.99C15.062 93.24 15.08 93.402 15.098 94.392H12.506C11.822 94.392 11.048 94.356 10.562 94.302C10.598 94.212 10.616 94.104 10.652 93.996C10.778 93.618 10.796 93.564 10.922 93.168L8.492 92.61C8.384 93.384 8.186 94.086 7.844 95.04C7.196 96.84 6.35 98.316 5.288 99.468C5.702 100.422 5.918 101.088 6.152 102.15C6.638 101.538 6.908 101.16 7.232 100.584C7.196 101.934 7.196 102.132 7.196 102.51V107.496C7.196 108.378 7.178 108.81 7.088 109.584H9.572C9.5 108.828 9.464 108.27 9.464 107.514V97.128C9.95 96.048 10.202 95.418 10.472 94.572V96.552C11.084 96.498 11.498 96.48 12.236 96.48H15.098ZM15.062 99.576C15.044 100.26 15.026 100.71 14.972 101.232H12.992V99.576H15.062ZM19.292 99.576V101.232H17.186C17.204 100.746 17.24 100.26 17.258 99.576H19.292ZM24.674 94.554C24.728 94.968 24.728 95.112 24.746 95.76C24.854 101.214 25.106 103.5 25.844 105.336C26.6 107.208 27.662 108.162 28.976 108.162C30.632 108.162 31.802 106.56 32.756 103.032C31.73 102.312 31.37 101.97 30.632 101.088C30.416 102.222 30.11 103.302 29.678 104.292C29.48 104.778 29.264 105.03 29.03 105.03C28.112 105.03 27.446 101.844 27.446 97.542C27.446 96.3 27.5 95.274 27.608 94.572L24.674 94.554ZM33.71 96.372C34.826 97.758 35.69 99.288 36.302 100.98C36.932 102.69 37.328 104.634 37.4 106.362L40.118 105.354C39.632 101.268 38.318 98.064 36.014 95.292L33.71 96.372ZM42.53 98.37C42.692 98.37 42.746 98.352 42.872 98.352L44.798 98.406H45.302C44.672 101.682 43.358 105.606 42.152 107.928L44.924 108.954C45.014 108.63 45.158 108.216 45.338 107.712C46.166 105.336 46.364 104.742 46.904 102.78C47.408 101.016 47.66 99.864 47.948 98.316C48.902 98.262 49.694 98.19 50.486 98.046C51.134 97.938 51.134 97.938 51.476 97.902L51.386 95.436C50.45 95.67 49.658 95.814 48.38 95.94C48.434 95.58 48.452 95.544 48.524 95.058C48.758 93.744 48.758 93.744 48.884 93.312L46.04 93.078C46.04 93.222 46.04 93.33 46.04 93.384C46.04 93.888 45.896 95.148 45.734 96.048C45.284 96.066 45.266 96.066 45.14 96.066C44.06 96.066 43.232 96.012 42.566 95.886L42.53 98.37ZM57.11 98.406C55.976 98.388 55.904 98.388 55.454 98.388C53.366 98.388 52.466 98.478 49.784 98.964L49.964 101.322C51.764 100.962 52.952 100.836 54.842 100.836C55.778 100.836 56.3 100.872 57.164 100.962L57.11 98.406ZM49.784 102.294C48.776 103.68 48.398 104.598 48.398 105.57C48.398 106.542 48.902 107.442 49.73 107.91C50.63 108.45 51.8 108.684 53.456 108.684C54.5 108.684 55.4 108.612 56.894 108.378C57.344 108.324 57.488 108.306 57.812 108.27L57.632 105.606C56.588 106.002 54.86 106.308 53.6 106.308C51.854 106.308 51.026 105.894 51.026 105.048C51.026 104.454 51.224 104.022 51.944 103.068L49.784 102.294ZM60.674 94.554C60.728 94.968 60.728 95.112 60.746 95.76C60.854 101.214 61.106 103.5 61.844 105.336C62.6 107.208 63.662 108.162 64.976 108.162C66.632 108.162 67.802 106.56 68.756 103.032C67.73 102.312 67.37 101.97 66.632 101.088C66.416 102.222 66.11 103.302 65.678 104.292C65.48 104.778 65.264 105.03 65.03 105.03C64.112 105.03 63.446 101.844 63.446 97.542C63.446 96.3 63.5 95.274 63.608 94.572L60.674 94.554ZM69.71 96.372C70.826 97.758 71.69 99.288 72.302 100.98C72.932 102.69 73.328 104.634 73.4 106.362L76.118 105.354C75.632 101.268 74.318 98.064 72.014 95.292L69.71 96.372ZM86.558 103.536L84.74 104.688C85.658 105.606 86.252 106.38 86.972 107.64L88.844 106.182C88.052 105.012 87.548 104.418 86.594 103.536H90.23V106.902C90.23 107.28 90.086 107.37 89.564 107.37C88.88 107.37 88.052 107.316 87.53 107.226C87.854 107.928 87.98 108.486 88.052 109.44C88.682 109.458 89.15 109.476 89.312 109.476C90.554 109.476 91.238 109.368 91.76 109.062C92.264 108.774 92.444 108.324 92.444 107.352V103.536C93.362 103.536 93.74 103.554 94.298 103.626V101.34C93.884 101.412 93.434 101.43 92.444 101.43V100.17H92.606C93.416 100.17 93.884 100.188 94.37 100.26V98.028C93.92 98.082 93.236 98.118 92.354 98.118H90.194V96.696H91.922C92.786 96.696 93.29 96.714 93.812 96.768V94.536C93.29 94.608 92.678 94.644 91.886 94.644H90.194V94.212C90.194 93.672 90.23 93.312 90.32 92.916H87.854C87.908 93.348 87.944 93.708 87.944 94.23V94.644H86.576C85.766 94.644 85.172 94.608 84.65 94.536V96.768C84.884 96.75 85.55 96.732 86.666 96.696H87.944V98.118H86.342C85.442 98.118 84.74 98.082 84.29 98.028V100.26C84.848 100.206 85.568 100.17 86.306 100.17H90.23V101.43H86.306C85.316 101.43 84.722 101.412 84.29 101.34V103.626C84.902 103.572 85.622 103.536 86.252 103.536H86.558ZM78.296 106.236C78.296 107.28 78.26 107.892 78.188 108.486H80.42V106.956H81.734V107.856H83.894C83.858 107.37 83.858 107.01 83.858 106.02V95.472C83.858 94.482 83.858 94.122 83.894 93.708C83.48 93.744 83.156 93.762 82.364 93.762H79.772C78.98 93.762 78.674 93.744 78.224 93.69C78.278 94.302 78.296 94.734 78.296 95.562V106.236ZM80.438 95.796H81.752V99.234H80.438V95.796ZM80.438 101.25H81.752V104.868H80.438V101.25ZM97.79 93.492C97.736 94.014 97.718 94.176 97.502 95.292C97.016 97.92 96.8 100.098 96.8 102.33C96.8 104.076 96.926 105.534 97.268 107.82C97.322 108.234 97.34 108.378 97.358 108.702L99.968 108.576C99.95 108.324 99.95 108.234 99.95 108.054C99.95 106.632 100.472 104.724 101.426 102.636L99.842 101.988L99.5 102.852C99.41 103.068 99.41 103.068 99.176 103.77C99.23 99.954 99.806 95.904 100.598 93.762L97.79 93.492ZM102.236 97.848C102.506 97.866 102.65 97.866 102.74 97.884C103.856 97.992 104.504 98.028 105.638 98.028C107.132 98.028 108.932 97.902 110.408 97.704C110.606 97.686 110.624 97.686 110.786 97.686L110.66 95.076C109.508 95.382 107.708 95.562 105.728 95.562C104.09 95.562 103.154 95.49 102.272 95.256L102.236 97.848ZM103.424 100.53C102.308 101.952 101.75 103.248 101.75 104.382C101.75 105.048 101.948 105.732 102.29 106.218C103.1 107.352 104.594 107.892 106.88 107.892C108.122 107.892 109.076 107.802 110.66 107.55C111.056 107.496 111.164 107.478 111.452 107.442L111.272 104.724C110.03 105.174 108.464 105.426 106.898 105.426C105.242 105.426 104.324 104.922 104.324 104.022C104.324 103.356 104.738 102.546 105.584 101.484L103.424 100.53ZM123.026 100.782H120.29C119.444 100.782 118.85 100.746 118.256 100.692V103.014C118.832 102.96 119.588 102.924 120.29 102.924H121.964C121.352 103.734 121.082 104.04 120.452 104.616C119.57 105.408 118.652 106.074 117.698 106.596C118.364 107.334 118.598 107.694 119.102 108.738C119.714 108.378 120.2 108 120.938 107.316C121.856 106.47 122.324 105.894 123.062 104.706C123.026 105.948 123.026 106.56 123.026 106.578V107.928C123.008 108.486 122.99 108.936 122.918 109.548H125.402C125.312 108.972 125.294 108.468 125.294 107.928V106.596C125.294 106.146 125.258 105.174 125.24 104.706C126.392 106.452 127.328 107.37 129.434 108.774C129.902 107.712 129.938 107.622 130.694 106.398C128.75 105.426 127.562 104.472 126.302 102.924H128.3C128.876 102.924 129.578 102.96 130.28 103.032V100.674C129.632 100.746 128.876 100.782 128.228 100.782H125.294V99.504H127.562L128.75 99.54C129.092 99.54 129.092 99.54 129.29 99.558C129.236 99.018 129.218 98.586 129.218 97.794V95.184C129.218 94.266 129.218 93.942 129.29 93.366C128.75 93.42 128.138 93.456 127.292 93.456H121.352C120.362 93.456 119.876 93.438 119.372 93.366C119.408 93.906 119.444 94.338 119.444 95.04V97.776C119.444 98.532 119.408 99.018 119.372 99.558C119.822 99.522 120.398 99.504 121.154 99.504H123.026V100.782ZM121.694 95.58H126.914V97.416H121.694V95.58ZM115.322 107.442C115.322 108.288 115.286 108.81 115.214 109.53H117.644C117.572 108.828 117.554 108.216 117.554 107.46V97.416C118.13 96.246 118.526 95.292 118.814 94.356C119.012 93.708 119.03 93.636 119.138 93.366L116.762 92.574C116.69 93.186 116.42 94.122 116.096 95.004C115.376 96.894 114.512 98.28 113.27 99.486C113.72 100.512 113.882 100.998 114.206 102.222C114.692 101.682 114.944 101.376 115.358 100.746C115.322 101.844 115.322 102.204 115.322 102.636V107.442ZM141.656 98.64V99.522H139.478C138.614 99.522 138.398 99.522 137.966 99.486C138.002 99.99 138.02 100.26 138.02 100.782V103.59C138.02 104.022 138.02 104.022 137.984 104.796C138.488 104.742 138.938 104.724 139.622 104.724H141.026C140.216 106.218 138.686 107.136 136.292 107.55C136.868 108.18 137.156 108.648 137.606 109.656C140.072 108.936 141.656 107.784 142.646 106.056C143.708 107.604 145.4 108.81 147.542 109.584C147.902 108.576 148.172 108.036 148.694 107.334C146.48 106.83 145.022 106.02 143.942 104.724H145.94C146.642 104.724 147.038 104.742 147.614 104.796C147.56 104.202 147.542 103.734 147.542 103.374V100.944C147.542 100.476 147.56 100.242 147.614 99.45C147.092 99.504 146.768 99.522 146.048 99.522H143.78V98.64H144.842C145.58 98.64 145.886 98.658 146.228 98.694V97.758C146.876 98.154 147.11 98.28 147.704 98.604C148.136 97.542 148.388 97.02 148.856 96.39C147.614 95.958 146.948 95.634 146.138 95.094C145.04 94.392 144.356 93.726 143.78 92.79H141.494C140.882 93.816 140.45 94.32 139.478 95.076C138.992 95.472 138.488 95.796 137.858 96.156C138.254 94.95 138.254 94.95 138.452 94.482L137.426 93.222C137.138 93.276 136.814 93.294 136.184 93.294H133.574C132.944 93.294 132.512 93.276 132.116 93.222C132.17 93.834 132.188 94.374 132.188 95.04V107.262C132.188 108.324 132.152 108.9 132.08 109.512H134.546C134.474 108.99 134.456 108.504 134.456 107.298V103.68C134.744 104.256 134.888 104.868 134.924 105.804C136.922 105.804 137.642 105.102 137.642 103.104C137.642 101.934 137.408 101.178 136.544 99.558C137.012 98.514 137.156 98.136 137.462 97.29C137.804 97.83 137.93 98.046 138.128 98.604C138.686 98.298 138.938 98.136 139.352 97.848V98.694C139.73 98.658 140.036 98.64 140.756 98.64H141.656ZM141.638 101.376C141.602 102.042 141.584 102.42 141.53 102.888H139.982V101.376H141.638ZM145.49 101.376V102.888H143.654C143.708 102.348 143.726 102.114 143.762 101.376H145.49ZM134.456 95.382H135.95C135.59 97.038 135.23 98.064 134.474 99.594C135.23 100.854 135.518 101.754 135.518 102.87C135.518 103.5 135.41 103.644 134.978 103.644C134.906 103.644 134.636 103.626 134.456 103.608V95.382ZM140.9 96.66C141.71 95.922 142.106 95.472 142.646 94.698C143.402 95.598 143.798 95.994 144.644 96.66H140.9ZM150.818 97.29C150.926 97.272 151.016 97.272 151.088 97.272C151.088 97.272 151.196 97.272 151.34 97.272C151.376 97.29 151.484 97.29 151.646 97.29C151.7 97.29 151.988 97.29 152.33 97.308C152.852 97.326 152.996 97.326 154.004 97.326C153.914 97.452 153.896 97.47 153.734 97.776C152.798 99.378 151.232 101.25 150.224 101.988L152.168 103.914C152.618 103.32 153.068 102.834 153.806 102.186C155.156 101.016 156.38 100.404 157.352 100.404C157.874 100.404 158.18 100.638 158.27 101.124C157.028 101.664 156.236 102.078 155.642 102.51C154.274 103.5 153.554 104.616 153.554 105.732C153.554 106.47 153.806 107.172 154.256 107.676C155.084 108.612 156.578 109.008 159.224 109.008C160.736 109.008 162.338 108.9 163.85 108.684C164.336 108.612 164.408 108.612 164.75 108.594L164.552 105.84C163.148 106.362 161.204 106.65 159.026 106.65C157.064 106.65 156.29 106.326 156.29 105.498C156.29 105.048 156.578 104.598 157.136 104.202C157.478 103.968 157.838 103.77 158.576 103.428C158.594 103.5 158.594 103.554 158.594 103.572C158.594 104.526 158.558 105.318 158.486 105.66L160.988 105.588C160.952 105.228 160.934 104.922 160.934 104.382C160.934 104.274 160.934 104.148 160.934 104.004C160.934 103.734 160.934 103.554 160.934 103.482V103.158L160.916 102.564C163.094 101.826 163.094 101.826 163.526 101.718C164.444 101.448 165.038 101.322 165.56 101.25L164.606 98.802C164.3 98.982 164.228 99 163.202 99.342C162.392 99.612 162.302 99.648 161.6 99.9C161.132 100.062 160.808 100.17 160.646 100.224C160.322 99.018 159.422 98.406 157.964 98.406C157.064 98.406 156.416 98.586 155.48 99.108C156.056 98.334 156.308 97.956 156.65 97.326C158.468 97.272 160.808 97.128 162.122 96.966C162.986 96.876 162.986 96.876 163.544 96.822L163.436 94.392C162.41 94.662 160.934 94.86 158.792 94.986C158 95.022 157.946 95.022 157.676 95.058C157.748 94.914 157.748 94.896 157.82 94.734C158.36 93.438 158.36 93.438 158.486 93.24L155.696 92.988C155.624 93.582 155.498 94.014 155.048 95.094C154.976 95.094 154.886 95.094 154.868 95.094C154.796 95.094 154.706 95.094 154.508 95.094C154.382 95.094 154.256 95.094 154.148 95.094C152.672 95.094 151.52 95.022 150.854 94.86L150.818 97.29ZM177.098 96.48V97.56H174.38C173.516 97.56 173.21 97.542 172.688 97.488C172.742 97.974 172.76 98.316 172.76 99.144V101.664C172.76 102.384 172.742 102.798 172.688 103.302C173.12 103.248 173.552 103.23 174.092 103.23H176.702C176.54 103.896 176.432 104.166 176.144 104.634C175.658 104.184 175.298 103.752 175.118 103.446L175.064 103.32L173.12 104.22C173.246 104.364 173.318 104.436 173.426 104.562C174.074 105.354 174.326 105.624 174.794 106.074C173.948 106.668 172.994 107.082 171.5 107.478C171.968 108.09 172.274 108.612 172.724 109.512C174.506 108.936 175.568 108.36 176.576 107.442C178.502 108.612 180.554 109.188 183.704 109.476C183.902 108.666 184.172 107.91 184.586 107.082C181.472 106.992 179.708 106.65 177.926 105.804C178.394 105.012 178.682 104.256 178.898 103.23H181.868C182.678 103.23 183.092 103.248 183.614 103.302C183.56 102.834 183.542 102.492 183.542 101.592V99.18C183.542 98.424 183.56 97.974 183.614 97.488C183.11 97.542 182.714 97.56 181.904 97.56H179.276C179.276 97.146 179.276 96.786 179.276 96.48H182.48C183.2 96.48 183.794 96.498 184.334 96.552V94.284C183.65 94.356 183.038 94.392 182.174 94.392H179.294C179.294 93.528 179.294 93.204 179.366 92.718H176.99C177.062 93.24 177.08 93.402 177.098 94.392H174.506C173.822 94.392 173.048 94.356 172.562 94.302C172.598 94.212 172.616 94.104 172.652 93.996C172.778 93.618 172.796 93.564 172.922 93.168L170.492 92.61C170.384 93.384 170.186 94.086 169.844 95.04C169.196 96.84 168.35 98.316 167.288 99.468C167.702 100.422 167.918 101.088 168.152 102.15C168.638 101.538 168.908 101.16 169.232 100.584C169.196 101.934 169.196 102.132 169.196 102.51V107.496C169.196 108.378 169.178 108.81 169.088 109.584H171.572C171.5 108.828 171.464 108.27 171.464 107.514V97.128C171.95 96.048 172.202 95.418 172.472 94.572V96.552C173.084 96.498 173.498 96.48 174.236 96.48H177.098ZM177.062 99.576C177.044 100.26 177.026 100.71 176.972 101.232H174.992V99.576H177.062ZM181.292 99.576V101.232H179.186C179.204 100.746 179.24 100.26 179.258 99.576H181.292ZM189.464 95.544C191.93 96.138 193.478 96.336 197.312 96.534L197.69 94.122C194.702 94.086 192.344 93.798 190.202 93.186L189.464 95.544ZM188.078 100.53C188.618 100.44 189.248 100.368 190.166 100.296C192.506 100.098 193.334 100.008 194.18 99.846C193.658 100.314 193.424 100.53 192.812 101.124C189.464 104.292 187.286 106.2 186.134 106.974L188.132 109.242C188.78 108.45 189.662 107.496 190.562 106.614C192.02 105.192 192.812 104.688 193.604 104.688C193.928 104.688 194.198 104.832 194.324 105.048C194.414 105.246 194.45 105.498 194.504 106.146C194.558 107.262 194.63 107.604 194.9 108.018C195.386 108.81 196.25 109.152 197.798 109.152C198.68 109.152 199.364 109.098 200.462 108.936C201.488 108.774 201.776 108.738 202.082 108.738L201.812 106.074C200.768 106.506 199.454 106.776 198.266 106.776C197.222 106.776 196.988 106.542 196.898 105.336C196.79 104.202 196.772 104.094 196.592 103.734C196.286 103.122 195.728 102.816 194.972 102.816C194.63 102.816 194.432 102.852 194.036 102.996C194.252 102.834 194.324 102.762 194.594 102.546C194.774 102.384 194.9 102.276 195.008 102.186C195.89 101.412 195.944 101.376 197.024 100.386C198.032 99.45 198.176 99.324 198.518 99.108L197.114 97.29C196.772 97.434 196.394 97.506 195.566 97.596C192.686 97.884 190.778 97.992 188.978 97.992C188.654 97.992 188.42 97.974 187.916 97.938L188.078 100.53ZM208.238 93.024C208.22 93.798 208.076 94.68 207.752 96.03C207.41 96.048 207.068 96.066 206.96 96.066C205.88 96.066 205.088 96.012 204.44 95.886V98.334C204.98 98.334 205.052 98.334 205.124 98.334C205.736 98.37 205.736 98.37 205.934 98.37C205.97 98.37 206.06 98.37 206.15 98.37C206.582 98.352 206.582 98.352 207.122 98.352C206.258 101.088 205.034 103.608 203.738 105.318L206.204 106.686C206.312 106.452 206.312 106.452 206.546 106.002C207.23 104.706 207.392 104.382 207.806 103.5C208.634 101.718 209.066 100.548 209.768 98.28C211.208 98.154 211.946 98.082 212.576 97.992C212.864 97.938 212.936 97.938 213.134 97.92L213.08 95.436C212.432 95.652 211.532 95.796 210.362 95.904C210.398 95.724 210.398 95.724 210.47 95.454C210.596 94.824 210.686 94.428 210.722 94.266C210.902 93.474 210.902 93.474 210.974 93.294L208.238 93.024ZM220.226 97.56C218.588 96.588 217.148 95.922 214.988 95.148L213.71 97.236C215.798 97.956 217.436 98.73 219.074 99.792L220.226 97.56ZM220.118 105.732C219.974 105.624 219.974 105.624 219.812 105.498C219.506 105.246 219.344 105.12 219.11 104.958C218.228 104.292 217.526 103.896 216.392 103.392C216.266 102.402 216.23 101.772 216.23 100.962C216.23 100.224 216.266 99.9 216.464 99.18L213.962 99.054C213.854 99.72 213.818 100.242 213.818 101.052C213.818 101.574 213.836 102.078 213.908 102.798C213.422 102.726 213.116 102.69 212.594 102.69C211.766 102.69 211.208 102.762 210.668 102.96C209.246 103.464 208.382 104.616 208.382 105.984C208.382 107.91 210.002 109.188 212.468 109.188C213.944 109.188 215.168 108.738 215.798 107.964C216.23 107.424 216.392 106.884 216.41 106.038C217.4 106.632 218.408 107.46 218.966 108.144L220.118 105.732ZM213.962 105.084C213.98 105.084 213.998 105.426 213.998 105.588C213.998 106.47 213.476 106.92 212.396 106.92C211.442 106.92 210.884 106.524 210.884 105.876C210.884 105.246 211.55 104.814 212.54 104.814C213.044 104.814 213.404 104.886 213.962 105.084ZM222.674 94.554C222.728 94.968 222.728 95.112 222.746 95.76C222.854 101.214 223.106 103.5 223.844 105.336C224.6 107.208 225.662 108.162 226.976 108.162C228.632 108.162 229.802 106.56 230.756 103.032C229.73 102.312 229.37 101.97 228.632 101.088C228.416 102.222 228.11 103.302 227.678 104.292C227.48 104.778 227.264 105.03 227.03 105.03C226.112 105.03 225.446 101.844 225.446 97.542C225.446 96.3 225.5 95.274 225.608 94.572L222.674 94.554ZM231.71 96.372C232.826 97.758 233.69 99.288 234.302 100.98C234.932 102.69 235.328 104.634 235.4 106.362L238.118 105.354C237.632 101.268 236.318 98.064 234.014 95.292L231.71 96.372ZM242.654 96.732C242.888 96.732 242.906 96.732 243.284 96.786C244.31 96.912 245.786 97.002 247.01 97.002C247.82 97.002 248.216 96.984 249.062 96.894C248.54 97.2 247.316 97.956 246.686 98.37L248.522 99.738C250.25 98.46 252.356 97.146 253.436 96.66L253.346 94.284C252.374 94.5 250.808 94.608 248.63 94.608C246.002 94.608 243.914 94.446 242.816 94.158L242.654 96.732ZM244.094 100.548C242.384 101.916 241.646 103.176 241.646 104.652C241.646 106.128 242.438 107.172 244.058 107.784C245.066 108.18 246.632 108.378 248.792 108.378C250.106 108.378 251.258 108.306 252.86 108.09C254.048 107.946 254.048 107.946 254.48 107.928L254.282 104.976C253.076 105.444 250.646 105.768 248.432 105.768C245.624 105.768 244.382 105.3 244.382 104.256C244.382 103.554 244.904 102.798 246.002 101.916L244.094 100.548ZM262.202 93.618C262.292 93.87 262.31 93.924 262.49 94.788C262.922 96.966 263.21 98.136 263.642 99.612C262.472 100.188 261.878 100.566 261.158 101.178C260.114 102.078 259.556 103.266 259.556 104.562C259.556 105.444 259.844 106.326 260.348 106.956C261.302 108.162 263.3 108.756 266.414 108.756C267.692 108.756 268.97 108.666 270.932 108.468C271.958 108.36 272.048 108.342 272.444 108.324L272.228 105.39C270.824 105.876 268.412 106.182 266.198 106.182C263.534 106.182 262.346 105.66 262.346 104.472C262.346 103.32 263.606 102.276 266.072 101.358C268.142 100.602 270.428 99.972 272.264 99.666L271.364 96.93C271.094 97.056 271.004 97.092 270.644 97.2C267.836 98.082 267.08 98.316 266.09 98.676C265.532 96.786 265.064 94.392 264.992 93.186L262.202 93.618ZM276.674 102.51C276.998 102.546 277.178 102.582 277.376 102.618C278.312 102.816 278.942 102.906 279.806 103.014C279.752 103.788 279.752 103.968 279.752 104.418C279.752 106.236 280.364 107.442 281.678 108.252C282.506 108.774 283.748 109.062 285.098 109.062C286.79 109.062 288.194 108.648 289.274 107.82C290.39 106.992 291.056 105.696 291.056 104.4C291.056 102.978 290.606 101.844 289.49 100.458C288.464 100.818 288.014 100.908 286.826 100.98C287.852 101.97 288.392 103.014 288.392 104.004C288.392 105.642 287.168 106.578 285.026 106.578C284.09 106.578 283.406 106.362 282.92 105.948C282.506 105.57 282.308 105.048 282.308 104.256C282.308 103.914 282.326 103.518 282.362 103.176C282.992 103.194 283.136 103.194 283.334 103.194C284.198 103.194 285.35 103.122 286.106 103.014C286.448 102.978 286.484 102.96 286.682 102.96L286.736 100.494C285.764 100.764 284.576 100.89 283.154 100.89C283.028 100.89 282.812 100.89 282.524 100.872C282.65 99.882 282.704 99.522 282.83 98.658C282.956 98.658 283.082 98.658 283.1 98.658C284.414 98.658 284.666 98.64 285.818 98.55C286.862 98.46 286.862 98.46 287.132 98.442L287.222 95.922C286.142 96.192 285.044 96.3 283.208 96.336C283.514 94.32 283.568 94.068 283.766 93.492L280.922 93.24V93.456C280.922 94.05 280.832 94.86 280.616 96.246C279.104 96.102 278.186 95.922 277.358 95.616L277.16 97.992C277.43 98.028 277.52 98.046 277.79 98.1C279.14 98.388 279.464 98.442 280.328 98.532C280.148 99.666 280.148 99.666 280.022 100.728C278.366 100.512 277.718 100.386 276.872 100.062L276.674 102.51ZM297.068 102.978C295.268 102.978 293.792 104.454 293.792 106.254C293.792 108.054 295.268 109.53 297.068 109.53C298.886 109.53 300.344 108.072 300.344 106.254C300.344 104.436 298.886 102.978 297.068 102.978ZM297.068 104.76C297.896 104.76 298.562 105.426 298.562 106.254C298.562 107.082 297.896 107.748 297.068 107.748C296.24 107.748 295.574 107.082 295.574 106.254C295.574 105.426 296.24 104.76 297.068 104.76Z" fill="white"/>
<path fill-rule="evenodd" clip-rule="evenodd" d="M241 118.047V119.267C240.781 119.447 240.571 119.649 240.352 119.86L240.337 119.874C239.554 120.628 238.649 121.5 236.891 121.5C235.132 121.5 234.227 120.628 233.444 119.874L233.43 119.86C232.659 119.118 232.007 118.5 230.663 118.5C229.319 118.5 228.667 119.118 227.896 119.86L227.882 119.874C227.099 120.628 226.194 121.5 224.435 121.5C222.676 121.5 221.772 120.628 220.989 119.874L220.974 119.86C220.204 119.118 219.552 118.5 218.208 118.5C216.869 118.5 216.219 119.117 215.45 119.86L215.437 119.872C214.655 120.627 213.75 121.5 211.99 121.5C210.231 121.5 209.326 120.628 208.543 119.874L208.529 119.86C207.758 119.118 207.106 118.5 205.762 118.5C204.423 118.5 203.774 119.117 203.004 119.86L202.992 119.872C202.314 120.526 201.544 121.269 200.207 121.455C200.144 121.484 200.074 121.5 200 121.5C199.922 121.5 199.846 121.498 199.772 121.495C199.698 121.498 199.622 121.5 199.544 121.5C197.791 121.5 196.889 120.629 196.108 119.876L196.092 119.86C195.366 119.159 194.743 118.569 193.544 118.506C192.339 118.569 191.715 119.16 190.986 119.86L190.97 119.876C190.187 120.63 189.282 121.5 187.525 121.5C187.452 121.5 187.381 121.499 187.312 121.496C187.242 121.499 187.171 121.5 187.099 121.5C185.346 121.5 184.444 120.629 183.663 119.876L183.646 119.86C182.918 119.157 182.295 118.566 181.089 118.505C179.883 118.566 179.26 119.157 178.53 119.86L178.515 119.874C177.732 120.628 176.828 121.5 175.069 121.5C175 121.5 174.933 121.499 174.866 121.496C174.8 121.499 174.732 121.5 174.663 121.5C172.91 121.5 172.008 120.629 171.227 119.876L171.211 119.86C170.481 119.155 169.856 118.563 168.643 118.505C167.431 118.563 166.806 119.155 166.074 119.86L166.06 119.874C165.277 120.628 164.372 121.5 162.614 121.5C162.546 121.5 162.48 121.499 162.416 121.496C162.351 121.499 162.285 121.5 162.218 121.5C160.465 121.5 159.563 120.629 158.782 119.876L158.765 119.86C158.034 119.154 157.409 118.561 156.193 118.504C154.977 118.561 154.352 119.154 153.619 119.86L153.605 119.874C152.822 120.628 151.917 121.5 150.158 121.5C148.399 121.5 147.495 120.628 146.712 119.874L146.697 119.86C145.927 119.118 145.275 118.5 143.93 118.5C142.592 118.5 141.942 119.117 141.172 119.86L141.16 119.872C140.377 120.627 139.473 121.5 137.713 121.5C135.954 121.5 135.049 120.628 134.266 119.874L134.252 119.86C133.481 119.118 132.829 118.5 131.485 118.5C130.141 118.5 129.489 119.118 128.718 119.86L128.704 119.874C127.921 120.628 127.016 121.5 125.257 121.5C123.498 121.5 122.594 120.628 121.811 119.874L121.796 119.86C121.026 119.118 120.374 118.5 119.029 118.5C117.685 118.5 117.033 119.118 116.262 119.86L116.248 119.874C115.465 120.628 114.56 121.5 112.802 121.5C111.043 121.5 110.138 120.628 109.355 119.874L109.341 119.86C108.57 119.118 107.918 118.5 106.574 118.5C105.23 118.5 104.578 119.118 103.807 119.86L103.793 119.874C103.01 120.628 102.105 121.5 100.346 121.5C98.5875 121.5 97.6828 120.628 96.8998 119.874L96.8854 119.86C96.1148 119.118 95.4628 118.5 94.1185 118.5C92.7741 118.5 92.1221 119.118 91.3515 119.86L91.3371 119.874C90.5541 120.628 89.6495 121.5 87.8907 121.5C86.132 121.5 85.2274 120.628 84.4444 119.874L84.43 119.86C83.6594 119.118 83.0073 118.5 81.663 118.5C80.3187 118.5 79.6666 119.118 78.896 119.86L78.8816 119.874C78.0986 120.628 77.194 121.5 75.4353 121.5C73.6765 121.5 72.7719 120.628 71.9889 119.874L71.9745 119.86C71.2039 119.118 70.5518 118.5 69.2075 118.5C67.8687 118.5 67.2194 119.117 66.4496 119.86L66.4371 119.872C65.6546 120.627 64.75 121.5 62.9898 121.5C61.231 121.5 60.3264 120.628 59.5434 119.874L59.529 119.86C58.7584 119.118 58.1064 118.5 56.762 118.5C55.4232 118.5 54.7739 119.117 54.0041 119.86L53.9916 119.872C53.2091 120.627 52.3045 121.5 50.5443 121.5C48.7915 121.5 47.8892 120.629 47.1084 119.876L47.0919 119.86C46.3229 119.118 45.6708 118.5 44.3265 118.5C42.9822 118.5 42.3302 119.118 41.5595 119.86L41.5452 119.874C40.7621 120.628 39.8575 121.5 38.0988 121.5C36.346 121.5 35.4437 120.629 34.6629 119.876L34.6464 119.86C33.8774 119.118 33.2253 118.5 31.881 118.5C30.5422 118.5 29.8929 119.117 29.1231 119.86L29.1106 119.872C28.3281 120.627 27.4235 121.5 25.6633 121.5C23.9105 121.5 23.0082 120.629 22.2274 119.876L22.2109 119.86C21.4418 119.118 20.7898 118.5 19.4455 118.5C18.1012 118.5 17.4491 119.118 16.6785 119.86L16.6641 119.874C15.8811 120.628 14.9765 121.5 13.2178 121.5C11.465 121.5 10.5627 120.629 9.78187 119.876L9.76542 119.86C8.99635 119.118 8.34428 118.5 7 118.5C6.72386 118.5 6.5 118.276 6.5 118C6.5 117.724 6.72386 117.5 7 117.5C8.7602 117.5 9.66483 118.373 10.4473 119.128L10.4598 119.14C11.2297 119.883 11.879 120.5 13.2178 120.5C14.5621 120.5 15.2141 119.882 15.9847 119.14L15.9991 119.126C16.7821 118.372 17.6867 117.5 19.4455 117.5C21.2057 117.5 22.1103 118.373 22.8928 119.128L22.9053 119.14C23.6752 119.883 24.3245 120.5 25.6633 120.5C27.0075 120.5 27.6596 119.882 28.4287 119.14L28.4451 119.124C29.2259 118.371 30.1282 117.5 31.881 117.5C33.6412 117.5 34.5458 118.373 35.3283 119.128L35.3408 119.14C36.1107 119.883 36.76 120.5 38.0988 120.5C39.4431 120.5 40.0951 119.882 40.8657 119.14L40.8801 119.126C41.6631 118.372 42.5678 117.5 44.3265 117.5C46.0867 117.5 46.9913 118.373 47.7738 119.128L47.7863 119.14C48.5562 119.883 49.2055 120.5 50.5443 120.5C51.8885 120.5 52.5406 119.882 53.3097 119.14L53.3261 119.124C54.1069 118.371 55.0092 117.5 56.762 117.5C58.5208 117.5 59.4254 118.372 60.2084 119.126L60.2228 119.14C60.9934 119.882 61.6454 120.5 62.9898 120.5C64.334 120.5 64.9861 119.882 65.7552 119.14L65.7716 119.124C66.5524 118.371 67.4547 117.5 69.2075 117.5C70.9663 117.5 71.8709 118.372 72.6539 119.126L72.6683 119.14C73.4389 119.882 74.0909 120.5 75.4353 120.5C76.7796 120.5 77.4316 119.882 78.2022 119.14L78.2166 119.126C78.9996 118.372 79.9042 117.5 81.663 117.5C83.4218 117.5 84.3264 118.372 85.1094 119.126L85.1238 119.14C85.8944 119.882 86.5464 120.5 87.8907 120.5C89.2351 120.5 89.8871 119.882 90.6577 119.14L90.6721 119.126C91.4551 118.372 92.3597 117.5 94.1185 117.5C95.8772 117.5 96.7819 118.372 97.5649 119.126L97.5792 119.14C98.3498 119.882 99.0019 120.5 100.346 120.5C101.691 120.5 102.343 119.882 103.113 119.14L103.128 119.126C103.911 118.372 104.815 117.5 106.574 117.5C108.333 117.5 109.237 118.372 110.02 119.126L110.035 119.14C110.805 119.882 111.457 120.5 112.802 120.5C114.146 120.5 114.798 119.882 115.569 119.14L115.583 119.126C116.366 118.372 117.271 117.5 119.029 117.5C120.788 117.5 121.693 118.372 122.476 119.126L122.49 119.14C123.261 119.882 123.913 120.5 125.257 120.5C126.601 120.5 127.254 119.882 128.024 119.14L128.039 119.126C128.822 118.372 129.726 117.5 131.485 117.5C133.244 117.5 134.148 118.372 134.931 119.126L134.946 119.14C135.716 119.882 136.368 120.5 137.713 120.5C139.057 120.5 139.709 119.882 140.478 119.14L140.495 119.124C141.275 118.371 142.178 117.5 143.93 117.5C145.689 117.5 146.594 118.372 147.377 119.126L147.391 119.14C148.162 119.882 148.814 120.5 150.158 120.5C151.502 120.5 152.154 119.882 152.925 119.14L152.939 119.126C153.635 118.456 154.426 117.694 155.825 117.532C155.879 117.511 155.938 117.5 156 117.5C156.065 117.5 156.13 117.501 156.193 117.504C156.256 117.501 156.32 117.5 156.386 117.5C158.145 117.5 159.049 118.372 159.832 119.126L159.847 119.14C160.578 119.845 161.203 120.437 162.416 120.495C163.628 120.437 164.253 119.845 164.985 119.14L164.999 119.126C165.782 118.372 166.687 117.5 168.445 117.5C168.513 117.5 168.579 117.501 168.643 117.504C168.708 117.501 168.774 117.5 168.841 117.5C170.6 117.5 171.505 118.372 172.288 119.126L172.302 119.14C173.033 119.844 173.657 120.436 174.866 120.495C176.075 120.436 176.699 119.844 177.429 119.14L177.445 119.124C178.226 118.371 179.128 117.5 180.881 117.5C180.952 117.5 181.021 117.501 181.089 117.504C181.157 117.501 181.226 117.5 181.297 117.5C183.056 117.5 183.96 118.372 184.743 119.126L184.758 119.14C185.486 119.842 186.109 120.433 187.312 120.495C188.514 120.433 189.137 119.842 189.866 119.14L189.88 119.126C190.663 118.372 191.568 117.5 193.327 117.5C193.401 117.5 193.473 117.502 193.544 117.505C193.615 117.502 193.688 117.5 193.762 117.5C195.52 117.5 196.424 118.37 197.208 119.124L197.224 119.14C197.951 119.839 198.574 120.428 199.772 120.494C200.965 120.428 201.585 119.839 202.31 119.14L202.326 119.124C203.107 118.371 204.009 117.5 205.762 117.5C207.521 117.5 208.425 118.372 209.208 119.126L209.223 119.14C209.993 119.882 210.645 120.5 211.99 120.5C213.334 120.5 213.986 119.882 214.755 119.14L214.772 119.124C215.552 118.371 216.455 117.5 218.208 117.5C219.966 117.5 220.871 118.372 221.654 119.126L221.668 119.14C222.439 119.882 223.091 120.5 224.435 120.5C225.78 120.5 226.432 119.882 227.202 119.14L227.217 119.126C228 118.372 228.904 117.5 230.663 117.5C232.422 117.5 233.326 118.372 234.109 119.126L234.124 119.14C234.894 119.882 235.546 120.5 236.891 120.5C238.235 120.5 238.887 119.882 239.658 119.14L239.672 119.126L239.672 119.126C240.057 118.756 240.47 118.357 241 118.047Z" fill="white"/>
</svg>
