<!-- 01EZTX9M3AWK0ZB16B6KYR56F1 -->

<svg width="343" height="152" viewBox="0 0 343 152" fill="none" xmlns="http://www.w3.org/2000/svg">
<rect width="343" height="152" fill="#44ABA6"/>
<g clip-path="url(#clip0)">
<path d="M293.792 75.1062C292.689 73.6362 290.067 72.3749 286.8 73.0105C286.681 73.0304 286.562 73.0602 286.432 73.09C285.399 73.3284 284.516 73.7256 283.741 74.2818C282.162 75.3743 280.99 77.0727 279.838 79.2577L274.951 81.8003L273.571 82.5154L274.941 85.1572L276.471 84.3627L281.625 81.691C281.894 81.542 282.122 81.3235 282.261 81.0454C283.959 77.748 285.221 76.4271 287.098 75.9901C288.657 75.6325 289.978 75.9305 290.773 76.3675C289.084 79.6848 285.111 85.634 284.198 86.657C282.529 88.5241 275.17 95.6553 273.501 96.3604H253.25C251.899 96.3604 250.995 96.7676 250.37 97.2245C249.982 97.5125 249.694 97.8105 249.466 98.0588L249.287 98.2574L251.393 100.363C251.482 100.274 251.562 100.184 251.651 100.095C251.949 99.7671 252.167 99.5386 252.565 99.4194C252.743 99.3698 252.962 99.34 253.25 99.34H273.65C276.381 99.34 286.323 88.7526 286.422 88.6433C287.565 87.3522 292.541 79.9033 293.961 76.5761C294.169 76.0894 294.11 75.5332 293.792 75.1062Z" fill="white"/>
<path d="M270.74 90.5998H259.09V87.6202H270.75C271.713 87.6202 272.498 87.362 273.004 86.8853C273.402 86.5079 273.63 86.0013 273.63 85.465C273.63 84.3924 272.736 83.3098 270.75 83.3098H263.053C262.01 83.3098 261.096 82.6046 260.033 81.8001C259.308 81.2439 258.206 80.3997 257.64 80.3997H250.34C248.949 80.3997 246.874 81.6611 245.523 82.9125L239.733 88.7028L237.627 86.5972L243.457 80.7672C245.135 79.198 247.916 77.4202 250.34 77.4202H257.62C259.199 77.4202 260.599 78.4928 261.831 79.4363C262.248 79.7542 262.864 80.221 263.132 80.3401H270.74C274.584 80.3401 276.6 82.9224 276.6 85.4749C276.6 86.8455 276.044 88.1168 275.04 89.0703C274.286 89.7556 272.935 90.5998 270.74 90.5998Z" fill="white"/>
<path d="M254.313 101.167L250.37 97.2245L240.795 87.6501L238.68 85.5446L236.823 83.6873C236.247 83.1013 235.303 83.1013 234.717 83.6873L227.437 90.9674C226.851 91.5534 226.851 92.4969 227.437 93.0729L244.917 110.563C245.205 110.851 245.593 111 245.97 111C246.347 111 246.735 110.851 247.023 110.563L254.313 103.273C254.889 102.697 254.889 101.753 254.313 101.167ZM245.97 107.395L230.595 92.0201L235.77 86.8456L251.144 102.22L245.97 107.395Z" fill="white"/>
<path d="M236.825 90.9632L234.719 93.0703L237.634 95.9844L239.74 93.8772L236.825 90.9632Z" fill="white"/>
<path d="M273.551 53.6632C273.293 54.0803 273.064 54.5372 272.875 55.0239C272.816 54.9742 272.746 54.9246 272.687 54.8749C272.488 54.7359 272.299 54.5869 272.111 54.4578C271.852 54.2591 271.594 54.0704 271.336 53.8916L273.064 51.4683C273.382 51.6967 273.71 51.9251 274.018 52.1635C274.167 52.2628 274.306 52.3621 274.445 52.4714C274.464 52.4813 274.474 52.4912 274.494 52.5111C274.176 52.819 273.888 53.1666 273.63 53.544C273.6 53.5838 273.581 53.6235 273.551 53.6632Z" fill="white"/>
<path d="M286.8 73.0105V73.0502C286.8 73.8646 286.721 74.679 286.572 75.4537L283.652 74.8975C283.691 74.689 283.721 74.4903 283.741 74.2817C283.791 73.8845 283.821 73.4673 283.821 73.0502C283.821 70.0011 282.976 66.9917 281.298 64.1115C281.268 64.042 281.238 63.9923 281.208 63.9426C281.437 63.8831 281.665 63.8036 281.884 63.7142C282.122 63.6149 282.361 63.4957 282.589 63.3666C283.036 63.1282 283.453 62.8303 283.821 62.5125C283.84 62.5621 283.87 62.6118 283.9 62.6614C285.807 65.9489 286.79 69.435 286.8 73.0105Z" fill="white"/>
<path d="M252.396 79.784C251.015 77.8771 250.31 75.6126 250.31 73.0502C250.31 65.2239 255.067 57.765 264.056 51.4583L265.764 53.9015C257.491 59.7017 253.29 66.1475 253.29 73.0502C253.29 74.977 253.796 76.6455 254.799 78.036L252.396 79.784Z" fill="white"/>
<path d="M276.709 42.3905L275.021 42.4601C274.167 42.4998 272.597 42.5792 268.923 41.6456C266.599 41.0597 261.782 39.838 259.557 43.8307C259.11 44.6351 259.001 44.8238 262.973 52.243C263.172 52.6105 263.381 52.9978 263.599 53.3951L263.708 53.5639C263.986 53.9513 264.463 54.2294 265.009 54.4379C266.509 55.014 268.525 55.0537 268.555 55.0537C268.674 55.0537 270.651 55.0438 272.111 54.4578C272.677 54.2294 273.163 53.9215 273.442 53.4944L273.571 53.256C273.73 52.8786 273.879 52.5211 274.018 52.1635C275.925 47.5452 276.858 44.7444 276.799 43.8406L276.709 42.3905ZM268.555 52.0741C267.83 52.0741 266.569 51.8556 266.052 51.6669C264.602 48.9654 263.073 46.0157 262.516 44.7742C263.41 43.781 265.019 43.7313 268.188 44.5358C270.591 45.1417 272.25 45.3602 273.402 45.4297C272.866 47.0089 271.902 49.4918 270.988 51.7067C270.462 51.8854 269.29 52.0741 268.555 52.0741Z" fill="white"/>
<path d="M272.945 62.7011C272.995 62.572 272.945 62.5024 272.806 62.5024H270.879C270.75 62.5024 270.661 62.572 270.621 62.7011L268.317 68.2133H268.257L265.923 62.7011C265.884 62.572 265.794 62.5024 265.665 62.5024H263.718C263.579 62.5024 263.53 62.572 263.579 62.7011L266.579 69.0873V69.127H264.612C264.483 69.127 264.414 69.1866 264.414 69.3257V70.4778C264.414 70.6069 264.483 70.6764 264.612 70.6764H267.036C267.115 70.6764 267.155 70.7161 267.155 70.7956V71.6001C267.155 71.6795 267.115 71.7192 267.036 71.7192H264.612C264.483 71.7192 264.414 71.7888 264.414 71.9179V73.07C264.414 73.209 264.483 73.2686 264.612 73.2686H267.036C267.115 73.2686 267.155 73.3083 267.155 73.3878V75.7913C267.155 75.9204 267.214 75.99 267.353 75.99H269.171C269.31 75.99 269.37 75.9204 269.37 75.7913V73.3878C269.37 73.3083 269.409 73.2686 269.489 73.2686H271.892C272.021 73.2686 272.091 73.209 272.091 73.07V71.9179C272.091 71.7888 272.021 71.7192 271.892 71.7192H269.489C269.409 71.7192 269.37 71.6795 269.37 71.6001V70.7956C269.37 70.7161 269.409 70.6764 269.489 70.6764H271.892C272.021 70.6764 272.091 70.6069 272.091 70.4778V69.3257C272.091 69.1866 272.021 69.127 271.892 69.127H269.946V69.0873L272.945 62.7011Z" fill="white"/>
<path d="M296.511 54.8346C296.052 53.7425 295.285 52.8132 294.298 52.1426C293.8 51.8073 293.264 51.5486 292.699 51.3762C292.124 51.1942 291.511 51.0984 290.878 51.0984C290.083 51.0984 289.307 51.2517 288.579 51.5486C288.541 51.5678 288.502 51.5774 288.474 51.5965C288.455 51.6061 288.426 51.6157 288.407 51.6253C287.774 51.9031 287.2 52.2863 286.673 52.7749C286.51 52.9282 286.356 53.091 286.213 53.2635C285.983 53.5317 285.734 53.8479 285.418 54.2598L285.255 54.4706C285.111 54.6718 283.76 56.6453 283.521 56.9997C283.425 57.1434 283.32 57.2967 283.205 57.4596L283.003 57.747C282.774 58.0823 282.486 58.4559 282.218 58.8104C282.093 58.9732 281.969 59.1265 281.854 59.2511C281.748 59.3756 281.653 59.4714 281.586 59.5289C281.298 59.8067 280.963 60.0175 280.589 60.1708C280.206 60.324 279.804 60.4007 279.392 60.4007C279.104 60.4007 278.826 60.3624 278.549 60.2857C278.501 60.2761 278.453 60.257 278.395 60.2378C278.309 60.2091 278.233 60.1803 278.146 60.142C277.572 59.9025 277.083 59.5002 276.738 58.9828C276.566 58.7242 276.422 58.4368 276.336 58.1494C276.24 57.8236 276.192 57.5171 276.192 57.2009C276.192 56.7698 276.278 56.3579 276.441 55.9555C276.681 55.3903 277.083 54.9017 277.6 54.5472C277.849 54.3748 278.137 54.2407 278.434 54.1449C278.75 54.0491 279.066 54.0012 279.373 54.0012C279.794 54.0012 280.196 54.0874 280.57 54.2311C280.944 54.3844 281.279 54.6047 281.566 54.873C281.633 54.94 281.729 55.0454 281.835 55.1604C282.017 55.3807 282.247 55.6681 282.496 55.9842C282.544 56.0417 282.582 56.0992 282.63 56.1567C282.994 55.6202 284.134 53.9533 284.287 53.7425L284.373 53.618C284.268 53.4838 284.163 53.3497 284.048 53.2347C283.875 53.0336 283.732 52.8803 283.588 52.7366C283.032 52.2097 282.39 51.8073 281.691 51.5103C280.963 51.2133 280.187 51.0601 279.392 51.0601C278.568 51.0601 277.763 51.2229 277.006 51.5391C275.914 51.9989 274.985 52.7653 274.314 53.7521C273.979 54.2407 273.73 54.7772 273.538 55.352C273.356 55.9459 273.27 56.5495 273.27 57.1722C273.27 57.9961 273.433 58.8008 273.749 59.5576C274.209 60.6498 274.975 61.579 275.962 62.2497C276.46 62.5754 276.997 62.8436 277.571 63.0161C278.156 63.1981 278.769 63.2939 279.392 63.2939C280.187 63.2939 280.963 63.1406 281.691 62.8436C282.342 62.5754 282.936 62.2018 283.473 61.7227C283.511 61.694 283.55 61.6557 283.588 61.6174C283.751 61.4737 283.894 61.3108 284.057 61.1192C284.287 60.851 284.536 60.5348 284.852 60.1229L285.015 59.9121C285.111 59.7876 285.858 58.6858 286.462 57.8045C286.807 57.2871 287.104 56.8656 287.161 56.789L287.267 56.6357C287.525 56.2621 287.803 55.8884 288.052 55.5723C288.177 55.4094 288.301 55.2562 288.416 55.1316C288.522 55.0071 288.617 54.9113 288.684 54.8538C288.972 54.5855 289.307 54.3652 289.671 54.2119C289.767 54.1736 289.853 54.1449 289.939 54.1161C290.026 54.0874 290.112 54.0682 290.208 54.0491C290.418 54.0012 290.639 53.982 290.869 53.982C291.309 53.982 291.731 54.0682 292.114 54.2311C292.689 54.4706 293.178 54.873 293.522 55.3903C293.704 55.6489 293.839 55.9363 293.925 56.2238C294.021 56.5303 294.068 56.8465 294.068 57.1722C294.068 57.6033 293.982 58.0152 293.819 58.4176C293.57 58.9924 293.178 59.481 292.66 59.8259C292.392 60.0079 292.114 60.142 291.827 60.2282C291.52 60.324 291.194 60.372 290.878 60.372C290.466 60.372 290.064 60.2953 289.681 60.142C289.317 59.9887 288.981 59.778 288.684 59.5097C288.617 59.4427 288.522 59.3373 288.416 59.2223C288.244 59.0212 288.033 58.7529 287.755 58.3889C287.717 58.341 287.679 58.2835 287.64 58.226C287.564 58.341 287.487 58.4559 287.401 58.5805C286.471 59.9313 286.079 60.5157 285.992 60.6402L285.897 60.7743C286.012 60.9084 286.107 61.033 286.213 61.1479C286.376 61.3491 286.529 61.512 286.682 61.6461C287.238 62.173 287.88 62.5754 288.579 62.8724C289.307 63.1693 290.083 63.3226 290.878 63.3226C291.702 63.3226 292.507 63.1598 293.264 62.8436C294.356 62.3838 295.285 61.6174 295.956 60.6306C296.291 60.1229 296.55 59.5864 296.722 59.0307C296.904 58.4463 297 57.8332 297 57.2105C296.99 56.3866 296.837 55.5819 296.511 54.8346Z" fill="white"/>
<g clip-path="url(#clip1)">
<path d="M243.38 61.3799L243.13 61.1299" stroke="white" stroke-width="2.2668" stroke-miterlimit="10" stroke-linecap="round" stroke-linejoin="round"/>
<path d="M246.83 64.8301L246.59 64.5901" stroke="white" stroke-width="2.2668" stroke-miterlimit="10" stroke-linecap="round" stroke-linejoin="round"/>
<path d="M243.38 64.5901L243.13 64.8301" stroke="white" stroke-width="2.2668" stroke-miterlimit="10" stroke-linecap="round" stroke-linejoin="round"/>
<path d="M246.83 61.1299L246.59 61.3799" stroke="white" stroke-width="2.2668" stroke-miterlimit="10" stroke-linecap="round" stroke-linejoin="round"/>
</g>
<g clip-path="url(#clip2)">
<path d="M283.38 97.3799L283.13 97.1299" stroke="white" stroke-width="2.2668" stroke-miterlimit="10" stroke-linecap="round" stroke-linejoin="round"/>
<path d="M286.83 100.83L286.59 100.59" stroke="white" stroke-width="2.2668" stroke-miterlimit="10" stroke-linecap="round" stroke-linejoin="round"/>
<path d="M283.38 100.59L283.13 100.83" stroke="white" stroke-width="2.2668" stroke-miterlimit="10" stroke-linecap="round" stroke-linejoin="round"/>
<path d="M286.83 97.1299L286.59 97.3799" stroke="white" stroke-width="2.2668" stroke-miterlimit="10" stroke-linecap="round" stroke-linejoin="round"/>
</g>
<g clip-path="url(#clip3)">
<path d="M228.38 69.3799L228.13 69.1299" stroke="white" stroke-width="2.2668" stroke-miterlimit="10" stroke-linecap="round" stroke-linejoin="round"/>
<path d="M231.83 72.8301L231.59 72.5901" stroke="white" stroke-width="2.2668" stroke-miterlimit="10" stroke-linecap="round" stroke-linejoin="round"/>
<path d="M228.38 72.5901L228.13 72.8301" stroke="white" stroke-width="2.2668" stroke-miterlimit="10" stroke-linecap="round" stroke-linejoin="round"/>
<path d="M231.83 69.1299L231.59 69.3799" stroke="white" stroke-width="2.2668" stroke-miterlimit="10" stroke-linecap="round" stroke-linejoin="round"/>
</g>
<g clip-path="url(#clip4)">
<path d="M234.13 55.08L234.91 54.3" stroke="white" stroke-width="2.2668" stroke-miterlimit="10" stroke-linecap="round" stroke-linejoin="round"/>
<path d="M238.3 50.9099L239.08 50.1299" stroke="white" stroke-width="2.2668" stroke-miterlimit="10" stroke-linecap="round" stroke-linejoin="round"/>
<path d="M239.08 55.08L238.3 54.3" stroke="white" stroke-width="2.2668" stroke-miterlimit="10" stroke-linecap="round" stroke-linejoin="round"/>
<path d="M234.91 50.9099L234.13 50.1299" stroke="white" stroke-width="2.2668" stroke-miterlimit="10" stroke-linecap="round" stroke-linejoin="round"/>
</g>
<g clip-path="url(#clip5)">
<path d="M291.13 110.08L291.91 109.3" stroke="white" stroke-width="2.2668" stroke-miterlimit="10" stroke-linecap="round" stroke-linejoin="round"/>
<path d="M295.3 105.91L296.08 105.13" stroke="white" stroke-width="2.2668" stroke-miterlimit="10" stroke-linecap="round" stroke-linejoin="round"/>
<path d="M296.08 110.08L295.3 109.3" stroke="white" stroke-width="2.2668" stroke-miterlimit="10" stroke-linecap="round" stroke-linejoin="round"/>
<path d="M291.91 105.91L291.13 105.13" stroke="white" stroke-width="2.2668" stroke-miterlimit="10" stroke-linecap="round" stroke-linejoin="round"/>
</g>
</g>
<path d="M56.58 92.36C55.29 92.36 54.54 92.33 53.79 92.27C53.85 93.14 53.88 93.83 53.88 94.67V102.17C53.88 103.01 53.85 103.73 53.79 104.57C54.6 104.51 55.23 104.48 56.58 104.48H63.48C64.65 104.48 65.49 104.51 66.27 104.57C66.21 103.82 66.18 103.1 66.18 102.17V94.67C66.18 93.8 66.21 92.99 66.27 92.27C65.49 92.33 64.77 92.36 63.48 92.36H56.58ZM57.54 95.72H62.52V101.12H57.54V95.72ZM73.14 112.58C73.02 111.74 72.96 110.18 72.96 108.59V89.39C72.96 87.92 73.02 86.9 73.11 85.82C72.06 85.94 71.07 85.97 69.6 85.97H50.55C49.08 85.97 48.09 85.94 47.04 85.82C47.13 86.96 47.19 87.95 47.19 89.39V108.56C47.19 110.33 47.13 111.59 47.01 112.58H51.12V111.02H69.06V112.58H73.14ZM51.12 89.51H69.03V107.51H51.12V89.51ZM104.28 89.36C103.59 89.48 102.9 89.51 101.43 89.51H96.66C96.93 88.52 96.99 88.37 97.14 87.74C97.56 86.03 97.71 85.46 97.77 85.25L93.87 84.5C93.87 84.95 93.72 86.12 93.51 87.11C92.61 91.67 91.2 94.91 89.07 97.31C89.85 98.03 90.36 98.6 91.08 99.65C90.6 99.71 90 99.74 89.16 99.74H84.75C84.96 99.26 85.05 99.08 85.32 98.48L81.6 97.82C81.27 98.75 81.15 99.11 80.91 99.74H78.78C77.64 99.74 77.01 99.71 76.32 99.59V103.16C77.04 103.04 77.7 103.01 78.78 103.01H79.35C78.69 104.12 78.36 104.63 77.34 105.95C79.47 106.7 80.25 107.03 81.69 107.66C79.98 108.62 78.57 109.07 76.08 109.43C76.86 110.51 77.4 111.44 77.91 112.73C81.03 111.98 83.07 111.02 85.08 109.34C86.49 110.12 86.85 110.36 87.96 111.23L88.95 109.64C89.76 110.48 90.39 111.38 90.99 112.7C93.33 111.44 95.34 109.88 97.17 107.84C98.79 109.85 100.59 111.41 102.66 112.64C103.29 111.11 103.86 110.09 104.73 108.86C102.63 107.81 100.92 106.46 99.45 104.66C101.28 101.36 102.09 98.24 102.48 92.96C103.47 92.99 103.71 92.99 104.28 93.08V89.36ZM90.03 107.87C88.89 107.24 88.47 107 87.54 106.58C88.32 105.38 88.71 104.51 89.16 103.01C90.18 103.01 90.9 103.07 91.47 103.13V100.16C92.13 99.38 92.28 99.17 92.76 98.39C93.3 100.88 93.9 102.56 95.04 104.66C93.48 106.49 91.74 107.84 89.28 109.07L90.03 107.87ZM98.76 92.96C98.61 96.23 98.13 98.75 97.2 101.06C96.03 98.51 95.61 97.01 95.13 93.89C95.28 93.5 95.34 93.35 95.49 92.96H98.76ZM85.47 103.01C85.17 103.91 84.93 104.45 84.39 105.2C83.73 104.93 83.34 104.81 82.23 104.42C82.68 103.7 82.8 103.49 83.07 103.01H85.47ZM89.04 89.99H85.98V86.6C85.98 85.7 86.01 85.19 86.1 84.65H82.29C82.38 85.22 82.41 85.73 82.41 86.66V89.99H78.99C77.82 89.99 77.16 89.96 76.41 89.87V93.17C77.13 93.08 77.91 93.05 78.99 93.05H80.25C79.05 94.43 77.79 95.33 75.72 96.29C76.8 97.43 77.19 97.97 77.88 99.2C80.01 97.79 80.76 97.07 82.44 94.94C82.41 95.42 82.38 95.93 82.38 96.17V97.04C82.38 97.31 82.35 97.61 82.29 97.91H86.04C85.98 97.58 85.98 97.22 85.98 96.89V96.05C85.98 95.87 85.92 95.27 85.89 94.94C86.73 96.2 86.91 96.38 88.38 97.61C89.01 96.38 89.43 95.75 90.21 94.79C89.13 94.22 88.47 93.74 87.81 93.05H89.49C90.42 93.05 90.99 93.08 91.38 93.14V89.9C91.02 89.96 90.45 89.99 89.52 89.99H89.31C90.18 88.67 90.51 88.04 91.5 86.06L88.32 84.77C87.81 86.18 87.18 87.32 86.22 88.7L89.04 89.99ZM76.86 86.12C77.82 87.35 78.39 88.31 79.08 89.93L82.14 88.61C81.45 87.11 81 86.36 79.86 84.86L76.86 86.12ZM110.73 93.98H109.38C107.91 93.98 107.34 93.95 106.44 93.83V97.7C107.31 97.58 108 97.55 109.38 97.55H110.55V101.03H109.92C108.51 101.03 107.79 101 106.98 100.88V104.69C107.76 104.57 108.42 104.54 109.56 104.54H129.72L126.72 105.98C128.46 108.47 129.24 109.88 130.35 112.4L133.77 110.27C132.48 107.96 131.58 106.61 129.93 104.54H130.41C131.73 104.54 132.36 104.57 133.2 104.69V100.88C132.42 101 131.82 101.03 130.35 101.03H129.93V97.55H130.92C132.36 97.55 132.96 97.58 133.86 97.7V93.83C132.96 93.95 132.39 93.98 130.92 93.98H129.93V90.56C131.25 90.59 131.79 90.62 132.75 90.74V86.87C131.79 86.99 130.71 87.05 128.91 87.05H114.6C115.02 86.42 115.26 86.03 115.59 85.52C115.83 85.1 115.86 85.04 116.1 84.71L111.99 84.05C111.84 84.47 111.6 84.98 111.33 85.46C110.16 87.41 108.63 88.94 105.9 90.83C106.89 91.7 107.55 92.42 108.36 93.5C109.59 92.6 110.04 92.21 110.73 91.55V93.98ZM114.06 90.56H116.01V93.98H114.06V90.56ZM119.28 90.56H121.17V93.98H119.28V90.56ZM114.06 97.55H116.01V101.03H114.06V97.55ZM119.28 97.55H121.17V101.03H119.28V97.55ZM124.44 101.03V97.55H126.42V101.03H124.44ZM124.44 93.98V90.56H126.42V93.98H124.44ZM125.94 111.59C125.43 109.1 125.04 107.69 124.17 105.2L120.66 105.98C121.41 108.62 121.59 109.49 122.01 112.43L125.94 111.59ZM118.89 112.22C118.77 109.76 118.62 108.38 118.14 105.44L114.63 105.83C114.84 107.39 114.99 109.82 114.99 111.29C114.99 111.56 114.99 111.98 114.96 112.52L118.89 112.22ZM109.38 112.61C111.24 110.45 111.99 109.19 113.25 106.19L109.95 104.57C108.93 107.12 108.06 108.41 106.26 110.18L109.38 112.61ZM143.01 91.73V93.83H138.99C137.82 93.83 137.1 93.8 136.35 93.68V97.46C137.25 97.34 138.06 97.31 139.53 97.31H143.01V99.29H140.07C138.75 99.29 138.03 99.26 137.13 99.17C137.22 99.98 137.25 100.79 137.25 101.99V107.84C137.25 109.34 137.22 109.94 137.1 110.72H140.88C140.82 109.91 140.79 109.16 140.79 107.9V102.71H143.01V109.43C143.01 111.11 142.98 111.8 142.83 112.64H146.73C146.61 111.92 146.58 111.08 146.58 109.49V102.71H148.71V106.7C148.71 107.06 148.56 107.15 148.05 107.15C147.72 107.15 147.15 107.12 146.73 107.09C147.18 108.2 147.33 108.95 147.42 110.45C148.08 110.48 148.29 110.48 148.74 110.48C151.38 110.48 152.1 109.91 152.1 107.84V101.81C152.1 100.4 152.1 99.83 152.19 99.17C151.38 99.26 150.78 99.29 149.4 99.29H146.58V97.31H149.67C151.14 97.31 151.77 97.34 152.58 97.43V93.71C151.71 93.8 151.05 93.83 149.82 93.83H146.58V91.73H148.98C150.27 91.73 151.11 91.76 151.95 91.85V88.1C151.08 88.22 150.42 88.25 148.98 88.25H146.58V87.5C146.58 86.09 146.61 85.46 146.73 84.74H142.83C142.95 85.52 143.01 86.18 143.01 87.56V88.25H141.18C141.36 87.47 141.45 87.02 141.48 86.93C141.54 86.54 141.69 85.94 141.75 85.7L138.18 85.1C138.18 85.37 138.12 86 138 86.54C137.67 88.31 136.95 90.23 135.9 92.06C137.22 92.63 137.94 93.02 139.32 93.8C139.74 92.81 139.86 92.51 140.16 91.73H143.01ZM153.42 86.96C153.54 87.8 153.6 88.58 153.6 90.11V102.26C153.6 104.09 153.57 104.6 153.45 105.38H157.35C157.23 104.6 157.23 104.03 157.23 102.26V90.02C157.23 88.52 157.26 87.77 157.35 86.96H153.42ZM158.97 84.86C159.09 85.85 159.15 86.75 159.15 88.61V107.9C159.15 108.65 158.91 108.8 157.77 108.8C156.87 108.8 155.43 108.68 154.05 108.5C154.68 109.88 154.89 110.63 155.04 112.28C156.81 112.34 157.05 112.34 157.38 112.34C158.28 112.34 159.36 112.28 160.05 112.16C161.1 112.01 161.64 111.8 162.15 111.32C162.72 110.78 162.96 110 162.96 108.47V88.49C162.96 86.57 162.99 85.73 163.14 84.86H158.97ZM191.43 99.41C191.79 99.41 191.82 99.41 192.54 99.44C192.45 98.33 192.42 97.79 192.42 96.17V88.91C192.42 87.11 192.45 86.21 192.54 85.58C191.64 85.67 191.25 85.7 189.78 85.7H180.78C179.25 85.7 178.59 85.67 177.93 85.55C178.02 86.75 178.05 87.47 178.05 88.79V108.14C176.49 108.41 175.35 108.56 174.72 108.56L175.41 112.58C175.71 112.49 176.04 112.4 176.64 112.25L180.63 111.38C183.54 110.69 184.32 110.48 186.54 109.85L186.51 107.12C187.02 107.84 187.41 108.32 187.95 108.92C189.36 110.45 190.53 111.41 192.51 112.64C193.2 110.93 193.71 110.03 194.61 108.95C192.54 107.9 191.1 106.82 189.72 105.2C190.8 104.42 191.91 103.55 192.51 103.01C193.74 101.96 193.95 101.75 194.13 101.66L191.43 99.41ZM190.35 99.38C190.47 99.38 190.65 99.38 191.04 99.38C190.53 100.04 189.36 101.09 187.86 102.23C187.41 101.24 187.23 100.64 186.96 99.38H190.35ZM181.77 99.38H183.48C184.08 102.38 184.74 104.15 186.03 106.34C184.65 106.76 183.9 106.94 181.77 107.39V99.38ZM181.77 89.12H188.73V91.01H181.77V89.12ZM181.77 94.19H188.73V96.2H181.77V94.19ZM167.22 108.8C167.22 110.3 167.16 111.59 167.04 112.55H171.12C171 111.32 170.97 110.15 170.97 108.8V89H173.79C172.86 92.03 172.44 93.17 171.27 95.42C172.32 96.65 172.71 97.28 173.1 98.24C173.52 99.2 173.73 100.25 173.73 101.24C173.73 102.14 173.4 102.41 172.35 102.41C172.02 102.41 171.78 102.38 171.27 102.32C171.78 103.4 171.93 104.21 171.99 106.04C173.46 106.01 174.6 105.86 175.32 105.56C176.67 105.05 177.42 103.76 177.42 102.05C177.42 99.53 176.85 97.97 174.99 95.21C176.13 92.87 176.58 91.76 177.63 88.88C177.78 88.46 177.9 88.1 178.02 87.83L176.16 85.37C175.77 85.49 175.2 85.52 173.91 85.52H169.38C168.24 85.52 167.73 85.49 167.1 85.4C167.22 87.11 167.22 87.41 167.22 88.43V108.8Z" fill="#FCEC62"/>
<path d="M59.22 35.47H55.23C54.525 35.47 53.985 35.44 53.52 35.365V36.835C53.985 36.775 54.51 36.745 55.23 36.745H59.22V38.86H56.31C55.575 38.86 55.005 38.83 54.585 38.77V40.15C55.05 40.09 55.425 40.075 56.13 40.06C56.985 41.695 57.675 42.58 59.01 43.705C57.315 44.71 55.545 45.325 53.31 45.67C53.655 46.18 53.82 46.495 54.015 47.02C56.415 46.525 58.215 45.79 60.135 44.545C61.935 45.775 63.555 46.45 66.165 47.065C66.39 46.435 66.555 46.105 66.885 45.625C64.62 45.25 62.91 44.65 61.305 43.675C62.49 42.7 63.42 41.68 64.2 40.495C64.47 40.09 64.65 39.835 64.815 39.64L63.96 38.785C63.66 38.845 63.3 38.86 62.67 38.86H60.645V36.745H64.86C65.58 36.745 66.15 36.775 66.585 36.835V35.365C66.12 35.44 65.58 35.47 64.86 35.47H60.645V34.75C60.645 34.105 60.66 33.805 60.735 33.445H59.13C59.19 33.835 59.22 34.12 59.22 34.75V35.47ZM62.82 40.06C62.01 41.305 61.335 42.04 60.165 42.925C58.965 42.025 58.23 41.185 57.645 40.06H62.82ZM81.945 46.45C80.955 43.495 80.265 41.8 79.14 39.64L77.925 40.15C78.69 41.575 79.17 42.685 79.77 44.365C77.91 44.71 76.65 44.905 75.27 45.04C75.555 44.215 75.93 42.91 76.275 41.56C76.71 39.88 77.04 38.425 77.595 35.62C77.85 34.285 77.85 34.285 77.925 33.955L76.29 33.715C76.275 34.615 76.095 35.92 75.765 37.645C75.24 40.255 74.55 42.865 73.755 45.19C73.02 45.25 73.005 45.25 72.81 45.25C72.75 45.25 72.69 45.25 72.585 45.235L72.885 46.78C73.125 46.72 73.2 46.705 73.785 46.63C77.49 46.09 77.805 46.03 80.145 45.55C80.28 46 80.34 46.21 80.58 47.05L81.945 46.45ZM71.925 36.385V35.05C71.925 34.42 71.955 34 72.015 33.55H70.5C70.56 34.03 70.59 34.435 70.59 35.065V36.385H69.69C69.225 36.385 68.91 36.355 68.505 36.295V37.66C68.865 37.615 69.27 37.585 69.69 37.585H70.59V40.6C69.195 41.005 68.88 41.08 68.31 41.14L68.595 42.565C68.805 42.49 69.015 42.415 69.405 42.295C69.855 42.16 70.185 42.04 70.59 41.92V45.4C70.59 45.745 70.485 45.835 70.11 45.835C69.63 45.835 69.06 45.79 68.505 45.7C68.7 46.27 68.76 46.525 68.805 47.05C69.315 47.095 69.705 47.11 70.035 47.11C71.475 47.11 71.925 46.81 71.925 45.85V41.44C72.45 41.245 72.45 41.245 73.77 40.735L73.71 39.52C72.795 39.865 72.495 39.985 71.925 40.18V37.585H72.66C73.035 37.585 73.425 37.6 73.8 37.645V36.325C73.395 36.37 73.14 36.385 72.66 36.385H71.925ZM91.65 40.54C91.995 42.025 92.355 42.925 92.97 43.9C93.81 45.22 94.755 46.105 96.375 47.11C96.66 46.54 96.84 46.27 97.2 45.865C95.88 45.22 94.995 44.515 94.2 43.51C94.725 43.135 95.535 42.535 95.91 42.235C96.675 41.605 96.72 41.575 96.795 41.53L95.76 40.615C95.445 41.035 94.56 41.8 93.555 42.49C93.21 41.815 93.075 41.44 92.85 40.54H94.725C95.205 40.54 95.58 40.555 96.03 40.585C95.985 40.135 95.97 39.88 95.97 38.995V35.65C95.97 34.705 95.985 34.39 96.015 34C95.64 34.06 95.355 34.075 94.605 34.075H90.495C89.745 34.075 89.385 34.06 89.04 34C89.085 34.555 89.1 34.96 89.1 35.59V45.43C88.155 45.625 87.615 45.715 87.24 45.73L87.525 47.14C87.705 47.065 87.9 47.02 88.26 46.93C90.48 46.42 91.44 46.18 93.03 45.7L92.985 44.44C92.175 44.71 91.605 44.875 90.39 45.16V40.54H91.65ZM90.375 35.26H94.71V36.715H90.375V35.26ZM90.375 37.855H94.71V39.415H90.375V37.855ZM83.85 45.565C83.85 46.225 83.82 46.72 83.76 47.155H85.23C85.17 46.63 85.155 46.165 85.155 45.565V35.125H87.225C86.625 36.805 86.445 37.24 85.71 38.65C86.37 39.385 86.625 39.745 86.865 40.285C87.075 40.795 87.195 41.35 87.195 41.86C87.195 42.4 86.985 42.565 86.295 42.565C86.07 42.565 85.89 42.55 85.545 42.49C85.74 42.91 85.8 43.225 85.83 43.81C86.265 43.81 86.265 43.81 86.28 43.81C87.945 43.81 88.515 43.33 88.515 41.95C88.515 41.5 88.41 40.93 88.26 40.465C88.035 39.82 87.78 39.385 87.105 38.53C87.615 37.555 88.005 36.7 88.335 35.86C88.71 34.93 88.71 34.93 88.815 34.735L88.095 33.85C87.915 33.895 87.6 33.925 87.06 33.925H84.855C84.36 33.925 84.045 33.91 83.805 33.88C83.835 34.375 83.85 34.735 83.85 35.155V45.565ZM103.05 38.155V39.64C103.05 39.94 103.02 40.285 102.99 40.57C103.215 40.54 103.455 40.54 104.055 40.54H107.88C108.45 40.54 108.57 40.54 108.855 40.57C108.825 40.3 108.81 39.985 108.81 39.64V38.155H110.4C111.075 38.155 111.405 38.17 111.75 38.23V36.955C111.345 37.015 111.03 37.03 110.4 37.03H108.81V36.925C108.81 36.58 108.825 36.31 108.87 36.07H107.445C107.475 36.34 107.505 36.625 107.505 36.91V37.03H104.355V36.865C104.355 36.64 104.355 36.505 104.415 36.07H102.99C103.02 36.295 103.05 36.565 103.05 36.895V37.03H100.695V35.77H110.13C110.835 35.77 111.21 35.785 111.705 35.83V34.51C111.27 34.57 110.79 34.6 109.965 34.6H106.08V34.24C106.08 33.85 106.095 33.595 106.155 33.325H104.64C104.7 33.625 104.73 33.88 104.73 34.225V34.6H100.92C100.305 34.6 99.795 34.57 99.285 34.525C99.33 34.99 99.345 35.44 99.345 36.43C99.345 40.045 99.225 41.74 98.895 43.36C98.685 44.35 98.43 45.025 97.92 45.955C98.37 46.315 98.625 46.585 98.985 47.08C100.23 44.845 100.59 42.97 100.68 38.155H103.05ZM104.355 38.155H107.505V39.445H104.355V38.155ZM109.35 41.455C109.005 41.485 108.735 41.5 108.195 41.5H102.87C102.09 41.5 101.67 41.485 101.31 41.425V42.64C101.67 42.595 101.76 42.595 102.54 42.58C103.32 43.675 103.8 44.155 104.745 44.875C103.395 45.445 102.075 45.745 100.14 45.91C100.44 46.45 100.545 46.735 100.665 47.215C102.9 46.87 104.355 46.435 105.915 45.625C107.34 46.42 108.93 46.87 111.285 47.185C111.435 46.63 111.6 46.225 111.84 45.775C110.025 45.7 108.57 45.415 107.205 44.86C108.06 44.275 108.81 43.615 109.47 42.865C109.89 42.385 109.935 42.34 110.055 42.205L109.35 41.455ZM108.06 42.58C107.31 43.36 106.875 43.69 105.975 44.245C105.09 43.705 104.49 43.195 104.04 42.58H108.06ZM118.68 37.075C118.47 37.12 118.17 37.135 117.705 37.135H116.415C116.535 36.925 116.55 36.895 116.685 36.655C116.73 36.55 116.76 36.505 116.805 36.415L115.62 36.13C115.53 36.445 115.395 36.76 115.125 37.18C114.6 38.035 113.925 38.725 113.025 39.325C113.295 39.58 113.55 39.91 113.76 40.27C114.225 39.895 114.48 39.685 114.9 39.22C115.2 39.625 115.425 39.85 115.89 40.285C114.96 41.005 114.06 41.5 112.83 41.905C113.13 42.22 113.31 42.535 113.49 43.045C113.88 42.865 114.03 42.79 114.285 42.655C114.3 42.97 114.3 43.12 114.3 43.39V45.655C114.3 46.225 114.27 46.705 114.225 47.05H115.515V46.225H117.825V46.84H119.07C119.04 46.54 119.04 46.465 119.04 46.24C119.355 46.54 119.505 46.705 119.865 47.26C121.005 46.705 121.785 46.12 122.715 45.115L121.725 44.305C121.17 44.92 120.78 45.25 120.12 45.67C119.745 45.895 119.565 45.985 119.04 46.195C119.04 46.105 119.04 45.895 119.04 45.52V43.48C119.04 42.91 119.055 42.55 119.085 42.28C119.295 42.37 119.34 42.385 119.61 42.49C119.76 41.965 119.865 41.71 120.105 41.35C118.845 40.915 118.35 40.705 117.57 40.24C118.155 39.61 118.56 39.055 119.145 38.11C119.22 37.99 119.235 37.99 119.325 37.855C119.34 37.84 119.355 37.81 119.385 37.78L118.815 37.15H119.865C119.82 36.925 119.82 36.73 119.82 36.22V35.8C119.82 35.5 119.82 35.41 119.835 35.17C120.15 35.125 120.69 35.095 121.29 35.095H122.745C122.655 35.425 122.565 35.695 122.295 36.385H121.455C120.735 36.385 120.54 36.385 120.18 36.34C120.225 36.88 120.24 37.12 120.24 37.75V42.91C120.24 43.285 120.21 43.885 120.195 44.275C120.9 44.23 120.99 44.23 121.41 44.23H124.905C125.325 44.23 125.685 44.245 126.195 44.275C126.165 43.765 126.15 43.42 126.15 42.775V37.675C126.15 37.075 126.15 36.775 126.195 36.325C125.88 36.37 125.595 36.385 124.77 36.385H123.585C123.765 35.935 123.885 35.575 124.035 35.095H125.25C125.97 35.095 126.3 35.11 126.795 35.17V33.82C126.48 33.88 126.045 33.895 125.25 33.895H121.29C120.48 33.895 120.21 33.88 119.76 33.82V34.825C119.535 34.855 119.265 34.855 118.665 34.855H117.315V34.495C117.315 34.03 117.33 33.805 117.39 33.52H115.92C115.995 33.85 116.01 34.06 116.01 34.48V34.855H114.525C113.88 34.855 113.535 34.84 113.31 34.81C113.355 35.23 113.37 35.485 113.37 35.785V36.505C113.37 36.82 113.355 37.09 113.31 37.405H114.57V35.965H118.68V37.075ZM115.335 42.265H115.005C115.785 41.8 116.22 41.485 116.775 41.005C117.36 41.44 118.125 41.86 118.965 42.235C118.77 42.25 118.455 42.265 118.035 42.265H115.335ZM117.78 38.185C117.255 38.95 117.06 39.205 116.67 39.61C116.205 39.205 115.98 38.98 115.56 38.44C115.635 38.35 115.665 38.305 115.755 38.185H117.78ZM115.515 43.315H117.825V45.13H115.515V43.315ZM121.455 37.495H124.905V38.605H121.455V37.495ZM121.455 39.7H124.905V40.81H121.455V39.7ZM121.455 41.905H124.905V43.09H121.455V41.905ZM123.39 45.13C124.365 46.135 125.085 46.645 126.405 47.29C126.63 46.825 126.87 46.48 127.2 46.09C125.76 45.475 125.25 45.16 124.335 44.305L123.39 45.13ZM140.865 44.545C140.655 44.425 140.595 44.38 140.34 44.2C138.75 43.075 137.67 42.52 136.215 42.055C136.2 41.875 136.185 41.2 136.14 40.045C137.04 40 138.12 39.91 138.735 39.82C139.77 39.67 139.89 39.655 140.22 39.64L140.16 38.23C139.275 38.5 137.925 38.68 136.125 38.8C136.11 37.615 136.11 37.615 136.095 37.09C137.49 37.015 138.165 36.94 139.41 36.775C140.22 36.655 140.22 36.655 140.52 36.64L140.46 35.23C139.515 35.53 138.24 35.695 136.11 35.83C136.125 34.585 136.14 34.255 136.215 33.88H134.595C134.64 34.24 134.64 34.24 134.655 35.875C134.205 35.89 133.71 35.89 133.47 35.89C131.76 35.89 130.32 35.785 129.51 35.605L129.495 37C129.6 36.985 129.675 36.985 129.72 36.985C129.78 36.985 129.885 36.985 130.035 37C131.13 37.075 132.84 37.15 133.695 37.15C133.98 37.15 134.22 37.15 134.67 37.135L134.7 38.86C134.235 38.875 133.755 38.89 133.425 38.89C131.955 38.89 130.605 38.8 129.945 38.65L129.93 40C129.975 40 130.02 40 130.05 40C130.155 40 130.29 40 130.47 40.015C131.61 40.105 132.18 40.12 133.11 40.12C133.5 40.12 134.13 40.105 134.715 40.105C134.73 40.405 134.73 40.63 134.745 40.78C134.745 41.125 134.76 41.365 134.76 41.455C134.76 41.545 134.775 41.605 134.775 41.62C134.775 41.77 134.775 41.77 134.775 41.83C134.49 41.785 134.085 41.77 133.605 41.77C131.205 41.77 129.75 42.7 129.75 44.23C129.75 45.61 130.98 46.435 133.005 46.435C135.195 46.435 136.245 45.58 136.245 43.78C136.245 43.69 136.245 43.6 136.245 43.525C136.44 43.615 136.785 43.765 136.95 43.855C138.18 44.44 139.29 45.235 140.01 46.015L140.865 44.545ZM134.79 43.18C134.79 43.18 134.805 43.555 134.805 43.645C134.805 44.11 134.745 44.38 134.595 44.605C134.355 44.965 133.845 45.145 133.065 45.145C131.91 45.145 131.265 44.8 131.265 44.17C131.265 43.945 131.37 43.705 131.535 43.555C131.895 43.24 132.615 43.045 133.425 43.045C134.01 43.045 134.265 43.075 134.79 43.18ZM143.79 37.375C144.57 37.225 145.845 37.09 148.455 36.91C150.045 36.805 150.645 36.745 151.695 36.595C150.84 37 150.48 37.225 149.895 37.795C148.59 39.01 147.93 40.33 147.93 41.755C147.93 43.195 148.605 44.395 149.865 45.16C150.765 45.7 151.635 45.985 153.27 46.225C153.51 46.255 153.57 46.27 153.765 46.3L153.99 44.605C153.87 44.62 153.78 44.62 153.72 44.62C153.195 44.62 152.205 44.425 151.515 44.2C150.225 43.765 149.475 42.805 149.475 41.62C149.475 40 150.735 38.38 152.775 37.36C153.69 36.91 154.74 36.64 155.58 36.64C155.64 36.64 155.73 36.64 155.835 36.655L155.73 35.065C155.475 35.125 155.025 35.17 153.99 35.215C150.465 35.38 146.865 35.59 145.14 35.695C144.78 35.71 144.555 35.725 144.285 35.725C144.12 35.725 143.94 35.725 143.7 35.71L143.79 37.375ZM153.045 38.845C153.69 39.58 154.11 40.21 154.605 41.14L155.535 40.63C155.01 39.655 154.68 39.175 153.975 38.38L153.045 38.845ZM154.83 37.99C155.475 38.74 155.895 39.37 156.36 40.24L157.275 39.715C156.765 38.77 156.45 38.32 155.73 37.525L154.83 37.99ZM162.24 33.655C162.21 34.315 162.015 35.365 161.745 36.34C161.55 36.355 161.28 36.355 160.845 36.355C159.99 36.355 159.465 36.325 158.94 36.235V37.675C159.33 37.675 159.39 37.675 159.48 37.675C160.08 37.69 160.08 37.69 160.5 37.69C160.935 37.69 161.07 37.69 161.385 37.675C161.07 38.77 160.545 40.075 159.93 41.32C159.42 42.37 159.015 43.045 158.475 43.72L159.915 44.545C159.975 44.41 160.08 44.23 160.2 44.02C160.785 42.985 160.92 42.73 161.265 41.995C161.925 40.6 162.465 39.16 162.915 37.63C163.89 37.555 164.775 37.45 165.33 37.345C165.645 37.285 165.66 37.285 165.84 37.27L165.78 35.815C165.15 36.025 164.355 36.16 163.275 36.265C163.44 35.605 163.515 35.29 163.62 34.81C163.77 34.09 163.77 34.09 163.86 33.835L162.24 33.655ZM171.525 37.645C170.235 36.85 169.155 36.325 167.4 35.665L166.65 36.85C168.3 37.45 169.575 38.065 170.835 38.935L171.525 37.645ZM171.51 44.365C171.405 44.29 171.405 44.29 171.285 44.17C171.15 44.065 171.15 44.05 170.82 43.795C169.935 43.12 169.41 42.82 168.345 42.355C168.24 41.47 168.195 40.765 168.195 40.18C168.195 39.61 168.24 39.295 168.39 38.74L166.935 38.635C166.845 39.16 166.815 39.475 166.815 40.06C166.815 40.645 166.845 41.215 166.905 41.98C166.245 41.86 165.885 41.815 165.39 41.815C163.56 41.815 162.27 42.835 162.27 44.305C162.27 45.73 163.485 46.63 165.405 46.63C166.485 46.63 167.37 46.3 167.85 45.745C168.165 45.355 168.39 44.725 168.39 44.17C168.39 44.035 168.39 44.02 168.375 43.855C169.35 44.395 170.265 45.115 170.79 45.775L171.51 44.365ZM166.965 43.345C166.965 43.36 166.995 43.75 166.995 43.915C166.995 44.83 166.455 45.295 165.345 45.295C164.31 45.295 163.71 44.905 163.71 44.23C163.71 43.54 164.4 43.09 165.48 43.09C166.005 43.09 166.395 43.165 166.965 43.345ZM177 35.2C178.755 36.01 179.94 36.415 182.595 37.045L183.12 35.62C181.5 35.365 178.71 34.51 177.735 33.955L177 35.2ZM175.785 36.655C175.755 36.97 175.74 37.15 175.68 37.495C175.395 39.34 175.2 40.675 175.05 41.77C174.975 42.325 174.975 42.4 174.93 42.655L176.535 42.7C177.33 41.65 179.235 40.9 181.095 40.9C182.775 40.9 183.78 41.56 183.78 42.64C183.78 44.02 182.235 44.965 180.015 44.965C178.755 44.965 177.42 44.71 176.07 44.215C176.205 44.83 176.235 45.085 176.235 45.835C177.96 46.255 178.755 46.375 180.045 46.375C181.68 46.375 182.91 46.06 183.9 45.385C184.815 44.755 185.385 43.705 185.385 42.61C185.385 40.765 183.765 39.565 181.26 39.565C179.385 39.565 177.48 40.195 176.55 41.125C176.61 40.93 176.61 40.87 176.655 40.6C176.91 38.815 177.135 37.57 177.345 36.745L175.785 36.655ZM68.565 63.24H65.94C65.295 63.24 64.8 63.21 64.35 63.15V64.575C64.785 64.515 65.34 64.485 65.94 64.485H67.995C67.38 65.325 67.11 65.64 66.48 66.21C65.595 67.005 64.785 67.56 63.765 68.085C64.26 68.61 64.305 68.685 64.65 69.315C65.385 68.88 65.865 68.535 66.555 67.92C67.53 67.08 67.995 66.525 68.61 65.46C68.565 66.315 68.55 66.855 68.55 67.08V68.745C68.55 69.24 68.52 69.72 68.46 70.17H69.975C69.915 69.735 69.885 69.27 69.885 68.76V67.095C69.885 66.675 69.87 66 69.84 65.475C70.47 66.48 70.905 66.99 71.745 67.725C72.33 68.25 72.795 68.58 73.815 69.24C74.13 68.67 74.325 68.37 74.7 67.905C73.695 67.455 73.02 67.02 72.165 66.315C71.445 65.7 71.07 65.325 70.425 64.485H72.72C73.185 64.485 73.725 64.515 74.265 64.575V63.15C73.8 63.21 73.245 63.24 72.69 63.24H69.885V61.845H71.835C72.06 61.845 72.3 61.845 72.57 61.86C72.75 61.86 72.87 61.875 72.915 61.875C73.155 61.875 73.17 61.875 73.35 61.89C73.305 61.5 73.29 61.14 73.29 60.525V58.47C73.29 57.825 73.305 57.51 73.35 57.06C72.93 57.12 72.48 57.135 71.7 57.135H67.065C66.24 57.135 65.835 57.12 65.415 57.06C65.46 57.495 65.475 57.84 65.475 58.41V60.495C65.475 61.095 65.46 61.485 65.415 61.905C65.835 61.86 66.27 61.845 66.96 61.845H68.565V63.24ZM66.78 58.35H71.955V60.63H66.78V58.35ZM62.25 68.4C62.25 69.12 62.22 69.57 62.16 70.17H63.63C63.585 69.6 63.555 69.06 63.555 68.415V60.3C64.095 59.235 64.455 58.365 64.695 57.585C64.845 57.12 64.89 56.985 64.98 56.76L63.555 56.31C63.495 56.805 63.27 57.615 62.985 58.365C62.325 60.045 61.485 61.365 60.285 62.55C60.63 63.105 60.645 63.135 60.975 63.96C61.605 63.27 61.89 62.895 62.295 62.205C62.265 63.015 62.25 63.36 62.25 63.915V68.4ZM83.985 60.99V62.055H82.005C81.255 62.055 81.12 62.055 80.7 62.01C80.745 62.505 80.745 62.58 80.745 63.045V65.145C80.745 65.415 80.745 65.625 80.715 65.925C80.715 65.955 80.715 66.045 80.7 66.12C81.135 66.075 81.495 66.06 82.065 66.06H83.46C82.815 67.575 81.465 68.52 79.305 69C79.695 69.375 79.905 69.675 80.145 70.2C82.44 69.435 83.76 68.4 84.48 66.795C85.32 68.25 86.805 69.405 88.83 70.125C89.07 69.6 89.25 69.3 89.61 68.88C88.44 68.535 87.72 68.22 87 67.74C86.295 67.26 85.755 66.72 85.32 66.06H87.195C87.81 66.06 88.215 66.075 88.62 66.12C88.575 65.565 88.575 65.49 88.575 64.95V63.165C88.575 62.79 88.59 62.595 88.62 62.01C88.245 62.04 87.9 62.055 87.285 62.055H85.215V60.99H86.22C86.82 60.99 87.12 61.005 87.48 61.035V60.285C87.945 60.585 88.32 60.78 89.04 61.125C89.265 60.585 89.475 60.27 89.85 59.85C87.72 59.13 86.235 58.035 85.2 56.445H83.82C83.31 57.33 82.68 58.05 81.78 58.755C81.24 59.175 80.49 59.64 79.89 59.91C79.965 59.76 80.205 59.145 80.625 58.08C80.685 57.93 80.775 57.735 80.85 57.585L80.175 56.835C79.95 56.88 79.695 56.895 79.215 56.895H77.22C76.755 56.895 76.41 56.88 76.125 56.85C76.155 57.315 76.17 57.66 76.17 58.125V68.535C76.17 69.24 76.14 69.69 76.08 70.125H77.565C77.505 69.675 77.49 69.33 77.49 68.55V58.095H79.29C78.855 59.505 78.45 60.54 77.865 61.74C78.405 62.31 78.615 62.61 78.81 63.195C78.99 63.69 79.095 64.305 79.095 64.845C79.095 65.55 78.96 65.7 78.33 65.7C78.18 65.7 77.955 65.67 77.64 65.625C77.85 66.03 77.955 66.375 77.985 66.93C78.105 66.945 78.195 66.945 78.255 66.945C78.84 66.945 79.305 66.87 79.62 66.72C80.1 66.495 80.355 65.955 80.355 65.16C80.355 64.56 80.31 64.08 80.19 63.6C79.995 62.805 79.755 62.355 79.125 61.59C79.425 61.005 79.515 60.84 79.74 60.285C80.04 60.6 80.16 60.765 80.355 61.2C81.045 60.855 81.345 60.675 81.9 60.27V61.035C82.26 61.005 82.575 60.99 83.175 60.99H83.985ZM83.97 63.18C83.94 63.87 83.895 64.275 83.79 64.905H81.915V63.18H83.97ZM87.36 63.18V64.905H85.02C85.11 64.305 85.14 64.005 85.185 63.18H87.36ZM83.175 59.835C82.845 59.835 82.68 59.835 82.47 59.82C83.385 59.055 83.97 58.425 84.57 57.525C85.215 58.44 85.86 59.1 86.835 59.82C86.55 59.835 86.415 59.835 86.22 59.835H83.175ZM96.705 61.86V63.54H93.015C92.31 63.54 91.875 63.51 91.455 63.45V64.86C91.905 64.8 92.385 64.77 93 64.77H96.705V68.385H92.79C92.07 68.385 91.515 68.355 91.005 68.295V69.765C91.605 69.69 92.16 69.66 92.805 69.66H102.27C102.885 69.66 103.5 69.69 104.01 69.765V68.295C103.515 68.355 103.005 68.385 102.285 68.385H98.1V64.77H102.03C102.705 64.77 103.185 64.8 103.605 64.86V63.45C103.215 63.51 102.78 63.54 102.03 63.54H98.1V61.86H99.525C100.155 61.86 100.53 61.875 100.95 61.935V60.96C102.015 61.635 102.66 61.98 103.92 62.505C104.1 62.01 104.325 61.59 104.64 61.14C103.05 60.615 101.925 60.03 100.695 59.115C99.555 58.275 98.835 57.555 98.235 56.64H96.66C95.52 58.515 93.27 60.165 90.45 61.185C90.84 61.665 91.02 61.965 91.23 62.46C92.25 62.04 93.015 61.635 93.93 61.035V61.935C94.365 61.875 94.77 61.86 95.37 61.86H96.705ZM95.34 60.69C94.98 60.69 94.8 60.69 94.47 60.675C95.88 59.67 96.615 58.965 97.455 57.825C98.295 58.935 99.135 59.715 100.5 60.66C100.215 60.69 99.96 60.69 99.54 60.69H95.34ZM92.805 65.565C93.315 66.33 93.705 67.155 94.035 68.13L95.28 67.635C94.875 66.585 94.56 65.955 94.035 65.055L92.805 65.565ZM100.8 65.07C100.425 66.15 99.99 67.035 99.495 67.755L100.665 68.205C101.25 67.29 101.25 67.29 101.865 66.075C101.925 65.97 102.015 65.805 102.12 65.58L100.8 65.07ZM113.52 59.25C114.21 59.295 114.615 59.4 115.125 59.67C116.445 60.375 117.18 61.62 117.18 63.18C117.18 64.995 116.175 66.57 114.57 67.26C113.925 67.53 113.25 67.695 112.08 67.875C112.485 68.4 112.62 68.655 112.845 69.345C113.865 69.15 114.45 68.985 115.155 68.7C117.405 67.77 118.725 65.76 118.725 63.255C118.725 60.015 116.43 57.87 112.935 57.87C110.85 57.87 109.125 58.575 107.895 59.925C106.845 61.08 106.275 62.595 106.275 64.2C106.275 66.48 107.445 68.145 109.035 68.145C110.205 68.145 111.12 67.275 111.99 65.295C112.71 63.675 113.25 61.485 113.52 59.25ZM111.99 59.265C111.795 61.05 111.285 63.15 110.7 64.53C110.115 65.895 109.56 66.555 109.02 66.555C108.3 66.555 107.73 65.52 107.73 64.215C107.73 62.505 108.57 60.9 109.935 59.985C110.58 59.55 111.165 59.355 111.99 59.265ZM122.715 60.51C121.89 60.51 121.44 60.495 120.99 60.435C121.035 60.885 121.05 61.23 121.05 61.65V62.7C121.05 63.09 121.02 63.495 120.975 63.81H122.37V61.77H132.645V63.75H134.04C133.995 63.435 133.965 63.09 133.965 62.7V61.65C133.965 61.17 133.98 60.81 134.025 60.45C133.605 60.495 133.185 60.51 132.375 60.51H131.265C131.43 60.24 131.55 60.015 131.715 59.7C132.15 58.83 132.15 58.83 132.3 58.545L130.935 58.095C130.635 58.965 130.35 59.595 129.825 60.51H128.37C128.13 59.61 127.98 59.175 127.695 58.47C129.36 58.29 130.29 58.185 130.485 58.155C131.28 58.02 132.06 57.87 132.66 57.72C133.005 57.645 133.05 57.63 133.29 57.585L132.405 56.37C130.695 57.045 126.45 57.54 122.325 57.54C122.13 57.54 121.815 57.54 121.41 57.525C121.695 58.065 121.755 58.215 121.875 58.785C122.43 58.785 122.655 58.785 123.015 58.77C123.315 59.34 123.54 59.925 123.735 60.51H122.715ZM125.1 60.51C124.89 59.88 124.635 59.265 124.365 58.71C125.58 58.635 126.255 58.605 126.36 58.59C126.66 59.235 126.84 59.76 127.05 60.51H125.1ZM131.235 63.03C130.935 63.09 130.545 63.105 129.93 63.105H124.44C123.81 63.105 123.315 63.075 122.91 63.03V64.335C123.195 64.305 123.435 64.29 123.81 64.275C124.83 65.82 125.295 66.345 126.33 67.2C124.725 68.01 122.925 68.55 120.78 68.82C121.14 69.3 121.29 69.6 121.485 70.155C123.9 69.69 125.775 69.015 127.485 68.025C128.13 68.445 128.82 68.79 129.57 69.09C130.8 69.6 131.79 69.855 133.665 70.155C133.845 69.615 134.055 69.195 134.34 68.76C131.835 68.43 130.38 68.04 128.73 67.215C129.84 66.42 130.35 65.94 131.505 64.605C131.76 64.32 131.865 64.2 132.075 63.99L131.235 63.03ZM130.05 64.26C129.24 65.235 128.61 65.805 127.515 66.51C126.51 65.835 126 65.325 125.28 64.26H130.05ZM142.575 59.235C142.815 59.19 142.92 59.19 143.31 59.175C143.535 61.05 143.655 61.71 143.97 62.79C144.27 63.84 144.645 64.74 145.2 65.76C144.3 66.96 143.46 67.725 142.035 68.58C142.41 69.045 142.605 69.405 142.83 69.96C144.3 68.925 145.035 68.235 145.965 66.99C146.82 68.19 147.51 68.865 149.025 69.945C149.19 69.54 149.385 69.165 149.775 68.46C148.335 67.605 147.615 66.96 146.775 65.76C147.93 63.795 148.71 61.32 149.01 58.755C149.055 58.335 149.085 58.02 149.115 57.84C148.755 57.885 148.32 57.915 147.945 57.915H143.925C143.52 57.915 143.355 57.915 142.95 57.885V56.895C142.56 56.955 142.26 56.97 141.705 56.97H137.1C136.605 56.97 136.215 56.94 135.825 56.895V58.26C136.2 58.215 136.485 58.185 136.92 58.185V66.66C136.215 66.78 136.005 66.81 135.675 66.825L136.05 68.265C136.26 68.19 136.725 68.07 137.4 67.935C138.135 67.785 139.35 67.47 140.64 67.08V68.625C140.64 69.18 140.61 69.75 140.55 70.215H142.05C141.99 69.84 141.96 69.345 141.96 68.625V58.185C142.245 58.185 142.32 58.185 142.575 58.2V59.235ZM147.585 59.16C147.27 61.425 146.865 62.805 146.01 64.47C145.215 62.91 144.87 61.605 144.57 59.16H147.585ZM138.24 58.185H140.64V60.09H138.24V58.185ZM138.24 61.2H140.64V63.045H138.24V61.2ZM138.24 64.185H140.64V65.85C139.65 66.12 139.35 66.195 138.24 66.42V64.185ZM153.66 56.7C153.66 56.895 153.645 56.955 153.615 57.21L153.375 59.115C153.24 60.12 153.15 61.77 153.15 62.955C153.15 63.21 153.18 64.35 153.195 64.74C153.195 64.89 153.195 64.98 153.195 65.04C153.195 65.07 153.195 65.13 153.18 65.205L154.695 65.175C154.68 64.875 154.68 64.875 154.68 64.83C154.68 63.09 155.415 61.185 156.555 59.955C157.125 59.355 157.65 59.085 158.31 59.085C159.66 59.085 160.425 60.36 160.425 62.61C160.425 64.95 159.63 66.435 157.875 67.365C156.96 67.845 156.15 68.07 154.665 68.25C155.04 68.73 155.16 68.985 155.445 69.72C156.555 69.51 157.515 69.21 158.28 68.865C160.695 67.74 161.985 65.625 161.985 62.82C161.985 61.095 161.685 59.94 160.98 58.95C160.35 58.065 159.48 57.615 158.445 57.615C157.32 57.615 156.36 58.17 155.535 59.295C155.115 59.88 154.83 60.495 154.635 61.275C154.56 61.545 154.56 61.545 154.53 61.65H154.485C154.515 61.215 154.56 60.81 154.68 59.97C155.025 57.6 155.07 57.33 155.265 56.82L153.66 56.7ZM170.52 61.41C170.55 61.41 170.58 61.41 170.595 61.41C170.625 61.41 170.67 61.41 170.73 61.425C170.775 61.425 170.865 61.425 171 61.425C171.06 61.44 171.225 61.44 171.465 61.455C172.05 61.5 172.635 61.515 173.235 61.515C173.715 61.515 173.985 61.5 174.75 61.47C174.825 64.53 174.825 64.53 174.87 64.965C174.48 64.8 174.015 64.725 173.43 64.725C171.66 64.725 170.415 65.685 170.415 67.05C170.415 68.49 171.54 69.375 173.37 69.375C174.735 69.375 175.74 68.925 176.13 68.13C176.25 67.875 176.31 67.53 176.31 67.11C176.31 66.945 176.31 66.945 176.31 66.84C176.445 66.93 176.82 67.17 177.315 67.485C177.735 67.74 178.23 68.16 178.5 68.475L179.115 66.975C178.965 66.885 178.905 66.84 178.725 66.72C177.81 66.06 177.36 65.79 176.31 65.31C176.295 64.845 176.295 64.845 176.25 64.215C176.175 62.655 176.16 62.58 176.16 61.71C176.16 61.5 176.16 61.5 176.16 61.365C176.865 61.29 177.795 61.14 178.29 61.035C178.575 60.96 178.59 60.96 178.71 60.945L178.65 59.535C178.185 59.73 177.12 59.955 176.145 60.06C176.145 59.7 176.145 59.355 176.145 59.19C176.145 58.155 176.175 57.51 176.25 57.105H174.66C174.69 57.27 174.705 57.495 174.705 57.795C174.705 58.83 174.705 58.83 174.72 60.165C174.255 60.195 174.045 60.21 173.655 60.21C172.065 60.21 171.255 60.15 170.535 59.97L170.52 61.41ZM174.9 66.285C174.9 66.285 174.9 66.585 174.9 66.675C174.9 67.125 174.825 67.41 174.675 67.605C174.435 67.89 173.925 68.07 173.37 68.07C172.47 68.07 171.84 67.65 171.84 67.05C171.84 66.42 172.47 66 173.46 66C173.97 66 174.33 66.075 174.9 66.285ZM167.67 57.075C167.67 57.27 167.625 57.51 167.49 58.155C166.92 60.915 166.77 62.205 166.77 64.275C166.77 65.88 166.875 67.095 167.175 68.94C167.25 69.39 167.25 69.39 167.25 69.51L168.81 69.39C168.78 69.135 168.78 69.12 168.78 69.03C168.78 68.07 169.425 66.045 170.205 64.59L169.08 64.11C169.035 64.26 169.02 64.305 168.93 64.515C168.48 65.625 168.45 65.715 168.225 66.615H168.195C168.195 66.345 168.195 66.345 168.195 65.985C168.195 65.535 168.195 65.535 168.18 65.07C168.18 64.905 168.18 64.74 168.18 64.665C168.18 62.115 168.735 58.635 169.365 57.27L167.67 57.075Z" fill="white"/>
<path d="M199 89.68L196.168 86.84L195.904 87.104L198.744 89.96L195.904 92.8L196.168 93.064L199 90.248L201.84 93.064L202.096 92.8L199.256 89.96L202.096 87.104L201.84 86.84L199 89.68ZM199.008 87.032C198.672 87.032 198.392 87.304 198.392 87.64C198.392 87.976 198.672 88.256 199.008 88.256C199.344 88.256 199.616 87.984 199.616 87.64C199.616 87.304 199.344 87.032 199.008 87.032ZM196.712 89.344C196.368 89.344 196.096 89.616 196.096 89.952C196.096 90.288 196.376 90.568 196.712 90.568C197.048 90.568 197.32 90.296 197.32 89.952C197.32 89.616 197.048 89.344 196.712 89.344ZM201.288 89.352C200.952 89.352 200.68 89.624 200.68 89.96C200.68 90.296 200.952 90.568 201.288 90.568C201.624 90.568 201.896 90.296 201.896 89.96C201.896 89.624 201.624 89.352 201.288 89.352ZM199 91.672C198.984 91.68 198.984 91.68 198.984 91.68C198.976 91.68 198.976 91.68 198.968 91.672C198.96 91.672 198.952 91.672 198.944 91.672C198.672 91.672 198.384 91.984 198.384 92.288C198.384 92.608 198.68 92.904 199 92.904C199.328 92.904 199.608 92.624 199.608 92.288C199.608 91.944 199.336 91.672 199 91.672ZM206.784 92.952C207.184 92.952 207.448 92.968 207.768 93V92.328C207.464 92.368 207.192 92.384 206.792 92.384H204.24C204.336 92 204.448 91.784 204.696 91.456C204.96 91.12 205.216 90.896 205.848 90.472C206.76 89.864 206.968 89.712 207.208 89.44C207.52 89.096 207.68 88.712 207.68 88.304C207.68 87.36 206.904 86.752 205.696 86.752C204.992 86.752 204.448 86.96 204.088 87.368C203.824 87.664 203.704 87.944 203.584 88.52L204.256 88.632C204.312 88.232 204.384 88.04 204.536 87.824C204.776 87.48 205.168 87.304 205.696 87.304C206.512 87.304 207.024 87.696 207.024 88.304C207.024 88.792 206.76 89.144 205.968 89.68C205.04 90.312 205.024 90.32 204.744 90.56C204.24 90.992 203.904 91.432 203.704 91.936C203.584 92.24 203.56 92.36 203.472 92.992C203.728 92.96 203.848 92.952 204.352 92.952H206.784Z" fill="white"/>
<defs>
<clipPath id="clip0">
<path d="M227 41H297V111H227V41Z" fill="white"/>
</clipPath>
<clipPath id="clip1">
<rect x="242" y="60" width="5.96" height="5.96" fill="white"/>
</clipPath>
<clipPath id="clip2">
<rect x="282" y="96" width="5.96" height="5.96" fill="white"/>
</clipPath>
<clipPath id="clip3">
<rect x="227" y="68" width="5.96" height="5.96" fill="white"/>
</clipPath>
<clipPath id="clip4">
<rect x="233" y="49" width="7.21" height="7.21" fill="white"/>
</clipPath>
<clipPath id="clip5">
<rect x="290" y="104" width="7.21" height="7.21" fill="white"/>
</clipPath>
</defs>
</svg>
