<!-- 01EZTX9M3AWK0ZB16B6KYR56F1 -->

<svg width="302" height="59" viewBox="0 0 302 59" fill="none" xmlns="http://www.w3.org/2000/svg">
<rect x="0.96312" y="0.574463" width="300.793" height="58.3245" fill="#00655A"/>
<path d="M23.1791 42.0902C20.0889 43.0417 16.3333 39.0059 18.9832 35.4448C20.7485 37.8208 23.7417 38.6353 23.7417 38.6353L23.1791 42.0902Z" fill="white"/>
<path d="M49.8584 47.2358C48.6809 47.2358 47.5887 46.5275 46.9369 45.3385C45.3617 42.4665 43.3675 39.0579 42.4345 37.4733L41.1328 39.5134C41.3753 40.0365 41.7536 41.0807 41.7342 42.4569C43.4994 42.7309 44.5664 44.0646 44.5664 45.3096C44.5664 45.85 44.3608 46.3345 43.9864 46.6799C43.7148 46.9328 43.2182 47.2339 42.3879 47.2339H27.5943C23.8697 47.2339 22.5429 44.5781 22.5429 42.0901V41.8199C22.5312 40.3723 22.5176 38.5715 24.8416 35.7787C27.0706 33.1035 35.9358 22.2312 36.5488 21.4765L41.6081 12.6424C41.7206 12.4436 41.934 12.322 42.1629 12.322H48.3686C49.6974 12.322 50.2794 13.5824 50.4986 14.0553C50.7061 14.4973 51.4025 15.8213 51.7265 16.4332L57.2765 16.7246C57.5927 16.74 57.8488 16.9852 57.8779 17.2978C57.9167 17.7263 58.2232 21.5287 56.679 23.2136C56.3182 23.6093 55.872 23.866 55.3696 23.9702C55.1116 24.8793 54.452 25.993 53.1523 25.993H49.7032L46.5024 31.1715C47.5984 33.6633 49.7226 37.9848 51.1465 40.8819C51.5383 41.681 51.872 42.3604 52.1106 42.8525C52.1203 42.8718 52.13 42.895 52.1378 42.9162C52.5936 44.1997 52.5199 45.3636 51.9321 46.1897C51.4627 46.8556 50.7042 47.2358 49.8584 47.2358ZM42.4538 35.6223C42.4577 35.6223 42.4616 35.6223 42.4635 35.6223C42.6866 35.6262 42.8884 35.7439 43.0028 35.9331C43.0319 35.9833 45.9243 40.8452 48.0543 44.7305C48.4791 45.5045 49.1542 45.9677 49.8565 45.9677C50.291 45.9677 50.6576 45.7863 50.8904 45.4601C51.228 44.9853 51.2474 44.2441 50.9447 43.3737C50.7081 42.8892 50.3802 42.2195 49.9981 41.4416C48.5082 38.4133 46.2599 33.8331 45.1968 31.3742C45.1154 31.185 45.1309 30.9688 45.2395 30.7913L48.7992 25.0299C48.9156 24.8407 49.1212 24.7269 49.3443 24.7269H53.1504C53.9729 24.7269 54.2096 23.314 54.2115 23.2986C54.2581 22.9878 54.5258 22.7562 54.842 22.7562C55.2047 22.7562 55.4879 22.6307 55.7343 22.3605C56.584 21.436 56.6868 19.2164 56.6402 17.9637L51.2959 17.6839C51.0708 17.6723 50.871 17.5449 50.7643 17.3461C50.7197 17.2592 49.6276 15.2017 49.3404 14.5899C49.0087 13.8719 48.7352 13.592 48.3666 13.592H42.5314L37.6294 22.1502C37.6119 22.181 37.5925 22.21 37.5712 22.2351C37.4761 22.3509 28.1239 33.8273 25.8213 36.5893C23.7941 39.0232 23.8057 40.5036 23.8154 41.8103V42.0901C23.8154 43.2559 24.184 45.9658 27.5943 45.9658H42.3879C42.7157 45.9658 42.9679 45.8925 43.1173 45.7535C43.2317 45.6473 43.2919 45.4968 43.2919 45.3096C43.2919 44.6244 42.5179 43.6748 41.063 43.6748C40.8806 43.6748 40.7099 43.5995 40.5896 43.4644C40.4693 43.3331 40.4092 43.1536 40.4305 42.9741C40.6284 41.0749 39.866 39.8242 39.8583 39.8126C39.7322 39.6042 39.7322 39.3455 39.8622 39.139L41.9184 35.9157C42.0348 35.7343 42.2366 35.6223 42.4538 35.6223Z" fill="white"/>
<path d="M80.1361 44.8404C80.9315 44.7767 82.0469 44.4216 82.8248 42.9315C83.0964 42.3486 83.2846 41.6596 83.3796 40.8547C83.4126 40.5575 83.4301 40.2622 83.4301 39.9688C83.4262 38.3514 82.9548 36.8208 82.4058 35.4002C81.8529 33.9855 81.2147 32.6633 80.817 31.5226C80.5474 30.766 80.3941 30.0963 80.398 29.5732C80.4 29.1332 80.4853 28.8128 80.6968 28.4904C80.914 28.1681 81.1488 27.9577 81.3951 27.8226C81.6396 27.6875 81.8995 27.6219 82.1633 27.6219C82.6502 27.62 83.1624 27.8458 83.5562 28.2685C83.948 28.6912 84.2254 29.2953 84.2448 30.1059C84.2565 30.6 84.6386 30.9938 85.1003 30.9822C85.562 30.9706 85.9286 30.5576 85.9151 30.0635C85.8898 28.8128 85.432 27.7396 84.7356 26.9965C84.0431 26.2534 83.1178 25.825 82.1614 25.825C81.6415 25.825 81.1138 25.9543 80.625 26.2245C80.1381 26.4966 79.6919 26.9077 79.335 27.4424C78.9004 28.089 78.7181 28.8456 78.722 29.5752C78.722 30.2314 78.85 30.8741 79.0401 31.5168C79.2302 32.1596 79.4805 32.8042 79.754 33.4566C80.2991 34.7594 80.9237 36.1028 81.3214 37.4172C81.5891 38.2954 81.754 39.1524 81.754 39.9707C81.754 40.1946 81.785 40.7756 81.7385 41.2543C81.6357 42.6053 80.7918 43.2558 79.9577 43.2558L80.1361 44.8404Z" fill="white"/>
<path d="M77.4339 47.4848H65.5482C65.2359 47.4848 64.9701 47.2609 64.9197 46.956C64.8886 46.7745 64.6462 45.1706 65.5094 44.1534C65.7228 43.9025 66.072 43.6149 66.6054 43.476C66.4076 41.4436 65.7228 34.8407 64.9119 32.0632C63.2785 31.5247 62.1747 30.4516 61.6316 28.867C60.5608 25.7421 62.6384 23.4588 62.7276 23.3642C63.6549 22.3683 65.6627 21.961 65.8877 21.9186C65.9284 21.9108 65.9672 21.907 66.008 21.907H68.3863C68.4173 21.907 68.4483 21.9089 68.4794 21.9147C68.6986 21.9456 70.6423 22.2641 71.6666 23.3642C71.7558 23.4588 73.8354 25.7421 72.7607 28.867C72.7335 28.948 72.7044 29.0291 72.6715 29.1121C73.6259 30.1331 74.4659 31.0094 75.3252 31.9069C76.3029 32.926 77.3136 33.9798 78.5377 35.2942C80.1536 36.9136 81.0498 39.2954 80.9781 41.8142C80.9761 42.0458 80.9296 44.1805 80.0721 45.3694C79.4669 46.4522 78.6172 47.1779 77.6065 47.4597C77.5503 47.4771 77.4921 47.4848 77.4339 47.4848ZM66.1399 46.2167H77.3388C78.1575 45.9542 78.6793 45.2652 78.9761 44.7248C78.9897 44.6977 79.0052 44.6726 79.0226 44.6495C79.5658 43.9257 79.6977 42.3411 79.7035 41.791C79.7617 39.637 78.9838 37.5409 77.6182 36.1724C76.3844 34.8484 75.3776 33.7984 74.4038 32.7832C73.4552 31.7949 72.5279 30.828 71.4513 29.6699C71.2709 29.4769 71.2301 29.197 71.3465 28.9615C71.4319 28.784 71.4998 28.6218 71.556 28.4597C72.3766 26.0644 70.7995 24.2984 70.7296 24.225C70.138 23.5881 68.8421 23.26 68.3358 23.1751H66.07C65.5269 23.287 64.1883 23.6595 63.6626 24.227C63.5967 24.2984 62.0176 26.0644 62.8362 28.4578C63.2766 29.7452 64.1786 30.5577 65.587 30.9418C65.7926 30.9978 65.9556 31.1541 66.0235 31.3529C67.073 34.5048 67.8955 43.5841 67.9304 43.972C67.9459 44.1496 67.8858 44.3233 67.7655 44.4565C67.6452 44.5877 67.4745 44.663 67.296 44.663C66.8033 44.663 66.5957 44.8425 66.4813 44.9757C66.2136 45.2864 66.1418 45.8037 66.1399 46.2167Z" fill="white"/>
<path d="M62.2271 24.308C62.2271 24.308 62.1767 19.1816 63.263 19.1816C64.3493 19.1816 65.9303 21.9417 65.9303 21.9417C65.9303 21.9417 65.5715 22.4069 64.425 23.0303C63.0205 23.7965 62.2271 24.308 62.2271 24.308Z" fill="white"/>
<path d="M67.942 21.9417C67.942 21.9417 69.523 19.1816 70.6074 19.1816C71.6938 19.1816 71.9906 24.308 71.9906 24.308C71.9906 24.308 70.9508 23.7309 69.5172 23.175C68.2873 22.6944 67.942 21.9417 67.942 21.9417Z" fill="white"/>
<path d="M45.482 17.7996C46.7197 16.4698 46.7197 14.3138 45.482 12.9859C44.2444 11.6561 42.2405 11.6561 41.0028 12.9859C41.0028 12.9859 41.0009 12.9898 40.9989 12.9898L35.4916 18.9094L39.9708 23.7231L45.482 17.7996Z" fill="white"/>
<path d="M58.4754 17.6261C58.4754 18.5043 57.8119 19.2145 56.9952 19.2145C56.1766 19.2145 55.5132 18.5043 55.5132 17.6261C55.5132 16.7459 56.1766 16.0356 56.9952 16.0356C57.8119 16.0356 58.4754 16.7459 58.4754 17.6261Z" fill="white"/>
<path d="M127.477 39.362C123.547 38.4259 121.004 34.7259 118.226 29.3139C116.036 25.0985 115.659 24.7704 113.729 24.7704H112.93L110.41 30.5105C109.539 32.6414 108.104 33.977 105.89 34.3978V31.2112C106.761 30.7441 107.326 29.8311 107.82 28.5881L110.715 21.6339H113.304C117.046 21.6339 118.317 22.1261 120.907 27.2544C123.025 31.3289 124.932 34.7954 127.473 35.9438V39.362H127.477ZM122.699 24.9595C121.31 24.9595 120.203 23.8362 120.203 22.4755C120.203 21.1167 121.308 19.9683 122.699 19.9683C124.065 19.9683 125.194 21.1167 125.194 22.4755C125.194 23.8343 124.065 24.9595 122.699 24.9595ZM123.854 22.4755C123.854 21.8424 123.312 21.3039 122.699 21.3039C122.04 21.3039 121.498 21.8424 121.498 22.4755C121.498 23.1317 122.04 23.6471 122.699 23.6471C123.31 23.6471 123.854 23.1317 123.854 22.4755Z" fill="white"/>
<path d="M140.325 31.6338C139.995 29.3138 139.243 25.8473 138.49 23.3652H141.503C142.232 25.6389 142.985 28.9857 143.409 31.6338H140.325ZM142.302 37.0671C150.046 35.4747 152.447 31.1416 152.494 23.5775V23.2726H155.765V23.6007C155.625 33.7183 151.01 38.5668 142.3 39.9487V37.0671H142.302ZM146.234 31.4234C145.927 29.0591 145.221 25.7084 144.492 23.1799H147.53C148.259 25.4285 148.895 28.5418 149.365 31.4234H146.234Z" fill="white"/>
<path d="M186.457 32.7109C181.938 31.4698 177.42 30.3928 173.229 29.5262V39.9257H169.887V19.8293H173.229V26.2933C177.773 27.2082 182.269 28.1674 186.457 29.3602V32.7109Z" fill="white"/>
<path d="M209.364 36.6464C212.729 36.2488 216.025 34.3052 216.025 29.4567C216.025 26.6214 214.376 24.257 211.08 23.6008C210.374 29.1286 209.269 33.8574 207.48 36.4572C206.398 38.2368 205.009 38.5418 203.949 38.5418C201.62 38.5418 198.842 35.9419 198.842 31.2344C198.842 25.3803 203.078 20.6265 209.552 20.6265C215.672 20.6265 219.203 24.4211 219.203 29.5725C219.203 36.5287 214.378 39.3621 209.364 39.5975V36.6464ZM201.808 31.2344C201.808 33.8574 203.15 35.4285 203.88 35.4285C204.398 35.4285 204.939 35.0309 205.668 33.3903C206.751 31.0259 207.598 26.9032 208.021 23.5313C204.068 24.091 201.808 27.5826 201.808 31.2344Z" fill="white"/>
<path d="M233.23 40.277V28.7774C232.712 29.5957 232.101 30.3002 231.653 30.6978L230.83 26.9032C232.572 25.1468 234.219 22.3829 235.116 19.1963L238.105 19.922C237.587 22.0297 236.881 23.622 236.01 25.1449V40.275H233.23V40.277ZM250.249 39.3621C248.177 37.6771 246.695 36.1311 245.564 34.3284V40.277H242.786V34.3515C241.467 36.4341 239.915 38.0284 237.985 39.4084L236.243 36.6464C238.479 35.5694 240.221 34.3747 241.585 32.6183H236.854V29.9258H242.786V28.1462H238.15V19.7599H250.532V28.1443H245.564V29.9238H251.731V32.6164H246.811C248.247 34.3264 249.942 35.6138 252.012 36.6445L250.249 39.3621ZM247.801 22.5219H240.879V25.3804H247.801V22.5219Z" fill="white"/>
<path d="M283.335 40.277C280.864 39.5745 279.192 38.4743 277.428 36.3879C275.921 38.4724 274.156 39.6903 271.19 40.2539L269.896 37.4417C273.027 37.1136 274.72 36.2933 275.756 34.5832H271.52V27.768H276.135V26.6678H273.663V24.7937C273.004 25.1913 272.133 25.612 271.357 25.8707L270.462 23.9734L269.38 27.3916C270.133 28.8431 271.052 31.0222 271.052 32.8036C271.052 34.4886 270.228 35.8243 267.71 35.8243L266.769 33.2244L266.792 40.2751H264.039V19.7599H271.007V22.1475L270.771 22.9427C272.866 22.3347 274.654 21.1149 276.043 19.4067H279.009C279.009 19.4067 281.128 22.0298 284.635 23.0604L283.388 25.8938C282.87 25.6835 282.045 25.2144 281.339 24.7705V26.6678H278.963V27.768H283.718V34.5832H279.079C280.492 36.247 282.234 37.0904 284.612 37.4417L283.335 40.277ZM267.069 32.8519C267.892 32.8519 268.387 32.6396 268.387 31.8212C268.387 31.0492 267.939 29.7618 266.879 27.629L268.41 22.4756H266.786L266.763 32.8519H267.069ZM276.202 30.1362H274.107V32.3366H276.202V30.1362ZM280.511 24.2803C279.217 23.4851 278.158 22.547 277.452 21.6109C276.627 22.7111 275.615 23.5545 274.439 24.2803H280.511ZM281.122 30.1362H278.862V32.3366H281.122V30.1362Z" fill="white"/>
</svg>
