<!-- 01EZTX9M3AWK0ZB16B6KYR56F1 -->

<svg width="326" height="83" viewBox="0 0 326 83" fill="none" xmlns="http://www.w3.org/2000/svg">
<path d="M142.485 47.19C141.66 46.845 141.15 46.41 140.64 45.63C140.7 45.465 140.895 44.865 140.97 44.61C141.03 44.385 141.03 44.385 141.09 44.205C141.105 44.175 141.12 44.13 141.135 44.07L139.815 43.755C139.74 44.4 139.665 44.73 139.44 45.345C139.02 46.545 138.48 47.37 137.475 48.33C137.88 48.585 138.12 48.795 138.495 49.23C139.32 48.255 139.695 47.73 140.145 46.8C141.45 48.42 142.785 48.885 146.175 48.885C146.25 48.885 146.265 48.885 146.79 48.87C147.345 48.87 147.345 48.87 147.63 48.87C147.705 48.3 147.765 48.06 147.975 47.52C147.12 47.61 146.415 47.64 145.545 47.64C144.81 47.64 144.375 47.61 143.775 47.52V45.735H145.695C146.31 45.735 146.64 45.75 147.015 45.81V44.565C146.685 44.625 146.31 44.64 145.695 44.64H143.775V43.2H146.295C146.85 43.2 147.225 43.215 147.66 43.275V41.985C147.27 42.03 146.88 42.06 146.295 42.06H140.055C139.575 42.06 139.185 42.045 138.855 42V41.235C138.15 41.565 137.94 41.655 137.43 41.865V39.495H137.985C138.39 39.495 138.66 39.51 138.93 39.54V38.235L138.81 38.25C138.75 38.265 138.69 38.265 138.675 38.28C138.615 38.28 138.615 38.28 137.985 38.295H137.43V37.005C137.43 36.285 137.445 35.925 137.52 35.505H136.005C136.08 35.94 136.095 36.3 136.095 37.035V38.295H135.39C134.955 38.295 134.655 38.265 134.265 38.205V39.57C134.685 39.51 135.015 39.495 135.36 39.495H136.095V42.375C135.015 42.75 134.76 42.825 134.16 42.93L134.415 44.31C135.21 44.01 135.765 43.785 136.095 43.665V47.415C136.095 47.76 135.99 47.85 135.555 47.85C135.18 47.85 134.82 47.82 134.235 47.745C134.415 48.21 134.475 48.525 134.52 49.05C135.075 49.08 135.405 49.095 135.735 49.095C137.055 49.095 137.43 48.81 137.43 47.79V43.14C137.895 42.945 138.105 42.84 138.405 42.705C138.615 42.6 138.615 42.6 138.75 42.54V43.26C139.11 43.215 139.395 43.2 139.935 43.2H142.485V47.19ZM145.245 41.145C145.86 41.145 146.325 41.16 146.715 41.19C146.655 40.425 146.655 40.305 146.655 39.75V37.26C146.655 36.69 146.67 36.3 146.715 35.985C146.295 36.03 145.905 36.045 145.29 36.045H140.985C140.4 36.045 139.995 36.03 139.545 35.985C139.575 36.375 139.59 36.825 139.59 37.38V39.69C139.575 40.41 139.56 40.905 139.545 41.19C139.965 41.16 140.25 41.145 140.85 41.145H145.245ZM140.865 37.14H145.38V38.07H140.865V37.14ZM140.865 39.12H145.38V40.08H140.865V39.12ZM156.555 38.49V36.825C156.555 36.33 156.57 35.97 156.63 35.595H155.115C155.175 36 155.205 36.375 155.205 36.825V38.49H154.635C154.065 38.49 153.645 38.46 153.225 38.4V39.84C153.63 39.78 154.035 39.75 154.635 39.75H155.205V43.095H154.185C153.555 43.095 153.135 43.065 152.76 43.005V44.445C153.21 44.37 153.555 44.355 154.185 44.355H161.55C162.18 44.355 162.555 44.37 162.99 44.445V43.005C162.57 43.08 162.195 43.095 161.55 43.095H160.365V39.75H161.16C161.775 39.75 162.18 39.78 162.585 39.84V38.4C162.18 38.46 161.79 38.49 161.16 38.49H160.365V36.855C160.365 36.375 160.395 35.985 160.455 35.595H158.94C158.985 35.955 159.015 36.345 159.015 36.84V38.49H156.555ZM156.555 43.095V39.75H159.015V43.095H156.555ZM151.965 35.265C151.725 37.29 150.375 39.99 148.785 41.685C149.145 42.345 149.145 42.345 149.43 43.11C150.03 42.405 150.345 41.955 150.795 41.16C150.75 41.865 150.75 42.09 150.75 42.885V47.415C150.75 48.195 150.72 48.66 150.66 49.185H152.175C152.13 48.69 152.1 48 152.1 47.43V39.06C152.55 38.145 152.775 37.59 153.195 36.315C153.315 35.94 153.345 35.865 153.42 35.685L151.965 35.265ZM158.565 45.42C159.18 46.365 159.57 46.86 160.32 47.655C160.95 48.315 161.325 48.645 162.03 49.185C162.465 48.6 162.69 48.33 163.05 48C161.595 47.055 160.77 46.23 159.735 44.655L158.565 45.42ZM155.67 44.7C155.16 45.57 154.86 45.975 154.275 46.59C153.675 47.22 153.225 47.58 152.415 48.105C152.895 48.48 153.09 48.66 153.51 49.155C154.98 48.03 155.835 47.1 156.87 45.48L155.67 44.7ZM164.73 39.375C165.675 39.225 169.29 39.03 171.675 39L171.69 39.81C171.69 40.05 171.69 40.44 171.69 40.455C171.705 40.59 171.705 40.59 171.705 40.65C171.345 40.32 170.805 40.14 170.115 40.14C168.435 40.14 167.235 41.235 167.235 42.765C167.235 44.22 168.36 45.285 169.875 45.285C170.91 45.285 171.705 44.835 172.11 44.025C172.02 45.045 171.48 45.855 170.43 46.56C169.74 47.01 169.14 47.25 167.895 47.535C168.33 48.015 168.465 48.21 168.81 48.93C170.115 48.465 170.79 48.135 171.39 47.715C172.755 46.74 173.52 45.33 173.52 43.725C173.52 42.975 173.4 42.39 173.1 41.745V38.985C174.3 38.955 174.555 38.955 174.96 38.955C176.235 38.955 176.94 38.97 177.48 39.03V37.575C176.955 37.635 175.815 37.665 173.085 37.68C173.085 36.51 173.1 36.24 173.16 35.79H171.57C171.63 36.165 171.645 36.435 171.66 37.71C169.02 37.785 169.02 37.785 168.045 37.815C166.38 37.89 165.78 37.905 165.36 37.905C165.12 37.905 165 37.905 164.685 37.875L164.73 39.375ZM170.235 41.31C170.685 41.31 171.075 41.445 171.345 41.715C171.555 41.895 171.645 42.12 171.645 42.45C171.645 43.335 170.985 43.965 170.07 43.965C169.26 43.965 168.705 43.425 168.705 42.645C168.705 41.88 169.365 41.31 170.235 41.31ZM181.86 38.07C182.16 38.025 182.28 38.01 182.61 37.995C184.89 37.905 186.495 37.8 187.035 37.725L187.05 37.74C187.005 37.785 186.84 37.95 186.795 37.995C184.845 39.99 181.32 42.885 179.97 43.605L180.84 44.94C182.61 43.335 184.875 42.405 187.08 42.405C188.985 42.405 190.155 43.2 190.155 44.52C190.155 45.24 189.825 45.87 189.24 46.305C188.925 46.53 188.625 46.68 188.115 46.845C187.89 46.185 187.725 45.855 187.425 45.465C186.825 44.67 185.91 44.22 184.875 44.22C183.495 44.22 182.46 45.06 182.46 46.2C182.46 46.875 182.79 47.505 183.36 47.895C183.93 48.3 184.935 48.525 186.135 48.525C187.485 48.525 188.685 48.24 189.66 47.7C190.965 46.98 191.67 45.855 191.67 44.475C191.67 42.48 190.035 41.19 187.515 41.19C186.315 41.19 185.415 41.4 184.14 41.985L184.11 41.94C185.145 41.325 186.78 39.975 188.865 37.995C189.315 37.575 189.405 37.5 189.63 37.38L188.82 36.255C188.61 36.375 188.46 36.405 187.98 36.435C186.51 36.555 184.74 36.63 183.375 36.63C182.55 36.63 182.28 36.615 181.785 36.54L181.86 38.07ZM186.75 47.205C186.285 47.265 186.195 47.265 185.895 47.265C184.635 47.265 183.87 46.86 183.87 46.2C183.87 45.72 184.26 45.42 184.875 45.42C185.82 45.42 186.45 46.02 186.75 47.205Z" fill="black"/>
<g clip-path="url(#clip0)">
<path d="M142.629 76.5829C139.857 75.9192 138.063 73.296 136.103 69.4589C134.558 66.4703 134.293 66.2376 132.931 66.2376H132.367L130.59 70.3073C129.975 71.8181 128.963 72.765 127.401 73.0633V70.8041C128.016 70.4729 128.414 69.8256 128.763 68.9444L130.805 64.014H132.632C135.271 64.014 136.168 64.3629 137.994 67.9988C139.489 70.8875 140.834 73.3452 142.626 74.1594V76.5829H142.629ZM139.259 66.3717C138.279 66.3717 137.498 65.5753 137.498 64.6106C137.498 63.6472 138.278 62.833 139.259 62.833C140.222 62.833 141.019 63.6472 141.019 64.6106C141.019 65.574 140.222 66.3717 139.259 66.3717ZM140.073 64.6106C140.073 64.1617 139.691 63.78 139.259 63.78C138.794 63.78 138.412 64.1617 138.412 64.6106C138.412 65.0758 138.794 65.4412 139.259 65.4412C139.691 65.4412 140.073 65.0758 140.073 64.6106Z" fill="#00655A"/>
<path d="M151.692 71.1037C151.46 69.4588 150.929 67.0011 150.398 65.2414H152.523C153.037 66.8534 153.568 69.2262 153.868 71.1037H151.692ZM153.087 74.9558C158.549 73.8268 160.243 70.7547 160.276 65.3919V65.1757H162.583V65.4083C162.485 72.5816 159.229 76.019 153.085 76.9988V74.9558H153.087ZM155.86 70.9545C155.644 69.2782 155.146 66.9026 154.632 65.11H156.775C157.289 66.7042 157.738 68.9115 158.069 70.9545H155.86Z" fill="#00655A"/>
<path d="M184.235 71.8673C181.046 70.9874 177.858 70.2239 174.903 69.6094V76.9825H172.546V62.7345H174.903V67.3173C178.108 67.966 181.28 68.6461 184.235 69.4918V71.8673Z" fill="#00655A"/>
<path d="M200.393 74.6576C202.767 74.3757 205.092 72.9977 205.092 69.5602C205.092 67.55 203.929 65.8737 201.604 65.4084C201.106 69.3276 200.326 72.6802 199.064 74.5235C198.301 75.7852 197.321 76.0014 196.574 76.0014C194.93 76.0014 192.971 74.1581 192.971 70.8205C192.971 66.6701 195.959 63.2997 200.526 63.2997C204.843 63.2997 207.334 65.99 207.334 69.6423C207.334 74.5741 203.93 76.5829 200.393 76.7499V74.6576ZM195.063 70.8205C195.063 72.6802 196.01 73.7941 196.524 73.7941C196.89 73.7941 197.272 73.5122 197.786 72.349C198.55 70.6727 199.148 67.7498 199.446 65.3592C196.657 65.756 195.063 68.2315 195.063 70.8205Z" fill="#00655A"/>
<path d="M217.229 77.2315V69.0785C216.863 69.6587 216.432 70.1582 216.116 70.4401L215.536 67.7497C216.765 66.5045 217.927 64.5449 218.559 62.2856L220.667 62.8002C220.302 64.2945 219.804 65.4234 219.19 66.5031V77.2302H217.229V77.2315ZM229.234 76.5829C227.772 75.3883 226.727 74.2922 225.929 73.0141V77.2315H223.969V73.0305C223.039 74.507 221.944 75.6373 220.583 76.6157L219.354 74.6575C220.932 73.894 222.16 73.0469 223.122 71.8016H219.785V69.8927H223.969V68.631H220.699V62.6852H229.434V68.6296H225.929V69.8913H230.279V71.8003H226.809C227.822 73.0127 229.018 73.9254 230.478 74.6562L229.234 76.5829ZM227.507 64.6434H222.624V66.6701H227.507V64.6434Z" fill="#00655A"/>
<path d="M252.574 77.2315C250.83 76.7334 249.651 75.9534 248.407 74.4742C247.343 75.9521 246.098 76.8155 244.006 77.2151L243.093 75.2213C245.302 74.9887 246.496 74.4071 247.227 73.1947H244.239V68.3628H247.494V67.5828H245.751V66.2541C245.285 66.536 244.671 66.8343 244.124 67.0177L243.493 65.6725L242.729 68.096C243.26 69.125 243.909 70.67 243.909 71.933C243.909 73.1277 243.327 74.0746 241.551 74.0746L240.887 72.2313L240.904 77.2302H238.962V62.6852H243.877V64.378L243.71 64.9418C245.188 64.5107 246.45 63.6459 247.43 62.4348H249.522C249.522 62.4348 251.016 64.2945 253.49 65.0252L252.611 67.0341C252.245 66.8849 251.664 66.5524 251.165 66.2377V67.5828H249.489V68.3628H252.843V73.1947H249.571C250.567 74.3743 251.796 74.9723 253.474 75.2213L252.574 77.2315ZM241.099 71.9672C241.681 71.9672 242.03 71.8167 242.03 71.2365C242.03 70.6891 241.714 69.7764 240.967 68.2643L242.046 64.6106H240.901L240.885 71.9672H241.099ZM247.542 70.0419H246.064V71.6019H247.542V70.0419ZM250.581 65.8901C249.668 65.3263 248.921 64.6612 248.423 63.9976C247.842 64.7776 247.127 65.3755 246.298 65.8901H250.581ZM251.012 70.0419H249.418V71.6019H251.012V70.0419Z" fill="#00655A"/>
<path fill-rule="evenodd" clip-rule="evenodd" d="M85.0023 61.4714C85.7523 60.6614 85.858 59.4192 85.3193 58.4882H87.0371C87.2971 58.4882 87.49 58.6867 87.724 59.1957C87.8951 59.5621 88.4712 60.6595 88.6651 61.0289C88.7008 61.0969 88.7236 61.1402 88.7285 61.1498C88.8037 61.2908 88.9447 61.3811 89.1034 61.3893L92.0959 61.5468C92.1679 61.9835 92.4731 62.3327 92.868 62.4402C92.8268 63.27 92.6693 64.2293 92.2344 64.705C92.0606 64.8966 91.8608 64.9855 91.6049 64.9855C91.3818 64.9855 91.193 65.1497 91.1601 65.37C91.1588 65.381 90.9918 66.3827 90.4116 66.3827H87.7268C87.5694 66.3827 87.4244 66.4634 87.3423 66.5975L84.8312 70.6822C84.7546 70.8081 84.7436 70.9614 84.8011 71.0955C85.551 72.8389 87.137 76.0861 88.1879 78.2332C88.4575 78.7847 88.6888 79.2595 88.8557 79.603C89.0692 80.2201 89.0555 80.7456 88.8174 81.0822C88.6532 81.3135 88.3946 81.4421 88.088 81.4421C87.5927 81.4421 87.1165 81.1137 86.8168 80.565C85.401 77.9693 83.5077 74.7589 83.2767 74.3672L83.2534 74.3277C83.1727 74.1936 83.0304 74.1101 82.873 74.1074H82.8661C82.7143 74.1074 82.5706 74.1868 82.4857 74.3154L81.0352 76.6007C80.9435 76.7471 80.9435 76.9304 81.0325 77.0782C81.0379 77.0864 81.5757 77.9732 81.4362 79.3197C81.4225 79.447 81.4649 79.5742 81.5497 79.6673C81.6346 79.7631 81.755 79.8164 81.8836 79.8164C82.9099 79.8164 83.4559 80.4897 83.4559 80.9755C83.4559 81.1082 83.4135 81.215 83.3328 81.2902C83.2274 81.3888 83.0495 81.4408 82.8183 81.4408H72.3827C69.9784 81.4408 69.7184 79.5195 69.7184 78.693V78.4945L69.7184 78.4937C69.7115 77.5675 69.7038 76.518 71.1333 74.793C72.5949 73.0309 78.083 66.2663 79.2167 64.8689L79.2169 64.8686L79.4218 64.616C79.4369 64.5982 79.4506 64.5777 79.4629 64.5558L79.6988 64.1419L81.1146 65.6711L85.0023 61.4714ZM93.7804 62.2242C93.7581 63.1959 93.5916 64.5536 92.9021 65.3098C92.6476 65.5903 92.3329 65.7723 91.9785 65.8462C91.7965 66.4908 91.3312 67.2803 90.4144 67.2803H87.9813L85.7234 70.9518C86.4953 72.7155 87.9899 75.772 88.9943 77.8259L88.9943 77.826L88.9994 77.8363L89.1081 78.0591L89.1084 78.0596C89.3378 78.5297 89.5338 78.9314 89.6795 79.2335C89.6864 79.2472 89.6932 79.2636 89.6987 79.2787C90.0203 80.1887 89.9683 81.0138 89.5536 81.5995C89.2211 82.0716 88.686 82.3412 88.0894 82.3412C87.2588 82.3412 86.4884 81.839 86.0286 80.996C84.9174 78.9598 83.5107 76.5432 82.8525 75.4197L81.9343 76.8661C82.1053 77.237 82.3722 77.9773 82.3585 78.953C83.6037 79.1473 84.3564 80.0929 84.3564 80.9755C84.3564 81.3587 84.2113 81.7021 83.9472 81.9471C83.7556 82.1263 83.4053 82.3398 82.8196 82.3398H72.3841C69.8012 82.3398 68.8529 80.5201 68.8215 78.7827C66.7518 78.9802 64.5688 76.3347 66.311 73.9815C67.2083 75.1953 68.5561 75.8344 69.2392 76.0967C69.4791 75.547 69.8548 74.9277 70.4423 74.2182C72.0146 72.3216 78.2683 64.6133 78.7007 64.0782L79.0585 63.4503L77.9549 62.2583L81.8398 58.0613C81.8412 58.0613 81.8426 58.0586 81.8426 58.0586C82.5315 57.3146 83.557 57.1577 84.3878 57.5878H87.0385C87.9707 57.5878 88.3818 58.4716 88.5398 58.8111L88.5424 58.8167C88.6888 59.13 89.18 60.0688 89.4086 60.5026L92.3001 60.6552C92.4914 60.3905 92.7898 60.2207 93.1252 60.2207C93.6999 60.2207 94.1679 60.7243 94.1679 61.3483C94.1679 61.7023 94.0166 62.0178 93.7804 62.2242ZM109.628 80.6217C110.169 80.5372 110.852 80.2369 111.344 79.2896C111.536 78.8763 111.669 78.3878 111.736 77.8172C111.759 77.6064 111.771 77.3971 111.771 77.1891C111.769 76.0423 111.436 74.9572 111.049 73.95C110.879 73.5139 110.698 73.0903 110.525 72.6842C110.299 72.1562 110.087 71.658 109.928 71.2009C109.738 70.6645 109.63 70.1896 109.632 69.8188C109.634 69.5068 109.694 69.2796 109.843 69.0511C109.996 68.8226 110.162 68.6734 110.336 68.5776C110.508 68.4818 110.692 68.4353 110.878 68.4353C111.22 68.4339 111.582 68.594 111.86 68.8937C112.137 69.1934 112.332 69.6217 112.346 70.1965C112.354 70.5468 112.624 70.8259 112.949 70.8177C113.275 70.8095 113.534 70.5167 113.524 70.1663C113.506 69.2796 113.183 68.5188 112.692 67.9919C112.204 67.4651 111.551 67.1613 110.876 67.1613C110.51 67.1613 110.137 67.253 109.793 67.4446C109.449 67.6375 109.134 67.929 108.883 68.308C108.576 68.7665 108.447 69.3029 108.45 69.8201C108.45 70.2854 108.54 70.7411 108.675 71.1968C108.809 71.6525 108.985 72.1095 109.178 72.572C109.264 72.7795 109.354 72.9884 109.443 73.1982C109.753 73.9225 110.066 74.6574 110.284 75.38C110.473 76.0027 110.589 76.6102 110.589 77.1904C110.589 77.2271 110.59 77.2772 110.592 77.3368V77.337V77.3372V77.3374C110.596 77.5361 110.603 77.8397 110.578 78.1004C110.534 78.6875 110.293 79.0879 109.978 79.31C110.034 78.8948 110.041 78.5686 110.042 78.4973C110.092 76.7115 109.46 75.0229 108.32 73.8748C107.457 72.9429 106.744 72.1957 106.054 71.4732L105.987 71.4027C105.404 70.7908 104.83 70.1888 104.182 69.4917C104.205 69.4329 104.226 69.3754 104.245 69.3179C104.841 67.575 104.061 66.2014 103.67 65.662C103.587 64.7035 103.329 62.4512 102.726 62.4512C102.012 62.4512 100.992 64.1573 100.86 64.3834H99.4815C99.4591 64.3834 99.4375 64.3851 99.4154 64.3884C99.2964 64.1839 98.2663 62.4512 97.5452 62.4512C96.8854 62.4512 96.8201 65.1453 96.8146 65.8945C96.4112 66.5403 95.8722 67.7866 96.3944 69.3179C96.7775 70.4414 97.5562 71.2022 98.7084 71.584C99.2804 73.5532 99.7634 78.2345 99.903 79.6755C99.5267 79.774 99.2804 79.9779 99.1298 80.1558C98.5209 80.877 98.6919 82.0141 98.7138 82.1428C98.7494 82.359 98.9369 82.5177 99.1572 82.5177H107.542C107.583 82.5177 107.624 82.5122 107.663 82.4999C108.376 82.3001 108.976 81.7856 109.403 81.0179C109.489 80.8976 109.564 80.7635 109.628 80.6217ZM107.474 81.6186H99.5746C99.5759 81.3258 99.6279 80.9591 99.8181 80.7388C99.8989 80.6443 100.045 80.5171 100.393 80.5171C100.519 80.5171 100.639 80.4637 100.724 80.3706C100.809 80.2762 100.851 80.1531 100.84 80.0272C100.816 79.7521 100.236 73.3151 99.4952 71.0804C99.4473 70.9395 99.3324 70.8287 99.1873 70.789C98.1938 70.5167 97.5575 69.9405 97.2469 69.0278C96.668 67.331 97.7819 66.0789 97.8285 66.0282C98.1993 65.6259 99.1435 65.3618 99.5267 65.2824H101.125C101.482 65.3427 102.396 65.5753 102.814 66.0269C102.862 66.0789 103.975 67.331 103.395 69.0292C103.356 69.1441 103.308 69.2591 103.247 69.385C103.165 69.5519 103.194 69.7503 103.321 69.8872C104.081 70.7082 104.735 71.3938 105.404 72.0944C106.091 72.8142 106.801 73.5587 107.672 74.4974C108.635 75.4676 109.184 76.9537 109.143 78.4809C109.138 78.8709 109.045 79.9943 108.662 80.5075C108.65 80.5239 108.639 80.5417 108.629 80.5609C108.42 80.944 108.052 81.4325 107.474 81.6186Z" fill="#00655A"/>
</g>
<path d="M311.884 13.0172C312.483 12.8481 313.59 12.6482 314.79 12.4944C314.236 14.5242 313.883 15.5545 313.206 17.0615C312.683 18.2148 312.068 19.3219 311.607 19.9063L313.098 20.7367C313.652 19.6295 314.006 18.9529 314.113 18.7069C315.082 16.6463 315.682 14.924 316.297 12.3714C316.697 12.3253 316.958 12.3099 317.281 12.3099C318.557 12.3099 318.973 12.7712 318.973 14.2167C318.973 15.5391 318.819 17 318.573 17.815C318.327 18.6761 318.05 19.0144 317.558 19.0144C317.035 19.0144 316.143 18.753 315.313 18.3686C315.405 18.8914 315.42 19.1374 315.42 19.4296C315.42 19.5526 315.42 19.7525 315.39 20.0139C316.42 20.3676 317.097 20.5214 317.727 20.5214C318.496 20.5214 318.942 20.3369 319.357 19.8294C320.064 18.9683 320.48 16.8923 320.48 14.3551C320.48 13.0019 320.28 12.2791 319.741 11.7255C319.265 11.2181 318.557 10.972 317.573 10.972C317.235 10.972 316.989 10.9874 316.574 11.0182C316.62 10.8183 316.62 10.7721 316.681 10.4338L317.05 8.38865C317.081 8.20412 317.112 8.09648 317.158 7.89657L315.467 7.72742C315.482 7.83506 315.482 7.92733 315.482 7.98883C315.482 8.49629 315.328 9.69572 315.067 11.1412C313.76 11.3257 312.283 11.4795 311.73 11.4795L311.884 13.0172ZM320.741 10.726C321.464 11.4949 321.94 12.1715 322.525 13.2633C323.124 14.3858 323.493 15.37 323.786 16.6002L325.231 15.8467C324.539 13.5554 323.586 11.8486 322.033 10.0802L320.741 10.726ZM323.463 7.05082C324.124 7.81968 324.555 8.46553 325.031 9.35742L325.969 8.81921C325.446 7.85044 325.123 7.38912 324.385 6.57412L323.463 7.05082ZM321.633 7.92733C322.294 8.68082 322.725 9.32666 323.232 10.2801L324.185 9.75723C323.647 8.7577 323.309 8.26563 322.586 7.45063L321.633 7.92733Z" fill="black"/>
<g clip-path="url(#clip1)">
<path d="M288.511 9.83626C288.511 9.56535 288.337 9.35695 288.122 9.35695H278.244C278.028 9.35695 277.855 9.56535 277.855 9.83626V17.9498H288.518V9.83626H288.511ZM280.078 13.2192H286.295V14.0945H280.078V13.2192ZM286.295 11.8021H280.085V10.9269H286.295V11.8021ZM280.078 15.5116H286.295V16.3869H280.078V15.5116ZM278.209 8.65535H288.094V4.95979C288.094 4.68193 287.92 4.48048 287.705 4.48048H278.605C278.39 4.48048 278.216 4.68888 278.216 4.95979V8.65535H278.209ZM285.906 7.12017H280.404V6.01567H285.906V7.12017ZM281.418 18.0749C281.654 17.9915 281.78 18.0888 281.78 18.3041V19.8184C280.105 20.402 278.626 20.7701 277.07 21.0271V19.2627C278.473 18.9988 279.987 18.6028 281.418 18.0749ZM284.746 18.0749C286.177 18.6028 287.698 18.9988 289.101 19.2627V21.0271C287.545 20.7701 286.066 20.402 284.385 19.8184V18.3041C284.385 18.0888 284.51 17.9846 284.746 18.0749ZM277.348 13.4485C276.889 13.6499 276.382 13.8514 275.847 14.0598V19.2697C275.847 20.4853 275.257 21.0341 274.104 21.0341H272.166L271.999 19.1724H273.277C273.555 19.1724 273.722 18.964 273.722 18.6862V14.7683C273.201 14.9211 272.7 15.0601 272.235 15.1712C271.999 15.2268 271.881 15.0879 271.881 14.8586V13.254C272.499 13.115 273.124 12.9622 273.722 12.8024V9.34306H271.881V7.98848C271.881 7.71757 272.061 7.50917 272.277 7.50917H273.722V4.02201H275.847V7.50917H276.959C277.174 7.50917 277.348 7.71757 277.348 7.98848V9.35001H275.847V12.1634C276.375 11.9897 276.882 11.8091 277.348 11.6354V13.4485V13.4485ZM260.343 8.91237C260.558 8.91237 260.732 9.12077 260.732 9.39169V10.7463H257.953V11.2047C258.898 12.3092 259.954 13.4137 260.732 14.1223V16.4563C259.863 15.7756 258.752 14.7683 257.953 13.893V21.0271H255.674V14.2959C254.612 15.984 253.431 17.2969 252.028 18.4014V16.0812C253.236 14.803 254.285 13.0803 255.244 10.7463H252.028V9.39169C252.028 9.12077 252.208 8.91237 252.423 8.91237H255.681V6.80062C254.591 6.92566 253.5 7.00902 252.444 7.05765V5.30017C255.153 5.09178 257.925 4.6472 260.231 4.0359C260.502 3.95949 260.683 4.11231 260.683 4.40407V5.91147C259.815 6.12681 258.898 6.32131 257.953 6.47414V8.90543H260.343V8.91237ZM268.97 5.61971C268.97 5.3488 268.796 5.1404 268.574 5.1404H261.753C261.537 5.1404 261.364 5.34185 261.364 5.61971V20.3742H268.97V5.61971ZM263.732 6.97429H266.601V18.5472H263.732V6.97429ZM248.832 4.48048C249.047 4.48048 249.221 4.68193 249.221 4.95979V19.1863C249.221 20.395 248.665 20.9438 247.519 20.9438H244.706L244.546 19.0682H246.401C246.679 19.0682 246.845 18.8529 246.845 18.582V6.31437H235.37V21.0271H232.994V4.95979C232.994 4.68888 233.175 4.48048 233.383 4.48048H248.832V4.48048ZM245.852 9.64871H236.307V8.37054C236.307 8.09963 236.481 7.89123 236.696 7.89123H245.456C245.671 7.89123 245.845 8.09963 245.845 8.37054V9.64871H245.852ZM245.477 11.6632C245.477 11.3923 245.303 11.1839 245.088 11.1839H237.106C236.891 11.1839 236.71 11.3923 236.71 11.6632V17.7206H245.477V11.6632ZM239.031 12.9483H243.15V15.9631H239.031V12.9483ZM308.572 12.6079C308.572 12.337 308.399 12.1286 308.183 12.1286H303.321V10.774H307.537V4.9459C307.537 4.67498 307.364 4.47353 307.148 4.47353H297.326C297.111 4.47353 296.937 4.67498 296.937 4.9459V10.774H301.084V12.1286H296.513C296.298 12.1286 296.117 12.337 296.117 12.6079V13.9695H299.347C298.465 16.0951 297.437 17.5608 296.117 18.7904V21.0271C298.229 19.5614 300 17.3663 301.084 14.8378V21.0341H303.328V14.7544C304.516 17.3594 306.447 19.6448 308.586 21.0271V18.7904C307.197 17.5956 305.981 16.0882 305.05 13.9695H308.586V12.6079H308.572ZM299.111 6.22406H305.356V9.00963H299.111V6.22406ZM296.249 4.6333C296.048 6.10597 295.659 7.51612 295.152 8.80818V21.0202H293.089V12.6774C292.498 13.4971 291.887 14.1917 291.269 14.7336V11.9966C292.533 9.99603 293.596 7.29383 294.151 4.02895H295.798C296.145 4.02201 296.291 4.32766 296.249 4.6333ZM145.822 5.55025H148.385C148.177 7.82871 147.996 10.2044 147.996 12.344C147.996 16.3104 148.302 17.4497 149.281 17.4497C150.393 17.4497 151.657 17.0398 153.095 16.3799V18.8251C151.761 19.4711 150.407 19.8949 148.628 19.8949C146.127 19.8949 145.447 17.8665 145.447 12.3092C145.447 10.1489 145.62 7.80787 145.822 5.55025ZM155.262 6.87009H157.784C159.722 10.1072 160.514 13.2609 160.472 17.9776C160.479 18.4361 160.222 18.6306 159.847 18.6306H157.846C157.971 13.5943 157.117 10.7602 155.262 6.87009ZM109.366 5.55025H111.923C111.721 7.82871 111.541 10.2044 111.541 12.344C111.541 16.3104 111.846 17.4497 112.833 17.4497C113.944 17.4497 115.201 17.0398 116.632 16.3799V18.8251C115.306 19.4711 113.951 19.8949 112.173 19.8949C109.672 19.8949 108.991 17.8665 108.991 12.3092C108.991 10.1489 109.165 7.80787 109.366 5.55025ZM118.8 6.87009H121.321C123.259 10.1072 124.051 13.2609 124.01 17.9776C124.01 18.4361 123.767 18.6306 123.384 18.6306H121.384C121.516 13.5943 120.661 10.7602 118.8 6.87009ZM182.124 13.9347C181.791 12.2259 181.333 10.1836 180.957 8.54421H183.069C183.417 9.80153 183.937 11.7743 184.313 13.3512C184.396 13.7611 184.278 13.9347 183.965 13.9347H182.124ZM186.188 13.9347C185.945 12.2259 185.612 10.1141 185.348 8.54421H187.459C187.744 9.89184 188.126 11.8021 188.404 13.3512C188.474 13.7611 188.335 13.9347 188.029 13.9347H186.188ZM183.291 18.2694C189.314 17.2343 190.696 15.6227 190.947 8.54421H193.211C192.961 17.1788 190.433 19.1307 183.291 20.1866V18.2694ZM230.208 7.27994C228.34 8.3636 226.353 9.34306 224.346 10.1905V20.7562H221.657V11.2395C219.122 12.1564 216.614 12.8511 214.287 13.2748V11.0241C219.108 9.93352 224.623 7.7523 229.458 4.80697C229.847 4.57078 230.208 4.80697 230.208 5.17513V7.27994V7.27994ZM163.272 19.6656V17.9498C163.272 17.5956 163.515 17.3455 163.869 17.3455H178.797C179.151 17.3455 179.394 17.5886 179.394 17.9498V19.6656H163.272ZM164.973 8.66924V6.98818C164.973 6.63391 165.217 6.39078 165.571 6.39078H177.192C177.547 6.39078 177.797 6.63391 177.797 6.98818V8.66924H164.973ZM205.319 13.0317C207.688 12.5385 208.827 11.7882 209.341 9.64871L201.387 9.9613V16.0951C201.387 17.2482 202.137 17.9846 203.27 17.9846H211.411V20.2352H203.11C200.29 20.2352 198.866 18.9084 198.866 16.2757V10.0586L195.552 10.1905V8.53031C195.552 8.17604 195.802 7.92596 196.156 7.90512L198.866 7.79398V4.59162H201.387V7.69673L211.404 7.30078C211.758 7.29383 212.022 7.52307 212.002 7.88429C211.828 12.9969 209.529 14.6433 205.319 15.2893V13.0317V13.0317ZM135.728 10.906C135.082 10.906 134.464 10.9408 133.867 11.0102V8.93321H137.361V7.48833C137.361 7.13406 137.118 6.89093 136.764 6.89093H133.867V4.30682H131.463V6.89093H128.15C127.789 6.89093 127.552 7.13406 127.552 7.48833V8.93321H131.463V11.4895C128.678 12.344 126.886 14.0875 126.886 16.4494C126.886 18.839 128.629 20.395 131.54 20.395C133.193 20.395 133.867 19.4294 133.867 17.929V13.1289C134.388 13.0734 134.95 13.0386 135.555 13.0386C138.361 13.0386 139.612 14.164 139.612 15.6297C139.612 17.8109 138.236 18.4917 135.61 18.1721V20.2561C139.188 20.652 142.022 19.5059 142.022 15.5602C142.015 12.9969 139.959 10.906 135.728 10.906ZM131.463 17.4566C131.463 17.922 131.304 18.1791 130.803 18.1791C129.866 18.1791 129.178 17.5052 129.178 16.5327C129.178 15.3449 129.928 14.3168 131.463 13.6985V17.4566ZM141.862 7.38413C142.14 7.52307 142.321 7.89123 142.321 8.23856V10.1002C140.779 9.26665 139.487 8.64146 138.181 8.09268V5.95315C139.514 6.3491 140.716 6.80062 141.862 7.38413ZM99.1897 9.8571C98.627 9.8571 98.0921 9.88489 97.592 9.94046C97.5989 9.4681 97.6059 8.99573 97.6198 8.52337H105.317V7.07849C105.317 6.72421 105.073 6.48108 104.719 6.47414H97.717C97.7587 5.70307 97.8143 4.9459 97.8837 4.2304H95.5358C95.4663 4.93895 95.4038 5.69612 95.3691 6.47414H91.2706C90.9164 6.48108 90.6732 6.71727 90.6732 7.07849V8.52337H95.3135C95.3066 9.14161 95.3066 9.77375 95.3135 10.3989C91.9028 11.4618 90.4857 13.8861 90.4857 15.845C90.4857 18.6445 91.6457 19.9643 93.695 19.9643C96.0915 19.9643 99.4259 17.3524 102.475 12.6566C103.288 13.1984 103.684 14.025 103.684 15.1017C103.684 17.665 102.017 18.5472 99.3633 18.575V20.5478C103.045 20.5965 106.067 19.2975 106.067 15.074C106.046 11.691 103.448 9.8571 99.1897 9.8571ZM92.6877 16.0117C92.6877 14.553 93.556 13.2401 95.3691 12.5037C95.4455 14.1501 95.5775 15.7269 95.7511 17.0746C95.0426 17.54 94.3966 17.7901 93.8756 17.7901C93.167 17.7901 92.6877 17.2343 92.6877 16.0117ZM97.7587 15.3796C97.6684 14.3515 97.6198 13.1914 97.5989 11.9619C98.0643 11.9133 98.5714 11.8785 99.1063 11.8785C99.5856 11.8785 100.03 11.9063 100.433 11.9619C99.5648 13.2956 98.6548 14.4557 97.7587 15.3796Z" fill="black"/>
<path d="M78.6279 0H0V26.3135H78.6279V0Z" fill="#00655A"/>
<path d="M14.296 16.8663H14.2544L10.6699 7.023H6.34224V7.05773C7.41201 7.47453 8.03719 8.31506 8.03719 9.71131V19.2906H9.28757V8.55819H9.32925L13.2263 19.2975H14.6711L18.5334 8.44704H18.5751V19.2975H20.9369V7.023H17.7971L14.296 16.8663ZM26.2371 9.41261C26.2371 8.18307 27.3208 7.69682 28.3003 7.66903C29.7174 7.6343 31.1622 8.2317 32.107 8.72491V7.23835C31.6763 7.14109 30.1203 6.75903 28.5642 6.75903C25.8064 6.75903 24.0768 7.91216 24.0073 9.9475C23.8684 14.0598 30.5857 13.7889 30.5857 16.5398C30.5857 17.8735 29.6132 18.6098 28.0571 18.6098C26.647 18.6098 25.1882 17.9708 24.1879 17.283V18.9572C24.6186 19.1795 26.1746 19.5685 27.7376 19.5685C30.5301 19.5685 32.878 18.6793 32.8225 15.9424C32.746 11.955 26.2371 12.2468 26.2371 9.41261ZM44.4649 16.4842C44.7288 15.9285 45.2359 14.9073 45.7917 13.4694H44.5135C44.5135 13.4694 44.0481 14.6086 43.6035 15.6159C42.4643 14.4558 41.3667 13.3235 40.6095 12.5316C41.8252 11.8231 43.6313 11.0312 43.6313 9.21116C43.6313 8.08582 42.6379 6.77293 40.422 6.83545C38.7687 6.87712 37.5878 8.0372 37.4975 9.39177C37.4211 10.4685 37.9421 11.1909 38.5672 11.8508C38.6784 11.9689 38.8798 12.1773 39.1438 12.4483C37.303 13.5041 36.2124 14.7267 36.1637 16.2689C36.1012 18.0888 37.5669 19.5824 40.0885 19.5824C41.8043 19.5824 43.0825 18.8043 43.9578 17.4498C44.9859 18.5195 45.743 19.3045 45.743 19.3045H47.2991C46.5349 18.5543 45.5207 17.5401 44.4649 16.4842ZM38.602 9.31536C38.6437 8.3359 39.3522 7.55789 40.5053 7.54399C41.6307 7.5301 42.492 8.25949 42.492 9.31536C42.492 10.5796 41.589 11.177 40.0677 11.955C39.9843 11.8647 39.9149 11.7883 39.8454 11.7189C39.0257 10.8297 38.5603 10.267 38.602 9.31536ZM43.0617 16.7829C42.4017 18.0611 41.7557 18.846 40.1788 18.846C38.4214 18.846 37.296 17.7068 37.3655 16.0952C37.4211 14.6225 38.6089 13.7473 39.7343 13.0595C40.6721 14.039 41.9919 15.4075 43.152 16.6092C43.1242 16.6718 43.0964 16.7273 43.0617 16.7829ZM66.02 7.02995H60.7476V7.06468C61.8104 7.48147 62.4425 8.32201 62.4425 9.71826V19.2975H66.02C69.8614 19.2975 72.6817 18.325 72.6817 13.1637C72.6887 8.00247 69.8545 7.02995 66.02 7.02995ZM66.2214 18.3598H64.5821V7.96079H66.2214C69.4377 7.96079 70.3407 9.91276 70.3477 13.1637C70.3477 16.4217 69.4377 18.3598 66.2214 18.3598ZM51.2516 7.02995V7.06468C52.1616 7.41201 52.9535 8.25254 52.6548 9.06529C52.377 9.81551 48.4939 19.2975 48.4939 19.2975H49.7859L51.2655 15.5742H56.531L58.1009 19.2975H60.435L55.1417 7.02995H51.2516V7.02995ZM51.6476 14.5947L53.8149 9.1417L56.1142 14.5947H51.6476Z" fill="white"/>
</g>
<defs>
<clipPath id="clip0">
<rect width="188.208" height="25.6647" fill="white" transform="translate(65.5 57)"/>
</clipPath>
<clipPath id="clip1">
<rect width="308.572" height="26.3135" fill="white"/>
</clipPath>
</defs>
</svg>
