<!-- 01EZTX9M3AWK0ZB16B6KYR56F1 -->

<svg width="261" height="88" viewBox="0 0 261 88" fill="none" xmlns="http://www.w3.org/2000/svg">
<g clip-path="url(#clip0)">
<rect x="67" y="27" width="127" height="60" fill="white" stroke="#00655A" stroke-width="2"/>
<path d="M82.436 41.66C82.388 42.68 82.292 43.304 82.04 44.18C81.668 45.452 80.984 46.676 80.06 47.696C79.244 48.608 78.62 49.112 77.504 49.772C77.9 50.096 78.128 50.36 78.356 50.804C79.688 49.892 80.612 49.04 81.392 47.972C82.196 46.88 82.688 45.812 83.096 44.24C83.432 45.572 83.9 46.604 84.644 47.672C85.508 48.908 86.456 49.856 87.776 50.78C88.076 50.252 88.232 50.048 88.652 49.652C87.728 49.1 87.332 48.812 86.684 48.176C85.892 47.42 85.292 46.652 84.812 45.8C84.032 44.396 83.636 42.884 83.636 41.276C83.636 41.036 83.648 40.796 83.672 40.52C83.396 40.568 83.108 40.58 82.568 40.58H80.792C80.3 40.58 80.048 40.568 79.76 40.52V41.72C80.192 41.684 80.516 41.66 80.804 41.66H82.436ZM95.084 46.1C95.024 47.288 94.844 47.936 94.412 48.548C93.92 49.244 93.248 49.688 92.06 50.084C92.384 50.396 92.528 50.576 92.768 50.972C94.064 50.396 94.796 49.856 95.288 49.088C95.804 48.284 96.008 47.516 96.092 46.1H97.088V49.964C97.088 50.588 97.448 50.768 98.744 50.768C100.232 50.768 100.424 50.504 100.616 48.32C100.172 48.224 100.004 48.164 99.62 47.96C99.584 48.896 99.536 49.352 99.44 49.556C99.356 49.724 99.212 49.784 98.816 49.784C98.228 49.784 98.12 49.736 98.12 49.52V46.1H99.248C99.716 46.1 100.064 46.124 100.4 46.172V45.116C100.064 45.164 99.788 45.176 99.248 45.176H94.796C94.34 45.176 93.992 45.152 93.668 45.116V46.16C94.004 46.112 94.268 46.1 94.784 46.1H95.084ZM93.512 42.836C93.512 43.172 93.5 43.376 93.476 43.592L93.464 43.7H94.472V44.192C94.736 44.156 95.036 44.144 95.408 44.144H98.384C98.744 44.144 98.996 44.156 99.308 44.192V43.724H100.364C100.328 43.448 100.316 43.256 100.316 42.884V41.984C100.316 41.552 100.328 41.42 100.352 41.156C100.04 41.204 99.704 41.216 99.248 41.216H97.316V40.808C97.316 40.4 97.328 40.184 97.376 39.944H96.152C96.188 40.184 96.212 40.448 96.212 40.784V41.216H94.664C94.16 41.216 93.884 41.204 93.572 41.18C93.632 41.036 93.68 40.928 93.716 40.844L93.236 40.292C93.068 40.328 92.888 40.34 92.492 40.34H90.74C90.368 40.34 90.104 40.328 89.912 40.304C89.936 40.676 89.948 40.964 89.948 41.324V49.664C89.948 50.168 89.924 50.576 89.876 50.936H91.028C90.98 50.564 90.968 50.228 90.968 49.688V41.3H92.432C92.108 42.32 91.748 43.208 91.304 44.096C91.712 44.588 91.928 44.888 92.084 45.2C92.36 45.716 92.516 46.268 92.516 46.724C92.516 46.94 92.468 47.144 92.396 47.204C92.324 47.252 92.168 47.288 91.94 47.288C91.736 47.288 91.52 47.264 91.292 47.216C91.424 47.564 91.484 47.816 91.508 48.296C91.568 48.296 91.604 48.296 91.64 48.296C91.988 48.296 92.372 48.26 92.624 48.224C93.236 48.104 93.524 47.684 93.524 46.928C93.524 46.448 93.428 45.896 93.248 45.44C93.08 44.984 92.888 44.66 92.408 43.976C92.876 42.968 93.08 42.488 93.488 41.396C93.5 41.54 93.512 41.78 93.512 41.984V42.836ZM99.272 43.172C98.996 43.208 98.828 43.22 98.384 43.22H95.42C94.964 43.22 94.784 43.208 94.52 43.172V42.176H99.272V43.172ZM107 44.192C106.316 44.192 105.752 44.756 105.752 45.44C105.752 46.124 106.316 46.688 107 46.688C107.684 46.688 108.248 46.124 108.248 45.44C108.248 44.744 107.696 44.192 107 44.192ZM118.556 43.412H115.724C115.088 43.412 114.692 43.388 114.32 43.34V44.492C114.728 44.444 115.208 44.42 115.724 44.42H118.556V46.04H115.052C114.428 46.04 114.044 46.016 113.672 45.968V47.12C114.068 47.072 114.452 47.048 115.052 47.048H118.556V49.292C118.556 49.58 118.448 49.664 118.112 49.664C117.572 49.664 116.756 49.592 116.06 49.472C116.252 49.916 116.312 50.144 116.36 50.588C116.948 50.648 117.692 50.684 118.208 50.684C119.324 50.684 119.672 50.42 119.672 49.568V47.048H122.876C123.488 47.048 123.86 47.072 124.268 47.12V45.968C123.896 46.016 123.512 46.04 122.876 46.04H119.672V44.42H122.336C122.912 44.42 123.356 44.444 123.728 44.492V43.34C123.356 43.388 122.96 43.412 122.324 43.412H119.672V41.672C120.764 41.54 121.676 41.36 123.308 40.94L122.468 39.944C121.88 40.208 121.256 40.376 120.104 40.58C118.64 40.832 116.42 41.012 114.776 41.012C114.668 41.012 114.524 41.012 114.332 41.012C114.572 41.48 114.632 41.624 114.728 42.056C115.82 42.02 117.044 41.96 117.656 41.888C118.316 41.828 118.316 41.828 118.556 41.804V43.412ZM134.432 44.252V49.484C134.432 49.688 134.348 49.748 134.048 49.748C133.544 49.748 133.136 49.712 132.608 49.64C132.74 49.928 132.8 50.24 132.836 50.696C133.22 50.72 133.592 50.732 133.928 50.732C135.128 50.732 135.452 50.504 135.452 49.616V44.252H135.584C136.052 44.252 136.28 44.264 136.568 44.312V43.184C136.292 43.232 136.064 43.244 135.584 43.244H133.844C133.496 43.244 133.28 43.232 133.112 43.208V42.308C132.8 42.356 132.56 42.368 132.044 42.368H131.432V41.276C131.432 40.712 131.444 40.448 131.504 40.04H130.352C130.4 40.436 130.424 40.712 130.424 41.276V42.368H129.668C129.14 42.368 128.9 42.356 128.6 42.308V43.124L127.724 42.5C127.628 42.776 127.376 43.268 127.16 43.58C126.488 44.54 126.02 45.044 125.312 45.56C125.54 45.932 125.624 46.124 125.756 46.616C126.104 46.34 126.404 46.04 126.656 45.704C126.632 46.424 126.632 46.592 126.632 47.048V49.484C126.632 50.144 126.608 50.504 126.56 50.888H127.712C127.664 50.528 127.652 50.192 127.652 49.508V44.66C127.856 44.384 128.204 43.856 128.384 43.544C128.432 43.46 128.468 43.4 128.492 43.352C128.576 43.244 128.576 43.244 128.6 43.196V43.412C128.852 43.364 129.056 43.352 129.44 43.352H130.424V49.46C130.424 50.084 130.4 50.432 130.352 50.864H131.504C131.444 50.42 131.432 50.096 131.432 49.46V43.352H132.26C132.596 43.352 132.8 43.364 133.028 43.388V44.3C133.28 44.264 133.46 44.252 133.844 44.252H134.432ZM127.604 39.908C127.22 40.688 126.404 41.552 125.408 42.2C125.708 42.572 125.78 42.704 125.948 43.124C126.728 42.56 127.484 41.84 128.096 41.036C128.444 40.592 128.444 40.592 128.564 40.46L127.604 39.908ZM128.876 44.216C128.852 45.26 128.744 46.34 128.612 47.108C128.468 47.84 128.3 48.416 128 49.088C128.396 49.256 128.564 49.364 128.9 49.616C129.404 48.296 129.656 46.856 129.8 44.348L128.876 44.216ZM131.84 44.42C132.224 45.692 132.464 46.964 132.668 48.824L133.628 48.488C133.388 46.868 133.124 45.632 132.704 44.192L131.84 44.42ZM131.576 40.604C132.056 41.204 132.212 41.444 132.536 42.116L133.352 41.6C133.004 41 132.788 40.688 132.332 40.16L131.576 40.604ZM136.364 40.652C136.112 40.7 135.848 40.712 135.44 40.712H134.3C133.916 40.712 133.616 40.688 133.376 40.652V41.768C133.64 41.732 133.94 41.708 134.288 41.708H135.44C135.824 41.708 136.1 41.72 136.364 41.768V40.652ZM143.816 42.2C144.368 42.236 144.692 42.32 145.1 42.536C146.156 43.1 146.744 44.096 146.744 45.344C146.744 46.796 145.94 48.056 144.656 48.608C144.14 48.824 143.6 48.956 142.664 49.1C142.988 49.52 143.096 49.724 143.276 50.276C144.092 50.12 144.56 49.988 145.124 49.76C146.924 49.016 147.98 47.408 147.98 45.404C147.98 42.812 146.144 41.096 143.348 41.096C141.68 41.096 140.3 41.66 139.316 42.74C138.476 43.664 138.02 44.876 138.02 46.16C138.02 47.984 138.956 49.316 140.228 49.316C141.164 49.316 141.896 48.62 142.592 47.036C143.168 45.74 143.6 43.988 143.816 42.2ZM142.592 42.212C142.436 43.64 142.028 45.32 141.56 46.424C141.092 47.516 140.648 48.044 140.216 48.044C139.64 48.044 139.184 47.216 139.184 46.172C139.184 44.804 139.856 43.52 140.948 42.788C141.464 42.44 141.932 42.284 142.592 42.212ZM156.32 45.632C156.596 46.82 156.884 47.54 157.376 48.32C158.048 49.376 158.804 50.084 160.1 50.888C160.328 50.432 160.472 50.216 160.76 49.892C159.704 49.376 158.996 48.812 158.36 48.008C158.78 47.708 159.428 47.228 159.728 46.988C160.34 46.484 160.376 46.46 160.436 46.424L159.608 45.692C159.356 46.028 158.648 46.64 157.844 47.192C157.568 46.652 157.46 46.352 157.28 45.632H158.78C159.164 45.632 159.464 45.644 159.824 45.668C159.788 45.308 159.776 45.104 159.776 44.396V41.72C159.776 40.964 159.788 40.712 159.812 40.4C159.512 40.448 159.284 40.46 158.684 40.46H155.396C154.796 40.46 154.508 40.448 154.232 40.4C154.268 40.844 154.28 41.168 154.28 41.672V49.544C153.524 49.7 153.092 49.772 152.792 49.784L153.02 50.912C153.164 50.852 153.32 50.816 153.608 50.744C155.384 50.336 156.152 50.144 157.424 49.76L157.388 48.752C156.74 48.968 156.284 49.1 155.312 49.328V45.632H156.32ZM155.3 41.408H158.768V42.572H155.3V41.408ZM155.3 43.484H158.768V44.732H155.3V43.484ZM150.08 49.652C150.08 50.18 150.056 50.576 150.008 50.924H151.184C151.136 50.504 151.124 50.132 151.124 49.652V41.3H152.78C152.3 42.644 152.156 42.992 151.568 44.12C152.096 44.708 152.3 44.996 152.492 45.428C152.66 45.836 152.756 46.28 152.756 46.688C152.756 47.12 152.588 47.252 152.036 47.252C151.856 47.252 151.712 47.24 151.436 47.192C151.592 47.528 151.64 47.78 151.664 48.248C152.012 48.248 152.012 48.248 152.024 48.248C153.356 48.248 153.812 47.864 153.812 46.76C153.812 46.4 153.728 45.944 153.608 45.572C153.428 45.056 153.224 44.708 152.684 44.024C153.092 43.244 153.404 42.56 153.668 41.888C153.968 41.144 153.968 41.144 154.052 40.988L153.476 40.28C153.332 40.316 153.08 40.34 152.648 40.34H150.884C150.488 40.34 150.236 40.328 150.044 40.304C150.068 40.7 150.08 40.988 150.08 41.324V49.652ZM165.44 43.724V44.912C165.44 45.152 165.416 45.428 165.392 45.656C165.572 45.632 165.764 45.632 166.244 45.632H169.304C169.76 45.632 169.856 45.632 170.084 45.656C170.06 45.44 170.048 45.188 170.048 44.912V43.724H171.32C171.86 43.724 172.124 43.736 172.4 43.784V42.764C172.076 42.812 171.824 42.824 171.32 42.824H170.048V42.74C170.048 42.464 170.06 42.248 170.096 42.056H168.956C168.98 42.272 169.004 42.5 169.004 42.728V42.824H166.484V42.692C166.484 42.512 166.484 42.404 166.532 42.056H165.392C165.416 42.236 165.44 42.452 165.44 42.716V42.824H163.556V41.816H171.104C171.668 41.816 171.968 41.828 172.364 41.864V40.808C172.016 40.856 171.632 40.88 170.972 40.88H167.864V40.592C167.864 40.28 167.876 40.076 167.924 39.86H166.712C166.76 40.1 166.784 40.304 166.784 40.58V40.88H163.736C163.244 40.88 162.836 40.856 162.428 40.82C162.464 41.192 162.476 41.552 162.476 42.344C162.476 45.236 162.38 46.592 162.116 47.888C161.948 48.68 161.744 49.22 161.336 49.964C161.696 50.252 161.9 50.468 162.188 50.864C163.184 49.076 163.472 47.576 163.544 43.724H165.44ZM166.484 43.724H169.004V44.756H166.484V43.724ZM170.48 46.364C170.204 46.388 169.988 46.4 169.556 46.4H165.296C164.672 46.4 164.336 46.388 164.048 46.34V47.312C164.336 47.276 164.408 47.276 165.032 47.264C165.656 48.14 166.04 48.524 166.796 49.1C165.716 49.556 164.66 49.796 163.112 49.928C163.352 50.36 163.436 50.588 163.532 50.972C165.32 50.696 166.484 50.348 167.732 49.7C168.872 50.336 170.144 50.696 172.028 50.948C172.148 50.504 172.28 50.18 172.472 49.82C171.02 49.76 169.856 49.532 168.764 49.088C169.448 48.62 170.048 48.092 170.576 47.492C170.912 47.108 170.948 47.072 171.044 46.964L170.48 46.364ZM169.448 47.264C168.848 47.888 168.5 48.152 167.78 48.596C167.072 48.164 166.592 47.756 166.232 47.264H169.448ZM177.944 42.86C177.776 42.896 177.536 42.908 177.164 42.908H176.132C176.228 42.74 176.24 42.716 176.348 42.524C176.384 42.44 176.408 42.404 176.444 42.332L175.496 42.104C175.424 42.356 175.316 42.608 175.1 42.944C174.68 43.628 174.14 44.18 173.42 44.66C173.636 44.864 173.84 45.128 174.008 45.416C174.38 45.116 174.584 44.948 174.92 44.576C175.16 44.9 175.34 45.08 175.712 45.428C174.968 46.004 174.248 46.4 173.264 46.724C173.504 46.976 173.648 47.228 173.792 47.636C174.104 47.492 174.224 47.432 174.428 47.324C174.44 47.576 174.44 47.696 174.44 47.912V49.724C174.44 50.18 174.416 50.564 174.38 50.84H175.412V50.18H177.26V50.672H178.256C178.232 50.432 178.232 50.372 178.232 50.192C178.484 50.432 178.604 50.564 178.892 51.008C179.804 50.564 180.428 50.096 181.172 49.292L180.38 48.644C179.936 49.136 179.624 49.4 179.096 49.736C178.796 49.916 178.652 49.988 178.232 50.156C178.232 50.084 178.232 49.916 178.232 49.616V47.984C178.232 47.528 178.244 47.24 178.268 47.024C178.436 47.096 178.472 47.108 178.688 47.192C178.808 46.772 178.892 46.568 179.084 46.28C178.076 45.932 177.68 45.764 177.056 45.392C177.524 44.888 177.848 44.444 178.316 43.688C178.376 43.592 178.388 43.592 178.46 43.484C178.472 43.472 178.484 43.448 178.508 43.424L178.052 42.92H178.892C178.856 42.74 178.856 42.584 178.856 42.176V41.84C178.856 41.6 178.856 41.528 178.868 41.336C179.12 41.3 179.552 41.276 180.032 41.276H181.196C181.124 41.54 181.052 41.756 180.836 42.308H180.164C179.588 42.308 179.432 42.308 179.144 42.272C179.18 42.704 179.192 42.896 179.192 43.4V47.528C179.192 47.828 179.168 48.308 179.156 48.62C179.72 48.584 179.792 48.584 180.128 48.584H182.924C183.26 48.584 183.548 48.596 183.956 48.62C183.932 48.212 183.92 47.936 183.92 47.42V43.34C183.92 42.86 183.92 42.62 183.956 42.26C183.704 42.296 183.476 42.308 182.816 42.308H181.868C182.012 41.948 182.108 41.66 182.228 41.276H183.2C183.776 41.276 184.04 41.288 184.436 41.336V40.256C184.184 40.304 183.836 40.316 183.2 40.316H180.032C179.384 40.316 179.168 40.304 178.808 40.256V41.06C178.628 41.084 178.412 41.084 177.932 41.084H176.852V40.796C176.852 40.424 176.864 40.244 176.912 40.016H175.736C175.796 40.28 175.808 40.448 175.808 40.784V41.084H174.62C174.104 41.084 173.828 41.072 173.648 41.048C173.684 41.384 173.696 41.588 173.696 41.828V42.404C173.696 42.656 173.684 42.872 173.648 43.124H174.656V41.972H177.944V42.86ZM175.268 47.012H175.004C175.628 46.64 175.976 46.388 176.42 46.004C176.888 46.352 177.5 46.688 178.172 46.988C178.016 47 177.764 47.012 177.428 47.012H175.268ZM177.224 43.748C176.804 44.36 176.648 44.564 176.336 44.888C175.964 44.564 175.784 44.384 175.448 43.952C175.508 43.88 175.532 43.844 175.604 43.748H177.224ZM175.412 47.852H177.26V49.304H175.412V47.852ZM180.164 43.196H182.924V44.084H180.164V43.196ZM180.164 44.96H182.924V45.848H180.164V44.96ZM180.164 46.724H182.924V47.672H180.164V46.724ZM181.712 49.304C182.492 50.108 183.068 50.516 184.124 51.032C184.304 50.66 184.496 50.384 184.76 50.072C183.608 49.58 183.2 49.328 182.468 48.644L181.712 49.304Z" fill="black"/>
<path d="M107.486 71.646C107.452 71.49 107.521 71.386 107.694 71.334L109.904 70.788C110.06 70.7707 110.164 70.84 110.216 70.996C110.39 71.4987 110.676 71.906 111.074 72.218C111.473 72.53 112.002 72.686 112.66 72.686C113.163 72.686 113.614 72.5647 114.012 72.322C114.411 72.062 114.688 71.698 114.844 71.23C114.931 70.9873 114.992 70.7187 115.026 70.424C115.061 70.112 115.078 69.7307 115.078 69.28C115.078 68.7947 115.061 68.4047 115.026 68.11C114.992 67.8153 114.931 67.5553 114.844 67.33C114.671 66.81 114.385 66.4373 113.986 66.212C113.588 65.9867 113.137 65.874 112.634 65.874C112.045 65.874 111.568 66.004 111.204 66.264C110.858 66.524 110.615 66.8013 110.476 67.096C110.407 67.2693 110.303 67.356 110.164 67.356H107.98C107.807 67.356 107.72 67.2693 107.72 67.096V57.58C107.72 57.4067 107.807 57.32 107.98 57.32H117.392C117.566 57.32 117.652 57.4067 117.652 57.58V59.66C117.652 59.8333 117.566 59.92 117.392 59.92H110.554C110.45 59.92 110.398 59.972 110.398 60.076V64.054H110.476C110.684 63.8807 111.005 63.7073 111.438 63.534C111.889 63.3607 112.435 63.274 113.076 63.274C114.22 63.274 115.182 63.534 115.962 64.054C116.76 64.5567 117.314 65.2933 117.626 66.264C117.748 66.6453 117.843 67.0613 117.912 67.512C117.982 67.9627 118.016 68.552 118.016 69.28C118.016 70.4067 117.895 71.334 117.652 72.062C117.306 73.102 116.682 73.8993 115.78 74.454C114.879 75.0087 113.839 75.286 112.66 75.286C111.984 75.286 111.352 75.1993 110.762 75.026C110.173 74.8527 109.653 74.61 109.202 74.298C108.752 73.9687 108.379 73.5873 108.084 73.154C107.79 72.7033 107.59 72.2007 107.486 71.646ZM120.456 71.828C120.404 71.6547 120.352 71.4553 120.3 71.23C120.248 70.9873 120.205 70.6667 120.17 70.268C120.153 69.852 120.135 69.3233 120.118 68.682C120.101 68.0233 120.092 67.1827 120.092 66.16C120.092 65.1373 120.101 64.3053 120.118 63.664C120.135 63.0053 120.153 62.4767 120.17 62.078C120.205 61.662 120.248 61.3413 120.3 61.116C120.352 60.8907 120.404 60.6827 120.456 60.492C120.803 59.3827 121.392 58.5333 122.224 57.944C123.073 57.3373 124.157 57.034 125.474 57.034C126.791 57.034 127.866 57.3373 128.698 57.944C129.547 58.5333 130.154 59.3827 130.518 60.492C130.57 60.6827 130.622 60.8907 130.674 61.116C130.726 61.3413 130.761 61.662 130.778 62.078C130.813 62.4767 130.839 63.0053 130.856 63.664C130.873 64.3053 130.882 65.1373 130.882 66.16C130.882 67.1827 130.873 68.0233 130.856 68.682C130.839 69.3233 130.813 69.852 130.778 70.268C130.761 70.6667 130.726 70.9873 130.674 71.23C130.622 71.4553 130.57 71.6547 130.518 71.828C130.154 72.9373 129.547 73.7953 128.698 74.402C127.866 74.9913 126.791 75.286 125.474 75.286C124.157 75.286 123.073 74.9913 122.224 74.402C121.392 73.7953 120.803 72.9373 120.456 71.828ZM123.316 71.282C123.645 72.218 124.365 72.686 125.474 72.686C126.583 72.686 127.311 72.218 127.658 71.282C127.71 71.1433 127.745 70.9873 127.762 70.814C127.797 70.6407 127.823 70.372 127.84 70.008C127.857 69.644 127.866 69.1587 127.866 68.552C127.883 67.9453 127.892 67.148 127.892 66.16C127.892 65.172 127.883 64.3747 127.866 63.768C127.866 63.1613 127.857 62.676 127.84 62.312C127.823 61.948 127.797 61.6793 127.762 61.506C127.745 61.3327 127.71 61.1767 127.658 61.038C127.311 60.102 126.583 59.634 125.474 59.634C124.365 59.634 123.645 60.102 123.316 61.038C123.264 61.1767 123.221 61.3327 123.186 61.506C123.169 61.6793 123.151 61.948 123.134 62.312C123.117 62.676 123.099 63.1613 123.082 63.768C123.082 64.3747 123.082 65.172 123.082 66.16C123.082 67.148 123.082 67.9453 123.082 68.552C123.099 69.1587 123.117 69.644 123.134 70.008C123.151 70.372 123.169 70.6407 123.186 70.814C123.221 70.9873 123.264 71.1433 123.316 71.282Z" fill="#00655A"/>
<path d="M136.676 66.22C136.628 67.9 136.628 67.9 136.496 68.752C136.22 70.444 135.68 71.752 134.78 72.88C134.264 73.528 133.832 73.912 132.98 74.476C133.352 74.764 133.592 75.028 133.844 75.424C134.864 74.68 135.488 74.044 136.1 73.108C136.844 71.956 137.24 70.912 137.54 69.304H141.5C141.416 71.416 141.284 72.604 141.032 73.528C140.912 74.008 140.72 74.14 140.192 74.14C139.616 74.14 139.088 74.08 138.08 73.9C138.224 74.26 138.308 74.596 138.344 75.076C139.256 75.16 139.712 75.184 140.108 75.184C141.212 75.184 141.692 74.944 141.98 74.272C142.28 73.564 142.556 71.512 142.628 69.388C142.652 68.548 142.652 68.44 142.7 68.2C142.352 68.248 141.92 68.26 141.212 68.26H137.684C137.768 67.552 137.792 67.18 137.816 66.22H142.472C143 66.22 143.48 66.244 143.9 66.292V65.092C143.456 65.14 143.012 65.164 142.472 65.164H134.612C134.048 65.164 133.604 65.14 133.172 65.092V66.292C133.592 66.244 134.084 66.22 134.612 66.22H136.676ZM146.804 70.6H154.22V73.852C154.22 74.104 154.136 74.152 153.644 74.152C153.188 74.152 152.576 74.104 151.796 74.02C151.964 74.44 152.036 74.704 152.084 75.1C152.564 75.136 153.272 75.16 153.74 75.16C155.024 75.16 155.348 74.932 155.348 74.032V66.268C155.348 65.68 155.36 65.392 155.396 65.044C155.084 65.08 154.784 65.092 154.172 65.092H146.876C146.3 65.092 146 65.08 145.628 65.044C145.664 65.38 145.676 65.68 145.676 66.16V73.948C145.676 74.584 145.652 74.98 145.604 75.34H146.864C146.816 75.064 146.804 74.764 146.804 73.996V70.6ZM149.876 69.556H146.804V66.148H149.876V69.556ZM150.992 69.556V66.148H154.22V69.556H150.992Z" fill="#00655A"/>
</g>
<path d="M74.285 13.325H73.37C72.695 13.325 72.23 13.295 71.78 13.235V14.69C72.245 14.63 72.71 14.6 73.37 14.6H78.575V16.7C78.575 17.45 78.56 17.81 78.485 18.23H80.06C79.985 17.81 79.955 17.435 79.955 16.715V14.6H83.555C84.215 14.6 84.695 14.63 85.145 14.69V13.235C84.71 13.295 84.245 13.325 83.555 13.325H79.955V10.685H82.52C83.135 10.685 83.54 10.7 83.945 10.745V9.395C83.54 9.455 83.135 9.47 82.49 9.47H79.955V7.325H83.15C83.795 7.325 84.17 7.34 84.59 7.4V6.02C84.185 6.08 83.825 6.095 83.15 6.095H75.95C75.98 6.02 76.04 5.9 76.13 5.72C76.31 5.315 76.31 5.315 76.445 5.03C76.52 4.865 76.535 4.835 76.655 4.61L75.155 4.28C75.095 4.58 74.99 4.895 74.795 5.36C74.135 6.92 73.355 7.94 71.84 9.23C72.26 9.575 72.455 9.8 72.785 10.31C73.76 9.44 74.48 8.585 75.26 7.325H78.575V9.47H75.29C74.9 9.47 74.57 9.455 74.24 9.425C74.27 9.71 74.285 9.965 74.285 10.295V13.325ZM75.605 13.325V10.685H78.575V13.325H75.605ZM88.625 9.8H91.355C91.925 9.8 92.39 9.815 92.795 9.845C92.765 9.5 92.75 9.125 92.75 8.48V6.335C92.75 5.75 92.765 5.39 92.795 4.925C92.375 4.97 92.03 4.985 91.265 4.985H88.805C88.055 4.985 87.665 4.97 87.26 4.925C87.305 5.405 87.32 5.825 87.32 6.605V16.355C87.32 17.24 87.29 17.705 87.23 18.14H88.715C88.655 17.75 88.625 17.24 88.625 16.355V9.8ZM88.625 6.005H91.52V6.92H88.625V6.005ZM88.625 7.88H91.52V8.81H88.625V7.88ZM99.695 6.59C99.695 5.87 99.71 5.495 99.77 4.925C99.35 4.97 98.975 4.985 98.195 4.985H95.48C94.715 4.985 94.355 4.97 93.95 4.925C93.98 5.36 93.995 5.825 93.995 6.335V8.48C93.995 9.05 93.98 9.44 93.95 9.845C94.355 9.815 94.82 9.8 95.39 9.8H98.39V16.31C98.39 16.64 98.27 16.715 97.76 16.715C97.37 16.715 96.83 16.67 96.05 16.565C96.245 17.045 96.32 17.33 96.41 17.915C96.665 17.93 97.52 17.96 97.85 17.96C99.305 17.96 99.695 17.63 99.695 16.46V6.59ZM95.225 6.005H98.39V6.92H95.225V6.005ZM95.225 7.88H98.39V8.81H95.225V7.88ZM96.395 12.17C96.395 11.585 96.41 11.195 96.44 10.79C96.035 10.835 95.66 10.85 95.015 10.85H91.91C91.28 10.85 90.89 10.835 90.485 10.79C90.515 11.21 90.53 11.63 90.53 12.17V15.71C90.53 16.31 90.515 16.73 90.455 17.165H91.775V16.25H94.97C95.57 16.25 95.99 16.265 96.44 16.295C96.41 15.92 96.395 15.53 96.395 14.96V12.17ZM91.775 11.9H95.165V12.995H91.775V11.9ZM91.775 14.03H95.165V15.2H91.775V14.03ZM109.52 7.25C110.21 7.295 110.615 7.4 111.125 7.67C112.445 8.375 113.18 9.62 113.18 11.18C113.18 12.995 112.175 14.57 110.57 15.26C109.925 15.53 109.25 15.695 108.08 15.875C108.485 16.4 108.62 16.655 108.845 17.345C109.865 17.15 110.45 16.985 111.155 16.7C113.405 15.77 114.725 13.76 114.725 11.255C114.725 8.015 112.43 5.87 108.935 5.87C106.85 5.87 105.125 6.575 103.895 7.925C102.845 9.08 102.275 10.595 102.275 12.2C102.275 14.48 103.445 16.145 105.035 16.145C106.205 16.145 107.12 15.275 107.99 13.295C108.71 11.675 109.25 9.485 109.52 7.25ZM107.99 7.265C107.795 9.05 107.285 11.15 106.7 12.53C106.115 13.895 105.56 14.555 105.02 14.555C104.3 14.555 103.73 13.52 103.73 12.215C103.73 10.505 104.57 8.9 105.935 7.985C106.58 7.55 107.165 7.355 107.99 7.265ZM122.72 6.47H118.73C118.025 6.47 117.485 6.44 117.02 6.365V7.835C117.485 7.775 118.01 7.745 118.73 7.745H122.72V9.86H119.81C119.075 9.86 118.505 9.83 118.085 9.77V11.15C118.55 11.09 118.925 11.075 119.63 11.06C120.485 12.695 121.175 13.58 122.51 14.705C120.815 15.71 119.045 16.325 116.81 16.67C117.155 17.18 117.32 17.495 117.515 18.02C119.915 17.525 121.715 16.79 123.635 15.545C125.435 16.775 127.055 17.45 129.665 18.065C129.89 17.435 130.055 17.105 130.385 16.625C128.12 16.25 126.41 15.65 124.805 14.675C125.99 13.7 126.92 12.68 127.7 11.495C127.97 11.09 128.15 10.835 128.315 10.64L127.46 9.785C127.16 9.845 126.8 9.86 126.17 9.86H124.145V7.745H128.36C129.08 7.745 129.65 7.775 130.085 7.835V6.365C129.62 6.44 129.08 6.47 128.36 6.47H124.145V5.75C124.145 5.105 124.16 4.805 124.235 4.445H122.63C122.69 4.835 122.72 5.12 122.72 5.75V6.47ZM126.32 11.06C125.51 12.305 124.835 13.04 123.665 13.925C122.465 13.025 121.73 12.185 121.145 11.06H126.32ZM145.445 17.45C144.455 14.495 143.765 12.8 142.64 10.64L141.425 11.15C142.19 12.575 142.67 13.685 143.27 15.365C141.41 15.71 140.15 15.905 138.77 16.04C139.055 15.215 139.43 13.91 139.775 12.56C140.21 10.88 140.54 9.425 141.095 6.62C141.35 5.285 141.35 5.285 141.425 4.955L139.79 4.715C139.775 5.615 139.595 6.92 139.265 8.645C138.74 11.255 138.05 13.865 137.255 16.19C136.52 16.25 136.505 16.25 136.31 16.25C136.25 16.25 136.19 16.25 136.085 16.235L136.385 17.78C136.625 17.72 136.7 17.705 137.285 17.63C140.99 17.09 141.305 17.03 143.645 16.55C143.78 17 143.84 17.21 144.08 18.05L145.445 17.45ZM135.425 7.385V6.05C135.425 5.42 135.455 5 135.515 4.55H134C134.06 5.03 134.09 5.435 134.09 6.065V7.385H133.19C132.725 7.385 132.41 7.355 132.005 7.295V8.66C132.365 8.615 132.77 8.585 133.19 8.585H134.09V11.6C132.695 12.005 132.38 12.08 131.81 12.14L132.095 13.565C132.305 13.49 132.515 13.415 132.905 13.295C133.355 13.16 133.685 13.04 134.09 12.92V16.4C134.09 16.745 133.985 16.835 133.61 16.835C133.13 16.835 132.56 16.79 132.005 16.7C132.2 17.27 132.26 17.525 132.305 18.05C132.815 18.095 133.205 18.11 133.535 18.11C134.975 18.11 135.425 17.81 135.425 16.85V12.44C135.95 12.245 135.95 12.245 137.27 11.735L137.21 10.52C136.295 10.865 135.995 10.985 135.425 11.18V8.585H136.16C136.535 8.585 136.925 8.6 137.3 8.645V7.325C136.895 7.37 136.64 7.385 136.16 7.385H135.425ZM155.15 11.54C155.495 13.025 155.855 13.925 156.47 14.9C157.31 16.22 158.255 17.105 159.875 18.11C160.16 17.54 160.34 17.27 160.7 16.865C159.38 16.22 158.495 15.515 157.7 14.51C158.225 14.135 159.035 13.535 159.41 13.235C160.175 12.605 160.22 12.575 160.295 12.53L159.26 11.615C158.945 12.035 158.06 12.8 157.055 13.49C156.71 12.815 156.575 12.44 156.35 11.54H158.225C158.705 11.54 159.08 11.555 159.53 11.585C159.485 11.135 159.47 10.88 159.47 9.995V6.65C159.47 5.705 159.485 5.39 159.515 5C159.14 5.06 158.855 5.075 158.105 5.075H153.995C153.245 5.075 152.885 5.06 152.54 5C152.585 5.555 152.6 5.96 152.6 6.59V16.43C151.655 16.625 151.115 16.715 150.74 16.73L151.025 18.14C151.205 18.065 151.4 18.02 151.76 17.93C153.98 17.42 154.94 17.18 156.53 16.7L156.485 15.44C155.675 15.71 155.105 15.875 153.89 16.16V11.54H155.15ZM153.875 6.26H158.21V7.715H153.875V6.26ZM153.875 8.855H158.21V10.415H153.875V8.855ZM147.35 16.565C147.35 17.225 147.32 17.72 147.26 18.155H148.73C148.67 17.63 148.655 17.165 148.655 16.565V6.125H150.725C150.125 7.805 149.945 8.24 149.21 9.65C149.87 10.385 150.125 10.745 150.365 11.285C150.575 11.795 150.695 12.35 150.695 12.86C150.695 13.4 150.485 13.565 149.795 13.565C149.57 13.565 149.39 13.55 149.045 13.49C149.24 13.91 149.3 14.225 149.33 14.81C149.765 14.81 149.765 14.81 149.78 14.81C151.445 14.81 152.015 14.33 152.015 12.95C152.015 12.5 151.91 11.93 151.76 11.465C151.535 10.82 151.28 10.385 150.605 9.53C151.115 8.555 151.505 7.7 151.835 6.86C152.21 5.93 152.21 5.93 152.315 5.735L151.595 4.85C151.415 4.895 151.1 4.925 150.56 4.925H148.355C147.86 4.925 147.545 4.91 147.305 4.88C147.335 5.375 147.35 5.735 147.35 6.155V16.565ZM166.55 9.155V10.64C166.55 10.94 166.52 11.285 166.49 11.57C166.715 11.54 166.955 11.54 167.555 11.54H171.38C171.95 11.54 172.07 11.54 172.355 11.57C172.325 11.3 172.31 10.985 172.31 10.64V9.155H173.9C174.575 9.155 174.905 9.17 175.25 9.23V7.955C174.845 8.015 174.53 8.03 173.9 8.03H172.31V7.925C172.31 7.58 172.325 7.31 172.37 7.07H170.945C170.975 7.34 171.005 7.625 171.005 7.91V8.03H167.855V7.865C167.855 7.64 167.855 7.505 167.915 7.07H166.49C166.52 7.295 166.55 7.565 166.55 7.895V8.03H164.195V6.77H173.63C174.335 6.77 174.71 6.785 175.205 6.83V5.51C174.77 5.57 174.29 5.6 173.465 5.6H169.58V5.24C169.58 4.85 169.595 4.595 169.655 4.325H168.14C168.2 4.625 168.23 4.88 168.23 5.225V5.6H164.42C163.805 5.6 163.295 5.57 162.785 5.525C162.83 5.99 162.845 6.44 162.845 7.43C162.845 11.045 162.725 12.74 162.395 14.36C162.185 15.35 161.93 16.025 161.42 16.955C161.87 17.315 162.125 17.585 162.485 18.08C163.73 15.845 164.09 13.97 164.18 9.155H166.55ZM167.855 9.155H171.005V10.445H167.855V9.155ZM172.85 12.455C172.505 12.485 172.235 12.5 171.695 12.5H166.37C165.59 12.5 165.17 12.485 164.81 12.425V13.64C165.17 13.595 165.26 13.595 166.04 13.58C166.82 14.675 167.3 15.155 168.245 15.875C166.895 16.445 165.575 16.745 163.64 16.91C163.94 17.45 164.045 17.735 164.165 18.215C166.4 17.87 167.855 17.435 169.415 16.625C170.84 17.42 172.43 17.87 174.785 18.185C174.935 17.63 175.1 17.225 175.34 16.775C173.525 16.7 172.07 16.415 170.705 15.86C171.56 15.275 172.31 14.615 172.97 13.865C173.39 13.385 173.435 13.34 173.555 13.205L172.85 12.455ZM171.56 13.58C170.81 14.36 170.375 14.69 169.475 15.245C168.59 14.705 167.99 14.195 167.54 13.58H171.56ZM182.18 8.075C181.97 8.12 181.67 8.135 181.205 8.135H179.915C180.035 7.925 180.05 7.895 180.185 7.655C180.23 7.55 180.26 7.505 180.305 7.415L179.12 7.13C179.03 7.445 178.895 7.76 178.625 8.18C178.1 9.035 177.425 9.725 176.525 10.325C176.795 10.58 177.05 10.91 177.26 11.27C177.725 10.895 177.98 10.685 178.4 10.22C178.7 10.625 178.925 10.85 179.39 11.285C178.46 12.005 177.56 12.5 176.33 12.905C176.63 13.22 176.81 13.535 176.99 14.045C177.38 13.865 177.53 13.79 177.785 13.655C177.8 13.97 177.8 14.12 177.8 14.39V16.655C177.8 17.225 177.77 17.705 177.725 18.05H179.015V17.225H181.325V17.84H182.57C182.54 17.54 182.54 17.465 182.54 17.24C182.855 17.54 183.005 17.705 183.365 18.26C184.505 17.705 185.285 17.12 186.215 16.115L185.225 15.305C184.67 15.92 184.28 16.25 183.62 16.67C183.245 16.895 183.065 16.985 182.54 17.195C182.54 17.105 182.54 16.895 182.54 16.52V14.48C182.54 13.91 182.555 13.55 182.585 13.28C182.795 13.37 182.84 13.385 183.11 13.49C183.26 12.965 183.365 12.71 183.605 12.35C182.345 11.915 181.85 11.705 181.07 11.24C181.655 10.61 182.06 10.055 182.645 9.11C182.72 8.99 182.735 8.99 182.825 8.855C182.84 8.84 182.855 8.81 182.885 8.78L182.315 8.15H183.365C183.32 7.925 183.32 7.73 183.32 7.22V6.8C183.32 6.5 183.32 6.41 183.335 6.17C183.65 6.125 184.19 6.095 184.79 6.095H186.245C186.155 6.425 186.065 6.695 185.795 7.385H184.955C184.235 7.385 184.04 7.385 183.68 7.34C183.725 7.88 183.74 8.12 183.74 8.75V13.91C183.74 14.285 183.71 14.885 183.695 15.275C184.4 15.23 184.49 15.23 184.91 15.23H188.405C188.825 15.23 189.185 15.245 189.695 15.275C189.665 14.765 189.65 14.42 189.65 13.775V8.675C189.65 8.075 189.65 7.775 189.695 7.325C189.38 7.37 189.095 7.385 188.27 7.385H187.085C187.265 6.935 187.385 6.575 187.535 6.095H188.75C189.47 6.095 189.8 6.11 190.295 6.17V4.82C189.98 4.88 189.545 4.895 188.75 4.895H184.79C183.98 4.895 183.71 4.88 183.26 4.82V5.825C183.035 5.855 182.765 5.855 182.165 5.855H180.815V5.495C180.815 5.03 180.83 4.805 180.89 4.52H179.42C179.495 4.85 179.51 5.06 179.51 5.48V5.855H178.025C177.38 5.855 177.035 5.84 176.81 5.81C176.855 6.23 176.87 6.485 176.87 6.785V7.505C176.87 7.82 176.855 8.09 176.81 8.405H178.07V6.965H182.18V8.075ZM178.835 13.265H178.505C179.285 12.8 179.72 12.485 180.275 12.005C180.86 12.44 181.625 12.86 182.465 13.235C182.27 13.25 181.955 13.265 181.535 13.265H178.835ZM181.28 9.185C180.755 9.95 180.56 10.205 180.17 10.61C179.705 10.205 179.48 9.98 179.06 9.44C179.135 9.35 179.165 9.305 179.255 9.185H181.28ZM179.015 14.315H181.325V16.13H179.015V14.315ZM184.955 8.495H188.405V9.605H184.955V8.495ZM184.955 10.7H188.405V11.81H184.955V10.7ZM184.955 12.905H188.405V14.09H184.955V12.905ZM186.89 16.13C187.865 17.135 188.585 17.645 189.905 18.29C190.13 17.825 190.37 17.48 190.7 17.09C189.26 16.475 188.75 16.16 187.835 15.305L186.89 16.13Z" fill="#00655A"/>
<defs>
<clipPath id="clip0">
<rect x="66" y="26" width="129" height="62" fill="white"/>
</clipPath>
</defs>
</svg>
