<!-- 01EZTX9M3AWK0ZB16B6KYR56F1 -->

<svg width="94" height="60" viewBox="0 0 94 60" fill="none" xmlns="http://www.w3.org/2000/svg">
<mask id="path-2-inside-1" fill="white">
<path d="M94 10C94 4.47715 89.5228 0 84 0H10C4.47715 0 0 4.47715 0 10V58H94V10Z"/>
</mask>
<path d="M94 10C94 4.47715 89.5228 0 84 0H10C4.47715 0 0 4.47715 0 10V58H94V10Z" fill="#00655A"/>
<path d="M0 58V62H-4V58H0ZM94 58H98V62H94V58ZM84 4H10V-4H84V4ZM4 10V58H-4V10H4ZM0 54H94V62H0V54ZM90 58V10H98V58H90ZM10 4C6.68629 4 4 6.68629 4 10H-4C-4 2.26801 2.26801 -4 10 -4V4ZM84 -4C91.732 -4 98 2.26801 98 10H90C90 6.68629 87.3137 4 84 4V-4Z" fill="#00655A" mask="url(#path-2-inside-1)"/>
<path d="M40.6017 50.412V51.144H42.2097C42.1617 50.844 42.1497 50.508 42.1497 49.908V43.32C42.1497 42.768 42.1497 42.648 42.1857 42.324C41.7657 42.348 41.7657 42.348 41.1417 42.348H35.3697C34.4937 42.348 34.2657 42.336 33.8217 42.264V43.824C34.2537 43.776 34.5057 43.764 35.3577 43.764H40.6137V48.996H35.1537C34.3137 48.996 34.0977 48.984 33.6537 48.912V50.46C34.0137 50.424 34.3017 50.412 35.1297 50.412H40.6017ZM44.8257 47.232C45.3057 47.172 45.4377 47.172 46.7817 47.172H53.1537C54.4977 47.172 54.6297 47.172 55.1097 47.232V45.564C54.5817 45.636 54.3537 45.648 53.1657 45.648H46.7697C45.5817 45.648 45.3537 45.636 44.8257 45.564V47.232ZM65.9744 50.148C64.5224 48.744 64.5224 48.744 64.2224 48.48C63.4064 47.748 62.7584 47.244 62.0024 46.74C62.7344 45.756 63.3224 44.712 63.8744 43.428C64.0064 43.128 64.1024 42.96 64.2584 42.78L63.4664 41.964C63.1664 42.072 63.0704 42.084 62.3984 42.096L58.1744 42.156C58.0304 42.156 57.9344 42.156 57.8864 42.156C57.3944 42.156 57.1664 42.144 56.8304 42.084L56.8784 43.62C57.2864 43.56 57.6104 43.536 58.1864 43.524C61.9664 43.464 61.9664 43.464 62.1584 43.452L62.0264 43.764C61.2464 45.636 59.8064 47.376 57.9944 48.648C57.0944 49.284 56.5184 49.608 55.5944 49.968C56.0864 50.484 56.2304 50.676 56.5664 51.3C58.4024 50.4 59.7824 49.344 61.1384 47.832C62.4464 48.828 63.8264 50.172 64.8224 51.396L65.9744 50.148Z" fill="white"/>
<path d="M33.2671 15.228V15.12H27.1831C27.0391 15.12 26.9671 15.192 26.9671 15.336V18.144C26.9671 18.384 26.8471 18.504 26.6071 18.504H23.5111C23.2711 18.504 23.1511 18.384 23.1511 18.144V11.88C23.1511 11.64 23.2711 11.52 23.5111 11.52H37.2271C37.4671 11.52 37.5871 11.64 37.5871 11.88V14.688C37.5871 14.952 37.5511 15.168 37.4791 15.336L29.3791 35.676C29.3311 35.796 29.2711 35.88 29.1991 35.928C29.1511 35.976 29.0551 36 28.9111 36H25.4911C25.2271 36 25.1551 35.868 25.2751 35.604L33.2671 15.228ZM41.5049 31.608C41.4329 31.368 41.3609 31.092 41.2889 30.78C41.2169 30.444 41.1569 30 41.1089 29.448C41.0849 28.872 41.0609 28.14 41.0369 27.252C41.0129 26.34 41.0009 25.176 41.0009 23.76C41.0009 22.344 41.0129 21.192 41.0369 20.304C41.0609 19.392 41.0849 18.66 41.1089 18.108C41.1569 17.532 41.2169 17.088 41.2889 16.776C41.3609 16.464 41.4329 16.176 41.5049 15.912C41.9849 14.376 42.8009 13.2 43.9529 12.384C45.1289 11.544 46.6289 11.124 48.4529 11.124C50.2769 11.124 51.7649 11.544 52.9169 12.384C54.0929 13.2 54.9329 14.376 55.4369 15.912C55.5089 16.176 55.5809 16.464 55.6529 16.776C55.7249 17.088 55.7729 17.532 55.7969 18.108C55.8449 18.66 55.8809 19.392 55.9049 20.304C55.9289 21.192 55.9409 22.344 55.9409 23.76C55.9409 25.176 55.9289 26.34 55.9049 27.252C55.8809 28.14 55.8449 28.872 55.7969 29.448C55.7729 30 55.7249 30.444 55.6529 30.78C55.5809 31.092 55.5089 31.368 55.4369 31.608C54.9329 33.144 54.0929 34.332 52.9169 35.172C51.7649 35.988 50.2769 36.396 48.4529 36.396C46.6289 36.396 45.1289 35.988 43.9529 35.172C42.8009 34.332 41.9849 33.144 41.5049 31.608ZM45.4649 30.852C45.9209 32.148 46.9169 32.796 48.4529 32.796C49.9889 32.796 50.9969 32.148 51.4769 30.852C51.5489 30.66 51.5969 30.444 51.6209 30.204C51.6689 29.964 51.7049 29.592 51.7289 29.088C51.7529 28.584 51.7649 27.912 51.7649 27.072C51.7889 26.232 51.8009 25.128 51.8009 23.76C51.8009 22.392 51.7889 21.288 51.7649 20.448C51.7649 19.608 51.7529 18.936 51.7289 18.432C51.7049 17.928 51.6689 17.556 51.6209 17.316C51.5969 17.076 51.5489 16.86 51.4769 16.668C50.9969 15.372 49.9889 14.724 48.4529 14.724C46.9169 14.724 45.9209 15.372 45.4649 16.668C45.3929 16.86 45.3329 17.076 45.2849 17.316C45.2609 17.556 45.2369 17.928 45.2129 18.432C45.1889 18.936 45.1649 19.608 45.1409 20.448C45.1409 21.288 45.1409 22.392 45.1409 23.76C45.1409 25.128 45.1409 26.232 45.1409 27.072C45.1649 27.912 45.1889 28.584 45.2129 29.088C45.2369 29.592 45.2609 29.964 45.2849 30.204C45.3329 30.444 45.3929 30.66 45.4649 30.852ZM59.2107 35.946L60.1287 36.684L71.4687 22.176L70.5327 21.456L59.2107 35.946ZM69.5787 36.504C70.5687 36.504 71.3967 36.198 72.0087 35.586C72.6927 34.92 73.0527 33.84 73.0527 32.472C73.0527 31.122 72.6927 30.042 72.0087 29.376C71.4147 28.782 70.5687 28.458 69.5787 28.458C68.5887 28.458 67.7427 28.782 67.1307 29.376C66.4467 30.06 66.0867 31.122 66.0867 32.472C66.0867 33.84 66.4467 34.92 67.1307 35.586C67.7427 36.198 68.5707 36.504 69.5787 36.504ZM69.5787 29.988C70.1007 29.988 70.4247 30.15 70.7307 30.546C71.0367 30.978 71.2167 31.626 71.2167 32.346C71.2167 34.092 70.6587 34.992 69.5787 34.992C68.5167 34.992 67.9407 34.092 67.9407 32.436C67.9407 31.626 68.1027 31.014 68.4267 30.564C68.7147 30.15 69.0567 29.988 69.5787 29.988ZM61.1007 29.664C62.0907 29.664 62.9187 29.358 63.5307 28.746C64.2147 28.08 64.5747 27 64.5747 25.632C64.5747 24.282 64.2147 23.202 63.5307 22.536C62.9367 21.942 62.0907 21.618 61.1007 21.618C58.9047 21.618 57.6087 23.112 57.6087 25.632C57.6087 26.982 57.9687 28.08 58.6527 28.746C59.2647 29.358 60.0927 29.664 61.1007 29.664ZM61.1007 23.148C61.6947 23.148 62.1087 23.4 62.4147 23.958C62.6127 24.336 62.7387 24.984 62.7387 25.632C62.7387 27.252 62.1447 28.152 61.1007 28.152C60.0387 28.152 59.4627 27.252 59.4627 25.596C59.4627 24.03 60.0567 23.148 61.1007 23.148Z" fill="white"/>
</svg>
