<!-- 01EZTX9M3AWK0ZB16B6KYR56F1 -->

<svg width="262" height="145" viewBox="0 0 262 145" fill="none" xmlns="http://www.w3.org/2000/svg">
<path fill-rule="evenodd" clip-rule="evenodd" d="M260 145C261.105 145 262 144.105 262 143L262 99C262 97.8955 261.105 97 260 97L45.2985 97L40.2896 91.1836C40.0788 90.9389 39.6997 90.9389 39.489 91.1836L34.4801 97L2 97C0.89542 97 4.11801e-06 97.8954 4.02145e-06 99L1.74846e-07 143C7.82811e-08 144.105 0.895416 145 2 145L260 145Z" fill="#B2D0CD"/>
<path d="M78.1723 108.778C78.1243 109.798 78.0283 110.422 77.7763 111.298C77.4043 112.57 76.7203 113.794 75.7963 114.814C74.9803 115.726 74.3563 116.23 73.2403 116.89C73.6363 117.214 73.8643 117.478 74.0923 117.922C75.4243 117.01 76.3483 116.158 77.1283 115.09C77.9323 113.998 78.4243 112.93 78.8323 111.358C79.1683 112.69 79.6363 113.722 80.3803 114.79C81.2443 116.026 82.1923 116.974 83.5123 117.898C83.8123 117.37 83.9683 117.166 84.3883 116.77C83.4643 116.218 83.0683 115.93 82.4203 115.294C81.6283 114.538 81.0283 113.77 80.5483 112.918C79.7683 111.514 79.3723 110.002 79.3723 108.394C79.3723 108.154 79.3843 107.914 79.4083 107.638C79.1323 107.686 78.8443 107.698 78.3043 107.698H76.5283C76.0363 107.698 75.7843 107.686 75.4963 107.638V108.838C75.9283 108.802 76.2523 108.778 76.5403 108.778H78.1723ZM90.8203 113.218C90.7603 114.406 90.5803 115.054 90.1483 115.666C89.6563 116.362 88.9843 116.806 87.7963 117.202C88.1203 117.514 88.2643 117.694 88.5043 118.09C89.8003 117.514 90.5323 116.974 91.0243 116.206C91.5403 115.402 91.7443 114.634 91.8283 113.218H92.8243V117.082C92.8243 117.706 93.1843 117.886 94.4803 117.886C95.9683 117.886 96.1603 117.622 96.3523 115.438C95.9083 115.342 95.7403 115.282 95.3563 115.078C95.3203 116.014 95.2723 116.47 95.1763 116.674C95.0923 116.842 94.9483 116.902 94.5523 116.902C93.9643 116.902 93.8563 116.854 93.8563 116.638V113.218H94.9843C95.4523 113.218 95.8003 113.242 96.1363 113.29V112.234C95.8003 112.282 95.5243 112.294 94.9843 112.294H90.5323C90.0763 112.294 89.7283 112.27 89.4043 112.234V113.278C89.7403 113.23 90.0043 113.218 90.5203 113.218H90.8203ZM89.2483 109.954C89.2483 110.29 89.2363 110.494 89.2123 110.71L89.2003 110.818H90.2083V111.31C90.4723 111.274 90.7723 111.262 91.1443 111.262H94.1203C94.4803 111.262 94.7323 111.274 95.0443 111.31V110.842H96.1003C96.0643 110.566 96.0523 110.374 96.0523 110.002V109.102C96.0523 108.67 96.0643 108.538 96.0883 108.274C95.7763 108.322 95.4403 108.334 94.9843 108.334H93.0523V107.926C93.0523 107.518 93.0643 107.302 93.1123 107.062H91.8883C91.9243 107.302 91.9483 107.566 91.9483 107.902V108.334H90.4003C89.8963 108.334 89.6203 108.322 89.3083 108.298C89.3683 108.154 89.4163 108.046 89.4523 107.962L88.9723 107.41C88.8043 107.446 88.6243 107.458 88.2283 107.458H86.4763C86.1043 107.458 85.8403 107.446 85.6483 107.422C85.6723 107.794 85.6843 108.082 85.6843 108.442V116.782C85.6843 117.286 85.6603 117.694 85.6123 118.054H86.7643C86.7163 117.682 86.7043 117.346 86.7043 116.806V108.418H88.1683C87.8443 109.438 87.4843 110.326 87.0403 111.214C87.4483 111.706 87.6643 112.006 87.8203 112.318C88.0963 112.834 88.2523 113.386 88.2523 113.842C88.2523 114.058 88.2043 114.262 88.1323 114.322C88.0603 114.37 87.9043 114.406 87.6763 114.406C87.4723 114.406 87.2563 114.382 87.0283 114.334C87.1603 114.682 87.2203 114.934 87.2443 115.414C87.3043 115.414 87.3403 115.414 87.3763 115.414C87.7243 115.414 88.1083 115.378 88.3603 115.342C88.9723 115.222 89.2603 114.802 89.2603 114.046C89.2603 113.566 89.1643 113.014 88.9843 112.558C88.8163 112.102 88.6243 111.778 88.1443 111.094C88.6123 110.086 88.8163 109.606 89.2243 108.514C89.2363 108.658 89.2483 108.898 89.2483 109.102V109.954ZM95.0083 110.29C94.7323 110.326 94.5643 110.338 94.1203 110.338H91.1563C90.7003 110.338 90.5203 110.326 90.2563 110.29V109.294H95.0083V110.29ZM102.736 111.31C102.052 111.31 101.488 111.874 101.488 112.558C101.488 113.242 102.052 113.806 102.736 113.806C103.42 113.806 103.984 113.242 103.984 112.558C103.984 111.862 103.432 111.31 102.736 111.31ZM114.292 110.53H111.46C110.824 110.53 110.428 110.506 110.056 110.458V111.61C110.464 111.562 110.944 111.538 111.46 111.538H114.292V113.158H110.788C110.164 113.158 109.78 113.134 109.408 113.086V114.238C109.804 114.19 110.188 114.166 110.788 114.166H114.292V116.41C114.292 116.698 114.184 116.782 113.848 116.782C113.308 116.782 112.492 116.71 111.796 116.59C111.988 117.034 112.048 117.262 112.096 117.706C112.684 117.766 113.428 117.802 113.944 117.802C115.06 117.802 115.408 117.538 115.408 116.686V114.166H118.612C119.224 114.166 119.596 114.19 120.004 114.238V113.086C119.632 113.134 119.248 113.158 118.612 113.158H115.408V111.538H118.072C118.648 111.538 119.092 111.562 119.464 111.61V110.458C119.092 110.506 118.696 110.53 118.06 110.53H115.408V108.79C116.5 108.658 117.412 108.478 119.044 108.058L118.204 107.062C117.616 107.326 116.992 107.494 115.84 107.698C114.376 107.95 112.156 108.13 110.512 108.13C110.404 108.13 110.26 108.13 110.068 108.13C110.308 108.598 110.368 108.742 110.464 109.174C111.556 109.138 112.78 109.078 113.392 109.006C114.052 108.946 114.052 108.946 114.292 108.922V110.53ZM130.168 111.37V116.602C130.168 116.806 130.084 116.866 129.784 116.866C129.28 116.866 128.872 116.83 128.344 116.758C128.476 117.046 128.536 117.358 128.572 117.814C128.956 117.838 129.328 117.85 129.664 117.85C130.864 117.85 131.188 117.622 131.188 116.734V111.37H131.32C131.788 111.37 132.016 111.382 132.304 111.43V110.302C132.028 110.35 131.8 110.362 131.32 110.362H129.58C129.232 110.362 129.016 110.35 128.848 110.326V109.426C128.536 109.474 128.296 109.486 127.78 109.486H127.168V108.394C127.168 107.83 127.18 107.566 127.24 107.158H126.088C126.136 107.554 126.16 107.83 126.16 108.394V109.486H125.404C124.876 109.486 124.636 109.474 124.336 109.426V110.242L123.46 109.618C123.364 109.894 123.112 110.386 122.896 110.698C122.224 111.658 121.756 112.162 121.048 112.678C121.276 113.05 121.36 113.242 121.492 113.734C121.84 113.458 122.14 113.158 122.392 112.822C122.368 113.542 122.368 113.71 122.368 114.166V116.602C122.368 117.262 122.344 117.622 122.296 118.006H123.448C123.4 117.646 123.388 117.31 123.388 116.626V111.778C123.592 111.502 123.94 110.974 124.12 110.662C124.168 110.578 124.204 110.518 124.228 110.47C124.312 110.362 124.312 110.362 124.336 110.314V110.53C124.588 110.482 124.792 110.47 125.176 110.47H126.16V116.578C126.16 117.202 126.136 117.55 126.088 117.982H127.24C127.18 117.538 127.168 117.214 127.168 116.578V110.47H127.996C128.332 110.47 128.536 110.482 128.764 110.506V111.418C129.016 111.382 129.196 111.37 129.58 111.37H130.168ZM123.34 107.026C122.956 107.806 122.14 108.67 121.144 109.318C121.444 109.69 121.516 109.822 121.684 110.242C122.464 109.678 123.22 108.958 123.832 108.154C124.18 107.71 124.18 107.71 124.3 107.578L123.34 107.026ZM124.612 111.334C124.588 112.378 124.48 113.458 124.348 114.226C124.204 114.958 124.036 115.534 123.736 116.206C124.132 116.374 124.3 116.482 124.636 116.734C125.14 115.414 125.392 113.974 125.536 111.466L124.612 111.334ZM127.576 111.538C127.96 112.81 128.2 114.082 128.404 115.942L129.364 115.606C129.124 113.986 128.86 112.75 128.44 111.31L127.576 111.538ZM127.312 107.722C127.792 108.322 127.948 108.562 128.272 109.234L129.088 108.718C128.74 108.118 128.524 107.806 128.068 107.278L127.312 107.722ZM132.1 107.77C131.848 107.818 131.584 107.83 131.176 107.83H130.036C129.652 107.83 129.352 107.806 129.112 107.77V108.886C129.376 108.85 129.676 108.826 130.024 108.826H131.176C131.56 108.826 131.836 108.838 132.1 108.886V107.77ZM139.552 109.318C140.104 109.354 140.428 109.438 140.836 109.654C141.892 110.218 142.48 111.214 142.48 112.462C142.48 113.914 141.676 115.174 140.392 115.726C139.876 115.942 139.336 116.074 138.4 116.218C138.724 116.638 138.832 116.842 139.012 117.394C139.828 117.238 140.296 117.106 140.86 116.878C142.66 116.134 143.716 114.526 143.716 112.522C143.716 109.93 141.88 108.214 139.084 108.214C137.416 108.214 136.036 108.778 135.052 109.858C134.212 110.782 133.756 111.994 133.756 113.278C133.756 115.102 134.692 116.434 135.964 116.434C136.9 116.434 137.632 115.738 138.328 114.154C138.904 112.858 139.336 111.106 139.552 109.318ZM138.328 109.33C138.172 110.758 137.764 112.438 137.296 113.542C136.828 114.634 136.384 115.162 135.952 115.162C135.376 115.162 134.92 114.334 134.92 113.29C134.92 111.922 135.592 110.638 136.684 109.906C137.2 109.558 137.668 109.402 138.328 109.33ZM152.26 107.734C151.84 107.782 151.552 107.794 150.724 107.794H146.992C146.332 107.794 145.972 107.77 145.456 107.71V109.078C145.936 109.018 146.272 108.994 146.932 108.994H150.724C149.716 110.374 149.2 111.214 148.6 112.45C147.892 113.914 147.568 114.958 147.148 117.178H148.744C148.9 116.014 149.02 115.462 149.26 114.598C149.692 113.086 150.208 111.946 151.156 110.41C151.672 109.57 151.948 109.198 152.26 108.91V107.734ZM157.149 117.358C158.337 117.358 159.273 116.902 159.921 116.002C160.461 115.246 160.785 113.95 160.785 112.486C160.785 111.502 160.629 110.542 160.317 109.702C160.173 109.282 159.909 108.886 159.561 108.538C158.949 107.926 158.133 107.614 157.161 107.614C155.889 107.614 154.869 108.178 154.245 109.21C153.825 109.918 153.537 111.238 153.537 112.498C153.537 113.482 153.693 114.418 154.005 115.27C154.161 115.69 154.413 116.086 154.761 116.434C155.373 117.046 156.177 117.358 157.149 117.358ZM157.149 108.766C157.977 108.766 158.553 109.126 158.925 109.846C159.213 110.398 159.417 111.502 159.417 112.474C159.417 113.278 159.309 113.998 159.093 114.694C158.985 115.066 158.793 115.402 158.541 115.666C158.217 116.002 157.725 116.194 157.161 116.194C156.405 116.194 155.829 115.87 155.445 115.222C155.133 114.694 154.905 113.578 154.905 112.522C154.905 111.718 155.013 110.95 155.229 110.278C155.325 109.966 155.493 109.654 155.745 109.378C156.105 108.958 156.549 108.766 157.149 108.766ZM164.019 112.882C164.631 112.882 165.171 112.678 165.555 112.306C166.011 111.862 166.239 111.154 166.239 110.242C166.239 108.586 165.423 107.626 164.019 107.626C162.615 107.626 161.787 108.598 161.787 110.254C161.787 111.154 162.027 111.874 162.471 112.294C162.855 112.678 163.395 112.882 164.019 112.882ZM164.007 108.526C164.751 108.526 165.171 109.15 165.171 110.218C165.171 111.358 164.763 111.982 164.019 111.982C163.263 111.982 162.855 111.358 162.855 110.23C162.855 109.138 163.275 108.526 164.007 108.526ZM169.551 117.358C170.163 117.358 170.703 117.154 171.087 116.782C171.543 116.326 171.771 115.63 171.771 114.706C171.771 113.05 170.955 112.09 169.551 112.09C168.147 112.09 167.319 113.062 167.319 114.718C167.319 116.386 168.135 117.358 169.551 117.358ZM169.539 112.99C169.887 112.99 170.127 113.098 170.331 113.362C170.571 113.662 170.703 114.13 170.703 114.706C170.703 115.834 170.295 116.458 169.551 116.458C168.795 116.458 168.387 115.834 168.387 114.682C168.387 113.602 168.807 112.99 169.539 112.99ZM162.783 116.998L163.347 117.454L170.787 107.974L170.211 107.53L162.783 116.998ZM176.056 108.79C174.964 108.79 174.316 108.754 173.716 108.646L173.692 109.786C173.776 109.774 173.836 109.774 173.872 109.774C173.896 109.774 173.908 109.774 173.944 109.774C174.112 109.774 174.34 109.786 174.64 109.798L175.804 109.81C175.804 109.81 175.96 109.81 176.008 109.81C175.66 110.386 175.408 110.794 175.264 111.022C174.616 111.958 173.896 112.786 173.332 113.206L174.256 114.13C174.484 113.782 174.76 113.482 175.24 113.074C176.188 112.258 177.076 111.826 177.796 111.826C178.288 111.826 178.552 112.078 178.612 112.594C176.536 113.482 175.54 114.442 175.54 115.558C175.54 116.194 175.852 116.734 176.38 117.034C176.968 117.37 177.76 117.514 178.972 117.514C179.944 117.514 181.072 117.43 181.96 117.298C182.224 117.25 182.284 117.25 182.488 117.238L182.368 115.942C181.612 116.242 180.304 116.434 179.044 116.434C177.364 116.434 176.74 116.17 176.74 115.45C176.74 114.814 177.28 114.334 178.756 113.662C178.756 113.782 178.756 113.878 178.756 113.95C178.756 114.598 178.72 115.27 178.684 115.51L179.848 115.486C179.824 115.306 179.812 115.126 179.812 114.898C179.812 114.814 179.812 114.682 179.824 114.478C179.824 114.298 179.824 114.07 179.824 113.914C179.824 113.698 179.824 113.698 179.812 113.266C181.492 112.642 182.296 112.39 182.968 112.27L182.476 111.118C182.284 111.238 182.236 111.262 181.624 111.466C181.3 111.574 180.652 111.814 179.68 112.174C179.596 111.742 179.452 111.49 179.188 111.262C178.912 111.022 178.48 110.878 178.024 110.878C177.376 110.878 176.728 111.094 176.2 111.502C176.032 111.622 176.032 111.622 175.948 111.694L175.936 111.67C176.44 111.154 176.812 110.614 177.232 109.798C178.408 109.774 179.956 109.666 180.796 109.558C181.468 109.474 181.468 109.474 181.732 109.45L181.66 108.31C181.024 108.502 179.752 108.67 178.468 108.718C178.144 108.742 177.928 108.754 177.868 108.754C177.844 108.754 177.82 108.754 177.808 108.754C177.748 108.766 177.748 108.766 177.712 108.766C177.736 108.718 177.772 108.634 177.808 108.562C178.048 107.998 178.048 107.998 178.18 107.686C178.228 107.566 178.252 107.518 178.324 107.41L177.004 107.242C176.968 107.626 176.824 108.046 176.488 108.79H176.056ZM52.2485 130.51H50.1485C49.6325 130.51 49.2365 130.486 48.8765 130.438V131.578C49.2245 131.53 49.6685 131.506 50.1485 131.506H51.7925C51.3005 132.178 51.0845 132.43 50.5805 132.886C49.8725 133.522 49.2245 133.966 48.4085 134.386C48.8045 134.806 48.8405 134.866 49.1165 135.37C49.7045 135.022 50.0885 134.746 50.6405 134.254C51.4205 133.582 51.7925 133.138 52.2845 132.286C52.2485 132.97 52.2365 133.402 52.2365 133.582V134.914C52.2365 135.31 52.2125 135.694 52.1645 136.054H53.3765C53.3285 135.706 53.3045 135.334 53.3045 134.926V133.594C53.3045 133.258 53.2925 132.718 53.2685 132.298C53.7725 133.102 54.1205 133.51 54.7925 134.098C55.2605 134.518 55.6325 134.782 56.4485 135.31C56.7005 134.854 56.8565 134.614 57.1565 134.242C56.3525 133.882 55.8125 133.534 55.1285 132.97C54.5525 132.478 54.2525 132.178 53.7365 131.506H55.5725C55.9445 131.506 56.3765 131.53 56.8085 131.578V130.438C56.4365 130.486 55.9925 130.51 55.5485 130.51H53.3045V129.394H54.8645C55.0445 129.394 55.2365 129.394 55.4525 129.406C55.5965 129.406 55.6925 129.418 55.7285 129.418C55.9205 129.418 55.9325 129.418 56.0765 129.43C56.0405 129.118 56.0285 128.83 56.0285 128.338V126.694C56.0285 126.178 56.0405 125.926 56.0765 125.566C55.7405 125.614 55.3805 125.626 54.7565 125.626H51.0485C50.3885 125.626 50.0645 125.614 49.7285 125.566C49.7645 125.914 49.7765 126.19 49.7765 126.646V128.314C49.7765 128.794 49.7645 129.106 49.7285 129.442C50.0645 129.406 50.4125 129.394 50.9645 129.394H52.2485V130.51ZM50.8205 126.598H54.9605V128.422H50.8205V126.598ZM47.1965 134.638C47.1965 135.214 47.1725 135.574 47.1245 136.054H48.3005C48.2645 135.598 48.2405 135.166 48.2405 134.65V128.158C48.6725 127.306 48.9605 126.61 49.1525 125.986C49.2725 125.614 49.3085 125.506 49.3805 125.326L48.2405 124.966C48.1925 125.362 48.0125 126.01 47.7845 126.61C47.2565 127.954 46.5845 129.01 45.6245 129.958C45.9005 130.402 45.9125 130.426 46.1765 131.086C46.6805 130.534 46.9085 130.234 47.2325 129.682C47.2085 130.33 47.1965 130.606 47.1965 131.05V134.638ZM64.5845 128.71V129.562H63.0005C62.4005 129.562 62.2925 129.562 61.9565 129.526C61.9925 129.922 61.9925 129.982 61.9925 130.354V132.034C61.9925 132.25 61.9925 132.418 61.9685 132.658C61.9685 132.682 61.9685 132.754 61.9565 132.814C62.3045 132.778 62.5925 132.766 63.0485 132.766H64.1645C63.6485 133.978 62.5685 134.734 60.8405 135.118C61.1525 135.418 61.3205 135.658 61.5125 136.078C63.3485 135.466 64.4045 134.638 64.9805 133.354C65.6525 134.518 66.8405 135.442 68.4605 136.018C68.6525 135.598 68.7965 135.358 69.0845 135.022C68.1485 134.746 67.5725 134.494 66.9965 134.11C66.4325 133.726 66.0005 133.294 65.6525 132.766H67.1525C67.6445 132.766 67.9685 132.778 68.2925 132.814C68.2565 132.37 68.2565 132.31 68.2565 131.878V130.45C68.2565 130.15 68.2685 129.994 68.2925 129.526C67.9925 129.55 67.7165 129.562 67.2245 129.562H65.5685V128.71H66.3725C66.8525 128.71 67.0925 128.722 67.3805 128.746V128.146C67.7525 128.386 68.0525 128.542 68.6285 128.818C68.8085 128.386 68.9765 128.134 69.2765 127.798C67.5725 127.222 66.3845 126.346 65.5565 125.074H64.4525C64.0445 125.782 63.5405 126.358 62.8205 126.922C62.3885 127.258 61.7885 127.63 61.3085 127.846C61.3685 127.726 61.5605 127.234 61.8965 126.382C61.9445 126.262 62.0165 126.106 62.0765 125.986L61.5365 125.386C61.3565 125.422 61.1525 125.434 60.7685 125.434H59.1725C58.8005 125.434 58.5245 125.422 58.2965 125.398C58.3205 125.77 58.3325 126.046 58.3325 126.418V134.746C58.3325 135.31 58.3085 135.67 58.2605 136.018H59.4485C59.4005 135.658 59.3885 135.382 59.3885 134.758V126.394H60.8285C60.4805 127.522 60.1565 128.35 59.6885 129.31C60.1205 129.766 60.2885 130.006 60.4445 130.474C60.5885 130.87 60.6725 131.362 60.6725 131.794C60.6725 132.358 60.5645 132.478 60.0605 132.478C59.9405 132.478 59.7605 132.454 59.5085 132.418C59.6765 132.742 59.7605 133.018 59.7845 133.462C59.8805 133.474 59.9525 133.474 60.0005 133.474C60.4685 133.474 60.8405 133.414 61.0925 133.294C61.4765 133.114 61.6805 132.682 61.6805 132.046C61.6805 131.566 61.6445 131.182 61.5485 130.798C61.3925 130.162 61.2005 129.802 60.6965 129.19C60.9365 128.722 61.0085 128.59 61.1885 128.146C61.4285 128.398 61.5245 128.53 61.6805 128.878C62.2325 128.602 62.4725 128.458 62.9165 128.134V128.746C63.2045 128.722 63.4565 128.71 63.9365 128.71H64.5845ZM64.5725 130.462C64.5485 131.014 64.5125 131.338 64.4285 131.842H62.9285V130.462H64.5725ZM67.2845 130.462V131.842H65.4125C65.4845 131.362 65.5085 131.122 65.5445 130.462H67.2845ZM63.9365 127.786C63.6725 127.786 63.5405 127.786 63.3725 127.774C64.1045 127.162 64.5725 126.658 65.0525 125.938C65.5685 126.67 66.0845 127.198 66.8645 127.774C66.6365 127.786 66.5285 127.786 66.3725 127.786H63.9365ZM74.7605 129.406V130.75H71.8085C71.2445 130.75 70.8965 130.726 70.5605 130.678V131.806C70.9205 131.758 71.3045 131.734 71.7965 131.734H74.7605V134.626H71.6285C71.0525 134.626 70.6085 134.602 70.2005 134.554V135.73C70.6805 135.67 71.1245 135.646 71.6405 135.646H79.2125C79.7045 135.646 80.1965 135.67 80.6045 135.73V134.554C80.2085 134.602 79.8005 134.626 79.2245 134.626H75.8765V131.734H79.0205C79.5605 131.734 79.9445 131.758 80.2805 131.806V130.678C79.9685 130.726 79.6205 130.75 79.0205 130.75H75.8765V129.406H77.0165C77.5205 129.406 77.8205 129.418 78.1565 129.466V128.686C79.0085 129.226 79.5245 129.502 80.5325 129.922C80.6765 129.526 80.8565 129.19 81.1085 128.83C79.8365 128.41 78.9365 127.942 77.9525 127.21C77.0405 126.538 76.4645 125.962 75.9845 125.23H74.7245C73.8125 126.73 72.0125 128.05 69.7565 128.866C70.0685 129.25 70.2125 129.49 70.3805 129.886C71.1965 129.55 71.8085 129.226 72.5405 128.746V129.466C72.8885 129.418 73.2125 129.406 73.6925 129.406H74.7605ZM73.6685 128.47C73.3805 128.47 73.2365 128.47 72.9725 128.458C74.1005 127.654 74.6885 127.09 75.3605 126.178C76.0325 127.066 76.7045 127.69 77.7965 128.446C77.5685 128.47 77.3645 128.47 77.0285 128.47H73.6685ZM71.6405 132.37C72.0485 132.982 72.3605 133.642 72.6245 134.422L73.6205 134.026C73.2965 133.186 73.0445 132.682 72.6245 131.962L71.6405 132.37ZM78.0365 131.974C77.7365 132.838 77.3885 133.546 76.9925 134.122L77.9285 134.482C78.3965 133.75 78.3965 133.75 78.8885 132.778C78.9365 132.694 79.0085 132.562 79.0925 132.382L78.0365 131.974ZM85.0565 125.566C85.1285 125.746 85.1285 125.758 85.2485 126.346C85.5845 127.942 85.7645 128.662 86.0885 129.634C85.3205 130.03 84.9485 130.258 84.4805 130.654C83.7965 131.218 83.4125 131.974 83.4125 132.73C83.4125 133.57 83.7845 134.266 84.4325 134.65C85.1765 135.082 86.1725 135.262 87.7805 135.262C88.6325 135.262 89.2565 135.226 90.5285 135.094C91.1765 135.022 91.2125 135.022 91.4645 135.01L91.3565 133.63C90.5285 133.906 89.1125 134.086 87.7205 134.086C86.9525 134.086 86.2085 134.026 85.8245 133.93C85.0685 133.738 84.6965 133.354 84.6965 132.766C84.6965 131.842 85.6085 131.038 87.4445 130.33C88.7405 129.838 90.3005 129.358 91.2725 129.166L90.8165 127.906C90.6485 127.99 90.5765 128.014 90.3725 128.086L88.7645 128.626C88.1525 128.842 87.7805 128.974 87.2045 129.202C86.8205 127.99 86.4125 126.166 86.3645 125.35L85.0565 125.566ZM95.9765 125.614C96.0125 125.89 96.0245 126.046 96.0245 126.334C96.0245 126.55 96.0245 126.778 96.0125 127.15C95.9285 130.666 95.9165 131.314 95.9165 132.01C95.9165 133.558 96.2405 134.41 97.0205 134.962C97.5005 135.298 98.2445 135.49 99.0725 135.49C100.512 135.49 101.676 134.986 102.564 133.978C103.116 133.342 103.464 132.598 103.944 131.05C103.452 130.822 103.26 130.702 102.732 130.258C102.588 131.11 102.444 131.626 102.168 132.226C101.556 133.558 100.488 134.302 99.1685 134.302C98.3645 134.302 97.7645 134.062 97.4765 133.63C97.2245 133.246 97.1525 132.802 97.1525 131.686C97.1525 130.87 97.2245 128.218 97.2725 127.186C97.3085 126.31 97.3445 125.974 97.4045 125.638L95.9765 125.614ZM105.798 128.254C106.422 128.122 107.442 128.026 109.53 127.882C110.802 127.798 111.282 127.75 112.122 127.618C111.438 127.942 111.162 128.134 110.682 128.578C109.638 129.55 109.11 130.618 109.11 131.758C109.11 132.91 109.662 133.87 110.67 134.482C111.378 134.914 112.074 135.13 113.382 135.322C113.574 135.358 113.622 135.37 113.778 135.394L113.958 134.038C113.862 134.05 113.79 134.05 113.742 134.05C113.322 134.05 112.53 133.894 111.978 133.714C110.946 133.366 110.346 132.61 110.346 131.65C110.346 130.354 111.354 129.058 112.986 128.242C113.718 127.882 114.558 127.666 115.23 127.666C115.278 127.666 115.35 127.666 115.434 127.666L115.35 126.406C115.146 126.454 114.786 126.49 113.958 126.526C111.138 126.646 108.282 126.814 106.878 126.91C106.53 126.946 106.398 126.946 106.146 126.946C105.954 126.946 105.954 126.946 105.726 126.934L105.798 128.254ZM123.858 127.006C123.234 127.222 122.226 127.426 121.494 127.486V126.562C121.494 125.95 121.506 125.698 121.566 125.338H120.294C120.354 125.698 120.366 126.034 120.366 126.622V127.57C120.234 127.582 120.21 127.582 119.898 127.594C119.706 127.606 119.574 127.606 119.394 127.606C118.782 127.606 118.338 127.57 118.014 127.51V128.626C118.122 128.614 118.206 128.614 118.254 128.614C118.29 128.614 118.386 128.614 118.542 128.626C118.674 128.626 119.022 128.638 119.214 128.638C119.526 128.638 119.706 128.638 119.898 128.626C120.282 128.602 120.282 128.602 120.378 128.59V130.618C119.598 130.954 119.082 131.254 118.662 131.614C118.014 132.178 117.666 132.766 117.666 133.318C117.666 133.798 117.882 134.23 118.278 134.578C118.854 135.082 119.706 135.406 120.438 135.406C120.942 135.406 121.326 135.154 121.434 134.758C121.482 134.542 121.506 134.314 121.506 133.834L121.494 131.374C122.406 131.074 123.15 130.942 123.87 130.942C125.286 130.942 126.198 131.638 126.198 132.73C126.198 133.594 125.622 134.218 124.83 134.218C124.362 134.218 124.05 134.014 123.894 133.618C123.822 133.414 123.774 133.018 123.774 132.586C123.774 132.43 123.774 132.346 123.798 132.118C123.366 132.358 123.198 132.418 122.682 132.562C122.682 133.234 122.73 133.618 122.862 134.026C123.138 134.89 123.822 135.37 124.782 135.37C126.27 135.37 127.398 134.23 127.398 132.73C127.398 131.818 126.954 131.002 126.162 130.486C125.586 130.114 124.842 129.922 123.93 129.922C123.138 129.922 122.346 130.042 121.494 130.294V128.53C122.058 128.47 122.454 128.41 123.162 128.266C123.546 128.194 123.606 128.182 123.906 128.146L123.858 127.006ZM120.378 133.702C120.378 134.146 120.33 134.254 120.114 134.254C119.85 134.254 119.502 134.134 119.226 133.954C118.926 133.762 118.782 133.558 118.782 133.33C118.782 132.85 119.346 132.274 120.378 131.746V133.702ZM127.914 128.638C127.254 127.702 126.594 127.054 125.526 126.25L124.602 126.886C125.526 127.558 126.402 128.47 127.014 129.382L127.914 128.638ZM134.058 126.694H130.866C130.302 126.694 129.87 126.67 129.498 126.61V127.786C129.87 127.738 130.29 127.714 130.866 127.714H134.058V129.406H131.73C131.142 129.406 130.686 129.382 130.35 129.334V130.438C130.722 130.39 131.022 130.378 131.586 130.366C132.27 131.674 132.822 132.382 133.89 133.282C132.534 134.086 131.118 134.578 129.33 134.854C129.606 135.262 129.738 135.514 129.894 135.934C131.814 135.538 133.254 134.95 134.79 133.954C136.23 134.938 137.526 135.478 139.614 135.97C139.794 135.466 139.926 135.202 140.19 134.818C138.378 134.518 137.01 134.038 135.726 133.258C136.674 132.478 137.418 131.662 138.042 130.714C138.258 130.39 138.402 130.186 138.534 130.03L137.85 129.346C137.61 129.394 137.322 129.406 136.818 129.406H135.198V127.714H138.57C139.146 127.714 139.602 127.738 139.95 127.786V126.61C139.578 126.67 139.146 126.694 138.57 126.694H135.198V126.118C135.198 125.602 135.21 125.362 135.27 125.074H133.986C134.034 125.386 134.058 125.614 134.058 126.118V126.694ZM136.938 130.366C136.29 131.362 135.75 131.95 134.814 132.658C133.854 131.938 133.266 131.266 132.798 130.366H136.938ZM152.238 135.478C151.446 133.114 150.894 131.758 149.994 130.03L149.022 130.438C149.634 131.578 150.018 132.466 150.498 133.81C149.01 134.086 148.002 134.242 146.898 134.35C147.126 133.69 147.426 132.646 147.702 131.566C148.05 130.222 148.314 129.058 148.758 126.814C148.962 125.746 148.962 125.746 149.022 125.482L147.714 125.29C147.702 126.01 147.558 127.054 147.294 128.434C146.874 130.522 146.322 132.61 145.686 134.47C145.098 134.518 145.086 134.518 144.93 134.518C144.882 134.518 144.834 134.518 144.75 134.506L144.99 135.742C145.182 135.694 145.242 135.682 145.71 135.622C148.674 135.19 148.926 135.142 150.798 134.758C150.906 135.118 150.954 135.286 151.146 135.958L152.238 135.478ZM144.222 127.426V126.358C144.222 125.854 144.246 125.518 144.294 125.158H143.082C143.13 125.542 143.154 125.866 143.154 126.37V127.426H142.434C142.062 127.426 141.81 127.402 141.486 127.354V128.446C141.774 128.41 142.098 128.386 142.434 128.386H143.154V130.798C142.038 131.122 141.786 131.182 141.33 131.23L141.558 132.37C141.726 132.31 141.894 132.25 142.206 132.154C142.566 132.046 142.83 131.95 143.154 131.854V134.638C143.154 134.914 143.07 134.986 142.77 134.986C142.386 134.986 141.93 134.95 141.486 134.878C141.642 135.334 141.69 135.538 141.726 135.958C142.134 135.994 142.446 136.006 142.71 136.006C143.862 136.006 144.222 135.766 144.222 134.998V131.47C144.642 131.314 144.642 131.314 145.698 130.906L145.65 129.934C144.918 130.21 144.678 130.306 144.222 130.462V128.386H144.81C145.11 128.386 145.422 128.398 145.722 128.434V127.378C145.398 127.414 145.194 127.426 144.81 127.426H144.222ZM154.098 126.418C154.122 126.67 154.134 126.742 154.134 127.15C154.194 130.066 154.362 131.662 154.758 132.886C155.178 134.17 155.898 134.938 156.69 134.938C157.65 134.938 158.274 134.038 158.886 131.794C158.394 131.422 158.238 131.278 157.89 130.87C157.746 131.686 157.542 132.358 157.266 132.994C157.098 133.354 156.918 133.546 156.726 133.546C156.306 133.546 155.886 132.754 155.646 131.506C155.502 130.75 155.394 129.238 155.394 128.014C155.394 127.306 155.418 126.85 155.49 126.418H154.098ZM160.158 127.51C160.878 128.374 161.442 129.298 161.85 130.354C162.282 131.422 162.558 132.622 162.642 133.726L163.878 133.246C163.506 130.666 162.714 128.806 161.202 126.994L160.158 127.51ZM167.262 125.614C167.298 125.89 167.31 126.046 167.31 126.334C167.31 126.55 167.31 126.778 167.298 127.15C167.214 130.666 167.202 131.314 167.202 132.01C167.202 133.558 167.526 134.41 168.306 134.962C168.786 135.298 169.53 135.49 170.358 135.49C171.798 135.49 172.962 134.986 173.85 133.978C174.402 133.342 174.75 132.598 175.23 131.05C174.738 130.822 174.546 130.702 174.018 130.258C173.874 131.11 173.73 131.626 173.454 132.226C172.842 133.558 171.774 134.302 170.454 134.302C169.65 134.302 169.05 134.062 168.762 133.63C168.51 133.246 168.438 132.802 168.438 131.686C168.438 130.87 168.51 128.218 168.558 127.186C168.594 126.31 168.63 125.974 168.69 125.638L167.262 125.614ZM187.374 133.954C187.206 133.858 187.158 133.822 186.954 133.678C185.682 132.778 184.818 132.334 183.654 131.962C183.642 131.818 183.63 131.278 183.594 130.354C184.314 130.318 185.178 130.246 185.67 130.174C186.498 130.054 186.594 130.042 186.858 130.03L186.81 128.902C186.102 129.118 185.022 129.262 183.582 129.358C183.57 128.41 183.57 128.41 183.558 127.99C184.674 127.93 185.214 127.87 186.21 127.738C186.858 127.642 186.858 127.642 187.098 127.63L187.05 126.502C186.294 126.742 185.274 126.874 183.57 126.982C183.582 125.986 183.594 125.722 183.654 125.422H182.358C182.394 125.71 182.394 125.71 182.406 127.018C182.046 127.03 181.65 127.03 181.458 127.03C180.09 127.03 178.938 126.946 178.29 126.802L178.278 127.918C178.362 127.906 178.422 127.906 178.458 127.906C178.506 127.906 178.59 127.906 178.71 127.918C179.586 127.978 180.954 128.038 181.638 128.038C181.866 128.038 182.058 128.038 182.418 128.026L182.442 129.406C182.07 129.418 181.686 129.43 181.422 129.43C180.246 129.43 179.166 129.358 178.638 129.238L178.626 130.318C178.662 130.318 178.698 130.318 178.722 130.318C178.806 130.318 178.914 130.318 179.058 130.33C179.97 130.402 180.426 130.414 181.17 130.414C181.482 130.414 181.986 130.402 182.454 130.402C182.466 130.642 182.466 130.822 182.478 130.942C182.478 131.218 182.49 131.41 182.49 131.482C182.49 131.554 182.502 131.602 182.502 131.614C182.502 131.734 182.502 131.734 182.502 131.782C182.274 131.746 181.95 131.734 181.566 131.734C179.646 131.734 178.482 132.478 178.482 133.702C178.482 134.806 179.466 135.466 181.086 135.466C182.838 135.466 183.678 134.782 183.678 133.342C183.678 133.27 183.678 133.198 183.678 133.138C183.834 133.21 184.11 133.33 184.242 133.402C185.226 133.87 186.114 134.506 186.69 135.13L187.374 133.954ZM182.514 132.862C182.514 132.862 182.526 133.162 182.526 133.234C182.526 133.606 182.478 133.822 182.358 134.002C182.166 134.29 181.758 134.434 181.134 134.434C180.21 134.434 179.694 134.158 179.694 133.654C179.694 133.474 179.778 133.282 179.91 133.162C180.198 132.91 180.774 132.754 181.422 132.754C181.89 132.754 182.094 132.778 182.514 132.862ZM189.666 128.218C190.422 128.098 193.314 127.942 195.222 127.918L195.234 128.566C195.234 128.758 195.234 129.07 195.234 129.082C195.246 129.19 195.246 129.19 195.246 129.238C194.958 128.974 194.526 128.83 193.974 128.83C192.63 128.83 191.67 129.706 191.67 130.93C191.67 132.094 192.57 132.946 193.782 132.946C194.61 132.946 195.246 132.586 195.57 131.938C195.498 132.754 195.066 133.402 194.226 133.966C193.674 134.326 193.194 134.518 192.198 134.746C192.546 135.13 192.654 135.286 192.93 135.862C193.974 135.49 194.514 135.226 194.994 134.89C196.086 134.11 196.698 132.982 196.698 131.698C196.698 131.098 196.602 130.63 196.362 130.114V127.906C197.322 127.882 197.526 127.882 197.85 127.882C198.87 127.882 199.434 127.894 199.866 127.942V126.778C199.446 126.826 198.534 126.85 196.35 126.862C196.35 125.926 196.362 125.71 196.41 125.35H195.138C195.186 125.65 195.198 125.866 195.21 126.886C193.098 126.946 193.098 126.946 192.318 126.97C190.986 127.03 190.506 127.042 190.17 127.042C189.978 127.042 189.882 127.042 189.63 127.018L189.666 128.218ZM194.07 129.766C194.43 129.766 194.742 129.874 194.958 130.09C195.126 130.234 195.198 130.414 195.198 130.678C195.198 131.386 194.67 131.89 193.938 131.89C193.29 131.89 192.846 131.458 192.846 130.834C192.846 130.222 193.374 129.766 194.07 129.766ZM202.1 132.118C201.032 132.118 200.168 132.982 200.168 134.05C200.168 135.118 201.032 135.994 202.112 135.994C203.18 135.994 204.044 135.13 204.044 134.05C204.044 132.982 203.18 132.118 202.1 132.118ZM202.1 132.994C202.688 132.994 203.168 133.474 203.168 134.05C203.168 134.638 202.688 135.118 202.112 135.118C201.524 135.118 201.044 134.638 201.044 134.05C201.044 133.474 201.524 132.994 202.1 132.994Z" fill="black"/>
<rect x="1" y="27" width="181" height="60" fill="#00655A" stroke="#00655A" stroke-width="2"/>
<path d="M55.78 45.296H53.8C53.26 45.296 52.876 45.272 52.492 45.236V46.568C52.876 46.52 53.332 46.496 53.8 46.496H55.228C54.76 47.108 54.544 47.348 54.076 47.768C53.416 48.368 52.792 48.8 52.012 49.208C52.456 49.7 52.528 49.808 52.828 50.396C53.368 50.072 53.728 49.808 54.268 49.328C54.976 48.692 55.324 48.272 55.804 47.468C55.792 48.212 55.78 48.644 55.78 48.74V49.868C55.78 50.264 55.756 50.6 55.708 50.984H57.124C57.076 50.612 57.052 50.264 57.052 49.88V48.764C57.052 48.44 57.04 47.876 57.016 47.48C57.508 48.248 57.844 48.644 58.456 49.184C58.876 49.556 59.128 49.748 59.98 50.324C60.256 49.772 60.436 49.496 60.784 49.04C60.028 48.68 59.512 48.356 58.864 47.816C58.348 47.384 58.084 47.12 57.58 46.496H59.188C59.56 46.496 60.016 46.52 60.46 46.568V45.224C60.064 45.272 59.596 45.296 59.152 45.296H57.052V44.312H58.576C58.732 44.312 58.924 44.312 59.152 44.324C59.272 44.336 59.368 44.336 59.416 44.336C59.632 44.336 59.632 44.336 59.764 44.348C59.728 44.012 59.716 43.724 59.716 43.22V41.516C59.716 40.964 59.728 40.724 59.764 40.352C59.416 40.4 59.02 40.412 58.444 40.412H54.616C53.968 40.412 53.632 40.4 53.284 40.352C53.32 40.7 53.332 40.988 53.332 41.444V43.196C53.332 43.7 53.32 44 53.284 44.36C53.608 44.324 53.98 44.312 54.508 44.312H55.78V45.296ZM54.592 41.588H58.432V43.136H54.592V41.588ZM50.68 49.568C50.68 50.132 50.656 50.492 50.608 50.972H51.988C51.94 50.492 51.928 50.096 51.928 49.58V42.992C52.372 42.116 52.6 41.576 52.852 40.76C52.96 40.388 52.96 40.388 53.032 40.22L51.688 39.788C51.628 40.208 51.46 40.82 51.232 41.42C50.74 42.716 50.092 43.724 49.204 44.6C49.492 45.152 49.552 45.32 49.78 46.052C50.212 45.596 50.404 45.332 50.704 44.84C50.68 45.488 50.68 45.764 50.68 46.16V49.568ZM68.14 43.664V44.396H66.628C66.04 44.396 65.908 44.396 65.596 44.36C65.632 44.78 65.632 44.864 65.632 45.224V46.988C65.632 47.144 65.632 47.36 65.62 47.468C65.608 47.684 65.608 47.684 65.596 47.792C65.944 47.756 66.232 47.744 66.688 47.744H67.708C67.444 48.308 67.132 48.656 66.604 49.028C65.992 49.436 65.332 49.7 64.456 49.868C64.804 50.204 64.996 50.48 65.272 51.02C67.012 50.468 68.044 49.7 68.668 48.488C69.016 49.052 69.472 49.532 70.072 49.964C70.612 50.36 71.104 50.612 72.004 50.96C72.232 50.432 72.4 50.18 72.748 49.748C71.14 49.328 70.156 48.728 69.424 47.744H70.84C71.332 47.744 71.62 47.756 71.968 47.792C71.944 47.408 71.932 47.084 71.932 46.844V45.32C71.932 45.032 71.944 44.888 71.968 44.36C71.656 44.384 71.404 44.396 70.924 44.396H69.328V43.664H70.084C70.552 43.664 70.816 43.676 71.056 43.7V43.136C71.416 43.352 71.572 43.436 72.148 43.7C72.352 43.172 72.544 42.872 72.892 42.488C71.212 41.924 70.06 41.096 69.316 39.908H68.02C67.672 40.508 67.336 40.904 66.724 41.444C66.292 41.828 65.896 42.08 65.236 42.428C65.32 42.236 65.32 42.236 65.452 41.864C65.548 41.624 65.62 41.42 65.68 41.264C65.692 41.228 65.74 41.12 65.836 40.916L65.212 40.208C65.02 40.244 64.804 40.256 64.396 40.256H62.74C62.344 40.256 62.068 40.244 61.828 40.208C61.852 40.592 61.864 40.94 61.864 41.336V49.568C61.864 50.216 61.84 50.576 61.792 50.948H63.184C63.136 50.6 63.124 50.3 63.124 49.592V41.42H64.36C64.036 42.512 63.748 43.316 63.304 44.288C63.748 44.768 63.916 45.068 64.072 45.668C64.144 45.98 64.192 46.376 64.192 46.724C64.192 47.144 64.084 47.252 63.64 47.252C63.544 47.252 63.46 47.24 63.16 47.204C63.376 47.576 63.472 47.912 63.496 48.44C64.048 48.44 64.336 48.416 64.564 48.332C65.164 48.14 65.404 47.708 65.404 46.82C65.404 46.292 65.32 45.728 65.164 45.284C65.032 44.876 64.888 44.636 64.516 44.144C64.732 43.7 64.744 43.664 64.996 43.052C65.212 43.316 65.284 43.436 65.428 43.784C65.92 43.532 66.172 43.388 66.544 43.124V43.7C66.832 43.676 67.036 43.664 67.516 43.664H68.14ZM68.128 45.476C68.116 45.92 68.08 46.208 68.02 46.64H66.736V45.476H68.128ZM70.78 45.476V46.64H69.22C69.268 46.304 69.292 45.908 69.304 45.476H70.78ZM70.084 42.56H67.516C67.36 42.56 67.36 42.56 67.276 42.56C67.924 41.996 68.284 41.6 68.728 40.952C69.16 41.576 69.616 42.056 70.24 42.56H70.084ZM78.256 44.336V45.5H75.424C74.824 45.5 74.44 45.476 74.116 45.428V46.76C74.476 46.712 74.896 46.688 75.412 46.688H78.256V49.376H75.244C74.632 49.376 74.188 49.352 73.756 49.304V50.684C74.26 50.624 74.692 50.6 75.244 50.6H82.828C83.32 50.6 83.824 50.624 84.268 50.684V49.304C83.872 49.352 83.464 49.376 82.852 49.376H79.588V46.688H82.612C83.176 46.688 83.596 46.712 83.932 46.76V45.428C83.62 45.476 83.248 45.5 82.624 45.5H79.588V44.336H80.812C81.316 44.336 81.64 44.348 81.988 44.396V43.784C82.744 44.252 83.14 44.444 84.088 44.84C84.268 44.348 84.448 43.964 84.736 43.52C83.44 43.1 82.54 42.644 81.556 41.9C80.704 41.276 80.188 40.76 79.708 40.052H78.22C77.356 41.492 75.556 42.788 73.324 43.568C73.648 44.012 73.732 44.168 74.02 44.804C74.812 44.48 75.292 44.228 75.976 43.82V44.396C76.324 44.348 76.672 44.336 77.152 44.336H78.256ZM76.864 43.208C77.86 42.488 78.352 42.008 78.964 41.192C79.588 41.984 80.176 42.536 81.124 43.208C80.944 43.22 80.944 43.22 80.836 43.22L77.116 43.208H76.864ZM75.112 47.276C75.496 47.876 75.808 48.512 76.06 49.268L77.26 48.788C76.936 47.972 76.708 47.516 76.3 46.796L75.112 47.276ZM81.58 46.808C81.292 47.636 81.004 48.272 80.632 48.872L81.76 49.292C82.168 48.596 82.216 48.512 82.252 48.44C82.696 47.564 82.696 47.564 82.852 47.288L81.58 46.808ZM90.232 41.456H87.196C86.572 41.456 86.116 41.432 85.732 41.384V42.752C86.104 42.704 86.56 42.68 87.184 42.68H90.232V44.216H88.036C87.424 44.216 86.92 44.192 86.584 44.144V45.452C86.932 45.416 87.148 45.392 87.712 45.38C88.384 46.652 88.96 47.348 89.992 48.212C88.66 48.932 87.268 49.376 85.54 49.628C85.864 50.132 86.02 50.432 86.2 50.912C88.132 50.54 89.572 49.976 91.084 49.016C92.512 49.964 93.808 50.492 95.908 50.96C96.112 50.336 96.256 50.012 96.556 49.568C94.828 49.304 93.472 48.872 92.248 48.188C93.136 47.456 93.916 46.604 94.48 45.74C94.72 45.392 94.912 45.116 95.044 44.96L94.252 44.156C94.024 44.204 93.736 44.216 93.232 44.216H91.624V42.68H94.852C95.464 42.68 95.956 42.704 96.304 42.752V41.384C95.932 41.432 95.464 41.456 94.84 41.456H91.624V40.988C91.624 40.46 91.636 40.208 91.684 39.932H90.16C90.208 40.232 90.232 40.472 90.232 40.988V41.456ZM93.088 45.38C92.56 46.232 92.02 46.82 91.132 47.48C90.208 46.808 89.692 46.268 89.164 45.38H93.088ZM108.628 50.324C107.944 48.14 107.32 46.568 106.444 44.816L105.28 45.296C105.808 46.304 106.228 47.348 106.66 48.608C105.424 48.836 105.04 48.896 103.432 49.076C103.864 47.792 104.524 45.188 104.872 43.484C105.4 40.904 105.46 40.616 105.52 40.34L103.984 40.1C103.936 41.96 103.036 46.076 102.004 49.196C101.596 49.232 101.356 49.244 101.308 49.244C101.248 49.244 101.2 49.244 101.116 49.232L101.368 50.708C101.656 50.636 101.992 50.588 102.664 50.492C104.356 50.264 105.4 50.084 107.02 49.76C107.14 50.204 107.176 50.348 107.308 50.876L108.628 50.324ZM100.66 42.2V41.204C100.66 40.664 100.684 40.352 100.732 39.992H99.304C99.364 40.364 99.376 40.676 99.376 41.216V42.2H98.704C98.356 42.2 98.08 42.176 97.768 42.128V43.412C98.068 43.376 98.38 43.352 98.692 43.352H99.376V45.572C98.392 45.824 98.068 45.896 97.624 45.932L97.876 47.288C98.008 47.228 98.14 47.192 98.524 47.084C99.016 46.94 99.16 46.904 99.376 46.832V49.352C99.376 49.628 99.304 49.7 99.016 49.7C98.656 49.7 98.272 49.676 97.768 49.604C97.948 50.132 98.008 50.396 98.044 50.9C98.452 50.924 98.74 50.936 98.992 50.936C100.264 50.936 100.66 50.672 100.66 49.796V46.412C101.308 46.196 101.776 46.028 102.076 45.92L102.04 44.756C101.296 45.008 101.092 45.08 100.66 45.212V43.352H101.224C101.524 43.352 101.776 43.364 102.1 43.4V42.152C101.776 42.188 101.584 42.2 101.224 42.2H100.66ZM112.396 43.58V44.12H111.196C110.764 44.12 110.512 44.108 110.224 44.072V45.128C110.524 45.092 110.704 45.08 111.196 45.08H112.396V45.68H110.632C110.116 45.68 109.876 45.668 109.564 45.62V46.784C109.864 46.748 110.2 46.736 110.632 46.736H115.144C115.636 46.736 115.888 46.748 116.188 46.784V45.62C115.876 45.668 115.648 45.68 115.144 45.68H113.572V45.08H114.676C115.168 45.08 115.336 45.092 115.624 45.128V44.072C115.336 44.108 115.108 44.12 114.676 44.12H113.572V43.58H114.496C114.976 43.58 115.192 43.592 115.552 43.64V43.052H116.224C116.2 42.8 116.188 42.572 116.188 42.212V41.612C116.188 41.24 116.2 41.012 116.224 40.748C115.84 40.784 115.516 40.796 114.892 40.796H113.668V40.712C113.668 40.34 113.68 40.136 113.728 39.896H112.3C112.348 40.124 112.36 40.364 112.36 40.724V40.796H110.848C110.248 40.796 109.984 40.784 109.624 40.748C109.66 41.024 109.672 41.24 109.672 41.624V42.26C109.672 42.656 109.66 42.86 109.624 43.124H110.38V43.64C110.74 43.592 110.968 43.58 111.46 43.58H112.396ZM111.46 42.608C111.172 42.608 111.052 42.608 110.836 42.596V41.828H115.06V42.596C114.88 42.608 114.736 42.608 114.496 42.608H113.572C113.584 42.344 113.596 42.236 113.632 42.068H112.336C112.372 42.236 112.384 42.332 112.396 42.608H111.46ZM111.304 47.252C110.872 47.252 110.56 47.24 110.284 47.216C110.32 47.576 110.332 47.912 110.332 48.332V49.928C110.332 50.384 110.32 50.66 110.26 50.996H111.592V50.492H114.304V50.864H115.612C115.564 50.564 115.552 50.312 115.552 49.784V48.272C115.552 47.768 115.564 47.516 115.6 47.216C115.324 47.24 115.06 47.252 114.652 47.252H111.304ZM111.592 48.26H114.304V49.424H111.592V48.26ZM116.668 40.748C116.716 41.084 116.728 41.36 116.728 42.02V46.844C116.728 47.528 116.716 47.78 116.668 48.128H118.024C117.976 47.816 117.964 47.564 117.964 46.856V41.996C117.964 41.384 117.976 41.06 118.024 40.748H116.668ZM118.804 39.992C118.864 40.388 118.876 40.748 118.876 41.48V49.28C118.876 49.592 118.768 49.652 118.216 49.652C117.94 49.652 117.568 49.616 116.86 49.544C117.04 49.952 117.124 50.276 117.196 50.792C117.82 50.828 118.024 50.84 118.312 50.84C119.764 50.84 120.124 50.564 120.124 49.448V41.444C120.124 40.724 120.148 40.316 120.208 39.992H118.804ZM123.916 44.72C124.228 44.684 124.564 44.672 124.948 44.672H129.052C129.532 44.672 129.832 44.684 130.132 44.72V43.88C130.864 44.36 131.236 44.552 132.088 44.936C132.316 44.348 132.436 44.12 132.748 43.616C131.524 43.16 130.624 42.68 129.688 41.972C128.728 41.252 128.188 40.712 127.672 39.944H126.244C125.752 40.688 125.188 41.288 124.36 41.948C123.436 42.668 122.416 43.244 121.3 43.676C121.648 44.144 121.792 44.396 121.996 44.9C122.824 44.54 123.136 44.372 123.916 43.892V44.72ZM124.96 43.424C124.828 43.424 124.768 43.424 124.624 43.424C125.728 42.632 126.256 42.116 126.976 41.084C127.732 42.044 128.392 42.668 129.448 43.424C129.232 43.424 129.184 43.424 129.04 43.424H124.96ZM124.372 50.912V50.3H129.616V50.912H131.044C130.984 50.54 130.972 50.204 130.972 49.652V46.844C130.972 46.328 130.984 45.992 131.032 45.656C130.756 45.692 130.468 45.704 129.988 45.704H123.988C123.508 45.704 123.22 45.692 122.956 45.656C122.992 46.004 123.016 46.352 123.016 46.844V49.64C123.016 50.168 122.992 50.528 122.944 50.912H124.372ZM124.372 46.868H129.616V49.124H124.372V46.868Z" fill="white"/>
<path d="M81.7665 59.998V59.92H77.3725C77.2685 59.92 77.2165 59.972 77.2165 60.076V62.104C77.2165 62.2773 77.1298 62.364 76.9565 62.364H74.7205C74.5471 62.364 74.4605 62.2773 74.4605 62.104V57.58C74.4605 57.4067 74.5471 57.32 74.7205 57.32H84.6265C84.7998 57.32 84.8865 57.4067 84.8865 57.58V59.608C84.8865 59.7987 84.8605 59.9547 84.8085 60.076L78.9585 74.766C78.9238 74.8527 78.8805 74.9133 78.8285 74.948C78.7938 74.9827 78.7245 75 78.6205 75H76.1505C75.9598 75 75.9078 74.9047 75.9945 74.714L81.7665 59.998ZM87.456 71.828C87.404 71.6547 87.352 71.4553 87.3 71.23C87.248 70.9873 87.2047 70.6667 87.17 70.268C87.1527 69.852 87.1353 69.3233 87.118 68.682C87.1007 68.0233 87.092 67.1827 87.092 66.16C87.092 65.1373 87.1007 64.3053 87.118 63.664C87.1353 63.0053 87.1527 62.4767 87.17 62.078C87.2047 61.662 87.248 61.3413 87.3 61.116C87.352 60.8907 87.404 60.6827 87.456 60.492C87.8027 59.3827 88.392 58.5333 89.224 57.944C90.0733 57.3373 91.1567 57.034 92.474 57.034C93.7913 57.034 94.866 57.3373 95.698 57.944C96.5473 58.5333 97.154 59.3827 97.518 60.492C97.57 60.6827 97.622 60.8907 97.674 61.116C97.726 61.3413 97.7607 61.662 97.778 62.078C97.8127 62.4767 97.8387 63.0053 97.856 63.664C97.8733 64.3053 97.882 65.1373 97.882 66.16C97.882 67.1827 97.8733 68.0233 97.856 68.682C97.8387 69.3233 97.8127 69.852 97.778 70.268C97.7607 70.6667 97.726 70.9873 97.674 71.23C97.622 71.4553 97.57 71.6547 97.518 71.828C97.154 72.9373 96.5473 73.7953 95.698 74.402C94.866 74.9913 93.7913 75.286 92.474 75.286C91.1567 75.286 90.0733 74.9913 89.224 74.402C88.392 73.7953 87.8027 72.9373 87.456 71.828ZM90.316 71.282C90.6453 72.218 91.3647 72.686 92.474 72.686C93.5833 72.686 94.3113 72.218 94.658 71.282C94.71 71.1433 94.7447 70.9873 94.762 70.814C94.7967 70.6407 94.8227 70.372 94.84 70.008C94.8573 69.644 94.866 69.1587 94.866 68.552C94.8833 67.9453 94.892 67.148 94.892 66.16C94.892 65.172 94.8833 64.3747 94.866 63.768C94.866 63.1613 94.8573 62.676 94.84 62.312C94.8227 61.948 94.7967 61.6793 94.762 61.506C94.7447 61.3327 94.71 61.1767 94.658 61.038C94.3113 60.102 93.5833 59.634 92.474 59.634C91.3647 59.634 90.6453 60.102 90.316 61.038C90.264 61.1767 90.2207 61.3327 90.186 61.506C90.1687 61.6793 90.1513 61.948 90.134 62.312C90.1167 62.676 90.0993 63.1613 90.082 63.768C90.082 64.3747 90.082 65.172 90.082 66.16C90.082 67.148 90.082 67.9453 90.082 68.552C90.0993 69.1587 90.1167 69.644 90.134 70.008C90.1513 70.372 90.1687 70.6407 90.186 70.814C90.2207 70.9873 90.264 71.1433 90.316 71.282Z" fill="white"/>
<path d="M103.233 70.264C103.845 70.264 104.385 70.06 104.769 69.688C105.225 69.244 105.453 68.536 105.453 67.624C105.453 65.968 104.637 65.008 103.233 65.008C101.829 65.008 101.001 65.98 101.001 67.636C101.001 68.536 101.241 69.256 101.685 69.676C102.069 70.06 102.609 70.264 103.233 70.264ZM103.221 65.908C103.965 65.908 104.385 66.532 104.385 67.6C104.385 68.74 103.977 69.364 103.233 69.364C102.477 69.364 102.069 68.74 102.069 67.612C102.069 66.52 102.489 65.908 103.221 65.908ZM108.765 74.74C109.377 74.74 109.917 74.536 110.301 74.164C110.757 73.708 110.985 73.012 110.985 72.088C110.985 70.432 110.169 69.472 108.765 69.472C107.361 69.472 106.533 70.444 106.533 72.1C106.533 73.768 107.349 74.74 108.765 74.74ZM108.753 70.372C109.101 70.372 109.341 70.48 109.545 70.744C109.785 71.044 109.917 71.512 109.917 72.088C109.917 73.216 109.509 73.84 108.765 73.84C108.009 73.84 107.601 73.216 107.601 72.064C107.601 70.984 108.021 70.372 108.753 70.372ZM101.997 74.38L102.561 74.836L110.001 65.356L109.425 64.912L101.997 74.38Z" fill="white"/>
<rect x="187" y="27" width="73" height="60" fill="white" stroke="#00655A" stroke-width="2"/>
<path d="M206.176 35.888C205.552 36.104 204.544 36.308 203.812 36.368V35.444C203.812 34.832 203.824 34.58 203.884 34.22H202.612C202.672 34.58 202.684 34.916 202.684 35.504V36.452C202.552 36.464 202.528 36.464 202.216 36.476C202.024 36.488 201.892 36.488 201.712 36.488C201.1 36.488 200.656 36.452 200.332 36.392V37.508C200.44 37.496 200.524 37.496 200.572 37.496C200.608 37.496 200.704 37.496 200.86 37.508C200.992 37.508 201.34 37.52 201.532 37.52C201.844 37.52 202.024 37.52 202.216 37.508C202.6 37.484 202.6 37.484 202.696 37.472V39.5C201.916 39.836 201.4 40.136 200.98 40.496C200.332 41.06 199.984 41.648 199.984 42.2C199.984 42.68 200.2 43.112 200.596 43.46C201.172 43.964 202.024 44.288 202.756 44.288C203.26 44.288 203.644 44.036 203.752 43.64C203.8 43.424 203.824 43.196 203.824 42.716L203.812 40.256C204.724 39.956 205.468 39.824 206.188 39.824C207.604 39.824 208.516 40.52 208.516 41.612C208.516 42.476 207.94 43.1 207.148 43.1C206.68 43.1 206.368 42.896 206.212 42.5C206.14 42.296 206.092 41.9 206.092 41.468C206.092 41.312 206.092 41.228 206.116 41C205.684 41.24 205.516 41.3 205 41.444C205 42.116 205.048 42.5 205.18 42.908C205.456 43.772 206.14 44.252 207.1 44.252C208.588 44.252 209.716 43.112 209.716 41.612C209.716 40.7 209.272 39.884 208.48 39.368C207.904 38.996 207.16 38.804 206.248 38.804C205.456 38.804 204.664 38.924 203.812 39.176V37.412C204.376 37.352 204.772 37.292 205.48 37.148C205.864 37.076 205.924 37.064 206.224 37.028L206.176 35.888ZM202.696 42.584C202.696 43.028 202.648 43.136 202.432 43.136C202.168 43.136 201.82 43.016 201.544 42.836C201.244 42.644 201.1 42.44 201.1 42.212C201.1 41.732 201.664 41.156 202.696 40.628V42.584ZM210.232 37.52C209.572 36.584 208.912 35.936 207.844 35.132L206.92 35.768C207.844 36.44 208.72 37.352 209.332 38.264L210.232 37.52ZM213.46 43.808C213.46 44.192 213.436 44.54 213.388 44.888H214.516V44.444H219.568V44.888H220.696C220.648 44.552 220.636 44.288 220.636 43.82V42.152C220.636 41.864 220.636 41.708 220.648 41.456C221.248 41.624 221.452 41.672 222.112 41.816C222.256 41.312 222.34 41.108 222.592 40.688C220.576 40.424 219.34 40.088 217.972 39.416C218.788 38.828 219.436 38.264 220.096 37.592C220.276 37.4 220.276 37.4 220.384 37.292L219.712 36.728C219.448 36.764 219.148 36.776 218.68 36.776H216.304C216.484 36.56 216.496 36.536 216.52 36.5C216.64 36.344 216.64 36.344 216.736 36.248L215.68 35.924C215.5 36.248 215.26 36.584 214.948 36.92C214.192 37.736 213.292 38.324 211.948 38.912C212.248 39.2 212.344 39.32 212.608 39.74C213.664 39.176 214.06 38.912 214.792 38.312C215.284 38.792 215.644 39.092 216.1 39.416C215.44 39.752 214.9 39.992 214.336 40.184C213.388 40.532 212.44 40.76 211.432 40.928C211.648 41.204 211.804 41.516 211.936 41.912C212.668 41.744 212.92 41.672 213.436 41.516C213.448 41.744 213.46 41.876 213.46 42.14V43.808ZM218.68 37.616C217.948 38.264 217.636 38.504 217.036 38.888C216.4 38.492 215.98 38.168 215.476 37.7C215.512 37.664 215.524 37.652 215.56 37.616H218.68ZM219.592 41.192H214.396C215.584 40.772 216.22 40.484 217.036 40.004C218.02 40.568 218.668 40.844 219.76 41.192H219.592ZM214.516 42.116H219.58V43.508H214.516V42.116ZM216.352 34.976H213.196C212.656 34.976 212.272 34.964 211.864 34.916C211.888 35.18 211.912 35.444 211.912 35.78V36.632C211.912 36.992 211.888 37.208 211.852 37.508H212.944V35.912H221.032V37.52H222.124C222.088 37.28 222.076 37.004 222.076 36.656V35.78C222.076 35.408 222.088 35.18 222.124 34.916C221.692 34.964 221.344 34.976 220.732 34.976H217.468V34.748C217.468 34.46 217.504 34.124 217.54 33.932H216.292C216.34 34.28 216.352 34.436 216.352 34.748V34.976ZM224.74 37.748C224.932 37.724 224.98 37.724 225.244 37.712C226.84 37.688 228.34 37.58 229.504 37.412C229.576 37.544 229.6 37.58 229.708 37.796C230.116 38.6 230.464 39.164 230.824 39.668L230.932 39.824C230.356 39.572 229.612 39.452 228.652 39.452C227.536 39.452 226.768 39.632 226.084 40.04C225.328 40.508 224.896 41.204 224.896 41.972C224.896 42.512 225.088 43.016 225.436 43.4C226.012 44.048 227.188 44.396 228.796 44.396C229.972 44.396 231.088 44.204 232.456 43.748L232.288 42.464C231.352 42.956 230.008 43.256 228.76 43.256C227.08 43.256 226.132 42.776 226.132 41.936C226.132 41.54 226.36 41.156 226.72 40.928C227.224 40.616 227.92 40.472 228.868 40.472C229.648 40.472 230.272 40.568 230.836 40.76C231.184 40.88 231.364 41 231.664 41.264L232.816 40.7C232.372 40.112 231.88 39.368 231.52 38.78C231.376 38.54 231.1 38.024 230.704 37.256C231.676 37.064 231.7 37.052 232.564 36.86C232.972 36.764 233.068 36.74 233.356 36.692L233.2 35.492C232.588 35.744 231.532 36.008 230.284 36.224C229.864 35.24 229.636 34.604 229.576 34.208L228.268 34.388C228.34 34.52 228.364 34.568 228.436 34.736C228.592 35.144 228.76 35.552 228.868 35.828C229.036 36.2 229.048 36.224 229.096 36.368C228.244 36.5 226.696 36.608 225.748 36.608C225.292 36.608 224.992 36.596 224.656 36.548L224.74 37.748ZM245.692 42.836C245.524 42.74 245.476 42.704 245.272 42.56C244 41.66 243.136 41.216 241.972 40.844C241.96 40.7 241.948 40.16 241.912 39.236C242.632 39.2 243.496 39.128 243.988 39.056C244.816 38.936 244.912 38.924 245.176 38.912L245.128 37.784C244.42 38 243.34 38.144 241.9 38.24C241.888 37.292 241.888 37.292 241.876 36.872C242.992 36.812 243.532 36.752 244.528 36.62C245.176 36.524 245.176 36.524 245.416 36.512L245.368 35.384C244.612 35.624 243.592 35.756 241.888 35.864C241.9 34.868 241.912 34.604 241.972 34.304H240.676C240.712 34.592 240.712 34.592 240.724 35.9C240.364 35.912 239.968 35.912 239.776 35.912C238.408 35.912 237.256 35.828 236.608 35.684L236.596 36.8C236.68 36.788 236.74 36.788 236.776 36.788C236.824 36.788 236.908 36.788 237.028 36.8C237.904 36.86 239.272 36.92 239.956 36.92C240.184 36.92 240.376 36.92 240.736 36.908L240.76 38.288C240.388 38.3 240.004 38.312 239.74 38.312C238.564 38.312 237.484 38.24 236.956 38.12L236.944 39.2C236.98 39.2 237.016 39.2 237.04 39.2C237.124 39.2 237.232 39.2 237.376 39.212C238.288 39.284 238.744 39.296 239.488 39.296C239.8 39.296 240.304 39.284 240.772 39.284C240.784 39.524 240.784 39.704 240.796 39.824C240.796 40.1 240.808 40.292 240.808 40.364C240.808 40.436 240.82 40.484 240.82 40.496C240.82 40.616 240.82 40.616 240.82 40.664C240.592 40.628 240.268 40.616 239.884 40.616C237.964 40.616 236.8 41.36 236.8 42.584C236.8 43.688 237.784 44.348 239.404 44.348C241.156 44.348 241.996 43.664 241.996 42.224C241.996 42.152 241.996 42.08 241.996 42.02C242.152 42.092 242.428 42.212 242.56 42.284C243.544 42.752 244.432 43.388 245.008 44.012L245.692 42.836ZM240.832 41.744C240.832 41.744 240.844 42.044 240.844 42.116C240.844 42.488 240.796 42.704 240.676 42.884C240.484 43.172 240.076 43.316 239.452 43.316C238.528 43.316 238.012 43.04 238.012 42.536C238.012 42.356 238.096 42.164 238.228 42.044C238.516 41.792 239.092 41.636 239.74 41.636C240.208 41.636 240.412 41.66 240.832 41.744ZM206.524 50.644C206.752 50.404 206.872 50.272 207.148 49.9C207.436 49.54 207.436 49.54 207.484 49.456C207.544 49.396 207.58 49.348 207.592 49.336C207.688 49.216 207.688 49.204 207.772 49.12L207.22 48.616C206.968 48.652 206.68 48.664 206.08 48.664H203.872C204.16 48.22 204.316 47.992 204.328 47.98L203.068 47.728C202.9 48.208 202.54 48.712 201.94 49.36C201.256 50.092 200.584 50.608 199.648 51.124C199.9 51.412 200.044 51.652 200.224 52.048C200.716 51.736 200.908 51.604 201.232 51.364C201.232 51.604 201.232 51.64 201.232 51.856V55.42C201.232 56.176 201.22 56.476 201.172 56.824C201.616 56.776 201.976 56.764 202.468 56.764H203.2C202.144 57.484 201.424 57.736 199.768 58.012C200.08 58.348 200.224 58.564 200.428 58.984C201.472 58.756 201.964 58.6 202.648 58.288C203.2 58.036 203.512 57.844 204.172 57.376L203.5 56.764H206.764L206.056 57.4C206.74 57.832 207.052 58 207.664 58.252C208.456 58.588 208.96 58.744 210.016 58.972C210.196 58.564 210.352 58.3 210.592 57.952C209.512 57.796 208.9 57.64 208.096 57.328C207.664 57.16 207.52 57.088 206.968 56.764H207.952C208.444 56.764 208.828 56.776 209.26 56.824C209.212 56.512 209.2 56.14 209.2 55.42V51.856C209.2 51.232 209.212 50.98 209.26 50.608C208.84 50.632 208.636 50.644 207.904 50.644H206.524ZM202.528 50.644C202.336 50.644 202.3 50.644 202.084 50.644C202.552 50.212 202.816 49.948 203.152 49.576H206.08C205.768 50.02 205.588 50.272 205.252 50.644H202.528ZM202.276 51.556H208.144V52.372H202.276V51.556ZM202.276 53.272H208.144V54.088H202.276V53.272ZM202.276 54.988H208.144V55.828H202.276V54.988ZM213.28 51.256V53.656C212.32 53.968 212.02 54.04 211.612 54.088L211.852 55.216C212.02 55.144 212.14 55.084 212.356 55.024C212.788 54.88 212.8 54.88 213.28 54.7V57.496C213.28 57.784 213.208 57.844 212.848 57.844C212.56 57.844 212.164 57.82 211.732 57.772C211.888 58.192 211.936 58.432 211.972 58.84C212.332 58.864 212.668 58.876 212.956 58.876C213.964 58.876 214.348 58.6 214.348 57.856V54.316C214.768 54.148 214.972 54.076 215.596 53.812V52.816C215.056 53.044 214.924 53.092 214.348 53.296V51.256H214.804C215.092 51.256 215.332 51.268 215.608 51.304V50.248C215.356 50.284 215.104 50.296 214.816 50.296H214.348V49.228C214.348 48.688 214.36 48.376 214.42 48.016H213.208C213.268 48.376 213.28 48.7 213.28 49.24V50.296H212.668C212.272 50.296 212.008 50.272 211.708 50.224V51.316C212.068 51.28 212.356 51.256 212.668 51.256H213.28ZM220.444 56.164C220.972 56.164 221.356 56.176 221.656 56.212C221.62 55.768 221.608 55.432 221.608 54.832V49.972C221.608 49.312 221.62 48.952 221.656 48.556C221.332 48.592 221.032 48.604 220.42 48.604H217.24C216.664 48.604 216.376 48.592 216.04 48.556C216.064 48.964 216.076 49.24 216.076 49.84V55.048C216.076 55.564 216.064 55.924 216.04 56.212C216.424 56.176 216.808 56.164 217.228 56.164H220.444ZM217.144 49.588H220.516V51.868H217.144V49.588ZM217.144 52.828H220.516V55.192H217.144V52.828ZM214.984 58.516C215.368 58.48 215.776 58.456 216.352 58.456H221.2C221.716 58.456 222.112 58.48 222.556 58.528V57.376C222.16 57.424 221.764 57.448 221.212 57.448H216.352C215.788 57.448 215.344 57.424 214.984 57.388V58.516ZM226.54 51.508V52.156H225.328C224.884 52.156 224.632 52.144 224.344 52.108V53.044C224.632 53.008 224.848 52.996 225.328 52.996H226.54V53.728H224.728C224.224 53.728 223.96 53.716 223.66 53.668V54.664C223.948 54.628 224.296 54.616 224.728 54.616H229.192C229.684 54.616 229.936 54.628 230.236 54.664V53.668C229.936 53.716 229.684 53.728 229.192 53.728H227.524V52.996H228.664C229.144 52.996 229.348 53.008 229.636 53.044V52.108C229.348 52.144 229.108 52.156 228.664 52.156H227.524V51.508H228.484C228.964 51.508 229.204 51.52 229.528 51.568V51.016H230.272C230.248 50.776 230.236 50.548 230.236 50.2V49.672C230.236 49.336 230.248 49.108 230.272 48.856C229.9 48.892 229.552 48.904 228.94 48.904H227.596V48.808C227.596 48.412 227.608 48.184 227.656 47.932H226.456C226.504 48.172 226.516 48.436 226.516 48.82V48.904H224.932C224.332 48.904 224.032 48.892 223.708 48.856C223.744 49.108 223.756 49.324 223.756 49.696V50.272C223.756 50.656 223.744 50.86 223.708 51.112H224.536V51.568C224.86 51.52 225.112 51.508 225.592 51.508H226.54ZM225.592 50.668C225.208 50.668 225.028 50.656 224.74 50.632V49.768H229.288V50.644C229.048 50.656 228.856 50.668 228.484 50.668H227.524C227.524 50.368 227.548 50.224 227.584 50.044H226.48C226.516 50.224 226.54 50.404 226.54 50.668H225.592ZM225.448 55.264C225.016 55.264 224.716 55.252 224.416 55.228C224.452 55.588 224.464 55.9 224.464 56.344V57.88C224.464 58.348 224.44 58.636 224.392 58.96H225.508V58.432H228.484V58.816H229.588C229.54 58.516 229.528 58.264 229.528 57.724V56.296C229.528 55.804 229.54 55.552 229.576 55.228C229.276 55.252 229.024 55.264 228.616 55.264H225.448ZM225.508 56.152H228.484V57.544H225.508V56.152ZM230.812 48.748C230.86 49.084 230.872 49.348 230.872 50.044V54.82C230.872 55.54 230.86 55.768 230.812 56.128H231.964C231.916 55.828 231.904 55.552 231.904 54.82V50.02C231.904 49.384 231.916 49.072 231.964 48.748H230.812ZM232.96 48.04C233.008 48.412 233.032 48.796 233.032 49.516V57.424C233.032 57.736 232.936 57.796 232.408 57.796C232.084 57.796 231.664 57.76 231.028 57.676C231.184 58.036 231.256 58.312 231.316 58.732C231.772 58.768 232.156 58.78 232.444 58.78C233.752 58.78 234.076 58.54 234.076 57.52V49.492C234.076 48.784 234.1 48.364 234.16 48.04H232.96ZM238.12 52.636C238.42 52.6 238.756 52.588 239.104 52.588H242.86C243.304 52.588 243.628 52.6 243.916 52.636V51.676C244.78 52.264 245.26 52.54 246.136 52.948C246.304 52.504 246.436 52.24 246.712 51.856C245.548 51.412 244.54 50.848 243.556 50.08C242.608 49.336 242.08 48.784 241.564 47.992H240.34C239.848 48.772 239.32 49.336 238.48 50.032C237.532 50.812 236.464 51.448 235.336 51.904C235.672 52.288 235.828 52.54 235.96 52.912C236.812 52.516 237.28 52.252 238.12 51.7V52.636ZM239.128 51.556C238.804 51.556 238.612 51.544 238.36 51.532C239.536 50.692 240.184 50.056 240.976 48.94C241.744 49.972 242.44 50.632 243.688 51.532C243.436 51.544 243.232 51.556 242.86 51.556H239.128ZM238.252 58.852V58.216H243.712V58.852H244.912C244.852 58.48 244.84 58.156 244.84 57.64V54.892C244.84 54.4 244.852 54.076 244.9 53.74C244.636 53.776 244.348 53.788 243.892 53.788H238.06C237.604 53.788 237.316 53.776 237.064 53.74C237.1 54.088 237.124 54.424 237.124 54.892V57.64C237.124 58.132 237.1 58.492 237.052 58.852H238.252ZM238.252 54.76H243.712V57.244H238.252V54.76Z" fill="black"/>
<path d="M205.966 77.49C205.932 77.3167 206.001 77.204 206.174 77.152L208.436 76.632C208.592 76.5973 208.696 76.658 208.748 76.814C208.939 77.334 209.251 77.776 209.684 78.14C210.118 78.504 210.698 78.686 211.426 78.686C212.258 78.686 212.9 78.4433 213.35 77.958C213.801 77.4553 214.026 76.8227 214.026 76.06C214.026 75.1587 213.766 74.4567 213.246 73.954C212.726 73.434 212.024 73.174 211.14 73.174H210.386C210.213 73.174 210.126 73.0873 210.126 72.914V70.86C210.126 70.6867 210.213 70.6 210.386 70.6H211.088C211.868 70.6 212.492 70.366 212.96 69.898C213.428 69.43 213.662 68.806 213.662 68.026C213.662 67.3153 213.454 66.7433 213.038 66.31C212.622 65.8593 212.042 65.634 211.296 65.634C210.638 65.634 210.118 65.7987 209.736 66.128C209.355 66.4573 209.086 66.8993 208.93 67.454C208.878 67.61 208.774 67.6707 208.618 67.636L206.408 67.116C206.235 67.0813 206.166 66.9773 206.2 66.804C206.304 66.2667 206.495 65.7727 206.772 65.322C207.067 64.854 207.431 64.4553 207.864 64.126C208.315 63.7793 208.835 63.5107 209.424 63.32C210.031 63.1293 210.69 63.034 211.4 63.034C212.232 63.034 212.969 63.1553 213.61 63.398C214.252 63.6407 214.789 63.9787 215.222 64.412C215.673 64.8453 216.011 65.3653 216.236 65.972C216.479 66.5613 216.6 67.2113 216.6 67.922C216.6 68.6673 216.436 69.3607 216.106 70.002C215.777 70.626 215.283 71.1547 214.624 71.588V71.64C214.884 71.744 215.153 71.926 215.43 72.186C215.708 72.4287 215.959 72.732 216.184 73.096C216.41 73.46 216.592 73.8847 216.73 74.37C216.886 74.838 216.964 75.358 216.964 75.93C216.964 76.7447 216.826 77.4813 216.548 78.14C216.271 78.7987 215.881 79.362 215.378 79.83C214.893 80.298 214.312 80.662 213.636 80.922C212.96 81.1647 212.224 81.286 211.426 81.286C210.04 81.286 208.852 80.9567 207.864 80.298C206.876 79.6393 206.244 78.7033 205.966 77.49ZM219.456 77.828C219.404 77.6547 219.352 77.4553 219.3 77.23C219.248 76.9873 219.205 76.6667 219.17 76.268C219.153 75.852 219.135 75.3233 219.118 74.682C219.101 74.0233 219.092 73.1827 219.092 72.16C219.092 71.1373 219.101 70.3053 219.118 69.664C219.135 69.0053 219.153 68.4767 219.17 68.078C219.205 67.662 219.248 67.3413 219.3 67.116C219.352 66.8907 219.404 66.6827 219.456 66.492C219.803 65.3827 220.392 64.5333 221.224 63.944C222.073 63.3373 223.157 63.034 224.474 63.034C225.791 63.034 226.866 63.3373 227.698 63.944C228.547 64.5333 229.154 65.3827 229.518 66.492C229.57 66.6827 229.622 66.8907 229.674 67.116C229.726 67.3413 229.761 67.662 229.778 68.078C229.813 68.4767 229.839 69.0053 229.856 69.664C229.873 70.3053 229.882 71.1373 229.882 72.16C229.882 73.1827 229.873 74.0233 229.856 74.682C229.839 75.3233 229.813 75.852 229.778 76.268C229.761 76.6667 229.726 76.9873 229.674 77.23C229.622 77.4553 229.57 77.6547 229.518 77.828C229.154 78.9373 228.547 79.7953 227.698 80.402C226.866 80.9913 225.791 81.286 224.474 81.286C223.157 81.286 222.073 80.9913 221.224 80.402C220.392 79.7953 219.803 78.9373 219.456 77.828ZM222.316 77.282C222.645 78.218 223.365 78.686 224.474 78.686C225.583 78.686 226.311 78.218 226.658 77.282C226.71 77.1433 226.745 76.9873 226.762 76.814C226.797 76.6407 226.823 76.372 226.84 76.008C226.857 75.644 226.866 75.1587 226.866 74.552C226.883 73.9453 226.892 73.148 226.892 72.16C226.892 71.172 226.883 70.3747 226.866 69.768C226.866 69.1613 226.857 68.676 226.84 68.312C226.823 67.948 226.797 67.6793 226.762 67.506C226.745 67.3327 226.71 67.1767 226.658 67.038C226.311 66.102 225.583 65.634 224.474 65.634C223.365 65.634 222.645 66.102 222.316 67.038C222.264 67.1767 222.221 67.3327 222.186 67.506C222.169 67.6793 222.151 67.948 222.134 68.312C222.117 68.676 222.099 69.1613 222.082 69.768C222.082 70.3747 222.082 71.172 222.082 72.16C222.082 73.148 222.082 73.9453 222.082 74.552C222.099 75.1587 222.117 75.644 222.134 76.008C222.151 76.372 222.169 76.6407 222.186 76.814C222.221 76.9873 222.264 77.1433 222.316 77.282Z" fill="#00655A"/>
<path d="M235.233 76.264C235.845 76.264 236.385 76.06 236.769 75.688C237.225 75.244 237.453 74.536 237.453 73.624C237.453 71.968 236.637 71.008 235.233 71.008C233.829 71.008 233.001 71.98 233.001 73.636C233.001 74.536 233.241 75.256 233.685 75.676C234.069 76.06 234.609 76.264 235.233 76.264ZM235.221 71.908C235.965 71.908 236.385 72.532 236.385 73.6C236.385 74.74 235.977 75.364 235.233 75.364C234.477 75.364 234.069 74.74 234.069 73.612C234.069 72.52 234.489 71.908 235.221 71.908ZM240.765 80.74C241.377 80.74 241.917 80.536 242.301 80.164C242.757 79.708 242.985 79.012 242.985 78.088C242.985 76.432 242.169 75.472 240.765 75.472C239.361 75.472 238.533 76.444 238.533 78.1C238.533 79.768 239.349 80.74 240.765 80.74ZM240.753 76.372C241.101 76.372 241.341 76.48 241.545 76.744C241.785 77.044 241.917 77.512 241.917 78.088C241.917 79.216 241.509 79.84 240.765 79.84C240.009 79.84 239.601 79.216 239.601 78.064C239.601 76.984 240.021 76.372 240.753 76.372ZM233.997 80.38L234.561 80.836L242.001 71.356L241.425 70.912L233.997 80.38Z" fill="#00655A"/>
<path d="M85.795 6.575C85.735 7.85 85.615 8.63 85.3 9.725C84.835 11.315 83.98 12.845 82.825 14.12C81.805 15.26 81.025 15.89 79.63 16.715C80.125 17.12 80.41 17.45 80.695 18.005C82.36 16.865 83.515 15.8 84.49 14.465C85.495 13.1 86.11 11.765 86.62 9.8C87.04 11.465 87.625 12.755 88.555 14.09C89.635 15.635 90.82 16.82 92.47 17.975C92.845 17.315 93.04 17.06 93.565 16.565C92.41 15.875 91.915 15.515 91.105 14.72C90.115 13.775 89.365 12.815 88.765 11.75C87.79 9.995 87.295 8.105 87.295 6.095C87.295 5.795 87.31 5.495 87.34 5.15C86.995 5.21 86.635 5.225 85.96 5.225H83.74C83.125 5.225 82.81 5.21 82.45 5.15V6.65C82.99 6.605 83.395 6.575 83.755 6.575H85.795ZM101.605 12.125C101.53 13.61 101.305 14.42 100.765 15.185C100.15 16.055 99.31 16.61 97.825 17.105C98.23 17.495 98.41 17.72 98.71 18.215C100.33 17.495 101.245 16.82 101.86 15.86C102.505 14.855 102.76 13.895 102.865 12.125H104.11V16.955C104.11 17.735 104.56 17.96 106.18 17.96C108.04 17.96 108.28 17.63 108.52 14.9C107.965 14.78 107.755 14.705 107.275 14.45C107.23 15.62 107.17 16.19 107.05 16.445C106.945 16.655 106.765 16.73 106.27 16.73C105.535 16.73 105.4 16.67 105.4 16.4V12.125H106.81C107.395 12.125 107.83 12.155 108.25 12.215V10.895C107.83 10.955 107.485 10.97 106.81 10.97H101.245C100.675 10.97 100.24 10.94 99.835 10.895V12.2C100.255 12.14 100.585 12.125 101.23 12.125H101.605ZM99.64 8.045C99.64 8.465 99.625 8.72 99.595 8.99L99.58 9.125H100.84V9.74C101.17 9.695 101.545 9.68 102.01 9.68H105.73C106.18 9.68 106.495 9.695 106.885 9.74V9.155H108.205C108.16 8.81 108.145 8.57 108.145 8.105V6.98C108.145 6.44 108.16 6.275 108.19 5.945C107.8 6.005 107.38 6.02 106.81 6.02H104.395V5.51C104.395 5 104.41 4.73 104.47 4.43H102.94C102.985 4.73 103.015 5.06 103.015 5.48V6.02H101.08C100.45 6.02 100.105 6.005 99.715 5.975C99.79 5.795 99.85 5.66 99.895 5.555L99.295 4.865C99.085 4.91 98.86 4.925 98.365 4.925H96.175C95.71 4.925 95.38 4.91 95.14 4.88C95.17 5.345 95.185 5.705 95.185 6.155V16.58C95.185 17.21 95.155 17.72 95.095 18.17H96.535C96.475 17.705 96.46 17.285 96.46 16.61V6.125H98.29C97.885 7.4 97.435 8.51 96.88 9.62C97.39 10.235 97.66 10.61 97.855 11C98.2 11.645 98.395 12.335 98.395 12.905C98.395 13.175 98.335 13.43 98.245 13.505C98.155 13.565 97.96 13.61 97.675 13.61C97.42 13.61 97.15 13.58 96.865 13.52C97.03 13.955 97.105 14.27 97.135 14.87C97.21 14.87 97.255 14.87 97.3 14.87C97.735 14.87 98.215 14.825 98.53 14.78C99.295 14.63 99.655 14.105 99.655 13.16C99.655 12.56 99.535 11.87 99.31 11.3C99.1 10.73 98.86 10.325 98.26 9.47C98.845 8.21 99.1 7.61 99.61 6.245C99.625 6.425 99.64 6.725 99.64 6.98V8.045ZM106.84 8.465C106.495 8.51 106.285 8.525 105.73 8.525H102.025C101.455 8.525 101.23 8.51 100.9 8.465V7.22H106.84V8.465ZM116.5 9.74C115.645 9.74 114.94 10.445 114.94 11.3C114.94 12.155 115.645 12.86 116.5 12.86C117.355 12.86 118.06 12.155 118.06 11.3C118.06 10.43 117.37 9.74 116.5 9.74ZM130.945 8.765H127.405C126.61 8.765 126.115 8.735 125.65 8.675V10.115C126.16 10.055 126.76 10.025 127.405 10.025H130.945V12.05H126.565C125.785 12.05 125.305 12.02 124.84 11.96V13.4C125.335 13.34 125.815 13.31 126.565 13.31H130.945V16.115C130.945 16.475 130.81 16.58 130.39 16.58C129.715 16.58 128.695 16.49 127.825 16.34C128.065 16.895 128.14 17.18 128.2 17.735C128.935 17.81 129.865 17.855 130.51 17.855C131.905 17.855 132.34 17.525 132.34 16.46V13.31H136.345C137.11 13.31 137.575 13.34 138.085 13.4V11.96C137.62 12.02 137.14 12.05 136.345 12.05H132.34V10.025H135.67C136.39 10.025 136.945 10.055 137.41 10.115V8.675C136.945 8.735 136.45 8.765 135.655 8.765H132.34V6.59C133.705 6.425 134.845 6.2 136.885 5.675L135.835 4.43C135.1 4.76 134.32 4.97 132.88 5.225C131.05 5.54 128.275 5.765 126.22 5.765C126.085 5.765 125.905 5.765 125.665 5.765C125.965 6.35 126.04 6.53 126.16 7.07C127.525 7.025 129.055 6.95 129.82 6.86C130.645 6.785 130.645 6.785 130.945 6.755V8.765ZM150.79 9.815V16.355C150.79 16.61 150.685 16.685 150.31 16.685C149.68 16.685 149.17 16.64 148.51 16.55C148.675 16.91 148.75 17.3 148.795 17.87C149.275 17.9 149.74 17.915 150.16 17.915C151.66 17.915 152.065 17.63 152.065 16.52V9.815H152.23C152.815 9.815 153.1 9.83 153.46 9.89V8.48C153.115 8.54 152.83 8.555 152.23 8.555H150.055C149.62 8.555 149.35 8.54 149.14 8.51V7.385C148.75 7.445 148.45 7.46 147.805 7.46H147.04V6.095C147.04 5.39 147.055 5.06 147.13 4.55H145.69C145.75 5.045 145.78 5.39 145.78 6.095V7.46H144.835C144.175 7.46 143.875 7.445 143.5 7.385V8.405L142.405 7.625C142.285 7.97 141.97 8.585 141.7 8.975C140.86 10.175 140.275 10.805 139.39 11.45C139.675 11.915 139.78 12.155 139.945 12.77C140.38 12.425 140.755 12.05 141.07 11.63C141.04 12.53 141.04 12.74 141.04 13.31V16.355C141.04 17.18 141.01 17.63 140.95 18.11H142.39C142.33 17.66 142.315 17.24 142.315 16.385V10.325C142.57 9.98 143.005 9.32 143.23 8.93C143.29 8.825 143.335 8.75 143.365 8.69C143.47 8.555 143.47 8.555 143.5 8.495V8.765C143.815 8.705 144.07 8.69 144.55 8.69H145.78V16.325C145.78 17.105 145.75 17.54 145.69 18.08H147.13C147.055 17.525 147.04 17.12 147.04 16.325V8.69H148.075C148.495 8.69 148.75 8.705 149.035 8.735V9.875C149.35 9.83 149.575 9.815 150.055 9.815H150.79ZM142.255 4.385C141.775 5.36 140.755 6.44 139.51 7.25C139.885 7.715 139.975 7.88 140.185 8.405C141.16 7.7 142.105 6.8 142.87 5.795C143.305 5.24 143.305 5.24 143.455 5.075L142.255 4.385ZM143.845 9.77C143.815 11.075 143.68 12.425 143.515 13.385C143.335 14.3 143.125 15.02 142.75 15.86C143.245 16.07 143.455 16.205 143.875 16.52C144.505 14.87 144.82 13.07 145 9.935L143.845 9.77ZM147.55 10.025C148.03 11.615 148.33 13.205 148.585 15.53L149.785 15.11C149.485 13.085 149.155 11.54 148.63 9.74L147.55 10.025ZM147.22 5.255C147.82 6.005 148.015 6.305 148.42 7.145L149.44 6.5C149.005 5.75 148.735 5.36 148.165 4.7L147.22 5.255ZM153.205 5.315C152.89 5.375 152.56 5.39 152.05 5.39H150.625C150.145 5.39 149.77 5.36 149.47 5.315V6.71C149.8 6.665 150.175 6.635 150.61 6.635H152.05C152.53 6.635 152.875 6.65 153.205 6.71V5.315ZM163.81 8.57V7.88H165.895C166.465 7.88 166.855 7.895 167.335 7.925C167.29 7.61 167.29 7.475 167.29 6.95V6.38C167.29 5.87 167.305 5.63 167.35 5.3C167.005 5.345 166.48 5.375 165.91 5.375H163.81V5.3C163.81 4.91 163.825 4.715 163.885 4.4H162.505C162.565 4.7 162.58 4.895 162.58 5.285V5.375H160.645C160.66 4.91 160.675 4.595 160.705 4.4H159.34C159.385 4.745 159.4 4.91 159.415 5.375H156.85C156.115 5.375 155.77 5.36 155.395 5.3V6.425C155.755 6.38 156.22 6.35 156.85 6.35H159.385C159.37 6.59 159.37 6.695 159.34 6.995H157.345C156.73 6.995 156.37 6.98 156.04 6.95C155.875 7.91 155.62 8.69 155.185 9.545C155.59 9.515 156.07 9.5 156.475 9.5H158.335C157.6 10.16 156.58 10.565 154.615 10.985C154.93 11.375 155.065 11.6 155.245 12.065C155.965 11.825 156.22 11.735 156.61 11.585V14.6C156.61 15.29 156.595 15.83 156.55 16.115C156.955 16.085 157.51 16.07 158.17 16.07H159.055C157.735 16.745 156.685 17.045 154.795 17.285C155.17 17.66 155.35 17.93 155.56 18.395C157.675 17.975 158.605 17.645 160.21 16.715L159.415 16.07H163.75L162.895 16.715C163.855 17.27 164.35 17.51 165.28 17.81C166.075 18.08 166.6 18.215 167.65 18.395C167.905 17.9 167.98 17.795 168.43 17.24C167.17 17.12 166.42 16.985 165.475 16.685C164.935 16.505 164.725 16.415 164.08 16.07H164.995C165.64 16.07 166.225 16.085 166.615 16.115C166.57 15.74 166.555 15.26 166.555 14.54V12.035C166.555 11.51 166.555 11.45 166.57 10.97C167.17 10.955 167.425 10.88 167.635 10.67C167.845 10.46 167.92 10.175 168.07 9.23C168.115 8.825 168.115 8.825 168.175 8.525C167.83 8.555 167.56 8.57 166.825 8.57H163.81ZM165.07 10.445H158.83C159.295 10.1 159.49 9.905 159.775 9.5H162.58C162.565 9.86 162.565 9.935 162.52 10.145H163.87C163.84 9.95 163.825 9.815 163.81 9.5H166.765C166.69 10.055 166.66 10.1 166.3 10.1C166.105 10.1 165.805 10.04 165.46 9.935C165.55 10.16 165.565 10.235 165.625 10.445H165.07ZM159.205 7.88C159.115 8.195 159.085 8.3 158.98 8.57H156.865C156.955 8.36 156.955 8.345 157.12 7.88H159.205ZM162.58 7.88V8.57H160.225C160.315 8.285 160.36 8.15 160.42 7.88H162.58ZM162.58 6.35V6.995H160.555C160.585 6.725 160.585 6.62 160.615 6.35H162.58ZM163.81 6.35H166V6.995H163.81V6.35ZM157.9 11.39H165.265V12.05H157.9V11.39ZM157.9 12.905H165.265V13.565H157.9V12.905ZM157.9 14.42H165.265V15.11H157.9V14.42ZM177.295 13.37H181.21V16.295C181.21 16.64 181.09 16.7 180.445 16.7C179.935 16.7 179.215 16.655 178.465 16.565C178.66 17.09 178.735 17.405 178.795 17.9C179.29 17.93 180.055 17.96 180.505 17.96C182.155 17.96 182.56 17.69 182.56 16.55V6.62C182.56 5.84 182.575 5.465 182.62 5.015C182.17 5.06 181.765 5.075 180.955 5.075H172.69C171.88 5.075 171.49 5.06 170.995 5.015C171.04 5.645 171.055 6.095 171.055 7.34C171.055 11.165 170.92 13.265 170.605 14.675C170.38 15.665 170.05 16.4 169.465 17.21C169.99 17.555 170.17 17.69 170.68 18.185C171.595 16.82 172.03 15.515 172.255 13.37H175.96V15.98C175.96 16.82 175.945 17.255 175.885 17.705H177.37C177.31 17.285 177.295 16.805 177.295 15.98V13.37ZM177.295 8.6V6.365H181.21V8.6H177.295ZM175.96 8.6H172.42L172.435 8.015V6.365H175.96V8.6ZM177.295 9.83H181.21V12.125H177.295V9.83ZM175.96 9.83V12.125H172.345C172.375 11.615 172.375 11.6 172.39 10.79C172.39 10.58 172.39 10.25 172.405 9.83H175.96Z" fill="#00655A"/>
</svg>
