<!-- 01EZTX9M3AWK0ZB16B6KYR56F1 -->

<svg width="283" height="114" viewBox="0 0 283 114" fill="none" xmlns="http://www.w3.org/2000/svg">
<path d="M3 4H283V100H149L142.5 113.5L136 100H3V4Z" fill="#00655A"/>
<path d="M147 94.9521L143.5 101.976L140 109L136.5 101.976L133 94.9521" stroke="black" stroke-width="2" stroke-miterlimit="10" stroke-linecap="round" stroke-linejoin="round"/>
<path d="M127.62 95.0513H1V1H279V95.0513H152.38" stroke="black" stroke-width="2" stroke-miterlimit="10" stroke-linecap="round" stroke-linejoin="round"/>
<g clip-path="url(#clip0)">
<rect x="41.744" y="11.9053" width="196.09" height="38.0223" fill="#00655A"/>
<path d="M56.2268 38.9699C54.2123 39.5902 51.764 36.9592 53.4914 34.6377C54.6422 36.1866 56.5936 36.7176 56.5936 36.7176L56.2268 38.9699Z" fill="white"/>
<path d="M73.6193 42.3251C72.8517 42.3251 72.1397 41.8633 71.7148 41.0882C70.6879 39.2159 69.3878 36.9938 68.7795 35.9608L67.931 37.2908C68.0891 37.6318 68.3357 38.3125 68.323 39.2096C69.4738 39.3883 70.1694 40.2578 70.1694 41.0693C70.1694 41.4217 70.0353 41.7375 69.7913 41.9627C69.6142 42.1275 69.2905 42.3238 68.7492 42.3238H59.1051C56.677 42.3238 55.812 40.5925 55.812 38.9706V38.7944C55.8044 37.8507 55.7956 36.6768 57.3106 34.8561C58.7637 33.1121 64.543 26.0244 64.9427 25.5324L68.2408 19.7733C68.3142 19.6437 68.4533 19.5645 68.6025 19.5645H72.6481C73.5143 19.5645 73.8937 20.3861 74.0366 20.6944C74.1719 20.9825 74.6259 21.8457 74.8371 22.2445L78.4552 22.4345C78.6614 22.4446 78.8283 22.6044 78.8473 22.8082C78.8726 23.0876 79.0724 25.5663 78.0657 26.6648C77.8305 26.9227 77.5396 27.0901 77.2121 27.158C77.0439 27.7507 76.6139 28.4767 75.7666 28.4767H73.5181L71.4315 31.8526C72.146 33.477 73.5308 36.2943 74.459 38.1829C74.7145 38.7038 74.932 39.1467 75.0875 39.4676C75.0938 39.4802 75.1002 39.4953 75.1052 39.5091C75.4024 40.3458 75.3544 41.1046 74.9712 41.6431C74.6651 42.0772 74.1707 42.3251 73.6193 42.3251ZM68.7922 34.7541C68.7947 34.7541 68.7973 34.7541 68.7985 34.7541C68.9439 34.7567 69.0755 34.8334 69.1501 34.9567C69.1691 34.9894 71.0546 38.159 72.4432 40.6919C72.7201 41.1964 73.1602 41.4984 73.618 41.4984C73.9013 41.4984 74.1403 41.3801 74.2921 41.1675C74.5121 40.858 74.5248 40.3748 74.3275 39.8073C74.1732 39.4915 73.9595 39.0549 73.7103 38.5478C72.7391 36.5736 71.2734 33.5877 70.5804 31.9847C70.5273 31.8614 70.5374 31.7205 70.6082 31.6047L72.9288 27.8488C73.0047 27.7255 73.1387 27.6513 73.2842 27.6513H75.7654C76.3016 27.6513 76.4559 26.7302 76.4571 26.7202C76.4875 26.5176 76.662 26.3666 76.8681 26.3666C77.1046 26.3666 77.2892 26.2848 77.4499 26.1087C78.0038 25.5059 78.0708 24.059 78.0404 23.2423L74.5564 23.0599C74.4097 23.0523 74.2794 22.9693 74.2099 22.8397C74.1808 22.7831 73.4688 21.4418 73.2816 21.0429C73.0654 20.5748 72.8871 20.3924 72.6468 20.3924H68.8428L65.6471 25.9715C65.6357 25.9916 65.623 26.0105 65.6091 26.0269C65.5472 26.1024 59.4504 33.584 57.9493 35.3845C56.6277 36.9712 56.6353 37.9363 56.6416 38.7881V38.9706C56.6416 39.7306 56.8819 41.4971 59.1051 41.4971H68.7492C68.9629 41.4971 69.1273 41.4493 69.2247 41.3587C69.2993 41.2895 69.3385 41.1914 69.3385 41.0693C69.3385 40.6227 68.8339 40.0036 67.8855 40.0036C67.7666 40.0036 67.6553 39.9545 67.5769 39.8664C67.4985 39.7809 67.4593 39.6639 67.4732 39.5469C67.6022 38.3087 67.1052 37.4934 67.1001 37.4858C67.0179 37.3499 67.0179 37.1813 67.1026 37.0467L68.4432 34.9454C68.519 34.8271 68.6506 34.7541 68.7922 34.7541Z" fill="white"/>
<path d="M93.3576 40.7635C93.8761 40.722 94.6033 40.4905 95.1104 39.5191C95.2874 39.1391 95.4101 38.6899 95.4721 38.1652C95.4936 37.9715 95.505 37.779 95.505 37.5877C95.5024 36.5333 95.1951 35.5355 94.8372 34.6094C94.4768 33.6871 94.0608 32.8252 93.8015 32.0816C93.6257 31.5883 93.5258 31.1517 93.5283 30.8107C93.5296 30.5238 93.5853 30.315 93.7231 30.1048C93.8647 29.8947 94.0178 29.7576 94.1784 29.6695C94.3377 29.5814 94.5072 29.5386 94.6792 29.5386C94.9966 29.5374 95.3304 29.6846 95.5872 29.9601C95.8426 30.2357 96.0235 30.6295 96.0361 31.158C96.0437 31.4801 96.2928 31.7368 96.5938 31.7293C96.8948 31.7217 97.1338 31.4524 97.125 31.1303C97.1085 30.315 96.8101 29.6154 96.3561 29.1309C95.9046 28.6465 95.3014 28.3672 94.6779 28.3672C94.339 28.3672 93.995 28.4515 93.6763 28.6276C93.3589 28.8051 93.068 29.0731 92.8353 29.4216C92.5521 29.8431 92.4332 30.3364 92.4357 30.812C92.4357 31.2398 92.5192 31.6588 92.6431 32.0778C92.767 32.4968 92.9302 32.917 93.1085 33.3423C93.4639 34.1917 93.8711 35.0674 94.1303 35.9243C94.3048 36.4968 94.4123 37.0555 94.4123 37.589C94.4123 37.7349 94.4326 38.1136 94.4022 38.4257C94.3352 39.3065 93.7851 39.7305 93.2413 39.7305L93.3576 40.7635Z" fill="white"/>
<path d="M91.596 42.4869H83.8476C83.644 42.4869 83.4708 42.341 83.4379 42.1422C83.4176 42.0239 83.2596 40.9783 83.8223 40.3152C83.9614 40.1516 84.1891 39.9641 84.5368 39.8735C84.4078 38.5486 83.9614 34.2441 83.4328 32.4335C82.368 32.0824 81.6484 31.3828 81.2943 30.3498C80.5963 28.3127 81.9507 26.8241 82.0088 26.7625C82.6133 26.1132 83.9222 25.8477 84.0689 25.82C84.0955 25.815 84.1208 25.8125 84.1473 25.8125H85.6978C85.718 25.8125 85.7382 25.8138 85.7585 25.8175C85.9014 25.8377 87.1685 26.0453 87.8363 26.7625C87.8944 26.8241 89.2501 28.3127 88.5495 30.3498C88.5318 30.4026 88.5128 30.4555 88.4913 30.5096C89.1135 31.1752 89.6611 31.7464 90.2213 32.3315C90.8587 32.9959 91.5176 33.6829 92.3156 34.5398C93.369 35.5955 93.9533 37.1481 93.9065 38.7902C93.9052 38.9412 93.8749 40.3328 93.3159 41.1079C92.9213 41.8138 92.3674 42.2869 91.7086 42.4706C91.6719 42.4819 91.6339 42.4869 91.596 42.4869ZM84.2333 41.6603H91.534C92.0677 41.4891 92.4079 41.0399 92.6014 40.6876C92.6102 40.67 92.6203 40.6537 92.6317 40.6386C92.9858 40.1667 93.0718 39.1337 93.0756 38.7751C93.1136 37.3709 92.6064 36.0044 91.7161 35.1123C90.9118 34.2491 90.2555 33.5646 89.6206 32.9028C89.0022 32.2586 88.3977 31.6282 87.6959 30.8732C87.5783 30.7474 87.5517 30.5649 87.6276 30.4114C87.6832 30.2957 87.7275 30.19 87.7642 30.0843C88.2991 28.5228 87.271 27.3715 87.2254 27.3237C86.8397 26.9084 85.995 26.6945 85.6649 26.6392H84.1878C83.8337 26.7122 82.9611 26.955 82.6184 27.3249C82.5754 27.3715 81.546 28.5228 82.0797 30.083C82.3667 30.9223 82.9548 31.452 83.8729 31.7024C84.007 31.7389 84.1132 31.8408 84.1574 31.9704C84.8416 34.0251 85.3778 39.944 85.4006 40.1969C85.4107 40.3127 85.3715 40.4259 85.2931 40.5127C85.2147 40.5983 85.1034 40.6474 84.987 40.6474C84.6658 40.6474 84.5305 40.7644 84.4559 40.8512C84.2814 41.0538 84.2346 41.391 84.2333 41.6603Z" fill="white"/>
<path d="M81.6826 27.3781C81.6826 27.3781 81.6497 24.0361 82.3579 24.0361C83.0661 24.0361 84.0967 25.8354 84.0967 25.8354C84.0967 25.8354 83.8628 26.1387 83.1154 26.5451C82.1998 27.0446 81.6826 27.3781 81.6826 27.3781Z" fill="white"/>
<path d="M85.4082 25.8354C85.4082 25.8354 86.4388 24.0361 87.1458 24.0361C87.854 24.0361 88.0475 27.3781 88.0475 27.3781C88.0475 27.3781 87.3696 27.0018 86.4351 26.6395C85.6333 26.3262 85.4082 25.8354 85.4082 25.8354Z" fill="white"/>
<path d="M70.7663 23.135C71.5731 22.268 71.5731 20.8626 70.7663 19.9969C69.9595 19.1299 68.6531 19.1299 67.8463 19.9969C67.8463 19.9969 67.845 19.9994 67.8437 19.9994L64.2534 23.8585L67.1735 26.9966L70.7663 23.135Z" fill="white"/>
<path d="M79.2368 23.0222C79.2368 23.5947 78.8043 24.0577 78.2719 24.0577C77.7382 24.0577 77.3057 23.5947 77.3057 23.0222C77.3057 22.4484 77.7382 21.9854 78.2719 21.9854C78.8043 21.9854 79.2368 22.4484 79.2368 23.0222Z" fill="white"/>
<path d="M124.22 37.1908C121.658 36.5806 120 34.1685 118.189 30.6403C116.761 27.8923 116.516 27.6784 115.257 27.6784H114.736L113.094 31.4205C112.526 32.8096 111.59 33.6803 110.147 33.9546V31.8772C110.715 31.5727 111.083 30.9775 111.405 30.1672L113.292 25.6337H114.98C117.42 25.6337 118.248 25.9546 119.936 29.2978C121.317 31.954 122.561 34.2138 124.217 34.9625V37.1908H124.22ZM121.105 27.8017C120.199 27.8017 119.477 27.0694 119.477 26.1823C119.477 25.2965 120.198 24.5479 121.105 24.5479C121.995 24.5479 122.731 25.2965 122.731 26.1823C122.731 27.0681 121.995 27.8017 121.105 27.8017ZM121.857 26.1823C121.857 25.7696 121.505 25.4186 121.105 25.4186C120.675 25.4186 120.322 25.7696 120.322 26.1823C120.322 26.6101 120.675 26.9461 121.105 26.9461C121.503 26.9461 121.857 26.6101 121.857 26.1823Z" fill="white"/>
<path d="M132.595 32.1528C132.38 30.6403 131.89 28.3805 131.399 26.7624H133.363C133.839 28.2446 134.329 30.4264 134.606 32.1528H132.595ZM133.884 35.6948C138.932 34.6567 140.498 31.8319 140.528 26.9008V26.702H142.661V26.9159C142.569 33.5117 139.561 36.6724 133.883 37.5733V35.6948H133.884ZM136.447 32.0156C136.248 30.4743 135.787 28.2899 135.312 26.6416H137.292C137.768 28.1075 138.182 30.137 138.489 32.0156H136.447Z" fill="white"/>
<path d="M162.669 32.8556C159.723 32.0466 156.778 31.3445 154.046 30.7795V37.559H151.867V24.458H154.046V28.6719C157.008 29.2683 159.939 29.8937 162.669 30.6713V32.8556Z" fill="white"/>
<path d="M177.602 35.4211C179.796 35.1619 181.945 33.8948 181.945 30.7341C181.945 28.8857 180.87 27.3443 178.721 26.9165C178.261 30.5202 177.54 33.6029 176.374 35.2978C175.669 36.4579 174.763 36.6567 174.073 36.6567C172.554 36.6567 170.743 34.9618 170.743 31.8929C170.743 28.0766 173.505 24.9775 177.725 24.9775C181.715 24.9775 184.016 27.4513 184.016 30.8096C184.016 35.3443 180.871 37.1915 177.602 37.345V35.4211ZM172.677 31.8929C172.677 33.6029 173.552 34.6271 174.027 34.6271C174.365 34.6271 174.718 34.3679 175.193 33.2984C175.899 31.757 176.451 29.0694 176.727 26.8712C174.15 27.2361 172.677 29.5123 172.677 31.8929Z" fill="white"/>
<path d="M193.161 37.7876V30.2909C192.823 30.8244 192.425 31.2837 192.133 31.5429L191.597 29.0691C192.732 27.9241 193.806 26.1223 194.39 24.0449L196.339 24.518C196.001 25.892 195.541 26.9301 194.973 27.9229V37.7864H193.161V37.7876ZM204.256 37.1912C202.905 36.0927 201.939 35.0849 201.202 33.9097V37.7876H199.391V33.9248C198.531 35.2824 197.519 36.3217 196.261 37.2214L195.125 35.4208C196.583 34.7187 197.719 33.9399 198.608 32.7948H195.523V31.0396H199.391V29.8795H196.368V24.4123H204.44V29.8782H201.202V31.0383H205.222V32.7936H202.015C202.951 33.9084 204.056 34.7477 205.405 35.4196L204.256 37.1912ZM202.66 26.2129H198.147V28.0764H202.66V26.2129Z" fill="white"/>
<path d="M225.825 37.7882C224.214 37.3302 223.124 36.6129 221.974 35.2528C220.992 36.6117 219.841 37.4057 217.907 37.7731L217.064 35.9398C219.105 35.7259 220.209 35.1911 220.884 34.0763H218.122V29.6334H221.131V28.9162H219.52V27.6944C219.09 27.9536 218.522 28.2279 218.016 28.3965L217.433 27.1597L216.727 29.388C217.218 30.3342 217.818 31.7548 217.818 32.9162C217.818 34.0146 217.28 34.8854 215.639 34.8854L215.025 33.1905L215.04 37.7869H213.246V24.4129H217.788V25.9693L217.634 26.4877C219 26.0914 220.166 25.2962 221.071 24.1826H223.005C223.005 24.1826 224.386 25.8926 226.672 26.5645L225.859 28.4116C225.522 28.2745 224.984 27.9687 224.524 27.6793V28.9162H222.975V29.6334H226.074V34.0763H223.051C223.971 35.1609 225.107 35.7108 226.657 35.9398L225.825 37.7882ZM215.221 32.9476C215.757 32.9476 216.08 32.8092 216.08 32.2757C216.08 31.7724 215.788 30.9332 215.097 29.5428L216.095 26.1832H215.037L215.021 32.9476H215.221ZM221.175 31.1773H219.809V32.6117H221.175V31.1773ZM223.984 27.3597C223.14 26.8413 222.45 26.2298 221.99 25.6195C221.452 26.3368 220.792 26.8866 220.026 27.3597H223.984ZM224.382 31.1773H222.909V32.6117H224.382V31.1773Z" fill="white"/>
</g>
<path d="M35.8939 68.378C37.0999 68.378 37.8379 68.414 38.7919 68.504V65.624C38.1259 65.732 37.2799 65.768 36.0379 65.768H31.4839C31.7179 65.192 31.9159 64.886 32.3299 64.436C32.7439 64.004 33.5719 63.302 34.3099 62.78C36.4339 61.304 36.5779 61.196 37.0099 60.8C38.0539 59.864 38.5939 58.766 38.5939 57.56C38.5939 55.04 36.4879 53.438 33.1759 53.438C31.2319 53.438 29.7199 54.032 28.7479 55.148C28.0639 55.976 27.7399 56.732 27.4699 58.19L30.6559 58.55C30.7639 57.74 30.8719 57.344 31.1419 56.948C31.5739 56.318 32.2939 55.976 33.2299 55.976C34.5259 55.976 35.4259 56.66 35.4259 57.65C35.4259 58.586 35.0299 59.09 33.3739 60.206C31.5019 61.484 30.9619 61.88 30.2959 62.492C29.1079 63.572 28.2619 64.832 27.7939 66.236C27.5599 66.884 27.4519 67.496 27.3619 68.45C28.0459 68.378 28.3339 68.378 29.8639 68.378H35.8939ZM41.4417 59.738C41.8917 59.54 42.4677 59.342 42.9357 59.198C45.8157 58.334 48.1557 57.92 50.0277 57.92C51.2697 57.92 52.1517 58.208 52.7637 58.838C53.2317 59.324 53.4657 59.936 53.4657 60.692C53.4657 61.43 53.2677 62.042 52.8537 62.636C52.2237 63.536 51.1977 64.238 49.8837 64.67C48.6237 65.102 47.0217 65.318 44.6277 65.39C45.2757 66.524 45.4557 66.992 45.7437 68.162C48.9477 67.838 50.5677 67.46 52.2777 66.632C54.8877 65.336 56.3637 63.194 56.3637 60.638C56.3637 58.856 55.6077 57.362 54.2397 56.426C53.1957 55.706 51.7557 55.346 49.9737 55.346C48.1737 55.346 46.8417 55.544 43.0797 56.336C41.8917 56.588 41.5317 56.66 40.8477 56.714L41.4417 59.738ZM68.4237 56.642C69.1437 56.732 69.5757 56.876 70.0977 57.218C71.3217 58.028 72.0237 59.378 72.0237 60.98C72.0237 62.888 71.0877 64.562 69.5397 65.408C68.6937 65.858 67.5777 66.146 65.9757 66.272C66.6777 67.208 66.9297 67.694 67.3077 68.828C68.5857 68.612 69.3057 68.432 70.1697 68.09C73.0497 66.956 74.6877 64.418 74.6877 61.142C74.6877 56.93 71.8077 54.23 67.2897 54.23C64.7157 54.23 62.5017 55.13 60.9537 56.822C59.6397 58.244 58.9377 60.116 58.9377 62.168C58.9377 65.264 60.5217 67.442 62.7537 67.442C64.3017 67.442 65.4897 66.38 66.4977 64.094C67.4337 62.006 68.0637 59.612 68.4237 56.642ZM65.7957 56.678C65.5797 58.604 65.0217 60.872 64.3557 62.474C63.7797 63.932 63.2217 64.634 62.6997 64.634C61.9977 64.634 61.4217 63.536 61.4217 62.186C61.4217 60.386 62.2677 58.64 63.6357 57.578C64.3377 57.038 64.9317 56.786 65.7957 56.678ZM82.4817 52.88C82.3017 53.618 81.9597 54.446 81.4377 55.4C80.3217 57.452 78.9897 58.964 76.9377 60.566C78.0177 61.178 78.3777 61.448 79.1157 62.276C80.9157 60.728 82.1757 59.252 83.2737 57.452L88.5477 57.398C88.0977 58.802 87.5577 59.954 86.7837 61.142C85.7577 60.35 84.9117 59.792 83.3277 58.91L81.6897 60.836C83.0397 61.574 83.9937 62.222 85.2177 63.248C84.3177 64.22 83.5797 64.814 82.3737 65.588C81.3117 66.236 80.4297 66.668 78.9357 67.262C79.7997 68.072 80.1057 68.45 80.7177 69.53C83.2737 68.36 85.2357 67.028 86.8197 65.39C88.7277 63.41 90.1137 60.98 91.3017 57.506C91.6077 56.606 91.6257 56.57 91.8777 56.282L90.4737 54.896C90.0597 55.076 89.7537 55.112 89.1237 55.13L84.3717 55.166C84.5517 54.842 84.6057 54.716 84.7677 54.392C85.0017 53.87 85.0557 53.78 85.2357 53.474L82.4817 52.88ZM107.52 53.258C106.98 54.158 105.774 55.364 104.19 56.588C101.346 58.784 98.3397 60.26 94.7037 61.268C95.4597 62.24 95.6757 62.6 96.1617 63.716C99.4197 62.51 100.446 62.042 102.318 60.926V66.398C102.318 67.874 102.3 68.324 102.21 69.008H105.18C105.108 68.396 105.09 67.784 105.09 66.344V59.252C106.566 58.19 107.934 57.002 109.302 55.58C109.572 55.292 109.608 55.256 109.986 54.932L107.52 53.258ZM116.412 54.77C114.918 54.77 114.36 54.752 113.586 54.644V57.398C114.324 57.308 114.9 57.29 116.376 57.29H124.26C123.432 60.566 121.668 63.032 118.896 64.796C117.582 65.624 116.592 66.092 115.026 66.578C116.052 67.604 116.34 68 116.934 69.152C120.03 67.766 122.064 66.362 123.72 64.418C125.376 62.492 126.528 60.152 127.284 57.128L127.356 56.876C127.374 56.876 127.41 56.876 127.428 56.876C128.526 56.876 129.408 55.976 129.408 54.878C129.408 53.78 128.526 52.88 127.41 52.88C126.366 52.88 125.502 53.69 125.43 54.734C125.088 54.77 124.872 54.77 124.656 54.77H116.412ZM127.41 53.996C127.896 53.996 128.292 54.392 128.292 54.878C128.292 55.364 127.896 55.76 127.41 55.76C126.924 55.76 126.528 55.364 126.528 54.878C126.528 54.392 126.924 53.996 127.41 53.996ZM140.694 61.16L144.438 57.398L142.602 55.562L138.84 59.342L135.024 55.526L133.188 57.362L137.004 61.16L133.17 65.03L135.006 66.848L138.858 62.996L142.656 66.794L144.492 64.958L140.694 61.16ZM159.594 68.468C160.8 68.468 161.538 68.504 162.492 68.594V65.714C161.826 65.822 160.98 65.858 159.738 65.858H155.184C155.418 65.282 155.616 64.976 156.03 64.526C156.444 64.094 157.272 63.392 158.01 62.87C160.134 61.394 160.278 61.286 160.71 60.89C161.754 59.954 162.294 58.856 162.294 57.65C162.294 55.13 160.188 53.528 156.876 53.528C154.932 53.528 153.42 54.122 152.448 55.238C151.764 56.066 151.44 56.822 151.17 58.28L154.356 58.64C154.464 57.83 154.572 57.434 154.842 57.038C155.274 56.408 155.994 56.066 156.93 56.066C158.226 56.066 159.126 56.75 159.126 57.74C159.126 58.676 158.73 59.18 157.074 60.296C155.202 61.574 154.662 61.97 153.996 62.582C152.808 63.662 151.962 64.922 151.494 66.326C151.26 66.974 151.152 67.586 151.062 68.54C151.746 68.468 152.034 68.468 153.564 68.468H159.594ZM167.442 59.738C167.892 59.54 168.468 59.342 168.936 59.198C171.816 58.334 174.156 57.92 176.028 57.92C177.27 57.92 178.152 58.208 178.764 58.838C179.232 59.324 179.466 59.936 179.466 60.692C179.466 61.43 179.268 62.042 178.854 62.636C178.224 63.536 177.198 64.238 175.884 64.67C174.624 65.102 173.022 65.318 170.628 65.39C171.276 66.524 171.456 66.992 171.744 68.162C174.948 67.838 176.568 67.46 178.278 66.632C180.888 65.336 182.364 63.194 182.364 60.638C182.364 58.856 181.608 57.362 180.24 56.426C179.196 55.706 177.756 55.346 175.974 55.346C174.174 55.346 172.842 55.544 169.08 56.336C167.892 56.588 167.532 56.66 166.848 56.714L167.442 59.738ZM194.424 56.642C195.144 56.732 195.576 56.876 196.098 57.218C197.322 58.028 198.024 59.378 198.024 60.98C198.024 62.888 197.088 64.562 195.54 65.408C194.694 65.858 193.578 66.146 191.976 66.272C192.678 67.208 192.93 67.694 193.308 68.828C194.586 68.612 195.306 68.432 196.17 68.09C199.05 66.956 200.688 64.418 200.688 61.142C200.688 56.93 197.808 54.23 193.29 54.23C190.716 54.23 188.502 55.13 186.954 56.822C185.64 58.244 184.938 60.116 184.938 62.168C184.938 65.264 186.522 67.442 188.754 67.442C190.302 67.442 191.49 66.38 192.498 64.094C193.434 62.006 194.064 59.612 194.424 56.642ZM191.796 56.678C191.58 58.604 191.022 60.872 190.356 62.474C189.78 63.932 189.222 64.634 188.7 64.634C187.998 64.634 187.422 63.536 187.422 62.186C187.422 60.386 188.268 58.64 189.636 57.578C190.338 57.038 190.932 56.786 191.796 56.678ZM214.494 67.37V68.45H217.374C217.284 67.712 217.284 67.55 217.284 65.786V56.714C217.284 55.94 217.284 55.94 217.338 54.752C216.852 54.788 216.06 54.806 215.088 54.806H207.186C205.71 54.806 205.098 54.77 204.36 54.662V57.452C205.08 57.38 205.638 57.362 207.15 57.362H214.494V64.796H206.898C205.386 64.796 205.026 64.778 204.108 64.652V67.46C205.062 67.388 205.512 67.37 206.844 67.37H214.494ZM220.956 62.618C221.658 62.546 222.684 62.51 224.25 62.51H233.34C234.744 62.51 235.932 62.546 236.652 62.6V59.648C235.824 59.756 235.176 59.774 233.358 59.774H224.25C222.414 59.774 221.766 59.738 220.956 59.63V62.618ZM253.53 66.614C250.452 63.68 250.002 63.284 247.68 61.628C248.724 60.206 249.534 58.748 250.398 56.732C250.614 56.21 250.758 55.976 250.992 55.724L249.606 54.284C249.174 54.482 249.084 54.5 248.094 54.5L241.956 54.608C241.83 54.608 241.686 54.608 241.614 54.608C240.498 54.608 239.994 54.59 239.418 54.5L239.454 57.236C240.138 57.128 240.48 57.11 241.974 57.074L247.23 56.984C246.816 57.902 246.51 58.55 246.276 58.946C245.124 60.962 243.54 62.708 241.56 64.148C240.21 65.138 239.148 65.714 237.564 66.344C238.446 67.262 238.698 67.604 239.292 68.738C242.028 67.406 244.404 65.624 246.006 63.716C248.022 65.282 249.822 67.046 251.352 68.954L253.53 66.614Z" fill="white"/>
<defs>
<clipPath id="clip0">
<path d="M41.744 11.5811H238V50.3669H41.744V11.5811Z" fill="white"/>
</clipPath>
</defs>
</svg>
