<!-- 01EZTX9M3AWK0ZB16B6KYR56F1 -->

<svg width="261" height="88" viewBox="0 0 261 88" fill="none" xmlns="http://www.w3.org/2000/svg">
<rect x="1" y="27" width="127" height="60" fill="white" stroke="#00655A" stroke-width="2"/>
<path d="M16.436 41.66C16.388 42.68 16.292 43.304 16.04 44.18C15.668 45.452 14.984 46.676 14.06 47.696C13.244 48.608 12.62 49.112 11.504 49.772C11.9 50.096 12.128 50.36 12.356 50.804C13.688 49.892 14.612 49.04 15.392 47.972C16.196 46.88 16.688 45.812 17.096 44.24C17.432 45.572 17.9 46.604 18.644 47.672C19.508 48.908 20.456 49.856 21.776 50.78C22.076 50.252 22.232 50.048 22.652 49.652C21.728 49.1 21.332 48.812 20.684 48.176C19.892 47.42 19.292 46.652 18.812 45.8C18.032 44.396 17.636 42.884 17.636 41.276C17.636 41.036 17.648 40.796 17.672 40.52C17.396 40.568 17.108 40.58 16.568 40.58H14.792C14.3 40.58 14.048 40.568 13.76 40.52V41.72C14.192 41.684 14.516 41.66 14.804 41.66H16.436ZM29.084 46.1C29.024 47.288 28.844 47.936 28.412 48.548C27.92 49.244 27.248 49.688 26.06 50.084C26.384 50.396 26.528 50.576 26.768 50.972C28.064 50.396 28.796 49.856 29.288 49.088C29.804 48.284 30.008 47.516 30.092 46.1H31.088V49.964C31.088 50.588 31.448 50.768 32.744 50.768C34.232 50.768 34.424 50.504 34.616 48.32C34.172 48.224 34.004 48.164 33.62 47.96C33.584 48.896 33.536 49.352 33.44 49.556C33.356 49.724 33.212 49.784 32.816 49.784C32.228 49.784 32.12 49.736 32.12 49.52V46.1H33.248C33.716 46.1 34.064 46.124 34.4 46.172V45.116C34.064 45.164 33.788 45.176 33.248 45.176H28.796C28.34 45.176 27.992 45.152 27.668 45.116V46.16C28.004 46.112 28.268 46.1 28.784 46.1H29.084ZM27.512 42.836C27.512 43.172 27.5 43.376 27.476 43.592L27.464 43.7H28.472V44.192C28.736 44.156 29.036 44.144 29.408 44.144H32.384C32.744 44.144 32.996 44.156 33.308 44.192V43.724H34.364C34.328 43.448 34.316 43.256 34.316 42.884V41.984C34.316 41.552 34.328 41.42 34.352 41.156C34.04 41.204 33.704 41.216 33.248 41.216H31.316V40.808C31.316 40.4 31.328 40.184 31.376 39.944H30.152C30.188 40.184 30.212 40.448 30.212 40.784V41.216H28.664C28.16 41.216 27.884 41.204 27.572 41.18C27.632 41.036 27.68 40.928 27.716 40.844L27.236 40.292C27.068 40.328 26.888 40.34 26.492 40.34H24.74C24.368 40.34 24.104 40.328 23.912 40.304C23.936 40.676 23.948 40.964 23.948 41.324V49.664C23.948 50.168 23.924 50.576 23.876 50.936H25.028C24.98 50.564 24.968 50.228 24.968 49.688V41.3H26.432C26.108 42.32 25.748 43.208 25.304 44.096C25.712 44.588 25.928 44.888 26.084 45.2C26.36 45.716 26.516 46.268 26.516 46.724C26.516 46.94 26.468 47.144 26.396 47.204C26.324 47.252 26.168 47.288 25.94 47.288C25.736 47.288 25.52 47.264 25.292 47.216C25.424 47.564 25.484 47.816 25.508 48.296C25.568 48.296 25.604 48.296 25.64 48.296C25.988 48.296 26.372 48.26 26.624 48.224C27.236 48.104 27.524 47.684 27.524 46.928C27.524 46.448 27.428 45.896 27.248 45.44C27.08 44.984 26.888 44.66 26.408 43.976C26.876 42.968 27.08 42.488 27.488 41.396C27.5 41.54 27.512 41.78 27.512 41.984V42.836ZM33.272 43.172C32.996 43.208 32.828 43.22 32.384 43.22H29.42C28.964 43.22 28.784 43.208 28.52 43.172V42.176H33.272V43.172ZM41 44.192C40.316 44.192 39.752 44.756 39.752 45.44C39.752 46.124 40.316 46.688 41 46.688C41.684 46.688 42.248 46.124 42.248 45.44C42.248 44.744 41.696 44.192 41 44.192ZM52.556 43.412H49.724C49.088 43.412 48.692 43.388 48.32 43.34V44.492C48.728 44.444 49.208 44.42 49.724 44.42H52.556V46.04H49.052C48.428 46.04 48.044 46.016 47.672 45.968V47.12C48.068 47.072 48.452 47.048 49.052 47.048H52.556V49.292C52.556 49.58 52.448 49.664 52.112 49.664C51.572 49.664 50.756 49.592 50.06 49.472C50.252 49.916 50.312 50.144 50.36 50.588C50.948 50.648 51.692 50.684 52.208 50.684C53.324 50.684 53.672 50.42 53.672 49.568V47.048H56.876C57.488 47.048 57.86 47.072 58.268 47.12V45.968C57.896 46.016 57.512 46.04 56.876 46.04H53.672V44.42H56.336C56.912 44.42 57.356 44.444 57.728 44.492V43.34C57.356 43.388 56.96 43.412 56.324 43.412H53.672V41.672C54.764 41.54 55.676 41.36 57.308 40.94L56.468 39.944C55.88 40.208 55.256 40.376 54.104 40.58C52.64 40.832 50.42 41.012 48.776 41.012C48.668 41.012 48.524 41.012 48.332 41.012C48.572 41.48 48.632 41.624 48.728 42.056C49.82 42.02 51.044 41.96 51.656 41.888C52.316 41.828 52.316 41.828 52.556 41.804V43.412ZM68.432 44.252V49.484C68.432 49.688 68.348 49.748 68.048 49.748C67.544 49.748 67.136 49.712 66.608 49.64C66.74 49.928 66.8 50.24 66.836 50.696C67.22 50.72 67.592 50.732 67.928 50.732C69.128 50.732 69.452 50.504 69.452 49.616V44.252H69.584C70.052 44.252 70.28 44.264 70.568 44.312V43.184C70.292 43.232 70.064 43.244 69.584 43.244H67.844C67.496 43.244 67.28 43.232 67.112 43.208V42.308C66.8 42.356 66.56 42.368 66.044 42.368H65.432V41.276C65.432 40.712 65.444 40.448 65.504 40.04H64.352C64.4 40.436 64.424 40.712 64.424 41.276V42.368H63.668C63.14 42.368 62.9 42.356 62.6 42.308V43.124L61.724 42.5C61.628 42.776 61.376 43.268 61.16 43.58C60.488 44.54 60.02 45.044 59.312 45.56C59.54 45.932 59.624 46.124 59.756 46.616C60.104 46.34 60.404 46.04 60.656 45.704C60.632 46.424 60.632 46.592 60.632 47.048V49.484C60.632 50.144 60.608 50.504 60.56 50.888H61.712C61.664 50.528 61.652 50.192 61.652 49.508V44.66C61.856 44.384 62.204 43.856 62.384 43.544C62.432 43.46 62.468 43.4 62.492 43.352C62.576 43.244 62.576 43.244 62.6 43.196V43.412C62.852 43.364 63.056 43.352 63.44 43.352H64.424V49.46C64.424 50.084 64.4 50.432 64.352 50.864H65.504C65.444 50.42 65.432 50.096 65.432 49.46V43.352H66.26C66.596 43.352 66.8 43.364 67.028 43.388V44.3C67.28 44.264 67.46 44.252 67.844 44.252H68.432ZM61.604 39.908C61.22 40.688 60.404 41.552 59.408 42.2C59.708 42.572 59.78 42.704 59.948 43.124C60.728 42.56 61.484 41.84 62.096 41.036C62.444 40.592 62.444 40.592 62.564 40.46L61.604 39.908ZM62.876 44.216C62.852 45.26 62.744 46.34 62.612 47.108C62.468 47.84 62.3 48.416 62 49.088C62.396 49.256 62.564 49.364 62.9 49.616C63.404 48.296 63.656 46.856 63.8 44.348L62.876 44.216ZM65.84 44.42C66.224 45.692 66.464 46.964 66.668 48.824L67.628 48.488C67.388 46.868 67.124 45.632 66.704 44.192L65.84 44.42ZM65.576 40.604C66.056 41.204 66.212 41.444 66.536 42.116L67.352 41.6C67.004 41 66.788 40.688 66.332 40.16L65.576 40.604ZM70.364 40.652C70.112 40.7 69.848 40.712 69.44 40.712H68.3C67.916 40.712 67.616 40.688 67.376 40.652V41.768C67.64 41.732 67.94 41.708 68.288 41.708H69.44C69.824 41.708 70.1 41.72 70.364 41.768V40.652ZM77.816 42.2C78.368 42.236 78.692 42.32 79.1 42.536C80.156 43.1 80.744 44.096 80.744 45.344C80.744 46.796 79.94 48.056 78.656 48.608C78.14 48.824 77.6 48.956 76.664 49.1C76.988 49.52 77.096 49.724 77.276 50.276C78.092 50.12 78.56 49.988 79.124 49.76C80.924 49.016 81.98 47.408 81.98 45.404C81.98 42.812 80.144 41.096 77.348 41.096C75.68 41.096 74.3 41.66 73.316 42.74C72.476 43.664 72.02 44.876 72.02 46.16C72.02 47.984 72.956 49.316 74.228 49.316C75.164 49.316 75.896 48.62 76.592 47.036C77.168 45.74 77.6 43.988 77.816 42.2ZM76.592 42.212C76.436 43.64 76.028 45.32 75.56 46.424C75.092 47.516 74.648 48.044 74.216 48.044C73.64 48.044 73.184 47.216 73.184 46.172C73.184 44.804 73.856 43.52 74.948 42.788C75.464 42.44 75.932 42.284 76.592 42.212ZM90.32 45.632C90.596 46.82 90.884 47.54 91.376 48.32C92.048 49.376 92.804 50.084 94.1 50.888C94.328 50.432 94.472 50.216 94.76 49.892C93.704 49.376 92.996 48.812 92.36 48.008C92.78 47.708 93.428 47.228 93.728 46.988C94.34 46.484 94.376 46.46 94.436 46.424L93.608 45.692C93.356 46.028 92.648 46.64 91.844 47.192C91.568 46.652 91.46 46.352 91.28 45.632H92.78C93.164 45.632 93.464 45.644 93.824 45.668C93.788 45.308 93.776 45.104 93.776 44.396V41.72C93.776 40.964 93.788 40.712 93.812 40.4C93.512 40.448 93.284 40.46 92.684 40.46H89.396C88.796 40.46 88.508 40.448 88.232 40.4C88.268 40.844 88.28 41.168 88.28 41.672V49.544C87.524 49.7 87.092 49.772 86.792 49.784L87.02 50.912C87.164 50.852 87.32 50.816 87.608 50.744C89.384 50.336 90.152 50.144 91.424 49.76L91.388 48.752C90.74 48.968 90.284 49.1 89.312 49.328V45.632H90.32ZM89.3 41.408H92.768V42.572H89.3V41.408ZM89.3 43.484H92.768V44.732H89.3V43.484ZM84.08 49.652C84.08 50.18 84.056 50.576 84.008 50.924H85.184C85.136 50.504 85.124 50.132 85.124 49.652V41.3H86.78C86.3 42.644 86.156 42.992 85.568 44.12C86.096 44.708 86.3 44.996 86.492 45.428C86.66 45.836 86.756 46.28 86.756 46.688C86.756 47.12 86.588 47.252 86.036 47.252C85.856 47.252 85.712 47.24 85.436 47.192C85.592 47.528 85.64 47.78 85.664 48.248C86.012 48.248 86.012 48.248 86.024 48.248C87.356 48.248 87.812 47.864 87.812 46.76C87.812 46.4 87.728 45.944 87.608 45.572C87.428 45.056 87.224 44.708 86.684 44.024C87.092 43.244 87.404 42.56 87.668 41.888C87.968 41.144 87.968 41.144 88.052 40.988L87.476 40.28C87.332 40.316 87.08 40.34 86.648 40.34H84.884C84.488 40.34 84.236 40.328 84.044 40.304C84.068 40.7 84.08 40.988 84.08 41.324V49.652ZM99.44 43.724V44.912C99.44 45.152 99.416 45.428 99.392 45.656C99.572 45.632 99.764 45.632 100.244 45.632H103.304C103.76 45.632 103.856 45.632 104.084 45.656C104.06 45.44 104.048 45.188 104.048 44.912V43.724H105.32C105.86 43.724 106.124 43.736 106.4 43.784V42.764C106.076 42.812 105.824 42.824 105.32 42.824H104.048V42.74C104.048 42.464 104.06 42.248 104.096 42.056H102.956C102.98 42.272 103.004 42.5 103.004 42.728V42.824H100.484V42.692C100.484 42.512 100.484 42.404 100.532 42.056H99.392C99.416 42.236 99.44 42.452 99.44 42.716V42.824H97.556V41.816H105.104C105.668 41.816 105.968 41.828 106.364 41.864V40.808C106.016 40.856 105.632 40.88 104.972 40.88H101.864V40.592C101.864 40.28 101.876 40.076 101.924 39.86H100.712C100.76 40.1 100.784 40.304 100.784 40.58V40.88H97.736C97.244 40.88 96.836 40.856 96.428 40.82C96.464 41.192 96.476 41.552 96.476 42.344C96.476 45.236 96.38 46.592 96.116 47.888C95.948 48.68 95.744 49.22 95.336 49.964C95.696 50.252 95.9 50.468 96.188 50.864C97.184 49.076 97.472 47.576 97.544 43.724H99.44ZM100.484 43.724H103.004V44.756H100.484V43.724ZM104.48 46.364C104.204 46.388 103.988 46.4 103.556 46.4H99.296C98.672 46.4 98.336 46.388 98.048 46.34V47.312C98.336 47.276 98.408 47.276 99.032 47.264C99.656 48.14 100.04 48.524 100.796 49.1C99.716 49.556 98.66 49.796 97.112 49.928C97.352 50.36 97.436 50.588 97.532 50.972C99.32 50.696 100.484 50.348 101.732 49.7C102.872 50.336 104.144 50.696 106.028 50.948C106.148 50.504 106.28 50.18 106.472 49.82C105.02 49.76 103.856 49.532 102.764 49.088C103.448 48.62 104.048 48.092 104.576 47.492C104.912 47.108 104.948 47.072 105.044 46.964L104.48 46.364ZM103.448 47.264C102.848 47.888 102.5 48.152 101.78 48.596C101.072 48.164 100.592 47.756 100.232 47.264H103.448ZM111.944 42.86C111.776 42.896 111.536 42.908 111.164 42.908H110.132C110.228 42.74 110.24 42.716 110.348 42.524C110.384 42.44 110.408 42.404 110.444 42.332L109.496 42.104C109.424 42.356 109.316 42.608 109.1 42.944C108.68 43.628 108.14 44.18 107.42 44.66C107.636 44.864 107.84 45.128 108.008 45.416C108.38 45.116 108.584 44.948 108.92 44.576C109.16 44.9 109.34 45.08 109.712 45.428C108.968 46.004 108.248 46.4 107.264 46.724C107.504 46.976 107.648 47.228 107.792 47.636C108.104 47.492 108.224 47.432 108.428 47.324C108.44 47.576 108.44 47.696 108.44 47.912V49.724C108.44 50.18 108.416 50.564 108.38 50.84H109.412V50.18H111.26V50.672H112.256C112.232 50.432 112.232 50.372 112.232 50.192C112.484 50.432 112.604 50.564 112.892 51.008C113.804 50.564 114.428 50.096 115.172 49.292L114.38 48.644C113.936 49.136 113.624 49.4 113.096 49.736C112.796 49.916 112.652 49.988 112.232 50.156C112.232 50.084 112.232 49.916 112.232 49.616V47.984C112.232 47.528 112.244 47.24 112.268 47.024C112.436 47.096 112.472 47.108 112.688 47.192C112.808 46.772 112.892 46.568 113.084 46.28C112.076 45.932 111.68 45.764 111.056 45.392C111.524 44.888 111.848 44.444 112.316 43.688C112.376 43.592 112.388 43.592 112.46 43.484C112.472 43.472 112.484 43.448 112.508 43.424L112.052 42.92H112.892C112.856 42.74 112.856 42.584 112.856 42.176V41.84C112.856 41.6 112.856 41.528 112.868 41.336C113.12 41.3 113.552 41.276 114.032 41.276H115.196C115.124 41.54 115.052 41.756 114.836 42.308H114.164C113.588 42.308 113.432 42.308 113.144 42.272C113.18 42.704 113.192 42.896 113.192 43.4V47.528C113.192 47.828 113.168 48.308 113.156 48.62C113.72 48.584 113.792 48.584 114.128 48.584H116.924C117.26 48.584 117.548 48.596 117.956 48.62C117.932 48.212 117.92 47.936 117.92 47.42V43.34C117.92 42.86 117.92 42.62 117.956 42.26C117.704 42.296 117.476 42.308 116.816 42.308H115.868C116.012 41.948 116.108 41.66 116.228 41.276H117.2C117.776 41.276 118.04 41.288 118.436 41.336V40.256C118.184 40.304 117.836 40.316 117.2 40.316H114.032C113.384 40.316 113.168 40.304 112.808 40.256V41.06C112.628 41.084 112.412 41.084 111.932 41.084H110.852V40.796C110.852 40.424 110.864 40.244 110.912 40.016H109.736C109.796 40.28 109.808 40.448 109.808 40.784V41.084H108.62C108.104 41.084 107.828 41.072 107.648 41.048C107.684 41.384 107.696 41.588 107.696 41.828V42.404C107.696 42.656 107.684 42.872 107.648 43.124H108.656V41.972H111.944V42.86ZM109.268 47.012H109.004C109.628 46.64 109.976 46.388 110.42 46.004C110.888 46.352 111.5 46.688 112.172 46.988C112.016 47 111.764 47.012 111.428 47.012H109.268ZM111.224 43.748C110.804 44.36 110.648 44.564 110.336 44.888C109.964 44.564 109.784 44.384 109.448 43.952C109.508 43.88 109.532 43.844 109.604 43.748H111.224ZM109.412 47.852H111.26V49.304H109.412V47.852ZM114.164 43.196H116.924V44.084H114.164V43.196ZM114.164 44.96H116.924V45.848H114.164V44.96ZM114.164 46.724H116.924V47.672H114.164V46.724ZM115.712 49.304C116.492 50.108 117.068 50.516 118.124 51.032C118.304 50.66 118.496 50.384 118.76 50.072C117.608 49.58 117.2 49.328 116.468 48.644L115.712 49.304Z" fill="black"/>
<path d="M48.7665 59.998V59.92H44.3725C44.2685 59.92 44.2165 59.972 44.2165 60.076V62.104C44.2165 62.2773 44.1298 62.364 43.9565 62.364H41.7205C41.5471 62.364 41.4605 62.2773 41.4605 62.104V57.58C41.4605 57.4067 41.5471 57.32 41.7205 57.32H51.6265C51.7998 57.32 51.8865 57.4067 51.8865 57.58V59.608C51.8865 59.7987 51.8605 59.9547 51.8085 60.076L45.9585 74.766C45.9238 74.8527 45.8805 74.9133 45.8285 74.948C45.7938 74.9827 45.7245 75 45.6205 75H43.1505C42.9598 75 42.9078 74.9047 42.9945 74.714L48.7665 59.998ZM54.456 71.828C54.404 71.6547 54.352 71.4553 54.3 71.23C54.248 70.9873 54.2047 70.6667 54.17 70.268C54.1527 69.852 54.1353 69.3233 54.118 68.682C54.1007 68.0233 54.092 67.1827 54.092 66.16C54.092 65.1373 54.1007 64.3053 54.118 63.664C54.1353 63.0053 54.1527 62.4767 54.17 62.078C54.2047 61.662 54.248 61.3413 54.3 61.116C54.352 60.8907 54.404 60.6827 54.456 60.492C54.8027 59.3827 55.392 58.5333 56.224 57.944C57.0733 57.3373 58.1567 57.034 59.474 57.034C60.7913 57.034 61.866 57.3373 62.698 57.944C63.5473 58.5333 64.154 59.3827 64.518 60.492C64.57 60.6827 64.622 60.8907 64.674 61.116C64.726 61.3413 64.7607 61.662 64.778 62.078C64.8127 62.4767 64.8387 63.0053 64.856 63.664C64.8733 64.3053 64.882 65.1373 64.882 66.16C64.882 67.1827 64.8733 68.0233 64.856 68.682C64.8387 69.3233 64.8127 69.852 64.778 70.268C64.7607 70.6667 64.726 70.9873 64.674 71.23C64.622 71.4553 64.57 71.6547 64.518 71.828C64.154 72.9373 63.5473 73.7953 62.698 74.402C61.866 74.9913 60.7913 75.286 59.474 75.286C58.1567 75.286 57.0733 74.9913 56.224 74.402C55.392 73.7953 54.8027 72.9373 54.456 71.828ZM57.316 71.282C57.6453 72.218 58.3647 72.686 59.474 72.686C60.5833 72.686 61.3113 72.218 61.658 71.282C61.71 71.1433 61.7447 70.9873 61.762 70.814C61.7967 70.6407 61.8227 70.372 61.84 70.008C61.8573 69.644 61.866 69.1587 61.866 68.552C61.8833 67.9453 61.892 67.148 61.892 66.16C61.892 65.172 61.8833 64.3747 61.866 63.768C61.866 63.1613 61.8573 62.676 61.84 62.312C61.8227 61.948 61.7967 61.6793 61.762 61.506C61.7447 61.3327 61.71 61.1767 61.658 61.038C61.3113 60.102 60.5833 59.634 59.474 59.634C58.3647 59.634 57.6453 60.102 57.316 61.038C57.264 61.1767 57.2207 61.3327 57.186 61.506C57.1687 61.6793 57.1513 61.948 57.134 62.312C57.1167 62.676 57.0993 63.1613 57.082 63.768C57.082 64.3747 57.082 65.172 57.082 66.16C57.082 67.148 57.082 67.9453 57.082 68.552C57.0993 69.1587 57.1167 69.644 57.134 70.008C57.1513 70.372 57.1687 70.6407 57.186 70.814C57.2207 70.9873 57.264 71.1433 57.316 71.282Z" fill="#00655A"/>
<path d="M70.676 66.22C70.628 67.9 70.628 67.9 70.496 68.752C70.22 70.444 69.68 71.752 68.78 72.88C68.264 73.528 67.832 73.912 66.98 74.476C67.352 74.764 67.592 75.028 67.844 75.424C68.864 74.68 69.488 74.044 70.1 73.108C70.844 71.956 71.24 70.912 71.54 69.304H75.5C75.416 71.416 75.284 72.604 75.032 73.528C74.912 74.008 74.72 74.14 74.192 74.14C73.616 74.14 73.088 74.08 72.08 73.9C72.224 74.26 72.308 74.596 72.344 75.076C73.256 75.16 73.712 75.184 74.108 75.184C75.212 75.184 75.692 74.944 75.98 74.272C76.28 73.564 76.556 71.512 76.628 69.388C76.652 68.548 76.652 68.44 76.7 68.2C76.352 68.248 75.92 68.26 75.212 68.26H71.684C71.768 67.552 71.792 67.18 71.816 66.22H76.472C77 66.22 77.48 66.244 77.9 66.292V65.092C77.456 65.14 77.012 65.164 76.472 65.164H68.612C68.048 65.164 67.604 65.14 67.172 65.092V66.292C67.592 66.244 68.084 66.22 68.612 66.22H70.676ZM80.804 70.6H88.22V73.852C88.22 74.104 88.136 74.152 87.644 74.152C87.188 74.152 86.576 74.104 85.796 74.02C85.964 74.44 86.036 74.704 86.084 75.1C86.564 75.136 87.272 75.16 87.74 75.16C89.024 75.16 89.348 74.932 89.348 74.032V66.268C89.348 65.68 89.36 65.392 89.396 65.044C89.084 65.08 88.784 65.092 88.172 65.092H80.876C80.3 65.092 80 65.08 79.628 65.044C79.664 65.38 79.676 65.68 79.676 66.16V73.948C79.676 74.584 79.652 74.98 79.604 75.34H80.864C80.816 75.064 80.804 74.764 80.804 73.996V70.6ZM83.876 69.556H80.804V66.148H83.876V69.556ZM84.992 69.556V66.148H88.22V69.556H84.992Z" fill="#00655A"/>
<rect x="133" y="27" width="127" height="60" fill="white" stroke="#00655A" stroke-width="2"/>
<path d="M166.256 42.56C165.668 42.56 165.296 42.548 164.936 42.5C164.972 42.86 164.984 43.148 164.984 43.88V47.672C164.984 48.272 164.96 48.644 164.924 48.956H166.064C166.016 48.68 165.992 48.344 165.992 47.672V46.94H167.876V47.54C167.876 48.14 167.852 48.524 167.804 48.848H168.932C168.872 48.476 168.86 48.188 168.86 47.54V46.94H170.936V47.684C170.936 47.984 170.9 48.02 170.624 48.02C170.408 48.02 170.108 47.996 169.76 47.936C169.904 48.248 169.964 48.5 170 48.896C170.108 48.896 170.672 48.908 170.732 48.908C171.74 48.908 171.956 48.704 171.956 47.72V43.916C171.956 43.232 171.968 42.812 172.004 42.5C171.716 42.548 171.356 42.56 170.744 42.56H169.544C170.192 42.176 170.792 41.744 171.308 41.324C171.752 40.964 171.752 40.964 171.908 40.856L171.416 40.244C171.2 40.304 170.864 40.316 170.12 40.316H166.112C165.464 40.316 165.104 40.292 164.756 40.244V41.276C165.116 41.228 165.404 41.216 165.98 41.216H170.012C169.46 41.672 169.148 41.888 168.524 42.272C167.852 41.792 167.504 41.552 166.988 41.24L166.196 41.756C166.592 41.948 167 42.2 167.516 42.56H166.256ZM168.86 43.4H170.936V44.348H168.86V43.4ZM167.876 43.4V44.348H165.992V43.4H167.876ZM165.992 45.152H167.876V46.112H165.992V45.152ZM170.936 46.112H168.86V45.152H170.936V46.112ZM161.504 40.856C162.332 41.612 162.824 42.164 163.472 43.076L164.312 42.272C163.712 41.48 163.148 40.88 162.296 40.124L161.504 40.856ZM161.48 45.704C161.744 45.656 161.948 45.644 162.26 45.644H162.92V48.332C162.332 48.908 161.72 49.376 161.288 49.58L161.84 50.684C162.296 50.312 162.536 50.096 162.584 50.06C162.956 49.724 162.956 49.724 163.4 49.244C163.76 49.7 163.952 49.892 164.3 50.096C165.008 50.528 165.86 50.66 168.032 50.66C169.484 50.66 170.876 50.636 172.28 50.576C172.34 50.144 172.448 49.748 172.592 49.364C171.008 49.568 169.436 49.652 167.432 49.652C166.22 49.652 165.392 49.544 164.948 49.328C164.468 49.076 164.204 48.836 163.94 48.344V45.872C163.94 45.248 163.952 44.924 164 44.576C163.7 44.624 163.46 44.636 163.088 44.636H162.368C161.972 44.636 161.756 44.624 161.48 44.576V45.704ZM179.084 46.1C179.024 47.288 178.844 47.936 178.412 48.548C177.92 49.244 177.248 49.688 176.06 50.084C176.384 50.396 176.528 50.576 176.768 50.972C178.064 50.396 178.796 49.856 179.288 49.088C179.804 48.284 180.008 47.516 180.092 46.1H181.088V49.964C181.088 50.588 181.448 50.768 182.744 50.768C184.232 50.768 184.424 50.504 184.616 48.32C184.172 48.224 184.004 48.164 183.62 47.96C183.584 48.896 183.536 49.352 183.44 49.556C183.356 49.724 183.212 49.784 182.816 49.784C182.228 49.784 182.12 49.736 182.12 49.52V46.1H183.248C183.716 46.1 184.064 46.124 184.4 46.172V45.116C184.064 45.164 183.788 45.176 183.248 45.176H178.796C178.34 45.176 177.992 45.152 177.668 45.116V46.16C178.004 46.112 178.268 46.1 178.784 46.1H179.084ZM177.512 42.836C177.512 43.172 177.5 43.376 177.476 43.592L177.464 43.7H178.472V44.192C178.736 44.156 179.036 44.144 179.408 44.144H182.384C182.744 44.144 182.996 44.156 183.308 44.192V43.724H184.364C184.328 43.448 184.316 43.256 184.316 42.884V41.984C184.316 41.552 184.328 41.42 184.352 41.156C184.04 41.204 183.704 41.216 183.248 41.216H181.316V40.808C181.316 40.4 181.328 40.184 181.376 39.944H180.152C180.188 40.184 180.212 40.448 180.212 40.784V41.216H178.664C178.16 41.216 177.884 41.204 177.572 41.18C177.632 41.036 177.68 40.928 177.716 40.844L177.236 40.292C177.068 40.328 176.888 40.34 176.492 40.34H174.74C174.368 40.34 174.104 40.328 173.912 40.304C173.936 40.676 173.948 40.964 173.948 41.324V49.664C173.948 50.168 173.924 50.576 173.876 50.936H175.028C174.98 50.564 174.968 50.228 174.968 49.688V41.3H176.432C176.108 42.32 175.748 43.208 175.304 44.096C175.712 44.588 175.928 44.888 176.084 45.2C176.36 45.716 176.516 46.268 176.516 46.724C176.516 46.94 176.468 47.144 176.396 47.204C176.324 47.252 176.168 47.288 175.94 47.288C175.736 47.288 175.52 47.264 175.292 47.216C175.424 47.564 175.484 47.816 175.508 48.296C175.568 48.296 175.604 48.296 175.64 48.296C175.988 48.296 176.372 48.26 176.624 48.224C177.236 48.104 177.524 47.684 177.524 46.928C177.524 46.448 177.428 45.896 177.248 45.44C177.08 44.984 176.888 44.66 176.408 43.976C176.876 42.968 177.08 42.488 177.488 41.396C177.5 41.54 177.512 41.78 177.512 41.984V42.836ZM183.272 43.172C182.996 43.208 182.828 43.22 182.384 43.22H179.42C178.964 43.22 178.784 43.208 178.52 43.172V42.176H183.272V43.172ZM191.816 42.2C192.368 42.236 192.692 42.32 193.1 42.536C194.156 43.1 194.744 44.096 194.744 45.344C194.744 46.796 193.94 48.056 192.656 48.608C192.14 48.824 191.6 48.956 190.664 49.1C190.988 49.52 191.096 49.724 191.276 50.276C192.092 50.12 192.56 49.988 193.124 49.76C194.924 49.016 195.98 47.408 195.98 45.404C195.98 42.812 194.144 41.096 191.348 41.096C189.68 41.096 188.3 41.66 187.316 42.74C186.476 43.664 186.02 44.876 186.02 46.16C186.02 47.984 186.956 49.316 188.228 49.316C189.164 49.316 189.896 48.62 190.592 47.036C191.168 45.74 191.6 43.988 191.816 42.2ZM190.592 42.212C190.436 43.64 190.028 45.32 189.56 46.424C189.092 47.516 188.648 48.044 188.216 48.044C187.64 48.044 187.184 47.216 187.184 46.172C187.184 44.804 187.856 43.52 188.948 42.788C189.464 42.44 189.932 42.284 190.592 42.212ZM204.32 45.632C204.596 46.82 204.884 47.54 205.376 48.32C206.048 49.376 206.804 50.084 208.1 50.888C208.328 50.432 208.472 50.216 208.76 49.892C207.704 49.376 206.996 48.812 206.36 48.008C206.78 47.708 207.428 47.228 207.728 46.988C208.34 46.484 208.376 46.46 208.436 46.424L207.608 45.692C207.356 46.028 206.648 46.64 205.844 47.192C205.568 46.652 205.46 46.352 205.28 45.632H206.78C207.164 45.632 207.464 45.644 207.824 45.668C207.788 45.308 207.776 45.104 207.776 44.396V41.72C207.776 40.964 207.788 40.712 207.812 40.4C207.512 40.448 207.284 40.46 206.684 40.46H203.396C202.796 40.46 202.508 40.448 202.232 40.4C202.268 40.844 202.28 41.168 202.28 41.672V49.544C201.524 49.7 201.092 49.772 200.792 49.784L201.02 50.912C201.164 50.852 201.32 50.816 201.608 50.744C203.384 50.336 204.152 50.144 205.424 49.76L205.388 48.752C204.74 48.968 204.284 49.1 203.312 49.328V45.632H204.32ZM203.3 41.408H206.768V42.572H203.3V41.408ZM203.3 43.484H206.768V44.732H203.3V43.484ZM198.08 49.652C198.08 50.18 198.056 50.576 198.008 50.924H199.184C199.136 50.504 199.124 50.132 199.124 49.652V41.3H200.78C200.3 42.644 200.156 42.992 199.568 44.12C200.096 44.708 200.3 44.996 200.492 45.428C200.66 45.836 200.756 46.28 200.756 46.688C200.756 47.12 200.588 47.252 200.036 47.252C199.856 47.252 199.712 47.24 199.436 47.192C199.592 47.528 199.64 47.78 199.664 48.248C200.012 48.248 200.012 48.248 200.024 48.248C201.356 48.248 201.812 47.864 201.812 46.76C201.812 46.4 201.728 45.944 201.608 45.572C201.428 45.056 201.224 44.708 200.684 44.024C201.092 43.244 201.404 42.56 201.668 41.888C201.968 41.144 201.968 41.144 202.052 40.988L201.476 40.28C201.332 40.316 201.08 40.34 200.648 40.34H198.884C198.488 40.34 198.236 40.328 198.044 40.304C198.068 40.7 198.08 40.988 198.08 41.324V49.652ZM213.44 43.724V44.912C213.44 45.152 213.416 45.428 213.392 45.656C213.572 45.632 213.764 45.632 214.244 45.632H217.304C217.76 45.632 217.856 45.632 218.084 45.656C218.06 45.44 218.048 45.188 218.048 44.912V43.724H219.32C219.86 43.724 220.124 43.736 220.4 43.784V42.764C220.076 42.812 219.824 42.824 219.32 42.824H218.048V42.74C218.048 42.464 218.06 42.248 218.096 42.056H216.956C216.98 42.272 217.004 42.5 217.004 42.728V42.824H214.484V42.692C214.484 42.512 214.484 42.404 214.532 42.056H213.392C213.416 42.236 213.44 42.452 213.44 42.716V42.824H211.556V41.816H219.104C219.668 41.816 219.968 41.828 220.364 41.864V40.808C220.016 40.856 219.632 40.88 218.972 40.88H215.864V40.592C215.864 40.28 215.876 40.076 215.924 39.86H214.712C214.76 40.1 214.784 40.304 214.784 40.58V40.88H211.736C211.244 40.88 210.836 40.856 210.428 40.82C210.464 41.192 210.476 41.552 210.476 42.344C210.476 45.236 210.38 46.592 210.116 47.888C209.948 48.68 209.744 49.22 209.336 49.964C209.696 50.252 209.9 50.468 210.188 50.864C211.184 49.076 211.472 47.576 211.544 43.724H213.44ZM214.484 43.724H217.004V44.756H214.484V43.724ZM218.48 46.364C218.204 46.388 217.988 46.4 217.556 46.4H213.296C212.672 46.4 212.336 46.388 212.048 46.34V47.312C212.336 47.276 212.408 47.276 213.032 47.264C213.656 48.14 214.04 48.524 214.796 49.1C213.716 49.556 212.66 49.796 211.112 49.928C211.352 50.36 211.436 50.588 211.532 50.972C213.32 50.696 214.484 50.348 215.732 49.7C216.872 50.336 218.144 50.696 220.028 50.948C220.148 50.504 220.28 50.18 220.472 49.82C219.02 49.76 217.856 49.532 216.764 49.088C217.448 48.62 218.048 48.092 218.576 47.492C218.912 47.108 218.948 47.072 219.044 46.964L218.48 46.364ZM217.448 47.264C216.848 47.888 216.5 48.152 215.78 48.596C215.072 48.164 214.592 47.756 214.232 47.264H217.448ZM225.944 42.86C225.776 42.896 225.536 42.908 225.164 42.908H224.132C224.228 42.74 224.24 42.716 224.348 42.524C224.384 42.44 224.408 42.404 224.444 42.332L223.496 42.104C223.424 42.356 223.316 42.608 223.1 42.944C222.68 43.628 222.14 44.18 221.42 44.66C221.636 44.864 221.84 45.128 222.008 45.416C222.38 45.116 222.584 44.948 222.92 44.576C223.16 44.9 223.34 45.08 223.712 45.428C222.968 46.004 222.248 46.4 221.264 46.724C221.504 46.976 221.648 47.228 221.792 47.636C222.104 47.492 222.224 47.432 222.428 47.324C222.44 47.576 222.44 47.696 222.44 47.912V49.724C222.44 50.18 222.416 50.564 222.38 50.84H223.412V50.18H225.26V50.672H226.256C226.232 50.432 226.232 50.372 226.232 50.192C226.484 50.432 226.604 50.564 226.892 51.008C227.804 50.564 228.428 50.096 229.172 49.292L228.38 48.644C227.936 49.136 227.624 49.4 227.096 49.736C226.796 49.916 226.652 49.988 226.232 50.156C226.232 50.084 226.232 49.916 226.232 49.616V47.984C226.232 47.528 226.244 47.24 226.268 47.024C226.436 47.096 226.472 47.108 226.688 47.192C226.808 46.772 226.892 46.568 227.084 46.28C226.076 45.932 225.68 45.764 225.056 45.392C225.524 44.888 225.848 44.444 226.316 43.688C226.376 43.592 226.388 43.592 226.46 43.484C226.472 43.472 226.484 43.448 226.508 43.424L226.052 42.92H226.892C226.856 42.74 226.856 42.584 226.856 42.176V41.84C226.856 41.6 226.856 41.528 226.868 41.336C227.12 41.3 227.552 41.276 228.032 41.276H229.196C229.124 41.54 229.052 41.756 228.836 42.308H228.164C227.588 42.308 227.432 42.308 227.144 42.272C227.18 42.704 227.192 42.896 227.192 43.4V47.528C227.192 47.828 227.168 48.308 227.156 48.62C227.72 48.584 227.792 48.584 228.128 48.584H230.924C231.26 48.584 231.548 48.596 231.956 48.62C231.932 48.212 231.92 47.936 231.92 47.42V43.34C231.92 42.86 231.92 42.62 231.956 42.26C231.704 42.296 231.476 42.308 230.816 42.308H229.868C230.012 41.948 230.108 41.66 230.228 41.276H231.2C231.776 41.276 232.04 41.288 232.436 41.336V40.256C232.184 40.304 231.836 40.316 231.2 40.316H228.032C227.384 40.316 227.168 40.304 226.808 40.256V41.06C226.628 41.084 226.412 41.084 225.932 41.084H224.852V40.796C224.852 40.424 224.864 40.244 224.912 40.016H223.736C223.796 40.28 223.808 40.448 223.808 40.784V41.084H222.62C222.104 41.084 221.828 41.072 221.648 41.048C221.684 41.384 221.696 41.588 221.696 41.828V42.404C221.696 42.656 221.684 42.872 221.648 43.124H222.656V41.972H225.944V42.86ZM223.268 47.012H223.004C223.628 46.64 223.976 46.388 224.42 46.004C224.888 46.352 225.5 46.688 226.172 46.988C226.016 47 225.764 47.012 225.428 47.012H223.268ZM225.224 43.748C224.804 44.36 224.648 44.564 224.336 44.888C223.964 44.564 223.784 44.384 223.448 43.952C223.508 43.88 223.532 43.844 223.604 43.748H225.224ZM223.412 47.852H225.26V49.304H223.412V47.852ZM228.164 43.196H230.924V44.084H228.164V43.196ZM228.164 44.96H230.924V45.848H228.164V44.96ZM228.164 46.724H230.924V47.672H228.164V46.724ZM229.712 49.304C230.492 50.108 231.068 50.516 232.124 51.032C232.304 50.66 232.496 50.384 232.76 50.072C231.608 49.58 231.2 49.328 230.468 48.644L229.712 49.304Z" fill="black"/>
<path d="M173.252 72.79C173.252 72.6513 173.296 72.5387 173.382 72.452L179.622 64.678C179.969 64.2447 180.246 63.8113 180.454 63.378C180.662 62.9447 180.766 62.4767 180.766 61.974C180.766 61.3153 180.558 60.7607 180.142 60.31C179.744 59.8593 179.172 59.634 178.426 59.634C177.716 59.634 177.161 59.8333 176.762 60.232C176.364 60.6307 176.121 61.168 176.034 61.844C176 62.0173 175.904 62.0867 175.748 62.052L173.46 61.584C173.287 61.5493 173.218 61.4453 173.252 61.272C173.304 60.752 173.452 60.2407 173.694 59.738C173.937 59.2353 174.275 58.7847 174.708 58.386C175.142 57.97 175.67 57.6407 176.294 57.398C176.936 57.1553 177.672 57.034 178.504 57.034C179.336 57.034 180.073 57.164 180.714 57.424C181.356 57.684 181.893 58.0393 182.326 58.49C182.777 58.9233 183.115 59.4433 183.34 60.05C183.583 60.6393 183.704 61.2807 183.704 61.974C183.704 62.7713 183.557 63.508 183.262 64.184C182.968 64.8427 182.56 65.484 182.04 66.108L176.892 72.348V72.4H183.444C183.618 72.4 183.704 72.4867 183.704 72.66V74.74C183.704 74.9133 183.618 75 183.444 75H173.512C173.339 75 173.252 74.9133 173.252 74.74V72.79ZM185.78 69.982C185.78 68.9767 185.997 68.1187 186.43 67.408C186.863 66.68 187.383 66.1253 187.99 65.744V65.692C187.539 65.3973 187.123 64.938 186.742 64.314C186.361 63.69 186.17 62.9447 186.17 62.078C186.17 61.4193 186.283 60.7867 186.508 60.18C186.751 59.5733 187.097 59.036 187.548 58.568C187.999 58.1 188.553 57.7273 189.212 57.45C189.871 57.1727 190.625 57.034 191.474 57.034C192.323 57.034 193.077 57.1727 193.736 57.45C194.412 57.7273 194.975 58.1 195.426 58.568C195.877 59.036 196.215 59.5733 196.44 60.18C196.683 60.7867 196.804 61.4193 196.804 62.078C196.804 62.9447 196.613 63.69 196.232 64.314C195.851 64.938 195.435 65.3973 194.984 65.692V65.744C195.591 66.1253 196.111 66.68 196.544 67.408C196.977 68.1187 197.194 68.9767 197.194 69.982C197.194 70.762 197.055 71.4813 196.778 72.14C196.501 72.7813 196.102 73.336 195.582 73.804C195.079 74.272 194.473 74.636 193.762 74.896C193.069 75.156 192.306 75.286 191.474 75.286C190.642 75.286 189.879 75.156 189.186 74.896C188.493 74.636 187.886 74.272 187.366 73.804C186.863 73.336 186.473 72.7813 186.196 72.14C185.919 71.4813 185.78 70.762 185.78 69.982ZM191.474 64.418C192.202 64.418 192.783 64.184 193.216 63.716C193.649 63.2307 193.866 62.6673 193.866 62.026C193.866 61.3673 193.649 60.804 193.216 60.336C192.783 59.868 192.202 59.634 191.474 59.634C190.746 59.634 190.165 59.868 189.732 60.336C189.316 60.804 189.108 61.3673 189.108 62.026C189.108 62.6673 189.316 63.2307 189.732 63.716C190.165 64.184 190.746 64.418 191.474 64.418ZM188.718 69.852C188.718 70.684 188.969 71.3687 189.472 71.906C189.975 72.426 190.642 72.686 191.474 72.686C192.323 72.686 192.999 72.426 193.502 71.906C194.005 71.3687 194.256 70.684 194.256 69.852C194.256 69.02 194.005 68.344 193.502 67.824C192.999 67.2867 192.323 67.018 191.474 67.018C190.642 67.018 189.975 67.2867 189.472 67.824C188.969 68.344 188.718 69.02 188.718 69.852Z" fill="#00655A"/>
<path d="M202.676 66.22C202.628 67.9 202.628 67.9 202.496 68.752C202.22 70.444 201.68 71.752 200.78 72.88C200.264 73.528 199.832 73.912 198.98 74.476C199.352 74.764 199.592 75.028 199.844 75.424C200.864 74.68 201.488 74.044 202.1 73.108C202.844 71.956 203.24 70.912 203.54 69.304H207.5C207.416 71.416 207.284 72.604 207.032 73.528C206.912 74.008 206.72 74.14 206.192 74.14C205.616 74.14 205.088 74.08 204.08 73.9C204.224 74.26 204.308 74.596 204.344 75.076C205.256 75.16 205.712 75.184 206.108 75.184C207.212 75.184 207.692 74.944 207.98 74.272C208.28 73.564 208.556 71.512 208.628 69.388C208.652 68.548 208.652 68.44 208.7 68.2C208.352 68.248 207.92 68.26 207.212 68.26H203.684C203.768 67.552 203.792 67.18 203.816 66.22H208.472C209 66.22 209.48 66.244 209.9 66.292V65.092C209.456 65.14 209.012 65.164 208.472 65.164H200.612C200.048 65.164 199.604 65.14 199.172 65.092V66.292C199.592 66.244 200.084 66.22 200.612 66.22H202.676ZM212.804 70.6H220.22V73.852C220.22 74.104 220.136 74.152 219.644 74.152C219.188 74.152 218.576 74.104 217.796 74.02C217.964 74.44 218.036 74.704 218.084 75.1C218.564 75.136 219.272 75.16 219.74 75.16C221.024 75.16 221.348 74.932 221.348 74.032V66.268C221.348 65.68 221.36 65.392 221.396 65.044C221.084 65.08 220.784 65.092 220.172 65.092H212.876C212.3 65.092 212 65.08 211.628 65.044C211.664 65.38 211.676 65.68 211.676 66.16V73.948C211.676 74.584 211.652 74.98 211.604 75.34H212.864C212.816 75.064 212.804 74.764 212.804 73.996V70.6ZM215.876 69.556H212.804V66.148H215.876V69.556ZM216.992 69.556V66.148H220.22V69.556H216.992Z" fill="#00655A"/>
<path d="M74.285 13.325H73.37C72.695 13.325 72.23 13.295 71.78 13.235V14.69C72.245 14.63 72.71 14.6 73.37 14.6H78.575V16.7C78.575 17.45 78.56 17.81 78.485 18.23H80.06C79.985 17.81 79.955 17.435 79.955 16.715V14.6H83.555C84.215 14.6 84.695 14.63 85.145 14.69V13.235C84.71 13.295 84.245 13.325 83.555 13.325H79.955V10.685H82.52C83.135 10.685 83.54 10.7 83.945 10.745V9.395C83.54 9.455 83.135 9.47 82.49 9.47H79.955V7.325H83.15C83.795 7.325 84.17 7.34 84.59 7.4V6.02C84.185 6.08 83.825 6.095 83.15 6.095H75.95C75.98 6.02 76.04 5.9 76.13 5.72C76.31 5.315 76.31 5.315 76.445 5.03C76.52 4.865 76.535 4.835 76.655 4.61L75.155 4.28C75.095 4.58 74.99 4.895 74.795 5.36C74.135 6.92 73.355 7.94 71.84 9.23C72.26 9.575 72.455 9.8 72.785 10.31C73.76 9.44 74.48 8.585 75.26 7.325H78.575V9.47H75.29C74.9 9.47 74.57 9.455 74.24 9.425C74.27 9.71 74.285 9.965 74.285 10.295V13.325ZM75.605 13.325V10.685H78.575V13.325H75.605ZM88.625 9.8H91.355C91.925 9.8 92.39 9.815 92.795 9.845C92.765 9.5 92.75 9.125 92.75 8.48V6.335C92.75 5.75 92.765 5.39 92.795 4.925C92.375 4.97 92.03 4.985 91.265 4.985H88.805C88.055 4.985 87.665 4.97 87.26 4.925C87.305 5.405 87.32 5.825 87.32 6.605V16.355C87.32 17.24 87.29 17.705 87.23 18.14H88.715C88.655 17.75 88.625 17.24 88.625 16.355V9.8ZM88.625 6.005H91.52V6.92H88.625V6.005ZM88.625 7.88H91.52V8.81H88.625V7.88ZM99.695 6.59C99.695 5.87 99.71 5.495 99.77 4.925C99.35 4.97 98.975 4.985 98.195 4.985H95.48C94.715 4.985 94.355 4.97 93.95 4.925C93.98 5.36 93.995 5.825 93.995 6.335V8.48C93.995 9.05 93.98 9.44 93.95 9.845C94.355 9.815 94.82 9.8 95.39 9.8H98.39V16.31C98.39 16.64 98.27 16.715 97.76 16.715C97.37 16.715 96.83 16.67 96.05 16.565C96.245 17.045 96.32 17.33 96.41 17.915C96.665 17.93 97.52 17.96 97.85 17.96C99.305 17.96 99.695 17.63 99.695 16.46V6.59ZM95.225 6.005H98.39V6.92H95.225V6.005ZM95.225 7.88H98.39V8.81H95.225V7.88ZM96.395 12.17C96.395 11.585 96.41 11.195 96.44 10.79C96.035 10.835 95.66 10.85 95.015 10.85H91.91C91.28 10.85 90.89 10.835 90.485 10.79C90.515 11.21 90.53 11.63 90.53 12.17V15.71C90.53 16.31 90.515 16.73 90.455 17.165H91.775V16.25H94.97C95.57 16.25 95.99 16.265 96.44 16.295C96.41 15.92 96.395 15.53 96.395 14.96V12.17ZM91.775 11.9H95.165V12.995H91.775V11.9ZM91.775 14.03H95.165V15.2H91.775V14.03ZM109.52 7.25C110.21 7.295 110.615 7.4 111.125 7.67C112.445 8.375 113.18 9.62 113.18 11.18C113.18 12.995 112.175 14.57 110.57 15.26C109.925 15.53 109.25 15.695 108.08 15.875C108.485 16.4 108.62 16.655 108.845 17.345C109.865 17.15 110.45 16.985 111.155 16.7C113.405 15.77 114.725 13.76 114.725 11.255C114.725 8.015 112.43 5.87 108.935 5.87C106.85 5.87 105.125 6.575 103.895 7.925C102.845 9.08 102.275 10.595 102.275 12.2C102.275 14.48 103.445 16.145 105.035 16.145C106.205 16.145 107.12 15.275 107.99 13.295C108.71 11.675 109.25 9.485 109.52 7.25ZM107.99 7.265C107.795 9.05 107.285 11.15 106.7 12.53C106.115 13.895 105.56 14.555 105.02 14.555C104.3 14.555 103.73 13.52 103.73 12.215C103.73 10.505 104.57 8.9 105.935 7.985C106.58 7.55 107.165 7.355 107.99 7.265ZM122.72 6.47H118.73C118.025 6.47 117.485 6.44 117.02 6.365V7.835C117.485 7.775 118.01 7.745 118.73 7.745H122.72V9.86H119.81C119.075 9.86 118.505 9.83 118.085 9.77V11.15C118.55 11.09 118.925 11.075 119.63 11.06C120.485 12.695 121.175 13.58 122.51 14.705C120.815 15.71 119.045 16.325 116.81 16.67C117.155 17.18 117.32 17.495 117.515 18.02C119.915 17.525 121.715 16.79 123.635 15.545C125.435 16.775 127.055 17.45 129.665 18.065C129.89 17.435 130.055 17.105 130.385 16.625C128.12 16.25 126.41 15.65 124.805 14.675C125.99 13.7 126.92 12.68 127.7 11.495C127.97 11.09 128.15 10.835 128.315 10.64L127.46 9.785C127.16 9.845 126.8 9.86 126.17 9.86H124.145V7.745H128.36C129.08 7.745 129.65 7.775 130.085 7.835V6.365C129.62 6.44 129.08 6.47 128.36 6.47H124.145V5.75C124.145 5.105 124.16 4.805 124.235 4.445H122.63C122.69 4.835 122.72 5.12 122.72 5.75V6.47ZM126.32 11.06C125.51 12.305 124.835 13.04 123.665 13.925C122.465 13.025 121.73 12.185 121.145 11.06H126.32ZM145.445 17.45C144.455 14.495 143.765 12.8 142.64 10.64L141.425 11.15C142.19 12.575 142.67 13.685 143.27 15.365C141.41 15.71 140.15 15.905 138.77 16.04C139.055 15.215 139.43 13.91 139.775 12.56C140.21 10.88 140.54 9.425 141.095 6.62C141.35 5.285 141.35 5.285 141.425 4.955L139.79 4.715C139.775 5.615 139.595 6.92 139.265 8.645C138.74 11.255 138.05 13.865 137.255 16.19C136.52 16.25 136.505 16.25 136.31 16.25C136.25 16.25 136.19 16.25 136.085 16.235L136.385 17.78C136.625 17.72 136.7 17.705 137.285 17.63C140.99 17.09 141.305 17.03 143.645 16.55C143.78 17 143.84 17.21 144.08 18.05L145.445 17.45ZM135.425 7.385V6.05C135.425 5.42 135.455 5 135.515 4.55H134C134.06 5.03 134.09 5.435 134.09 6.065V7.385H133.19C132.725 7.385 132.41 7.355 132.005 7.295V8.66C132.365 8.615 132.77 8.585 133.19 8.585H134.09V11.6C132.695 12.005 132.38 12.08 131.81 12.14L132.095 13.565C132.305 13.49 132.515 13.415 132.905 13.295C133.355 13.16 133.685 13.04 134.09 12.92V16.4C134.09 16.745 133.985 16.835 133.61 16.835C133.13 16.835 132.56 16.79 132.005 16.7C132.2 17.27 132.26 17.525 132.305 18.05C132.815 18.095 133.205 18.11 133.535 18.11C134.975 18.11 135.425 17.81 135.425 16.85V12.44C135.95 12.245 135.95 12.245 137.27 11.735L137.21 10.52C136.295 10.865 135.995 10.985 135.425 11.18V8.585H136.16C136.535 8.585 136.925 8.6 137.3 8.645V7.325C136.895 7.37 136.64 7.385 136.16 7.385H135.425ZM155.15 11.54C155.495 13.025 155.855 13.925 156.47 14.9C157.31 16.22 158.255 17.105 159.875 18.11C160.16 17.54 160.34 17.27 160.7 16.865C159.38 16.22 158.495 15.515 157.7 14.51C158.225 14.135 159.035 13.535 159.41 13.235C160.175 12.605 160.22 12.575 160.295 12.53L159.26 11.615C158.945 12.035 158.06 12.8 157.055 13.49C156.71 12.815 156.575 12.44 156.35 11.54H158.225C158.705 11.54 159.08 11.555 159.53 11.585C159.485 11.135 159.47 10.88 159.47 9.995V6.65C159.47 5.705 159.485 5.39 159.515 5C159.14 5.06 158.855 5.075 158.105 5.075H153.995C153.245 5.075 152.885 5.06 152.54 5C152.585 5.555 152.6 5.96 152.6 6.59V16.43C151.655 16.625 151.115 16.715 150.74 16.73L151.025 18.14C151.205 18.065 151.4 18.02 151.76 17.93C153.98 17.42 154.94 17.18 156.53 16.7L156.485 15.44C155.675 15.71 155.105 15.875 153.89 16.16V11.54H155.15ZM153.875 6.26H158.21V7.715H153.875V6.26ZM153.875 8.855H158.21V10.415H153.875V8.855ZM147.35 16.565C147.35 17.225 147.32 17.72 147.26 18.155H148.73C148.67 17.63 148.655 17.165 148.655 16.565V6.125H150.725C150.125 7.805 149.945 8.24 149.21 9.65C149.87 10.385 150.125 10.745 150.365 11.285C150.575 11.795 150.695 12.35 150.695 12.86C150.695 13.4 150.485 13.565 149.795 13.565C149.57 13.565 149.39 13.55 149.045 13.49C149.24 13.91 149.3 14.225 149.33 14.81C149.765 14.81 149.765 14.81 149.78 14.81C151.445 14.81 152.015 14.33 152.015 12.95C152.015 12.5 151.91 11.93 151.76 11.465C151.535 10.82 151.28 10.385 150.605 9.53C151.115 8.555 151.505 7.7 151.835 6.86C152.21 5.93 152.21 5.93 152.315 5.735L151.595 4.85C151.415 4.895 151.1 4.925 150.56 4.925H148.355C147.86 4.925 147.545 4.91 147.305 4.88C147.335 5.375 147.35 5.735 147.35 6.155V16.565ZM166.55 9.155V10.64C166.55 10.94 166.52 11.285 166.49 11.57C166.715 11.54 166.955 11.54 167.555 11.54H171.38C171.95 11.54 172.07 11.54 172.355 11.57C172.325 11.3 172.31 10.985 172.31 10.64V9.155H173.9C174.575 9.155 174.905 9.17 175.25 9.23V7.955C174.845 8.015 174.53 8.03 173.9 8.03H172.31V7.925C172.31 7.58 172.325 7.31 172.37 7.07H170.945C170.975 7.34 171.005 7.625 171.005 7.91V8.03H167.855V7.865C167.855 7.64 167.855 7.505 167.915 7.07H166.49C166.52 7.295 166.55 7.565 166.55 7.895V8.03H164.195V6.77H173.63C174.335 6.77 174.71 6.785 175.205 6.83V5.51C174.77 5.57 174.29 5.6 173.465 5.6H169.58V5.24C169.58 4.85 169.595 4.595 169.655 4.325H168.14C168.2 4.625 168.23 4.88 168.23 5.225V5.6H164.42C163.805 5.6 163.295 5.57 162.785 5.525C162.83 5.99 162.845 6.44 162.845 7.43C162.845 11.045 162.725 12.74 162.395 14.36C162.185 15.35 161.93 16.025 161.42 16.955C161.87 17.315 162.125 17.585 162.485 18.08C163.73 15.845 164.09 13.97 164.18 9.155H166.55ZM167.855 9.155H171.005V10.445H167.855V9.155ZM172.85 12.455C172.505 12.485 172.235 12.5 171.695 12.5H166.37C165.59 12.5 165.17 12.485 164.81 12.425V13.64C165.17 13.595 165.26 13.595 166.04 13.58C166.82 14.675 167.3 15.155 168.245 15.875C166.895 16.445 165.575 16.745 163.64 16.91C163.94 17.45 164.045 17.735 164.165 18.215C166.4 17.87 167.855 17.435 169.415 16.625C170.84 17.42 172.43 17.87 174.785 18.185C174.935 17.63 175.1 17.225 175.34 16.775C173.525 16.7 172.07 16.415 170.705 15.86C171.56 15.275 172.31 14.615 172.97 13.865C173.39 13.385 173.435 13.34 173.555 13.205L172.85 12.455ZM171.56 13.58C170.81 14.36 170.375 14.69 169.475 15.245C168.59 14.705 167.99 14.195 167.54 13.58H171.56ZM182.18 8.075C181.97 8.12 181.67 8.135 181.205 8.135H179.915C180.035 7.925 180.05 7.895 180.185 7.655C180.23 7.55 180.26 7.505 180.305 7.415L179.12 7.13C179.03 7.445 178.895 7.76 178.625 8.18C178.1 9.035 177.425 9.725 176.525 10.325C176.795 10.58 177.05 10.91 177.26 11.27C177.725 10.895 177.98 10.685 178.4 10.22C178.7 10.625 178.925 10.85 179.39 11.285C178.46 12.005 177.56 12.5 176.33 12.905C176.63 13.22 176.81 13.535 176.99 14.045C177.38 13.865 177.53 13.79 177.785 13.655C177.8 13.97 177.8 14.12 177.8 14.39V16.655C177.8 17.225 177.77 17.705 177.725 18.05H179.015V17.225H181.325V17.84H182.57C182.54 17.54 182.54 17.465 182.54 17.24C182.855 17.54 183.005 17.705 183.365 18.26C184.505 17.705 185.285 17.12 186.215 16.115L185.225 15.305C184.67 15.92 184.28 16.25 183.62 16.67C183.245 16.895 183.065 16.985 182.54 17.195C182.54 17.105 182.54 16.895 182.54 16.52V14.48C182.54 13.91 182.555 13.55 182.585 13.28C182.795 13.37 182.84 13.385 183.11 13.49C183.26 12.965 183.365 12.71 183.605 12.35C182.345 11.915 181.85 11.705 181.07 11.24C181.655 10.61 182.06 10.055 182.645 9.11C182.72 8.99 182.735 8.99 182.825 8.855C182.84 8.84 182.855 8.81 182.885 8.78L182.315 8.15H183.365C183.32 7.925 183.32 7.73 183.32 7.22V6.8C183.32 6.5 183.32 6.41 183.335 6.17C183.65 6.125 184.19 6.095 184.79 6.095H186.245C186.155 6.425 186.065 6.695 185.795 7.385H184.955C184.235 7.385 184.04 7.385 183.68 7.34C183.725 7.88 183.74 8.12 183.74 8.75V13.91C183.74 14.285 183.71 14.885 183.695 15.275C184.4 15.23 184.49 15.23 184.91 15.23H188.405C188.825 15.23 189.185 15.245 189.695 15.275C189.665 14.765 189.65 14.42 189.65 13.775V8.675C189.65 8.075 189.65 7.775 189.695 7.325C189.38 7.37 189.095 7.385 188.27 7.385H187.085C187.265 6.935 187.385 6.575 187.535 6.095H188.75C189.47 6.095 189.8 6.11 190.295 6.17V4.82C189.98 4.88 189.545 4.895 188.75 4.895H184.79C183.98 4.895 183.71 4.88 183.26 4.82V5.825C183.035 5.855 182.765 5.855 182.165 5.855H180.815V5.495C180.815 5.03 180.83 4.805 180.89 4.52H179.42C179.495 4.85 179.51 5.06 179.51 5.48V5.855H178.025C177.38 5.855 177.035 5.84 176.81 5.81C176.855 6.23 176.87 6.485 176.87 6.785V7.505C176.87 7.82 176.855 8.09 176.81 8.405H178.07V6.965H182.18V8.075ZM178.835 13.265H178.505C179.285 12.8 179.72 12.485 180.275 12.005C180.86 12.44 181.625 12.86 182.465 13.235C182.27 13.25 181.955 13.265 181.535 13.265H178.835ZM181.28 9.185C180.755 9.95 180.56 10.205 180.17 10.61C179.705 10.205 179.48 9.98 179.06 9.44C179.135 9.35 179.165 9.305 179.255 9.185H181.28ZM179.015 14.315H181.325V16.13H179.015V14.315ZM184.955 8.495H188.405V9.605H184.955V8.495ZM184.955 10.7H188.405V11.81H184.955V10.7ZM184.955 12.905H188.405V14.09H184.955V12.905ZM186.89 16.13C187.865 17.135 188.585 17.645 189.905 18.29C190.13 17.825 190.37 17.48 190.7 17.09C189.26 16.475 188.75 16.16 187.835 15.305L186.89 16.13Z" fill="#00655A"/>
</svg>
