<!-- 01EZTX9M3AWK0ZB16B6KYR56F1 -->

<svg width="262" height="145" viewBox="0 0 262 145" fill="none" xmlns="http://www.w3.org/2000/svg">
<path fill-rule="evenodd" clip-rule="evenodd" d="M260 145C261.105 145 262 144.105 262 143L262 99C262 97.8955 261.105 97 260 97L45.2985 97L40.2896 91.1836C40.0788 90.9389 39.6997 90.9389 39.489 91.1836L34.4801 97L2 97C0.89542 97 4.11801e-06 97.8954 4.02145e-06 99L1.74846e-07 143C7.82811e-08 144.105 0.895416 145 2 145L260 145Z" fill="#B2D0CD"/>
<path d="M78.1723 108.778C78.1243 109.798 78.0283 110.422 77.7763 111.298C77.4043 112.57 76.7203 113.794 75.7963 114.814C74.9803 115.726 74.3563 116.23 73.2403 116.89C73.6363 117.214 73.8643 117.478 74.0923 117.922C75.4243 117.01 76.3483 116.158 77.1283 115.09C77.9323 113.998 78.4243 112.93 78.8323 111.358C79.1683 112.69 79.6363 113.722 80.3803 114.79C81.2443 116.026 82.1923 116.974 83.5123 117.898C83.8123 117.37 83.9683 117.166 84.3883 116.77C83.4643 116.218 83.0683 115.93 82.4203 115.294C81.6283 114.538 81.0283 113.77 80.5483 112.918C79.7683 111.514 79.3723 110.002 79.3723 108.394C79.3723 108.154 79.3843 107.914 79.4083 107.638C79.1323 107.686 78.8443 107.698 78.3043 107.698H76.5283C76.0363 107.698 75.7843 107.686 75.4963 107.638V108.838C75.9283 108.802 76.2523 108.778 76.5403 108.778H78.1723ZM90.8203 113.218C90.7603 114.406 90.5803 115.054 90.1483 115.666C89.6563 116.362 88.9843 116.806 87.7963 117.202C88.1203 117.514 88.2643 117.694 88.5043 118.09C89.8003 117.514 90.5323 116.974 91.0243 116.206C91.5403 115.402 91.7443 114.634 91.8283 113.218H92.8243V117.082C92.8243 117.706 93.1843 117.886 94.4803 117.886C95.9683 117.886 96.1603 117.622 96.3523 115.438C95.9083 115.342 95.7403 115.282 95.3563 115.078C95.3203 116.014 95.2723 116.47 95.1763 116.674C95.0923 116.842 94.9483 116.902 94.5523 116.902C93.9643 116.902 93.8563 116.854 93.8563 116.638V113.218H94.9843C95.4523 113.218 95.8003 113.242 96.1363 113.29V112.234C95.8003 112.282 95.5243 112.294 94.9843 112.294H90.5323C90.0763 112.294 89.7283 112.27 89.4043 112.234V113.278C89.7403 113.23 90.0043 113.218 90.5203 113.218H90.8203ZM89.2483 109.954C89.2483 110.29 89.2363 110.494 89.2123 110.71L89.2003 110.818H90.2083V111.31C90.4723 111.274 90.7723 111.262 91.1443 111.262H94.1203C94.4803 111.262 94.7323 111.274 95.0443 111.31V110.842H96.1003C96.0643 110.566 96.0523 110.374 96.0523 110.002V109.102C96.0523 108.67 96.0643 108.538 96.0883 108.274C95.7763 108.322 95.4403 108.334 94.9843 108.334H93.0523V107.926C93.0523 107.518 93.0643 107.302 93.1123 107.062H91.8883C91.9243 107.302 91.9483 107.566 91.9483 107.902V108.334H90.4003C89.8963 108.334 89.6203 108.322 89.3083 108.298C89.3683 108.154 89.4163 108.046 89.4523 107.962L88.9723 107.41C88.8043 107.446 88.6243 107.458 88.2283 107.458H86.4763C86.1043 107.458 85.8403 107.446 85.6483 107.422C85.6723 107.794 85.6843 108.082 85.6843 108.442V116.782C85.6843 117.286 85.6603 117.694 85.6123 118.054H86.7643C86.7163 117.682 86.7043 117.346 86.7043 116.806V108.418H88.1683C87.8443 109.438 87.4843 110.326 87.0403 111.214C87.4483 111.706 87.6643 112.006 87.8203 112.318C88.0963 112.834 88.2523 113.386 88.2523 113.842C88.2523 114.058 88.2043 114.262 88.1323 114.322C88.0603 114.37 87.9043 114.406 87.6763 114.406C87.4723 114.406 87.2563 114.382 87.0283 114.334C87.1603 114.682 87.2203 114.934 87.2443 115.414C87.3043 115.414 87.3403 115.414 87.3763 115.414C87.7243 115.414 88.1083 115.378 88.3603 115.342C88.9723 115.222 89.2603 114.802 89.2603 114.046C89.2603 113.566 89.1643 113.014 88.9843 112.558C88.8163 112.102 88.6243 111.778 88.1443 111.094C88.6123 110.086 88.8163 109.606 89.2243 108.514C89.2363 108.658 89.2483 108.898 89.2483 109.102V109.954ZM95.0083 110.29C94.7323 110.326 94.5643 110.338 94.1203 110.338H91.1563C90.7003 110.338 90.5203 110.326 90.2563 110.29V109.294H95.0083V110.29ZM102.736 111.31C102.052 111.31 101.488 111.874 101.488 112.558C101.488 113.242 102.052 113.806 102.736 113.806C103.42 113.806 103.984 113.242 103.984 112.558C103.984 111.862 103.432 111.31 102.736 111.31ZM114.292 110.53H111.46C110.824 110.53 110.428 110.506 110.056 110.458V111.61C110.464 111.562 110.944 111.538 111.46 111.538H114.292V113.158H110.788C110.164 113.158 109.78 113.134 109.408 113.086V114.238C109.804 114.19 110.188 114.166 110.788 114.166H114.292V116.41C114.292 116.698 114.184 116.782 113.848 116.782C113.308 116.782 112.492 116.71 111.796 116.59C111.988 117.034 112.048 117.262 112.096 117.706C112.684 117.766 113.428 117.802 113.944 117.802C115.06 117.802 115.408 117.538 115.408 116.686V114.166H118.612C119.224 114.166 119.596 114.19 120.004 114.238V113.086C119.632 113.134 119.248 113.158 118.612 113.158H115.408V111.538H118.072C118.648 111.538 119.092 111.562 119.464 111.61V110.458C119.092 110.506 118.696 110.53 118.06 110.53H115.408V108.79C116.5 108.658 117.412 108.478 119.044 108.058L118.204 107.062C117.616 107.326 116.992 107.494 115.84 107.698C114.376 107.95 112.156 108.13 110.512 108.13C110.404 108.13 110.26 108.13 110.068 108.13C110.308 108.598 110.368 108.742 110.464 109.174C111.556 109.138 112.78 109.078 113.392 109.006C114.052 108.946 114.052 108.946 114.292 108.922V110.53ZM130.168 111.37V116.602C130.168 116.806 130.084 116.866 129.784 116.866C129.28 116.866 128.872 116.83 128.344 116.758C128.476 117.046 128.536 117.358 128.572 117.814C128.956 117.838 129.328 117.85 129.664 117.85C130.864 117.85 131.188 117.622 131.188 116.734V111.37H131.32C131.788 111.37 132.016 111.382 132.304 111.43V110.302C132.028 110.35 131.8 110.362 131.32 110.362H129.58C129.232 110.362 129.016 110.35 128.848 110.326V109.426C128.536 109.474 128.296 109.486 127.78 109.486H127.168V108.394C127.168 107.83 127.18 107.566 127.24 107.158H126.088C126.136 107.554 126.16 107.83 126.16 108.394V109.486H125.404C124.876 109.486 124.636 109.474 124.336 109.426V110.242L123.46 109.618C123.364 109.894 123.112 110.386 122.896 110.698C122.224 111.658 121.756 112.162 121.048 112.678C121.276 113.05 121.36 113.242 121.492 113.734C121.84 113.458 122.14 113.158 122.392 112.822C122.368 113.542 122.368 113.71 122.368 114.166V116.602C122.368 117.262 122.344 117.622 122.296 118.006H123.448C123.4 117.646 123.388 117.31 123.388 116.626V111.778C123.592 111.502 123.94 110.974 124.12 110.662C124.168 110.578 124.204 110.518 124.228 110.47C124.312 110.362 124.312 110.362 124.336 110.314V110.53C124.588 110.482 124.792 110.47 125.176 110.47H126.16V116.578C126.16 117.202 126.136 117.55 126.088 117.982H127.24C127.18 117.538 127.168 117.214 127.168 116.578V110.47H127.996C128.332 110.47 128.536 110.482 128.764 110.506V111.418C129.016 111.382 129.196 111.37 129.58 111.37H130.168ZM123.34 107.026C122.956 107.806 122.14 108.67 121.144 109.318C121.444 109.69 121.516 109.822 121.684 110.242C122.464 109.678 123.22 108.958 123.832 108.154C124.18 107.71 124.18 107.71 124.3 107.578L123.34 107.026ZM124.612 111.334C124.588 112.378 124.48 113.458 124.348 114.226C124.204 114.958 124.036 115.534 123.736 116.206C124.132 116.374 124.3 116.482 124.636 116.734C125.14 115.414 125.392 113.974 125.536 111.466L124.612 111.334ZM127.576 111.538C127.96 112.81 128.2 114.082 128.404 115.942L129.364 115.606C129.124 113.986 128.86 112.75 128.44 111.31L127.576 111.538ZM127.312 107.722C127.792 108.322 127.948 108.562 128.272 109.234L129.088 108.718C128.74 108.118 128.524 107.806 128.068 107.278L127.312 107.722ZM132.1 107.77C131.848 107.818 131.584 107.83 131.176 107.83H130.036C129.652 107.83 129.352 107.806 129.112 107.77V108.886C129.376 108.85 129.676 108.826 130.024 108.826H131.176C131.56 108.826 131.836 108.838 132.1 108.886V107.77ZM139.552 109.318C140.104 109.354 140.428 109.438 140.836 109.654C141.892 110.218 142.48 111.214 142.48 112.462C142.48 113.914 141.676 115.174 140.392 115.726C139.876 115.942 139.336 116.074 138.4 116.218C138.724 116.638 138.832 116.842 139.012 117.394C139.828 117.238 140.296 117.106 140.86 116.878C142.66 116.134 143.716 114.526 143.716 112.522C143.716 109.93 141.88 108.214 139.084 108.214C137.416 108.214 136.036 108.778 135.052 109.858C134.212 110.782 133.756 111.994 133.756 113.278C133.756 115.102 134.692 116.434 135.964 116.434C136.9 116.434 137.632 115.738 138.328 114.154C138.904 112.858 139.336 111.106 139.552 109.318ZM138.328 109.33C138.172 110.758 137.764 112.438 137.296 113.542C136.828 114.634 136.384 115.162 135.952 115.162C135.376 115.162 134.92 114.334 134.92 113.29C134.92 111.922 135.592 110.638 136.684 109.906C137.2 109.558 137.668 109.402 138.328 109.33ZM147.376 108.934H150.184C150.82 108.934 151.24 108.958 151.744 109.03V107.698C151.216 107.782 150.952 107.794 150.184 107.794H147.424C146.776 107.794 146.512 107.782 146.152 107.746C146.152 107.854 146.152 107.95 146.164 108.01C146.164 108.118 146.164 108.202 146.164 108.226C146.164 108.418 146.152 108.682 146.116 108.97L145.852 111.85C145.816 112.258 145.792 112.39 145.684 113.086L146.944 113.206C147.052 112.954 147.112 112.846 147.28 112.69C147.676 112.294 148.252 112.066 148.84 112.066C150.112 112.066 150.88 112.834 150.88 114.094C150.88 115.366 150.052 116.206 148.792 116.206C148.132 116.206 147.58 115.978 147.22 115.558C147.052 115.366 146.98 115.21 146.86 114.862L145.468 115.174C145.72 115.798 145.888 116.074 146.224 116.422C146.848 117.058 147.7 117.37 148.78 117.37C150.916 117.37 152.248 116.098 152.248 114.046C152.248 113.122 151.972 112.402 151.42 111.85C150.856 111.286 150.076 110.986 149.176 110.986C148.312 110.986 147.664 111.226 147.076 111.754C147.112 111.538 147.136 111.358 147.148 111.238L147.376 108.934ZM157.149 117.358C158.337 117.358 159.273 116.902 159.921 116.002C160.461 115.246 160.785 113.95 160.785 112.486C160.785 111.502 160.629 110.542 160.317 109.702C160.173 109.282 159.909 108.886 159.561 108.538C158.949 107.926 158.133 107.614 157.161 107.614C155.889 107.614 154.869 108.178 154.245 109.21C153.825 109.918 153.537 111.238 153.537 112.498C153.537 113.482 153.693 114.418 154.005 115.27C154.161 115.69 154.413 116.086 154.761 116.434C155.373 117.046 156.177 117.358 157.149 117.358ZM157.149 108.766C157.977 108.766 158.553 109.126 158.925 109.846C159.213 110.398 159.417 111.502 159.417 112.474C159.417 113.278 159.309 113.998 159.093 114.694C158.985 115.066 158.793 115.402 158.541 115.666C158.217 116.002 157.725 116.194 157.161 116.194C156.405 116.194 155.829 115.87 155.445 115.222C155.133 114.694 154.905 113.578 154.905 112.522C154.905 111.718 155.013 110.95 155.229 110.278C155.325 109.966 155.493 109.654 155.745 109.378C156.105 108.958 156.549 108.766 157.149 108.766ZM164.019 112.882C164.631 112.882 165.171 112.678 165.555 112.306C166.011 111.862 166.239 111.154 166.239 110.242C166.239 108.586 165.423 107.626 164.019 107.626C162.615 107.626 161.787 108.598 161.787 110.254C161.787 111.154 162.027 111.874 162.471 112.294C162.855 112.678 163.395 112.882 164.019 112.882ZM164.007 108.526C164.751 108.526 165.171 109.15 165.171 110.218C165.171 111.358 164.763 111.982 164.019 111.982C163.263 111.982 162.855 111.358 162.855 110.23C162.855 109.138 163.275 108.526 164.007 108.526ZM169.551 117.358C170.163 117.358 170.703 117.154 171.087 116.782C171.543 116.326 171.771 115.63 171.771 114.706C171.771 113.05 170.955 112.09 169.551 112.09C168.147 112.09 167.319 113.062 167.319 114.718C167.319 116.386 168.135 117.358 169.551 117.358ZM169.539 112.99C169.887 112.99 170.127 113.098 170.331 113.362C170.571 113.662 170.703 114.13 170.703 114.706C170.703 115.834 170.295 116.458 169.551 116.458C168.795 116.458 168.387 115.834 168.387 114.682C168.387 113.602 168.807 112.99 169.539 112.99ZM162.783 116.998L163.347 117.454L170.787 107.974L170.211 107.53L162.783 116.998ZM176.056 108.79C174.964 108.79 174.316 108.754 173.716 108.646L173.692 109.786C173.776 109.774 173.836 109.774 173.872 109.774C173.896 109.774 173.908 109.774 173.944 109.774C174.112 109.774 174.34 109.786 174.64 109.798L175.804 109.81C175.804 109.81 175.96 109.81 176.008 109.81C175.66 110.386 175.408 110.794 175.264 111.022C174.616 111.958 173.896 112.786 173.332 113.206L174.256 114.13C174.484 113.782 174.76 113.482 175.24 113.074C176.188 112.258 177.076 111.826 177.796 111.826C178.288 111.826 178.552 112.078 178.612 112.594C176.536 113.482 175.54 114.442 175.54 115.558C175.54 116.194 175.852 116.734 176.38 117.034C176.968 117.37 177.76 117.514 178.972 117.514C179.944 117.514 181.072 117.43 181.96 117.298C182.224 117.25 182.284 117.25 182.488 117.238L182.368 115.942C181.612 116.242 180.304 116.434 179.044 116.434C177.364 116.434 176.74 116.17 176.74 115.45C176.74 114.814 177.28 114.334 178.756 113.662C178.756 113.782 178.756 113.878 178.756 113.95C178.756 114.598 178.72 115.27 178.684 115.51L179.848 115.486C179.824 115.306 179.812 115.126 179.812 114.898C179.812 114.814 179.812 114.682 179.824 114.478C179.824 114.298 179.824 114.07 179.824 113.914C179.824 113.698 179.824 113.698 179.812 113.266C181.492 112.642 182.296 112.39 182.968 112.27L182.476 111.118C182.284 111.238 182.236 111.262 181.624 111.466C181.3 111.574 180.652 111.814 179.68 112.174C179.596 111.742 179.452 111.49 179.188 111.262C178.912 111.022 178.48 110.878 178.024 110.878C177.376 110.878 176.728 111.094 176.2 111.502C176.032 111.622 176.032 111.622 175.948 111.694L175.936 111.67C176.44 111.154 176.812 110.614 177.232 109.798C178.408 109.774 179.956 109.666 180.796 109.558C181.468 109.474 181.468 109.474 181.732 109.45L181.66 108.31C181.024 108.502 179.752 108.67 178.468 108.718C178.144 108.742 177.928 108.754 177.868 108.754C177.844 108.754 177.82 108.754 177.808 108.754C177.748 108.766 177.748 108.766 177.712 108.766C177.736 108.718 177.772 108.634 177.808 108.562C178.048 107.998 178.048 107.998 178.18 107.686C178.228 107.566 178.252 107.518 178.324 107.41L177.004 107.242C176.968 107.626 176.824 108.046 176.488 108.79H176.056ZM52.2485 130.51H50.1485C49.6325 130.51 49.2365 130.486 48.8765 130.438V131.578C49.2245 131.53 49.6685 131.506 50.1485 131.506H51.7925C51.3005 132.178 51.0845 132.43 50.5805 132.886C49.8725 133.522 49.2245 133.966 48.4085 134.386C48.8045 134.806 48.8405 134.866 49.1165 135.37C49.7045 135.022 50.0885 134.746 50.6405 134.254C51.4205 133.582 51.7925 133.138 52.2845 132.286C52.2485 132.97 52.2365 133.402 52.2365 133.582V134.914C52.2365 135.31 52.2125 135.694 52.1645 136.054H53.3765C53.3285 135.706 53.3045 135.334 53.3045 134.926V133.594C53.3045 133.258 53.2925 132.718 53.2685 132.298C53.7725 133.102 54.1205 133.51 54.7925 134.098C55.2605 134.518 55.6325 134.782 56.4485 135.31C56.7005 134.854 56.8565 134.614 57.1565 134.242C56.3525 133.882 55.8125 133.534 55.1285 132.97C54.5525 132.478 54.2525 132.178 53.7365 131.506H55.5725C55.9445 131.506 56.3765 131.53 56.8085 131.578V130.438C56.4365 130.486 55.9925 130.51 55.5485 130.51H53.3045V129.394H54.8645C55.0445 129.394 55.2365 129.394 55.4525 129.406C55.5965 129.406 55.6925 129.418 55.7285 129.418C55.9205 129.418 55.9325 129.418 56.0765 129.43C56.0405 129.118 56.0285 128.83 56.0285 128.338V126.694C56.0285 126.178 56.0405 125.926 56.0765 125.566C55.7405 125.614 55.3805 125.626 54.7565 125.626H51.0485C50.3885 125.626 50.0645 125.614 49.7285 125.566C49.7645 125.914 49.7765 126.19 49.7765 126.646V128.314C49.7765 128.794 49.7645 129.106 49.7285 129.442C50.0645 129.406 50.4125 129.394 50.9645 129.394H52.2485V130.51ZM50.8205 126.598H54.9605V128.422H50.8205V126.598ZM47.1965 134.638C47.1965 135.214 47.1725 135.574 47.1245 136.054H48.3005C48.2645 135.598 48.2405 135.166 48.2405 134.65V128.158C48.6725 127.306 48.9605 126.61 49.1525 125.986C49.2725 125.614 49.3085 125.506 49.3805 125.326L48.2405 124.966C48.1925 125.362 48.0125 126.01 47.7845 126.61C47.2565 127.954 46.5845 129.01 45.6245 129.958C45.9005 130.402 45.9125 130.426 46.1765 131.086C46.6805 130.534 46.9085 130.234 47.2325 129.682C47.2085 130.33 47.1965 130.606 47.1965 131.05V134.638ZM64.5845 128.71V129.562H63.0005C62.4005 129.562 62.2925 129.562 61.9565 129.526C61.9925 129.922 61.9925 129.982 61.9925 130.354V132.034C61.9925 132.25 61.9925 132.418 61.9685 132.658C61.9685 132.682 61.9685 132.754 61.9565 132.814C62.3045 132.778 62.5925 132.766 63.0485 132.766H64.1645C63.6485 133.978 62.5685 134.734 60.8405 135.118C61.1525 135.418 61.3205 135.658 61.5125 136.078C63.3485 135.466 64.4045 134.638 64.9805 133.354C65.6525 134.518 66.8405 135.442 68.4605 136.018C68.6525 135.598 68.7965 135.358 69.0845 135.022C68.1485 134.746 67.5725 134.494 66.9965 134.11C66.4325 133.726 66.0005 133.294 65.6525 132.766H67.1525C67.6445 132.766 67.9685 132.778 68.2925 132.814C68.2565 132.37 68.2565 132.31 68.2565 131.878V130.45C68.2565 130.15 68.2685 129.994 68.2925 129.526C67.9925 129.55 67.7165 129.562 67.2245 129.562H65.5685V128.71H66.3725C66.8525 128.71 67.0925 128.722 67.3805 128.746V128.146C67.7525 128.386 68.0525 128.542 68.6285 128.818C68.8085 128.386 68.9765 128.134 69.2765 127.798C67.5725 127.222 66.3845 126.346 65.5565 125.074H64.4525C64.0445 125.782 63.5405 126.358 62.8205 126.922C62.3885 127.258 61.7885 127.63 61.3085 127.846C61.3685 127.726 61.5605 127.234 61.8965 126.382C61.9445 126.262 62.0165 126.106 62.0765 125.986L61.5365 125.386C61.3565 125.422 61.1525 125.434 60.7685 125.434H59.1725C58.8005 125.434 58.5245 125.422 58.2965 125.398C58.3205 125.77 58.3325 126.046 58.3325 126.418V134.746C58.3325 135.31 58.3085 135.67 58.2605 136.018H59.4485C59.4005 135.658 59.3885 135.382 59.3885 134.758V126.394H60.8285C60.4805 127.522 60.1565 128.35 59.6885 129.31C60.1205 129.766 60.2885 130.006 60.4445 130.474C60.5885 130.87 60.6725 131.362 60.6725 131.794C60.6725 132.358 60.5645 132.478 60.0605 132.478C59.9405 132.478 59.7605 132.454 59.5085 132.418C59.6765 132.742 59.7605 133.018 59.7845 133.462C59.8805 133.474 59.9525 133.474 60.0005 133.474C60.4685 133.474 60.8405 133.414 61.0925 133.294C61.4765 133.114 61.6805 132.682 61.6805 132.046C61.6805 131.566 61.6445 131.182 61.5485 130.798C61.3925 130.162 61.2005 129.802 60.6965 129.19C60.9365 128.722 61.0085 128.59 61.1885 128.146C61.4285 128.398 61.5245 128.53 61.6805 128.878C62.2325 128.602 62.4725 128.458 62.9165 128.134V128.746C63.2045 128.722 63.4565 128.71 63.9365 128.71H64.5845ZM64.5725 130.462C64.5485 131.014 64.5125 131.338 64.4285 131.842H62.9285V130.462H64.5725ZM67.2845 130.462V131.842H65.4125C65.4845 131.362 65.5085 131.122 65.5445 130.462H67.2845ZM63.9365 127.786C63.6725 127.786 63.5405 127.786 63.3725 127.774C64.1045 127.162 64.5725 126.658 65.0525 125.938C65.5685 126.67 66.0845 127.198 66.8645 127.774C66.6365 127.786 66.5285 127.786 66.3725 127.786H63.9365ZM74.7605 129.406V130.75H71.8085C71.2445 130.75 70.8965 130.726 70.5605 130.678V131.806C70.9205 131.758 71.3045 131.734 71.7965 131.734H74.7605V134.626H71.6285C71.0525 134.626 70.6085 134.602 70.2005 134.554V135.73C70.6805 135.67 71.1245 135.646 71.6405 135.646H79.2125C79.7045 135.646 80.1965 135.67 80.6045 135.73V134.554C80.2085 134.602 79.8005 134.626 79.2245 134.626H75.8765V131.734H79.0205C79.5605 131.734 79.9445 131.758 80.2805 131.806V130.678C79.9685 130.726 79.6205 130.75 79.0205 130.75H75.8765V129.406H77.0165C77.5205 129.406 77.8205 129.418 78.1565 129.466V128.686C79.0085 129.226 79.5245 129.502 80.5325 129.922C80.6765 129.526 80.8565 129.19 81.1085 128.83C79.8365 128.41 78.9365 127.942 77.9525 127.21C77.0405 126.538 76.4645 125.962 75.9845 125.23H74.7245C73.8125 126.73 72.0125 128.05 69.7565 128.866C70.0685 129.25 70.2125 129.49 70.3805 129.886C71.1965 129.55 71.8085 129.226 72.5405 128.746V129.466C72.8885 129.418 73.2125 129.406 73.6925 129.406H74.7605ZM73.6685 128.47C73.3805 128.47 73.2365 128.47 72.9725 128.458C74.1005 127.654 74.6885 127.09 75.3605 126.178C76.0325 127.066 76.7045 127.69 77.7965 128.446C77.5685 128.47 77.3645 128.47 77.0285 128.47H73.6685ZM71.6405 132.37C72.0485 132.982 72.3605 133.642 72.6245 134.422L73.6205 134.026C73.2965 133.186 73.0445 132.682 72.6245 131.962L71.6405 132.37ZM78.0365 131.974C77.7365 132.838 77.3885 133.546 76.9925 134.122L77.9285 134.482C78.3965 133.75 78.3965 133.75 78.8885 132.778C78.9365 132.694 79.0085 132.562 79.0925 132.382L78.0365 131.974ZM85.0565 125.566C85.1285 125.746 85.1285 125.758 85.2485 126.346C85.5845 127.942 85.7645 128.662 86.0885 129.634C85.3205 130.03 84.9485 130.258 84.4805 130.654C83.7965 131.218 83.4125 131.974 83.4125 132.73C83.4125 133.57 83.7845 134.266 84.4325 134.65C85.1765 135.082 86.1725 135.262 87.7805 135.262C88.6325 135.262 89.2565 135.226 90.5285 135.094C91.1765 135.022 91.2125 135.022 91.4645 135.01L91.3565 133.63C90.5285 133.906 89.1125 134.086 87.7205 134.086C86.9525 134.086 86.2085 134.026 85.8245 133.93C85.0685 133.738 84.6965 133.354 84.6965 132.766C84.6965 131.842 85.6085 131.038 87.4445 130.33C88.7405 129.838 90.3005 129.358 91.2725 129.166L90.8165 127.906C90.6485 127.99 90.5765 128.014 90.3725 128.086L88.7645 128.626C88.1525 128.842 87.7805 128.974 87.2045 129.202C86.8205 127.99 86.4125 126.166 86.3645 125.35L85.0565 125.566ZM95.9765 125.614C96.0125 125.89 96.0245 126.046 96.0245 126.334C96.0245 126.55 96.0245 126.778 96.0125 127.15C95.9285 130.666 95.9165 131.314 95.9165 132.01C95.9165 133.558 96.2405 134.41 97.0205 134.962C97.5005 135.298 98.2445 135.49 99.0725 135.49C100.512 135.49 101.676 134.986 102.564 133.978C103.116 133.342 103.464 132.598 103.944 131.05C103.452 130.822 103.26 130.702 102.732 130.258C102.588 131.11 102.444 131.626 102.168 132.226C101.556 133.558 100.488 134.302 99.1685 134.302C98.3645 134.302 97.7645 134.062 97.4765 133.63C97.2245 133.246 97.1525 132.802 97.1525 131.686C97.1525 130.87 97.2245 128.218 97.2725 127.186C97.3085 126.31 97.3445 125.974 97.4045 125.638L95.9765 125.614ZM105.798 128.254C106.422 128.122 107.442 128.026 109.53 127.882C110.802 127.798 111.282 127.75 112.122 127.618C111.438 127.942 111.162 128.134 110.682 128.578C109.638 129.55 109.11 130.618 109.11 131.758C109.11 132.91 109.662 133.87 110.67 134.482C111.378 134.914 112.074 135.13 113.382 135.322C113.574 135.358 113.622 135.37 113.778 135.394L113.958 134.038C113.862 134.05 113.79 134.05 113.742 134.05C113.322 134.05 112.53 133.894 111.978 133.714C110.946 133.366 110.346 132.61 110.346 131.65C110.346 130.354 111.354 129.058 112.986 128.242C113.718 127.882 114.558 127.666 115.23 127.666C115.278 127.666 115.35 127.666 115.434 127.666L115.35 126.406C115.146 126.454 114.786 126.49 113.958 126.526C111.138 126.646 108.282 126.814 106.878 126.91C106.53 126.946 106.398 126.946 106.146 126.946C105.954 126.946 105.954 126.946 105.726 126.934L105.798 128.254ZM123.858 127.006C123.234 127.222 122.226 127.426 121.494 127.486V126.562C121.494 125.95 121.506 125.698 121.566 125.338H120.294C120.354 125.698 120.366 126.034 120.366 126.622V127.57C120.234 127.582 120.21 127.582 119.898 127.594C119.706 127.606 119.574 127.606 119.394 127.606C118.782 127.606 118.338 127.57 118.014 127.51V128.626C118.122 128.614 118.206 128.614 118.254 128.614C118.29 128.614 118.386 128.614 118.542 128.626C118.674 128.626 119.022 128.638 119.214 128.638C119.526 128.638 119.706 128.638 119.898 128.626C120.282 128.602 120.282 128.602 120.378 128.59V130.618C119.598 130.954 119.082 131.254 118.662 131.614C118.014 132.178 117.666 132.766 117.666 133.318C117.666 133.798 117.882 134.23 118.278 134.578C118.854 135.082 119.706 135.406 120.438 135.406C120.942 135.406 121.326 135.154 121.434 134.758C121.482 134.542 121.506 134.314 121.506 133.834L121.494 131.374C122.406 131.074 123.15 130.942 123.87 130.942C125.286 130.942 126.198 131.638 126.198 132.73C126.198 133.594 125.622 134.218 124.83 134.218C124.362 134.218 124.05 134.014 123.894 133.618C123.822 133.414 123.774 133.018 123.774 132.586C123.774 132.43 123.774 132.346 123.798 132.118C123.366 132.358 123.198 132.418 122.682 132.562C122.682 133.234 122.73 133.618 122.862 134.026C123.138 134.89 123.822 135.37 124.782 135.37C126.27 135.37 127.398 134.23 127.398 132.73C127.398 131.818 126.954 131.002 126.162 130.486C125.586 130.114 124.842 129.922 123.93 129.922C123.138 129.922 122.346 130.042 121.494 130.294V128.53C122.058 128.47 122.454 128.41 123.162 128.266C123.546 128.194 123.606 128.182 123.906 128.146L123.858 127.006ZM120.378 133.702C120.378 134.146 120.33 134.254 120.114 134.254C119.85 134.254 119.502 134.134 119.226 133.954C118.926 133.762 118.782 133.558 118.782 133.33C118.782 132.85 119.346 132.274 120.378 131.746V133.702ZM127.914 128.638C127.254 127.702 126.594 127.054 125.526 126.25L124.602 126.886C125.526 127.558 126.402 128.47 127.014 129.382L127.914 128.638ZM134.058 126.694H130.866C130.302 126.694 129.87 126.67 129.498 126.61V127.786C129.87 127.738 130.29 127.714 130.866 127.714H134.058V129.406H131.73C131.142 129.406 130.686 129.382 130.35 129.334V130.438C130.722 130.39 131.022 130.378 131.586 130.366C132.27 131.674 132.822 132.382 133.89 133.282C132.534 134.086 131.118 134.578 129.33 134.854C129.606 135.262 129.738 135.514 129.894 135.934C131.814 135.538 133.254 134.95 134.79 133.954C136.23 134.938 137.526 135.478 139.614 135.97C139.794 135.466 139.926 135.202 140.19 134.818C138.378 134.518 137.01 134.038 135.726 133.258C136.674 132.478 137.418 131.662 138.042 130.714C138.258 130.39 138.402 130.186 138.534 130.03L137.85 129.346C137.61 129.394 137.322 129.406 136.818 129.406H135.198V127.714H138.57C139.146 127.714 139.602 127.738 139.95 127.786V126.61C139.578 126.67 139.146 126.694 138.57 126.694H135.198V126.118C135.198 125.602 135.21 125.362 135.27 125.074H133.986C134.034 125.386 134.058 125.614 134.058 126.118V126.694ZM136.938 130.366C136.29 131.362 135.75 131.95 134.814 132.658C133.854 131.938 133.266 131.266 132.798 130.366H136.938ZM152.238 135.478C151.446 133.114 150.894 131.758 149.994 130.03L149.022 130.438C149.634 131.578 150.018 132.466 150.498 133.81C149.01 134.086 148.002 134.242 146.898 134.35C147.126 133.69 147.426 132.646 147.702 131.566C148.05 130.222 148.314 129.058 148.758 126.814C148.962 125.746 148.962 125.746 149.022 125.482L147.714 125.29C147.702 126.01 147.558 127.054 147.294 128.434C146.874 130.522 146.322 132.61 145.686 134.47C145.098 134.518 145.086 134.518 144.93 134.518C144.882 134.518 144.834 134.518 144.75 134.506L144.99 135.742C145.182 135.694 145.242 135.682 145.71 135.622C148.674 135.19 148.926 135.142 150.798 134.758C150.906 135.118 150.954 135.286 151.146 135.958L152.238 135.478ZM144.222 127.426V126.358C144.222 125.854 144.246 125.518 144.294 125.158H143.082C143.13 125.542 143.154 125.866 143.154 126.37V127.426H142.434C142.062 127.426 141.81 127.402 141.486 127.354V128.446C141.774 128.41 142.098 128.386 142.434 128.386H143.154V130.798C142.038 131.122 141.786 131.182 141.33 131.23L141.558 132.37C141.726 132.31 141.894 132.25 142.206 132.154C142.566 132.046 142.83 131.95 143.154 131.854V134.638C143.154 134.914 143.07 134.986 142.77 134.986C142.386 134.986 141.93 134.95 141.486 134.878C141.642 135.334 141.69 135.538 141.726 135.958C142.134 135.994 142.446 136.006 142.71 136.006C143.862 136.006 144.222 135.766 144.222 134.998V131.47C144.642 131.314 144.642 131.314 145.698 130.906L145.65 129.934C144.918 130.21 144.678 130.306 144.222 130.462V128.386H144.81C145.11 128.386 145.422 128.398 145.722 128.434V127.378C145.398 127.414 145.194 127.426 144.81 127.426H144.222ZM154.098 126.418C154.122 126.67 154.134 126.742 154.134 127.15C154.194 130.066 154.362 131.662 154.758 132.886C155.178 134.17 155.898 134.938 156.69 134.938C157.65 134.938 158.274 134.038 158.886 131.794C158.394 131.422 158.238 131.278 157.89 130.87C157.746 131.686 157.542 132.358 157.266 132.994C157.098 133.354 156.918 133.546 156.726 133.546C156.306 133.546 155.886 132.754 155.646 131.506C155.502 130.75 155.394 129.238 155.394 128.014C155.394 127.306 155.418 126.85 155.49 126.418H154.098ZM160.158 127.51C160.878 128.374 161.442 129.298 161.85 130.354C162.282 131.422 162.558 132.622 162.642 133.726L163.878 133.246C163.506 130.666 162.714 128.806 161.202 126.994L160.158 127.51ZM167.262 125.614C167.298 125.89 167.31 126.046 167.31 126.334C167.31 126.55 167.31 126.778 167.298 127.15C167.214 130.666 167.202 131.314 167.202 132.01C167.202 133.558 167.526 134.41 168.306 134.962C168.786 135.298 169.53 135.49 170.358 135.49C171.798 135.49 172.962 134.986 173.85 133.978C174.402 133.342 174.75 132.598 175.23 131.05C174.738 130.822 174.546 130.702 174.018 130.258C173.874 131.11 173.73 131.626 173.454 132.226C172.842 133.558 171.774 134.302 170.454 134.302C169.65 134.302 169.05 134.062 168.762 133.63C168.51 133.246 168.438 132.802 168.438 131.686C168.438 130.87 168.51 128.218 168.558 127.186C168.594 126.31 168.63 125.974 168.69 125.638L167.262 125.614ZM187.374 133.954C187.206 133.858 187.158 133.822 186.954 133.678C185.682 132.778 184.818 132.334 183.654 131.962C183.642 131.818 183.63 131.278 183.594 130.354C184.314 130.318 185.178 130.246 185.67 130.174C186.498 130.054 186.594 130.042 186.858 130.03L186.81 128.902C186.102 129.118 185.022 129.262 183.582 129.358C183.57 128.41 183.57 128.41 183.558 127.99C184.674 127.93 185.214 127.87 186.21 127.738C186.858 127.642 186.858 127.642 187.098 127.63L187.05 126.502C186.294 126.742 185.274 126.874 183.57 126.982C183.582 125.986 183.594 125.722 183.654 125.422H182.358C182.394 125.71 182.394 125.71 182.406 127.018C182.046 127.03 181.65 127.03 181.458 127.03C180.09 127.03 178.938 126.946 178.29 126.802L178.278 127.918C178.362 127.906 178.422 127.906 178.458 127.906C178.506 127.906 178.59 127.906 178.71 127.918C179.586 127.978 180.954 128.038 181.638 128.038C181.866 128.038 182.058 128.038 182.418 128.026L182.442 129.406C182.07 129.418 181.686 129.43 181.422 129.43C180.246 129.43 179.166 129.358 178.638 129.238L178.626 130.318C178.662 130.318 178.698 130.318 178.722 130.318C178.806 130.318 178.914 130.318 179.058 130.33C179.97 130.402 180.426 130.414 181.17 130.414C181.482 130.414 181.986 130.402 182.454 130.402C182.466 130.642 182.466 130.822 182.478 130.942C182.478 131.218 182.49 131.41 182.49 131.482C182.49 131.554 182.502 131.602 182.502 131.614C182.502 131.734 182.502 131.734 182.502 131.782C182.274 131.746 181.95 131.734 181.566 131.734C179.646 131.734 178.482 132.478 178.482 133.702C178.482 134.806 179.466 135.466 181.086 135.466C182.838 135.466 183.678 134.782 183.678 133.342C183.678 133.27 183.678 133.198 183.678 133.138C183.834 133.21 184.11 133.33 184.242 133.402C185.226 133.87 186.114 134.506 186.69 135.13L187.374 133.954ZM182.514 132.862C182.514 132.862 182.526 133.162 182.526 133.234C182.526 133.606 182.478 133.822 182.358 134.002C182.166 134.29 181.758 134.434 181.134 134.434C180.21 134.434 179.694 134.158 179.694 133.654C179.694 133.474 179.778 133.282 179.91 133.162C180.198 132.91 180.774 132.754 181.422 132.754C181.89 132.754 182.094 132.778 182.514 132.862ZM189.666 128.218C190.422 128.098 193.314 127.942 195.222 127.918L195.234 128.566C195.234 128.758 195.234 129.07 195.234 129.082C195.246 129.19 195.246 129.19 195.246 129.238C194.958 128.974 194.526 128.83 193.974 128.83C192.63 128.83 191.67 129.706 191.67 130.93C191.67 132.094 192.57 132.946 193.782 132.946C194.61 132.946 195.246 132.586 195.57 131.938C195.498 132.754 195.066 133.402 194.226 133.966C193.674 134.326 193.194 134.518 192.198 134.746C192.546 135.13 192.654 135.286 192.93 135.862C193.974 135.49 194.514 135.226 194.994 134.89C196.086 134.11 196.698 132.982 196.698 131.698C196.698 131.098 196.602 130.63 196.362 130.114V127.906C197.322 127.882 197.526 127.882 197.85 127.882C198.87 127.882 199.434 127.894 199.866 127.942V126.778C199.446 126.826 198.534 126.85 196.35 126.862C196.35 125.926 196.362 125.71 196.41 125.35H195.138C195.186 125.65 195.198 125.866 195.21 126.886C193.098 126.946 193.098 126.946 192.318 126.97C190.986 127.03 190.506 127.042 190.17 127.042C189.978 127.042 189.882 127.042 189.63 127.018L189.666 128.218ZM194.07 129.766C194.43 129.766 194.742 129.874 194.958 130.09C195.126 130.234 195.198 130.414 195.198 130.678C195.198 131.386 194.67 131.89 193.938 131.89C193.29 131.89 192.846 131.458 192.846 130.834C192.846 130.222 193.374 129.766 194.07 129.766ZM202.1 132.118C201.032 132.118 200.168 132.982 200.168 134.05C200.168 135.118 201.032 135.994 202.112 135.994C203.18 135.994 204.044 135.13 204.044 134.05C204.044 132.982 203.18 132.118 202.1 132.118ZM202.1 132.994C202.688 132.994 203.168 133.474 203.168 134.05C203.168 134.638 202.688 135.118 202.112 135.118C201.524 135.118 201.044 134.638 201.044 134.05C201.044 133.474 201.524 132.994 202.1 132.994Z" fill="black"/>
<rect x="1" y="27" width="127" height="60" fill="#00655A" stroke="#00655A" stroke-width="2"/>
<path d="M31.78 45.296H29.8C29.26 45.296 28.876 45.272 28.492 45.236V46.568C28.876 46.52 29.332 46.496 29.8 46.496H31.228C30.76 47.108 30.544 47.348 30.076 47.768C29.416 48.368 28.792 48.8 28.012 49.208C28.456 49.7 28.528 49.808 28.828 50.396C29.368 50.072 29.728 49.808 30.268 49.328C30.976 48.692 31.324 48.272 31.804 47.468C31.792 48.212 31.78 48.644 31.78 48.74V49.868C31.78 50.264 31.756 50.6 31.708 50.984H33.124C33.076 50.612 33.052 50.264 33.052 49.88V48.764C33.052 48.44 33.04 47.876 33.016 47.48C33.508 48.248 33.844 48.644 34.456 49.184C34.876 49.556 35.128 49.748 35.98 50.324C36.256 49.772 36.436 49.496 36.784 49.04C36.028 48.68 35.512 48.356 34.864 47.816C34.348 47.384 34.084 47.12 33.58 46.496H35.188C35.56 46.496 36.016 46.52 36.46 46.568V45.224C36.064 45.272 35.596 45.296 35.152 45.296H33.052V44.312H34.576C34.732 44.312 34.924 44.312 35.152 44.324C35.272 44.336 35.368 44.336 35.416 44.336C35.632 44.336 35.632 44.336 35.764 44.348C35.728 44.012 35.716 43.724 35.716 43.22V41.516C35.716 40.964 35.728 40.724 35.764 40.352C35.416 40.4 35.02 40.412 34.444 40.412H30.616C29.968 40.412 29.632 40.4 29.284 40.352C29.32 40.7 29.332 40.988 29.332 41.444V43.196C29.332 43.7 29.32 44 29.284 44.36C29.608 44.324 29.98 44.312 30.508 44.312H31.78V45.296ZM30.592 41.588H34.432V43.136H30.592V41.588ZM26.68 49.568C26.68 50.132 26.656 50.492 26.608 50.972H27.988C27.94 50.492 27.928 50.096 27.928 49.58V42.992C28.372 42.116 28.6 41.576 28.852 40.76C28.96 40.388 28.96 40.388 29.032 40.22L27.688 39.788C27.628 40.208 27.46 40.82 27.232 41.42C26.74 42.716 26.092 43.724 25.204 44.6C25.492 45.152 25.552 45.32 25.78 46.052C26.212 45.596 26.404 45.332 26.704 44.84C26.68 45.488 26.68 45.764 26.68 46.16V49.568ZM44.14 43.664V44.396H42.628C42.04 44.396 41.908 44.396 41.596 44.36C41.632 44.78 41.632 44.864 41.632 45.224V46.988C41.632 47.144 41.632 47.36 41.62 47.468C41.608 47.684 41.608 47.684 41.596 47.792C41.944 47.756 42.232 47.744 42.688 47.744H43.708C43.444 48.308 43.132 48.656 42.604 49.028C41.992 49.436 41.332 49.7 40.456 49.868C40.804 50.204 40.996 50.48 41.272 51.02C43.012 50.468 44.044 49.7 44.668 48.488C45.016 49.052 45.472 49.532 46.072 49.964C46.612 50.36 47.104 50.612 48.004 50.96C48.232 50.432 48.4 50.18 48.748 49.748C47.14 49.328 46.156 48.728 45.424 47.744H46.84C47.332 47.744 47.62 47.756 47.968 47.792C47.944 47.408 47.932 47.084 47.932 46.844V45.32C47.932 45.032 47.944 44.888 47.968 44.36C47.656 44.384 47.404 44.396 46.924 44.396H45.328V43.664H46.084C46.552 43.664 46.816 43.676 47.056 43.7V43.136C47.416 43.352 47.572 43.436 48.148 43.7C48.352 43.172 48.544 42.872 48.892 42.488C47.212 41.924 46.06 41.096 45.316 39.908H44.02C43.672 40.508 43.336 40.904 42.724 41.444C42.292 41.828 41.896 42.08 41.236 42.428C41.32 42.236 41.32 42.236 41.452 41.864C41.548 41.624 41.62 41.42 41.68 41.264C41.692 41.228 41.74 41.12 41.836 40.916L41.212 40.208C41.02 40.244 40.804 40.256 40.396 40.256H38.74C38.344 40.256 38.068 40.244 37.828 40.208C37.852 40.592 37.864 40.94 37.864 41.336V49.568C37.864 50.216 37.84 50.576 37.792 50.948H39.184C39.136 50.6 39.124 50.3 39.124 49.592V41.42H40.36C40.036 42.512 39.748 43.316 39.304 44.288C39.748 44.768 39.916 45.068 40.072 45.668C40.144 45.98 40.192 46.376 40.192 46.724C40.192 47.144 40.084 47.252 39.64 47.252C39.544 47.252 39.46 47.24 39.16 47.204C39.376 47.576 39.472 47.912 39.496 48.44C40.048 48.44 40.336 48.416 40.564 48.332C41.164 48.14 41.404 47.708 41.404 46.82C41.404 46.292 41.32 45.728 41.164 45.284C41.032 44.876 40.888 44.636 40.516 44.144C40.732 43.7 40.744 43.664 40.996 43.052C41.212 43.316 41.284 43.436 41.428 43.784C41.92 43.532 42.172 43.388 42.544 43.124V43.7C42.832 43.676 43.036 43.664 43.516 43.664H44.14ZM44.128 45.476C44.116 45.92 44.08 46.208 44.02 46.64H42.736V45.476H44.128ZM46.78 45.476V46.64H45.22C45.268 46.304 45.292 45.908 45.304 45.476H46.78ZM46.084 42.56H43.516C43.36 42.56 43.36 42.56 43.276 42.56C43.924 41.996 44.284 41.6 44.728 40.952C45.16 41.576 45.616 42.056 46.24 42.56H46.084ZM54.256 44.336V45.5H51.424C50.824 45.5 50.44 45.476 50.116 45.428V46.76C50.476 46.712 50.896 46.688 51.412 46.688H54.256V49.376H51.244C50.632 49.376 50.188 49.352 49.756 49.304V50.684C50.26 50.624 50.692 50.6 51.244 50.6H58.828C59.32 50.6 59.824 50.624 60.268 50.684V49.304C59.872 49.352 59.464 49.376 58.852 49.376H55.588V46.688H58.612C59.176 46.688 59.596 46.712 59.932 46.76V45.428C59.62 45.476 59.248 45.5 58.624 45.5H55.588V44.336H56.812C57.316 44.336 57.64 44.348 57.988 44.396V43.784C58.744 44.252 59.14 44.444 60.088 44.84C60.268 44.348 60.448 43.964 60.736 43.52C59.44 43.1 58.54 42.644 57.556 41.9C56.704 41.276 56.188 40.76 55.708 40.052H54.22C53.356 41.492 51.556 42.788 49.324 43.568C49.648 44.012 49.732 44.168 50.02 44.804C50.812 44.48 51.292 44.228 51.976 43.82V44.396C52.324 44.348 52.672 44.336 53.152 44.336H54.256ZM52.864 43.208C53.86 42.488 54.352 42.008 54.964 41.192C55.588 41.984 56.176 42.536 57.124 43.208C56.944 43.22 56.944 43.22 56.836 43.22L53.116 43.208H52.864ZM51.112 47.276C51.496 47.876 51.808 48.512 52.06 49.268L53.26 48.788C52.936 47.972 52.708 47.516 52.3 46.796L51.112 47.276ZM57.58 46.808C57.292 47.636 57.004 48.272 56.632 48.872L57.76 49.292C58.168 48.596 58.216 48.512 58.252 48.44C58.696 47.564 58.696 47.564 58.852 47.288L57.58 46.808ZM66.232 41.456H63.196C62.572 41.456 62.116 41.432 61.732 41.384V42.752C62.104 42.704 62.56 42.68 63.184 42.68H66.232V44.216H64.036C63.424 44.216 62.92 44.192 62.584 44.144V45.452C62.932 45.416 63.148 45.392 63.712 45.38C64.384 46.652 64.96 47.348 65.992 48.212C64.66 48.932 63.268 49.376 61.54 49.628C61.864 50.132 62.02 50.432 62.2 50.912C64.132 50.54 65.572 49.976 67.084 49.016C68.512 49.964 69.808 50.492 71.908 50.96C72.112 50.336 72.256 50.012 72.556 49.568C70.828 49.304 69.472 48.872 68.248 48.188C69.136 47.456 69.916 46.604 70.48 45.74C70.72 45.392 70.912 45.116 71.044 44.96L70.252 44.156C70.024 44.204 69.736 44.216 69.232 44.216H67.624V42.68H70.852C71.464 42.68 71.956 42.704 72.304 42.752V41.384C71.932 41.432 71.464 41.456 70.84 41.456H67.624V40.988C67.624 40.46 67.636 40.208 67.684 39.932H66.16C66.208 40.232 66.232 40.472 66.232 40.988V41.456ZM69.088 45.38C68.56 46.232 68.02 46.82 67.132 47.48C66.208 46.808 65.692 46.268 65.164 45.38H69.088ZM84.628 50.324C83.944 48.14 83.32 46.568 82.444 44.816L81.28 45.296C81.808 46.304 82.228 47.348 82.66 48.608C81.424 48.836 81.04 48.896 79.432 49.076C79.864 47.792 80.524 45.188 80.872 43.484C81.4 40.904 81.46 40.616 81.52 40.34L79.984 40.1C79.936 41.96 79.036 46.076 78.004 49.196C77.596 49.232 77.356 49.244 77.308 49.244C77.248 49.244 77.2 49.244 77.116 49.232L77.368 50.708C77.656 50.636 77.992 50.588 78.664 50.492C80.356 50.264 81.4 50.084 83.02 49.76C83.14 50.204 83.176 50.348 83.308 50.876L84.628 50.324ZM76.66 42.2V41.204C76.66 40.664 76.684 40.352 76.732 39.992H75.304C75.364 40.364 75.376 40.676 75.376 41.216V42.2H74.704C74.356 42.2 74.08 42.176 73.768 42.128V43.412C74.068 43.376 74.38 43.352 74.692 43.352H75.376V45.572C74.392 45.824 74.068 45.896 73.624 45.932L73.876 47.288C74.008 47.228 74.14 47.192 74.524 47.084C75.016 46.94 75.16 46.904 75.376 46.832V49.352C75.376 49.628 75.304 49.7 75.016 49.7C74.656 49.7 74.272 49.676 73.768 49.604C73.948 50.132 74.008 50.396 74.044 50.9C74.452 50.924 74.74 50.936 74.992 50.936C76.264 50.936 76.66 50.672 76.66 49.796V46.412C77.308 46.196 77.776 46.028 78.076 45.92L78.04 44.756C77.296 45.008 77.092 45.08 76.66 45.212V43.352H77.224C77.524 43.352 77.776 43.364 78.1 43.4V42.152C77.776 42.188 77.584 42.2 77.224 42.2H76.66ZM88.396 43.58V44.12H87.196C86.764 44.12 86.512 44.108 86.224 44.072V45.128C86.524 45.092 86.704 45.08 87.196 45.08H88.396V45.68H86.632C86.116 45.68 85.876 45.668 85.564 45.62V46.784C85.864 46.748 86.2 46.736 86.632 46.736H91.144C91.636 46.736 91.888 46.748 92.188 46.784V45.62C91.876 45.668 91.648 45.68 91.144 45.68H89.572V45.08H90.676C91.168 45.08 91.336 45.092 91.624 45.128V44.072C91.336 44.108 91.108 44.12 90.676 44.12H89.572V43.58H90.496C90.976 43.58 91.192 43.592 91.552 43.64V43.052H92.224C92.2 42.8 92.188 42.572 92.188 42.212V41.612C92.188 41.24 92.2 41.012 92.224 40.748C91.84 40.784 91.516 40.796 90.892 40.796H89.668V40.712C89.668 40.34 89.68 40.136 89.728 39.896H88.3C88.348 40.124 88.36 40.364 88.36 40.724V40.796H86.848C86.248 40.796 85.984 40.784 85.624 40.748C85.66 41.024 85.672 41.24 85.672 41.624V42.26C85.672 42.656 85.66 42.86 85.624 43.124H86.38V43.64C86.74 43.592 86.968 43.58 87.46 43.58H88.396ZM87.46 42.608C87.172 42.608 87.052 42.608 86.836 42.596V41.828H91.06V42.596C90.88 42.608 90.736 42.608 90.496 42.608H89.572C89.584 42.344 89.596 42.236 89.632 42.068H88.336C88.372 42.236 88.384 42.332 88.396 42.608H87.46ZM87.304 47.252C86.872 47.252 86.56 47.24 86.284 47.216C86.32 47.576 86.332 47.912 86.332 48.332V49.928C86.332 50.384 86.32 50.66 86.26 50.996H87.592V50.492H90.304V50.864H91.612C91.564 50.564 91.552 50.312 91.552 49.784V48.272C91.552 47.768 91.564 47.516 91.6 47.216C91.324 47.24 91.06 47.252 90.652 47.252H87.304ZM87.592 48.26H90.304V49.424H87.592V48.26ZM92.668 40.748C92.716 41.084 92.728 41.36 92.728 42.02V46.844C92.728 47.528 92.716 47.78 92.668 48.128H94.024C93.976 47.816 93.964 47.564 93.964 46.856V41.996C93.964 41.384 93.976 41.06 94.024 40.748H92.668ZM94.804 39.992C94.864 40.388 94.876 40.748 94.876 41.48V49.28C94.876 49.592 94.768 49.652 94.216 49.652C93.94 49.652 93.568 49.616 92.86 49.544C93.04 49.952 93.124 50.276 93.196 50.792C93.82 50.828 94.024 50.84 94.312 50.84C95.764 50.84 96.124 50.564 96.124 49.448V41.444C96.124 40.724 96.148 40.316 96.208 39.992H94.804ZM99.916 44.72C100.228 44.684 100.564 44.672 100.948 44.672H105.052C105.532 44.672 105.832 44.684 106.132 44.72V43.88C106.864 44.36 107.236 44.552 108.088 44.936C108.316 44.348 108.436 44.12 108.748 43.616C107.524 43.16 106.624 42.68 105.688 41.972C104.728 41.252 104.188 40.712 103.672 39.944H102.244C101.752 40.688 101.188 41.288 100.36 41.948C99.436 42.668 98.416 43.244 97.3 43.676C97.648 44.144 97.792 44.396 97.996 44.9C98.824 44.54 99.136 44.372 99.916 43.892V44.72ZM100.96 43.424C100.828 43.424 100.768 43.424 100.624 43.424C101.728 42.632 102.256 42.116 102.976 41.084C103.732 42.044 104.392 42.668 105.448 43.424C105.232 43.424 105.184 43.424 105.04 43.424H100.96ZM100.372 50.912V50.3H105.616V50.912H107.044C106.984 50.54 106.972 50.204 106.972 49.652V46.844C106.972 46.328 106.984 45.992 107.032 45.656C106.756 45.692 106.468 45.704 105.988 45.704H99.988C99.508 45.704 99.22 45.692 98.956 45.656C98.992 46.004 99.016 46.352 99.016 46.844V49.64C99.016 50.168 98.992 50.528 98.944 50.912H100.372ZM100.372 46.868H105.616V49.124H100.372V46.868Z" fill="white"/>
<path d="M49.4865 71.646C49.4518 71.49 49.5211 71.386 49.6945 71.334L51.9045 70.788C52.0605 70.7707 52.1645 70.84 52.2165 70.996C52.3898 71.4987 52.6758 71.906 53.0745 72.218C53.4731 72.53 54.0018 72.686 54.6605 72.686C55.1631 72.686 55.6138 72.5647 56.0125 72.322C56.4111 72.062 56.6885 71.698 56.8445 71.23C56.9311 70.9873 56.9918 70.7187 57.0265 70.424C57.0611 70.112 57.0785 69.7307 57.0785 69.28C57.0785 68.7947 57.0611 68.4047 57.0265 68.11C56.9918 67.8153 56.9311 67.5553 56.8445 67.33C56.6711 66.81 56.3851 66.4373 55.9865 66.212C55.5878 65.9867 55.1371 65.874 54.6345 65.874C54.0451 65.874 53.5685 66.004 53.2045 66.264C52.8578 66.524 52.6151 66.8013 52.4765 67.096C52.4071 67.2693 52.3031 67.356 52.1645 67.356H49.9805C49.8071 67.356 49.7205 67.2693 49.7205 67.096V57.58C49.7205 57.4067 49.8071 57.32 49.9805 57.32H59.3925C59.5658 57.32 59.6525 57.4067 59.6525 57.58V59.66C59.6525 59.8333 59.5658 59.92 59.3925 59.92H52.5545C52.4505 59.92 52.3985 59.972 52.3985 60.076V64.054H52.4765C52.6845 63.8807 53.0051 63.7073 53.4385 63.534C53.8891 63.3607 54.4351 63.274 55.0765 63.274C56.2205 63.274 57.1825 63.534 57.9625 64.054C58.7598 64.5567 59.3145 65.2933 59.6265 66.264C59.7478 66.6453 59.8431 67.0613 59.9125 67.512C59.9818 67.9627 60.0165 68.552 60.0165 69.28C60.0165 70.4067 59.8951 71.334 59.6525 72.062C59.3058 73.102 58.6818 73.8993 57.7805 74.454C56.8791 75.0087 55.8391 75.286 54.6605 75.286C53.9845 75.286 53.3518 75.1993 52.7625 75.026C52.1731 74.8527 51.6531 74.61 51.2025 74.298C50.7518 73.9687 50.3791 73.5873 50.0845 73.154C49.7898 72.7033 49.5905 72.2007 49.4865 71.646ZM62.456 71.828C62.404 71.6547 62.352 71.4553 62.3 71.23C62.248 70.9873 62.2047 70.6667 62.17 70.268C62.1527 69.852 62.1353 69.3233 62.118 68.682C62.1007 68.0233 62.092 67.1827 62.092 66.16C62.092 65.1373 62.1007 64.3053 62.118 63.664C62.1353 63.0053 62.1527 62.4767 62.17 62.078C62.2047 61.662 62.248 61.3413 62.3 61.116C62.352 60.8907 62.404 60.6827 62.456 60.492C62.8027 59.3827 63.392 58.5333 64.224 57.944C65.0733 57.3373 66.1567 57.034 67.474 57.034C68.7913 57.034 69.866 57.3373 70.698 57.944C71.5473 58.5333 72.154 59.3827 72.518 60.492C72.57 60.6827 72.622 60.8907 72.674 61.116C72.726 61.3413 72.7607 61.662 72.778 62.078C72.8127 62.4767 72.8387 63.0053 72.856 63.664C72.8733 64.3053 72.882 65.1373 72.882 66.16C72.882 67.1827 72.8733 68.0233 72.856 68.682C72.8387 69.3233 72.8127 69.852 72.778 70.268C72.7607 70.6667 72.726 70.9873 72.674 71.23C72.622 71.4553 72.57 71.6547 72.518 71.828C72.154 72.9373 71.5473 73.7953 70.698 74.402C69.866 74.9913 68.7913 75.286 67.474 75.286C66.1567 75.286 65.0733 74.9913 64.224 74.402C63.392 73.7953 62.8027 72.9373 62.456 71.828ZM65.316 71.282C65.6453 72.218 66.3647 72.686 67.474 72.686C68.5833 72.686 69.3113 72.218 69.658 71.282C69.71 71.1433 69.7447 70.9873 69.762 70.814C69.7967 70.6407 69.8227 70.372 69.84 70.008C69.8573 69.644 69.866 69.1587 69.866 68.552C69.8833 67.9453 69.892 67.148 69.892 66.16C69.892 65.172 69.8833 64.3747 69.866 63.768C69.866 63.1613 69.8573 62.676 69.84 62.312C69.8227 61.948 69.7967 61.6793 69.762 61.506C69.7447 61.3327 69.71 61.1767 69.658 61.038C69.3113 60.102 68.5833 59.634 67.474 59.634C66.3647 59.634 65.6453 60.102 65.316 61.038C65.264 61.1767 65.2207 61.3327 65.186 61.506C65.1687 61.6793 65.1513 61.948 65.134 62.312C65.1167 62.676 65.0993 63.1613 65.082 63.768C65.082 64.3747 65.082 65.172 65.082 66.16C65.082 67.148 65.082 67.9453 65.082 68.552C65.0993 69.1587 65.1167 69.644 65.134 70.008C65.1513 70.372 65.1687 70.6407 65.186 70.814C65.2207 70.9873 65.264 71.1433 65.316 71.282Z" fill="white"/>
<path d="M78.2335 70.264C78.8455 70.264 79.3855 70.06 79.7695 69.688C80.2255 69.244 80.4535 68.536 80.4535 67.624C80.4535 65.968 79.6375 65.008 78.2335 65.008C76.8295 65.008 76.0015 65.98 76.0015 67.636C76.0015 68.536 76.2415 69.256 76.6855 69.676C77.0695 70.06 77.6095 70.264 78.2335 70.264ZM78.2215 65.908C78.9655 65.908 79.3855 66.532 79.3855 67.6C79.3855 68.74 78.9775 69.364 78.2335 69.364C77.4775 69.364 77.0695 68.74 77.0695 67.612C77.0695 66.52 77.4895 65.908 78.2215 65.908ZM83.7655 74.74C84.3775 74.74 84.9175 74.536 85.3015 74.164C85.7575 73.708 85.9855 73.012 85.9855 72.088C85.9855 70.432 85.1695 69.472 83.7655 69.472C82.3615 69.472 81.5335 70.444 81.5335 72.1C81.5335 73.768 82.3495 74.74 83.7655 74.74ZM83.7535 70.372C84.1015 70.372 84.3415 70.48 84.5455 70.744C84.7855 71.044 84.9175 71.512 84.9175 72.088C84.9175 73.216 84.5095 73.84 83.7655 73.84C83.0095 73.84 82.6015 73.216 82.6015 72.064C82.6015 70.984 83.0215 70.372 83.7535 70.372ZM76.9975 74.38L77.5615 74.836L85.0015 65.356L84.4255 64.912L76.9975 74.38Z" fill="white"/>
<rect x="133" y="27" width="127" height="60" fill="white" stroke="#00655A" stroke-width="2"/>
<path d="M156.176 39.888C155.552 40.104 154.544 40.308 153.812 40.368V39.444C153.812 38.832 153.824 38.58 153.884 38.22H152.612C152.672 38.58 152.684 38.916 152.684 39.504V40.452C152.552 40.464 152.528 40.464 152.216 40.476C152.024 40.488 151.892 40.488 151.712 40.488C151.1 40.488 150.656 40.452 150.332 40.392V41.508C150.44 41.496 150.524 41.496 150.572 41.496C150.608 41.496 150.704 41.496 150.86 41.508C150.992 41.508 151.34 41.52 151.532 41.52C151.844 41.52 152.024 41.52 152.216 41.508C152.6 41.484 152.6 41.484 152.696 41.472V43.5C151.916 43.836 151.4 44.136 150.98 44.496C150.332 45.06 149.984 45.648 149.984 46.2C149.984 46.68 150.2 47.112 150.596 47.46C151.172 47.964 152.024 48.288 152.756 48.288C153.26 48.288 153.644 48.036 153.752 47.64C153.8 47.424 153.824 47.196 153.824 46.716L153.812 44.256C154.724 43.956 155.468 43.824 156.188 43.824C157.604 43.824 158.516 44.52 158.516 45.612C158.516 46.476 157.94 47.1 157.148 47.1C156.68 47.1 156.368 46.896 156.212 46.5C156.14 46.296 156.092 45.9 156.092 45.468C156.092 45.312 156.092 45.228 156.116 45C155.684 45.24 155.516 45.3 155 45.444C155 46.116 155.048 46.5 155.18 46.908C155.456 47.772 156.14 48.252 157.1 48.252C158.588 48.252 159.716 47.112 159.716 45.612C159.716 44.7 159.272 43.884 158.48 43.368C157.904 42.996 157.16 42.804 156.248 42.804C155.456 42.804 154.664 42.924 153.812 43.176V41.412C154.376 41.352 154.772 41.292 155.48 41.148C155.864 41.076 155.924 41.064 156.224 41.028L156.176 39.888ZM152.696 46.584C152.696 47.028 152.648 47.136 152.432 47.136C152.168 47.136 151.82 47.016 151.544 46.836C151.244 46.644 151.1 46.44 151.1 46.212C151.1 45.732 151.664 45.156 152.696 44.628V46.584ZM160.232 41.52C159.572 40.584 158.912 39.936 157.844 39.132L156.92 39.768C157.844 40.44 158.72 41.352 159.332 42.264L160.232 41.52ZM163.46 47.808C163.46 48.192 163.436 48.54 163.388 48.888H164.516V48.444H169.568V48.888H170.696C170.648 48.552 170.636 48.288 170.636 47.82V46.152C170.636 45.864 170.636 45.708 170.648 45.456C171.248 45.624 171.452 45.672 172.112 45.816C172.256 45.312 172.34 45.108 172.592 44.688C170.576 44.424 169.34 44.088 167.972 43.416C168.788 42.828 169.436 42.264 170.096 41.592C170.276 41.4 170.276 41.4 170.384 41.292L169.712 40.728C169.448 40.764 169.148 40.776 168.68 40.776H166.304C166.484 40.56 166.496 40.536 166.52 40.5C166.64 40.344 166.64 40.344 166.736 40.248L165.68 39.924C165.5 40.248 165.26 40.584 164.948 40.92C164.192 41.736 163.292 42.324 161.948 42.912C162.248 43.2 162.344 43.32 162.608 43.74C163.664 43.176 164.06 42.912 164.792 42.312C165.284 42.792 165.644 43.092 166.1 43.416C165.44 43.752 164.9 43.992 164.336 44.184C163.388 44.532 162.44 44.76 161.432 44.928C161.648 45.204 161.804 45.516 161.936 45.912C162.668 45.744 162.92 45.672 163.436 45.516C163.448 45.744 163.46 45.876 163.46 46.14V47.808ZM168.68 41.616C167.948 42.264 167.636 42.504 167.036 42.888C166.4 42.492 165.98 42.168 165.476 41.7C165.512 41.664 165.524 41.652 165.56 41.616H168.68ZM169.592 45.192H164.396C165.584 44.772 166.22 44.484 167.036 44.004C168.02 44.568 168.668 44.844 169.76 45.192H169.592ZM164.516 46.116H169.58V47.508H164.516V46.116ZM166.352 38.976H163.196C162.656 38.976 162.272 38.964 161.864 38.916C161.888 39.18 161.912 39.444 161.912 39.78V40.632C161.912 40.992 161.888 41.208 161.852 41.508H162.944V39.912H171.032V41.52H172.124C172.088 41.28 172.076 41.004 172.076 40.656V39.78C172.076 39.408 172.088 39.18 172.124 38.916C171.692 38.964 171.344 38.976 170.732 38.976H167.468V38.748C167.468 38.46 167.504 38.124 167.54 37.932H166.292C166.34 38.28 166.352 38.436 166.352 38.748V38.976ZM174.74 41.748C174.932 41.724 174.98 41.724 175.244 41.712C176.84 41.688 178.34 41.58 179.504 41.412C179.576 41.544 179.6 41.58 179.708 41.796C180.116 42.6 180.464 43.164 180.824 43.668L180.932 43.824C180.356 43.572 179.612 43.452 178.652 43.452C177.536 43.452 176.768 43.632 176.084 44.04C175.328 44.508 174.896 45.204 174.896 45.972C174.896 46.512 175.088 47.016 175.436 47.4C176.012 48.048 177.188 48.396 178.796 48.396C179.972 48.396 181.088 48.204 182.456 47.748L182.288 46.464C181.352 46.956 180.008 47.256 178.76 47.256C177.08 47.256 176.132 46.776 176.132 45.936C176.132 45.54 176.36 45.156 176.72 44.928C177.224 44.616 177.92 44.472 178.868 44.472C179.648 44.472 180.272 44.568 180.836 44.76C181.184 44.88 181.364 45 181.664 45.264L182.816 44.7C182.372 44.112 181.88 43.368 181.52 42.78C181.376 42.54 181.1 42.024 180.704 41.256C181.676 41.064 181.7 41.052 182.564 40.86C182.972 40.764 183.068 40.74 183.356 40.692L183.2 39.492C182.588 39.744 181.532 40.008 180.284 40.224C179.864 39.24 179.636 38.604 179.576 38.208L178.268 38.388C178.34 38.52 178.364 38.568 178.436 38.736C178.592 39.144 178.76 39.552 178.868 39.828C179.036 40.2 179.048 40.224 179.096 40.368C178.244 40.5 176.696 40.608 175.748 40.608C175.292 40.608 174.992 40.596 174.656 40.548L174.74 41.748ZM195.692 46.836C195.524 46.74 195.476 46.704 195.272 46.56C194 45.66 193.136 45.216 191.972 44.844C191.96 44.7 191.948 44.16 191.912 43.236C192.632 43.2 193.496 43.128 193.988 43.056C194.816 42.936 194.912 42.924 195.176 42.912L195.128 41.784C194.42 42 193.34 42.144 191.9 42.24C191.888 41.292 191.888 41.292 191.876 40.872C192.992 40.812 193.532 40.752 194.528 40.62C195.176 40.524 195.176 40.524 195.416 40.512L195.368 39.384C194.612 39.624 193.592 39.756 191.888 39.864C191.9 38.868 191.912 38.604 191.972 38.304H190.676C190.712 38.592 190.712 38.592 190.724 39.9C190.364 39.912 189.968 39.912 189.776 39.912C188.408 39.912 187.256 39.828 186.608 39.684L186.596 40.8C186.68 40.788 186.74 40.788 186.776 40.788C186.824 40.788 186.908 40.788 187.028 40.8C187.904 40.86 189.272 40.92 189.956 40.92C190.184 40.92 190.376 40.92 190.736 40.908L190.76 42.288C190.388 42.3 190.004 42.312 189.74 42.312C188.564 42.312 187.484 42.24 186.956 42.12L186.944 43.2C186.98 43.2 187.016 43.2 187.04 43.2C187.124 43.2 187.232 43.2 187.376 43.212C188.288 43.284 188.744 43.296 189.488 43.296C189.8 43.296 190.304 43.284 190.772 43.284C190.784 43.524 190.784 43.704 190.796 43.824C190.796 44.1 190.808 44.292 190.808 44.364C190.808 44.436 190.82 44.484 190.82 44.496C190.82 44.616 190.82 44.616 190.82 44.664C190.592 44.628 190.268 44.616 189.884 44.616C187.964 44.616 186.8 45.36 186.8 46.584C186.8 47.688 187.784 48.348 189.404 48.348C191.156 48.348 191.996 47.664 191.996 46.224C191.996 46.152 191.996 46.08 191.996 46.02C192.152 46.092 192.428 46.212 192.56 46.284C193.544 46.752 194.432 47.388 195.008 48.012L195.692 46.836ZM190.832 45.744C190.832 45.744 190.844 46.044 190.844 46.116C190.844 46.488 190.796 46.704 190.676 46.884C190.484 47.172 190.076 47.316 189.452 47.316C188.528 47.316 188.012 47.04 188.012 46.536C188.012 46.356 188.096 46.164 188.228 46.044C188.516 45.792 189.092 45.636 189.74 45.636C190.208 45.636 190.412 45.66 190.832 45.744ZM204.524 40.644C204.752 40.404 204.872 40.272 205.148 39.9C205.436 39.54 205.436 39.54 205.484 39.456C205.544 39.396 205.58 39.348 205.592 39.336C205.688 39.216 205.688 39.204 205.772 39.12L205.22 38.616C204.968 38.652 204.68 38.664 204.08 38.664H201.872C202.16 38.22 202.316 37.992 202.328 37.98L201.068 37.728C200.9 38.208 200.54 38.712 199.94 39.36C199.256 40.092 198.584 40.608 197.648 41.124C197.9 41.412 198.044 41.652 198.224 42.048C198.716 41.736 198.908 41.604 199.232 41.364C199.232 41.604 199.232 41.64 199.232 41.856V45.42C199.232 46.176 199.22 46.476 199.172 46.824C199.616 46.776 199.976 46.764 200.468 46.764H201.2C200.144 47.484 199.424 47.736 197.768 48.012C198.08 48.348 198.224 48.564 198.428 48.984C199.472 48.756 199.964 48.6 200.648 48.288C201.2 48.036 201.512 47.844 202.172 47.376L201.5 46.764H204.764L204.056 47.4C204.74 47.832 205.052 48 205.664 48.252C206.456 48.588 206.96 48.744 208.016 48.972C208.196 48.564 208.352 48.3 208.592 47.952C207.512 47.796 206.9 47.64 206.096 47.328C205.664 47.16 205.52 47.088 204.968 46.764H205.952C206.444 46.764 206.828 46.776 207.26 46.824C207.212 46.512 207.2 46.14 207.2 45.42V41.856C207.2 41.232 207.212 40.98 207.26 40.608C206.84 40.632 206.636 40.644 205.904 40.644H204.524ZM200.528 40.644C200.336 40.644 200.3 40.644 200.084 40.644C200.552 40.212 200.816 39.948 201.152 39.576H204.08C203.768 40.02 203.588 40.272 203.252 40.644H200.528ZM200.276 41.556H206.144V42.372H200.276V41.556ZM200.276 43.272H206.144V44.088H200.276V43.272ZM200.276 44.988H206.144V45.828H200.276V44.988ZM211.28 41.256V43.656C210.32 43.968 210.02 44.04 209.612 44.088L209.852 45.216C210.02 45.144 210.14 45.084 210.356 45.024C210.788 44.88 210.8 44.88 211.28 44.7V47.496C211.28 47.784 211.208 47.844 210.848 47.844C210.56 47.844 210.164 47.82 209.732 47.772C209.888 48.192 209.936 48.432 209.972 48.84C210.332 48.864 210.668 48.876 210.956 48.876C211.964 48.876 212.348 48.6 212.348 47.856V44.316C212.768 44.148 212.972 44.076 213.596 43.812V42.816C213.056 43.044 212.924 43.092 212.348 43.296V41.256H212.804C213.092 41.256 213.332 41.268 213.608 41.304V40.248C213.356 40.284 213.104 40.296 212.816 40.296H212.348V39.228C212.348 38.688 212.36 38.376 212.42 38.016H211.208C211.268 38.376 211.28 38.7 211.28 39.24V40.296H210.668C210.272 40.296 210.008 40.272 209.708 40.224V41.316C210.068 41.28 210.356 41.256 210.668 41.256H211.28ZM218.444 46.164C218.972 46.164 219.356 46.176 219.656 46.212C219.62 45.768 219.608 45.432 219.608 44.832V39.972C219.608 39.312 219.62 38.952 219.656 38.556C219.332 38.592 219.032 38.604 218.42 38.604H215.24C214.664 38.604 214.376 38.592 214.04 38.556C214.064 38.964 214.076 39.24 214.076 39.84V45.048C214.076 45.564 214.064 45.924 214.04 46.212C214.424 46.176 214.808 46.164 215.228 46.164H218.444ZM215.144 39.588H218.516V41.868H215.144V39.588ZM215.144 42.828H218.516V45.192H215.144V42.828ZM212.984 48.516C213.368 48.48 213.776 48.456 214.352 48.456H219.2C219.716 48.456 220.112 48.48 220.556 48.528V47.376C220.16 47.424 219.764 47.448 219.212 47.448H214.352C213.788 47.448 213.344 47.424 212.984 47.388V48.516ZM224.54 41.508V42.156H223.328C222.884 42.156 222.632 42.144 222.344 42.108V43.044C222.632 43.008 222.848 42.996 223.328 42.996H224.54V43.728H222.728C222.224 43.728 221.96 43.716 221.66 43.668V44.664C221.948 44.628 222.296 44.616 222.728 44.616H227.192C227.684 44.616 227.936 44.628 228.236 44.664V43.668C227.936 43.716 227.684 43.728 227.192 43.728H225.524V42.996H226.664C227.144 42.996 227.348 43.008 227.636 43.044V42.108C227.348 42.144 227.108 42.156 226.664 42.156H225.524V41.508H226.484C226.964 41.508 227.204 41.52 227.528 41.568V41.016H228.272C228.248 40.776 228.236 40.548 228.236 40.2V39.672C228.236 39.336 228.248 39.108 228.272 38.856C227.9 38.892 227.552 38.904 226.94 38.904H225.596V38.808C225.596 38.412 225.608 38.184 225.656 37.932H224.456C224.504 38.172 224.516 38.436 224.516 38.82V38.904H222.932C222.332 38.904 222.032 38.892 221.708 38.856C221.744 39.108 221.756 39.324 221.756 39.696V40.272C221.756 40.656 221.744 40.86 221.708 41.112H222.536V41.568C222.86 41.52 223.112 41.508 223.592 41.508H224.54ZM223.592 40.668C223.208 40.668 223.028 40.656 222.74 40.632V39.768H227.288V40.644C227.048 40.656 226.856 40.668 226.484 40.668H225.524C225.524 40.368 225.548 40.224 225.584 40.044H224.48C224.516 40.224 224.54 40.404 224.54 40.668H223.592ZM223.448 45.264C223.016 45.264 222.716 45.252 222.416 45.228C222.452 45.588 222.464 45.9 222.464 46.344V47.88C222.464 48.348 222.44 48.636 222.392 48.96H223.508V48.432H226.484V48.816H227.588C227.54 48.516 227.528 48.264 227.528 47.724V46.296C227.528 45.804 227.54 45.552 227.576 45.228C227.276 45.252 227.024 45.264 226.616 45.264H223.448ZM223.508 46.152H226.484V47.544H223.508V46.152ZM228.812 38.748C228.86 39.084 228.872 39.348 228.872 40.044V44.82C228.872 45.54 228.86 45.768 228.812 46.128H229.964C229.916 45.828 229.904 45.552 229.904 44.82V40.02C229.904 39.384 229.916 39.072 229.964 38.748H228.812ZM230.96 38.04C231.008 38.412 231.032 38.796 231.032 39.516V47.424C231.032 47.736 230.936 47.796 230.408 47.796C230.084 47.796 229.664 47.76 229.028 47.676C229.184 48.036 229.256 48.312 229.316 48.732C229.772 48.768 230.156 48.78 230.444 48.78C231.752 48.78 232.076 48.54 232.076 47.52V39.492C232.076 38.784 232.1 38.364 232.16 38.04H230.96ZM236.12 42.636C236.42 42.6 236.756 42.588 237.104 42.588H240.86C241.304 42.588 241.628 42.6 241.916 42.636V41.676C242.78 42.264 243.26 42.54 244.136 42.948C244.304 42.504 244.436 42.24 244.712 41.856C243.548 41.412 242.54 40.848 241.556 40.08C240.608 39.336 240.08 38.784 239.564 37.992H238.34C237.848 38.772 237.32 39.336 236.48 40.032C235.532 40.812 234.464 41.448 233.336 41.904C233.672 42.288 233.828 42.54 233.96 42.912C234.812 42.516 235.28 42.252 236.12 41.7V42.636ZM237.128 41.556C236.804 41.556 236.612 41.544 236.36 41.532C237.536 40.692 238.184 40.056 238.976 38.94C239.744 39.972 240.44 40.632 241.688 41.532C241.436 41.544 241.232 41.556 240.86 41.556H237.128ZM236.252 48.852V48.216H241.712V48.852H242.912C242.852 48.48 242.84 48.156 242.84 47.64V44.892C242.84 44.4 242.852 44.076 242.9 43.74C242.636 43.776 242.348 43.788 241.892 43.788H236.06C235.604 43.788 235.316 43.776 235.064 43.74C235.1 44.088 235.124 44.424 235.124 44.892V47.64C235.124 48.132 235.1 48.492 235.052 48.852H236.252ZM236.252 44.76H241.712V47.244H236.252V44.76Z" fill="black"/>
<path d="M179.486 71.646C179.452 71.49 179.521 71.386 179.694 71.334L181.904 70.788C182.06 70.7707 182.164 70.84 182.216 70.996C182.39 71.4987 182.676 71.906 183.074 72.218C183.473 72.53 184.002 72.686 184.66 72.686C185.163 72.686 185.614 72.5647 186.012 72.322C186.411 72.062 186.688 71.698 186.844 71.23C186.931 70.9873 186.992 70.7187 187.026 70.424C187.061 70.112 187.078 69.7307 187.078 69.28C187.078 68.7947 187.061 68.4047 187.026 68.11C186.992 67.8153 186.931 67.5553 186.844 67.33C186.671 66.81 186.385 66.4373 185.986 66.212C185.588 65.9867 185.137 65.874 184.634 65.874C184.045 65.874 183.568 66.004 183.204 66.264C182.858 66.524 182.615 66.8013 182.476 67.096C182.407 67.2693 182.303 67.356 182.164 67.356H179.98C179.807 67.356 179.72 67.2693 179.72 67.096V57.58C179.72 57.4067 179.807 57.32 179.98 57.32H189.392C189.566 57.32 189.652 57.4067 189.652 57.58V59.66C189.652 59.8333 189.566 59.92 189.392 59.92H182.554C182.45 59.92 182.398 59.972 182.398 60.076V64.054H182.476C182.684 63.8807 183.005 63.7073 183.438 63.534C183.889 63.3607 184.435 63.274 185.076 63.274C186.22 63.274 187.182 63.534 187.962 64.054C188.76 64.5567 189.314 65.2933 189.626 66.264C189.748 66.6453 189.843 67.0613 189.912 67.512C189.982 67.9627 190.016 68.552 190.016 69.28C190.016 70.4067 189.895 71.334 189.652 72.062C189.306 73.102 188.682 73.8993 187.78 74.454C186.879 75.0087 185.839 75.286 184.66 75.286C183.984 75.286 183.352 75.1993 182.762 75.026C182.173 74.8527 181.653 74.61 181.202 74.298C180.752 73.9687 180.379 73.5873 180.084 73.154C179.79 72.7033 179.59 72.2007 179.486 71.646ZM192.456 71.828C192.404 71.6547 192.352 71.4553 192.3 71.23C192.248 70.9873 192.205 70.6667 192.17 70.268C192.153 69.852 192.135 69.3233 192.118 68.682C192.101 68.0233 192.092 67.1827 192.092 66.16C192.092 65.1373 192.101 64.3053 192.118 63.664C192.135 63.0053 192.153 62.4767 192.17 62.078C192.205 61.662 192.248 61.3413 192.3 61.116C192.352 60.8907 192.404 60.6827 192.456 60.492C192.803 59.3827 193.392 58.5333 194.224 57.944C195.073 57.3373 196.157 57.034 197.474 57.034C198.791 57.034 199.866 57.3373 200.698 57.944C201.547 58.5333 202.154 59.3827 202.518 60.492C202.57 60.6827 202.622 60.8907 202.674 61.116C202.726 61.3413 202.761 61.662 202.778 62.078C202.813 62.4767 202.839 63.0053 202.856 63.664C202.873 64.3053 202.882 65.1373 202.882 66.16C202.882 67.1827 202.873 68.0233 202.856 68.682C202.839 69.3233 202.813 69.852 202.778 70.268C202.761 70.6667 202.726 70.9873 202.674 71.23C202.622 71.4553 202.57 71.6547 202.518 71.828C202.154 72.9373 201.547 73.7953 200.698 74.402C199.866 74.9913 198.791 75.286 197.474 75.286C196.157 75.286 195.073 74.9913 194.224 74.402C193.392 73.7953 192.803 72.9373 192.456 71.828ZM195.316 71.282C195.645 72.218 196.365 72.686 197.474 72.686C198.583 72.686 199.311 72.218 199.658 71.282C199.71 71.1433 199.745 70.9873 199.762 70.814C199.797 70.6407 199.823 70.372 199.84 70.008C199.857 69.644 199.866 69.1587 199.866 68.552C199.883 67.9453 199.892 67.148 199.892 66.16C199.892 65.172 199.883 64.3747 199.866 63.768C199.866 63.1613 199.857 62.676 199.84 62.312C199.823 61.948 199.797 61.6793 199.762 61.506C199.745 61.3327 199.71 61.1767 199.658 61.038C199.311 60.102 198.583 59.634 197.474 59.634C196.365 59.634 195.645 60.102 195.316 61.038C195.264 61.1767 195.221 61.3327 195.186 61.506C195.169 61.6793 195.151 61.948 195.134 62.312C195.117 62.676 195.099 63.1613 195.082 63.768C195.082 64.3747 195.082 65.172 195.082 66.16C195.082 67.148 195.082 67.9453 195.082 68.552C195.099 69.1587 195.117 69.644 195.134 70.008C195.151 70.372 195.169 70.6407 195.186 70.814C195.221 70.9873 195.264 71.1433 195.316 71.282Z" fill="#00655A"/>
<path d="M208.233 70.264C208.845 70.264 209.385 70.06 209.769 69.688C210.225 69.244 210.453 68.536 210.453 67.624C210.453 65.968 209.637 65.008 208.233 65.008C206.829 65.008 206.001 65.98 206.001 67.636C206.001 68.536 206.241 69.256 206.685 69.676C207.069 70.06 207.609 70.264 208.233 70.264ZM208.221 65.908C208.965 65.908 209.385 66.532 209.385 67.6C209.385 68.74 208.977 69.364 208.233 69.364C207.477 69.364 207.069 68.74 207.069 67.612C207.069 66.52 207.489 65.908 208.221 65.908ZM213.765 74.74C214.377 74.74 214.917 74.536 215.301 74.164C215.757 73.708 215.985 73.012 215.985 72.088C215.985 70.432 215.169 69.472 213.765 69.472C212.361 69.472 211.533 70.444 211.533 72.1C211.533 73.768 212.349 74.74 213.765 74.74ZM213.753 70.372C214.101 70.372 214.341 70.48 214.545 70.744C214.785 71.044 214.917 71.512 214.917 72.088C214.917 73.216 214.509 73.84 213.765 73.84C213.009 73.84 212.601 73.216 212.601 72.064C212.601 70.984 213.021 70.372 213.753 70.372ZM206.997 74.38L207.561 74.836L215.001 65.356L214.425 64.912L206.997 74.38Z" fill="#00655A"/>
<path d="M85.795 6.575C85.735 7.85 85.615 8.63 85.3 9.725C84.835 11.315 83.98 12.845 82.825 14.12C81.805 15.26 81.025 15.89 79.63 16.715C80.125 17.12 80.41 17.45 80.695 18.005C82.36 16.865 83.515 15.8 84.49 14.465C85.495 13.1 86.11 11.765 86.62 9.8C87.04 11.465 87.625 12.755 88.555 14.09C89.635 15.635 90.82 16.82 92.47 17.975C92.845 17.315 93.04 17.06 93.565 16.565C92.41 15.875 91.915 15.515 91.105 14.72C90.115 13.775 89.365 12.815 88.765 11.75C87.79 9.995 87.295 8.105 87.295 6.095C87.295 5.795 87.31 5.495 87.34 5.15C86.995 5.21 86.635 5.225 85.96 5.225H83.74C83.125 5.225 82.81 5.21 82.45 5.15V6.65C82.99 6.605 83.395 6.575 83.755 6.575H85.795ZM101.605 12.125C101.53 13.61 101.305 14.42 100.765 15.185C100.15 16.055 99.31 16.61 97.825 17.105C98.23 17.495 98.41 17.72 98.71 18.215C100.33 17.495 101.245 16.82 101.86 15.86C102.505 14.855 102.76 13.895 102.865 12.125H104.11V16.955C104.11 17.735 104.56 17.96 106.18 17.96C108.04 17.96 108.28 17.63 108.52 14.9C107.965 14.78 107.755 14.705 107.275 14.45C107.23 15.62 107.17 16.19 107.05 16.445C106.945 16.655 106.765 16.73 106.27 16.73C105.535 16.73 105.4 16.67 105.4 16.4V12.125H106.81C107.395 12.125 107.83 12.155 108.25 12.215V10.895C107.83 10.955 107.485 10.97 106.81 10.97H101.245C100.675 10.97 100.24 10.94 99.835 10.895V12.2C100.255 12.14 100.585 12.125 101.23 12.125H101.605ZM99.64 8.045C99.64 8.465 99.625 8.72 99.595 8.99L99.58 9.125H100.84V9.74C101.17 9.695 101.545 9.68 102.01 9.68H105.73C106.18 9.68 106.495 9.695 106.885 9.74V9.155H108.205C108.16 8.81 108.145 8.57 108.145 8.105V6.98C108.145 6.44 108.16 6.275 108.19 5.945C107.8 6.005 107.38 6.02 106.81 6.02H104.395V5.51C104.395 5 104.41 4.73 104.47 4.43H102.94C102.985 4.73 103.015 5.06 103.015 5.48V6.02H101.08C100.45 6.02 100.105 6.005 99.715 5.975C99.79 5.795 99.85 5.66 99.895 5.555L99.295 4.865C99.085 4.91 98.86 4.925 98.365 4.925H96.175C95.71 4.925 95.38 4.91 95.14 4.88C95.17 5.345 95.185 5.705 95.185 6.155V16.58C95.185 17.21 95.155 17.72 95.095 18.17H96.535C96.475 17.705 96.46 17.285 96.46 16.61V6.125H98.29C97.885 7.4 97.435 8.51 96.88 9.62C97.39 10.235 97.66 10.61 97.855 11C98.2 11.645 98.395 12.335 98.395 12.905C98.395 13.175 98.335 13.43 98.245 13.505C98.155 13.565 97.96 13.61 97.675 13.61C97.42 13.61 97.15 13.58 96.865 13.52C97.03 13.955 97.105 14.27 97.135 14.87C97.21 14.87 97.255 14.87 97.3 14.87C97.735 14.87 98.215 14.825 98.53 14.78C99.295 14.63 99.655 14.105 99.655 13.16C99.655 12.56 99.535 11.87 99.31 11.3C99.1 10.73 98.86 10.325 98.26 9.47C98.845 8.21 99.1 7.61 99.61 6.245C99.625 6.425 99.64 6.725 99.64 6.98V8.045ZM106.84 8.465C106.495 8.51 106.285 8.525 105.73 8.525H102.025C101.455 8.525 101.23 8.51 100.9 8.465V7.22H106.84V8.465ZM116.5 9.74C115.645 9.74 114.94 10.445 114.94 11.3C114.94 12.155 115.645 12.86 116.5 12.86C117.355 12.86 118.06 12.155 118.06 11.3C118.06 10.43 117.37 9.74 116.5 9.74ZM130.945 8.765H127.405C126.61 8.765 126.115 8.735 125.65 8.675V10.115C126.16 10.055 126.76 10.025 127.405 10.025H130.945V12.05H126.565C125.785 12.05 125.305 12.02 124.84 11.96V13.4C125.335 13.34 125.815 13.31 126.565 13.31H130.945V16.115C130.945 16.475 130.81 16.58 130.39 16.58C129.715 16.58 128.695 16.49 127.825 16.34C128.065 16.895 128.14 17.18 128.2 17.735C128.935 17.81 129.865 17.855 130.51 17.855C131.905 17.855 132.34 17.525 132.34 16.46V13.31H136.345C137.11 13.31 137.575 13.34 138.085 13.4V11.96C137.62 12.02 137.14 12.05 136.345 12.05H132.34V10.025H135.67C136.39 10.025 136.945 10.055 137.41 10.115V8.675C136.945 8.735 136.45 8.765 135.655 8.765H132.34V6.59C133.705 6.425 134.845 6.2 136.885 5.675L135.835 4.43C135.1 4.76 134.32 4.97 132.88 5.225C131.05 5.54 128.275 5.765 126.22 5.765C126.085 5.765 125.905 5.765 125.665 5.765C125.965 6.35 126.04 6.53 126.16 7.07C127.525 7.025 129.055 6.95 129.82 6.86C130.645 6.785 130.645 6.785 130.945 6.755V8.765ZM150.79 9.815V16.355C150.79 16.61 150.685 16.685 150.31 16.685C149.68 16.685 149.17 16.64 148.51 16.55C148.675 16.91 148.75 17.3 148.795 17.87C149.275 17.9 149.74 17.915 150.16 17.915C151.66 17.915 152.065 17.63 152.065 16.52V9.815H152.23C152.815 9.815 153.1 9.83 153.46 9.89V8.48C153.115 8.54 152.83 8.555 152.23 8.555H150.055C149.62 8.555 149.35 8.54 149.14 8.51V7.385C148.75 7.445 148.45 7.46 147.805 7.46H147.04V6.095C147.04 5.39 147.055 5.06 147.13 4.55H145.69C145.75 5.045 145.78 5.39 145.78 6.095V7.46H144.835C144.175 7.46 143.875 7.445 143.5 7.385V8.405L142.405 7.625C142.285 7.97 141.97 8.585 141.7 8.975C140.86 10.175 140.275 10.805 139.39 11.45C139.675 11.915 139.78 12.155 139.945 12.77C140.38 12.425 140.755 12.05 141.07 11.63C141.04 12.53 141.04 12.74 141.04 13.31V16.355C141.04 17.18 141.01 17.63 140.95 18.11H142.39C142.33 17.66 142.315 17.24 142.315 16.385V10.325C142.57 9.98 143.005 9.32 143.23 8.93C143.29 8.825 143.335 8.75 143.365 8.69C143.47 8.555 143.47 8.555 143.5 8.495V8.765C143.815 8.705 144.07 8.69 144.55 8.69H145.78V16.325C145.78 17.105 145.75 17.54 145.69 18.08H147.13C147.055 17.525 147.04 17.12 147.04 16.325V8.69H148.075C148.495 8.69 148.75 8.705 149.035 8.735V9.875C149.35 9.83 149.575 9.815 150.055 9.815H150.79ZM142.255 4.385C141.775 5.36 140.755 6.44 139.51 7.25C139.885 7.715 139.975 7.88 140.185 8.405C141.16 7.7 142.105 6.8 142.87 5.795C143.305 5.24 143.305 5.24 143.455 5.075L142.255 4.385ZM143.845 9.77C143.815 11.075 143.68 12.425 143.515 13.385C143.335 14.3 143.125 15.02 142.75 15.86C143.245 16.07 143.455 16.205 143.875 16.52C144.505 14.87 144.82 13.07 145 9.935L143.845 9.77ZM147.55 10.025C148.03 11.615 148.33 13.205 148.585 15.53L149.785 15.11C149.485 13.085 149.155 11.54 148.63 9.74L147.55 10.025ZM147.22 5.255C147.82 6.005 148.015 6.305 148.42 7.145L149.44 6.5C149.005 5.75 148.735 5.36 148.165 4.7L147.22 5.255ZM153.205 5.315C152.89 5.375 152.56 5.39 152.05 5.39H150.625C150.145 5.39 149.77 5.36 149.47 5.315V6.71C149.8 6.665 150.175 6.635 150.61 6.635H152.05C152.53 6.635 152.875 6.65 153.205 6.71V5.315ZM163.81 8.57V7.88H165.895C166.465 7.88 166.855 7.895 167.335 7.925C167.29 7.61 167.29 7.475 167.29 6.95V6.38C167.29 5.87 167.305 5.63 167.35 5.3C167.005 5.345 166.48 5.375 165.91 5.375H163.81V5.3C163.81 4.91 163.825 4.715 163.885 4.4H162.505C162.565 4.7 162.58 4.895 162.58 5.285V5.375H160.645C160.66 4.91 160.675 4.595 160.705 4.4H159.34C159.385 4.745 159.4 4.91 159.415 5.375H156.85C156.115 5.375 155.77 5.36 155.395 5.3V6.425C155.755 6.38 156.22 6.35 156.85 6.35H159.385C159.37 6.59 159.37 6.695 159.34 6.995H157.345C156.73 6.995 156.37 6.98 156.04 6.95C155.875 7.91 155.62 8.69 155.185 9.545C155.59 9.515 156.07 9.5 156.475 9.5H158.335C157.6 10.16 156.58 10.565 154.615 10.985C154.93 11.375 155.065 11.6 155.245 12.065C155.965 11.825 156.22 11.735 156.61 11.585V14.6C156.61 15.29 156.595 15.83 156.55 16.115C156.955 16.085 157.51 16.07 158.17 16.07H159.055C157.735 16.745 156.685 17.045 154.795 17.285C155.17 17.66 155.35 17.93 155.56 18.395C157.675 17.975 158.605 17.645 160.21 16.715L159.415 16.07H163.75L162.895 16.715C163.855 17.27 164.35 17.51 165.28 17.81C166.075 18.08 166.6 18.215 167.65 18.395C167.905 17.9 167.98 17.795 168.43 17.24C167.17 17.12 166.42 16.985 165.475 16.685C164.935 16.505 164.725 16.415 164.08 16.07H164.995C165.64 16.07 166.225 16.085 166.615 16.115C166.57 15.74 166.555 15.26 166.555 14.54V12.035C166.555 11.51 166.555 11.45 166.57 10.97C167.17 10.955 167.425 10.88 167.635 10.67C167.845 10.46 167.92 10.175 168.07 9.23C168.115 8.825 168.115 8.825 168.175 8.525C167.83 8.555 167.56 8.57 166.825 8.57H163.81ZM165.07 10.445H158.83C159.295 10.1 159.49 9.905 159.775 9.5H162.58C162.565 9.86 162.565 9.935 162.52 10.145H163.87C163.84 9.95 163.825 9.815 163.81 9.5H166.765C166.69 10.055 166.66 10.1 166.3 10.1C166.105 10.1 165.805 10.04 165.46 9.935C165.55 10.16 165.565 10.235 165.625 10.445H165.07ZM159.205 7.88C159.115 8.195 159.085 8.3 158.98 8.57H156.865C156.955 8.36 156.955 8.345 157.12 7.88H159.205ZM162.58 7.88V8.57H160.225C160.315 8.285 160.36 8.15 160.42 7.88H162.58ZM162.58 6.35V6.995H160.555C160.585 6.725 160.585 6.62 160.615 6.35H162.58ZM163.81 6.35H166V6.995H163.81V6.35ZM157.9 11.39H165.265V12.05H157.9V11.39ZM157.9 12.905H165.265V13.565H157.9V12.905ZM157.9 14.42H165.265V15.11H157.9V14.42ZM177.295 13.37H181.21V16.295C181.21 16.64 181.09 16.7 180.445 16.7C179.935 16.7 179.215 16.655 178.465 16.565C178.66 17.09 178.735 17.405 178.795 17.9C179.29 17.93 180.055 17.96 180.505 17.96C182.155 17.96 182.56 17.69 182.56 16.55V6.62C182.56 5.84 182.575 5.465 182.62 5.015C182.17 5.06 181.765 5.075 180.955 5.075H172.69C171.88 5.075 171.49 5.06 170.995 5.015C171.04 5.645 171.055 6.095 171.055 7.34C171.055 11.165 170.92 13.265 170.605 14.675C170.38 15.665 170.05 16.4 169.465 17.21C169.99 17.555 170.17 17.69 170.68 18.185C171.595 16.82 172.03 15.515 172.255 13.37H175.96V15.98C175.96 16.82 175.945 17.255 175.885 17.705H177.37C177.31 17.285 177.295 16.805 177.295 15.98V13.37ZM177.295 8.6V6.365H181.21V8.6H177.295ZM175.96 8.6H172.42L172.435 8.015V6.365H175.96V8.6ZM177.295 9.83H181.21V12.125H177.295V9.83ZM175.96 9.83V12.125H172.345C172.375 11.615 172.375 11.6 172.39 10.79C172.39 10.58 172.39 10.25 172.405 9.83H175.96Z" fill="#00655A"/>
</svg>
