<!-- 01EZTX9M3AWK0ZB16B6KYR56F1 -->

<svg width="112" height="89" viewBox="0 0 112 89" fill="none" xmlns="http://www.w3.org/2000/svg">
<mask id="path-2-inside-1" fill="white">
<path fill-rule="evenodd" clip-rule="evenodd" d="M102 0C107.523 0 112 4.47714 112 9.99999V68.6154C112 74.1382 107.523 78.6154 102 78.6154H59.9806L54.3846 88.308L48.7886 78.6154H10C4.47715 78.6154 0 74.1382 0 68.6154V10C0 4.47715 4.47716 0 10 0H102Z"/>
</mask>
<path fill-rule="evenodd" clip-rule="evenodd" d="M102 0C107.523 0 112 4.47714 112 9.99999V68.6154C112 74.1382 107.523 78.6154 102 78.6154H59.9806L54.3846 88.308L48.7886 78.6154H10C4.47715 78.6154 0 74.1382 0 68.6154V10C0 4.47715 4.47716 0 10 0H102Z" fill="white"/>
<path d="M59.9806 78.6154L56.25 76.4615L57.4936 74.3077H59.9806V78.6154ZM54.3846 88.308L58.1152 90.4618L54.3846 96.9233L50.654 90.4618L54.3846 88.308ZM48.7886 78.6154V74.3077H51.2757L52.5192 76.4615L48.7886 78.6154ZM107.692 9.99999C107.692 6.85622 105.144 4.30769 102 4.30769V-4.30769C109.902 -4.30769 116.308 2.09806 116.308 9.99999H107.692ZM107.692 68.6154V9.99999H116.308V68.6154H107.692ZM102 74.3077C105.144 74.3077 107.692 71.7592 107.692 68.6154H116.308C116.308 76.5173 109.902 82.9231 102 82.9231V74.3077ZM59.9806 74.3077H102V82.9231H59.9806V74.3077ZM50.654 86.1541L56.25 76.4615L63.7112 80.7692L58.1152 90.4618L50.654 86.1541ZM52.5192 76.4615L58.1152 86.1541L50.654 90.4618L45.058 80.7692L52.5192 76.4615ZM10 74.3077H48.7886V82.9231H10V74.3077ZM4.30769 68.6154C4.30769 71.7592 6.85622 74.3077 10 74.3077V82.9231C2.09808 82.9231 -4.30769 76.5173 -4.30769 68.6154H4.30769ZM4.30769 10V68.6154H-4.30769V10H4.30769ZM10 4.30769C6.85623 4.30769 4.30769 6.85623 4.30769 10H-4.30769C-4.30769 2.09808 2.09808 -4.30769 10 -4.30769V4.30769ZM102 4.30769H10V-4.30769H102V4.30769Z" fill="#00655A" mask="url(#path-2-inside-1)"/>
<path d="M48.9166 60.7654V61.4854H50.2606C50.2126 61.0774 50.2006 60.8014 50.2006 60.2014V53.9014C50.2006 53.3974 50.2006 53.2654 50.2246 52.9294C49.8166 52.9534 49.8166 52.9534 49.2166 52.9534H43.7326C42.7486 52.9534 42.6166 52.9414 42.1246 52.8694V54.1894C42.5926 54.1414 42.8206 54.1294 43.7206 54.1294H48.9166V59.5894H43.4926C42.6166 59.5894 42.3886 59.5774 41.9446 59.5054V60.8254C42.3526 60.7774 42.5686 60.7654 43.4686 60.7654H48.9166ZM53.0926 57.5614C53.5846 57.5134 53.9446 57.5014 54.9526 57.5014H61.4206C62.3086 57.5014 62.6926 57.5134 63.2206 57.5614V56.1694C62.7526 56.2294 62.4646 56.2414 61.4326 56.2414H54.9406C54.0526 56.2414 53.5366 56.2174 53.0926 56.1574V57.5614ZM74.0133 60.7174C72.4893 59.1814 71.5293 58.3414 70.0173 57.2494C70.7493 56.3254 71.3613 55.2694 71.9373 53.9374C72.0573 53.6494 72.1533 53.4814 72.2973 53.3254L71.6253 52.6174C71.3613 52.7134 71.2533 52.7374 70.6773 52.7374L66.6813 52.7974C66.5373 52.7974 66.4053 52.7974 66.3573 52.7974C65.8293 52.7974 65.5293 52.7734 65.1213 52.7254L65.1573 54.0334C65.7213 53.9614 65.9493 53.9494 66.6933 53.9374L70.1733 53.8774C70.3293 53.8774 70.4013 53.8774 70.5453 53.8654C70.5213 53.9254 70.5213 53.9254 70.4973 53.9734C70.4613 54.0454 70.4613 54.0454 70.4253 54.1534C69.6213 56.0854 68.1333 57.9214 66.2853 59.2534C65.3733 59.9014 64.7973 60.2254 63.8733 60.5854C64.3053 61.0294 64.4253 61.1854 64.6893 61.7014C66.5733 60.7654 67.8813 59.7574 69.2733 58.1854C70.7493 59.3614 72.0693 60.6214 73.0173 61.8214L74.0133 60.7174Z" fill="black"/>
<path d="M29.6368 39.098C29.5862 38.87 29.6875 38.718 29.9408 38.642L33.1708 37.844C33.3988 37.8187 33.5508 37.92 33.6268 38.148C33.8802 38.8827 34.2982 39.478 34.8808 39.934C35.4635 40.39 36.2362 40.618 37.1988 40.618C37.9335 40.618 38.5922 40.4407 39.1748 40.086C39.7575 39.706 40.1628 39.174 40.3908 38.49C40.5175 38.1353 40.6062 37.7427 40.6568 37.312C40.7075 36.856 40.7328 36.2987 40.7328 35.64C40.7328 34.9307 40.7075 34.3607 40.6568 33.93C40.6062 33.4993 40.5175 33.1193 40.3908 32.79C40.1375 32.03 39.7195 31.4853 39.1368 31.156C38.5542 30.8267 37.8955 30.662 37.1608 30.662C36.2995 30.662 35.6028 30.852 35.0708 31.232C34.5642 31.612 34.2095 32.0173 34.0068 32.448C33.9055 32.7013 33.7535 32.828 33.5508 32.828H30.3588C30.1055 32.828 29.9788 32.7013 29.9788 32.448V18.54C29.9788 18.2867 30.1055 18.16 30.3588 18.16H44.1148C44.3682 18.16 44.4948 18.2867 44.4948 18.54V21.58C44.4948 21.8333 44.3682 21.96 44.1148 21.96H34.1208C33.9688 21.96 33.8928 22.036 33.8928 22.188V28.002H34.0068C34.3108 27.7487 34.7795 27.4953 35.4128 27.242C36.0715 26.9887 36.8695 26.862 37.8068 26.862C39.4788 26.862 40.8848 27.242 42.0248 28.002C43.1902 28.7367 44.0008 29.8133 44.4568 31.232C44.6342 31.7893 44.7735 32.3973 44.8748 33.056C44.9762 33.7147 45.0268 34.576 45.0268 35.64C45.0268 37.2867 44.8495 38.642 44.4948 39.706C43.9882 41.226 43.0762 42.3913 41.7588 43.202C40.4415 44.0127 38.9215 44.418 37.1988 44.418C36.2108 44.418 35.2862 44.2913 34.4248 44.038C33.5635 43.7847 32.8035 43.43 32.1448 42.974C31.4862 42.4927 30.9415 41.9353 30.5108 41.302C30.0802 40.6433 29.7888 39.9087 29.6368 39.098ZM49.7323 39.364C49.6563 39.1107 49.5803 38.8193 49.5043 38.49C49.4283 38.1353 49.365 37.6667 49.3143 37.084C49.289 36.476 49.2636 35.7033 49.2383 34.766C49.213 33.8033 49.2003 32.5747 49.2003 31.08C49.2003 29.5853 49.213 28.3693 49.2383 27.432C49.2636 26.4693 49.289 25.6967 49.3143 25.114C49.365 24.506 49.4283 24.0373 49.5043 23.708C49.5803 23.3787 49.6563 23.0747 49.7323 22.796C50.239 21.1747 51.1003 19.9333 52.3163 19.072C53.5576 18.1853 55.141 17.742 57.0663 17.742C58.9916 17.742 60.5623 18.1853 61.7783 19.072C63.0196 19.9333 63.9063 21.1747 64.4383 22.796C64.5143 23.0747 64.5903 23.3787 64.6663 23.708C64.7423 24.0373 64.793 24.506 64.8183 25.114C64.869 25.6967 64.907 26.4693 64.9323 27.432C64.9576 28.3693 64.9703 29.5853 64.9703 31.08C64.9703 32.5747 64.9576 33.8033 64.9323 34.766C64.907 35.7033 64.869 36.476 64.8183 37.084C64.793 37.6667 64.7423 38.1353 64.6663 38.49C64.5903 38.8193 64.5143 39.1107 64.4383 39.364C63.9063 40.9853 63.0196 42.2393 61.7783 43.126C60.5623 43.9873 58.9916 44.418 57.0663 44.418C55.141 44.418 53.5576 43.9873 52.3163 43.126C51.1003 42.2393 50.239 40.9853 49.7323 39.364ZM53.9123 38.566C54.3936 39.934 55.445 40.618 57.0663 40.618C58.6876 40.618 59.7516 39.934 60.2583 38.566C60.3343 38.3633 60.385 38.1353 60.4103 37.882C60.461 37.6287 60.499 37.236 60.5243 36.704C60.5496 36.172 60.5623 35.4627 60.5623 34.576C60.5876 33.6893 60.6003 32.524 60.6003 31.08C60.6003 29.636 60.5876 28.4707 60.5623 27.584C60.5623 26.6973 60.5496 25.988 60.5243 25.456C60.499 24.924 60.461 24.5313 60.4103 24.278C60.385 24.0247 60.3343 23.7967 60.2583 23.594C59.7516 22.226 58.6876 21.542 57.0663 21.542C55.445 21.542 54.3936 22.226 53.9123 23.594C53.8363 23.7967 53.773 24.0247 53.7223 24.278C53.697 24.5313 53.6716 24.924 53.6463 25.456C53.621 25.988 53.5956 26.6973 53.5703 27.584C53.5703 28.4707 53.5703 29.636 53.5703 31.08C53.5703 32.524 53.5703 33.6893 53.5703 34.576C53.5956 35.4627 53.621 36.172 53.6463 36.704C53.6716 37.236 53.697 37.6287 53.7223 37.882C53.773 38.1353 53.8363 38.3633 53.9123 38.566ZM69.3098 43.94L70.3298 44.76L82.9298 28.64L81.8898 27.84L69.3098 43.94ZM80.8298 44.56C81.9298 44.56 82.8498 44.22 83.5298 43.54C84.2898 42.8 84.6898 41.6 84.6898 40.08C84.6898 38.58 84.2898 37.38 83.5298 36.64C82.8698 35.98 81.9298 35.62 80.8298 35.62C79.7298 35.62 78.7898 35.98 78.1098 36.64C77.3498 37.4 76.9498 38.58 76.9498 40.08C76.9498 41.6 77.3498 42.8 78.1098 43.54C78.7898 44.22 79.7098 44.56 80.8298 44.56ZM80.8298 37.32C81.4098 37.32 81.7698 37.5 82.1098 37.94C82.4498 38.42 82.6498 39.14 82.6498 39.94C82.6498 41.88 82.0298 42.88 80.8298 42.88C79.6498 42.88 79.0098 41.88 79.0098 40.04C79.0098 39.14 79.1898 38.46 79.5498 37.96C79.8698 37.5 80.2498 37.32 80.8298 37.32ZM71.4098 36.96C72.5098 36.96 73.4298 36.62 74.1098 35.94C74.8698 35.2 75.2698 34 75.2698 32.48C75.2698 30.98 74.8698 29.78 74.1098 29.04C73.4498 28.38 72.5098 28.02 71.4098 28.02C68.9698 28.02 67.5298 29.68 67.5298 32.48C67.5298 33.98 67.9298 35.2 68.6898 35.94C69.3698 36.62 70.2898 36.96 71.4098 36.96ZM71.4098 29.72C72.0698 29.72 72.5298 30 72.8698 30.62C73.0898 31.04 73.2298 31.76 73.2298 32.48C73.2298 34.28 72.5698 35.28 71.4098 35.28C70.2298 35.28 69.5898 34.28 69.5898 32.44C69.5898 30.7 70.2498 29.72 71.4098 29.72Z" fill="#00655A"/>
</svg>
