<!-- 01EZTX9M3AWK0ZB16B6KYR56F1 -->

<svg width="94" height="60" viewBox="0 0 94 60" fill="none" xmlns="http://www.w3.org/2000/svg">
<mask id="path-2-inside-1" fill="white">
<path d="M0 10C0 4.47715 4.47715 0 10 0H84C89.5229 0 94 4.47715 94 10V58H0V10Z"/>
</mask>
<path d="M0 10C0 4.47715 4.47715 0 10 0H84C89.5229 0 94 4.47715 94 10V58H0V10Z" fill="#00655A"/>
<path d="M94 58V62H98V58H94ZM0 58H-4V62H0V58ZM10 4H84V-4H10V4ZM90 10V58H98V10H90ZM94 54H0V62H94V54ZM4 58V10H-4V58H4ZM84 4C87.3137 4 90 6.68629 90 10H98C98 2.26801 91.732 -4 84 -4V4ZM10 -4C2.26801 -4 -4 2.26801 -4 10H4C4 6.68629 6.68629 4 10 4V-4Z" fill="#00655A" mask="url(#path-2-inside-1)"/>
<path d="M38.6017 50.412V51.144H40.2097C40.1617 50.844 40.1497 50.508 40.1497 49.908V43.32C40.1497 42.768 40.1497 42.648 40.1857 42.324C39.7657 42.348 39.7657 42.348 39.1417 42.348H33.3697C32.4937 42.348 32.2657 42.336 31.8217 42.264V43.824C32.2537 43.776 32.5057 43.764 33.3577 43.764H38.6137V48.996H33.1537C32.3137 48.996 32.0977 48.984 31.6537 48.912V50.46C32.0137 50.424 32.3017 50.412 33.1297 50.412H38.6017ZM42.8257 47.232C43.3057 47.172 43.4377 47.172 44.7817 47.172H51.1537C52.4977 47.172 52.6297 47.172 53.1097 47.232V45.564C52.5817 45.636 52.3537 45.648 51.1657 45.648H44.7697C43.5817 45.648 43.3537 45.636 42.8257 45.564V47.232ZM63.9744 50.148C62.5224 48.744 62.5224 48.744 62.2224 48.48C61.4064 47.748 60.7584 47.244 60.0024 46.74C60.7344 45.756 61.3224 44.712 61.8744 43.428C62.0064 43.128 62.1024 42.96 62.2584 42.78L61.4664 41.964C61.1664 42.072 61.0704 42.084 60.3984 42.096L56.1744 42.156C56.0304 42.156 55.9344 42.156 55.8864 42.156C55.3944 42.156 55.1664 42.144 54.8304 42.084L54.8784 43.62C55.2864 43.56 55.6104 43.536 56.1864 43.524C59.9664 43.464 59.9664 43.464 60.1584 43.452L60.0264 43.764C59.2464 45.636 57.8064 47.376 55.9944 48.648C55.0944 49.284 54.5184 49.608 53.5944 49.968C54.0864 50.484 54.2304 50.676 54.5664 51.3C56.4024 50.4 57.7824 49.344 59.1384 47.832C60.4464 48.828 61.8264 50.172 62.8224 51.396L63.9744 50.148Z" fill="white"/>
<path d="M22.1871 31.356C22.1391 31.14 22.2351 30.996 22.4751 30.924L25.5351 30.168C25.7511 30.144 25.8951 30.24 25.9671 30.456C26.2071 31.152 26.6031 31.716 27.1551 32.148C27.7071 32.58 28.4391 32.796 29.3511 32.796C30.0471 32.796 30.6711 32.628 31.2231 32.292C31.7751 31.932 32.1591 31.428 32.3751 30.78C32.4951 30.444 32.5791 30.072 32.6271 29.664C32.6751 29.232 32.6991 28.704 32.6991 28.08C32.6991 27.408 32.6751 26.868 32.6271 26.46C32.5791 26.052 32.4951 25.692 32.3751 25.38C32.1351 24.66 31.7391 24.144 31.1871 23.832C30.6351 23.52 30.0111 23.364 29.3151 23.364C28.4991 23.364 27.8391 23.544 27.3351 23.904C26.8551 24.264 26.5191 24.648 26.3271 25.056C26.2311 25.296 26.0871 25.416 25.8951 25.416H22.8711C22.6311 25.416 22.5111 25.296 22.5111 25.056V11.88C22.5111 11.64 22.6311 11.52 22.8711 11.52H35.9031C36.1431 11.52 36.2631 11.64 36.2631 11.88V14.76C36.2631 15 36.1431 15.12 35.9031 15.12H26.4351C26.2911 15.12 26.2191 15.192 26.2191 15.336V20.844H26.3271C26.6151 20.604 27.0591 20.364 27.6591 20.124C28.2831 19.884 29.0391 19.764 29.9271 19.764C31.5111 19.764 32.8431 20.124 33.9231 20.844C35.0271 21.54 35.7951 22.56 36.2271 23.904C36.3951 24.432 36.5271 25.008 36.6231 25.632C36.7191 26.256 36.7671 27.072 36.7671 28.08C36.7671 29.64 36.5991 30.924 36.2631 31.932C35.7831 33.372 34.9191 34.476 33.6711 35.244C32.4231 36.012 30.9831 36.396 29.3511 36.396C28.4151 36.396 27.5391 36.276 26.7231 36.036C25.9071 35.796 25.1871 35.46 24.5631 35.028C23.9391 34.572 23.4231 34.044 23.0151 33.444C22.6071 32.82 22.3311 32.124 22.1871 31.356ZM40.5049 31.608C40.4329 31.368 40.3609 31.092 40.2889 30.78C40.2169 30.444 40.1569 30 40.1089 29.448C40.0849 28.872 40.0609 28.14 40.0369 27.252C40.0129 26.34 40.0009 25.176 40.0009 23.76C40.0009 22.344 40.0129 21.192 40.0369 20.304C40.0609 19.392 40.0849 18.66 40.1089 18.108C40.1569 17.532 40.2169 17.088 40.2889 16.776C40.3609 16.464 40.4329 16.176 40.5049 15.912C40.9849 14.376 41.8009 13.2 42.9529 12.384C44.1289 11.544 45.6289 11.124 47.4529 11.124C49.2769 11.124 50.7649 11.544 51.9169 12.384C53.0929 13.2 53.9329 14.376 54.4369 15.912C54.5089 16.176 54.5809 16.464 54.6529 16.776C54.7249 17.088 54.7729 17.532 54.7969 18.108C54.8449 18.66 54.8809 19.392 54.9049 20.304C54.9289 21.192 54.9409 22.344 54.9409 23.76C54.9409 25.176 54.9289 26.34 54.9049 27.252C54.8809 28.14 54.8449 28.872 54.7969 29.448C54.7729 30 54.7249 30.444 54.6529 30.78C54.5809 31.092 54.5089 31.368 54.4369 31.608C53.9329 33.144 53.0929 34.332 51.9169 35.172C50.7649 35.988 49.2769 36.396 47.4529 36.396C45.6289 36.396 44.1289 35.988 42.9529 35.172C41.8009 34.332 40.9849 33.144 40.5049 31.608ZM44.4649 30.852C44.9209 32.148 45.9169 32.796 47.4529 32.796C48.9889 32.796 49.9969 32.148 50.4769 30.852C50.5489 30.66 50.5969 30.444 50.6209 30.204C50.6689 29.964 50.7049 29.592 50.7289 29.088C50.7529 28.584 50.7649 27.912 50.7649 27.072C50.7889 26.232 50.8009 25.128 50.8009 23.76C50.8009 22.392 50.7889 21.288 50.7649 20.448C50.7649 19.608 50.7529 18.936 50.7289 18.432C50.7049 17.928 50.6689 17.556 50.6209 17.316C50.5969 17.076 50.5489 16.86 50.4769 16.668C49.9969 15.372 48.9889 14.724 47.4529 14.724C45.9169 14.724 44.9209 15.372 44.4649 16.668C44.3929 16.86 44.3329 17.076 44.2849 17.316C44.2609 17.556 44.2369 17.928 44.2129 18.432C44.1889 18.936 44.1649 19.608 44.1409 20.448C44.1409 21.288 44.1409 22.392 44.1409 23.76C44.1409 25.128 44.1409 26.232 44.1409 27.072C44.1649 27.912 44.1889 28.584 44.2129 29.088C44.2369 29.592 44.2609 29.964 44.2849 30.204C44.3329 30.444 44.3929 30.66 44.4649 30.852ZM58.2107 35.946L59.1287 36.684L70.4687 22.176L69.5327 21.456L58.2107 35.946ZM68.5787 36.504C69.5687 36.504 70.3967 36.198 71.0087 35.586C71.6927 34.92 72.0527 33.84 72.0527 32.472C72.0527 31.122 71.6927 30.042 71.0087 29.376C70.4147 28.782 69.5687 28.458 68.5787 28.458C67.5887 28.458 66.7427 28.782 66.1307 29.376C65.4467 30.06 65.0867 31.122 65.0867 32.472C65.0867 33.84 65.4467 34.92 66.1307 35.586C66.7427 36.198 67.5707 36.504 68.5787 36.504ZM68.5787 29.988C69.1007 29.988 69.4247 30.15 69.7307 30.546C70.0367 30.978 70.2167 31.626 70.2167 32.346C70.2167 34.092 69.6587 34.992 68.5787 34.992C67.5167 34.992 66.9407 34.092 66.9407 32.436C66.9407 31.626 67.1027 31.014 67.4267 30.564C67.7147 30.15 68.0567 29.988 68.5787 29.988ZM60.1007 29.664C61.0907 29.664 61.9187 29.358 62.5307 28.746C63.2147 28.08 63.5747 27 63.5747 25.632C63.5747 24.282 63.2147 23.202 62.5307 22.536C61.9367 21.942 61.0907 21.618 60.1007 21.618C57.9047 21.618 56.6087 23.112 56.6087 25.632C56.6087 26.982 56.9687 28.08 57.6527 28.746C58.2647 29.358 59.0927 29.664 60.1007 29.664ZM60.1007 23.148C60.6947 23.148 61.1087 23.4 61.4147 23.958C61.6127 24.336 61.7387 24.984 61.7387 25.632C61.7387 27.252 61.1447 28.152 60.1007 28.152C59.0387 28.152 58.4627 27.252 58.4627 25.596C58.4627 24.03 59.0567 23.148 60.1007 23.148Z" fill="white"/>
</svg>
