<svg width="262" height="119" viewBox="0 0 262 119" fill="none" xmlns="http://www.w3.org/2000/svg">
<rect x="133" y="1" width="127" height="60" fill="white" stroke="#00655A" stroke-width="2"/>
<path d="M178.064 6.34H176.744C176.78 6.556 176.816 7.036 176.816 7.288C176.816 7.504 176.804 7.936 176.804 8.476C176.504 8.5 176.228 8.512 175.976 8.512C175.532 8.512 175.064 8.5 174.38 8.416L174.416 9.568C174.812 9.604 175.268 9.628 176 9.628C176.228 9.628 176.492 9.616 176.792 9.592C176.78 10.048 176.78 10.504 176.78 10.924C176.78 11.164 176.78 11.416 176.78 11.668C175.364 12.28 174.128 13.348 174.128 14.368C174.128 15.52 175.724 16.48 176.768 16.48C177.476 16.48 177.944 16.108 177.944 14.836C177.944 14.356 177.908 13.348 177.896 12.352C178.688 12.1 179.516 11.956 180.356 11.956C181.448 11.956 182.276 12.472 182.276 13.396C182.276 14.404 181.4 14.932 180.392 15.124C179.948 15.22 179.432 15.22 178.952 15.208L179.384 16.432C179.828 16.408 180.368 16.372 180.908 16.252C182.672 15.832 183.5 14.836 183.5 13.408C183.5 11.872 182.156 10.912 180.368 10.912C179.636 10.912 178.748 11.044 177.872 11.296C177.872 11.152 177.872 11.008 177.872 10.876C177.872 10.444 177.884 9.964 177.896 9.484C178.724 9.388 179.612 9.244 180.308 9.088L180.284 7.912C179.624 8.104 178.76 8.272 177.92 8.368C177.944 7.936 177.956 7.552 177.968 7.264C177.992 6.976 178.028 6.568 178.064 6.34ZM181.652 7.66L181.124 8.572C181.88 8.968 183.32 9.82 183.896 10.348L184.484 9.388C183.884 8.92 182.54 8.104 181.652 7.66ZM175.304 14.308C175.304 13.828 175.928 13.216 176.804 12.784C176.816 13.564 176.84 14.26 176.84 14.644C176.84 15.04 176.672 15.196 176.432 15.196C176.024 15.196 175.304 14.788 175.304 14.308ZM187.04 7.972H194.912V9.364H196.052V6.964H191.54V5.932H190.4V6.964H185.948V9.364H187.04V7.972ZM188.768 13.264C189.536 12.988 190.292 12.664 190.988 12.28C191.744 12.676 192.572 13 193.46 13.264H188.768ZM188.792 15.616V14.188H193.244V15.616H188.792ZM189.428 9.784H192.62C192.188 10.264 191.636 10.696 191 11.092C190.352 10.732 189.8 10.312 189.356 9.844L189.428 9.784ZM193.556 8.884L193.352 8.932H190.232C190.4 8.728 190.556 8.524 190.7 8.32L189.524 8.08C188.924 8.992 187.784 9.976 186.128 10.66C186.38 10.84 186.716 11.224 186.872 11.488C187.508 11.188 188.072 10.852 188.564 10.48C188.972 10.924 189.44 11.308 189.944 11.656C188.576 12.316 186.992 12.784 185.444 13.048C185.648 13.288 185.888 13.744 185.996 14.032C186.56 13.912 187.136 13.78 187.7 13.612V16.936H188.792V16.552H193.244V16.912H194.384V13.504C194.852 13.612 195.332 13.708 195.824 13.78C195.992 13.456 196.292 12.964 196.544 12.7C194.912 12.52 193.376 12.148 192.068 11.608C192.98 10.972 193.748 10.216 194.288 9.34L193.556 8.884ZM203.192 7.492C203.276 7.732 203.384 8.044 203.504 8.416C202.208 8.512 200.6 8.476 198.812 8.26L198.836 9.472C200.804 9.628 202.484 9.628 203.924 9.508C204.308 10.432 204.812 11.356 205.232 12.004C204.824 11.956 203.972 11.884 203.336 11.836L203.252 12.832C204.176 12.904 205.652 13.048 206.276 13.192L206.876 12.328C206.672 12.112 206.48 11.884 206.3 11.62C205.916 11.08 205.436 10.24 205.064 9.388C205.856 9.268 206.72 9.112 207.404 8.92L207.26 7.72C206.468 7.984 205.544 8.176 204.668 8.296C204.452 7.648 204.248 6.928 204.152 6.316L202.856 6.472C202.988 6.832 203.108 7.228 203.192 7.492ZM200.912 12.196L199.724 11.932C199.352 12.688 199.124 13.336 199.124 14.032C199.124 15.7 200.612 16.576 202.964 16.588C204.356 16.6 205.4 16.456 206.12 16.324L206.18 15.124C205.34 15.292 204.296 15.424 203.036 15.412C201.308 15.4 200.336 14.932 200.336 13.852C200.336 13.3 200.54 12.772 200.912 12.196ZM212.216 14.692C212.216 14.212 212.768 13.816 213.788 13.816C214.16 13.816 214.532 13.852 214.88 13.924C214.892 14.188 214.892 14.428 214.892 14.596C214.892 15.364 214.376 15.568 213.704 15.568C212.672 15.568 212.216 15.208 212.216 14.692ZM215.996 6.4H214.712C214.76 6.592 214.772 6.952 214.772 7.156C214.772 7.36 214.772 7.612 214.772 7.888C214.604 7.888 214.424 7.888 214.256 7.888C213.488 7.888 212.048 7.768 211.244 7.624L211.256 8.716C212.036 8.812 213.476 8.932 214.268 8.932C214.436 8.932 214.604 8.932 214.76 8.932C214.76 9.412 214.76 9.916 214.76 10.408C214.556 10.408 214.352 10.408 214.148 10.408C213.416 10.408 212 10.324 211.184 10.192L211.196 11.32C212.024 11.416 213.356 11.476 214.124 11.476C214.352 11.476 214.568 11.476 214.784 11.476C214.796 11.92 214.82 12.412 214.832 12.88C214.544 12.856 214.256 12.832 213.944 12.832C212.156 12.832 211.088 13.612 211.088 14.764C211.088 15.964 212.06 16.636 213.86 16.636C215.432 16.636 216.092 15.808 216.092 14.896C216.092 14.728 216.08 14.524 216.068 14.272C217.16 14.716 218.072 15.4 218.756 16.024L219.452 14.956C218.756 14.392 217.568 13.552 216.008 13.12C215.984 12.58 215.948 12.004 215.924 11.452C217.076 11.404 218.072 11.32 219.176 11.188L219.188 10.072C218.144 10.216 217.088 10.324 215.9 10.372C215.9 9.988 215.9 9.424 215.9 8.884C217.064 8.836 218.18 8.728 219.068 8.62V7.516C218 7.696 216.944 7.804 215.912 7.852C215.924 7.588 215.924 7.36 215.936 7.216C215.948 6.88 215.972 6.616 215.996 6.4ZM179.6 21.648C179.372 21.996 179.096 22.356 178.82 22.656H176.048C176.384 22.332 176.696 21.996 176.972 21.648H179.6ZM181.928 24.456H176.228V23.544H181.928V24.456ZM181.928 26.208H176.228V25.296H181.928V26.208ZM181.928 27.972H176.228V27.048H181.928V27.972ZM175.124 28.86H183.08V22.656H180.14C180.536 22.2 180.908 21.684 181.16 21.228L180.404 20.724L180.224 20.784H177.632C177.764 20.58 177.908 20.376 178.028 20.172L176.804 19.932C176.216 21 175.124 22.26 173.576 23.172C173.84 23.34 174.224 23.724 174.404 23.964C174.656 23.796 174.896 23.628 175.124 23.448V28.86ZM177.08 28.92C176.276 29.4 174.86 29.844 173.66 30.12C173.924 30.312 174.332 30.768 174.536 30.996C175.7 30.636 177.2 30.036 178.148 29.412L177.08 28.92ZM179.96 29.544C181.16 29.988 182.396 30.552 183.104 30.96L184.328 30.36C183.488 29.952 182.096 29.376 180.86 28.932L179.96 29.544ZM194.516 23.88H191.132V21.78H194.516V23.88ZM194.516 27.036H191.132V24.912H194.516V27.036ZM195.632 20.748H190.052V28.08H195.632V20.748ZM189.68 26.064L189.548 25.044L188.264 25.392V23.316H189.632V22.284H188.264V19.932H187.184V22.284H185.588V23.316H187.184V25.68C186.524 25.848 185.924 26.004 185.432 26.112L185.732 27.18C186.188 27.06 186.668 26.916 187.184 26.772V29.616C187.184 29.796 187.112 29.844 186.944 29.856C186.8 29.856 186.296 29.856 185.768 29.844C185.9 30.12 186.056 30.576 186.092 30.852C186.908 30.852 187.448 30.828 187.796 30.648C188.144 30.492 188.264 30.204 188.264 29.628V26.472L189.68 26.064ZM189.188 29.46V30.492H196.436V29.46H189.188ZM202.208 28.104V29.496H199.352V28.104H202.208ZM198.344 30.924H199.352V30.348H202.208V30.792H203.264V27.264H198.344V30.924ZM202.88 22.896H201.272V22.176H200.228V22.896H198.632V21.888H202.88V22.896ZM201.284 19.98H200.204V21.012H197.648V22.968H198.26V23.712H200.228V24.36H198.356V25.14H200.228V25.836H197.648V26.688H203.792V25.836H201.272V25.14H203.12V24.36H201.272V23.712H203.264V22.968H203.912V21.012H201.284V19.98ZM205.604 21.204H204.548V27.816H205.604V21.204ZM206.984 20.148V29.496C206.984 29.7 206.912 29.76 206.732 29.76C206.492 29.772 205.796 29.772 205.076 29.748C205.244 30.072 205.412 30.588 205.46 30.912C206.396 30.912 207.104 30.876 207.512 30.696C207.932 30.504 208.064 30.192 208.064 29.496V20.148H206.984ZM217.592 27.144V29.496H212.432V27.144H217.592ZM211.34 30.96H212.432V30.492H217.592V30.96H218.732V26.136H211.34V30.96ZM212.264 23.784C213.392 22.92 214.352 21.936 214.964 21.048C215.636 21.972 216.668 22.944 217.796 23.784H212.264ZM214.34 19.956C213.428 21.456 211.46 23.256 209.408 24.3C209.636 24.528 209.96 24.924 210.092 25.188C210.752 24.828 211.412 24.42 212.024 23.964V24.78H218V23.928C218.636 24.396 219.308 24.804 219.944 25.14C220.136 24.804 220.4 24.42 220.676 24.144C218.792 23.328 216.764 21.744 215.48 19.956H214.34Z" fill="black"/>
<path d="M179.072 44.9102L179.986 35.5156H188.936V38.5879H182.931L182.601 42.5488C183.295 42.0833 184.01 41.8506 184.747 41.8506C186.27 41.8506 187.442 42.3923 188.263 43.4756C189.093 44.5589 189.507 46.0908 189.507 48.0713C189.507 49.9248 189.017 51.4186 188.035 52.5527C187.053 53.6868 185.741 54.2539 184.099 54.2539C183.126 54.2539 182.225 54.0254 181.395 53.5684C180.566 53.1029 179.91 52.4596 179.427 51.6387C178.953 50.8177 178.712 49.8867 178.704 48.8457H182.258C182.318 49.6159 182.508 50.2126 182.83 50.6357C183.151 51.0589 183.566 51.2705 184.074 51.2705C184.666 51.2705 185.123 50.987 185.445 50.4199C185.767 49.8444 185.927 48.9896 185.927 47.8555C185.927 46.7891 185.733 45.985 185.343 45.4434C184.962 44.9017 184.425 44.6309 183.731 44.6309C183.054 44.6309 182.529 44.8636 182.157 45.3291L181.928 45.6465L179.072 44.9102ZM201.296 46.3574C201.296 48.9134 200.831 50.8685 199.9 52.2227C198.977 53.5768 197.657 54.2539 195.939 54.2539C194.238 54.2539 192.922 53.598 191.991 52.2861C191.068 50.9658 190.59 49.0785 190.556 46.624V43.1328C190.556 40.5853 191.017 38.6387 191.94 37.293C192.862 35.9388 194.187 35.2617 195.913 35.2617C197.64 35.2617 198.965 35.9303 199.887 37.2676C200.81 38.6048 201.279 40.5133 201.296 42.9932V46.3574ZM197.691 42.6123C197.691 41.1566 197.547 40.0648 197.259 39.3369C196.971 38.609 196.523 38.2451 195.913 38.2451C194.771 38.2451 194.178 39.5781 194.136 42.2441V46.8525C194.136 48.3421 194.28 49.4508 194.568 50.1787C194.864 50.9066 195.321 51.2705 195.939 51.2705C196.523 51.2705 196.954 50.932 197.234 50.2549C197.522 49.5693 197.674 48.5241 197.691 47.1191V42.6123Z" fill="#00655A"/>
<path d="M206.359 50.592C207.595 50.592 208.435 49.56 208.435 47.784C208.435 46.008 207.595 45 206.359 45C205.123 45 204.295 46.008 204.295 47.784C204.295 49.56 205.123 50.592 206.359 50.592ZM206.359 49.776C205.747 49.776 205.303 49.14 205.303 47.784C205.303 46.416 205.747 45.816 206.359 45.816C206.983 45.816 207.427 46.416 207.427 47.784C207.427 49.14 206.983 49.776 206.359 49.776ZM206.635 54.156H207.511L212.347 45H211.471L206.635 54.156ZM212.635 54.156C213.859 54.156 214.699 53.136 214.699 51.36C214.699 49.584 213.859 48.576 212.635 48.576C211.399 48.576 210.559 49.584 210.559 51.36C210.559 53.136 211.399 54.156 212.635 54.156ZM212.635 53.352C212.011 53.352 211.579 52.716 211.579 51.36C211.579 49.992 212.011 49.392 212.635 49.392C213.247 49.392 213.691 49.992 213.691 51.36C213.691 52.716 213.247 53.352 212.635 53.352Z" fill="#00655A"/>
<rect x="1" y="1" width="127" height="60" fill="#00655A" stroke="#00655A" stroke-width="2"/>
<path d="M26.072 11.86C25.448 13.564 24.356 15.268 23.24 16.348C23.48 16.696 23.876 17.464 24.008 17.812C24.32 17.488 24.62 17.128 24.92 16.744V23.02H26.276V14.656C26.708 13.888 27.08 13.072 27.392 12.292L26.072 11.86ZM28.988 13.612H32.504V15.22H28.988V13.612ZM34.52 18.856V17.56H31.424V16.48H33.932V12.352H27.632V16.48H29.984V17.56H26.84V18.856H29.3C28.556 19.912 27.488 20.884 26.408 21.448C26.732 21.724 27.176 22.24 27.392 22.588C28.34 21.976 29.252 21.064 29.984 20.008V23.044H31.424V19.948C32.108 21.016 32.984 21.988 33.86 22.612C34.088 22.252 34.544 21.748 34.868 21.472C33.86 20.884 32.828 19.9 32.12 18.856H34.52ZM41.084 18.664V17.584H42.272V18.34C42.272 18.448 42.272 18.556 42.26 18.664H41.084ZM44.816 17.584V18.664H43.556C43.556 18.568 43.556 18.472 43.556 18.376V17.584H44.816ZM41.492 14.596C42.068 14.104 42.56 13.564 42.896 13.06C43.268 13.576 43.808 14.116 44.396 14.596H41.492ZM46.1 19.756V16.504H43.556V15.772H45.164V15.148C45.476 15.352 45.8 15.544 46.1 15.688C46.292 15.304 46.568 14.776 46.832 14.44C45.584 13.984 44.336 12.988 43.508 11.848H42.212C41.624 12.832 40.424 13.972 39.152 14.56C39.344 13.972 39.536 13.372 39.692 12.844L38.744 12.292L38.54 12.352H35.888V23.044H37.124V13.624H38.096C37.892 14.452 37.628 15.52 37.376 16.288C38.072 17.08 38.252 17.8 38.252 18.34C38.252 18.688 38.192 18.916 38.048 19.024C37.964 19.084 37.832 19.108 37.7 19.108C37.556 19.12 37.376 19.12 37.148 19.096C37.352 19.444 37.46 19.996 37.46 20.344C37.76 20.356 38.048 20.344 38.276 20.308C38.54 20.272 38.78 20.2 38.972 20.068C39.368 19.792 39.524 19.288 39.524 18.532C39.524 17.836 39.368 17.044 38.6 16.132C38.756 15.724 38.924 15.232 39.092 14.74C39.308 15.052 39.548 15.484 39.68 15.796C40.04 15.616 40.4 15.4 40.748 15.16V15.772H42.272V16.504H39.848V19.756H42.068C41.744 20.644 40.94 21.46 39.008 22.048C39.236 22.276 39.632 22.816 39.764 23.104C41.564 22.54 42.536 21.676 43.052 20.716C43.784 22.024 44.732 22.636 45.932 23.092C46.088 22.672 46.424 22.204 46.748 21.904C45.56 21.532 44.66 21.076 43.952 19.756H46.1ZM52.184 19.072V21.472H50.564L51.548 21.052C51.368 20.5 50.9 19.684 50.444 19.072H52.184ZM50.828 15.412C51.692 14.692 52.436 13.912 52.952 13.192C53.48 13.912 54.272 14.692 55.16 15.412H50.828ZM55.352 19.072C55.088 19.708 54.608 20.584 54.212 21.148L54.992 21.472H53.684V19.072H57.38V17.848H53.684V16.66H55.976V16.036C56.576 16.468 57.2 16.864 57.8 17.176C58.064 16.732 58.388 16.252 58.748 15.892C56.852 15.124 54.92 13.612 53.624 11.8H52.148C51.26 13.24 49.34 15.04 47.3 16.036C47.612 16.336 48.008 16.852 48.188 17.188C48.8 16.864 49.412 16.48 49.976 16.072V16.66H52.184V17.848H48.536V19.072H50.372L49.28 19.54C49.7 20.128 50.096 20.932 50.276 21.472H47.936V22.696H58.088V21.472H55.376C55.796 20.968 56.264 20.236 56.72 19.576L55.352 19.072ZM67.136 17.62C66.62 18.532 65.9 19.252 65.024 19.828C64.16 19.228 63.488 18.496 63.008 17.62H67.136ZM68.192 16.168L67.94 16.216H65.696V14.824H70.088V13.408H65.696V11.848H64.22V13.408H59.852V14.824H64.22V16.216H60.452V17.62H62.672L61.616 17.98C62.168 19 62.828 19.864 63.632 20.572C62.396 21.112 60.944 21.46 59.372 21.664C59.648 21.988 60.02 22.66 60.152 23.044C61.904 22.744 63.536 22.264 64.94 21.52C66.224 22.288 67.808 22.792 69.716 23.068C69.92 22.648 70.328 22.012 70.628 21.676C68.972 21.496 67.556 21.136 66.368 20.596C67.604 19.636 68.588 18.376 69.188 16.732L68.192 16.168ZM76.28 18.22L76.184 16.96C75.656 17.068 75.128 17.164 74.6 17.272V15.436H76.136V14.116H74.6V11.836H73.208V14.116H71.516V15.436H73.208V17.536C72.5 17.656 71.864 17.776 71.336 17.848L71.636 19.252C72.116 19.156 72.644 19.036 73.208 18.916V21.46C73.208 21.652 73.136 21.712 72.956 21.724C72.788 21.724 72.2 21.724 71.66 21.7C71.84 22.084 72.02 22.672 72.068 23.044C72.98 23.044 73.616 22.996 74.036 22.78C74.456 22.552 74.6 22.204 74.6 21.472V18.604L76.28 18.22ZM82.736 22.504C82.4 21.076 81.452 18.904 80.54 17.224L79.28 17.668C79.748 18.592 80.228 19.66 80.612 20.68C79.604 20.8 78.596 20.92 77.648 21.016C78.344 18.592 79.052 15.28 79.496 12.4L77.936 12.148C77.612 15.052 76.88 18.688 76.172 21.184C75.704 21.232 75.284 21.268 74.912 21.304L75.224 22.792C76.808 22.564 78.98 22.288 81.056 21.976C81.164 22.36 81.26 22.72 81.32 23.032L82.736 22.504ZM87.848 20.416V21.436H85.46V20.416H87.848ZM84.176 23.032H85.46V22.504H87.848V22.924H89.204V19.348H84.176V23.032ZM88.52 14.872H87.296V14.224H85.988V14.872H84.764V13.984H88.52V14.872ZM87.32 11.908H85.952V12.916H83.504V14.968H84.092V15.88H85.988V16.384H84.212V17.332H85.988V17.848H83.54V18.94H89.708V17.848H87.296V17.332H89.048V16.384H87.296V15.88H89.216V14.968H89.84V12.916H87.32V11.908ZM91.7 13.108H90.344V19.816H91.7V13.108ZM92.828 12.052V21.292C92.828 21.484 92.744 21.556 92.54 21.556C92.3 21.556 91.616 21.568 90.92 21.532C91.124 21.94 91.328 22.6 91.388 23.008C92.372 23.008 93.116 22.96 93.584 22.72C94.064 22.504 94.208 22.096 94.208 21.304V12.052H92.828ZM103.388 19.396V21.352H98.648V19.396H103.388ZM97.244 23.056H98.648V22.612H103.388V23.056H104.852V18.136H97.244V23.056ZM98.576 15.688C99.56 14.908 100.4 14.056 100.964 13.252C101.54 14.044 102.428 14.908 103.424 15.688H98.576ZM100.16 11.848C99.26 13.312 97.34 15.124 95.276 16.12C95.588 16.42 95.984 16.936 96.176 17.284C96.812 16.936 97.448 16.54 98.036 16.108V16.948H104.012V16.12C104.612 16.552 105.236 16.948 105.848 17.26C106.1 16.816 106.424 16.348 106.772 15.976C104.864 15.208 102.92 13.684 101.636 11.848H100.16Z" fill="white"/>
<path d="M47.0719 44.9102L47.9859 35.5156H56.9361V38.5879H50.9312L50.6012 42.5488C51.2952 42.0833 52.0104 41.8506 52.7467 41.8506C54.2701 41.8506 55.4423 42.3923 56.2633 43.4756C57.0927 44.5589 57.5074 46.0908 57.5074 48.0713C57.5074 49.9248 57.0165 51.4186 56.0348 52.5527C55.053 53.6868 53.7411 54.2539 52.0992 54.2539C51.1259 54.2539 50.2245 54.0254 49.3951 53.5684C48.5657 53.1029 47.9098 52.4596 47.4273 51.6387C46.9534 50.8177 46.7122 49.8867 46.7037 48.8457H50.2584C50.3176 49.6159 50.5081 50.2126 50.8297 50.6357C51.1513 51.0589 51.566 51.2705 52.0738 51.2705C52.6663 51.2705 53.1233 50.987 53.4449 50.4199C53.7665 49.8444 53.9273 48.9896 53.9273 47.8555C53.9273 46.7891 53.7327 45.985 53.3434 45.4434C52.9625 44.9017 52.4251 44.6309 51.7311 44.6309C51.054 44.6309 50.5292 44.8636 50.1568 45.3291L49.9283 45.6465L47.0719 44.9102ZM69.2963 46.3574C69.2963 48.9134 68.8308 50.8685 67.8998 52.2227C66.9773 53.5768 65.657 54.2539 63.9389 54.2539C62.2377 54.2539 60.9216 53.598 59.9906 52.2861C59.0681 50.9658 58.5899 49.0785 58.5561 46.624V43.1328C58.5561 40.5853 59.0173 38.6387 59.9398 37.293C60.8624 35.9388 62.1869 35.2617 63.9135 35.2617C65.64 35.2617 66.9646 35.9303 67.8871 37.2676C68.8096 38.6048 69.2794 40.5133 69.2963 42.9932V46.3574ZM65.6908 42.6123C65.6908 41.1566 65.5469 40.0648 65.2592 39.3369C64.9714 38.609 64.5229 38.2451 63.9135 38.2451C62.7709 38.2451 62.1784 39.5781 62.1361 42.2441V46.8525C62.1361 48.3421 62.28 49.4508 62.5678 50.1787C62.864 50.9066 63.321 51.2705 63.9389 51.2705C64.5229 51.2705 64.9545 50.932 65.2338 50.2549C65.5215 49.5693 65.6739 48.5241 65.6908 47.1191V42.6123Z" fill="white"/>
<path d="M74.3593 50.592C75.5953 50.592 76.4353 49.56 76.4353 47.784C76.4353 46.008 75.5953 45 74.3593 45C73.1233 45 72.2953 46.008 72.2953 47.784C72.2953 49.56 73.1233 50.592 74.3593 50.592ZM74.3593 49.776C73.7473 49.776 73.3033 49.14 73.3033 47.784C73.3033 46.416 73.7473 45.816 74.3593 45.816C74.9833 45.816 75.4273 46.416 75.4273 47.784C75.4273 49.14 74.9833 49.776 74.3593 49.776ZM74.6353 54.156H75.5113L80.3473 45H79.4713L74.6353 54.156ZM80.6353 54.156C81.8593 54.156 82.6993 53.136 82.6993 51.36C82.6993 49.584 81.8593 48.576 80.6353 48.576C79.3993 48.576 78.5593 49.584 78.5593 51.36C78.5593 53.136 79.3993 54.156 80.6353 54.156ZM80.6353 53.352C80.0113 53.352 79.5793 52.716 79.5793 51.36C79.5793 49.992 80.0113 49.392 80.6353 49.392C81.2473 49.392 81.6913 49.992 81.6913 51.36C81.6913 52.716 81.2473 53.352 80.6353 53.352Z" fill="white"/>
<path fill-rule="evenodd" clip-rule="evenodd" d="M260 119C261.105 119 262 118.105 262 117L262 73C262 71.8955 261.105 71 260 71L45.2985 71L40.2896 65.1836C40.0788 64.9389 39.6997 64.9389 39.489 65.1836L34.4801 71L2 71C0.89542 71 4.11801e-06 71.8954 4.02145e-06 73L1.74846e-07 117C7.82811e-08 118.105 0.895416 119 2 119L260 119Z" fill="#B2D0CD"/>
<path d="M46.7915 81.7457V82.8737H49.6475C49.6715 83.3057 49.7195 83.7977 49.8035 84.3017L49.1915 84.1937C48.4955 87.4457 47.0435 89.8097 44.4635 91.1417C44.7635 91.3457 45.2795 91.8137 45.4955 92.0417C47.7155 90.7097 49.2155 88.6097 50.1035 85.7177C50.6915 87.9257 51.9755 90.3737 54.6995 92.0177C54.8915 91.7417 55.3475 91.2617 55.5995 91.0697C51.0275 88.3697 50.7515 83.9177 50.7515 81.7457H46.7915ZM66.3395 84.5177H61.5395V83.3537H66.3395V84.5177ZM60.5435 82.3937V84.6377H61.4555V85.4897H66.4235V84.6377H67.3715V82.3937H64.3835V81.0857H63.3035V82.3937H60.5435ZM59.8115 81.5177L59.6435 81.5537H57.0035V92.0657H57.9875V82.5617H59.2715C59.0435 83.3777 58.7315 84.4457 58.4315 85.2497C59.2115 86.1137 59.4035 86.8937 59.4035 87.4937C59.4035 87.8417 59.3555 88.1297 59.1875 88.2497C59.0795 88.3217 58.9595 88.3577 58.8155 88.3577C58.6595 88.3697 58.4555 88.3697 58.2035 88.3457C58.3715 88.6097 58.4555 89.0297 58.4675 89.3057C58.7435 89.3177 59.0315 89.3177 59.2595 89.2937C59.4995 89.2577 59.7275 89.1737 59.9075 89.0537C60.2555 88.8137 60.3995 88.3097 60.3995 87.6257C60.3995 86.9057 60.2195 86.0777 59.4035 85.1297C59.7875 84.1937 60.2075 82.9457 60.5435 81.9377L59.8115 81.5177ZM65.6675 90.9257C65.4515 90.9257 65.4155 90.8897 65.4155 90.5657V87.6497H67.3715V86.6297H60.6755V87.6497H62.1395C62.0195 89.4617 61.6115 90.5777 59.6795 91.2017C59.9075 91.3817 60.1955 91.8017 60.2915 92.0657C62.5475 91.2857 63.0395 89.8697 63.2075 87.6497H64.3595V90.5777C64.3595 91.5977 64.5755 91.9217 65.4875 91.9217H66.4235C67.1675 91.9217 67.4435 91.5017 67.5395 89.9057C67.2515 89.8337 66.8075 89.6657 66.5915 89.4857C66.5675 90.7337 66.5195 90.9257 66.3035 90.9257H65.6675ZM74.0195 85.1657C73.2515 85.1657 72.6275 85.7897 72.6275 86.5577C72.6275 87.3257 73.2515 87.9497 74.0195 87.9497C74.7875 87.9497 75.4115 87.3257 75.4115 86.5577C75.4115 85.7897 74.7875 85.1657 74.0195 85.1657ZM91.4315 87.1817H86.6195V85.4777H90.7475V84.4097H86.6195V82.6457C87.9875 82.4777 89.2595 82.2737 90.3035 81.9737L89.4755 81.0617C87.6035 81.6017 84.2195 81.9137 81.3875 82.0457C81.4955 82.2857 81.6395 82.7417 81.6515 83.0177C82.8635 82.9697 84.1715 82.8857 85.4555 82.7777V84.4097H81.4475V85.4777H85.4555V87.1817H80.6315V88.2737H85.4555V90.6137C85.4555 90.8657 85.3595 90.9497 85.0955 90.9497C84.8195 90.9617 83.8595 90.9617 82.8995 90.9257C83.0795 91.2257 83.2955 91.7297 83.3675 92.0297C84.6035 92.0417 85.4195 92.0177 85.9115 91.8377C86.4155 91.6697 86.6195 91.3577 86.6195 90.6257V88.2737H91.4315V87.1817ZM103.348 81.7217H100.516V82.7177H103.348V81.7217ZM100.348 82.9697C100.18 82.5257 99.7835 81.8537 99.4115 81.3497L98.6795 81.6857C99.0275 82.2017 99.4235 82.8977 99.5675 83.3417L100.348 82.9697ZM94.4795 81.0497C94.0715 81.8417 93.2075 82.8017 92.4155 83.3897C92.5835 83.6057 92.8715 84.0017 93.0155 84.2297C93.9155 83.5217 94.8875 82.4177 95.4995 81.4097L94.4795 81.0497ZM95.9315 85.9817C95.8355 87.4817 95.6555 88.9937 95.1995 89.9777C95.4035 90.0977 95.8115 90.3617 95.9555 90.5057C96.4715 89.4137 96.7115 87.7817 96.8435 86.1017L95.9315 85.9817ZM100.144 84.6617V83.6297H98.4395V81.2297H97.3955V83.6297H95.7035V83.7857L94.7915 83.4857C94.2155 84.7697 93.2435 86.0297 92.2595 86.8337C92.4515 87.0737 92.7755 87.6137 92.8835 87.8297C93.1955 87.5657 93.4955 87.2417 93.7955 86.9057V92.0657H94.8275V85.5497C95.1515 85.0577 95.4515 84.5417 95.7035 84.0257V84.6617H97.3955V91.8857H98.4395V84.6617H100.144ZM98.8835 86.1617C99.1235 87.2777 99.3755 88.7537 99.4355 89.7017L100.312 89.5457C100.24 88.5617 99.9995 87.1337 99.7115 86.0057L98.8835 86.1617ZM103.528 85.0217H100.228V86.0297H101.452V90.7817C101.452 90.9377 101.404 90.9857 101.248 90.9857C101.08 90.9977 100.564 90.9977 99.9995 90.9737C100.132 91.2977 100.276 91.7537 100.312 92.0537C101.128 92.0537 101.68 92.0417 102.052 91.8737C102.424 91.6817 102.508 91.3577 102.508 90.8057V86.0297H103.528V85.0217ZM110.02 85.1657C109.252 85.1657 108.628 85.7897 108.628 86.5577C108.628 87.3257 109.252 87.9497 110.02 87.9497C110.788 87.9497 111.412 87.3257 111.412 86.5577C111.412 85.7897 110.788 85.1657 110.02 85.1657ZM123.16 84.8537V85.7297H121.432V84.8537H123.16ZM125.956 85.7297H124.168V84.8537H125.956V85.7297ZM124.168 87.4457V86.5457H125.956V87.4457H124.168ZM121.432 87.4457V86.5457H123.16V87.4457H121.432ZM121.432 88.2857H123.16V90.1337H124.168V88.2857H125.956V89.1257C125.956 89.2697 125.908 89.3177 125.776 89.3177C125.632 89.3177 125.176 89.3297 124.672 89.3057C124.804 89.5577 124.936 89.9297 124.972 90.2057C125.74 90.2057 126.244 90.1937 126.58 90.0497C126.928 89.8937 127.012 89.6417 127.012 89.1377V84.0257H125.536C125.308 83.8937 125.032 83.7497 124.72 83.6057C125.56 83.1497 126.388 82.5497 127.012 81.9737L126.34 81.4337L126.112 81.4937H120.436V82.3697H125.08C124.684 82.6577 124.216 82.9457 123.76 83.1737C123.232 82.9457 122.68 82.7297 122.212 82.5617L121.492 83.1617C122.104 83.4017 122.824 83.7137 123.472 84.0257H120.388V90.1697H121.432V88.2857ZM119.548 83.1857C119.14 82.6097 118.24 81.8297 117.496 81.3137L116.716 82.0097C117.472 82.5617 118.336 83.4017 118.72 83.9897L119.548 83.1857ZM119.248 85.7057H116.536V86.7377H118.18V89.6057C117.604 90.0617 116.944 90.5177 116.392 90.8537L116.92 91.9577C117.592 91.4537 118.192 90.9617 118.768 90.4697C119.5 91.3937 120.532 91.7897 122.02 91.8497C123.412 91.8977 125.932 91.8737 127.312 91.8137C127.372 91.4897 127.552 90.9737 127.672 90.7217C126.148 90.8297 123.388 90.8657 122.032 90.8057C120.712 90.7457 119.764 90.3857 119.248 89.5457V85.7057ZM138.34 84.5177H133.54V83.3537H138.34V84.5177ZM132.544 82.3937V84.6377H133.456V85.4897H138.424V84.6377H139.372V82.3937H136.384V81.0857H135.304V82.3937H132.544ZM131.812 81.5177L131.644 81.5537H129.004V92.0657H129.988V82.5617H131.272C131.044 83.3777 130.732 84.4457 130.432 85.2497C131.212 86.1137 131.404 86.8937 131.404 87.4937C131.404 87.8417 131.356 88.1297 131.188 88.2497C131.08 88.3217 130.96 88.3577 130.816 88.3577C130.66 88.3697 130.456 88.3697 130.204 88.3457C130.372 88.6097 130.456 89.0297 130.468 89.3057C130.744 89.3177 131.032 89.3177 131.26 89.2937C131.5 89.2577 131.728 89.1737 131.908 89.0537C132.256 88.8137 132.4 88.3097 132.4 87.6257C132.4 86.9057 132.22 86.0777 131.404 85.1297C131.788 84.1937 132.208 82.9457 132.544 81.9377L131.812 81.5177ZM137.668 90.9257C137.452 90.9257 137.416 90.8897 137.416 90.5657V87.6497H139.372V86.6297H132.676V87.6497H134.14C134.02 89.4617 133.612 90.5777 131.68 91.2017C131.908 91.3817 132.196 91.8017 132.292 92.0657C134.548 91.2857 135.04 89.8697 135.208 87.6497H136.36V90.5777C136.36 91.5977 136.576 91.9217 137.488 91.9217H138.424C139.168 91.9217 139.444 91.5017 139.54 89.9057C139.252 89.8337 138.808 89.6657 138.592 89.4857C138.568 90.7337 138.52 90.9257 138.304 90.9257H137.668ZM142.66 83.6297H144.172C144.16 83.8217 144.124 84.0137 144.052 84.1937H142.468L142.66 83.6297ZM145.192 82.3457H146.824V82.9337H145.192V82.3457ZM149.464 82.3457V82.9337H147.88V82.3457H149.464ZM146.824 84.1937H145.12C145.156 84.0137 145.18 83.8217 145.18 83.6297H146.824V84.1937ZM150.136 84.8777C150.1 85.1417 150.052 85.2857 149.992 85.3457C149.932 85.4177 149.848 85.4297 149.74 85.4297C149.608 85.4297 149.308 85.4177 148.972 85.3817C149.032 85.4897 149.08 85.6217 149.128 85.7537H147.88V84.8777H150.136ZM148.888 87.0497H143.284V86.4377H148.888V87.0497ZM148.888 88.3217H143.284V87.6977H148.888V88.3217ZM148.888 89.5937H143.284V88.9697H148.888V89.5937ZM146.824 84.8777V85.7537H144.148C144.496 85.4897 144.736 85.2017 144.892 84.8777H146.824ZM142.192 90.2657H150.016V86.1017C150.112 86.1017 150.196 86.0897 150.256 86.0897C150.496 86.0777 150.724 86.0177 150.892 85.8497C151.072 85.6457 151.156 85.2617 151.228 84.5177C151.228 84.3977 151.24 84.1937 151.24 84.1937H147.88V83.6297H150.484V81.6497H147.88V81.0497H146.824V81.6497H145.192V81.0497H144.184V81.6497H141.352V82.3457H144.184V82.9337H141.844C141.652 83.6057 141.376 84.3977 141.124 84.9617L142.156 85.0217L142.216 84.8777H143.596C143.104 85.3337 142.228 85.6937 140.68 85.9457C140.86 86.1377 141.112 86.5697 141.208 86.8097C141.568 86.7497 141.892 86.6777 142.192 86.5937V90.2657ZM144.172 90.2777C143.344 90.6977 141.904 91.0697 140.668 91.2857C140.92 91.4657 141.304 91.8857 141.484 92.1017C142.684 91.8017 144.196 91.2857 145.168 90.7337L144.172 90.2777ZM146.86 90.8537C148.144 91.2497 149.416 91.7297 150.148 92.0777L151.372 91.5137C150.508 91.1537 149.044 90.6617 147.748 90.2777L146.86 90.8537ZM158.668 87.4457V85.6697H161.572V87.4457H158.668ZM154.9 87.4457C154.936 87.0017 154.948 86.5577 154.948 86.1497V85.6697H157.552V87.4457H154.9ZM157.552 82.9337V84.6257H154.948V82.9337H157.552ZM161.572 84.6257H158.668V82.9337H161.572V84.6257ZM162.688 81.8657H153.844V86.1377C153.844 87.8297 153.724 89.9537 152.416 91.4057C152.668 91.5377 153.124 91.9217 153.292 92.1377C154.168 91.1657 154.6 89.8217 154.792 88.5017H157.552V91.9337H158.668V88.5017H161.572V90.6497C161.572 90.8777 161.488 90.9497 161.272 90.9497C161.044 90.9497 160.252 90.9617 159.484 90.9257C159.628 91.2137 159.808 91.7057 159.856 92.0057C160.96 92.0177 161.656 91.9937 162.1 91.8137C162.532 91.6457 162.688 91.3097 162.688 90.6617V81.8657ZM175.012 86.9057C175.012 84.3977 173.188 82.3817 170.308 82.3817C167.296 82.3817 164.944 84.6857 164.944 87.3737C164.944 89.3777 166.036 90.6977 167.224 90.6977C168.412 90.6977 169.408 89.3417 170.128 86.8937C170.476 85.7657 170.68 84.6017 170.848 83.5217C172.696 83.7497 173.752 85.1297 173.752 86.8697C173.752 88.8017 172.384 89.9297 170.848 90.2777C170.548 90.3497 170.188 90.4097 169.78 90.4457L170.488 91.5737C173.404 91.1537 175.012 89.4257 175.012 86.9057ZM166.156 87.2537C166.156 85.7657 167.416 83.8937 169.576 83.5457C169.432 84.6017 169.216 85.6937 168.916 86.6417C168.364 88.4897 167.8 89.2697 167.26 89.2697C166.744 89.2697 166.156 88.6337 166.156 87.2537ZM179.236 91.2737C180.784 91.2737 182.212 90.1697 182.212 88.2137C182.212 86.2817 181 85.4057 179.524 85.4057C179.044 85.4057 178.696 85.5257 178.312 85.7177L178.516 83.4497H181.792V82.2737H177.316L177.052 86.4737L177.724 86.9177C178.24 86.5817 178.576 86.4137 179.14 86.4137C180.148 86.4137 180.82 87.0857 180.82 88.2617C180.82 89.4377 180.064 90.1457 179.068 90.1457C178.144 90.1457 177.508 89.7017 177.004 89.1977L176.344 90.0977C176.968 90.7097 177.844 91.2737 179.236 91.2737ZM186.283 91.2737C188.011 91.2737 189.139 89.7377 189.139 86.6657C189.139 83.6177 188.011 82.1177 186.283 82.1177C184.555 82.1177 183.427 83.6057 183.427 86.6657C183.427 89.7377 184.555 91.2737 186.283 91.2737ZM186.283 90.1817C185.383 90.1817 184.747 89.2217 184.747 86.6657C184.747 84.1337 185.383 83.2097 186.283 83.2097C187.183 83.2097 187.819 84.1337 187.819 86.6657C187.819 89.2217 187.183 90.1817 186.283 90.1817ZM192.203 87.7097C193.439 87.7097 194.279 86.6777 194.279 84.9017C194.279 83.1257 193.439 82.1177 192.203 82.1177C190.967 82.1177 190.139 83.1257 190.139 84.9017C190.139 86.6777 190.967 87.7097 192.203 87.7097ZM192.203 86.8937C191.591 86.8937 191.147 86.2577 191.147 84.9017C191.147 83.5337 191.591 82.9337 192.203 82.9337C192.827 82.9337 193.271 83.5337 193.271 84.9017C193.271 86.2577 192.827 86.8937 192.203 86.8937ZM192.479 91.2737H193.355L198.191 82.1177H197.315L192.479 91.2737ZM198.479 91.2737C199.703 91.2737 200.543 90.2537 200.543 88.4777C200.543 86.7017 199.703 85.6937 198.479 85.6937C197.243 85.6937 196.403 86.7017 196.403 88.4777C196.403 90.2537 197.243 91.2737 198.479 91.2737ZM198.479 90.4697C197.855 90.4697 197.423 89.8337 197.423 88.4777C197.423 87.1097 197.855 86.5097 198.479 86.5097C199.091 86.5097 199.535 87.1097 199.535 88.4777C199.535 89.8337 199.091 90.4697 198.479 90.4697ZM206.644 81.5657L205.396 81.4697C205.372 81.9017 205.276 82.4057 205.12 82.8977C204.88 82.9097 204.64 82.9097 204.412 82.9097C203.836 82.9097 202.984 82.8737 202.348 82.7777V83.9057C203.02 83.9537 203.848 83.9777 204.352 83.9777C204.46 83.9777 204.58 83.9777 204.7 83.9777C204.208 84.9977 203.392 86.1617 201.988 87.4817L203.02 88.2497C203.416 87.7457 203.764 87.3017 204.112 86.9657C204.616 86.4857 205.372 86.1017 206.104 86.1017C206.548 86.1017 206.932 86.2817 207.088 86.7017C205.696 87.4097 204.256 88.3457 204.256 89.8217C204.256 91.3097 205.648 91.7297 207.436 91.7297C208.516 91.7297 209.908 91.6217 210.772 91.5137L210.808 90.3017C209.752 90.4937 208.444 90.6137 207.472 90.6137C206.26 90.6137 205.48 90.4457 205.48 89.6297C205.48 88.9217 206.128 88.3697 207.16 87.8057C207.148 88.3937 207.136 89.0777 207.112 89.4977H208.252C208.24 88.9217 208.228 87.9617 208.216 87.2777C209.056 86.8937 209.836 86.5817 210.448 86.3417C210.808 86.1977 211.324 86.0057 211.672 85.8977L211.18 84.7937C210.796 84.9857 210.448 85.1417 210.04 85.3217C209.476 85.5857 208.864 85.8377 208.12 86.1857C207.892 85.5137 207.268 85.1657 206.512 85.1657C206.044 85.1657 205.372 85.2977 204.976 85.5257C205.312 85.0697 205.636 84.5057 205.9 83.9417C207.196 83.9057 208.672 83.7977 209.848 83.6297V82.5137C208.756 82.7057 207.496 82.8137 206.32 82.8617C206.476 82.3457 206.572 81.9017 206.644 81.5657ZM48.7009 98.0857C48.0409 99.8497 46.9369 101.578 45.7729 102.682C45.9769 102.946 46.2889 103.546 46.3969 103.81C46.7689 103.426 47.1529 102.97 47.5129 102.478V109.042H48.5689V100.858C49.0129 100.066 49.4089 99.2497 49.7449 98.4217L48.7009 98.0857ZM51.1129 99.5857H55.1569V101.518H51.1129V99.5857ZM56.8969 104.83V103.822H53.6569V102.514H56.2729V98.6017H50.0689V102.514H52.5409V103.822H49.2289V104.83H51.9529C51.1729 106.006 49.9969 107.098 48.8449 107.686C49.0969 107.902 49.4329 108.298 49.6129 108.574C50.6809 107.938 51.7369 106.87 52.5409 105.67V109.078H53.6569V105.61C54.4129 106.81 55.4329 107.926 56.4409 108.598C56.6089 108.322 56.9809 107.926 57.2209 107.71C56.1289 107.098 54.9889 105.994 54.2569 104.83H56.8969ZM61.3249 98.5177L61.1569 98.5537H58.4449V109.066H59.4289V99.5617H60.7729C60.5329 100.402 60.1969 101.506 59.8729 102.346C60.7009 103.198 60.9169 103.93 60.9289 104.518C60.9289 104.866 60.8569 105.154 60.7009 105.274C60.5929 105.346 60.4489 105.37 60.3049 105.382C60.1369 105.382 59.8969 105.382 59.6329 105.358C59.8009 105.634 59.8969 106.054 59.8969 106.342C60.1969 106.354 60.5089 106.354 60.7489 106.318C61.0009 106.294 61.2289 106.222 61.4089 106.078C61.7809 105.838 61.9369 105.358 61.9369 104.662C61.9369 103.942 61.7209 103.138 60.8569 102.226C61.2649 101.242 61.7209 99.9577 62.0569 98.9497L61.3249 98.5177ZM63.2809 104.926V103.57H64.8049V104.47C64.8049 104.626 64.8049 104.77 64.7929 104.926H63.2809ZM67.4329 103.57V104.926H65.8009C65.8129 104.782 65.8129 104.638 65.8129 104.494V103.57H67.4329ZM63.5209 100.846C64.2529 100.282 64.9009 99.6217 65.3089 99.0217C65.7769 99.6457 66.4729 100.294 67.2169 100.846H63.5209ZM68.4529 105.814V102.682H65.8129V101.794H67.6489V101.146C67.9729 101.35 68.2969 101.542 68.6089 101.698C68.7529 101.386 68.9809 100.978 69.1849 100.714C67.9369 100.222 66.6289 99.2017 65.7769 98.0617H64.7689C64.1329 99.0937 62.8369 100.258 61.4929 100.87C61.6849 101.11 61.9249 101.518 62.0209 101.782C62.3809 101.602 62.7409 101.386 63.0889 101.158V101.794H64.8049V102.682H62.2969V105.814H64.6249C64.3129 106.774 63.4969 107.638 61.4209 108.286C61.6249 108.466 61.9369 108.898 62.0329 109.126C63.9889 108.502 64.9729 107.578 65.4289 106.546C66.1609 107.95 67.1449 108.61 68.4649 109.114C68.5849 108.79 68.8609 108.406 69.1129 108.178C67.8049 107.77 66.8569 107.218 66.1609 105.814H68.4529ZM72.9289 101.638C73.9609 100.822 74.8369 99.9337 75.4129 99.1177C76.0369 99.9577 76.9729 100.846 78.0169 101.638H72.9289ZM75.9889 105.01H79.9009V104.05H75.9889V102.622H78.4249V101.938C79.0609 102.394 79.7089 102.802 80.3449 103.126C80.5369 102.802 80.8009 102.418 81.0649 102.13C79.2049 101.326 77.2009 99.7777 75.9289 98.0257H74.7889C73.8889 99.5017 71.9329 101.266 69.8929 102.274C70.1329 102.502 70.4569 102.922 70.5889 103.174C71.2369 102.826 71.8609 102.43 72.4609 101.998V102.622H74.8129V104.05H70.9849V105.01H74.8129V107.734H70.4089V108.706H80.5249V107.734H75.9889V105.01ZM71.8609 105.55C72.3169 106.21 72.7729 107.11 72.9169 107.686L73.8889 107.254C73.7209 106.678 73.2409 105.826 72.7729 105.19L71.8609 105.55ZM77.6089 107.686C78.0529 107.146 78.5929 106.33 79.0609 105.574L77.9929 105.178C77.7049 105.838 77.1889 106.75 76.7809 107.314L77.6089 107.686ZM85.2649 98.6857L84.0769 99.1777C84.6409 100.462 85.2409 101.818 85.7929 102.826C84.5689 103.69 83.7529 104.674 83.7529 105.946C83.7529 107.866 85.4569 108.526 87.7729 108.526C89.2969 108.526 90.6409 108.406 91.5889 108.238L91.6009 106.87C90.6169 107.122 89.0089 107.302 87.7249 107.302C85.9369 107.302 85.0369 106.75 85.0369 105.814C85.0369 104.938 85.7089 104.182 86.7649 103.486C87.9049 102.742 89.5009 101.998 90.2929 101.59C90.6769 101.398 91.0129 101.218 91.3249 101.026L90.6649 99.9337C90.3889 100.162 90.1009 100.342 89.7049 100.57C89.0809 100.918 87.8929 101.506 86.8369 102.142C86.3329 101.206 85.7449 99.9817 85.2649 98.6857ZM97.7089 98.6977L96.1729 98.6857C96.2569 99.0817 96.3049 99.5737 96.3049 100.078C96.3049 101.23 96.1849 104.326 96.1849 106.03C96.1849 108.022 97.4089 108.802 99.2329 108.802C101.921 108.802 103.541 107.254 104.333 106.114L103.481 105.07C102.617 106.354 101.357 107.542 99.2569 107.542C98.2129 107.542 97.4329 107.11 97.4329 105.838C97.4329 104.182 97.5169 101.41 97.5769 100.078C97.5889 99.6457 97.6369 99.1417 97.7089 98.6977ZM106.046 100.018L106.178 101.338C107.51 101.05 110.306 100.762 111.518 100.63C110.546 101.266 109.478 102.73 109.478 104.53C109.478 107.182 111.938 108.442 114.29 108.55L114.734 107.278C112.742 107.194 110.702 106.462 110.702 104.278C110.702 102.85 111.77 101.146 113.366 100.666C113.99 100.498 115.034 100.486 115.694 100.486V99.2737C114.866 99.3097 113.666 99.3817 112.382 99.4897C110.174 99.6697 108.038 99.8737 107.162 99.9577C106.934 99.9817 106.514 100.006 106.046 100.018ZM121.798 98.4577H120.478C120.514 98.6737 120.55 99.1537 120.55 99.4057C120.55 99.6217 120.538 100.054 120.538 100.594C120.238 100.618 119.962 100.63 119.71 100.63C119.266 100.63 118.798 100.618 118.114 100.534L118.15 101.686C118.546 101.722 119.002 101.746 119.734 101.746C119.962 101.746 120.226 101.734 120.526 101.71C120.514 102.166 120.514 102.622 120.514 103.042C120.514 103.282 120.514 103.534 120.514 103.786C119.098 104.398 117.862 105.466 117.862 106.486C117.862 107.638 119.458 108.598 120.502 108.598C121.21 108.598 121.678 108.226 121.678 106.954C121.678 106.474 121.642 105.466 121.63 104.47C122.422 104.218 123.25 104.074 124.09 104.074C125.182 104.074 126.01 104.59 126.01 105.514C126.01 106.522 125.134 107.05 124.126 107.242C123.682 107.338 123.166 107.338 122.686 107.326L123.118 108.55C123.562 108.526 124.102 108.49 124.642 108.37C126.406 107.95 127.234 106.954 127.234 105.526C127.234 103.99 125.89 103.03 124.102 103.03C123.37 103.03 122.482 103.162 121.606 103.414C121.606 103.27 121.606 103.126 121.606 102.994C121.606 102.562 121.618 102.082 121.63 101.602C122.458 101.506 123.346 101.362 124.042 101.206L124.018 100.03C123.358 100.222 122.494 100.39 121.654 100.486C121.678 100.054 121.69 99.6697 121.702 99.3817C121.726 99.0937 121.762 98.6857 121.798 98.4577ZM125.386 99.7777L124.858 100.69C125.614 101.086 127.054 101.938 127.63 102.466L128.218 101.506C127.618 101.038 126.274 100.222 125.386 99.7777ZM119.038 106.426C119.038 105.946 119.662 105.334 120.538 104.902C120.55 105.682 120.574 106.378 120.574 106.762C120.574 107.158 120.406 107.314 120.166 107.314C119.758 107.314 119.038 106.906 119.038 106.426ZM137.17 103.606C136.594 104.662 135.766 105.49 134.758 106.15C133.774 105.466 133.006 104.626 132.478 103.606H137.17ZM137.998 102.454L137.806 102.502H135.274V100.858H139.75V99.7537H135.274V98.0497H134.122V99.7537H129.682V100.858H134.122V102.502H130.234V103.606H132.238L131.41 103.894C131.986 105.034 132.742 105.97 133.678 106.738C132.37 107.35 130.846 107.746 129.202 107.986C129.43 108.25 129.73 108.766 129.826 109.054C131.59 108.742 133.258 108.238 134.698 107.458C136.03 108.262 137.638 108.802 139.558 109.09C139.714 108.778 140.014 108.274 140.266 108.01C138.538 107.806 137.038 107.386 135.802 106.762C137.11 105.814 138.142 104.566 138.778 102.922L137.998 102.454ZM146.014 104.17L145.93 103.162C145.354 103.294 144.778 103.426 144.214 103.558V101.446H145.858V100.414H144.214V98.0377H143.122V100.414H141.322V101.446H143.122V103.798C142.378 103.954 141.694 104.098 141.142 104.206L141.394 105.298L143.122 104.878V107.758C143.122 107.962 143.062 108.01 142.882 108.022C142.702 108.034 142.102 108.034 141.502 108.01C141.646 108.31 141.778 108.778 141.826 109.066C142.738 109.066 143.326 109.03 143.71 108.874C144.082 108.694 144.214 108.394 144.214 107.758V104.614L146.014 104.17ZM152.362 108.634C152.026 107.254 151.054 105.142 150.106 103.51L149.134 103.858C149.662 104.818 150.19 105.946 150.61 106.99C149.386 107.134 148.15 107.278 147.046 107.41C147.766 104.926 148.57 101.446 149.05 98.5777L147.838 98.3617C147.442 101.254 146.626 105.034 145.882 107.53C145.438 107.578 145.018 107.626 144.658 107.662L144.898 108.826C146.506 108.61 148.798 108.31 150.982 107.998C151.102 108.382 151.21 108.742 151.282 109.054L152.362 108.634ZM155.602 99.6577L154.138 99.6337C154.21 99.9577 154.234 100.462 154.234 100.762C154.234 101.482 154.246 102.922 154.366 103.978C154.69 107.134 155.806 108.286 157.018 108.286C157.894 108.286 158.638 107.578 159.394 105.526L158.446 104.41C158.17 105.502 157.642 106.81 157.042 106.81C156.238 106.81 155.746 105.538 155.566 103.654C155.482 102.718 155.47 101.71 155.482 100.954C155.482 100.63 155.542 100.006 155.602 99.6577ZM161.746 99.9577L160.558 100.354C161.77 101.794 162.454 104.458 162.658 106.522L163.894 106.042C163.738 104.098 162.85 101.35 161.746 99.9577ZM168.982 98.6977L167.446 98.6857C167.53 99.0817 167.578 99.5737 167.578 100.078C167.578 101.23 167.458 104.326 167.458 106.03C167.458 108.022 168.682 108.802 170.506 108.802C173.194 108.802 174.814 107.254 175.606 106.114L174.754 105.07C173.89 106.354 172.63 107.542 170.53 107.542C169.486 107.542 168.706 107.11 168.706 105.838C168.706 104.182 168.79 101.41 168.85 100.078C168.862 99.6457 168.91 99.1417 168.982 98.6977ZM179.95 106.81C179.95 106.33 180.502 105.934 181.522 105.934C181.894 105.934 182.266 105.97 182.614 106.042C182.626 106.306 182.626 106.546 182.626 106.714C182.626 107.482 182.11 107.686 181.438 107.686C180.406 107.686 179.95 107.326 179.95 106.81ZM183.73 98.5177H182.446C182.494 98.7097 182.506 99.0697 182.506 99.2737C182.506 99.4777 182.506 99.7297 182.506 100.006C182.338 100.006 182.158 100.006 181.99 100.006C181.222 100.006 179.782 99.8857 178.978 99.7417L178.99 100.834C179.77 100.93 181.21 101.05 182.002 101.05C182.17 101.05 182.338 101.05 182.494 101.05C182.494 101.53 182.494 102.034 182.494 102.526C182.29 102.526 182.086 102.526 181.882 102.526C181.15 102.526 179.734 102.442 178.918 102.31L178.93 103.438C179.758 103.534 181.09 103.594 181.858 103.594C182.086 103.594 182.302 103.594 182.518 103.594C182.53 104.038 182.554 104.53 182.566 104.998C182.278 104.974 181.99 104.95 181.678 104.95C179.89 104.95 178.822 105.73 178.822 106.882C178.822 108.082 179.794 108.754 181.594 108.754C183.166 108.754 183.826 107.926 183.826 107.014C183.826 106.846 183.814 106.642 183.802 106.39C184.894 106.834 185.806 107.518 186.49 108.142L187.186 107.074C186.49 106.51 185.302 105.67 183.742 105.238C183.718 104.698 183.682 104.122 183.658 103.57C184.81 103.522 185.806 103.438 186.91 103.306L186.922 102.19C185.878 102.334 184.822 102.442 183.634 102.49C183.634 102.106 183.634 101.542 183.634 101.002C184.798 100.954 185.914 100.846 186.802 100.738V99.6337C185.734 99.8137 184.678 99.9217 183.646 99.9697C183.658 99.7057 183.658 99.4777 183.67 99.3337C183.682 98.9977 183.706 98.7337 183.73 98.5177ZM196.402 98.5417H195.022C195.046 98.6617 195.082 99.0337 195.118 99.4177C195.13 99.5617 195.13 99.7657 195.142 100.03C193.426 100.054 191.194 100.114 189.838 100.138L189.874 101.29C191.362 101.194 193.33 101.122 195.154 101.098C195.154 101.446 195.166 101.806 195.166 102.118C194.962 102.058 194.734 102.034 194.494 102.034C193.282 102.034 192.262 102.934 192.262 104.194C192.262 105.562 193.306 106.282 194.278 106.282C194.59 106.282 194.878 106.222 195.118 106.102C194.542 107.026 193.438 107.554 192.022 107.866L193.042 108.874C195.886 108.046 196.738 106.162 196.738 104.566C196.738 103.954 196.594 103.402 196.318 102.97C196.318 102.43 196.318 101.734 196.306 101.086C198.046 101.086 199.186 101.11 199.894 101.146L199.918 100.018H196.318C196.318 99.7777 196.318 99.5617 196.33 99.4177C196.33 99.2497 196.366 98.6977 196.402 98.5417ZM193.39 104.17C193.39 103.45 193.93 103.042 194.482 103.042C194.878 103.042 195.226 103.222 195.418 103.618C195.574 104.746 195.106 105.238 194.482 105.238C193.906 105.238 193.39 104.83 193.39 104.17ZM201.867 105.166C200.835 105.166 199.983 106.018 199.983 107.05C199.983 108.082 200.835 108.922 201.867 108.922C202.911 108.922 203.739 108.082 203.739 107.05C203.739 106.018 202.911 105.166 201.867 105.166ZM201.867 108.202C201.231 108.202 200.715 107.686 200.715 107.05C200.715 106.414 201.231 105.898 201.867 105.898C202.503 105.898 203.019 106.414 203.019 107.05C203.019 107.686 202.503 108.202 201.867 108.202Z" fill="black"/>
</svg>
