<!-- 01EZTX9M3AWK0ZB16B6KYR56F1 -->

<svg width="112" height="89" viewBox="0 0 112 89" fill="none" xmlns="http://www.w3.org/2000/svg">
<mask id="path-2-inside-1" fill="white">
<path fill-rule="evenodd" clip-rule="evenodd" d="M10 0C4.47715 0 0 4.47714 0 9.99999V68.6154C0 74.1382 4.47715 78.6154 10 78.6154H52.0194L57.6154 88.308L63.2114 78.6154H102C107.523 78.6154 112 74.1382 112 68.6154V10C112 4.47715 107.523 0 102 0H10Z"/>
</mask>
<path fill-rule="evenodd" clip-rule="evenodd" d="M10 0C4.47715 0 0 4.47714 0 9.99999V68.6154C0 74.1382 4.47715 78.6154 10 78.6154H52.0194L57.6154 88.308L63.2114 78.6154H102C107.523 78.6154 112 74.1382 112 68.6154V10C112 4.47715 107.523 0 102 0H10Z" fill="white"/>
<path d="M52.0194 78.6154L55.75 76.4615L54.5064 74.3077H52.0194V78.6154ZM57.6154 88.308L53.8848 90.4618L57.6154 96.9233L61.346 90.4618L57.6154 88.308ZM63.2114 78.6154V74.3077H60.7243L59.4808 76.4615L63.2114 78.6154ZM4.30769 9.99999C4.30769 6.85622 6.85622 4.30769 10 4.30769V-4.30769C2.09809 -4.30769 -4.30769 2.09806 -4.30769 9.99999H4.30769ZM4.30769 68.6154V9.99999H-4.30769V68.6154H4.30769ZM10 74.3077C6.85623 74.3077 4.30769 71.7592 4.30769 68.6154H-4.30769C-4.30769 76.5173 2.09808 82.9231 10 82.9231V74.3077ZM52.0194 74.3077H10V82.9231H52.0194V74.3077ZM61.346 86.1541L55.75 76.4615L48.2888 80.7692L53.8848 90.4618L61.346 86.1541ZM59.4808 76.4615L53.8848 86.1541L61.346 90.4618L66.942 80.7692L59.4808 76.4615ZM102 74.3077H63.2114V82.9231H102V74.3077ZM107.692 68.6154C107.692 71.7592 105.144 74.3077 102 74.3077V82.9231C109.902 82.9231 116.308 76.5173 116.308 68.6154H107.692ZM107.692 10V68.6154H116.308V10H107.692ZM102 4.30769C105.144 4.30769 107.692 6.85623 107.692 10H116.308C116.308 2.09808 109.902 -4.30769 102 -4.30769V4.30769ZM10 4.30769H102V-4.30769H10V4.30769Z" fill="#00655A" mask="url(#path-2-inside-1)"/>
<path d="M47.7627 60.7654V61.4854H49.1067C49.0587 61.0774 49.0467 60.8014 49.0467 60.2014V53.9014C49.0467 53.3974 49.0467 53.2654 49.0707 52.9294C48.6627 52.9534 48.6627 52.9534 48.0627 52.9534H42.5787C41.5947 52.9534 41.4627 52.9414 40.9707 52.8694V54.1894C41.4387 54.1414 41.6667 54.1294 42.5667 54.1294H47.7627V59.5894H42.3387C41.4627 59.5894 41.2347 59.5774 40.7907 59.5054V60.8254C41.1987 60.7774 41.4147 60.7654 42.3147 60.7654H47.7627ZM51.9387 57.5614C52.4307 57.5134 52.7907 57.5014 53.7987 57.5014H60.2667C61.1547 57.5014 61.5387 57.5134 62.0667 57.5614V56.1694C61.5987 56.2294 61.3107 56.2414 60.2787 56.2414H53.7867C52.8987 56.2414 52.3827 56.2174 51.9387 56.1574V57.5614ZM72.8593 60.7174C71.3353 59.1814 70.3753 58.3414 68.8633 57.2494C69.5953 56.3254 70.2073 55.2694 70.7833 53.9374C70.9033 53.6494 70.9993 53.4814 71.1433 53.3254L70.4713 52.6174C70.2073 52.7134 70.0993 52.7374 69.5233 52.7374L65.5273 52.7974C65.3833 52.7974 65.2513 52.7974 65.2033 52.7974C64.6753 52.7974 64.3753 52.7734 63.9673 52.7254L64.0033 54.0334C64.5673 53.9614 64.7953 53.9494 65.5393 53.9374L69.0193 53.8774C69.1753 53.8774 69.2473 53.8774 69.3913 53.8654C69.3673 53.9254 69.3673 53.9254 69.3433 53.9734C69.3073 54.0454 69.3073 54.0454 69.2713 54.1534C68.4673 56.0854 66.9793 57.9214 65.1313 59.2534C64.2193 59.9014 63.6433 60.2254 62.7193 60.5854C63.1513 61.0294 63.2713 61.1854 63.5353 61.7014C65.4193 60.7654 66.7273 59.7574 68.1193 58.1854C69.5953 59.3614 70.9153 60.6214 71.8633 61.8214L72.8593 60.7174Z" fill="black"/>
<path d="M40.1499 21.8433V21.7293H33.7279C33.5759 21.7293 33.4999 21.8053 33.4999 21.9573V24.9213C33.4999 25.1746 33.3732 25.3013 33.1199 25.3013H29.8519C29.5986 25.3013 29.4719 25.1746 29.4719 24.9213V18.3093C29.4719 18.056 29.5986 17.9293 29.8519 17.9293H44.3299C44.5832 17.9293 44.7099 18.056 44.7099 18.3093V21.2733C44.7099 21.552 44.6719 21.78 44.5959 21.9573L36.0459 43.4273C35.9952 43.554 35.9319 43.6426 35.8559 43.6933C35.8052 43.744 35.7039 43.7693 35.5519 43.7693H31.9419C31.6632 43.7693 31.5872 43.63 31.7139 43.3513L40.1499 21.8433ZM47.7054 39.1333C47.6294 38.88 47.5534 38.5886 47.4774 38.2593C47.4014 37.9046 47.338 37.436 47.2874 36.8533C47.262 36.2453 47.2367 35.4726 47.2114 34.5353C47.186 33.5726 47.1734 32.344 47.1734 30.8493C47.1734 29.3546 47.186 28.1386 47.2114 27.2013C47.2367 26.2386 47.262 25.466 47.2874 24.8833C47.338 24.2753 47.4014 23.8066 47.4774 23.4773C47.5534 23.148 47.6294 22.844 47.7054 22.5653C48.212 20.944 49.0734 19.7026 50.2894 18.8413C51.5307 17.9546 53.114 17.5113 55.0394 17.5113C56.9647 17.5113 58.5354 17.9546 59.7514 18.8413C60.9927 19.7026 61.8794 20.944 62.4114 22.5653C62.4874 22.844 62.5634 23.148 62.6394 23.4773C62.7154 23.8066 62.766 24.2753 62.7914 24.8833C62.842 25.466 62.88 26.2386 62.9054 27.2013C62.9307 28.1386 62.9434 29.3546 62.9434 30.8493C62.9434 32.344 62.9307 33.5726 62.9054 34.5353C62.88 35.4726 62.842 36.2453 62.7914 36.8533C62.766 37.436 62.7154 37.9046 62.6394 38.2593C62.5634 38.5886 62.4874 38.88 62.4114 39.1333C61.8794 40.7546 60.9927 42.0086 59.7514 42.8953C58.5354 43.7566 56.9647 44.1873 55.0394 44.1873C53.114 44.1873 51.5307 43.7566 50.2894 42.8953C49.0734 42.0086 48.212 40.7546 47.7054 39.1333ZM51.8854 38.3353C52.3667 39.7033 53.418 40.3873 55.0394 40.3873C56.6607 40.3873 57.7247 39.7033 58.2314 38.3353C58.3074 38.1326 58.358 37.9046 58.3834 37.6513C58.434 37.398 58.472 37.0053 58.4974 36.4733C58.5227 35.9413 58.5354 35.232 58.5354 34.3453C58.5607 33.4586 58.5734 32.2933 58.5734 30.8493C58.5734 29.4053 58.5607 28.24 58.5354 27.3533C58.5354 26.4666 58.5227 25.7573 58.4974 25.2253C58.472 24.6933 58.434 24.3006 58.3834 24.0473C58.358 23.794 58.3074 23.566 58.2314 23.3633C57.7247 21.9953 56.6607 21.3113 55.0394 21.3113C53.418 21.3113 52.3667 21.9953 51.8854 23.3633C51.8094 23.566 51.746 23.794 51.6954 24.0473C51.67 24.3006 51.6447 24.6933 51.6194 25.2253C51.594 25.7573 51.5687 26.4666 51.5434 27.3533C51.5434 28.24 51.5434 29.4053 51.5434 30.8493C51.5434 32.2933 51.5434 33.4586 51.5434 34.3453C51.5687 35.232 51.594 35.9413 51.6194 36.4733C51.6447 37.0053 51.67 37.398 51.6954 37.6513C51.746 37.9046 51.8094 38.1326 51.8854 38.3353ZM67.2828 43.7093L68.3028 44.5293L80.9028 28.4093L79.8628 27.6093L67.2828 43.7093ZM78.8028 44.3293C79.9028 44.3293 80.8228 43.9893 81.5028 43.3093C82.2628 42.5693 82.6628 41.3693 82.6628 39.8493C82.6628 38.3493 82.2628 37.1493 81.5028 36.4093C80.8428 35.7493 79.9028 35.3893 78.8028 35.3893C77.7028 35.3893 76.7628 35.7493 76.0828 36.4093C75.3228 37.1693 74.9228 38.3493 74.9228 39.8493C74.9228 41.3693 75.3228 42.5693 76.0828 43.3093C76.7628 43.9893 77.6828 44.3293 78.8028 44.3293ZM78.8028 37.0893C79.3828 37.0893 79.7428 37.2693 80.0828 37.7093C80.4228 38.1893 80.6228 38.9093 80.6228 39.7093C80.6228 41.6493 80.0028 42.6493 78.8028 42.6493C77.6228 42.6493 76.9828 41.6493 76.9828 39.8093C76.9828 38.9093 77.1628 38.2293 77.5228 37.7293C77.8428 37.2693 78.2228 37.0893 78.8028 37.0893ZM69.3828 36.7293C70.4828 36.7293 71.4028 36.3893 72.0828 35.7093C72.8428 34.9693 73.2428 33.7693 73.2428 32.2493C73.2428 30.7493 72.8428 29.5493 72.0828 28.8093C71.4228 28.1493 70.4828 27.7893 69.3828 27.7893C66.9428 27.7893 65.5028 29.4493 65.5028 32.2493C65.5028 33.7493 65.9028 34.9693 66.6628 35.7093C67.3428 36.3893 68.2628 36.7293 69.3828 36.7293ZM69.3828 29.4893C70.0428 29.4893 70.5028 29.7693 70.8428 30.3893C71.0628 30.8093 71.2028 31.5293 71.2028 32.2493C71.2028 34.0493 70.5428 35.0493 69.3828 35.0493C68.2028 35.0493 67.5628 34.0493 67.5628 32.2093C67.5628 30.4693 68.2228 29.4893 69.3828 29.4893Z" fill="#00655A"/>
</svg>
