<!-- 01EZTX9M3AWK0ZB16B6KYR56F1 -->

<svg width="375" height="138" viewBox="0 0 375 138" fill="none" xmlns="http://www.w3.org/2000/svg">
<path d="M0 0H375V5H0L0 0Z" fill="#00655A"/>
<path d="M0 123H375V128H0L0 123Z" fill="#00655A"/>
<path d="M152.866 45.642C151.93 45.642 151.39 45.624 150.832 45.57C150.904 46.218 150.922 46.704 150.922 47.676V53.418C150.922 54.318 150.886 54.876 150.832 55.398H153.226C153.136 54.984 153.118 54.534 153.118 53.418V52.662H155.116V53.292C155.116 54.228 155.08 54.786 155.008 55.308H157.33C157.258 54.732 157.24 54.336 157.24 53.292V52.662H159.418V53.202C159.418 53.598 159.382 53.652 159.076 53.652C158.788 53.652 158.5 53.616 158.068 53.544C158.302 54.138 158.41 54.57 158.482 55.344C158.878 55.362 159.166 55.362 159.346 55.362C161.182 55.362 161.632 54.966 161.632 53.382V47.568C161.632 46.596 161.65 46.056 161.704 45.57C161.218 45.624 160.804 45.642 159.922 45.642H158.788C159.4 45.228 160.21 44.616 160.858 44.058C161.47 43.536 161.488 43.518 161.74 43.356L160.624 42.096C160.3 42.168 159.688 42.204 158.464 42.204H152.866C151.84 42.204 151.21 42.168 150.598 42.096V44.274C151.138 44.202 151.624 44.184 152.506 44.184H153.892L152.668 44.868C153.082 45.084 153.37 45.264 153.946 45.642H152.866ZM157.24 47.406H159.418V48.378H157.24V47.406ZM155.116 47.406V48.378H153.118V47.406H155.116ZM153.118 50.034H155.116V51.006H153.118V50.034ZM159.418 51.006H157.24V50.034H159.418V51.006ZM157.852 44.184C157.276 44.67 156.952 44.922 156.34 45.336C155.62 44.778 155.26 44.508 154.792 44.184H157.852ZM145.504 43.59C146.818 44.706 147.592 45.534 148.69 47.01L150.472 45.21C149.482 44.004 148.708 43.212 147.232 41.952L145.504 43.59ZM145.648 50.862C146.098 50.79 146.368 50.772 146.764 50.772H147.61V54.372C146.782 55.092 145.99 55.632 145.324 55.92L146.44 58.296C147.682 57.378 147.808 57.27 148.708 56.388C150.13 57.918 151.336 58.224 155.89 58.224C158.104 58.224 159.958 58.188 162.046 58.098C162.172 57.144 162.352 56.406 162.622 55.578C159.814 55.902 157.978 56.028 155.908 56.028C153.748 56.028 151.84 55.848 151.12 55.578C150.58 55.362 150.13 54.984 149.824 54.444V50.502C149.824 49.494 149.842 49.026 149.896 48.504C149.482 48.558 149.086 48.576 148.528 48.576H147.07C146.422 48.576 146.116 48.558 145.648 48.486V50.862ZM174.754 51.582V56.91C174.754 57.99 175.402 58.35 177.382 58.35C178.948 58.35 179.542 58.134 179.956 57.468C180.226 57 180.406 56.064 180.55 54.3C179.614 54.138 179.218 54.012 178.516 53.652C178.48 54.768 178.39 55.722 178.318 55.956C178.228 56.172 178.066 56.244 177.526 56.244C177.076 56.244 176.95 56.154 176.95 55.776V51.582H178.462C179.164 51.582 179.668 51.618 180.208 51.672V49.476C179.704 49.548 179.416 49.566 178.462 49.566H171.838C171.136 49.566 170.632 49.548 170.11 49.494V51.654C170.596 51.6 170.776 51.582 171.73 51.582C171.622 53.022 171.298 53.958 170.668 54.75C169.966 55.614 169.084 56.208 167.608 56.766C168.274 57.396 168.598 57.828 169.084 58.674C170.866 57.828 171.982 56.928 172.738 55.74C173.422 54.642 173.746 53.526 173.926 51.582H174.754ZM169.768 46.308C169.768 46.866 169.75 47.136 169.714 47.46C169.714 47.496 169.714 47.55 169.714 47.604H171.316V48.612C171.748 48.576 172.18 48.558 172.774 48.558H177.058C177.616 48.558 178.066 48.576 178.516 48.612V47.64H180.208C180.154 47.19 180.136 46.902 180.136 46.29V44.724C180.136 44.022 180.154 43.734 180.208 43.374C179.794 43.428 179.344 43.446 178.66 43.446H175.978V42.96C175.978 42.456 175.996 42.168 176.068 41.79H173.494C173.566 42.096 173.584 42.438 173.584 42.906V43.446H171.316C170.92 43.446 170.758 43.446 170.362 43.428L170.38 43.356L169.444 42.24C169.174 42.294 168.922 42.312 168.256 42.312H165.448C164.89 42.312 164.53 42.294 164.134 42.24C164.188 42.87 164.206 43.392 164.206 44.058V56.298C164.206 57.18 164.17 57.918 164.098 58.548H166.456C166.384 57.9 166.366 57.414 166.366 56.352V44.4H167.842C167.428 45.948 167.05 47.064 166.474 48.252C167.104 49.17 167.338 49.638 167.572 50.34C167.716 50.79 167.824 51.348 167.824 51.654C167.824 52.32 167.716 52.446 167.212 52.446C167.014 52.446 166.87 52.428 166.51 52.374C166.816 53.004 166.924 53.526 166.978 54.66C168.04 54.624 168.382 54.57 168.832 54.39C169.516 54.102 169.912 53.364 169.912 52.374C169.912 51.816 169.84 51.276 169.678 50.646C169.48 49.836 169.228 49.278 168.58 48.126C169.066 47.064 169.282 46.524 169.768 45.066V46.308ZM177.886 46.596C177.562 46.614 177.49 46.614 177.058 46.614H172.792C172.396 46.614 172.216 46.614 171.946 46.596V45.516H177.886V46.596ZM186.238 42.024C186.22 42.798 186.076 43.68 185.752 45.03C185.41 45.048 185.068 45.066 184.96 45.066C183.88 45.066 183.088 45.012 182.44 44.886V47.334C182.98 47.334 183.052 47.334 183.124 47.334C183.736 47.37 183.736 47.37 183.934 47.37C183.97 47.37 184.06 47.37 184.15 47.37C184.582 47.352 184.582 47.352 185.122 47.352C184.258 50.088 183.034 52.608 181.738 54.318L184.204 55.686C184.312 55.452 184.312 55.452 184.546 55.002C185.23 53.706 185.392 53.382 185.806 52.5C186.634 50.718 187.066 49.548 187.768 47.28C189.208 47.154 189.946 47.082 190.576 46.992C190.864 46.938 190.936 46.938 191.134 46.92L191.08 44.436C190.432 44.652 189.532 44.796 188.362 44.904C188.398 44.724 188.398 44.724 188.47 44.454C188.596 43.824 188.686 43.428 188.722 43.266C188.902 42.474 188.902 42.474 188.974 42.294L186.238 42.024ZM198.226 46.56C196.588 45.588 195.148 44.922 192.988 44.148L191.71 46.236C193.798 46.956 195.436 47.73 197.074 48.792L198.226 46.56ZM198.118 54.732C197.974 54.624 197.974 54.624 197.812 54.498C197.506 54.246 197.344 54.12 197.11 53.958C196.228 53.292 195.526 52.896 194.392 52.392C194.266 51.402 194.23 50.772 194.23 49.962C194.23 49.224 194.266 48.9 194.464 48.18L191.962 48.054C191.854 48.72 191.818 49.242 191.818 50.052C191.818 50.574 191.836 51.078 191.908 51.798C191.422 51.726 191.116 51.69 190.594 51.69C189.766 51.69 189.208 51.762 188.668 51.96C187.246 52.464 186.382 53.616 186.382 54.984C186.382 56.91 188.002 58.188 190.468 58.188C191.944 58.188 193.168 57.738 193.798 56.964C194.23 56.424 194.392 55.884 194.41 55.038C195.4 55.632 196.408 56.46 196.966 57.144L198.118 54.732ZM191.962 54.084C191.98 54.084 191.998 54.426 191.998 54.588C191.998 55.47 191.476 55.92 190.396 55.92C189.442 55.92 188.884 55.524 188.884 54.876C188.884 54.246 189.55 53.814 190.54 53.814C191.044 53.814 191.404 53.886 191.962 54.084ZM202.402 42.546C202.456 43.05 202.474 43.302 202.474 43.896C202.474 44.436 202.456 45.534 202.402 48.018C202.348 50.394 202.33 51.564 202.33 52.374C202.33 53.436 202.438 54.372 202.6 54.948C202.888 55.848 203.464 56.622 204.22 57.126C205.03 57.648 206.218 57.936 207.55 57.936C209.854 57.936 211.672 57.162 213.058 55.632C213.994 54.588 214.552 53.364 215.272 50.79C214.21 50.322 213.814 50.07 212.644 49.152C212.482 50.484 212.266 51.33 211.888 52.284C211.078 54.264 209.602 55.344 207.694 55.344C206.632 55.344 205.822 55.02 205.444 54.444C205.102 53.94 205.012 53.328 205.012 51.582C205.012 48.468 205.228 43.662 205.408 42.6L202.402 42.546ZM231.21 49.692C230.724 48.63 230.328 48.018 229.698 47.262L228.168 47.946C228.798 48.774 229.212 49.44 229.662 50.448L231.21 49.692ZM233.298 48.702C232.722 47.568 232.47 47.172 231.804 46.398L230.31 47.046C230.922 47.838 231.318 48.504 231.768 49.458L233.298 48.702ZM217.26 46.956C217.944 46.83 218.916 46.704 219.906 46.632C223.92 46.326 223.992 46.308 225.792 46.11C223.29 47.55 221.994 49.53 221.994 51.96C221.994 54.012 222.966 55.578 224.838 56.55C225.918 57.126 227.178 57.432 229.194 57.666C229.518 57.702 229.59 57.702 229.824 57.756L230.202 54.84C229.986 54.858 229.86 54.858 229.752 54.858C229.086 54.858 227.916 54.678 227.088 54.444C225.576 54.012 224.748 53.04 224.748 51.708C224.748 50.07 225.972 48.396 228.006 47.244C229.212 46.56 230.67 46.146 231.84 46.146C232.002 46.146 232.056 46.146 232.272 46.164L232.128 43.41C231.804 43.482 231.696 43.5 230.112 43.572C225.162 43.788 222.066 43.932 220.824 44.022C218.268 44.184 218.16 44.184 217.818 44.184C217.746 44.184 217.53 44.184 217.116 44.166L217.26 46.956ZM147.358 74.892C147.682 74.856 147.826 74.838 148.204 74.838C151.354 74.766 152.668 74.676 154.576 74.424C154.648 74.568 154.648 74.568 154.81 74.856C155.044 75.36 155.152 75.54 155.44 76.008C155.854 76.71 155.854 76.71 156.268 77.286C155.44 76.998 154.504 76.854 153.334 76.854C151.228 76.854 149.644 77.34 148.6 78.312C147.826 79.032 147.412 79.968 147.412 80.958C147.412 81.93 147.844 82.902 148.6 83.604C149.554 84.468 151.372 84.936 153.784 84.936C155.26 84.936 156.736 84.756 158.122 84.396C158.986 84.18 158.986 84.18 159.634 84.018L159.292 81.282C157.888 82.02 155.71 82.488 153.766 82.488C152.326 82.488 151.174 82.236 150.652 81.822C150.346 81.588 150.184 81.21 150.184 80.832C150.184 79.716 151.516 79.068 153.784 79.068C154.828 79.068 155.728 79.194 156.502 79.464C157.024 79.644 157.312 79.824 157.762 80.256L160.264 79.176C159.706 78.402 158.914 77.214 158.392 76.368C158.194 76.026 157.78 75.27 157.15 74.082C158.5 73.848 158.5 73.848 159.58 73.614C160.552 73.416 160.552 73.416 160.984 73.362L160.696 70.806C159.652 71.184 158.248 71.508 156.268 71.832C155.728 70.536 155.512 69.852 155.386 69.114L152.614 69.456C152.776 69.798 153.388 71.292 153.712 72.138C152.272 72.3 150.346 72.426 149.086 72.426C148.402 72.426 147.664 72.39 147.16 72.336L147.358 74.892ZM167.878 71.328C169.966 72.282 172.126 72.948 175.258 73.632L176.122 71.148C174.034 70.86 170.434 69.816 169.138 69.114L167.878 71.328ZM166.492 72.696C166.456 73.11 166.438 73.344 166.384 73.776C166.024 76.152 165.718 78.42 165.556 79.752C165.52 79.986 165.52 80.004 165.484 80.238L168.094 80.328C168.454 79.914 168.616 79.77 169.012 79.518C170.236 78.744 171.73 78.312 173.278 78.312C175.006 78.312 176.032 78.96 176.032 80.058C176.032 81.48 174.34 82.434 171.82 82.434C170.398 82.434 168.868 82.146 167.086 81.57C167.338 82.668 167.392 83.154 167.41 84.306C169.318 84.738 170.47 84.882 171.982 84.882C174.07 84.882 175.618 84.486 176.896 83.604C178.12 82.758 178.84 81.408 178.84 79.968C178.84 77.538 176.788 75.972 173.584 75.972C171.424 75.972 169.876 76.44 168.328 77.538C168.544 75.9 168.958 73.56 169.156 72.858L166.492 72.696ZM183.79 69.492C183.736 70.014 183.718 70.176 183.502 71.292C183.016 73.92 182.8 76.098 182.8 78.33C182.8 80.076 182.926 81.534 183.268 83.82C183.322 84.234 183.34 84.378 183.358 84.702L185.968 84.576C185.95 84.324 185.95 84.234 185.95 84.054C185.95 82.632 186.472 80.724 187.426 78.636L185.842 77.988L185.5 78.852C185.41 79.068 185.41 79.068 185.176 79.77C185.23 75.954 185.806 71.904 186.598 69.762L183.79 69.492ZM188.236 73.848C188.506 73.866 188.65 73.866 188.74 73.884C189.856 73.992 190.504 74.028 191.638 74.028C193.132 74.028 194.932 73.902 196.408 73.704C196.606 73.686 196.624 73.686 196.786 73.686L196.66 71.076C195.508 71.382 193.708 71.562 191.728 71.562C190.09 71.562 189.154 71.49 188.272 71.256L188.236 73.848ZM189.424 76.53C188.308 77.952 187.75 79.248 187.75 80.382C187.75 81.048 187.948 81.732 188.29 82.218C189.1 83.352 190.594 83.892 192.88 83.892C194.122 83.892 195.076 83.802 196.66 83.55C197.056 83.496 197.164 83.478 197.452 83.442L197.272 80.724C196.03 81.174 194.464 81.426 192.898 81.426C191.242 81.426 190.324 80.922 190.324 80.022C190.324 79.356 190.738 78.546 191.584 77.484L189.424 76.53ZM209.026 76.782H206.29C205.444 76.782 204.85 76.746 204.256 76.692V79.014C204.832 78.96 205.588 78.924 206.29 78.924H207.964C207.352 79.734 207.082 80.04 206.452 80.616C205.57 81.408 204.652 82.074 203.698 82.596C204.364 83.334 204.598 83.694 205.102 84.738C205.714 84.378 206.2 84 206.938 83.316C207.856 82.47 208.324 81.894 209.062 80.706C209.026 81.948 209.026 82.56 209.026 82.578V83.928C209.008 84.486 208.99 84.936 208.918 85.548H211.402C211.312 84.972 211.294 84.468 211.294 83.928V82.596C211.294 82.146 211.258 81.174 211.24 80.706C212.392 82.452 213.328 83.37 215.434 84.774C215.902 83.712 215.938 83.622 216.694 82.398C214.75 81.426 213.562 80.472 212.302 78.924H214.3C214.876 78.924 215.578 78.96 216.28 79.032V76.674C215.632 76.746 214.876 76.782 214.228 76.782H211.294V75.504H213.562L214.75 75.54C215.092 75.54 215.092 75.54 215.29 75.558C215.236 75.018 215.218 74.586 215.218 73.794V71.184C215.218 70.266 215.218 69.942 215.29 69.366C214.75 69.42 214.138 69.456 213.292 69.456H207.352C206.362 69.456 205.876 69.438 205.372 69.366C205.408 69.906 205.444 70.338 205.444 71.04V73.776C205.444 74.532 205.408 75.018 205.372 75.558C205.822 75.522 206.398 75.504 207.154 75.504H209.026V76.782ZM207.694 71.58H212.914V73.416H207.694V71.58ZM201.322 83.442C201.322 84.288 201.286 84.81 201.214 85.53H203.644C203.572 84.828 203.554 84.216 203.554 83.46V73.416C204.13 72.246 204.526 71.292 204.814 70.356C205.012 69.708 205.03 69.636 205.138 69.366L202.762 68.574C202.69 69.186 202.42 70.122 202.096 71.004C201.376 72.894 200.512 74.28 199.27 75.486C199.72 76.512 199.882 76.998 200.206 78.222C200.692 77.682 200.944 77.376 201.358 76.746C201.322 77.844 201.322 78.204 201.322 78.636V83.442ZM227.656 74.64V75.522H225.478C224.614 75.522 224.398 75.522 223.966 75.486C224.002 75.99 224.02 76.26 224.02 76.782V79.59C224.02 80.022 224.02 80.022 223.984 80.796C224.488 80.742 224.938 80.724 225.622 80.724H227.026C226.216 82.218 224.686 83.136 222.292 83.55C222.868 84.18 223.156 84.648 223.606 85.656C226.072 84.936 227.656 83.784 228.646 82.056C229.708 83.604 231.4 84.81 233.542 85.584C233.902 84.576 234.172 84.036 234.694 83.334C232.48 82.83 231.022 82.02 229.942 80.724H231.94C232.642 80.724 233.038 80.742 233.614 80.796C233.56 80.202 233.542 79.734 233.542 79.374V76.944C233.542 76.476 233.56 76.242 233.614 75.45C233.092 75.504 232.768 75.522 232.048 75.522H229.78V74.64H230.842C231.58 74.64 231.886 74.658 232.228 74.694V73.758C232.876 74.154 233.11 74.28 233.704 74.604C234.136 73.542 234.388 73.02 234.856 72.39C233.614 71.958 232.948 71.634 232.138 71.094C231.04 70.392 230.356 69.726 229.78 68.79H227.494C226.882 69.816 226.45 70.32 225.478 71.076C224.992 71.472 224.488 71.796 223.858 72.156C224.254 70.95 224.254 70.95 224.452 70.482L223.426 69.222C223.138 69.276 222.814 69.294 222.184 69.294H219.574C218.944 69.294 218.512 69.276 218.116 69.222C218.17 69.834 218.188 70.374 218.188 71.04V83.262C218.188 84.324 218.152 84.9 218.08 85.512H220.546C220.474 84.99 220.456 84.504 220.456 83.298V79.68C220.744 80.256 220.888 80.868 220.924 81.804C222.922 81.804 223.642 81.102 223.642 79.104C223.642 77.934 223.408 77.178 222.544 75.558C223.012 74.514 223.156 74.136 223.462 73.29C223.804 73.83 223.93 74.046 224.128 74.604C224.686 74.298 224.938 74.136 225.352 73.848V74.694C225.73 74.658 226.036 74.64 226.756 74.64H227.656ZM227.638 77.376C227.602 78.042 227.584 78.42 227.53 78.888H225.982V77.376H227.638ZM231.49 77.376V78.888H229.654C229.708 78.348 229.726 78.114 229.762 77.376H231.49ZM220.456 71.382H221.95C221.59 73.038 221.23 74.064 220.474 75.594C221.23 76.854 221.518 77.754 221.518 78.87C221.518 79.5 221.41 79.644 220.978 79.644C220.906 79.644 220.636 79.626 220.456 79.608V71.382ZM226.9 72.66C227.71 71.922 228.106 71.472 228.646 70.698C229.402 71.598 229.798 71.994 230.644 72.66H226.9ZM243.208 82.632C243.568 82.506 244.072 82.38 244.918 82.2L248.446 81.426V83.37C248.446 84.504 248.428 84.972 248.338 85.584H250.894C250.804 84.954 250.786 84.486 250.786 83.388V80.922C251.668 80.742 252.082 80.67 252.568 80.616L252.28 78.204C251.794 78.366 251.488 78.456 250.786 78.618V71.004C250.786 69.924 250.804 69.438 250.894 68.826H248.338C248.428 69.402 248.446 69.906 248.446 71.004V79.122L244.594 79.932C243.964 80.076 243.298 80.166 242.884 80.184C243.064 79.824 243.136 79.698 243.424 79.194C242.38 78.366 241.678 77.646 241.156 76.836H241.696C242.362 76.836 242.704 76.854 243.136 76.926V74.676C242.758 74.748 242.452 74.766 241.732 74.766H240.994V73.614L242.452 74.406C242.974 73.29 243.28 72.426 243.802 70.5L242.11 69.726C241.804 71.22 241.588 71.922 240.994 73.488V70.482C240.994 69.672 241.012 69.258 241.084 68.826H238.654C238.726 69.294 238.744 69.708 238.744 70.5V74.766H237.628C236.782 74.766 236.404 74.748 235.99 74.676V76.926C236.44 76.854 236.836 76.836 237.646 76.836H238.456C237.7 78.69 236.818 80.058 235.666 81.174C236.116 81.858 236.44 82.578 236.71 83.442C237.574 82.488 238.024 81.732 238.816 79.914C238.78 80.418 238.762 81.066 238.762 81.75V83.73C238.762 84.522 238.726 85.044 238.654 85.602H241.084C241.012 85.098 240.994 84.63 240.994 83.784V80.994C240.994 80.418 240.994 80.328 240.904 79.248C241.462 80.166 241.534 80.274 242.416 81.354C242.614 80.832 242.668 80.688 242.848 80.274L243.208 82.632ZM235.846 70.536C236.332 71.688 236.62 72.714 236.908 74.388L238.582 73.596C238.312 72.21 238.078 71.346 237.502 69.726L235.846 70.536ZM243.82 71.562C245.476 72.786 245.692 72.984 246.952 74.298L248.392 72.516C247.402 71.49 246.808 70.986 245.296 69.942L243.82 71.562ZM243.262 76.008C244.54 76.908 245.17 77.466 246.394 78.762L247.816 77.034C246.862 76.044 246.106 75.396 244.738 74.442L243.262 76.008ZM254.818 73.29C254.926 73.272 255.016 73.272 255.088 73.272C255.088 73.272 255.196 73.272 255.34 73.272C255.376 73.29 255.484 73.29 255.646 73.29C255.7 73.29 255.988 73.29 256.33 73.308C256.852 73.326 256.996 73.326 258.004 73.326C257.914 73.452 257.896 73.47 257.734 73.776C256.798 75.378 255.232 77.25 254.224 77.988L256.168 79.914C256.618 79.32 257.068 78.834 257.806 78.186C259.156 77.016 260.38 76.404 261.352 76.404C261.874 76.404 262.18 76.638 262.27 77.124C261.028 77.664 260.236 78.078 259.642 78.51C258.274 79.5 257.554 80.616 257.554 81.732C257.554 82.47 257.806 83.172 258.256 83.676C259.084 84.612 260.578 85.008 263.224 85.008C264.736 85.008 266.338 84.9 267.85 84.684C268.336 84.612 268.408 84.612 268.75 84.594L268.552 81.84C267.148 82.362 265.204 82.65 263.026 82.65C261.064 82.65 260.29 82.326 260.29 81.498C260.29 81.048 260.578 80.598 261.136 80.202C261.478 79.968 261.838 79.77 262.576 79.428C262.594 79.5 262.594 79.554 262.594 79.572C262.594 80.526 262.558 81.318 262.486 81.66L264.988 81.588C264.952 81.228 264.934 80.922 264.934 80.382C264.934 80.274 264.934 80.148 264.934 80.004C264.934 79.734 264.934 79.554 264.934 79.482V79.158L264.916 78.564C267.094 77.826 267.094 77.826 267.526 77.718C268.444 77.448 269.038 77.322 269.56 77.25L268.606 74.802C268.3 74.982 268.228 75 267.202 75.342C266.392 75.612 266.302 75.648 265.6 75.9C265.132 76.062 264.808 76.17 264.646 76.224C264.322 75.018 263.422 74.406 261.964 74.406C261.064 74.406 260.416 74.586 259.48 75.108C260.056 74.334 260.308 73.956 260.65 73.326C262.468 73.272 264.808 73.128 266.122 72.966C266.986 72.876 266.986 72.876 267.544 72.822L267.436 70.392C266.41 70.662 264.934 70.86 262.792 70.986C262 71.022 261.946 71.022 261.676 71.058C261.748 70.914 261.748 70.896 261.82 70.734C262.36 69.438 262.36 69.438 262.486 69.24L259.696 68.988C259.624 69.582 259.498 70.014 259.048 71.094C258.976 71.094 258.886 71.094 258.868 71.094C258.796 71.094 258.706 71.094 258.508 71.094C258.382 71.094 258.256 71.094 258.148 71.094C256.672 71.094 255.52 71.022 254.854 70.86L254.818 73.29ZM282.088 71.49C281.134 71.778 279.82 72.03 278.704 72.138V71.256C278.704 70.176 278.722 69.798 278.812 69.168H276.148C276.238 69.78 276.256 70.23 276.256 71.4V72.3C276.13 72.318 276.13 72.318 275.896 72.318C275.23 72.336 275.176 72.336 275.014 72.336C274.06 72.336 273.232 72.282 272.746 72.174L272.764 74.568C272.962 74.55 273.124 74.55 273.214 74.55C273.286 74.55 273.376 74.55 273.52 74.55C274.456 74.586 274.492 74.586 274.654 74.586C274.888 74.586 275.374 74.568 276.274 74.55V77.016C275.086 77.538 274.276 78.006 273.628 78.564C272.602 79.464 272.026 80.49 272.026 81.408C272.026 82.362 272.548 83.226 273.538 83.892C274.438 84.522 275.698 84.918 276.742 84.918C277.462 84.918 278.092 84.648 278.398 84.18C278.65 83.82 278.704 83.442 278.704 82.092V78.708C279.82 78.366 280.774 78.222 281.818 78.222C283.708 78.222 284.878 79.122 284.878 80.544C284.878 81.57 284.212 82.308 283.312 82.308C282.484 82.308 282.124 81.75 282.124 80.454C282.124 80.166 282.142 79.878 282.214 79.464C281.314 79.968 280.954 80.112 279.838 80.436C279.82 80.598 279.82 80.742 279.82 80.814C279.82 83.406 281.026 84.846 283.204 84.846C285.67 84.846 287.488 83.028 287.488 80.544C287.488 79.086 286.804 77.772 285.67 76.98C284.698 76.332 283.438 76.008 281.854 76.008C280.63 76.008 279.946 76.098 278.686 76.386V74.424C279.514 74.334 280 74.262 280.9 74.118C281.656 73.974 281.818 73.956 282.178 73.92L282.088 71.49ZM276.274 81.696C276.274 82.29 276.202 82.434 275.932 82.434C275.644 82.434 275.248 82.29 274.942 82.092C274.6 81.876 274.438 81.642 274.438 81.39C274.438 80.796 275.176 80.04 276.274 79.5V81.696ZM288.298 74.118C287.326 72.624 286.3 71.526 284.698 70.248L282.718 71.652C284.158 72.804 285.418 74.244 286.3 75.702L288.298 74.118ZM304.138 77.322C305.038 77.322 305.596 77.34 306.172 77.412V75.072C305.686 75.144 305.272 75.162 304.138 75.162H297.55C297.874 74.496 297.874 74.478 297.928 74.37C298.396 73.452 298.396 73.452 298.54 73.146L295.984 72.786C295.822 73.38 295.516 74.082 294.958 75.162H291.916C290.8 75.162 290.404 75.144 289.864 75.072V77.412C290.386 77.358 290.998 77.322 291.916 77.322H293.716C293.086 78.33 292.69 78.888 291.646 80.184C294.13 80.868 294.976 81.12 296.362 81.66C294.436 82.614 292.762 83.046 289.864 83.334C290.422 84.162 290.674 84.648 290.98 85.602C292.96 85.242 294.148 84.918 295.714 84.342C296.992 83.874 297.82 83.442 298.882 82.704C300.862 83.586 302.23 84.324 304.174 85.584L305.938 83.622C303.814 82.47 302.644 81.912 300.7 81.084C301.726 79.914 302.23 79.05 302.86 77.322H304.138ZM300.358 77.322C299.854 78.582 299.35 79.338 298.45 80.22C297.082 79.716 296.704 79.59 295.21 79.176C295.768 78.366 295.93 78.114 296.398 77.322H300.358ZM296.632 70.356H292.168C291.196 70.356 290.674 70.338 290.062 70.284C290.098 70.734 290.134 71.22 290.134 71.67V73.146C290.134 73.722 290.116 74.118 290.044 74.496H292.384V72.498H303.598V74.496H305.938C305.884 74.082 305.848 73.65 305.848 73.146V71.67C305.848 71.202 305.866 70.734 305.92 70.284C305.308 70.338 304.768 70.356 303.796 70.356H299.062V70.104C299.062 69.582 299.08 69.15 299.134 68.808H296.56C296.614 69.222 296.632 69.582 296.632 70.122V70.356ZM317.908 68.844C317.584 69.33 317.386 69.546 316.522 70.374C315.316 71.526 314.344 72.354 312.346 73.866C311.248 74.694 310.996 74.91 310.744 75.18C310.348 75.612 310.114 76.188 310.114 76.728C310.114 77.106 310.222 77.538 310.366 77.844C310.582 78.24 310.906 78.564 311.734 79.212C314.56 81.408 315.1 81.84 316.414 83.064C317.674 84.216 318.286 84.864 318.772 85.548L320.968 83.298C320.734 83.118 320.626 83.028 320.428 82.848C317.782 80.508 316.684 79.608 314.938 78.33C313.192 77.07 313.192 77.07 313.192 76.818C313.192 76.62 313.282 76.53 313.84 76.116C315.856 74.586 317.26 73.488 318.178 72.642C319.978 70.986 319.978 70.986 320.428 70.68L317.908 68.844Z" fill="#00655A"/>
<circle cx="91" cy="65" r="41" fill="#00655A"/>
<path d="M187 138L180 128L194 128L187 138Z" fill="#00655A"/>
<g clip-path="url(#clip0)">
<path d="M116.342 64.259C115.428 63.0411 113.256 61.9959 110.549 62.5226C110.45 62.5391 110.351 62.5638 110.244 62.5885C109.388 62.786 108.656 63.1151 108.014 63.576C106.705 64.4812 105.734 65.8884 104.78 67.6988L100.731 69.8055L99.5871 70.398L100.723 72.587L101.99 71.9287L106.261 69.715C106.483 69.5916 106.673 69.4105 106.788 69.1801C108.195 66.448 109.24 65.3535 110.795 64.9914C112.087 64.6951 113.182 64.942 113.84 65.3041C112.441 68.0527 109.15 72.982 108.392 73.8297C107.01 75.3768 100.912 81.2854 99.5295 81.8697H82.75C81.6308 81.8697 80.8819 82.2071 80.3635 82.5856C80.0425 82.8243 79.8039 83.0711 79.6146 83.2769L79.4665 83.4415L81.2111 85.1861C81.2852 85.112 81.351 85.0379 81.4251 84.9639C81.6719 84.6923 81.853 84.503 82.1822 84.4043C82.3303 84.3631 82.5113 84.3385 82.75 84.3385H99.6529C101.916 84.3385 110.153 75.566 110.236 75.4755C111.182 74.4057 115.305 68.2337 116.482 65.4769C116.655 65.0737 116.605 64.6129 116.342 64.259Z" fill="white"/>
<path d="M97.2417 77.097H87.5888V74.6282H97.25C98.0482 74.6282 98.6983 74.4143 99.118 74.0193C99.4472 73.7066 99.6365 73.2869 99.6365 72.8425C99.6365 71.9537 98.8958 71.0567 97.25 71.0567H90.8723C90.0082 71.0567 89.2511 70.4724 88.3706 69.8059C87.7698 69.345 86.8564 68.6455 86.3873 68.6455H80.3388C79.1867 68.6455 77.4668 69.6907 76.3476 70.7276L71.5499 75.5252L69.8053 73.7806L74.6359 68.95C76.0267 67.6498 78.3309 66.1768 80.3388 66.1768H86.3709C87.6793 66.1768 88.8396 67.0655 89.8601 67.8473C90.2057 68.1106 90.7159 68.4974 90.9381 68.5962H97.2417C100.426 68.5962 102.097 70.7358 102.097 72.8507C102.097 73.9863 101.636 75.0397 100.805 75.8297C100.18 76.3975 99.0604 77.097 97.2417 77.097Z" fill="white"/>
<path d="M83.6305 85.8535L80.3635 82.5865L72.4305 74.6535L70.6776 72.9089L69.1387 71.37C68.6614 70.8845 67.8797 70.8845 67.3941 71.37L61.3621 77.4021C60.8765 77.8876 60.8765 78.6694 61.3621 79.1467L75.8456 93.6384C76.0843 93.8771 76.4052 94.0005 76.7179 94.0005C77.0306 94.0005 77.3516 93.8771 77.5902 93.6384L83.6305 87.5982C84.1078 87.1209 84.1078 86.3391 83.6305 85.8535ZM76.7179 91.0133L63.979 78.2744L68.2664 73.9869L81.0054 86.7258L76.7179 91.0133Z" fill="white"/>
<path d="M69.141 77.3976L67.3956 79.1436L69.8108 81.5581L71.5562 79.8121L69.141 77.3976Z" fill="white"/>
<path d="M99.5706 46.4915C99.3567 46.8372 99.1674 47.2157 99.011 47.6189C98.9617 47.5778 98.9041 47.5366 98.8547 47.4955C98.6901 47.3803 98.5337 47.2568 98.3774 47.1499C98.1634 46.9853 97.9495 46.8289 97.7355 46.6808L99.1674 44.6729C99.4307 44.8621 99.7023 45.0514 99.9574 45.2489C100.081 45.3312 100.196 45.4135 100.311 45.504C100.328 45.5122 100.336 45.5205 100.352 45.5369C100.089 45.792 99.8504 46.0801 99.6365 46.3928C99.6118 46.4257 99.5953 46.4586 99.5706 46.4915Z" fill="white"/>
<path d="M110.549 62.5235V62.5565C110.549 63.2313 110.483 63.9061 110.359 64.548L107.94 64.0871C107.973 63.9143 107.997 63.7497 108.014 63.5769C108.055 63.2477 108.08 62.9021 108.08 62.5565C108.08 60.0301 107.38 57.5366 105.989 55.1501C105.965 55.0925 105.94 55.0514 105.915 55.0102C106.105 54.9608 106.294 54.895 106.475 54.8209C106.673 54.7386 106.87 54.6399 107.059 54.5329C107.43 54.3354 107.775 54.0885 108.08 53.8252C108.096 53.8663 108.121 53.9075 108.146 53.9486C109.726 56.6725 110.54 59.561 110.549 62.5235Z" fill="white"/>
<path d="M82.0423 68.135C80.8984 66.5549 80.3141 64.6787 80.3141 62.5555C80.3141 56.0708 84.2559 49.8906 91.7034 44.665L93.1189 46.6894C86.2639 51.4953 82.7829 56.8362 82.7829 62.5555C82.7829 64.152 83.2026 65.5345 84.0337 66.6866L82.0423 68.135Z" fill="white"/>
<path d="M102.188 37.1521L100.789 37.2097C100.081 37.2426 98.7806 37.3085 95.7358 36.5349C93.8101 36.0494 89.8189 35.0372 87.9756 38.3454C87.6053 39.0119 87.5147 39.1683 90.8065 45.3156C90.971 45.6201 91.1439 45.941 91.3249 46.2702L91.4154 46.4101C91.6458 46.731 92.0408 46.9614 92.4935 47.1342C93.7361 47.6115 95.4066 47.6445 95.4313 47.6445C95.5301 47.6445 97.1677 47.6362 98.3774 47.1507C98.8465 46.9614 99.2497 46.7063 99.4801 46.3525L99.5871 46.155C99.7188 45.8422 99.8422 45.546 99.9574 45.2497C101.537 41.4231 102.311 39.1025 102.262 38.3536L102.188 37.1521ZM95.4313 45.1757C94.8306 45.1757 93.7855 44.9946 93.3575 44.8383C92.1561 42.5999 90.8887 40.1558 90.4279 39.1272C91.1685 38.3042 92.5017 38.2631 95.1268 38.9296C97.1183 39.4316 98.4926 39.6127 99.4472 39.6703C99.0028 40.9787 98.2046 43.0361 97.4475 44.8712C97.0113 45.0193 96.0403 45.1757 95.4313 45.1757Z" fill="white"/>
<path d="M99.0687 53.981C99.1098 53.874 99.0687 53.8164 98.9534 53.8164H97.357C97.25 53.8164 97.1759 53.874 97.143 53.981L95.2338 58.5482H95.1844L93.2506 53.981C93.2176 53.874 93.1436 53.8164 93.0366 53.8164H91.4237C91.3084 53.8164 91.2673 53.874 91.3084 53.981L93.7937 59.2724V59.3053H92.1643C92.0573 59.3053 91.9997 59.3547 91.9997 59.4699V60.4245C91.9997 60.5315 92.0573 60.5891 92.1643 60.5891H94.1722C94.2381 60.5891 94.271 60.622 94.271 60.6879V61.3544C94.271 61.4203 94.2381 61.4532 94.1722 61.4532H92.1643C92.0573 61.4532 91.9997 61.5108 91.9997 61.6178V62.5724C91.9997 62.6876 92.0573 62.737 92.1643 62.737H94.1722C94.2381 62.737 94.271 62.7699 94.271 62.8357V64.8272C94.271 64.9342 94.3204 64.9918 94.4356 64.9918H95.9415C96.0567 64.9918 96.1061 64.9342 96.1061 64.8272V62.8357C96.1061 62.7699 96.139 62.737 96.2049 62.737H98.1964C98.3033 62.737 98.3609 62.6876 98.3609 62.5724V61.6178C98.3609 61.5108 98.3033 61.4532 98.1964 61.4532H96.2049C96.139 61.4532 96.1061 61.4203 96.1061 61.3544V60.6879C96.1061 60.622 96.139 60.5891 96.2049 60.5891H98.1964C98.3033 60.5891 98.3609 60.5315 98.3609 60.4245V59.4699C98.3609 59.3547 98.3033 59.3053 98.1964 59.3053H96.5834V59.2724L99.0687 53.981Z" fill="white"/>
<path d="M118.595 47.4625C118.214 46.5576 117.579 45.7876 116.762 45.2319C116.349 44.9541 115.904 44.7398 115.436 44.5969C114.96 44.4461 114.452 44.3667 113.928 44.3667C113.269 44.3667 112.626 44.4937 112.023 44.7398C111.991 44.7557 111.959 44.7636 111.935 44.7795C111.919 44.7874 111.896 44.7954 111.88 44.8033C111.356 45.0335 110.88 45.351 110.443 45.7558C110.308 45.8828 110.181 46.0178 110.062 46.1607C109.871 46.3829 109.665 46.6449 109.403 46.9862L109.268 47.1608C109.149 47.3275 108.03 48.9627 107.831 49.2564C107.752 49.3755 107.665 49.5025 107.57 49.6374L107.403 49.8756C107.212 50.1534 106.974 50.463 106.752 50.7567C106.649 50.8916 106.546 51.0186 106.45 51.1218C106.363 51.225 106.284 51.3044 106.228 51.352C105.99 51.5822 105.712 51.7568 105.403 51.8838C105.085 52.0108 104.752 52.0743 104.41 52.0743C104.172 52.0743 103.942 52.0426 103.712 51.9791C103.672 51.9711 103.632 51.9553 103.585 51.9394C103.513 51.9156 103.45 51.8918 103.378 51.86C102.902 51.6616 102.497 51.3282 102.211 50.8995C102.069 50.6852 101.95 50.4471 101.878 50.209C101.799 49.9391 101.759 49.6851 101.759 49.4231C101.759 49.0659 101.83 48.7246 101.965 48.3912C102.164 47.9229 102.497 47.518 102.926 47.2243C103.132 47.0814 103.37 46.9703 103.616 46.8909C103.878 46.8116 104.14 46.7719 104.394 46.7719C104.744 46.7719 105.077 46.8433 105.387 46.9624C105.696 47.0894 105.974 47.272 106.212 47.4942C106.268 47.5498 106.347 47.6371 106.434 47.7324C106.585 47.9149 106.776 48.1531 106.982 48.415C107.022 48.4626 107.054 48.5103 107.093 48.5579C107.395 48.1134 108.34 46.7322 108.467 46.5576L108.538 46.4544C108.451 46.3432 108.363 46.2321 108.268 46.1368C108.125 45.9702 108.006 45.8431 107.887 45.7241C107.427 45.2875 106.895 44.9541 106.315 44.708C105.712 44.462 105.069 44.335 104.41 44.335C103.728 44.335 103.061 44.4699 102.434 44.7319C101.529 45.1129 100.759 45.7479 100.203 46.5655C99.9254 46.9703 99.719 47.4148 99.5603 47.8911C99.4094 48.3833 99.338 48.8833 99.338 49.3993C99.338 50.0819 99.4729 50.7487 99.7349 51.3758C100.116 52.2807 100.751 53.0507 101.569 53.6063C101.981 53.8762 102.426 54.0985 102.902 54.2414C103.386 54.3922 103.894 54.4716 104.41 54.4716C105.069 54.4716 105.712 54.3446 106.315 54.0985C106.855 53.8762 107.347 53.5667 107.792 53.1698C107.824 53.1459 107.855 53.1142 107.887 53.0824C108.022 52.9634 108.141 52.8284 108.276 52.6697C108.467 52.4474 108.673 52.1855 108.935 51.8441L109.07 51.6695C109.149 51.5663 109.768 50.6535 110.268 49.9232C110.554 49.4945 110.8 49.1453 110.848 49.0818L110.935 48.9548C111.149 48.6452 111.38 48.3356 111.586 48.0737C111.689 47.9387 111.792 47.8117 111.888 47.7085C111.975 47.6053 112.054 47.526 112.11 47.4783C112.348 47.2561 112.626 47.0735 112.928 46.9465C113.007 46.9148 113.078 46.8909 113.15 46.8671C113.221 46.8433 113.293 46.8274 113.372 46.8116C113.547 46.7719 113.729 46.756 113.92 46.756C114.285 46.756 114.634 46.8274 114.952 46.9624C115.428 47.1608 115.833 47.4942 116.119 47.9229C116.269 48.1372 116.381 48.3753 116.452 48.6134C116.531 48.8675 116.571 49.1294 116.571 49.3993C116.571 49.7565 116.5 50.0978 116.365 50.4312C116.158 50.9075 115.833 51.3123 115.404 51.5981C115.182 51.7489 114.952 51.86 114.714 51.9315C114.46 52.0108 114.19 52.0505 113.928 52.0505C113.586 52.0505 113.253 51.987 112.936 51.86C112.634 51.733 112.356 51.5584 112.11 51.3361C112.054 51.2806 111.975 51.1932 111.888 51.098C111.745 50.9313 111.57 50.709 111.34 50.4074C111.308 50.3677 111.276 50.3201 111.245 50.2725C111.181 50.3677 111.118 50.463 111.046 50.5662C110.276 51.6854 109.951 52.1696 109.879 52.2728L109.8 52.3839C109.895 52.495 109.975 52.5982 110.062 52.6935C110.197 52.8602 110.324 52.9951 110.451 53.1063C110.911 53.5428 111.443 53.8762 112.023 54.1223C112.626 54.3684 113.269 54.4954 113.928 54.4954C114.61 54.4954 115.277 54.3604 115.904 54.0985C116.809 53.7175 117.579 53.0824 118.135 52.2648C118.413 51.8441 118.627 51.3996 118.77 50.9392C118.921 50.455 119 49.947 119 49.431C118.992 48.7484 118.865 48.0816 118.595 47.4625Z" fill="white"/>
<g clip-path="url(#clip1)">
<path d="M74.572 52.8859L74.3649 52.6787" stroke="white" stroke-width="1.87821" stroke-miterlimit="10" stroke-linecap="round" stroke-linejoin="round"/>
<path d="M77.4306 55.7448L77.2317 55.5459" stroke="white" stroke-width="1.87821" stroke-miterlimit="10" stroke-linecap="round" stroke-linejoin="round"/>
<path d="M74.572 55.5459L74.3649 55.7448" stroke="white" stroke-width="1.87821" stroke-miterlimit="10" stroke-linecap="round" stroke-linejoin="round"/>
<path d="M77.4306 52.6787L77.2317 52.8859" stroke="white" stroke-width="1.87821" stroke-miterlimit="10" stroke-linecap="round" stroke-linejoin="round"/>
</g>
<g clip-path="url(#clip2)">
<path d="M107.715 82.715L107.508 82.5078" stroke="white" stroke-width="1.87821" stroke-miterlimit="10" stroke-linecap="round" stroke-linejoin="round"/>
<path d="M110.573 85.5729L110.375 85.374" stroke="white" stroke-width="1.87821" stroke-miterlimit="10" stroke-linecap="round" stroke-linejoin="round"/>
<path d="M107.715 85.374L107.508 85.5729" stroke="white" stroke-width="1.87821" stroke-miterlimit="10" stroke-linecap="round" stroke-linejoin="round"/>
<path d="M110.573 82.5078L110.375 82.715" stroke="white" stroke-width="1.87821" stroke-miterlimit="10" stroke-linecap="round" stroke-linejoin="round"/>
</g>
<g clip-path="url(#clip3)">
<path d="M62.1434 59.5148L61.9363 59.3076" stroke="white" stroke-width="1.87821" stroke-miterlimit="10" stroke-linecap="round" stroke-linejoin="round"/>
<path d="M65.002 62.3737L64.8031 62.1748" stroke="white" stroke-width="1.87821" stroke-miterlimit="10" stroke-linecap="round" stroke-linejoin="round"/>
<path d="M62.1434 62.1748L61.9363 62.3737" stroke="white" stroke-width="1.87821" stroke-miterlimit="10" stroke-linecap="round" stroke-linejoin="round"/>
<path d="M65.002 59.3076L64.8031 59.5148" stroke="white" stroke-width="1.87821" stroke-miterlimit="10" stroke-linecap="round" stroke-linejoin="round"/>
</g>
<g clip-path="url(#clip4)">
<path d="M66.9077 47.6658L67.554 47.0195" stroke="white" stroke-width="1.87821" stroke-miterlimit="10" stroke-linecap="round" stroke-linejoin="round"/>
<path d="M70.3629 44.2107L71.0091 43.5645" stroke="white" stroke-width="1.87821" stroke-miterlimit="10" stroke-linecap="round" stroke-linejoin="round"/>
<path d="M71.0091 47.6658L70.3629 47.0195" stroke="white" stroke-width="1.87821" stroke-miterlimit="10" stroke-linecap="round" stroke-linejoin="round"/>
<path d="M67.554 44.2107L66.9077 43.5645" stroke="white" stroke-width="1.87821" stroke-miterlimit="10" stroke-linecap="round" stroke-linejoin="round"/>
</g>
</g>
<defs>
<clipPath id="clip0">
<path d="M61 36H119V94H61V36Z" fill="white"/>
</clipPath>
<clipPath id="clip1">
<rect x="73.4286" y="51.7432" width="4.93829" height="4.93829" fill="white"/>
</clipPath>
<clipPath id="clip2">
<rect x="106.571" y="81.5713" width="4.93829" height="4.93829" fill="white"/>
</clipPath>
<clipPath id="clip3">
<rect x="61" y="58.3711" width="4.93829" height="4.93829" fill="white"/>
</clipPath>
<clipPath id="clip4">
<rect x="65.9714" y="42.6289" width="5.974" height="5.974" fill="white"/>
</clipPath>
</defs>
</svg>
