<svg width="39" height="39" viewBox="0 0 39 39" fill="none" xmlns="http://www.w3.org/2000/svg">
<path d="M10.25 12H27.75H10.25ZM10.25 22H12.75H10.25ZM17.75 22H20.25H17.75ZM25.25 22H27.75H25.25ZM10.25 29.5H12.75H10.25ZM17.75 29.5H20.25H17.75ZM25.25 29.5H27.75H25.25ZM6.5 37H31.5C32.163 37 32.7989 36.7366 33.2678 36.2678C33.7366 35.7989 34 35.163 34 34.5V4.5C34 3.83696 33.7366 3.20107 33.2678 2.73223C32.7989 2.26339 32.163 2 31.5 2H6.5C5.83696 2 5.20107 2.26339 4.73223 2.73223C4.26339 3.20107 4 3.83696 4 4.5V34.5C4 35.163 4.26339 35.7989 4.73223 36.2678C5.20107 36.7366 5.83696 37 6.5 37Z" stroke="white" stroke-width="2" stroke-linejoin="round"/>
</svg>
