<!-- 01EZTX9M3AWK0ZB16B6KYR56F1 -->

<svg width="275" height="5" viewBox="0 0 275 5" fill="none" xmlns="http://www.w3.org/2000/svg">
<path d="M1 2.5C3.06818 0.5 5.13636 0.5 7.20455 2.5C9.27273 4.5 11.3409 4.5 13.4091 2.5C15.4773 0.5 17.5455 0.5 19.6136 2.5C21.6818 4.5 23.75 4.5 25.8182 2.5C27.8864 0.5 29.9545 0.5 32.0227 2.5C34.0909 4.5 36.1591 4.5 38.2273 2.5C40.2955 0.5 42.3636 0.5 44.4318 2.5C46.5 4.5 48.5682 4.5 50.6364 2.5C52.7045 0.5 54.7727 0.5 56.8409 2.5C58.9091 4.5 60.9773 4.5 63.0455 2.5C65.1136 0.5 67.1818 0.5 69.25 2.5C71.3182 4.5 73.3864 4.5 75.4545 2.5C77.5227 0.5 79.5909 0.5 81.6591 2.5C83.7273 4.5 85.7955 4.5 87.8636 2.5C89.9318 0.5 92 0.5 94.0682 2.5C96.1364 4.5 98.2045 4.5 100.273 2.5C102.341 0.5 104.409 0.5 106.477 2.5C108.545 4.5 110.614 4.5 112.682 2.5C114.75 0.5 116.818 0.5 118.886 2.5C120.955 4.5 123.023 4.5 125.091 2.5C127.159 0.5 129.227 0.5 131.295 2.5C133.364 4.5 135.432 4.5 137.5 2.5C139.568 0.5 141.636 0.5 143.705 2.5C145.773 4.5 147.841 4.5 149.909 2.5C151.977 0.5 154.045 0.5 156.114 2.5C158.182 4.5 160.25 4.5 162.318 2.5C164.386 0.5 166.455 0.5 168.523 2.5C170.591 4.5 172.659 4.5 174.727 2.5C176.795 0.5 178.864 0.5 180.932 2.5C183 4.5 185.068 4.5 187.136 2.5C189.205 0.5 191.273 0.5 193.341 2.5C195.409 4.5 197.477 4.5 199.545 2.5C201.614 0.5 203.682 0.5 205.75 2.5C207.818 4.5 209.886 4.5 211.955 2.5C214.023 0.5 216.091 0.5 218.159 2.5C220.227 4.5 222.295 4.5 224.364 2.5C226.432 0.5 228.5 0.5 230.568 2.5C232.636 4.5 234.705 4.5 236.773 2.5C238.841 0.5 240.909 0.5 242.977 2.5C245.045 4.5 247.114 4.5 249.182 2.5C251.25 0.5 253.318 0.5 255.386 2.5C257.455 4.5 259.523 4.5 261.591 2.5C263.659 0.5 265.727 0.5 267.795 2.5C269.864 4.5 271.932 4.5 274 2.5" stroke="white" stroke-linecap="round"/>
</svg>
