<!-- 01EZTX9M3AWK0ZB16B6KYR56F1 -->

<svg width="321" height="188" viewBox="0 0 321 188" fill="none" xmlns="http://www.w3.org/2000/svg">
<path d="M311.677 83.562C311.355 83.378 311.24 83.286 310.849 83.033C308.365 81.285 306.571 80.388 304.547 79.79C304.524 79.238 304.524 79.238 304.455 77.007C305.352 76.961 305.697 76.938 306.019 76.915C307.744 76.754 308.779 76.639 309.124 76.593C309.653 76.524 310.228 76.455 310.619 76.432L310.55 73.902C309.515 74.178 309.147 74.224 307.698 74.408C305.582 74.638 305.582 74.638 304.432 74.707C304.409 73.281 304.409 73.005 304.386 72.43C306.41 72.315 307.307 72.246 309.331 71.97C310.642 71.786 310.642 71.786 311.148 71.763L311.033 69.21C309.538 69.647 307.537 69.9 304.409 70.084C304.432 68.198 304.455 67.899 304.57 67.278H301.649C301.741 67.853 301.741 67.876 301.764 70.176C301.189 70.199 300.407 70.222 300.039 70.222C297.394 70.222 295.025 70.038 293.852 69.739L293.829 72.292C293.99 72.292 294.105 72.292 294.197 72.292C294.266 72.292 294.45 72.292 294.703 72.315C296.244 72.43 299.211 72.545 300.338 72.545C300.683 72.545 301.051 72.545 301.787 72.522C301.81 73.833 301.81 74.615 301.81 74.822C301.166 74.845 300.384 74.868 299.924 74.868C297.739 74.868 295.554 74.707 294.565 74.477L294.519 76.961C294.864 76.961 295.094 76.961 295.393 76.984C297.302 77.122 298.153 77.145 299.556 77.145C300.039 77.145 300.752 77.122 301.856 77.099C301.879 78.019 301.879 78.019 301.902 78.341C301.902 78.571 301.902 78.732 301.902 78.847C301.925 79.123 301.925 79.123 301.925 79.399C301.327 79.33 300.936 79.307 300.384 79.307C296.52 79.307 294.243 80.779 294.243 83.286C294.243 85.563 296.175 86.874 299.533 86.874C301.212 86.874 302.454 86.552 303.328 85.885C304.202 85.218 304.616 84.229 304.616 82.78C304.616 82.734 304.616 82.642 304.616 82.527C305.168 82.757 305.352 82.826 305.858 83.102C307.514 83.953 309.101 85.126 310.113 86.253L311.677 83.562ZM301.971 81.791C301.971 81.791 301.971 82.251 301.971 82.343C301.971 83.033 301.879 83.516 301.695 83.815C301.373 84.275 300.66 84.551 299.694 84.551C298.061 84.551 297.072 84.022 297.072 83.171C297.072 82.182 298.199 81.584 300.062 81.584C300.752 81.584 301.212 81.63 301.971 81.791ZM292.863 97.959C293.576 97.798 294.634 97.66 296.681 97.499C301.143 97.177 302.569 97.039 304.432 96.763C302.937 97.522 302.109 98.143 301.235 99.086C299.832 100.604 299.05 102.536 299.05 104.491C299.05 106.883 300.223 108.838 302.339 110.034C303.742 110.816 305.191 111.23 307.721 111.552C308.158 111.621 308.204 111.621 308.503 111.69L308.917 108.562C308.687 108.585 308.48 108.585 308.457 108.585C307.629 108.585 306.157 108.332 305.03 107.987C303.098 107.412 301.971 106.032 301.971 104.238C301.971 101.915 303.696 99.615 306.617 98.097C308.089 97.315 309.791 96.855 311.171 96.855C311.401 96.855 311.401 96.855 311.654 96.878L311.493 93.957C311.125 94.049 311.01 94.049 309.124 94.141C302.983 94.44 299.05 94.647 297.371 94.739C293.99 94.969 293.99 94.969 293.576 94.969C293.461 94.969 293.208 94.969 292.702 94.946L292.863 97.959ZM306.939 100.167C307.951 101.271 308.595 102.191 309.354 103.594L310.964 102.743C310.182 101.317 309.561 100.443 308.549 99.362L306.939 100.167ZM313.701 101.248C312.988 99.937 312.344 99.063 311.309 98.005L309.768 98.81C310.665 99.799 311.424 100.88 312.114 102.145L313.701 101.248Z" fill="#00655A"/>
<circle cx="32.5" cy="32.5" r="32.5" fill="#FCEC62"/>
<path d="M27.28 26.2358H19.648V25.4978H27.28V26.2358ZM27.28 28.2878H19.648V27.5318H27.28V28.2878ZM29.422 24.1298H17.596V29.6558H29.422V24.1298ZM28.396 34.3178C28.072 34.9658 27.658 35.5598 27.172 36.0818C26.686 35.5598 26.272 34.9658 25.966 34.3178H28.396ZM18.856 36.4598H21.196V37.1618C20.404 37.2338 19.612 37.2878 18.856 37.3418V36.4598ZM18.856 34.2278H21.196V34.9838H18.856V34.2278ZM21.196 32.0138V32.7338H18.856V32.0138H21.196ZM29.656 32.6078L29.296 32.6798H23.698V34.3178H25.354L24.166 34.6418C24.598 35.6318 25.156 36.5318 25.804 37.3058C25.048 37.8638 24.166 38.2958 23.248 38.6018V32.0138H31.492V30.3218H15.49V32.0138H16.894V37.4858C16.336 37.5398 15.796 37.5578 15.328 37.5938L15.49 39.4298C17.074 39.2858 19.126 39.1058 21.196 38.9078V40.3658H23.248V38.9078C23.608 39.3398 24.004 39.9338 24.202 40.3478C25.318 39.9338 26.344 39.3758 27.262 38.6738C28.216 39.4118 29.332 39.9698 30.61 40.3478C30.898 39.8438 31.456 39.0698 31.87 38.6738C30.682 38.3858 29.602 37.9358 28.702 37.3418C29.71 36.2078 30.484 34.8038 30.97 33.1118L29.656 32.6078ZM49.492 30.5918V28.3778H42.418C42.598 26.7038 42.616 25.0478 42.634 23.5718H40.294C40.276 25.0478 40.294 26.6858 40.114 28.3778H33.562V30.5918H39.754C39.052 33.6878 37.342 36.6758 33.22 38.5118C33.85 38.9618 34.48 39.7358 34.822 40.3298C38.638 38.4938 40.582 35.6858 41.554 32.6798C42.958 36.1538 45.046 38.7818 48.304 40.3118C48.646 39.6998 49.348 38.7458 49.888 38.2958C46.522 36.9278 44.344 34.1018 43.156 30.5918H49.492Z" fill="black"/>
<path d="M189.6 70.52C189.54 75.38 189.42 77.36 189 80.48C188.1 87.92 186 93.86 182.52 98.66C180 102.2 177.6 104.36 172.74 107.36C175.5 109.88 177.18 112.04 179.28 115.52C185.46 111.38 188.88 107.78 192.36 101.78C195.06 97.04 196.74 92.24 197.82 86.06H213.78C213.54 95.06 212.64 102.14 211.56 104.3C210.9 105.5 209.76 105.98 207.48 105.98C205.32 105.98 201.54 105.56 198.3 104.96C199.56 107.9 200.16 110.36 200.52 114.14C203.7 114.38 205.8 114.5 207.72 114.5C215.64 114.5 218.46 113.12 220.32 108.26C221.7 104.6 222.84 95.96 223.14 86.06C223.38 78.92 223.38 78.92 223.62 77.3C221.4 77.54 219.06 77.6 215.22 77.6H198.84C199.02 75.5 199.08 74 199.2 70.52H219.9C222.9 70.52 226.02 70.64 228.72 70.88V61.16C225.9 61.4 223.14 61.52 219.78 61.52H182.88C179.4 61.52 176.52 61.4 173.88 61.16V70.88C176.58 70.64 179.82 70.52 182.94 70.52H189.6ZM244.8 93.62H277.5V104.72C277.5 105.8 277.02 106.04 274.68 106.04C272.88 106.04 270.18 105.86 266.22 105.5C267.78 108.86 268.44 111.02 268.98 114.38C271.8 114.44 274.26 114.5 275.88 114.5C279 114.5 281.28 114.32 282.6 113.9C285.3 113.12 286.74 110.84 286.74 107.36V68.6C286.74 64.7 286.8 62.84 287.04 61.04C285.42 61.22 283.5 61.28 279.48 61.28H243.12C239.22 61.28 237.48 61.22 235.26 61.04C235.44 62.84 235.5 64.46 235.5 67.22V107.12C235.5 110.36 235.38 112.64 235.08 114.98H245.1C244.86 113.42 244.8 111.38 244.8 107.42V93.62ZM256.32 85.1H244.8V69.98H256.32V85.1ZM265.38 85.1V69.98H277.5V85.1H265.38Z" fill="#00655A"/>
<path d="M44.9023 125H26.748V67.207L8.91602 72.417V58.667L43.2373 46.7969H44.9023V125ZM112.052 125H57.4814V113.184L82.6182 86.7578C88.8128 79.7038 91.9102 74.0999 91.9102 69.9463C91.9102 66.5804 91.1761 64.0202 89.708 62.2656C88.2399 60.5111 86.1094 59.6338 83.3164 59.6338C80.5592 59.6338 78.3213 60.8154 76.6025 63.1787C74.8838 65.5062 74.0244 68.4245 74.0244 71.9336H55.8701C55.8701 67.1354 57.0697 62.7132 59.4688 58.667C61.8678 54.585 65.1979 51.3981 69.459 49.1064C73.7201 46.8148 78.4824 45.6689 83.7461 45.6689C92.1966 45.6689 98.6956 47.6204 103.243 51.5234C107.826 55.4264 110.118 61.0303 110.118 68.335C110.118 71.4144 109.545 74.4222 108.399 77.3584C107.254 80.2588 105.463 83.3203 103.028 86.543C100.629 89.7298 96.7441 94.0088 91.373 99.3799L81.2754 111.035H112.052V125ZM171.084 93.042C171.084 103.605 168.703 111.751 163.941 117.48C159.214 123.21 152.536 126.074 143.907 126.074C135.205 126.074 128.474 123.192 123.711 117.427C118.949 111.662 116.568 103.534 116.568 93.042V78.7549C116.568 68.1917 118.931 60.0456 123.658 54.3164C128.42 48.5872 135.134 45.7227 143.799 45.7227C152.465 45.7227 159.178 48.6051 163.941 54.3701C168.703 60.1351 171.084 68.2812 171.084 78.8086V93.042ZM152.984 76.4453C152.984 70.8236 152.25 66.6341 150.782 63.877C149.314 61.084 146.986 59.6875 143.799 59.6875C140.684 59.6875 138.41 60.9766 136.978 63.5547C135.581 66.1328 134.829 70.0358 134.722 75.2637V95.2441C134.722 101.081 135.456 105.36 136.924 108.081C138.392 110.767 140.72 112.109 143.907 112.109C146.986 112.109 149.26 110.802 150.728 108.188C152.196 105.539 152.948 101.403 152.984 95.7812V76.4453Z" fill="#00655A"/>
</svg>
