<!-- 01EZTX9M3AWK0ZB16B6KYR56F1 -->

<svg width="343" height="99" viewBox="0 0 343 99" fill="none" xmlns="http://www.w3.org/2000/svg">
<rect x="176" y="1" width="166" height="97" stroke="white" stroke-width="2"/>
<path d="M216.935 30.385V33.28C216.935 33.61 216.83 33.7 216.38 33.7C215.735 33.7 214.955 33.64 214.205 33.535C214.415 34.06 214.49 34.375 214.565 34.945C215.3 34.99 215.81 35.005 216.305 35.005C217.19 35.005 217.55 34.945 217.85 34.75C218.195 34.525 218.345 34.135 218.345 33.475V23.695C218.345 22.87 218.36 22.495 218.405 22.06C217.895 22.12 217.505 22.135 216.74 22.135H210.74C210.02 22.135 209.615 22.12 209.06 22.06C209.12 22.645 209.135 23.17 209.135 24.46C209.135 28.195 208.985 29.875 208.55 31.315C208.19 32.47 207.74 33.205 206.87 34.075C207.35 34.42 207.665 34.72 208.025 35.215C209.3 33.775 209.915 32.455 210.26 30.385H216.935ZM210.425 29.11C210.5 28.225 210.545 27.37 210.545 26.83H216.935V29.11H210.425ZM210.56 25.555V23.44H216.935V25.555H210.56ZM231.815 25.855C230.885 27.88 230.225 28.96 228.98 30.43C228.2 29.815 227.75 29.485 226.955 28.945L225.905 29.92C227.18 30.79 227.75 31.24 228.74 32.125C229.655 32.95 230.12 33.43 231.065 34.54L232.16 33.505C231.41 32.65 230.96 32.2 230.06 31.375C230.825 30.43 231.17 29.935 231.785 28.93C232.31 28.09 232.865 27.07 233.21 26.335C233.555 25.63 233.6 25.54 233.645 25.45L232.82 24.505C232.505 24.55 231.95 24.58 231.065 24.58H227.72C227.93 24.085 228.035 23.86 228.125 23.605C228.5 22.645 228.545 22.54 228.665 22.315L227.015 21.85C226.94 22.93 226.175 24.7 225.035 26.425C224.18 27.73 223.52 28.48 221.945 29.905C222.455 30.19 222.74 30.415 223.22 30.85C225.035 29.065 225.89 27.955 227.09 25.855H231.815ZM244.52 24.25C245.21 24.295 245.615 24.4 246.125 24.67C247.445 25.375 248.18 26.62 248.18 28.18C248.18 29.995 247.175 31.57 245.57 32.26C244.925 32.53 244.25 32.695 243.08 32.875C243.485 33.4 243.62 33.655 243.845 34.345C244.865 34.15 245.45 33.985 246.155 33.7C248.405 32.77 249.725 30.76 249.725 28.255C249.725 25.015 247.43 22.87 243.935 22.87C241.85 22.87 240.125 23.575 238.895 24.925C237.845 26.08 237.275 27.595 237.275 29.2C237.275 31.48 238.445 33.145 240.035 33.145C241.205 33.145 242.12 32.275 242.99 30.295C243.71 28.675 244.25 26.485 244.52 24.25ZM242.99 24.265C242.795 26.05 242.285 28.15 241.7 29.53C241.115 30.895 240.56 31.555 240.02 31.555C239.3 31.555 238.73 30.52 238.73 29.215C238.73 27.505 239.57 25.9 240.935 24.985C241.58 24.55 242.165 24.355 242.99 24.265ZM259.97 23.86C259.19 24.13 257.93 24.385 257.015 24.46V23.305C257.015 22.54 257.03 22.225 257.105 21.775H255.515C255.59 22.225 255.605 22.645 255.605 23.38V24.565C255.44 24.58 255.41 24.58 255.02 24.595C254.78 24.61 254.615 24.61 254.39 24.61C253.625 24.61 253.07 24.565 252.665 24.49V25.885C252.8 25.87 252.905 25.87 252.965 25.87C253.01 25.87 253.13 25.87 253.325 25.885C253.49 25.885 253.925 25.9 254.165 25.9C254.555 25.9 254.78 25.9 255.02 25.885C255.5 25.855 255.5 25.855 255.62 25.84V28.375C254.645 28.795 254 29.17 253.475 29.62C252.665 30.325 252.23 31.06 252.23 31.75C252.23 32.35 252.5 32.89 252.995 33.325C253.715 33.955 254.78 34.36 255.695 34.36C256.325 34.36 256.805 34.045 256.94 33.55C257 33.28 257.03 32.995 257.03 32.395L257.015 29.32C258.155 28.945 259.085 28.78 259.985 28.78C261.755 28.78 262.895 29.65 262.895 31.015C262.895 32.095 262.175 32.875 261.185 32.875C260.6 32.875 260.21 32.62 260.015 32.125C259.925 31.87 259.865 31.375 259.865 30.835C259.865 30.64 259.865 30.535 259.895 30.25C259.355 30.55 259.145 30.625 258.5 30.805C258.5 31.645 258.56 32.125 258.725 32.635C259.07 33.715 259.925 34.315 261.125 34.315C262.985 34.315 264.395 32.89 264.395 31.015C264.395 29.875 263.84 28.855 262.85 28.21C262.13 27.745 261.2 27.505 260.06 27.505C259.07 27.505 258.08 27.655 257.015 27.97V25.765C257.72 25.69 258.215 25.615 259.1 25.435C259.58 25.345 259.655 25.33 260.03 25.285L259.97 23.86ZM255.62 32.23C255.62 32.785 255.56 32.92 255.29 32.92C254.96 32.92 254.525 32.77 254.18 32.545C253.805 32.305 253.625 32.05 253.625 31.765C253.625 31.165 254.33 30.445 255.62 29.785V32.23ZM265.04 25.9C264.215 24.73 263.39 23.92 262.055 22.915L260.9 23.71C262.055 24.55 263.15 25.69 263.915 26.83L265.04 25.9ZM272.72 23.47H268.73C268.025 23.47 267.485 23.44 267.02 23.365V24.835C267.485 24.775 268.01 24.745 268.73 24.745H272.72V26.86H269.81C269.075 26.86 268.505 26.83 268.085 26.77V28.15C268.55 28.09 268.925 28.075 269.63 28.06C270.485 29.695 271.175 30.58 272.51 31.705C270.815 32.71 269.045 33.325 266.81 33.67C267.155 34.18 267.32 34.495 267.515 35.02C269.915 34.525 271.715 33.79 273.635 32.545C275.435 33.775 277.055 34.45 279.665 35.065C279.89 34.435 280.055 34.105 280.385 33.625C278.12 33.25 276.41 32.65 274.805 31.675C275.99 30.7 276.92 29.68 277.7 28.495C277.97 28.09 278.15 27.835 278.315 27.64L277.46 26.785C277.16 26.845 276.8 26.86 276.17 26.86H274.145V24.745H278.36C279.08 24.745 279.65 24.775 280.085 24.835V23.365C279.62 23.44 279.08 23.47 278.36 23.47H274.145V22.75C274.145 22.105 274.16 21.805 274.235 21.445H272.63C272.69 21.835 272.72 22.12 272.72 22.75V23.47ZM276.32 28.06C275.51 29.305 274.835 30.04 273.665 30.925C272.465 30.025 271.73 29.185 271.145 28.06H276.32ZM295.445 34.45C294.455 31.495 293.765 29.8 292.64 27.64L291.425 28.15C292.19 29.575 292.67 30.685 293.27 32.365C291.41 32.71 290.15 32.905 288.77 33.04C289.055 32.215 289.43 30.91 289.775 29.56C290.21 27.88 290.54 26.425 291.095 23.62C291.35 22.285 291.35 22.285 291.425 21.955L289.79 21.715C289.775 22.615 289.595 23.92 289.265 25.645C288.74 28.255 288.05 30.865 287.255 33.19C286.52 33.25 286.505 33.25 286.31 33.25C286.25 33.25 286.19 33.25 286.085 33.235L286.385 34.78C286.625 34.72 286.7 34.705 287.285 34.63C290.99 34.09 291.305 34.03 293.645 33.55C293.78 34 293.84 34.21 294.08 35.05L295.445 34.45ZM285.425 24.385V23.05C285.425 22.42 285.455 22 285.515 21.55H284C284.06 22.03 284.09 22.435 284.09 23.065V24.385H283.19C282.725 24.385 282.41 24.355 282.005 24.295V25.66C282.365 25.615 282.77 25.585 283.19 25.585H284.09V28.6C282.695 29.005 282.38 29.08 281.81 29.14L282.095 30.565C282.305 30.49 282.515 30.415 282.905 30.295C283.355 30.16 283.685 30.04 284.09 29.92V33.4C284.09 33.745 283.985 33.835 283.61 33.835C283.13 33.835 282.56 33.79 282.005 33.7C282.2 34.27 282.26 34.525 282.305 35.05C282.815 35.095 283.205 35.11 283.535 35.11C284.975 35.11 285.425 34.81 285.425 33.85V29.44C285.95 29.245 285.95 29.245 287.27 28.735L287.21 27.52C286.295 27.865 285.995 27.985 285.425 28.18V25.585H286.16C286.535 25.585 286.925 25.6 287.3 25.645V24.325C286.895 24.37 286.64 24.385 286.16 24.385H285.425ZM297.77 23.125C297.8 23.44 297.815 23.53 297.815 24.04C297.89 27.685 298.1 29.68 298.595 31.21C299.12 32.815 300.02 33.775 301.01 33.775C302.21 33.775 302.99 32.65 303.755 29.845C303.14 29.38 302.945 29.2 302.51 28.69C302.33 29.71 302.075 30.55 301.73 31.345C301.52 31.795 301.295 32.035 301.055 32.035C300.53 32.035 300.005 31.045 299.705 29.485C299.525 28.54 299.39 26.65 299.39 25.12C299.39 24.235 299.42 23.665 299.51 23.125H297.77ZM305.345 24.49C306.245 25.57 306.95 26.725 307.46 28.045C308 29.38 308.345 30.88 308.45 32.26L309.995 31.66C309.53 28.435 308.54 26.11 306.65 23.845L305.345 24.49Z" fill="white"/>
<path d="M216.718 67.052C216.718 65.66 217.018 64.472 217.618 63.488C218.218 62.48 218.938 61.712 219.778 61.184V61.112C219.154 60.704 218.578 60.068 218.05 59.204C217.522 58.34 217.258 57.308 217.258 56.108C217.258 55.196 217.414 54.32 217.726 53.48C218.062 52.64 218.542 51.896 219.166 51.248C219.79 50.6 220.558 50.084 221.47 49.7C222.382 49.316 223.426 49.124 224.602 49.124C225.778 49.124 226.822 49.316 227.734 49.7C228.67 50.084 229.45 50.6 230.074 51.248C230.698 51.896 231.166 52.64 231.478 53.48C231.814 54.32 231.982 55.196 231.982 56.108C231.982 57.308 231.718 58.34 231.19 59.204C230.662 60.068 230.086 60.704 229.462 61.112V61.184C230.302 61.712 231.022 62.48 231.622 63.488C232.222 64.472 232.522 65.66 232.522 67.052C232.522 68.132 232.33 69.128 231.946 70.04C231.562 70.928 231.01 71.696 230.29 72.344C229.594 72.992 228.754 73.496 227.77 73.856C226.81 74.216 225.754 74.396 224.602 74.396C223.45 74.396 222.394 74.216 221.434 73.856C220.474 73.496 219.634 72.992 218.914 72.344C218.218 71.696 217.678 70.928 217.294 70.04C216.91 69.128 216.718 68.132 216.718 67.052ZM224.602 59.348C225.61 59.348 226.414 59.024 227.014 58.376C227.614 57.704 227.914 56.924 227.914 56.036C227.914 55.124 227.614 54.344 227.014 53.696C226.414 53.048 225.61 52.724 224.602 52.724C223.594 52.724 222.79 53.048 222.19 53.696C221.614 54.344 221.326 55.124 221.326 56.036C221.326 56.924 221.614 57.704 222.19 58.376C222.79 59.024 223.594 59.348 224.602 59.348ZM220.786 66.872C220.786 68.024 221.134 68.972 221.83 69.716C222.526 70.436 223.45 70.796 224.602 70.796C225.778 70.796 226.714 70.436 227.41 69.716C228.106 68.972 228.454 68.024 228.454 66.872C228.454 65.72 228.106 64.784 227.41 64.064C226.714 63.32 225.778 62.948 224.602 62.948C223.45 62.948 222.526 63.32 221.83 64.064C221.134 64.784 220.786 65.72 220.786 66.872ZM236.692 69.14C236.644 68.9 236.74 68.744 236.98 68.672L240.112 67.952C240.328 67.904 240.472 67.988 240.544 68.204C240.808 68.924 241.24 69.536 241.84 70.04C242.44 70.544 243.244 70.796 244.252 70.796C245.404 70.796 246.292 70.46 246.916 69.788C247.54 69.092 247.852 68.216 247.852 67.16C247.852 65.912 247.492 64.94 246.772 64.244C246.052 63.524 245.08 63.164 243.856 63.164H242.812C242.572 63.164 242.452 63.044 242.452 62.804V59.96C242.452 59.72 242.572 59.6 242.812 59.6H243.784C244.864 59.6 245.728 59.276 246.376 58.628C247.024 57.98 247.348 57.116 247.348 56.036C247.348 55.052 247.06 54.26 246.484 53.66C245.908 53.036 245.104 52.724 244.072 52.724C243.16 52.724 242.44 52.952 241.912 53.408C241.384 53.864 241.012 54.476 240.796 55.244C240.724 55.46 240.58 55.544 240.364 55.496L237.304 54.776C237.064 54.728 236.968 54.584 237.016 54.344C237.16 53.6 237.424 52.916 237.808 52.292C238.216 51.644 238.72 51.092 239.32 50.636C239.944 50.156 240.664 49.784 241.48 49.52C242.32 49.256 243.232 49.124 244.216 49.124C245.368 49.124 246.388 49.292 247.276 49.628C248.164 49.964 248.908 50.432 249.508 51.032C250.132 51.632 250.6 52.352 250.912 53.192C251.248 54.008 251.416 54.908 251.416 55.892C251.416 56.924 251.188 57.884 250.732 58.772C250.276 59.636 249.592 60.368 248.68 60.968V61.04C249.04 61.184 249.412 61.436 249.796 61.796C250.18 62.132 250.528 62.552 250.84 63.056C251.152 63.56 251.404 64.148 251.596 64.82C251.812 65.468 251.92 66.188 251.92 66.98C251.92 68.108 251.728 69.128 251.344 70.04C250.96 70.952 250.42 71.732 249.724 72.38C249.052 73.028 248.248 73.532 247.312 73.892C246.376 74.228 245.356 74.396 244.252 74.396C242.332 74.396 240.688 73.94 239.32 73.028C237.952 72.116 237.076 70.82 236.692 69.14ZM257.17 69.608C257.098 69.368 257.026 69.092 256.954 68.78C256.882 68.444 256.822 68 256.774 67.448C256.75 66.872 256.726 66.14 256.702 65.252C256.678 64.34 256.666 63.176 256.666 61.76C256.666 60.344 256.678 59.192 256.702 58.304C256.726 57.392 256.75 56.66 256.774 56.108C256.822 55.532 256.882 55.088 256.954 54.776C257.026 54.464 257.098 54.176 257.17 53.912C257.65 52.376 258.466 51.2 259.618 50.384C260.794 49.544 262.294 49.124 264.118 49.124C265.942 49.124 267.43 49.544 268.582 50.384C269.758 51.2 270.598 52.376 271.102 53.912C271.174 54.176 271.246 54.464 271.318 54.776C271.39 55.088 271.438 55.532 271.462 56.108C271.51 56.66 271.546 57.392 271.57 58.304C271.594 59.192 271.606 60.344 271.606 61.76C271.606 63.176 271.594 64.34 271.57 65.252C271.546 66.14 271.51 66.872 271.462 67.448C271.438 68 271.39 68.444 271.318 68.78C271.246 69.092 271.174 69.368 271.102 69.608C270.598 71.144 269.758 72.332 268.582 73.172C267.43 73.988 265.942 74.396 264.118 74.396C262.294 74.396 260.794 73.988 259.618 73.172C258.466 72.332 257.65 71.144 257.17 69.608ZM261.13 68.852C261.586 70.148 262.582 70.796 264.118 70.796C265.654 70.796 266.662 70.148 267.142 68.852C267.214 68.66 267.262 68.444 267.286 68.204C267.334 67.964 267.37 67.592 267.394 67.088C267.418 66.584 267.43 65.912 267.43 65.072C267.454 64.232 267.466 63.128 267.466 61.76C267.466 60.392 267.454 59.288 267.43 58.448C267.43 57.608 267.418 56.936 267.394 56.432C267.37 55.928 267.334 55.556 267.286 55.316C267.262 55.076 267.214 54.86 267.142 54.668C266.662 53.372 265.654 52.724 264.118 52.724C262.582 52.724 261.586 53.372 261.13 54.668C261.058 54.86 260.998 55.076 260.95 55.316C260.926 55.556 260.902 55.928 260.878 56.432C260.854 56.936 260.83 57.608 260.806 58.448C260.806 59.288 260.806 60.392 260.806 61.76C260.806 63.128 260.806 64.232 260.806 65.072C260.83 65.912 260.854 66.584 260.878 67.088C260.902 67.592 260.926 67.964 260.95 68.204C260.998 68.444 261.058 68.66 261.13 68.852Z" fill="#FCEC62"/>
<path d="M278.27 68.62H286.82V71.86C286.82 72.16 286.7 72.22 286.07 72.22C285.68 72.22 284.81 72.16 283.925 72.07C284.24 72.79 284.39 73.27 284.495 73.975C285.17 74.005 285.86 74.02 286.355 74.02C287.255 74.02 287.78 73.96 288.095 73.795C288.56 73.57 288.8 73.09 288.8 72.325V62.665C288.8 61.765 288.815 61.36 288.86 60.91C288.455 60.955 288.02 60.97 287.105 60.97H278C277.145 60.97 276.725 60.955 276.2 60.91C276.245 61.345 276.26 61.75 276.26 62.41V72.295C276.26 73.105 276.23 73.615 276.155 74.17H278.345C278.285 73.81 278.27 73.3 278.27 72.37V68.62ZM281.465 66.775H278.27V62.845H281.465V66.775ZM283.43 66.775V62.845H286.82V66.775H283.43ZM291.95 68.695C292.835 67.705 293.51 67.345 294.455 67.345C295.19 67.345 295.595 67.495 296.96 68.32C298.07 68.965 298.25 69.07 298.7 69.25C299.21 69.46 299.705 69.55 300.275 69.55C300.98 69.55 301.7 69.385 302.285 69.1C303.065 68.71 303.605 68.215 304.475 67.12L303.05 65.65C302.24 66.715 301.37 67.27 300.515 67.27C299.795 67.27 299.105 67.015 297.95 66.31C296.975 65.71 296.975 65.71 296.6 65.545C295.94 65.23 295.34 65.095 294.665 65.095C293.735 65.095 292.865 65.38 291.995 65.965C291.425 66.355 291.11 66.67 290.54 67.345L291.95 68.695Z" fill="#FCEC62"/>
<path d="M294 55.68L291.168 52.84L290.904 53.104L293.744 55.96L290.904 58.8L291.168 59.064L294 56.248L296.84 59.064L297.096 58.8L294.256 55.96L297.096 53.104L296.84 52.84L294 55.68ZM294.008 53.032C293.672 53.032 293.392 53.304 293.392 53.64C293.392 53.976 293.672 54.256 294.008 54.256C294.344 54.256 294.616 53.984 294.616 53.64C294.616 53.304 294.344 53.032 294.008 53.032ZM291.712 55.344C291.368 55.344 291.096 55.616 291.096 55.952C291.096 56.288 291.376 56.568 291.712 56.568C292.048 56.568 292.32 56.296 292.32 55.952C292.32 55.616 292.048 55.344 291.712 55.344ZM296.288 55.352C295.952 55.352 295.68 55.624 295.68 55.96C295.68 56.296 295.952 56.568 296.288 56.568C296.624 56.568 296.896 56.296 296.896 55.96C296.896 55.624 296.624 55.352 296.288 55.352ZM294 57.672C293.984 57.68 293.984 57.68 293.984 57.68C293.976 57.68 293.976 57.68 293.968 57.672C293.96 57.672 293.952 57.672 293.944 57.672C293.672 57.672 293.384 57.984 293.384 58.288C293.384 58.608 293.68 58.904 294 58.904C294.328 58.904 294.608 58.624 294.608 58.288C294.608 57.944 294.336 57.672 294 57.672ZM298.248 57.432C298.512 57.408 298.752 57.4 299.2 57.4H301.344V58.088C301.344 58.448 301.328 58.672 301.28 58.952H302.008C301.96 58.656 301.944 58.472 301.944 58.088V57.4H302.24C302.584 57.4 302.784 57.416 303.08 57.456V56.792C302.792 56.832 302.584 56.848 302.248 56.848H301.944V54.224C301.944 53.592 301.952 53.344 301.992 52.872H301.392C301.208 53.152 301.064 53.352 300.792 53.688L298.768 56.216C298.6 56.416 298.416 56.64 298.248 56.832V57.432ZM301.352 56.856H298.96L300.8 54.536C301.032 54.24 301.232 53.976 301.4 53.736C301.36 54.144 301.352 54.4 301.352 54.824V56.856Z" fill="white"/>
<rect x="1" y="1" width="166" height="97" stroke="white" stroke-width="2"/>
<path d="M31.565 28.24H28.94C28.295 28.24 27.8 28.21 27.35 28.15V29.575C27.785 29.515 28.34 29.485 28.94 29.485H30.995C30.38 30.325 30.11 30.64 29.48 31.21C28.595 32.005 27.785 32.56 26.765 33.085C27.26 33.61 27.305 33.685 27.65 34.315C28.385 33.88 28.865 33.535 29.555 32.92C30.53 32.08 30.995 31.525 31.61 30.46C31.565 31.315 31.55 31.855 31.55 32.08V33.745C31.55 34.24 31.52 34.72 31.46 35.17H32.975C32.915 34.735 32.885 34.27 32.885 33.76V32.095C32.885 31.675 32.87 31 32.84 30.475C33.47 31.48 33.905 31.99 34.745 32.725C35.33 33.25 35.795 33.58 36.815 34.24C37.13 33.67 37.325 33.37 37.7 32.905C36.695 32.455 36.02 32.02 35.165 31.315C34.445 30.7 34.07 30.325 33.425 29.485H35.72C36.185 29.485 36.725 29.515 37.265 29.575V28.15C36.8 28.21 36.245 28.24 35.69 28.24H32.885V26.845H34.835C35.06 26.845 35.3 26.845 35.57 26.86C35.75 26.86 35.87 26.875 35.915 26.875C36.155 26.875 36.17 26.875 36.35 26.89C36.305 26.5 36.29 26.14 36.29 25.525V23.47C36.29 22.825 36.305 22.51 36.35 22.06C35.93 22.12 35.48 22.135 34.7 22.135H30.065C29.24 22.135 28.835 22.12 28.415 22.06C28.46 22.495 28.475 22.84 28.475 23.41V25.495C28.475 26.095 28.46 26.485 28.415 26.905C28.835 26.86 29.27 26.845 29.96 26.845H31.565V28.24ZM29.78 23.35H34.955V25.63H29.78V23.35ZM25.25 33.4C25.25 34.12 25.22 34.57 25.16 35.17H26.63C26.585 34.6 26.555 34.06 26.555 33.415V25.3C27.095 24.235 27.455 23.365 27.695 22.585C27.845 22.12 27.89 21.985 27.98 21.76L26.555 21.31C26.495 21.805 26.27 22.615 25.985 23.365C25.325 25.045 24.485 26.365 23.285 27.55C23.63 28.105 23.645 28.135 23.975 28.96C24.605 28.27 24.89 27.895 25.295 27.205C25.265 28.015 25.25 28.36 25.25 28.915V33.4ZM46.985 25.99V27.055H45.005C44.255 27.055 44.12 27.055 43.7 27.01C43.745 27.505 43.745 27.58 43.745 28.045V30.145C43.745 30.415 43.745 30.625 43.715 30.925C43.715 30.955 43.715 31.045 43.7 31.12C44.135 31.075 44.495 31.06 45.065 31.06H46.46C45.815 32.575 44.465 33.52 42.305 34C42.695 34.375 42.905 34.675 43.145 35.2C45.44 34.435 46.76 33.4 47.48 31.795C48.32 33.25 49.805 34.405 51.83 35.125C52.07 34.6 52.25 34.3 52.61 33.88C51.44 33.535 50.72 33.22 50 32.74C49.295 32.26 48.755 31.72 48.32 31.06H50.195C50.81 31.06 51.215 31.075 51.62 31.12C51.575 30.565 51.575 30.49 51.575 29.95V28.165C51.575 27.79 51.59 27.595 51.62 27.01C51.245 27.04 50.9 27.055 50.285 27.055H48.215V25.99H49.22C49.82 25.99 50.12 26.005 50.48 26.035V25.285C50.945 25.585 51.32 25.78 52.04 26.125C52.265 25.585 52.475 25.27 52.85 24.85C50.72 24.13 49.235 23.035 48.2 21.445H46.82C46.31 22.33 45.68 23.05 44.78 23.755C44.24 24.175 43.49 24.64 42.89 24.91C42.965 24.76 43.205 24.145 43.625 23.08C43.685 22.93 43.775 22.735 43.85 22.585L43.175 21.835C42.95 21.88 42.695 21.895 42.215 21.895H40.22C39.755 21.895 39.41 21.88 39.125 21.85C39.155 22.315 39.17 22.66 39.17 23.125V33.535C39.17 34.24 39.14 34.69 39.08 35.125H40.565C40.505 34.675 40.49 34.33 40.49 33.55V23.095H42.29C41.855 24.505 41.45 25.54 40.865 26.74C41.405 27.31 41.615 27.61 41.81 28.195C41.99 28.69 42.095 29.305 42.095 29.845C42.095 30.55 41.96 30.7 41.33 30.7C41.18 30.7 40.955 30.67 40.64 30.625C40.85 31.03 40.955 31.375 40.985 31.93C41.105 31.945 41.195 31.945 41.255 31.945C41.84 31.945 42.305 31.87 42.62 31.72C43.1 31.495 43.355 30.955 43.355 30.16C43.355 29.56 43.31 29.08 43.19 28.6C42.995 27.805 42.755 27.355 42.125 26.59C42.425 26.005 42.515 25.84 42.74 25.285C43.04 25.6 43.16 25.765 43.355 26.2C44.045 25.855 44.345 25.675 44.9 25.27V26.035C45.26 26.005 45.575 25.99 46.175 25.99H46.985ZM46.97 28.18C46.94 28.87 46.895 29.275 46.79 29.905H44.915V28.18H46.97ZM50.36 28.18V29.905H48.02C48.11 29.305 48.14 29.005 48.185 28.18H50.36ZM46.175 24.835C45.845 24.835 45.68 24.835 45.47 24.82C46.385 24.055 46.97 23.425 47.57 22.525C48.215 23.44 48.86 24.1 49.835 24.82C49.55 24.835 49.415 24.835 49.22 24.835H46.175ZM59.705 26.86V28.54H56.015C55.31 28.54 54.875 28.51 54.455 28.45V29.86C54.905 29.8 55.385 29.77 56 29.77H59.705V33.385H55.79C55.07 33.385 54.515 33.355 54.005 33.295V34.765C54.605 34.69 55.16 34.66 55.805 34.66H65.27C65.885 34.66 66.5 34.69 67.01 34.765V33.295C66.515 33.355 66.005 33.385 65.285 33.385H61.1V29.77H65.03C65.705 29.77 66.185 29.8 66.605 29.86V28.45C66.215 28.51 65.78 28.54 65.03 28.54H61.1V26.86H62.525C63.155 26.86 63.53 26.875 63.95 26.935V25.96C65.015 26.635 65.66 26.98 66.92 27.505C67.1 27.01 67.325 26.59 67.64 26.14C66.05 25.615 64.925 25.03 63.695 24.115C62.555 23.275 61.835 22.555 61.235 21.64H59.66C58.52 23.515 56.27 25.165 53.45 26.185C53.84 26.665 54.02 26.965 54.23 27.46C55.25 27.04 56.015 26.635 56.93 26.035V26.935C57.365 26.875 57.77 26.86 58.37 26.86H59.705ZM58.34 25.69C57.98 25.69 57.8 25.69 57.47 25.675C58.88 24.67 59.615 23.965 60.455 22.825C61.295 23.935 62.135 24.715 63.5 25.66C63.215 25.69 62.96 25.69 62.54 25.69H58.34ZM55.805 30.565C56.315 31.33 56.705 32.155 57.035 33.13L58.28 32.635C57.875 31.585 57.56 30.955 57.035 30.055L55.805 30.565ZM63.8 30.07C63.425 31.15 62.99 32.035 62.495 32.755L63.665 33.205C64.25 32.29 64.25 32.29 64.865 31.075C64.925 30.97 65.015 30.805 65.12 30.58L63.8 30.07ZM76.52 24.25C77.21 24.295 77.615 24.4 78.125 24.67C79.445 25.375 80.18 26.62 80.18 28.18C80.18 29.995 79.175 31.57 77.57 32.26C76.925 32.53 76.25 32.695 75.08 32.875C75.485 33.4 75.62 33.655 75.845 34.345C76.865 34.15 77.45 33.985 78.155 33.7C80.405 32.77 81.725 30.76 81.725 28.255C81.725 25.015 79.43 22.87 75.935 22.87C73.85 22.87 72.125 23.575 70.895 24.925C69.845 26.08 69.275 27.595 69.275 29.2C69.275 31.48 70.445 33.145 72.035 33.145C73.205 33.145 74.12 32.275 74.99 30.295C75.71 28.675 76.25 26.485 76.52 24.25ZM74.99 24.265C74.795 26.05 74.285 28.15 73.7 29.53C73.115 30.895 72.56 31.555 72.02 31.555C71.3 31.555 70.73 30.52 70.73 29.215C70.73 27.505 71.57 25.9 72.935 24.985C73.58 24.55 74.165 24.355 74.99 24.265ZM85.715 25.51C84.89 25.51 84.44 25.495 83.99 25.435C84.035 25.885 84.05 26.23 84.05 26.65V27.7C84.05 28.09 84.02 28.495 83.975 28.81H85.37V26.77H95.645V28.75H97.04C96.995 28.435 96.965 28.09 96.965 27.7V26.65C96.965 26.17 96.98 25.81 97.025 25.45C96.605 25.495 96.185 25.51 95.375 25.51H94.265C94.43 25.24 94.55 25.015 94.715 24.7C95.15 23.83 95.15 23.83 95.3 23.545L93.935 23.095C93.635 23.965 93.35 24.595 92.825 25.51H91.37C91.13 24.61 90.98 24.175 90.695 23.47C92.36 23.29 93.29 23.185 93.485 23.155C94.28 23.02 95.06 22.87 95.66 22.72C96.005 22.645 96.05 22.63 96.29 22.585L95.405 21.37C93.695 22.045 89.45 22.54 85.325 22.54C85.13 22.54 84.815 22.54 84.41 22.525C84.695 23.065 84.755 23.215 84.875 23.785C85.43 23.785 85.655 23.785 86.015 23.77C86.315 24.34 86.54 24.925 86.735 25.51H85.715ZM88.1 25.51C87.89 24.88 87.635 24.265 87.365 23.71C88.58 23.635 89.255 23.605 89.36 23.59C89.66 24.235 89.84 24.76 90.05 25.51H88.1ZM94.235 28.03C93.935 28.09 93.545 28.105 92.93 28.105H87.44C86.81 28.105 86.315 28.075 85.91 28.03V29.335C86.195 29.305 86.435 29.29 86.81 29.275C87.83 30.82 88.295 31.345 89.33 32.2C87.725 33.01 85.925 33.55 83.78 33.82C84.14 34.3 84.29 34.6 84.485 35.155C86.9 34.69 88.775 34.015 90.485 33.025C91.13 33.445 91.82 33.79 92.57 34.09C93.8 34.6 94.79 34.855 96.665 35.155C96.845 34.615 97.055 34.195 97.34 33.76C94.835 33.43 93.38 33.04 91.73 32.215C92.84 31.42 93.35 30.94 94.505 29.605C94.76 29.32 94.865 29.2 95.075 28.99L94.235 28.03ZM93.05 29.26C92.24 30.235 91.61 30.805 90.515 31.51C89.51 30.835 89 30.325 88.28 29.26H93.05ZM105.575 24.235C105.815 24.19 105.92 24.19 106.31 24.175C106.535 26.05 106.655 26.71 106.97 27.79C107.27 28.84 107.645 29.74 108.2 30.76C107.3 31.96 106.46 32.725 105.035 33.58C105.41 34.045 105.605 34.405 105.83 34.96C107.3 33.925 108.035 33.235 108.965 31.99C109.82 33.19 110.51 33.865 112.025 34.945C112.19 34.54 112.385 34.165 112.775 33.46C111.335 32.605 110.615 31.96 109.775 30.76C110.93 28.795 111.71 26.32 112.01 23.755C112.055 23.335 112.085 23.02 112.115 22.84C111.755 22.885 111.32 22.915 110.945 22.915H106.925C106.52 22.915 106.355 22.915 105.95 22.885V21.895C105.56 21.955 105.26 21.97 104.705 21.97H100.1C99.605 21.97 99.215 21.94 98.825 21.895V23.26C99.2 23.215 99.485 23.185 99.92 23.185V31.66C99.215 31.78 99.005 31.81 98.675 31.825L99.05 33.265C99.26 33.19 99.725 33.07 100.4 32.935C101.135 32.785 102.35 32.47 103.64 32.08V33.625C103.64 34.18 103.61 34.75 103.55 35.215H105.05C104.99 34.84 104.96 34.345 104.96 33.625V23.185C105.245 23.185 105.32 23.185 105.575 23.2V24.235ZM110.585 24.16C110.27 26.425 109.865 27.805 109.01 29.47C108.215 27.91 107.87 26.605 107.57 24.16H110.585ZM101.24 23.185H103.64V25.09H101.24V23.185ZM101.24 26.2H103.64V28.045H101.24V26.2ZM101.24 29.185H103.64V30.85C102.65 31.12 102.35 31.195 101.24 31.42V29.185ZM116.66 21.7C116.66 21.895 116.645 21.955 116.615 22.21L116.375 24.115C116.24 25.12 116.15 26.77 116.15 27.955C116.15 28.21 116.18 29.35 116.195 29.74C116.195 29.89 116.195 29.98 116.195 30.04C116.195 30.07 116.195 30.13 116.18 30.205L117.695 30.175C117.68 29.875 117.68 29.875 117.68 29.83C117.68 28.09 118.415 26.185 119.555 24.955C120.125 24.355 120.65 24.085 121.31 24.085C122.66 24.085 123.425 25.36 123.425 27.61C123.425 29.95 122.63 31.435 120.875 32.365C119.96 32.845 119.15 33.07 117.665 33.25C118.04 33.73 118.16 33.985 118.445 34.72C119.555 34.51 120.515 34.21 121.28 33.865C123.695 32.74 124.985 30.625 124.985 27.82C124.985 26.095 124.685 24.94 123.98 23.95C123.35 23.065 122.48 22.615 121.445 22.615C120.32 22.615 119.36 23.17 118.535 24.295C118.115 24.88 117.83 25.495 117.635 26.275C117.56 26.545 117.56 26.545 117.53 26.65H117.485C117.515 26.215 117.56 25.81 117.68 24.97C118.025 22.6 118.07 22.33 118.265 21.82L116.66 21.7ZM133.52 26.41C133.55 26.41 133.58 26.41 133.595 26.41C133.625 26.41 133.67 26.41 133.73 26.425C133.775 26.425 133.865 26.425 134 26.425C134.06 26.44 134.225 26.44 134.465 26.455C135.05 26.5 135.635 26.515 136.235 26.515C136.715 26.515 136.985 26.5 137.75 26.47C137.825 29.53 137.825 29.53 137.87 29.965C137.48 29.8 137.015 29.725 136.43 29.725C134.66 29.725 133.415 30.685 133.415 32.05C133.415 33.49 134.54 34.375 136.37 34.375C137.735 34.375 138.74 33.925 139.13 33.13C139.25 32.875 139.31 32.53 139.31 32.11C139.31 31.945 139.31 31.945 139.31 31.84C139.445 31.93 139.82 32.17 140.315 32.485C140.735 32.74 141.23 33.16 141.5 33.475L142.115 31.975C141.965 31.885 141.905 31.84 141.725 31.72C140.81 31.06 140.36 30.79 139.31 30.31C139.295 29.845 139.295 29.845 139.25 29.215C139.175 27.655 139.16 27.58 139.16 26.71C139.16 26.5 139.16 26.5 139.16 26.365C139.865 26.29 140.795 26.14 141.29 26.035C141.575 25.96 141.59 25.96 141.71 25.945L141.65 24.535C141.185 24.73 140.12 24.955 139.145 25.06C139.145 24.7 139.145 24.355 139.145 24.19C139.145 23.155 139.175 22.51 139.25 22.105H137.66C137.69 22.27 137.705 22.495 137.705 22.795C137.705 23.83 137.705 23.83 137.72 25.165C137.255 25.195 137.045 25.21 136.655 25.21C135.065 25.21 134.255 25.15 133.535 24.97L133.52 26.41ZM137.9 31.285C137.9 31.285 137.9 31.585 137.9 31.675C137.9 32.125 137.825 32.41 137.675 32.605C137.435 32.89 136.925 33.07 136.37 33.07C135.47 33.07 134.84 32.65 134.84 32.05C134.84 31.42 135.47 31 136.46 31C136.97 31 137.33 31.075 137.9 31.285ZM130.67 22.075C130.67 22.27 130.625 22.51 130.49 23.155C129.92 25.915 129.77 27.205 129.77 29.275C129.77 30.88 129.875 32.095 130.175 33.94C130.25 34.39 130.25 34.39 130.25 34.51L131.81 34.39C131.78 34.135 131.78 34.12 131.78 34.03C131.78 33.07 132.425 31.045 133.205 29.59L132.08 29.11C132.035 29.26 132.02 29.305 131.93 29.515C131.48 30.625 131.45 30.715 131.225 31.615H131.195C131.195 31.345 131.195 31.345 131.195 30.985C131.195 30.535 131.195 30.535 131.18 30.07C131.18 29.905 131.18 29.74 131.18 29.665C131.18 27.115 131.735 23.635 132.365 22.27L130.67 22.075Z" fill="white"/>
<path d="M34.91 64.285C34.25 64.285 33.83 64.27 33.455 64.225C33.5 64.615 33.515 64.99 33.515 65.425V69.01C33.515 69.46 33.5 69.805 33.455 70.21C33.905 70.165 34.16 70.15 34.91 70.15H38.105C38.735 70.15 39.125 70.165 39.56 70.21C39.515 69.82 39.5 69.49 39.5 69.01V65.425C39.5 64.96 39.515 64.585 39.56 64.225C39.17 64.27 38.765 64.285 38.105 64.285H34.91ZM35.09 65.695H37.91V68.74H35.09V65.695ZM42.95 74.245C42.89 73.87 42.86 73.12 42.86 72.31V62.8C42.86 62.05 42.89 61.555 42.95 61C42.38 61.06 41.915 61.075 41.165 61.075H31.865C31.13 61.075 30.665 61.06 30.11 61C30.17 61.555 30.2 62.095 30.2 62.8V72.295C30.2 73.12 30.17 73.765 30.11 74.245H31.85V73.42H41.195V74.245H42.95ZM31.85 62.575H41.195V71.935H31.85V62.575ZM59.285 62.905C58.925 62.965 58.595 62.98 57.875 62.98H55.265C55.43 62.395 55.565 61.885 55.655 61.495C55.775 60.985 55.805 60.85 55.865 60.67L54.215 60.34C54.2 60.775 54.05 61.675 53.855 62.38C53.39 64.195 52.76 65.53 51.83 66.7C52.25 67.015 52.58 67.345 52.91 67.78C53.225 67.36 53.33 67.21 53.6 66.79C53.87 68.215 54.155 69.04 54.86 70.315C54.275 71.02 53.6 71.62 52.73 72.19C52.385 72.415 52.19 72.52 51.545 72.835C51.92 73.315 52.055 73.555 52.355 74.335C53.66 73.66 54.8 72.745 55.76 71.65C56.54 72.67 57.56 73.57 58.685 74.23C58.955 73.57 59.21 73.105 59.555 72.64C58.385 72.055 57.515 71.335 56.705 70.3C57.65 68.665 58.115 66.91 58.235 64.42C58.82 64.435 58.985 64.435 59.285 64.48V62.905ZM56.705 64.42C56.63 66.295 56.36 67.57 55.775 68.83C55.13 67.555 54.815 66.49 54.575 64.885C54.65 64.69 54.65 64.69 54.77 64.42H56.705ZM51.995 71.995C51.485 71.665 51.38 71.605 50.78 71.32C51.245 70.66 51.38 70.345 51.68 69.4C52.325 69.4 52.58 69.415 52.895 69.475V67.96C52.61 68.02 52.31 68.035 51.785 68.035H49.415C49.535 67.75 49.595 67.645 49.73 67.27L48.17 66.97C47.99 67.51 47.93 67.69 47.78 68.035H46.655C46.1 68.035 45.8 68.02 45.47 67.96V69.475C45.815 69.415 46.115 69.4 46.655 69.4H47.09C46.73 70.03 46.595 70.225 46.115 70.885C47.18 71.275 47.585 71.44 48.335 71.77C47.51 72.295 46.715 72.595 45.365 72.88C45.695 73.33 45.92 73.735 46.145 74.26C47.9 73.765 48.785 73.33 49.73 72.475C50.36 72.82 50.57 72.955 51.125 73.39L51.995 71.995ZM50.12 69.4C49.97 69.925 49.76 70.315 49.445 70.735C48.995 70.54 48.8 70.465 48.17 70.24C48.44 69.835 48.485 69.76 48.695 69.4H50.12ZM50.06 63.19V61.39C50.06 60.94 50.075 60.685 50.12 60.4H48.485C48.545 60.7 48.56 60.955 48.56 61.42V63.19H46.775C46.205 63.19 45.86 63.175 45.515 63.115V64.555C45.845 64.495 46.22 64.48 46.76 64.48H47.57C47.075 65.2 46.37 65.74 45.17 66.355C45.65 66.835 45.815 67.045 46.145 67.6C47.3 66.805 47.78 66.34 48.59 65.245C48.56 65.515 48.545 65.755 48.545 65.89V66.46C48.545 66.625 48.53 66.79 48.5 66.955H50.105C50.06 66.775 50.045 66.595 50.045 66.4V65.86C50.045 65.74 50.03 65.56 50 65.245C50.375 65.815 50.585 66.04 51.335 66.67C51.74 65.965 51.8 65.875 52.205 65.44C51.47 65.035 51.155 64.81 50.885 64.48H51.89C52.355 64.48 52.625 64.495 52.85 64.525V63.145C52.67 63.175 52.34 63.19 51.89 63.19H50.06ZM45.89 61.03C46.355 61.72 46.595 62.185 46.895 63.025L48.215 62.53C47.915 61.735 47.735 61.375 47.165 60.55L45.89 61.03ZM51.41 60.52C51.155 61.255 50.825 61.87 50.345 62.53L51.62 63.1C52.085 62.41 52.19 62.23 52.76 61.075L51.41 60.52ZM65.25 59.975H64.175C63 59.975 62.45 59.95 61.725 59.825V62.625C62.475 62.5 63.05 62.475 64.175 62.475H65.25V65.825H64.675C63.55 65.825 62.9 65.8 62.225 65.7V68.45C62.925 68.325 63.475 68.3 64.45 68.3H81.5C82.575 68.3 83.175 68.325 83.825 68.45V65.7C83.175 65.8 82.625 65.825 81.45 65.825H80.95V62.475H81.925C83.075 62.475 83.65 62.5 84.375 62.625V59.825C83.65 59.95 83.1 59.975 81.925 59.975H80.95V56.65C82.225 56.675 82.575 56.7 83.4 56.775V54.025C82.625 54.125 81.775 54.175 80.25 54.175H68.125C68.475 53.65 68.675 53.325 68.925 52.9C69.25 52.3 69.25 52.3 69.45 52L66.55 51.45C66.45 51.825 66.25 52.25 66.025 52.675C65.1 54.4 63.725 55.8 61.375 57.5C62.1 58.1 62.425 58.45 63.2 59.4C64.175 58.625 64.55 58.325 65.25 57.65V59.975ZM67.725 56.65H69.75V59.975H67.725V56.65ZM67.725 62.475H69.75V65.825H67.725V62.475ZM72.025 65.825V62.475H74.1V65.825H72.025ZM72.025 59.975V56.65H74.1V59.975H72.025ZM76.35 65.825V62.475H78.475V65.825H76.35ZM76.35 59.975V56.65H78.475V59.975H76.35ZM84.225 73.325C83.175 71.425 82.425 70.3 80.975 68.525L78.825 69.6C80.3 71.7 80.925 72.75 81.825 74.825L84.225 73.325ZM77.425 74.2C76.975 72.075 76.65 70.975 75.95 69L73.525 69.55C74.175 71.675 74.325 72.375 74.7 74.8L77.425 74.2ZM71.625 74.625C71.525 72.525 71.375 71.425 70.95 69.15L68.525 69.425C68.7 70.65 68.9 72.9 68.9 73.85C68.9 74.125 68.9 74.475 68.9 74.875L71.625 74.625ZM63.875 74.975C65.425 73.175 66.075 72.15 67.1 69.725L64.8 68.575C63.95 70.675 63.225 71.75 61.7 73.25L63.875 74.975ZM93.775 57.6V59.725H90.275C89.3 59.725 88.7 59.7 88.05 59.6V62.275C88.75 62.175 89.475 62.15 90.625 62.15H93.775V64.125H91.2C90.175 64.125 89.55 64.1 88.775 64C88.85 64.7 88.875 65.375 88.875 66.35V70.95C88.875 72.3 88.85 72.75 88.75 73.4H91.475C91.4 72.75 91.375 72.05 91.375 70.975V66.5H93.775V72.375C93.775 73.7 93.75 74.325 93.625 75.1H96.45C96.35 74.425 96.325 73.75 96.325 72.4V66.5H98.575V70.5C98.575 70.825 98.425 70.925 97.95 70.925C97.675 70.925 97.025 70.875 96.625 70.825C96.925 71.65 97.025 72.175 97.075 73.2C97.775 73.25 98 73.25 98.225 73.25C100.375 73.25 101 72.8 101 71.25V66.25C101 65.125 101.025 64.625 101.075 64.025C100.375 64.1 99.85 64.125 98.75 64.125H96.325V62.15H99.15C100.35 62.15 100.925 62.175 101.55 62.275V59.625C100.85 59.7 100.225 59.725 99.25 59.725H96.325V57.6H98.45C99.6 57.6 100.225 57.625 100.925 57.7V55.05C100.275 55.15 99.675 55.175 98.45 55.175H96.325V54.425C96.325 53.2 96.35 52.675 96.475 52.05H93.625C93.75 52.75 93.775 53.275 93.775 54.475V55.175H91.85C91.975 54.675 92.125 54.125 92.175 53.85C92.25 53.475 92.375 53.05 92.45 52.85L89.9 52.375C89.9 52.6 89.9 52.75 89.775 53.35C89.525 54.925 88.825 56.625 87.8 58.3C88.75 58.725 89.2 58.95 90.175 59.525C90.6 58.675 90.75 58.35 91.05 57.6H93.775ZM102.4 53.8C102.525 54.475 102.55 55.175 102.55 56.45V66.45C102.55 68.025 102.525 68.475 102.425 69.125H105.225C105.125 68.5 105.1 67.975 105.1 66.475V56.4C105.1 55.15 105.125 54.475 105.225 53.8H102.4ZM107.175 52.15C107.275 52.95 107.325 53.75 107.325 55.25V71.575C107.325 72.175 107.1 72.325 106.2 72.325C105.3 72.325 104.15 72.25 102.975 72.075C103.425 73.05 103.575 73.575 103.725 74.75C105.2 74.8 105.975 74.825 106.1 74.825C107.775 74.825 108.5 74.675 109.125 74.25C109.725 73.825 109.95 73.2 109.95 71.875V55.175C109.95 53.625 110 52.875 110.125 52.15H107.175ZM128.3 64.075C128.925 66.8 129.575 68.4 130.775 70.2C132.05 72.1 133.575 73.525 136 75.05C136.525 73.9 136.925 73.25 137.575 72.5C135.625 71.55 134.2 70.45 132.975 68.95C134.05 68.2 135.575 67.025 136.35 66.35C136.55 66.175 136.925 65.875 137.05 65.825L135.025 64.1C135.25 64.1 135.25 64.1 135.725 64.15C135.65 63.325 135.625 62.85 135.625 61.425V55.6C135.625 54 135.65 53.425 135.7 52.825C135.05 52.925 134.575 52.95 133.375 52.95H126.225C124.925 52.95 124.325 52.925 123.825 52.825C123.9 53.775 123.925 54.375 123.925 55.5V71.8C122.375 72.075 121.475 72.225 120.975 72.225L121.475 75.05C121.75 74.95 122.2 74.825 122.75 74.7C126.45 73.875 128.125 73.475 130.725 72.7L130.65 70.175C129.3 70.625 129.3 70.625 126.5 71.25V64.075H128.3ZM133.7 64.075C134.05 64.075 134.6 64.075 134.925 64.1C134.475 64.7 133.175 65.85 131.675 66.9C131.225 65.95 131.025 65.375 130.7 64.075H133.7ZM126.5 55.35H133.075V57.375H126.5V55.35ZM126.5 59.575H133.075V61.8H126.5V59.575ZM115.05 72.15C115.05 73.325 115 74.275 114.9 75.025H117.8C117.725 74.125 117.675 73.2 117.675 72.15V55.15H120.575C119.625 58 119.35 58.65 118.25 60.775C119.25 61.925 119.625 62.5 120 63.325C120.35 64.175 120.55 65.05 120.55 65.9C120.55 66.725 120.225 67 119.25 67C118.925 67 118.5 66.95 118.15 66.9C118.525 67.75 118.625 68.325 118.675 69.525C120.475 69.525 121.175 69.425 121.85 69.075C122.75 68.65 123.2 67.7 123.2 66.225C123.2 65.45 123.05 64.525 122.8 63.75C122.45 62.675 122.05 61.95 121.025 60.55C121.85 58.95 122.425 57.65 122.95 56.275C123.475 54.9 123.55 54.7 123.725 54.375L122.3 52.625C122 52.7 121.475 52.75 120.475 52.75H116.8C115.9 52.75 115.425 52.725 114.975 52.675C115.025 53.775 115.05 54.2 115.05 54.975V72.15Z" fill="#FCEC62"/>
<path d="M142 55.68L139.168 52.84L138.904 53.104L141.744 55.96L138.904 58.8L139.168 59.064L142 56.248L144.84 59.064L145.096 58.8L142.256 55.96L145.096 53.104L144.84 52.84L142 55.68ZM142.008 53.032C141.672 53.032 141.392 53.304 141.392 53.64C141.392 53.976 141.672 54.256 142.008 54.256C142.344 54.256 142.616 53.984 142.616 53.64C142.616 53.304 142.344 53.032 142.008 53.032ZM139.712 55.344C139.368 55.344 139.096 55.616 139.096 55.952C139.096 56.288 139.376 56.568 139.712 56.568C140.048 56.568 140.32 56.296 140.32 55.952C140.32 55.616 140.048 55.344 139.712 55.344ZM144.288 55.352C143.952 55.352 143.68 55.624 143.68 55.96C143.68 56.296 143.952 56.568 144.288 56.568C144.624 56.568 144.896 56.296 144.896 55.96C144.896 55.624 144.624 55.352 144.288 55.352ZM142 57.672C141.984 57.68 141.984 57.68 141.984 57.68C141.976 57.68 141.976 57.68 141.968 57.672C141.96 57.672 141.952 57.672 141.944 57.672C141.672 57.672 141.384 57.984 141.384 58.288C141.384 58.608 141.68 58.904 142 58.904C142.328 58.904 142.608 58.624 142.608 58.288C142.608 57.944 142.336 57.672 142 57.672ZM149.784 58.952C150.184 58.952 150.448 58.968 150.768 59V58.328C150.464 58.368 150.192 58.384 149.792 58.384H147.24C147.336 58 147.448 57.784 147.696 57.456C147.96 57.12 148.216 56.896 148.848 56.472C149.76 55.864 149.968 55.712 150.208 55.44C150.52 55.096 150.68 54.712 150.68 54.304C150.68 53.36 149.904 52.752 148.696 52.752C147.992 52.752 147.448 52.96 147.088 53.368C146.824 53.664 146.704 53.944 146.584 54.52L147.256 54.632C147.312 54.232 147.384 54.04 147.536 53.824C147.776 53.48 148.168 53.304 148.696 53.304C149.512 53.304 150.024 53.696 150.024 54.304C150.024 54.792 149.76 55.144 148.968 55.68C148.04 56.312 148.024 56.32 147.744 56.56C147.24 56.992 146.904 57.432 146.704 57.936C146.584 58.24 146.56 58.36 146.472 58.992C146.728 58.96 146.848 58.952 147.352 58.952H149.784Z" fill="white"/>
</svg>
