<!-- 01EZTX9M3AWK0ZB16B6KYR56F1 -->

<svg width="293" height="40" viewBox="0 0 293 40" fill="none" xmlns="http://www.w3.org/2000/svg">
<path d="M6.35256 33.5083C2.96513 34.5513 -1.15167 30.1273 1.75306 26.2238C3.68812 28.8283 6.96923 29.7211 6.96923 29.7211L6.35256 33.5083Z" fill="white"/>
<path d="M35.5976 39.1488C34.3068 39.1488 33.1096 38.3723 32.3951 37.069C30.6685 33.9208 28.4825 30.1844 27.4597 28.4474L26.0328 30.6838C26.2986 31.2571 26.7133 32.4017 26.692 33.9102C28.6271 34.2107 29.7966 35.6727 29.7966 37.0373C29.7966 37.6297 29.5712 38.1608 29.1608 38.5395C28.8631 38.8166 28.3187 39.1467 27.4086 39.1467H11.1923C7.10957 39.1467 5.65508 36.2354 5.65508 33.5083V33.2121C5.64232 31.6253 5.62744 29.6513 8.17492 26.5898C10.6182 23.6574 20.3361 11.7395 21.008 10.9122L26.5538 1.22853C26.6771 1.01061 26.911 0.877319 27.162 0.877319H33.9645C35.4211 0.877319 36.059 2.25889 36.2993 2.77725C36.5268 3.26175 37.2902 4.71314 37.6453 5.38383L43.7291 5.7033C44.0757 5.72023 44.3564 5.98893 44.3883 6.33168C44.4308 6.80137 44.7668 10.9694 43.0742 12.8164C42.6786 13.2501 42.1895 13.5315 41.6388 13.6458C41.356 14.6423 40.633 15.8631 39.2083 15.8631H35.4275L31.9188 21.5396C33.1203 24.271 35.4487 29.0081 37.0095 32.1838C37.4391 33.0597 37.8048 33.8045 38.0664 34.344C38.077 34.3651 38.0876 34.3905 38.0961 34.4138C38.5959 35.8208 38.515 37.0965 37.8707 38.0021C37.3561 38.732 36.5247 39.1488 35.5976 39.1488ZM27.4809 26.4184C27.4852 26.4184 27.4894 26.4184 27.4916 26.4184C27.7361 26.4227 27.9572 26.5517 28.0827 26.7591C28.1146 26.8141 31.2851 32.1436 33.62 36.4026C34.0857 37.251 34.8257 37.7588 35.5954 37.7588C36.0718 37.7588 36.4737 37.5599 36.7288 37.2023C37.0988 36.6819 37.1201 35.8694 36.7884 34.9152C36.5289 34.3842 36.1696 33.65 35.7507 32.7974C34.1176 29.4778 31.653 24.4572 30.4877 21.7617C30.3984 21.5544 30.4154 21.3174 30.5345 21.1228L34.4365 14.8073C34.5641 14.6 34.7895 14.4751 35.0341 14.4751H39.2061C40.1078 14.4751 40.3672 12.9264 40.3693 12.9095C40.4203 12.5689 40.7138 12.315 41.0604 12.315C41.458 12.315 41.7685 12.1774 42.0386 11.8812C42.97 10.8678 43.0827 8.43472 43.0316 7.06161L37.1733 6.75482C36.9266 6.74213 36.7076 6.60249 36.5906 6.38457C36.5417 6.28936 35.3445 4.03399 35.0298 3.3633C34.6662 2.57625 34.3664 2.26947 33.9623 2.26947H27.566L22.1924 11.6506C22.1733 11.6845 22.152 11.7162 22.1287 11.7437C22.0245 11.8707 11.7729 24.4508 9.24878 27.4784C7.02664 30.1464 7.0394 31.7691 7.05003 33.2015V33.5083C7.05003 34.7862 7.45405 37.7566 11.1923 37.7566H27.4086C27.768 37.7566 28.0444 37.6763 28.2082 37.5239C28.3336 37.4076 28.3995 37.2425 28.3995 37.0373C28.3995 36.2862 27.5511 35.2453 25.9563 35.2453C25.7564 35.2453 25.5692 35.1628 25.4374 35.0147C25.3056 34.8708 25.2396 34.674 25.263 34.4773C25.4799 32.3954 24.6442 31.0244 24.6357 31.0117C24.4975 30.7832 24.4975 30.4997 24.64 30.2733L26.894 26.74C27.0216 26.5412 27.2428 26.4184 27.4809 26.4184Z" fill="white"/>
<path d="M68.7871 36.5232C69.659 36.4533 70.8817 36.0641 71.7344 34.4307C72.0321 33.7918 72.2384 33.0364 72.3426 32.1542C72.3787 31.8284 72.3979 31.5047 72.3979 31.1831C72.3936 29.4101 71.8769 27.7323 71.2751 26.1751C70.669 24.6243 69.9694 23.175 69.5335 21.9246C69.238 21.0953 69.07 20.3611 69.0742 19.7877C69.0763 19.3053 69.1699 18.9541 69.4017 18.6008C69.6398 18.2475 69.8972 18.0169 70.1672 17.8688C70.4351 17.7207 70.7201 17.6487 71.0093 17.6487C71.543 17.6466 72.1044 17.8942 72.5361 18.3575C72.9656 18.8208 73.2697 19.4831 73.291 20.3717C73.3037 20.9133 73.7226 21.3449 74.2287 21.3322C74.7348 21.3195 75.1367 20.8668 75.1218 20.3251C75.0942 18.9541 74.5923 17.7778 73.829 16.9632C73.0698 16.1487 72.0555 15.679 71.0072 15.679C70.4373 15.679 69.8589 15.8207 69.323 16.1169C68.7893 16.4153 68.3002 16.8659 67.9089 17.452C67.4326 18.1607 67.2327 18.9901 67.237 19.7899C67.237 20.5092 67.3773 21.2137 67.5857 21.9183C67.7941 22.6228 68.0684 23.3295 68.3682 24.0446C68.9658 25.4727 69.6505 26.9453 70.0864 28.3861C70.3799 29.3487 70.5606 30.2881 70.5606 31.1852C70.5606 31.4306 70.5946 32.0674 70.5436 32.5921C70.4309 34.0731 69.5059 34.7862 68.5915 34.7862L68.7871 36.5232Z" fill="white"/>
<path d="M65.825 39.4217H52.7963C52.4539 39.4217 52.1626 39.1763 52.1073 38.842C52.0733 38.6432 51.8075 36.885 52.7537 35.77C52.9876 35.4949 53.3704 35.1797 53.9552 35.0274C53.7383 32.7995 52.9877 25.5616 52.0988 22.517C50.3083 21.9268 49.0984 20.7504 48.503 19.0134C47.3292 15.588 49.6066 13.0851 49.7044 12.9814C50.7209 11.8897 52.9217 11.4433 53.1684 11.3968C53.2131 11.3883 53.2556 11.3841 53.3002 11.3841H55.9073C55.9413 11.3841 55.9753 11.3862 56.0093 11.3925C56.2496 11.4264 58.3803 11.7755 59.5031 12.9814C59.6009 13.0851 61.8804 15.588 60.7024 19.0134C60.6726 19.1023 60.6407 19.1911 60.6046 19.2821C61.6508 20.4013 62.5715 21.3619 63.5136 22.3457C64.5853 23.4628 65.6932 24.618 67.0349 26.0588C68.8063 27.8339 69.7887 30.4447 69.71 33.2057C69.7079 33.4596 69.6569 35.7996 68.717 37.1029C68.0535 38.2898 67.1221 39.0853 66.0143 39.3942C65.9526 39.4133 65.8888 39.4217 65.825 39.4217ZM53.4448 38.0317H65.7208C66.6182 37.744 67.1902 36.9886 67.5155 36.3962C67.5304 36.3666 67.5474 36.3391 67.5666 36.3137C68.162 35.5203 68.3066 33.7833 68.3129 33.1803C68.3767 30.8192 67.524 28.5215 66.027 27.0214C64.6746 25.57 63.571 24.4191 62.5035 23.3062C61.4637 22.223 60.4472 21.163 59.267 19.8935C59.0693 19.682 59.0246 19.3752 59.1522 19.1171C59.2458 18.9224 59.3202 18.7447 59.3819 18.567C60.2814 15.9413 58.5526 14.0055 58.476 13.9251C57.8274 13.2269 56.407 12.8672 55.852 12.7741H53.3683C52.7729 12.8968 51.3056 13.3051 50.7294 13.9272C50.6571 14.0055 48.9261 15.9414 49.8235 18.5649C50.3062 19.9761 51.295 20.8668 52.8388 21.2878C53.0642 21.3492 53.2428 21.5205 53.3173 21.7385C54.4677 25.1934 55.3693 35.1458 55.4075 35.5711C55.4246 35.7658 55.3586 35.9562 55.2268 36.1022C55.095 36.246 54.9078 36.3285 54.7122 36.3285C54.1721 36.3285 53.9446 36.5253 53.8191 36.6713C53.5256 37.0119 53.447 37.5789 53.4448 38.0317Z" fill="white"/>
<path d="M49.1558 14.0161C49.1558 14.0161 49.1005 8.39667 50.2913 8.39667C51.4821 8.39667 53.2152 11.4222 53.2152 11.4222C53.2152 11.4222 52.8218 11.9321 51.565 12.6154C50.0255 13.4554 49.1558 14.0161 49.1558 14.0161Z" fill="white"/>
<path d="M55.4203 11.4222C55.4203 11.4222 57.1534 8.39667 58.342 8.39667C59.5328 8.39667 59.8582 14.0161 59.8582 14.0161C59.8582 14.0161 58.7184 13.3834 57.147 12.7741C55.7988 12.2473 55.4203 11.4222 55.4203 11.4222Z" fill="white"/>
<path d="M30.8003 6.88178C32.157 5.42404 32.157 3.06077 30.8003 1.60515C29.4437 0.147406 27.247 0.147406 25.8904 1.60515C25.8904 1.60515 25.8882 1.60938 25.8861 1.60938L19.8491 8.09833L24.7591 13.375L30.8003 6.88178Z" fill="white"/>
<path d="M45.0432 6.69136C45.0432 7.65402 44.316 8.43261 43.4208 8.43261C42.5234 8.43261 41.7962 7.65402 41.7962 6.69136C41.7962 5.72659 42.5234 4.948 43.4208 4.948C44.316 4.948 45.0432 5.72659 45.0432 6.69136Z" fill="white"/>
<path d="M120.681 30.5179C116.373 29.4918 113.585 25.4359 110.54 19.5034C108.139 14.8827 107.727 14.523 105.611 14.523H104.735L101.973 20.8152C101.018 23.151 99.4442 24.615 97.018 25.0763V21.5832C97.9727 21.0712 98.5915 20.0705 99.1338 18.7079L102.306 11.0849H105.145C109.247 11.0849 110.64 11.6245 113.479 17.246C115.801 21.7123 117.891 25.5121 120.677 26.771V30.5179H120.681ZM115.444 14.7303C113.921 14.7303 112.707 13.499 112.707 12.0074C112.707 10.5179 113.919 9.25906 115.444 9.25906C116.941 9.25906 118.178 10.5179 118.178 12.0074C118.178 13.4969 116.941 14.7303 115.444 14.7303ZM116.709 12.0074C116.709 11.3134 116.116 10.7231 115.444 10.7231C114.721 10.7231 114.127 11.3134 114.127 12.0074C114.127 12.7267 114.721 13.2916 115.444 13.2916C116.113 13.2916 116.709 12.7267 116.709 12.0074Z" fill="white"/>
<path d="M134.765 22.0466C134.403 19.5035 133.578 15.7036 132.753 12.9828H136.055C136.855 15.4751 137.68 19.1438 138.146 22.0466H134.765ZM136.931 28.0023C145.42 26.2569 148.053 21.5071 148.104 13.2155V12.8812H151.689V13.2409C151.536 24.3316 146.477 29.6463 136.929 31.1611V28.0023H136.931ZM141.242 21.816C140.906 19.2242 140.132 15.5513 139.332 12.7797H142.662C143.462 15.2445 144.159 18.6572 144.674 21.816H141.242Z" fill="white"/>
<path d="M185.333 23.2271C180.379 21.8667 175.426 20.6862 170.833 19.7362V31.1357H167.169V9.10675H170.833V16.1923C175.813 17.1952 180.742 18.2467 185.333 19.5542V23.2271Z" fill="white"/>
<path d="M210.443 27.5411C214.132 27.1053 217.745 24.9748 217.745 19.66C217.745 16.552 215.937 13.9603 212.325 13.2409C211.55 19.3004 210.338 24.4839 208.378 27.3338C207.191 29.2845 205.669 29.6188 204.508 29.6188C201.954 29.6188 198.909 26.7689 198.909 21.6086C198.909 15.1916 203.553 9.98056 210.649 9.98056C217.358 9.98056 221.228 14.1401 221.228 19.787C221.228 27.4121 215.939 30.518 210.443 30.7761V27.5411ZM202.16 21.6086C202.16 24.4839 203.632 26.2061 204.431 26.2061C204.999 26.2061 205.592 25.7703 206.392 23.9719C207.578 21.3801 208.508 16.8609 208.971 13.1647C204.637 13.7783 202.16 17.6057 202.16 21.6086Z" fill="white"/>
<path d="M236.604 31.5208V18.9153C236.036 19.8123 235.367 20.5846 234.875 21.0204L233.974 16.8609C235.883 14.9356 237.689 11.9059 238.671 8.41278L241.948 9.2083C241.38 11.5187 240.606 13.2642 239.651 14.9335V31.5187H236.604V31.5208ZM255.26 30.5179C252.989 28.6709 251.364 26.9762 250.124 25.0001V31.5208H247.079V25.0255C245.633 27.3084 243.932 29.056 241.816 30.5687L239.907 27.5411C242.358 26.3605 244.268 25.0509 245.763 23.1256H240.576V20.1741H247.079V18.2234H241.997V9.03057H255.57V18.2213H250.124V20.172H256.884V23.1235H251.492C253.065 24.998 254.924 26.4092 257.193 27.539L255.26 30.5179ZM252.576 12.0582H244.989V15.1916H252.576V12.0582Z" fill="white"/>
<path d="M291.528 31.5208C288.819 30.7507 286.986 29.5447 285.053 27.2576C283.401 29.5426 281.466 30.8776 278.215 31.4954L276.796 28.4128C280.228 28.0531 282.085 27.1539 283.22 25.2794H278.576V17.8088H283.635V16.6028H280.926V14.5484C280.203 14.9843 279.248 15.4455 278.397 15.729L277.417 13.6492L276.231 17.3962C277.056 18.9872 278.064 21.3759 278.064 23.3287C278.064 25.1757 277.16 26.6398 274.4 26.6398L273.368 23.7899L273.394 31.5187H270.376V9.03058H278.015V11.6477L277.755 12.5194C280.052 11.853 282.012 10.5158 283.535 8.6434H286.786C286.786 8.6434 289.108 11.5187 292.953 12.6485L291.586 15.7544C291.018 15.5238 290.114 15.0096 289.34 14.523V16.6028H286.735V17.8088H291.947V25.2794H286.863C288.411 27.1032 290.32 28.0277 292.927 28.4128L291.528 31.5208ZM273.698 23.3816C274.6 23.3816 275.142 23.1489 275.142 22.2518C275.142 21.4055 274.651 19.9943 273.49 17.6564L275.167 12.0074H273.388L273.362 23.3816H273.698ZM283.709 20.4048H281.413V22.8167H283.709V20.4048ZM288.432 13.9856C287.014 13.1139 285.853 12.0857 285.079 11.0596C284.175 12.2655 283.065 13.1901 281.776 13.9856H288.432ZM289.102 20.4048H286.625V22.8167H289.102V20.4048Z" fill="white"/>
</svg>
