<svg width="262" height="119" viewBox="0 0 262 119" fill="none" xmlns="http://www.w3.org/2000/svg">
<path fill-rule="evenodd" clip-rule="evenodd" d="M260 119C261.105 119 262 118.105 262 117L262 73C262 71.8955 261.105 71 260 71L45.2985 71L40.2896 65.1836C40.0788 64.9389 39.6997 64.9389 39.489 65.1836L34.4801 71L2 71C0.89542 71 4.11801e-06 71.8954 4.02145e-06 73L1.74846e-07 117C7.82811e-08 118.105 0.895416 119 2 119L260 119Z" fill="#B2D0CD"/>
<rect x="1" y="1" width="181" height="60" fill="#00655A" stroke="#00655A" stroke-width="2"/>
<path d="M52.072 10.86C51.448 12.564 50.356 14.268 49.24 15.348C49.48 15.696 49.876 16.464 50.008 16.812C50.32 16.488 50.62 16.128 50.92 15.744V22.02H52.276V13.656C52.708 12.888 53.08 12.072 53.392 11.292L52.072 10.86ZM54.988 12.612H58.504V14.22H54.988V12.612ZM60.52 17.856V16.56H57.424V15.48H59.932V11.352H53.632V15.48H55.984V16.56H52.84V17.856H55.3C54.556 18.912 53.488 19.884 52.408 20.448C52.732 20.724 53.176 21.24 53.392 21.588C54.34 20.976 55.252 20.064 55.984 19.008V22.044H57.424V18.948C58.108 20.016 58.984 20.988 59.86 21.612C60.088 21.252 60.544 20.748 60.868 20.472C59.86 19.884 58.828 18.9 58.12 17.856H60.52ZM67.084 17.664V16.584H68.272V17.34C68.272 17.448 68.272 17.556 68.26 17.664H67.084ZM70.816 16.584V17.664H69.556C69.556 17.568 69.556 17.472 69.556 17.376V16.584H70.816ZM67.492 13.596C68.068 13.104 68.56 12.564 68.896 12.06C69.268 12.576 69.808 13.116 70.396 13.596H67.492ZM72.1 18.756V15.504H69.556V14.772H71.164V14.148C71.476 14.352 71.8 14.544 72.1 14.688C72.292 14.304 72.568 13.776 72.832 13.44C71.584 12.984 70.336 11.988 69.508 10.848H68.212C67.624 11.832 66.424 12.972 65.152 13.56C65.344 12.972 65.536 12.372 65.692 11.844L64.744 11.292L64.54 11.352H61.888V22.044H63.124V12.624H64.096C63.892 13.452 63.628 14.52 63.376 15.288C64.072 16.08 64.252 16.8 64.252 17.34C64.252 17.688 64.192 17.916 64.048 18.024C63.964 18.084 63.832 18.108 63.7 18.108C63.556 18.12 63.376 18.12 63.148 18.096C63.352 18.444 63.46 18.996 63.46 19.344C63.76 19.356 64.048 19.344 64.276 19.308C64.54 19.272 64.78 19.2 64.972 19.068C65.368 18.792 65.524 18.288 65.524 17.532C65.524 16.836 65.368 16.044 64.6 15.132C64.756 14.724 64.924 14.232 65.092 13.74C65.308 14.052 65.548 14.484 65.68 14.796C66.04 14.616 66.4 14.4 66.748 14.16V14.772H68.272V15.504H65.848V18.756H68.068C67.744 19.644 66.94 20.46 65.008 21.048C65.236 21.276 65.632 21.816 65.764 22.104C67.564 21.54 68.536 20.676 69.052 19.716C69.784 21.024 70.732 21.636 71.932 22.092C72.088 21.672 72.424 21.204 72.748 20.904C71.56 20.532 70.66 20.076 69.952 18.756H72.1ZM78.184 18.072V20.472H76.564L77.548 20.052C77.368 19.5 76.9 18.684 76.444 18.072H78.184ZM76.828 14.412C77.692 13.692 78.436 12.912 78.952 12.192C79.48 12.912 80.272 13.692 81.16 14.412H76.828ZM81.352 18.072C81.088 18.708 80.608 19.584 80.212 20.148L80.992 20.472H79.684V18.072H83.38V16.848H79.684V15.66H81.976V15.036C82.576 15.468 83.2 15.864 83.8 16.176C84.064 15.732 84.388 15.252 84.748 14.892C82.852 14.124 80.92 12.612 79.624 10.8H78.148C77.26 12.24 75.34 14.04 73.3 15.036C73.612 15.336 74.008 15.852 74.188 16.188C74.8 15.864 75.412 15.48 75.976 15.072V15.66H78.184V16.848H74.536V18.072H76.372L75.28 18.54C75.7 19.128 76.096 19.932 76.276 20.472H73.936V21.696H84.088V20.472H81.376C81.796 19.968 82.264 19.236 82.72 18.576L81.352 18.072ZM93.136 16.62C92.62 17.532 91.9 18.252 91.024 18.828C90.16 18.228 89.488 17.496 89.008 16.62H93.136ZM94.192 15.168L93.94 15.216H91.696V13.824H96.088V12.408H91.696V10.848H90.22V12.408H85.852V13.824H90.22V15.216H86.452V16.62H88.672L87.616 16.98C88.168 18 88.828 18.864 89.632 19.572C88.396 20.112 86.944 20.46 85.372 20.664C85.648 20.988 86.02 21.66 86.152 22.044C87.904 21.744 89.536 21.264 90.94 20.52C92.224 21.288 93.808 21.792 95.716 22.068C95.92 21.648 96.328 21.012 96.628 20.676C94.972 20.496 93.556 20.136 92.368 19.596C93.604 18.636 94.588 17.376 95.188 15.732L94.192 15.168ZM102.28 17.22L102.184 15.96C101.656 16.068 101.128 16.164 100.6 16.272V14.436H102.136V13.116H100.6V10.836H99.208V13.116H97.516V14.436H99.208V16.536C98.5 16.656 97.864 16.776 97.336 16.848L97.636 18.252C98.116 18.156 98.644 18.036 99.208 17.916V20.46C99.208 20.652 99.136 20.712 98.956 20.724C98.788 20.724 98.2 20.724 97.66 20.7C97.84 21.084 98.02 21.672 98.068 22.044C98.98 22.044 99.616 21.996 100.036 21.78C100.456 21.552 100.6 21.204 100.6 20.472V17.604L102.28 17.22ZM108.736 21.504C108.4 20.076 107.452 17.904 106.54 16.224L105.28 16.668C105.748 17.592 106.228 18.66 106.612 19.68C105.604 19.8 104.596 19.92 103.648 20.016C104.344 17.592 105.052 14.28 105.496 11.4L103.936 11.148C103.612 14.052 102.88 17.688 102.172 20.184C101.704 20.232 101.284 20.268 100.912 20.304L101.224 21.792C102.808 21.564 104.98 21.288 107.056 20.976C107.164 21.36 107.26 21.72 107.32 22.032L108.736 21.504ZM113.848 19.416V20.436H111.46V19.416H113.848ZM110.176 22.032H111.46V21.504H113.848V21.924H115.204V18.348H110.176V22.032ZM114.52 13.872H113.296V13.224H111.988V13.872H110.764V12.984H114.52V13.872ZM113.32 10.908H111.952V11.916H109.504V13.968H110.092V14.88H111.988V15.384H110.212V16.332H111.988V16.848H109.54V17.94H115.708V16.848H113.296V16.332H115.048V15.384H113.296V14.88H115.216V13.968H115.84V11.916H113.32V10.908ZM117.7 12.108H116.344V18.816H117.7V12.108ZM118.828 11.052V20.292C118.828 20.484 118.744 20.556 118.54 20.556C118.3 20.556 117.616 20.568 116.92 20.532C117.124 20.94 117.328 21.6 117.388 22.008C118.372 22.008 119.116 21.96 119.584 21.72C120.064 21.504 120.208 21.096 120.208 20.304V11.052H118.828ZM129.388 18.396V20.352H124.648V18.396H129.388ZM123.244 22.056H124.648V21.612H129.388V22.056H130.852V17.136H123.244V22.056ZM124.576 14.688C125.56 13.908 126.4 13.056 126.964 12.252C127.54 13.044 128.428 13.908 129.424 14.688H124.576ZM126.16 10.848C125.26 12.312 123.34 14.124 121.276 15.12C121.588 15.42 121.984 15.936 122.176 16.284C122.812 15.936 123.448 15.54 124.036 15.108V15.948H130.012V15.12C130.612 15.552 131.236 15.948 131.848 16.26C132.1 15.816 132.424 15.348 132.772 14.976C130.864 14.208 128.92 12.684 127.636 10.848H126.16Z" fill="white"/>
<path d="M81.7665 33.998V33.92H77.3725C77.2685 33.92 77.2165 33.972 77.2165 34.076V36.104C77.2165 36.2773 77.1298 36.364 76.9565 36.364H74.7205C74.5471 36.364 74.4605 36.2773 74.4605 36.104V31.58C74.4605 31.4067 74.5471 31.32 74.7205 31.32H84.6265C84.7998 31.32 84.8865 31.4067 84.8865 31.58V33.608C84.8865 33.7987 84.8605 33.9547 84.8085 34.076L78.9585 48.766C78.9238 48.8527 78.8805 48.9133 78.8285 48.948C78.7938 48.9827 78.7245 49 78.6205 49H76.1505C75.9598 49 75.9078 48.9047 75.9945 48.714L81.7665 33.998ZM87.456 45.828C87.404 45.6547 87.352 45.4553 87.3 45.23C87.248 44.9873 87.2047 44.6667 87.17 44.268C87.1527 43.852 87.1353 43.3233 87.118 42.682C87.1007 42.0233 87.092 41.1827 87.092 40.16C87.092 39.1373 87.1007 38.3053 87.118 37.664C87.1353 37.0053 87.1527 36.4767 87.17 36.078C87.2047 35.662 87.248 35.3413 87.3 35.116C87.352 34.8907 87.404 34.6827 87.456 34.492C87.8027 33.3827 88.392 32.5333 89.224 31.944C90.0733 31.3373 91.1567 31.034 92.474 31.034C93.7913 31.034 94.866 31.3373 95.698 31.944C96.5473 32.5333 97.154 33.3827 97.518 34.492C97.57 34.6827 97.622 34.8907 97.674 35.116C97.726 35.3413 97.7607 35.662 97.778 36.078C97.8127 36.4767 97.8387 37.0053 97.856 37.664C97.8733 38.3053 97.882 39.1373 97.882 40.16C97.882 41.1827 97.8733 42.0233 97.856 42.682C97.8387 43.3233 97.8127 43.852 97.778 44.268C97.7607 44.6667 97.726 44.9873 97.674 45.23C97.622 45.4553 97.57 45.6547 97.518 45.828C97.154 46.9373 96.5473 47.7953 95.698 48.402C94.866 48.9913 93.7913 49.286 92.474 49.286C91.1567 49.286 90.0733 48.9913 89.224 48.402C88.392 47.7953 87.8027 46.9373 87.456 45.828ZM90.316 45.282C90.6453 46.218 91.3647 46.686 92.474 46.686C93.5833 46.686 94.3113 46.218 94.658 45.282C94.71 45.1433 94.7447 44.9873 94.762 44.814C94.7967 44.6407 94.8227 44.372 94.84 44.008C94.8573 43.644 94.866 43.1587 94.866 42.552C94.8833 41.9453 94.892 41.148 94.892 40.16C94.892 39.172 94.8833 38.3747 94.866 37.768C94.866 37.1613 94.8573 36.676 94.84 36.312C94.8227 35.948 94.7967 35.6793 94.762 35.506C94.7447 35.3327 94.71 35.1767 94.658 35.038C94.3113 34.102 93.5833 33.634 92.474 33.634C91.3647 33.634 90.6453 34.102 90.316 35.038C90.264 35.1767 90.2207 35.3327 90.186 35.506C90.1687 35.6793 90.1513 35.948 90.134 36.312C90.1167 36.676 90.0993 37.1613 90.082 37.768C90.082 38.3747 90.082 39.172 90.082 40.16C90.082 41.148 90.082 41.9453 90.082 42.552C90.0993 43.1587 90.1167 43.644 90.134 44.008C90.1513 44.372 90.1687 44.6407 90.186 44.814C90.2207 44.9873 90.264 45.1433 90.316 45.282Z" fill="white"/>
<path d="M102.359 45.092C103.595 45.092 104.435 44.06 104.435 42.284C104.435 40.508 103.595 39.5 102.359 39.5C101.123 39.5 100.295 40.508 100.295 42.284C100.295 44.06 101.123 45.092 102.359 45.092ZM102.359 44.276C101.747 44.276 101.303 43.64 101.303 42.284C101.303 40.916 101.747 40.316 102.359 40.316C102.983 40.316 103.427 40.916 103.427 42.284C103.427 43.64 102.983 44.276 102.359 44.276ZM102.635 48.656H103.511L108.347 39.5H107.471L102.635 48.656ZM108.635 48.656C109.859 48.656 110.699 47.636 110.699 45.86C110.699 44.084 109.859 43.076 108.635 43.076C107.399 43.076 106.559 44.084 106.559 45.86C106.559 47.636 107.399 48.656 108.635 48.656ZM108.635 47.852C108.011 47.852 107.579 47.216 107.579 45.86C107.579 44.492 108.011 43.892 108.635 43.892C109.247 43.892 109.691 44.492 109.691 45.86C109.691 47.216 109.247 47.852 108.635 47.852Z" fill="white"/>
<rect x="187" y="1" width="73" height="60" fill="white" stroke="#00655A" stroke-width="2"/>
<path d="M204.064 8.34H202.744C202.78 8.556 202.816 9.036 202.816 9.288C202.816 9.504 202.804 9.936 202.804 10.476C202.504 10.5 202.228 10.512 201.976 10.512C201.532 10.512 201.064 10.5 200.38 10.416L200.416 11.568C200.812 11.604 201.268 11.628 202 11.628C202.228 11.628 202.492 11.616 202.792 11.592C202.78 12.048 202.78 12.504 202.78 12.924C202.78 13.164 202.78 13.416 202.78 13.668C201.364 14.28 200.128 15.348 200.128 16.368C200.128 17.52 201.724 18.48 202.768 18.48C203.476 18.48 203.944 18.108 203.944 16.836C203.944 16.356 203.908 15.348 203.896 14.352C204.688 14.1 205.516 13.956 206.356 13.956C207.448 13.956 208.276 14.472 208.276 15.396C208.276 16.404 207.4 16.932 206.392 17.124C205.948 17.22 205.432 17.22 204.952 17.208L205.384 18.432C205.828 18.408 206.368 18.372 206.908 18.252C208.672 17.832 209.5 16.836 209.5 15.408C209.5 13.872 208.156 12.912 206.368 12.912C205.636 12.912 204.748 13.044 203.872 13.296C203.872 13.152 203.872 13.008 203.872 12.876C203.872 12.444 203.884 11.964 203.896 11.484C204.724 11.388 205.612 11.244 206.308 11.088L206.284 9.912C205.624 10.104 204.76 10.272 203.92 10.368C203.944 9.936 203.956 9.552 203.968 9.264C203.992 8.976 204.028 8.568 204.064 8.34ZM207.652 9.66L207.124 10.572C207.88 10.968 209.32 11.82 209.896 12.348L210.484 11.388C209.884 10.92 208.54 10.104 207.652 9.66ZM201.304 16.308C201.304 15.828 201.928 15.216 202.804 14.784C202.816 15.564 202.84 16.26 202.84 16.644C202.84 17.04 202.672 17.196 202.432 17.196C202.024 17.196 201.304 16.788 201.304 16.308ZM213.04 9.972H220.912V11.364H222.052V8.964H217.54V7.932H216.4V8.964H211.948V11.364H213.04V9.972ZM214.768 15.264C215.536 14.988 216.292 14.664 216.988 14.28C217.744 14.676 218.572 15 219.46 15.264H214.768ZM214.792 17.616V16.188H219.244V17.616H214.792ZM215.428 11.784H218.62C218.188 12.264 217.636 12.696 217 13.092C216.352 12.732 215.8 12.312 215.356 11.844L215.428 11.784ZM219.556 10.884L219.352 10.932H216.232C216.4 10.728 216.556 10.524 216.7 10.32L215.524 10.08C214.924 10.992 213.784 11.976 212.128 12.66C212.38 12.84 212.716 13.224 212.872 13.488C213.508 13.188 214.072 12.852 214.564 12.48C214.972 12.924 215.44 13.308 215.944 13.656C214.576 14.316 212.992 14.784 211.444 15.048C211.648 15.288 211.888 15.744 211.996 16.032C212.56 15.912 213.136 15.78 213.7 15.612V18.936H214.792V18.552H219.244V18.912H220.384V15.504C220.852 15.612 221.332 15.708 221.824 15.78C221.992 15.456 222.292 14.964 222.544 14.7C220.912 14.52 219.376 14.148 218.068 13.608C218.98 12.972 219.748 12.216 220.288 11.34L219.556 10.884ZM229.192 9.492C229.276 9.732 229.384 10.044 229.504 10.416C228.208 10.512 226.6 10.476 224.812 10.26L224.836 11.472C226.804 11.628 228.484 11.628 229.924 11.508C230.308 12.432 230.812 13.356 231.232 14.004C230.824 13.956 229.972 13.884 229.336 13.836L229.252 14.832C230.176 14.904 231.652 15.048 232.276 15.192L232.876 14.328C232.672 14.112 232.48 13.884 232.3 13.62C231.916 13.08 231.436 12.24 231.064 11.388C231.856 11.268 232.72 11.112 233.404 10.92L233.26 9.72C232.468 9.984 231.544 10.176 230.668 10.296C230.452 9.648 230.248 8.928 230.152 8.316L228.856 8.472C228.988 8.832 229.108 9.228 229.192 9.492ZM226.912 14.196L225.724 13.932C225.352 14.688 225.124 15.336 225.124 16.032C225.124 17.7 226.612 18.576 228.964 18.588C230.356 18.6 231.4 18.456 232.12 18.324L232.18 17.124C231.34 17.292 230.296 17.424 229.036 17.412C227.308 17.4 226.336 16.932 226.336 15.852C226.336 15.3 226.54 14.772 226.912 14.196ZM238.216 16.692C238.216 16.212 238.768 15.816 239.788 15.816C240.16 15.816 240.532 15.852 240.88 15.924C240.892 16.188 240.892 16.428 240.892 16.596C240.892 17.364 240.376 17.568 239.704 17.568C238.672 17.568 238.216 17.208 238.216 16.692ZM241.996 8.4H240.712C240.76 8.592 240.772 8.952 240.772 9.156C240.772 9.36 240.772 9.612 240.772 9.888C240.604 9.888 240.424 9.888 240.256 9.888C239.488 9.888 238.048 9.768 237.244 9.624L237.256 10.716C238.036 10.812 239.476 10.932 240.268 10.932C240.436 10.932 240.604 10.932 240.76 10.932C240.76 11.412 240.76 11.916 240.76 12.408C240.556 12.408 240.352 12.408 240.148 12.408C239.416 12.408 238 12.324 237.184 12.192L237.196 13.32C238.024 13.416 239.356 13.476 240.124 13.476C240.352 13.476 240.568 13.476 240.784 13.476C240.796 13.92 240.82 14.412 240.832 14.88C240.544 14.856 240.256 14.832 239.944 14.832C238.156 14.832 237.088 15.612 237.088 16.764C237.088 17.964 238.06 18.636 239.86 18.636C241.432 18.636 242.092 17.808 242.092 16.896C242.092 16.728 242.08 16.524 242.068 16.272C243.16 16.716 244.072 17.4 244.756 18.024L245.452 16.956C244.756 16.392 243.568 15.552 242.008 15.12C241.984 14.58 241.948 14.004 241.924 13.452C243.076 13.404 244.072 13.32 245.176 13.188L245.188 12.072C244.144 12.216 243.088 12.324 241.9 12.372C241.9 11.988 241.9 11.424 241.9 10.884C243.064 10.836 244.18 10.728 245.068 10.62V9.516C244 9.696 242.944 9.804 241.912 9.852C241.924 9.588 241.924 9.36 241.936 9.216C241.948 8.88 241.972 8.616 241.996 8.4ZM205.6 23.648C205.372 23.996 205.096 24.356 204.82 24.656H202.048C202.384 24.332 202.696 23.996 202.972 23.648H205.6ZM207.928 26.456H202.228V25.544H207.928V26.456ZM207.928 28.208H202.228V27.296H207.928V28.208ZM207.928 29.972H202.228V29.048H207.928V29.972ZM201.124 30.86H209.08V24.656H206.14C206.536 24.2 206.908 23.684 207.16 23.228L206.404 22.724L206.224 22.784H203.632C203.764 22.58 203.908 22.376 204.028 22.172L202.804 21.932C202.216 23 201.124 24.26 199.576 25.172C199.84 25.34 200.224 25.724 200.404 25.964C200.656 25.796 200.896 25.628 201.124 25.448V30.86ZM203.08 30.92C202.276 31.4 200.86 31.844 199.66 32.12C199.924 32.312 200.332 32.768 200.536 32.996C201.7 32.636 203.2 32.036 204.148 31.412L203.08 30.92ZM205.96 31.544C207.16 31.988 208.396 32.552 209.104 32.96L210.328 32.36C209.488 31.952 208.096 31.376 206.86 30.932L205.96 31.544ZM220.516 25.88H217.132V23.78H220.516V25.88ZM220.516 29.036H217.132V26.912H220.516V29.036ZM221.632 22.748H216.052V30.08H221.632V22.748ZM215.68 28.064L215.548 27.044L214.264 27.392V25.316H215.632V24.284H214.264V21.932H213.184V24.284H211.588V25.316H213.184V27.68C212.524 27.848 211.924 28.004 211.432 28.112L211.732 29.18C212.188 29.06 212.668 28.916 213.184 28.772V31.616C213.184 31.796 213.112 31.844 212.944 31.856C212.8 31.856 212.296 31.856 211.768 31.844C211.9 32.12 212.056 32.576 212.092 32.852C212.908 32.852 213.448 32.828 213.796 32.648C214.144 32.492 214.264 32.204 214.264 31.628V28.472L215.68 28.064ZM215.188 31.46V32.492H222.436V31.46H215.188ZM228.208 30.104V31.496H225.352V30.104H228.208ZM224.344 32.924H225.352V32.348H228.208V32.792H229.264V29.264H224.344V32.924ZM228.88 24.896H227.272V24.176H226.228V24.896H224.632V23.888H228.88V24.896ZM227.284 21.98H226.204V23.012H223.648V24.968H224.26V25.712H226.228V26.36H224.356V27.14H226.228V27.836H223.648V28.688H229.792V27.836H227.272V27.14H229.12V26.36H227.272V25.712H229.264V24.968H229.912V23.012H227.284V21.98ZM231.604 23.204H230.548V29.816H231.604V23.204ZM232.984 22.148V31.496C232.984 31.7 232.912 31.76 232.732 31.76C232.492 31.772 231.796 31.772 231.076 31.748C231.244 32.072 231.412 32.588 231.46 32.912C232.396 32.912 233.104 32.876 233.512 32.696C233.932 32.504 234.064 32.192 234.064 31.496V22.148H232.984ZM243.592 29.144V31.496H238.432V29.144H243.592ZM237.34 32.96H238.432V32.492H243.592V32.96H244.732V28.136H237.34V32.96ZM238.264 25.784C239.392 24.92 240.352 23.936 240.964 23.048C241.636 23.972 242.668 24.944 243.796 25.784H238.264ZM240.34 21.956C239.428 23.456 237.46 25.256 235.408 26.3C235.636 26.528 235.96 26.924 236.092 27.188C236.752 26.828 237.412 26.42 238.024 25.964V26.78H244V25.928C244.636 26.396 245.308 26.804 245.944 27.14C246.136 26.804 246.4 26.42 246.676 26.144C244.792 25.328 242.764 23.744 241.48 21.956H240.34Z" fill="black"/>
<path d="M205.966 51.49C205.932 51.3167 206.001 51.204 206.174 51.152L208.436 50.632C208.592 50.5973 208.696 50.658 208.748 50.814C208.939 51.334 209.251 51.776 209.684 52.14C210.118 52.504 210.698 52.686 211.426 52.686C212.258 52.686 212.9 52.4433 213.35 51.958C213.801 51.4553 214.026 50.8227 214.026 50.06C214.026 49.1587 213.766 48.4567 213.246 47.954C212.726 47.434 212.024 47.174 211.14 47.174H210.386C210.213 47.174 210.126 47.0873 210.126 46.914V44.86C210.126 44.6867 210.213 44.6 210.386 44.6H211.088C211.868 44.6 212.492 44.366 212.96 43.898C213.428 43.43 213.662 42.806 213.662 42.026C213.662 41.3153 213.454 40.7433 213.038 40.31C212.622 39.8593 212.042 39.634 211.296 39.634C210.638 39.634 210.118 39.7987 209.736 40.128C209.355 40.4573 209.086 40.8993 208.93 41.454C208.878 41.61 208.774 41.6707 208.618 41.636L206.408 41.116C206.235 41.0813 206.166 40.9773 206.2 40.804C206.304 40.2667 206.495 39.7727 206.772 39.322C207.067 38.854 207.431 38.4553 207.864 38.126C208.315 37.7793 208.835 37.5107 209.424 37.32C210.031 37.1293 210.69 37.034 211.4 37.034C212.232 37.034 212.969 37.1553 213.61 37.398C214.252 37.6407 214.789 37.9787 215.222 38.412C215.673 38.8453 216.011 39.3653 216.236 39.972C216.479 40.5613 216.6 41.2113 216.6 41.922C216.6 42.6673 216.436 43.3607 216.106 44.002C215.777 44.626 215.283 45.1547 214.624 45.588V45.64C214.884 45.744 215.153 45.926 215.43 46.186C215.708 46.4287 215.959 46.732 216.184 47.096C216.41 47.46 216.592 47.8847 216.73 48.37C216.886 48.838 216.964 49.358 216.964 49.93C216.964 50.7447 216.826 51.4813 216.548 52.14C216.271 52.7987 215.881 53.362 215.378 53.83C214.893 54.298 214.312 54.662 213.636 54.922C212.96 55.1647 212.224 55.286 211.426 55.286C210.04 55.286 208.852 54.9567 207.864 54.298C206.876 53.6393 206.244 52.7033 205.966 51.49ZM219.456 51.828C219.404 51.6547 219.352 51.4553 219.3 51.23C219.248 50.9873 219.205 50.6667 219.17 50.268C219.153 49.852 219.135 49.3233 219.118 48.682C219.101 48.0233 219.092 47.1827 219.092 46.16C219.092 45.1373 219.101 44.3053 219.118 43.664C219.135 43.0053 219.153 42.4767 219.17 42.078C219.205 41.662 219.248 41.3413 219.3 41.116C219.352 40.8907 219.404 40.6827 219.456 40.492C219.803 39.3827 220.392 38.5333 221.224 37.944C222.073 37.3373 223.157 37.034 224.474 37.034C225.791 37.034 226.866 37.3373 227.698 37.944C228.547 38.5333 229.154 39.3827 229.518 40.492C229.57 40.6827 229.622 40.8907 229.674 41.116C229.726 41.3413 229.761 41.662 229.778 42.078C229.813 42.4767 229.839 43.0053 229.856 43.664C229.873 44.3053 229.882 45.1373 229.882 46.16C229.882 47.1827 229.873 48.0233 229.856 48.682C229.839 49.3233 229.813 49.852 229.778 50.268C229.761 50.6667 229.726 50.9873 229.674 51.23C229.622 51.4553 229.57 51.6547 229.518 51.828C229.154 52.9373 228.547 53.7953 227.698 54.402C226.866 54.9913 225.791 55.286 224.474 55.286C223.157 55.286 222.073 54.9913 221.224 54.402C220.392 53.7953 219.803 52.9373 219.456 51.828ZM222.316 51.282C222.645 52.218 223.365 52.686 224.474 52.686C225.583 52.686 226.311 52.218 226.658 51.282C226.71 51.1433 226.745 50.9873 226.762 50.814C226.797 50.6407 226.823 50.372 226.84 50.008C226.857 49.644 226.866 49.1587 226.866 48.552C226.883 47.9453 226.892 47.148 226.892 46.16C226.892 45.172 226.883 44.3747 226.866 43.768C226.866 43.1613 226.857 42.676 226.84 42.312C226.823 41.948 226.797 41.6793 226.762 41.506C226.745 41.3327 226.71 41.1767 226.658 41.038C226.311 40.102 225.583 39.634 224.474 39.634C223.365 39.634 222.645 40.102 222.316 41.038C222.264 41.1767 222.221 41.3327 222.186 41.506C222.169 41.6793 222.151 41.948 222.134 42.312C222.117 42.676 222.099 43.1613 222.082 43.768C222.082 44.3747 222.082 45.172 222.082 46.16C222.082 47.148 222.082 47.9453 222.082 48.552C222.099 49.1587 222.117 49.644 222.134 50.008C222.151 50.372 222.169 50.6407 222.186 50.814C222.221 50.9873 222.264 51.1433 222.316 51.282Z" fill="#00655A"/>
<path d="M234.359 51.092C235.595 51.092 236.435 50.06 236.435 48.284C236.435 46.508 235.595 45.5 234.359 45.5C233.123 45.5 232.295 46.508 232.295 48.284C232.295 50.06 233.123 51.092 234.359 51.092ZM234.359 50.276C233.747 50.276 233.303 49.64 233.303 48.284C233.303 46.916 233.747 46.316 234.359 46.316C234.983 46.316 235.427 46.916 235.427 48.284C235.427 49.64 234.983 50.276 234.359 50.276ZM234.635 54.656H235.511L240.347 45.5H239.471L234.635 54.656ZM240.635 54.656C241.859 54.656 242.699 53.636 242.699 51.86C242.699 50.084 241.859 49.076 240.635 49.076C239.399 49.076 238.559 50.084 238.559 51.86C238.559 53.636 239.399 54.656 240.635 54.656ZM240.635 53.852C240.011 53.852 239.579 53.216 239.579 51.86C239.579 50.492 240.011 49.892 240.635 49.892C241.247 49.892 241.691 50.492 241.691 51.86C241.691 53.216 241.247 53.852 240.635 53.852Z" fill="#00655A"/>
<path d="M46.7915 81.7457V82.8737H49.6475C49.6715 83.3057 49.7195 83.7977 49.8035 84.3017L49.1915 84.1937C48.4955 87.4457 47.0435 89.8097 44.4635 91.1417C44.7635 91.3457 45.2795 91.8137 45.4955 92.0417C47.7155 90.7097 49.2155 88.6097 50.1035 85.7177C50.6915 87.9257 51.9755 90.3737 54.6995 92.0177C54.8915 91.7417 55.3475 91.2617 55.5995 91.0697C51.0275 88.3697 50.7515 83.9177 50.7515 81.7457H46.7915ZM66.3395 84.5177H61.5395V83.3537H66.3395V84.5177ZM60.5435 82.3937V84.6377H61.4555V85.4897H66.4235V84.6377H67.3715V82.3937H64.3835V81.0857H63.3035V82.3937H60.5435ZM59.8115 81.5177L59.6435 81.5537H57.0035V92.0657H57.9875V82.5617H59.2715C59.0435 83.3777 58.7315 84.4457 58.4315 85.2497C59.2115 86.1137 59.4035 86.8937 59.4035 87.4937C59.4035 87.8417 59.3555 88.1297 59.1875 88.2497C59.0795 88.3217 58.9595 88.3577 58.8155 88.3577C58.6595 88.3697 58.4555 88.3697 58.2035 88.3457C58.3715 88.6097 58.4555 89.0297 58.4675 89.3057C58.7435 89.3177 59.0315 89.3177 59.2595 89.2937C59.4995 89.2577 59.7275 89.1737 59.9075 89.0537C60.2555 88.8137 60.3995 88.3097 60.3995 87.6257C60.3995 86.9057 60.2195 86.0777 59.4035 85.1297C59.7875 84.1937 60.2075 82.9457 60.5435 81.9377L59.8115 81.5177ZM65.6675 90.9257C65.4515 90.9257 65.4155 90.8897 65.4155 90.5657V87.6497H67.3715V86.6297H60.6755V87.6497H62.1395C62.0195 89.4617 61.6115 90.5777 59.6795 91.2017C59.9075 91.3817 60.1955 91.8017 60.2915 92.0657C62.5475 91.2857 63.0395 89.8697 63.2075 87.6497H64.3595V90.5777C64.3595 91.5977 64.5755 91.9217 65.4875 91.9217H66.4235C67.1675 91.9217 67.4435 91.5017 67.5395 89.9057C67.2515 89.8337 66.8075 89.6657 66.5915 89.4857C66.5675 90.7337 66.5195 90.9257 66.3035 90.9257H65.6675ZM74.0195 85.1657C73.2515 85.1657 72.6275 85.7897 72.6275 86.5577C72.6275 87.3257 73.2515 87.9497 74.0195 87.9497C74.7875 87.9497 75.4115 87.3257 75.4115 86.5577C75.4115 85.7897 74.7875 85.1657 74.0195 85.1657ZM91.4315 87.1817H86.6195V85.4777H90.7475V84.4097H86.6195V82.6457C87.9875 82.4777 89.2595 82.2737 90.3035 81.9737L89.4755 81.0617C87.6035 81.6017 84.2195 81.9137 81.3875 82.0457C81.4955 82.2857 81.6395 82.7417 81.6515 83.0177C82.8635 82.9697 84.1715 82.8857 85.4555 82.7777V84.4097H81.4475V85.4777H85.4555V87.1817H80.6315V88.2737H85.4555V90.6137C85.4555 90.8657 85.3595 90.9497 85.0955 90.9497C84.8195 90.9617 83.8595 90.9617 82.8995 90.9257C83.0795 91.2257 83.2955 91.7297 83.3675 92.0297C84.6035 92.0417 85.4195 92.0177 85.9115 91.8377C86.4155 91.6697 86.6195 91.3577 86.6195 90.6257V88.2737H91.4315V87.1817ZM103.348 81.7217H100.516V82.7177H103.348V81.7217ZM100.348 82.9697C100.18 82.5257 99.7835 81.8537 99.4115 81.3497L98.6795 81.6857C99.0275 82.2017 99.4235 82.8977 99.5675 83.3417L100.348 82.9697ZM94.4795 81.0497C94.0715 81.8417 93.2075 82.8017 92.4155 83.3897C92.5835 83.6057 92.8715 84.0017 93.0155 84.2297C93.9155 83.5217 94.8875 82.4177 95.4995 81.4097L94.4795 81.0497ZM95.9315 85.9817C95.8355 87.4817 95.6555 88.9937 95.1995 89.9777C95.4035 90.0977 95.8115 90.3617 95.9555 90.5057C96.4715 89.4137 96.7115 87.7817 96.8435 86.1017L95.9315 85.9817ZM100.144 84.6617V83.6297H98.4395V81.2297H97.3955V83.6297H95.7035V83.7857L94.7915 83.4857C94.2155 84.7697 93.2435 86.0297 92.2595 86.8337C92.4515 87.0737 92.7755 87.6137 92.8835 87.8297C93.1955 87.5657 93.4955 87.2417 93.7955 86.9057V92.0657H94.8275V85.5497C95.1515 85.0577 95.4515 84.5417 95.7035 84.0257V84.6617H97.3955V91.8857H98.4395V84.6617H100.144ZM98.8835 86.1617C99.1235 87.2777 99.3755 88.7537 99.4355 89.7017L100.312 89.5457C100.24 88.5617 99.9995 87.1337 99.7115 86.0057L98.8835 86.1617ZM103.528 85.0217H100.228V86.0297H101.452V90.7817C101.452 90.9377 101.404 90.9857 101.248 90.9857C101.08 90.9977 100.564 90.9977 99.9995 90.9737C100.132 91.2977 100.276 91.7537 100.312 92.0537C101.128 92.0537 101.68 92.0417 102.052 91.8737C102.424 91.6817 102.508 91.3577 102.508 90.8057V86.0297H103.528V85.0217ZM110.02 85.1657C109.252 85.1657 108.628 85.7897 108.628 86.5577C108.628 87.3257 109.252 87.9497 110.02 87.9497C110.788 87.9497 111.412 87.3257 111.412 86.5577C111.412 85.7897 110.788 85.1657 110.02 85.1657ZM123.16 84.8537V85.7297H121.432V84.8537H123.16ZM125.956 85.7297H124.168V84.8537H125.956V85.7297ZM124.168 87.4457V86.5457H125.956V87.4457H124.168ZM121.432 87.4457V86.5457H123.16V87.4457H121.432ZM121.432 88.2857H123.16V90.1337H124.168V88.2857H125.956V89.1257C125.956 89.2697 125.908 89.3177 125.776 89.3177C125.632 89.3177 125.176 89.3297 124.672 89.3057C124.804 89.5577 124.936 89.9297 124.972 90.2057C125.74 90.2057 126.244 90.1937 126.58 90.0497C126.928 89.8937 127.012 89.6417 127.012 89.1377V84.0257H125.536C125.308 83.8937 125.032 83.7497 124.72 83.6057C125.56 83.1497 126.388 82.5497 127.012 81.9737L126.34 81.4337L126.112 81.4937H120.436V82.3697H125.08C124.684 82.6577 124.216 82.9457 123.76 83.1737C123.232 82.9457 122.68 82.7297 122.212 82.5617L121.492 83.1617C122.104 83.4017 122.824 83.7137 123.472 84.0257H120.388V90.1697H121.432V88.2857ZM119.548 83.1857C119.14 82.6097 118.24 81.8297 117.496 81.3137L116.716 82.0097C117.472 82.5617 118.336 83.4017 118.72 83.9897L119.548 83.1857ZM119.248 85.7057H116.536V86.7377H118.18V89.6057C117.604 90.0617 116.944 90.5177 116.392 90.8537L116.92 91.9577C117.592 91.4537 118.192 90.9617 118.768 90.4697C119.5 91.3937 120.532 91.7897 122.02 91.8497C123.412 91.8977 125.932 91.8737 127.312 91.8137C127.372 91.4897 127.552 90.9737 127.672 90.7217C126.148 90.8297 123.388 90.8657 122.032 90.8057C120.712 90.7457 119.764 90.3857 119.248 89.5457V85.7057ZM138.34 84.5177H133.54V83.3537H138.34V84.5177ZM132.544 82.3937V84.6377H133.456V85.4897H138.424V84.6377H139.372V82.3937H136.384V81.0857H135.304V82.3937H132.544ZM131.812 81.5177L131.644 81.5537H129.004V92.0657H129.988V82.5617H131.272C131.044 83.3777 130.732 84.4457 130.432 85.2497C131.212 86.1137 131.404 86.8937 131.404 87.4937C131.404 87.8417 131.356 88.1297 131.188 88.2497C131.08 88.3217 130.96 88.3577 130.816 88.3577C130.66 88.3697 130.456 88.3697 130.204 88.3457C130.372 88.6097 130.456 89.0297 130.468 89.3057C130.744 89.3177 131.032 89.3177 131.26 89.2937C131.5 89.2577 131.728 89.1737 131.908 89.0537C132.256 88.8137 132.4 88.3097 132.4 87.6257C132.4 86.9057 132.22 86.0777 131.404 85.1297C131.788 84.1937 132.208 82.9457 132.544 81.9377L131.812 81.5177ZM137.668 90.9257C137.452 90.9257 137.416 90.8897 137.416 90.5657V87.6497H139.372V86.6297H132.676V87.6497H134.14C134.02 89.4617 133.612 90.5777 131.68 91.2017C131.908 91.3817 132.196 91.8017 132.292 92.0657C134.548 91.2857 135.04 89.8697 135.208 87.6497H136.36V90.5777C136.36 91.5977 136.576 91.9217 137.488 91.9217H138.424C139.168 91.9217 139.444 91.5017 139.54 89.9057C139.252 89.8337 138.808 89.6657 138.592 89.4857C138.568 90.7337 138.52 90.9257 138.304 90.9257H137.668ZM142.66 83.6297H144.172C144.16 83.8217 144.124 84.0137 144.052 84.1937H142.468L142.66 83.6297ZM145.192 82.3457H146.824V82.9337H145.192V82.3457ZM149.464 82.3457V82.9337H147.88V82.3457H149.464ZM146.824 84.1937H145.12C145.156 84.0137 145.18 83.8217 145.18 83.6297H146.824V84.1937ZM150.136 84.8777C150.1 85.1417 150.052 85.2857 149.992 85.3457C149.932 85.4177 149.848 85.4297 149.74 85.4297C149.608 85.4297 149.308 85.4177 148.972 85.3817C149.032 85.4897 149.08 85.6217 149.128 85.7537H147.88V84.8777H150.136ZM148.888 87.0497H143.284V86.4377H148.888V87.0497ZM148.888 88.3217H143.284V87.6977H148.888V88.3217ZM148.888 89.5937H143.284V88.9697H148.888V89.5937ZM146.824 84.8777V85.7537H144.148C144.496 85.4897 144.736 85.2017 144.892 84.8777H146.824ZM142.192 90.2657H150.016V86.1017C150.112 86.1017 150.196 86.0897 150.256 86.0897C150.496 86.0777 150.724 86.0177 150.892 85.8497C151.072 85.6457 151.156 85.2617 151.228 84.5177C151.228 84.3977 151.24 84.1937 151.24 84.1937H147.88V83.6297H150.484V81.6497H147.88V81.0497H146.824V81.6497H145.192V81.0497H144.184V81.6497H141.352V82.3457H144.184V82.9337H141.844C141.652 83.6057 141.376 84.3977 141.124 84.9617L142.156 85.0217L142.216 84.8777H143.596C143.104 85.3337 142.228 85.6937 140.68 85.9457C140.86 86.1377 141.112 86.5697 141.208 86.8097C141.568 86.7497 141.892 86.6777 142.192 86.5937V90.2657ZM144.172 90.2777C143.344 90.6977 141.904 91.0697 140.668 91.2857C140.92 91.4657 141.304 91.8857 141.484 92.1017C142.684 91.8017 144.196 91.2857 145.168 90.7337L144.172 90.2777ZM146.86 90.8537C148.144 91.2497 149.416 91.7297 150.148 92.0777L151.372 91.5137C150.508 91.1537 149.044 90.6617 147.748 90.2777L146.86 90.8537ZM158.668 87.4457V85.6697H161.572V87.4457H158.668ZM154.9 87.4457C154.936 87.0017 154.948 86.5577 154.948 86.1497V85.6697H157.552V87.4457H154.9ZM157.552 82.9337V84.6257H154.948V82.9337H157.552ZM161.572 84.6257H158.668V82.9337H161.572V84.6257ZM162.688 81.8657H153.844V86.1377C153.844 87.8297 153.724 89.9537 152.416 91.4057C152.668 91.5377 153.124 91.9217 153.292 92.1377C154.168 91.1657 154.6 89.8217 154.792 88.5017H157.552V91.9337H158.668V88.5017H161.572V90.6497C161.572 90.8777 161.488 90.9497 161.272 90.9497C161.044 90.9497 160.252 90.9617 159.484 90.9257C159.628 91.2137 159.808 91.7057 159.856 92.0057C160.96 92.0177 161.656 91.9937 162.1 91.8137C162.532 91.6457 162.688 91.3097 162.688 90.6617V81.8657ZM175.012 86.9057C175.012 84.3977 173.188 82.3817 170.308 82.3817C167.296 82.3817 164.944 84.6857 164.944 87.3737C164.944 89.3777 166.036 90.6977 167.224 90.6977C168.412 90.6977 169.408 89.3417 170.128 86.8937C170.476 85.7657 170.68 84.6017 170.848 83.5217C172.696 83.7497 173.752 85.1297 173.752 86.8697C173.752 88.8017 172.384 89.9297 170.848 90.2777C170.548 90.3497 170.188 90.4097 169.78 90.4457L170.488 91.5737C173.404 91.1537 175.012 89.4257 175.012 86.9057ZM166.156 87.2537C166.156 85.7657 167.416 83.8937 169.576 83.5457C169.432 84.6017 169.216 85.6937 168.916 86.6417C168.364 88.4897 167.8 89.2697 167.26 89.2697C166.744 89.2697 166.156 88.6337 166.156 87.2537ZM178.336 91.1177H179.752C179.896 87.6617 180.22 85.7057 182.296 83.1257V82.2737H176.608V83.4497H180.76C179.056 85.8257 178.492 87.8897 178.336 91.1177ZM186.283 91.2737C188.011 91.2737 189.139 89.7377 189.139 86.6657C189.139 83.6177 188.011 82.1177 186.283 82.1177C184.555 82.1177 183.427 83.6057 183.427 86.6657C183.427 89.7377 184.555 91.2737 186.283 91.2737ZM186.283 90.1817C185.383 90.1817 184.747 89.2217 184.747 86.6657C184.747 84.1337 185.383 83.2097 186.283 83.2097C187.183 83.2097 187.819 84.1337 187.819 86.6657C187.819 89.2217 187.183 90.1817 186.283 90.1817ZM192.203 87.7097C193.439 87.7097 194.279 86.6777 194.279 84.9017C194.279 83.1257 193.439 82.1177 192.203 82.1177C190.967 82.1177 190.139 83.1257 190.139 84.9017C190.139 86.6777 190.967 87.7097 192.203 87.7097ZM192.203 86.8937C191.591 86.8937 191.147 86.2577 191.147 84.9017C191.147 83.5337 191.591 82.9337 192.203 82.9337C192.827 82.9337 193.271 83.5337 193.271 84.9017C193.271 86.2577 192.827 86.8937 192.203 86.8937ZM192.479 91.2737H193.355L198.191 82.1177H197.315L192.479 91.2737ZM198.479 91.2737C199.703 91.2737 200.543 90.2537 200.543 88.4777C200.543 86.7017 199.703 85.6937 198.479 85.6937C197.243 85.6937 196.403 86.7017 196.403 88.4777C196.403 90.2537 197.243 91.2737 198.479 91.2737ZM198.479 90.4697C197.855 90.4697 197.423 89.8337 197.423 88.4777C197.423 87.1097 197.855 86.5097 198.479 86.5097C199.091 86.5097 199.535 87.1097 199.535 88.4777C199.535 89.8337 199.091 90.4697 198.479 90.4697ZM206.644 81.5657L205.396 81.4697C205.372 81.9017 205.276 82.4057 205.12 82.8977C204.88 82.9097 204.64 82.9097 204.412 82.9097C203.836 82.9097 202.984 82.8737 202.348 82.7777V83.9057C203.02 83.9537 203.848 83.9777 204.352 83.9777C204.46 83.9777 204.58 83.9777 204.7 83.9777C204.208 84.9977 203.392 86.1617 201.988 87.4817L203.02 88.2497C203.416 87.7457 203.764 87.3017 204.112 86.9657C204.616 86.4857 205.372 86.1017 206.104 86.1017C206.548 86.1017 206.932 86.2817 207.088 86.7017C205.696 87.4097 204.256 88.3457 204.256 89.8217C204.256 91.3097 205.648 91.7297 207.436 91.7297C208.516 91.7297 209.908 91.6217 210.772 91.5137L210.808 90.3017C209.752 90.4937 208.444 90.6137 207.472 90.6137C206.26 90.6137 205.48 90.4457 205.48 89.6297C205.48 88.9217 206.128 88.3697 207.16 87.8057C207.148 88.3937 207.136 89.0777 207.112 89.4977H208.252C208.24 88.9217 208.228 87.9617 208.216 87.2777C209.056 86.8937 209.836 86.5817 210.448 86.3417C210.808 86.1977 211.324 86.0057 211.672 85.8977L211.18 84.7937C210.796 84.9857 210.448 85.1417 210.04 85.3217C209.476 85.5857 208.864 85.8377 208.12 86.1857C207.892 85.5137 207.268 85.1657 206.512 85.1657C206.044 85.1657 205.372 85.2977 204.976 85.5257C205.312 85.0697 205.636 84.5057 205.9 83.9417C207.196 83.9057 208.672 83.7977 209.848 83.6297V82.5137C208.756 82.7057 207.496 82.8137 206.32 82.8617C206.476 82.3457 206.572 81.9017 206.644 81.5657ZM48.7009 98.0857C48.0409 99.8497 46.9369 101.578 45.7729 102.682C45.9769 102.946 46.2889 103.546 46.3969 103.81C46.7689 103.426 47.1529 102.97 47.5129 102.478V109.042H48.5689V100.858C49.0129 100.066 49.4089 99.2497 49.7449 98.4217L48.7009 98.0857ZM51.1129 99.5857H55.1569V101.518H51.1129V99.5857ZM56.8969 104.83V103.822H53.6569V102.514H56.2729V98.6017H50.0689V102.514H52.5409V103.822H49.2289V104.83H51.9529C51.1729 106.006 49.9969 107.098 48.8449 107.686C49.0969 107.902 49.4329 108.298 49.6129 108.574C50.6809 107.938 51.7369 106.87 52.5409 105.67V109.078H53.6569V105.61C54.4129 106.81 55.4329 107.926 56.4409 108.598C56.6089 108.322 56.9809 107.926 57.2209 107.71C56.1289 107.098 54.9889 105.994 54.2569 104.83H56.8969ZM61.3249 98.5177L61.1569 98.5537H58.4449V109.066H59.4289V99.5617H60.7729C60.5329 100.402 60.1969 101.506 59.8729 102.346C60.7009 103.198 60.9169 103.93 60.9289 104.518C60.9289 104.866 60.8569 105.154 60.7009 105.274C60.5929 105.346 60.4489 105.37 60.3049 105.382C60.1369 105.382 59.8969 105.382 59.6329 105.358C59.8009 105.634 59.8969 106.054 59.8969 106.342C60.1969 106.354 60.5089 106.354 60.7489 106.318C61.0009 106.294 61.2289 106.222 61.4089 106.078C61.7809 105.838 61.9369 105.358 61.9369 104.662C61.9369 103.942 61.7209 103.138 60.8569 102.226C61.2649 101.242 61.7209 99.9577 62.0569 98.9497L61.3249 98.5177ZM63.2809 104.926V103.57H64.8049V104.47C64.8049 104.626 64.8049 104.77 64.7929 104.926H63.2809ZM67.4329 103.57V104.926H65.8009C65.8129 104.782 65.8129 104.638 65.8129 104.494V103.57H67.4329ZM63.5209 100.846C64.2529 100.282 64.9009 99.6217 65.3089 99.0217C65.7769 99.6457 66.4729 100.294 67.2169 100.846H63.5209ZM68.4529 105.814V102.682H65.8129V101.794H67.6489V101.146C67.9729 101.35 68.2969 101.542 68.6089 101.698C68.7529 101.386 68.9809 100.978 69.1849 100.714C67.9369 100.222 66.6289 99.2017 65.7769 98.0617H64.7689C64.1329 99.0937 62.8369 100.258 61.4929 100.87C61.6849 101.11 61.9249 101.518 62.0209 101.782C62.3809 101.602 62.7409 101.386 63.0889 101.158V101.794H64.8049V102.682H62.2969V105.814H64.6249C64.3129 106.774 63.4969 107.638 61.4209 108.286C61.6249 108.466 61.9369 108.898 62.0329 109.126C63.9889 108.502 64.9729 107.578 65.4289 106.546C66.1609 107.95 67.1449 108.61 68.4649 109.114C68.5849 108.79 68.8609 108.406 69.1129 108.178C67.8049 107.77 66.8569 107.218 66.1609 105.814H68.4529ZM72.9289 101.638C73.9609 100.822 74.8369 99.9337 75.4129 99.1177C76.0369 99.9577 76.9729 100.846 78.0169 101.638H72.9289ZM75.9889 105.01H79.9009V104.05H75.9889V102.622H78.4249V101.938C79.0609 102.394 79.7089 102.802 80.3449 103.126C80.5369 102.802 80.8009 102.418 81.0649 102.13C79.2049 101.326 77.2009 99.7777 75.9289 98.0257H74.7889C73.8889 99.5017 71.9329 101.266 69.8929 102.274C70.1329 102.502 70.4569 102.922 70.5889 103.174C71.2369 102.826 71.8609 102.43 72.4609 101.998V102.622H74.8129V104.05H70.9849V105.01H74.8129V107.734H70.4089V108.706H80.5249V107.734H75.9889V105.01ZM71.8609 105.55C72.3169 106.21 72.7729 107.11 72.9169 107.686L73.8889 107.254C73.7209 106.678 73.2409 105.826 72.7729 105.19L71.8609 105.55ZM77.6089 107.686C78.0529 107.146 78.5929 106.33 79.0609 105.574L77.9929 105.178C77.7049 105.838 77.1889 106.75 76.7809 107.314L77.6089 107.686ZM85.2649 98.6857L84.0769 99.1777C84.6409 100.462 85.2409 101.818 85.7929 102.826C84.5689 103.69 83.7529 104.674 83.7529 105.946C83.7529 107.866 85.4569 108.526 87.7729 108.526C89.2969 108.526 90.6409 108.406 91.5889 108.238L91.6009 106.87C90.6169 107.122 89.0089 107.302 87.7249 107.302C85.9369 107.302 85.0369 106.75 85.0369 105.814C85.0369 104.938 85.7089 104.182 86.7649 103.486C87.9049 102.742 89.5009 101.998 90.2929 101.59C90.6769 101.398 91.0129 101.218 91.3249 101.026L90.6649 99.9337C90.3889 100.162 90.1009 100.342 89.7049 100.57C89.0809 100.918 87.8929 101.506 86.8369 102.142C86.3329 101.206 85.7449 99.9817 85.2649 98.6857ZM97.7089 98.6977L96.1729 98.6857C96.2569 99.0817 96.3049 99.5737 96.3049 100.078C96.3049 101.23 96.1849 104.326 96.1849 106.03C96.1849 108.022 97.4089 108.802 99.2329 108.802C101.921 108.802 103.541 107.254 104.333 106.114L103.481 105.07C102.617 106.354 101.357 107.542 99.2569 107.542C98.2129 107.542 97.4329 107.11 97.4329 105.838C97.4329 104.182 97.5169 101.41 97.5769 100.078C97.5889 99.6457 97.6369 99.1417 97.7089 98.6977ZM106.046 100.018L106.178 101.338C107.51 101.05 110.306 100.762 111.518 100.63C110.546 101.266 109.478 102.73 109.478 104.53C109.478 107.182 111.938 108.442 114.29 108.55L114.734 107.278C112.742 107.194 110.702 106.462 110.702 104.278C110.702 102.85 111.77 101.146 113.366 100.666C113.99 100.498 115.034 100.486 115.694 100.486V99.2737C114.866 99.3097 113.666 99.3817 112.382 99.4897C110.174 99.6697 108.038 99.8737 107.162 99.9577C106.934 99.9817 106.514 100.006 106.046 100.018ZM121.798 98.4577H120.478C120.514 98.6737 120.55 99.1537 120.55 99.4057C120.55 99.6217 120.538 100.054 120.538 100.594C120.238 100.618 119.962 100.63 119.71 100.63C119.266 100.63 118.798 100.618 118.114 100.534L118.15 101.686C118.546 101.722 119.002 101.746 119.734 101.746C119.962 101.746 120.226 101.734 120.526 101.71C120.514 102.166 120.514 102.622 120.514 103.042C120.514 103.282 120.514 103.534 120.514 103.786C119.098 104.398 117.862 105.466 117.862 106.486C117.862 107.638 119.458 108.598 120.502 108.598C121.21 108.598 121.678 108.226 121.678 106.954C121.678 106.474 121.642 105.466 121.63 104.47C122.422 104.218 123.25 104.074 124.09 104.074C125.182 104.074 126.01 104.59 126.01 105.514C126.01 106.522 125.134 107.05 124.126 107.242C123.682 107.338 123.166 107.338 122.686 107.326L123.118 108.55C123.562 108.526 124.102 108.49 124.642 108.37C126.406 107.95 127.234 106.954 127.234 105.526C127.234 103.99 125.89 103.03 124.102 103.03C123.37 103.03 122.482 103.162 121.606 103.414C121.606 103.27 121.606 103.126 121.606 102.994C121.606 102.562 121.618 102.082 121.63 101.602C122.458 101.506 123.346 101.362 124.042 101.206L124.018 100.03C123.358 100.222 122.494 100.39 121.654 100.486C121.678 100.054 121.69 99.6697 121.702 99.3817C121.726 99.0937 121.762 98.6857 121.798 98.4577ZM125.386 99.7777L124.858 100.69C125.614 101.086 127.054 101.938 127.63 102.466L128.218 101.506C127.618 101.038 126.274 100.222 125.386 99.7777ZM119.038 106.426C119.038 105.946 119.662 105.334 120.538 104.902C120.55 105.682 120.574 106.378 120.574 106.762C120.574 107.158 120.406 107.314 120.166 107.314C119.758 107.314 119.038 106.906 119.038 106.426ZM137.17 103.606C136.594 104.662 135.766 105.49 134.758 106.15C133.774 105.466 133.006 104.626 132.478 103.606H137.17ZM137.998 102.454L137.806 102.502H135.274V100.858H139.75V99.7537H135.274V98.0497H134.122V99.7537H129.682V100.858H134.122V102.502H130.234V103.606H132.238L131.41 103.894C131.986 105.034 132.742 105.97 133.678 106.738C132.37 107.35 130.846 107.746 129.202 107.986C129.43 108.25 129.73 108.766 129.826 109.054C131.59 108.742 133.258 108.238 134.698 107.458C136.03 108.262 137.638 108.802 139.558 109.09C139.714 108.778 140.014 108.274 140.266 108.01C138.538 107.806 137.038 107.386 135.802 106.762C137.11 105.814 138.142 104.566 138.778 102.922L137.998 102.454ZM146.014 104.17L145.93 103.162C145.354 103.294 144.778 103.426 144.214 103.558V101.446H145.858V100.414H144.214V98.0377H143.122V100.414H141.322V101.446H143.122V103.798C142.378 103.954 141.694 104.098 141.142 104.206L141.394 105.298L143.122 104.878V107.758C143.122 107.962 143.062 108.01 142.882 108.022C142.702 108.034 142.102 108.034 141.502 108.01C141.646 108.31 141.778 108.778 141.826 109.066C142.738 109.066 143.326 109.03 143.71 108.874C144.082 108.694 144.214 108.394 144.214 107.758V104.614L146.014 104.17ZM152.362 108.634C152.026 107.254 151.054 105.142 150.106 103.51L149.134 103.858C149.662 104.818 150.19 105.946 150.61 106.99C149.386 107.134 148.15 107.278 147.046 107.41C147.766 104.926 148.57 101.446 149.05 98.5777L147.838 98.3617C147.442 101.254 146.626 105.034 145.882 107.53C145.438 107.578 145.018 107.626 144.658 107.662L144.898 108.826C146.506 108.61 148.798 108.31 150.982 107.998C151.102 108.382 151.21 108.742 151.282 109.054L152.362 108.634ZM155.602 99.6577L154.138 99.6337C154.21 99.9577 154.234 100.462 154.234 100.762C154.234 101.482 154.246 102.922 154.366 103.978C154.69 107.134 155.806 108.286 157.018 108.286C157.894 108.286 158.638 107.578 159.394 105.526L158.446 104.41C158.17 105.502 157.642 106.81 157.042 106.81C156.238 106.81 155.746 105.538 155.566 103.654C155.482 102.718 155.47 101.71 155.482 100.954C155.482 100.63 155.542 100.006 155.602 99.6577ZM161.746 99.9577L160.558 100.354C161.77 101.794 162.454 104.458 162.658 106.522L163.894 106.042C163.738 104.098 162.85 101.35 161.746 99.9577ZM168.982 98.6977L167.446 98.6857C167.53 99.0817 167.578 99.5737 167.578 100.078C167.578 101.23 167.458 104.326 167.458 106.03C167.458 108.022 168.682 108.802 170.506 108.802C173.194 108.802 174.814 107.254 175.606 106.114L174.754 105.07C173.89 106.354 172.63 107.542 170.53 107.542C169.486 107.542 168.706 107.11 168.706 105.838C168.706 104.182 168.79 101.41 168.85 100.078C168.862 99.6457 168.91 99.1417 168.982 98.6977ZM179.95 106.81C179.95 106.33 180.502 105.934 181.522 105.934C181.894 105.934 182.266 105.97 182.614 106.042C182.626 106.306 182.626 106.546 182.626 106.714C182.626 107.482 182.11 107.686 181.438 107.686C180.406 107.686 179.95 107.326 179.95 106.81ZM183.73 98.5177H182.446C182.494 98.7097 182.506 99.0697 182.506 99.2737C182.506 99.4777 182.506 99.7297 182.506 100.006C182.338 100.006 182.158 100.006 181.99 100.006C181.222 100.006 179.782 99.8857 178.978 99.7417L178.99 100.834C179.77 100.93 181.21 101.05 182.002 101.05C182.17 101.05 182.338 101.05 182.494 101.05C182.494 101.53 182.494 102.034 182.494 102.526C182.29 102.526 182.086 102.526 181.882 102.526C181.15 102.526 179.734 102.442 178.918 102.31L178.93 103.438C179.758 103.534 181.09 103.594 181.858 103.594C182.086 103.594 182.302 103.594 182.518 103.594C182.53 104.038 182.554 104.53 182.566 104.998C182.278 104.974 181.99 104.95 181.678 104.95C179.89 104.95 178.822 105.73 178.822 106.882C178.822 108.082 179.794 108.754 181.594 108.754C183.166 108.754 183.826 107.926 183.826 107.014C183.826 106.846 183.814 106.642 183.802 106.39C184.894 106.834 185.806 107.518 186.49 108.142L187.186 107.074C186.49 106.51 185.302 105.67 183.742 105.238C183.718 104.698 183.682 104.122 183.658 103.57C184.81 103.522 185.806 103.438 186.91 103.306L186.922 102.19C185.878 102.334 184.822 102.442 183.634 102.49C183.634 102.106 183.634 101.542 183.634 101.002C184.798 100.954 185.914 100.846 186.802 100.738V99.6337C185.734 99.8137 184.678 99.9217 183.646 99.9697C183.658 99.7057 183.658 99.4777 183.67 99.3337C183.682 98.9977 183.706 98.7337 183.73 98.5177ZM196.402 98.5417H195.022C195.046 98.6617 195.082 99.0337 195.118 99.4177C195.13 99.5617 195.13 99.7657 195.142 100.03C193.426 100.054 191.194 100.114 189.838 100.138L189.874 101.29C191.362 101.194 193.33 101.122 195.154 101.098C195.154 101.446 195.166 101.806 195.166 102.118C194.962 102.058 194.734 102.034 194.494 102.034C193.282 102.034 192.262 102.934 192.262 104.194C192.262 105.562 193.306 106.282 194.278 106.282C194.59 106.282 194.878 106.222 195.118 106.102C194.542 107.026 193.438 107.554 192.022 107.866L193.042 108.874C195.886 108.046 196.738 106.162 196.738 104.566C196.738 103.954 196.594 103.402 196.318 102.97C196.318 102.43 196.318 101.734 196.306 101.086C198.046 101.086 199.186 101.11 199.894 101.146L199.918 100.018H196.318C196.318 99.7777 196.318 99.5617 196.33 99.4177C196.33 99.2497 196.366 98.6977 196.402 98.5417ZM193.39 104.17C193.39 103.45 193.93 103.042 194.482 103.042C194.878 103.042 195.226 103.222 195.418 103.618C195.574 104.746 195.106 105.238 194.482 105.238C193.906 105.238 193.39 104.83 193.39 104.17ZM201.867 105.166C200.835 105.166 199.983 106.018 199.983 107.05C199.983 108.082 200.835 108.922 201.867 108.922C202.911 108.922 203.739 108.082 203.739 107.05C203.739 106.018 202.911 105.166 201.867 105.166ZM201.867 108.202C201.231 108.202 200.715 107.686 200.715 107.05C200.715 106.414 201.231 105.898 201.867 105.898C202.503 105.898 203.019 106.414 203.019 107.05C203.019 107.686 202.503 108.202 201.867 108.202Z" fill="black"/>
</svg>
